<svg width="18" height="19" viewBox="0 0 18 19" fill="none" xmlns="http://www.w3.org/2000/svg">
<path d="M3.01443 16.4481C4.66351 17.8642 6.844 18.7611 9.24332 18.7608C11.9388 18.7606 14.9099 17.6284 17.7096 14.8287C18.0968 14.4415 18.0968 13.8136 17.7096 13.4263C17.3222 13.0392 16.6945 13.0392 16.3072 13.4263C11.6125 18.1213 6.90827 17.178 4.3064 14.9434C2.42934 13.3314 2.00758 11.2725 1.98426 9.8293C1.94823 7.59667 2.86922 5.2888 4.3304 3.94951C7.15543 1.36075 11.3831 1.34774 13.9552 3.91964C15.5841 5.54848 15.7843 8.37573 15.0368 10.1684C14.6977 10.9815 13.8566 11.3695 13.2704 11.262C13.0354 11.2188 12.793 11.1053 12.776 10.5894C12.7753 10.5701 12.8027 8.59215 12.8027 8.59215C12.8027 6.3445 10.9742 4.51591 8.72645 4.51591C6.4788 4.51591 4.65021 6.3444 4.65021 8.59215V10.0636C4.65021 12.3112 6.4787 14.1398 8.72645 14.1398C9.9529 14.1398 11.0536 13.5946 11.8014 12.7349C12.113 12.9693 12.4866 13.1346 12.9132 13.2127C14.5031 13.5035 16.2034 12.5234 16.8672 10.9316C18.0256 8.15362 17.3765 4.53633 15.3575 2.51734C13.7145 0.87443 11.5303 -0.0177513 9.19842 0.000267693C6.92397 0.0197321 4.7193 0.903049 2.99044 2.48756C1.10124 4.21903 -0.0441753 7.04454 0.00130585 9.86138C0.0435108 12.4765 1.11357 14.8157 3.01443 16.4481ZM10.8194 10.0637C10.8194 11.2177 9.88054 12.1566 8.72636 12.1566C7.57218 12.1566 6.63336 11.2177 6.63336 10.0637V8.59225C6.63336 7.43807 7.57227 6.49925 8.72636 6.49925C9.88044 6.49925 10.8194 7.43816 10.8194 8.59225V10.0637Z" fill="white"/>
</svg>
