<svg width="18" height="18" viewBox="0 0 18 18" fill="none" xmlns="http://www.w3.org/2000/svg">
<path d="M14.5059 0H3.49412C1.58824 0 0 1.58824 0 3.49412V7.2V14.6118C0 16.4118 1.58824 18 3.49412 18H14.5059C16.4118 18 18 16.4118 18 14.5059V7.09412V3.49412C18 1.58824 16.4118 0 14.5059 0ZM15.5647 2.11765H15.8824V2.54118V5.18824H12.8118V2.11765H15.5647ZM6.45882 7.2C6.98824 6.35294 7.94118 5.82353 9 5.82353C10.0588 5.82353 11.0118 6.35294 11.5412 7.09412C11.9647 7.62353 12.1765 8.25882 12.1765 8.89412C12.1765 10.6941 10.8 12.0706 9 12.0706C7.2 12.0706 5.82353 10.6941 5.82353 8.89412C5.82353 8.36471 6.03529 7.72941 6.45882 7.2ZM16.3059 14.5059C16.3059 15.4588 15.5647 16.2 14.6118 16.2H3.49412C2.54118 16.2 1.8 15.4588 1.8 14.5059V7.09412H4.44706C4.23529 7.72941 4.12941 8.36471 4.12941 9C4.12941 11.7529 6.35294 13.9765 9.10588 13.9765C11.8588 13.9765 14.0824 11.7529 14.0824 9C14.0824 8.36471 13.9765 7.72941 13.7647 7.2H16.4118V14.5059H16.3059Z" fill="white"/>
</svg>
