<svg width="18" height="15" viewBox="0 0 18 15" fill="none" xmlns="http://www.w3.org/2000/svg">
<path d="M18 1.70414C17.3609 2.02367 16.6154 2.23669 15.8698 2.3432C16.6154 1.91716 17.2544 1.1716 17.4675 0.319527C16.7219 0.745562 15.9763 1.06509 15.1243 1.1716C14.4852 0.426036 13.5266 0 12.4615 0C10.4379 0 8.73373 1.70414 8.73373 3.72781C8.73373 4.04734 8.73373 4.26035 8.84024 4.57988C5.75148 4.36686 2.98225 2.98225 1.1716 0.639053C0.852071 1.27811 0.639053 1.91716 0.639053 2.55621C0.639053 3.83432 1.27811 5.00592 2.3432 5.64497C1.70414 5.64497 1.1716 5.43195 0.639053 5.21894C0.639053 7.02959 1.91716 8.52071 3.6213 8.84024C3.30178 8.94675 2.98225 9.05325 2.66272 9.05325C2.4497 9.05325 2.23669 9.05325 1.91716 8.94674C2.3432 10.4379 3.72781 11.503 5.43195 11.503C4.15385 12.4615 2.55621 13.1006 0.852071 13.1006C0.532544 13.1006 0.213018 13.1006 1.58711e-09 13.1006C1.59763 14.1657 3.6213 14.8047 5.75148 14.8047C12.568 14.8047 16.2959 9.15976 16.2959 4.26035C16.2959 4.04734 16.2959 3.94083 16.2959 3.72781C16.9349 3.19527 17.574 2.4497 18 1.70414Z" fill="white"/>
</svg>
