<svg width="537" height="440" viewBox="0 0 537 440" fill="none" xmlns="http://www.w3.org/2000/svg">
<rect width="537" height="440" fill="#0E111B"/>
<g opacity="0.3">
<path d="M463.56 70.0296C461.519 70.0296 459.672 70.5097 458.02 71.374C458.214 70.6057 458.311 69.9336 458.311 69.0693C458.311 64.4601 454.521 60.8111 449.953 60.8111C447.815 60.8111 445.968 61.5793 444.511 62.8277C444.413 55.1456 438.193 49 430.418 49C422.643 49 416.326 55.2417 416.326 62.9237C416.326 63.0197 416.326 63.2118 416.326 63.3078C414.285 62.3476 411.952 61.8674 409.522 61.8674C400.386 61.8674 393 69.1654 393 78.1918C393 87.2182 400.386 94.5161 409.522 94.5161H463.56C470.363 94.5161 476 89.0427 476 82.2248C476 75.407 470.46 70.0296 463.56 70.0296Z" fill="white"/>
<path d="M463.56 70.0296C461.519 70.0296 459.672 70.5097 458.02 71.374C458.214 70.6057 458.311 69.9336 458.311 69.0693C458.311 64.4601 454.521 60.8111 449.953 60.8111C447.815 60.8111 445.968 61.5793 444.511 62.8277C444.413 55.1456 438.193 49 430.418 49C422.643 49 416.326 55.2417 416.326 62.9237C416.326 63.0197 416.326 63.2118 416.326 63.3078C414.285 62.3476 411.952 61.8674 409.522 61.8674C400.386 61.8674 393 69.1654 393 78.1918C393 87.2182 400.386 94.5161 409.522 94.5161H463.56C470.363 94.5161 476 89.0427 476 82.2248C476 75.407 470.46 70.0296 463.56 70.0296Z" fill="url(#paint0_linear)"/>
</g>
<g opacity="0.3">
<path d="M115.56 70.0296C113.519 70.0296 111.672 70.5097 110.02 71.374C110.214 70.6057 110.311 69.9336 110.311 69.0693C110.311 64.4601 106.521 60.8111 101.953 60.8111C99.815 60.8111 97.9684 61.5793 96.5105 62.8277C96.4133 55.1456 90.1932 49 82.418 49C74.6429 49 68.3255 55.2417 68.3255 62.9237C68.3255 63.0197 68.3255 63.2118 68.3255 63.3078C66.2845 62.3476 63.952 61.8674 61.5222 61.8674C52.3864 61.8674 45 69.1654 45 78.1918C45 87.2182 52.3864 94.5161 61.5222 94.5161H115.56C122.363 94.5161 128 89.0427 128 82.2248C128 75.407 122.46 70.0296 115.56 70.0296Z" fill="white"/>
<path d="M115.56 70.0296C113.519 70.0296 111.672 70.5097 110.02 71.374C110.214 70.6057 110.311 69.9336 110.311 69.0693C110.311 64.4601 106.521 60.8111 101.953 60.8111C99.815 60.8111 97.9684 61.5793 96.5105 62.8277C96.4133 55.1456 90.1932 49 82.418 49C74.6429 49 68.3255 55.2417 68.3255 62.9237C68.3255 63.0197 68.3255 63.2118 68.3255 63.3078C66.2845 62.3476 63.952 61.8674 61.5222 61.8674C52.3864 61.8674 45 69.1654 45 78.1918C45 87.2182 52.3864 94.5161 61.5222 94.5161H115.56C122.363 94.5161 128 89.0427 128 82.2248C128 75.407 122.46 70.0296 115.56 70.0296Z" fill="url(#paint1_linear)"/>
</g>
<g opacity="0.5">
<g clip-path="url(#clip0)">
<path d="M215 57.4345L268.935 26L323 57.4345L268.935 89L215 57.4345Z" fill="white"/>
<path d="M215 57.4345L268.935 26L323 57.4345L268.935 89L215 57.4345Z" fill="url(#paint2_linear)"/>
<path d="M215 120.434L268.935 151.999V88.9991L215 57.4336V120.434Z" fill="white"/>
<path d="M215 120.434L268.935 151.999V88.9991L215 57.4336V120.434Z" fill="url(#paint3_linear)"/>
<path d="M268.936 151.999L323 120.434V57.4336L268.936 88.9991V151.999Z" fill="url(#paint4_linear)"/>
</g>
</g>
<path d="M256 127.5L99 219" stroke="#7BB7EF" stroke-width="2"/>
<path d="M281 127.5L437 219" stroke="#7BB7EF" stroke-width="2"/>
<g opacity="0.5">
<g clip-path="url(#clip1)">
<path d="M32 161.435L85.9352 130L140 161.435L85.9352 193L32 161.435Z" fill="white"/>
<path d="M32 161.435L85.9352 130L140 161.435L85.9352 193L32 161.435Z" fill="url(#paint5_linear)"/>
<path d="M32 224.434L85.9352 255.999V192.999L32 161.434V224.434Z" fill="white"/>
<path d="M32 224.434L85.9352 255.999V192.999L32 161.434V224.434Z" fill="url(#paint6_linear)"/>
<path d="M85.9355 255.999L140 224.434V161.434L85.9355 192.999V255.999Z" fill="url(#paint7_linear)"/>
<path d="M39.7793 234.781C56.6292 238.984 69.4044 246.917 84.077 255.811C100.16 265.559 116.49 274.741 132.552 284.553C162.82 303.041 194.36 321.217 222.012 343.565C246.209 363.12 270.161 383.688 295.193 402.141C300.091 405.752 306.369 399.051 310.32 396.32C328.68 383.629 346.894 371.161 364.773 357.754C384.964 342.615 405.409 327.81 423.693 310.312C438.563 296.08 452.987 281.951 468.855 268.835C482.205 257.801 495.028 246.228 508.543 235.364C510.6 233.71 525.437 223.664 520.788 222.993C517.932 222.581 514.7 219.449 512.576 217.9C499.594 208.428 487.389 197.943 474.545 188.285C443.689 165.081 410.293 146.398 376.73 127.598C358.433 117.35 341.381 105.461 322.42 96.3822C310.95 90.8902 304.801 85.7215 293.897 92.0163" stroke="black" stroke-linecap="round" stroke-linejoin="round"/>
</g>
</g>
<path opacity="0.7" d="M269.033 161L155 225.026L268.371 297L382 225.026L269.033 161Z" stroke="#7BB7EF"/>
<path opacity="0.3" d="M269 183L192 226.312L268.413 275L345 226.312L269 183Z" stroke="#7BB7EF"/>
<path d="M97 232.5L269 340L439 232.5" stroke="#7BB7EF" stroke-width="2"/>
<path d="M63.0212 225.472L86.47 212.15L109.975 225.472L86.47 238.849L63.0212 225.472Z" stroke="#7BB7EF" stroke-width="2"/>
<path d="M245.021 120.472L268.47 107.15L291.975 120.472L268.47 133.849L245.021 120.472Z" stroke="#7BB7EF" stroke-width="2"/>
<g opacity="0.5">
<g clip-path="url(#clip2)">
<path d="M397 161.435L450.935 130L505 161.435L450.935 193L397 161.435Z" fill="white"/>
<path d="M397 161.435L450.935 130L505 161.435L450.935 193L397 161.435Z" fill="url(#paint8_linear)"/>
<path d="M397 224.434L450.935 255.999V192.999L397 161.434V224.434Z" fill="white"/>
<path d="M397 224.434L450.935 255.999V192.999L397 161.434V224.434Z" fill="url(#paint9_linear)"/>
<path d="M450.936 255.999L505 224.434V161.434L450.936 192.999V255.999Z" fill="url(#paint10_linear)"/>
</g>
</g>
<path d="M426.021 225.472L449.47 212.15L472.975 225.472L449.47 238.849L426.021 225.472Z" stroke="#7BB7EF" stroke-width="2"/>
<g clip-path="url(#clip3)">
<path d="M245 81.4719L268.472 68L292 81.4719L268.472 95L245 81.4719Z" fill="white"/>
<path d="M245 81.4719L268.472 68L292 81.4719L268.472 95L245 81.4719Z" fill="url(#paint11_linear)"/>
<path d="M245 108.473L268.472 122.001V95.0007L245 81.4727V108.473Z" fill="white"/>
<path d="M245 108.473L268.472 122.001V95.0007L245 81.4727V108.473Z" fill="url(#paint12_linear)"/>
<path d="M268.473 122.001L292.001 108.473V81.4727L268.473 95.0007V122.001Z" fill="url(#paint13_linear)"/>
<path d="M272 99L289 89" stroke="white" stroke-opacity="0.8" stroke-linecap="round"/>
<path d="M272 105L289 95" stroke="white" stroke-opacity="0.8" stroke-linecap="round"/>
</g>
<g clip-path="url(#clip4)">
<path d="M61 177.47L86.4694 163L112 177.47L86.4694 192L61 177.47Z" fill="white"/>
<path d="M61 177.47L86.4694 163L112 177.47L86.4694 192L61 177.47Z" fill="url(#paint14_linear)"/>
<path d="M61 206.471L86.4694 221.001V192.001L61 177.471V206.471Z" fill="white"/>
<path d="M61 206.471L86.4694 221.001V192.001L61 177.471V206.471Z" fill="url(#paint15_linear)"/>
<path d="M86.4688 221.001L111.999 206.471V177.471L86.4688 192.001V221.001Z" fill="url(#paint16_linear)"/>
<path d="M91 195L108 185" stroke="white" stroke-opacity="0.8" stroke-linecap="round"/>
<path d="M91 201L108 191" stroke="white" stroke-opacity="0.8" stroke-linecap="round"/>
<path d="M91 207L108 197" stroke="white" stroke-opacity="0.8" stroke-linecap="round"/>
</g>
<g clip-path="url(#clip5)">
<path d="M425 177.47L450.469 163L476 177.47L450.469 192L425 177.47Z" fill="white"/>
<path d="M425 177.47L450.469 163L476 177.47L450.469 192L425 177.47Z" fill="url(#paint17_linear)"/>
<path d="M425 206.471L450.469 221.001V192.001L425 177.471V206.471Z" fill="white"/>
<path d="M425 206.471L450.469 221.001V192.001L425 177.471V206.471Z" fill="url(#paint18_linear)"/>
<path d="M450.469 221.001L475.999 206.471V177.471L450.469 192.001V221.001Z" fill="url(#paint19_linear)"/>
<path d="M446 197L429 187" stroke="white" stroke-opacity="0.8" stroke-linecap="round"/>
<path d="M446 203L429 193" stroke="white" stroke-opacity="0.8" stroke-linecap="round"/>
</g>
<path d="M155.941 314.986C86.7486 314.986 88.6035 414 150.094 414H381.34C439 414 439 362.765 439 362.765C439 362.765 439 314.986 381.34 314.986C375.56 286.657 345.292 230 270.455 230C195.617 230 162.93 286.657 155.941 314.986Z" fill="url(#paint20_linear)"/>
<path d="M232.006 362.25V348.25H227.836L214.895 369.25H224.816C228.787 369.25 232.006 366.116 232.006 362.25Z" fill="#E52421"/>
<path d="M206.711 369.25H211.301L223.822 348.25H219.232L206.711 369.25ZM203.675 369.25L216.383 348.25H209.746L197.039 369.25H203.675ZM171 369.25H195.372L208.199 348.25H195.931C188.422 348.25 181.463 352.12 177.6 358.446L171 369.25ZM243.91 369.25C249.393 369.25 251.503 366.486 251.503 363.236C251.503 360.624 250.238 359.044 248.098 358.254C249.756 357.435 250.841 355.946 250.841 353.79C250.841 350.053 248.158 348.291 243.247 348.291H236.287V369.25H243.91ZM243.307 356.583H240.505V351.876H242.855C245.898 351.876 246.622 352.726 246.622 354.184C246.622 355.673 245.627 356.583 243.307 356.583ZM243.549 365.666H240.505V360.168H243.157C245.989 360.168 247.285 360.927 247.285 362.902C247.285 364.694 246.081 365.666 243.549 365.666ZM259.999 369.25V365.909C258.373 365.909 257.89 365.149 257.89 363.509V348.291H254.034V364.39C254.034 368.187 255.931 369.25 259.999 369.25ZM268.165 369.523C270.153 369.523 270.967 369.007 271.6 367.974V369.25H275.366V354.063H271.539V362.993C271.539 365.089 270.696 366.183 268.918 366.183C267.321 366.183 266.477 365.362 266.477 362.963V354.063H262.621V363.54C262.621 368.005 265.122 369.523 268.165 369.523ZM284.616 369.523C287.328 369.523 289.076 368.795 290.13 366.942L287.268 364.937C286.695 365.757 286.183 366.243 284.586 366.243C282.447 366.243 281.784 364.724 281.754 362.628H290.341V360.897C290.341 356.28 288.383 353.79 284.134 353.79C280.217 353.79 277.927 356.007 277.927 360.594V362.659C277.927 366.577 280.097 369.523 284.616 369.523ZM286.484 359.865H281.754C281.904 358.133 282.628 357.069 284.165 357.069C285.611 357.069 286.394 357.891 286.484 359.865ZM299.953 369.25V351.906H305.678V348.291H290.01V351.906H295.736V369.25H299.953ZM311.313 369.25V360.32C311.313 358.315 312.187 357.13 313.965 357.13C315.531 357.13 316.375 357.981 316.375 360.351V369.25H320.202V359.742C320.202 355.247 317.731 353.789 314.688 353.789C312.94 353.789 311.886 354.488 311.313 355.247V348.291H307.456V369.25H311.313ZM327.765 352.058V348.291H323.607V352.058H327.765ZM327.614 369.25V354.063H323.758V369.25H327.614ZM334.996 369.25V360.32C334.996 358.315 335.87 357.13 337.648 357.13C339.214 357.13 340.058 357.981 340.058 360.351V369.25H343.885V359.742C343.885 355.247 341.414 353.789 338.371 353.789C336.683 353.789 335.478 354.579 334.906 355.338V354.063H331.139V369.25H334.996ZM350.845 369.25V364.815L351.869 363.54L355.998 369.25H360.517L354.431 360.411L359.643 354.063H355.063L350.845 359.591V348.291H346.988V369.25H350.845ZM362.472 353.011C362.533 353.011 362.583 353.008 362.623 353.001C362.656 352.997 362.688 352.99 362.72 352.98C362.74 352.974 362.757 352.962 362.77 352.945C362.78 352.93 362.785 352.912 362.785 352.893V348.785H364.107C364.126 348.785 364.144 348.78 364.159 348.77C364.176 348.759 364.19 348.743 364.199 348.725C364.212 348.699 364.22 348.671 364.223 348.642C364.234 348.561 364.234 348.479 364.223 348.399C364.22 348.369 364.212 348.34 364.199 348.312C364.191 348.293 364.177 348.277 364.159 348.265C364.144 348.255 364.126 348.25 364.107 348.25H360.837C360.819 348.25 360.801 348.255 360.785 348.265C360.768 348.276 360.754 348.293 360.747 348.312C360.735 348.34 360.727 348.369 360.723 348.399C360.716 348.439 360.713 348.48 360.714 348.521C360.714 348.567 360.717 348.608 360.723 348.642C360.727 348.67 360.735 348.698 360.747 348.724C360.756 348.745 360.769 348.76 360.785 348.77C360.8 348.78 360.818 348.785 360.837 348.785H362.159V352.893C362.159 352.912 362.164 352.93 362.174 352.945C362.187 352.962 362.205 352.974 362.225 352.98C362.257 352.99 362.29 352.998 362.323 353.002C362.364 353.008 362.414 353.011 362.472 353.011ZM369.716 353.011C369.776 353.011 369.825 353.008 369.863 353.001C369.894 352.997 369.925 352.99 369.956 352.98C369.976 352.974 369.993 352.962 370.006 352.945C370.016 352.93 370.021 352.912 370.021 352.893V348.536C370.022 348.492 370.014 348.447 369.999 348.406C369.986 348.373 369.967 348.343 369.943 348.318C369.919 348.294 369.89 348.277 369.859 348.267C369.825 348.255 369.791 348.25 369.755 348.25H369.36C369.306 348.249 369.252 348.256 369.2 348.27C369.154 348.284 369.112 348.306 369.075 348.336C369.033 348.371 368.998 348.412 368.97 348.459C368.935 348.518 368.906 348.581 368.883 348.646L367.467 352.066H367.449L366.087 348.635C366.068 348.575 366.042 348.517 366.01 348.462C365.982 348.414 365.945 348.372 365.9 348.339C365.855 348.306 365.803 348.284 365.749 348.272C365.69 348.257 365.623 348.25 365.545 348.25H365.167C365.102 348.25 365.039 348.273 364.989 348.316C364.936 348.36 364.91 348.433 364.91 348.536V352.893C364.91 352.913 364.914 352.931 364.923 352.945C364.931 352.96 364.946 352.971 364.969 352.98C364.992 352.989 365.024 352.995 365.062 353.002C365.11 353.009 365.159 353.012 365.207 353.011C365.268 353.011 365.318 353.008 365.356 353.001C365.388 352.997 365.42 352.99 365.451 352.98C365.471 352.974 365.489 352.962 365.502 352.945C365.512 352.93 365.517 352.912 365.517 352.893V348.766H365.52L367.122 352.912C367.127 352.927 367.136 352.94 367.149 352.953C367.166 352.966 367.185 352.977 367.206 352.983C367.23 352.992 367.26 352.998 367.297 353.004C367.382 353.013 367.467 353.013 367.552 353.005C367.583 353.002 367.614 352.996 367.643 352.987C367.665 352.981 367.684 352.97 367.701 352.956C367.715 352.944 367.725 352.929 367.733 352.912L369.406 348.766H369.414V352.893C369.414 352.912 369.419 352.93 369.429 352.945C369.441 352.962 369.458 352.974 369.478 352.98C369.5 352.989 369.532 352.995 369.572 353.002C369.612 353.008 369.66 353.011 369.716 353.011Z" fill="#F2F2F2"/>
<defs>
<linearGradient id="paint0_linear" x1="434.5" y1="49" x2="434.5" y2="94.5161" gradientUnits="userSpaceOnUse">
<stop stop-color="#47BBD5"/>
<stop offset="1" stop-color="#265293"/>
</linearGradient>
<linearGradient id="paint1_linear" x1="86.5" y1="49" x2="86.5" y2="94.5161" gradientUnits="userSpaceOnUse">
<stop stop-color="#47BBD5"/>
<stop offset="1" stop-color="#265293"/>
</linearGradient>
<linearGradient id="paint2_linear" x1="222.131" y1="57.4345" x2="303.163" y2="57.4345" gradientUnits="userSpaceOnUse">
<stop stop-color="#47BBD5"/>
<stop offset="1" stop-color="#265293"/>
</linearGradient>
<linearGradient id="paint3_linear" x1="241.968" y1="57.4336" x2="241.968" y2="151.999" gradientUnits="userSpaceOnUse">
<stop stop-color="#47BBD5"/>
<stop offset="1" stop-color="#265293"/>
</linearGradient>
<linearGradient id="paint4_linear" x1="279.179" y1="78.3899" x2="323.266" y2="151.342" gradientUnits="userSpaceOnUse">
<stop stop-color="#3073A7"/>
<stop offset="1" stop-color="#265293" stop-opacity="0"/>
</linearGradient>
<linearGradient id="paint5_linear" x1="39.1309" y1="161.435" x2="120.163" y2="161.435" gradientUnits="userSpaceOnUse">
<stop stop-color="#47BBD5"/>
<stop offset="1" stop-color="#265293"/>
</linearGradient>
<linearGradient id="paint6_linear" x1="58.9676" y1="161.434" x2="58.9676" y2="255.999" gradientUnits="userSpaceOnUse">
<stop stop-color="#47BBD5"/>
<stop offset="1" stop-color="#265293"/>
</linearGradient>
<linearGradient id="paint7_linear" x1="96.1785" y1="182.39" x2="140.266" y2="255.342" gradientUnits="userSpaceOnUse">
<stop stop-color="#3073A7"/>
<stop offset="1" stop-color="#265293" stop-opacity="0"/>
</linearGradient>
<linearGradient id="paint8_linear" x1="404.131" y1="161.435" x2="485.163" y2="161.435" gradientUnits="userSpaceOnUse">
<stop stop-color="#47BBD5"/>
<stop offset="1" stop-color="#265293"/>
</linearGradient>
<linearGradient id="paint9_linear" x1="423.968" y1="161.434" x2="423.968" y2="255.999" gradientUnits="userSpaceOnUse">
<stop stop-color="#47BBD5"/>
<stop offset="1" stop-color="#265293"/>
</linearGradient>
<linearGradient id="paint10_linear" x1="461.179" y1="182.39" x2="505.266" y2="255.342" gradientUnits="userSpaceOnUse">
<stop stop-color="#3073A7"/>
<stop offset="1" stop-color="#265293" stop-opacity="0"/>
</linearGradient>
<linearGradient id="paint11_linear" x1="248.103" y1="81.4719" x2="283.367" y2="81.4719" gradientUnits="userSpaceOnUse">
<stop stop-color="#47BBD5"/>
<stop offset="1" stop-color="#265293"/>
</linearGradient>
<linearGradient id="paint12_linear" x1="256.736" y1="81.4727" x2="256.736" y2="122.001" gradientUnits="userSpaceOnUse">
<stop stop-color="#47BBD5"/>
<stop offset="1" stop-color="#265293"/>
</linearGradient>
<linearGradient id="paint13_linear" x1="272.93" y1="90.4539" x2="291.689" y2="121.973" gradientUnits="userSpaceOnUse">
<stop stop-color="#3073A7"/>
<stop offset="1" stop-color="#020E20"/>
</linearGradient>
<linearGradient id="paint14_linear" x1="64.3673" y1="177.47" x2="102.633" y2="177.47" gradientUnits="userSpaceOnUse">
<stop stop-color="#47BBD5"/>
<stop offset="1" stop-color="#265293"/>
</linearGradient>
<linearGradient id="paint15_linear" x1="73.7347" y1="177.471" x2="73.7347" y2="221.001" gradientUnits="userSpaceOnUse">
<stop stop-color="#47BBD5"/>
<stop offset="1" stop-color="#265293"/>
</linearGradient>
<linearGradient id="paint16_linear" x1="91.3057" y1="187.117" x2="111.355" y2="221.152" gradientUnits="userSpaceOnUse">
<stop stop-color="#3073A7"/>
<stop offset="1" stop-color="#020E20"/>
</linearGradient>
<linearGradient id="paint17_linear" x1="428.367" y1="177.47" x2="466.633" y2="177.47" gradientUnits="userSpaceOnUse">
<stop stop-color="#47BBD5"/>
<stop offset="1" stop-color="#265293"/>
</linearGradient>
<linearGradient id="paint18_linear" x1="437.735" y1="177.471" x2="437.735" y2="221.001" gradientUnits="userSpaceOnUse">
<stop stop-color="#47BBD5"/>
<stop offset="1" stop-color="#265293"/>
</linearGradient>
<linearGradient id="paint19_linear" x1="455.306" y1="187.117" x2="475.355" y2="221.152" gradientUnits="userSpaceOnUse">
<stop stop-color="#3073A7"/>
<stop offset="1" stop-color="#020E20"/>
</linearGradient>
<linearGradient id="paint20_linear" x1="271.5" y1="230" x2="271.5" y2="414" gradientUnits="userSpaceOnUse">
<stop stop-color="#28344A"/>
<stop offset="1" stop-color="#0E111B"/>
</linearGradient>
<clipPath id="clip0">
<rect x="215" y="26" width="108" height="126" fill="white"/>
</clipPath>
<clipPath id="clip1">
<rect x="32" y="130" width="108" height="126" fill="white"/>
</clipPath>
<clipPath id="clip2">
<rect x="397" y="130" width="108" height="126" fill="white"/>
</clipPath>
<clipPath id="clip3">
<rect x="245" y="68" width="47" height="54" fill="white"/>
</clipPath>
<clipPath id="clip4">
<rect x="61" y="163" width="51" height="58" fill="white"/>
</clipPath>
<clipPath id="clip5">
<rect x="425" y="163" width="51" height="58" fill="white"/>
</clipPath>
</defs>
</svg>
