<svg xmlns="http://www.w3.org/2000/svg" width="100" height="100" viewBox="0 0 100 100">
    <defs>
        <radialGradient id="a" r="45.8%" fx="50%" fy="50%">
            <stop offset="0%" stop-color="#F2F2F2"/>
            <stop offset="40.025%" stop-color="#F2F2F2"/>
            <stop offset="100%" stop-color="#FFEE20"/>
        </radialGradient>
        <filter id="b" width="107%" height="107%" x="-3.5%" y="-3.5%" filterUnits="objectBoundingBox">
            <feGaussianBlur in="SourceGraphic" stdDeviation="1"/>
        </filter>
        <linearGradient id="c" x1="50%" x2="50%" y1="0%" y2="50%">
            <stop offset="0%" stop-color="#008B29"/>
            <stop offset="100%" stop-color="#34AF49"/>
        </linearGradient>
    </defs>
    <g fill="none" fill-rule="evenodd">
        <circle cx="50" cy="50" r="50" fill="#FFC020" opacity=".8"/>
        <circle cx="50" cy="50" r="33" fill="#FFC020" opacity=".8"/>
        <path fill="url(#a)" d="M50 70.5l-3.217 20.374.01-20.626-6.364 19.62 3.236-20.371-9.355 18.382 6.383-19.613-12.115 16.692 9.372-18.373-14.577 14.592 12.131-16.681-16.68 12.131L33.414 62.05l-18.373 9.372 16.692-12.115-19.613 6.383 18.382-9.355-20.37 3.236 19.62-6.364-20.627.01L29.5 50 9.126 46.783l20.626.01-19.62-6.364 20.371 3.236-18.382-9.355 19.613 6.383-16.692-12.115 18.373 9.372-14.592-14.577 16.681 12.131-12.131-16.68L37.95 33.414l-9.372-18.373 12.115 16.692-6.383-19.613 9.355 18.382-3.236-20.37 6.364 19.62-.01-20.627L50 29.5l3.217-20.374-.01 20.626 6.364-19.62-3.236 20.371 9.355-18.382-6.383 19.613 12.115-16.692-9.372 18.373 14.577-14.592-12.131 16.681 16.68-12.131L66.586 37.95l18.373-9.372-16.692 12.115 19.613-6.383-18.382 9.355 20.37-3.236-19.62 6.364 20.627-.01L70.5 50l20.374 3.217-20.626-.01 19.62 6.364-20.371-3.236 18.382 9.355-19.613-6.383 16.692 12.115-18.373-9.372 14.592 14.577-16.681-12.131 12.131 16.68L62.05 66.586l9.372 18.373-12.115-16.692 6.383 19.613-9.355-18.382 3.236 20.37-6.364-19.62.01 20.627z" filter="url(#b)"/>
        <circle cx="50" cy="50" r="19" fill="#FFC020"/>
        <path fill="#F2F2F2" fill-opacity=".811" fill-rule="nonzero" d="M50 31c10.493 0 19 8.507 19 19s-8.507 19-19 19-19-8.507-19-19 8.507-19 19-19zm0 3c-8.837 0-16 7.163-16 16s7.163 16 16 16 16-7.163 16-16-7.163-16-16-16z"/>
        <path fill="url(#c)" d="M2.985 58.003C6.633 80.68 26.294 98.002 50 98.002s43.367-17.322 47.015-40"/>
        <path fill="#F2F2F2" fill-rule="nonzero" d="M50 94.828c24.758 0 44.828-20.07 44.828-44.828 0-24.758-20.07-44.828-44.828-44.828C25.242 5.172 5.172 25.242 5.172 50c0 24.758 20.07 44.828 44.828 44.828zM50 100C22.386 100 0 77.614 0 50S22.386 0 50 0s50 22.386 50 50-22.386 50-50 50z"/>
    </g>
</svg>
