<?xml version="1.0" encoding="UTF-8"?>
<svg width="320px" height="30px" viewBox="0 0 320 30" version="1.1" xmlns="http://www.w3.org/2000/svg" xmlns:xlink="http://www.w3.org/1999/xlink">
    <!-- Generator: Sketch 57.1 (83088) - https://sketch.com -->
    <title>btgo-logo</title>
    <desc>Created with Sketch.</desc>
    <g id="Page-1" stroke="none" stroke-width="1" fill="none" fill-rule="evenodd">
        <g id="btgo-logo" fill-rule="nonzero">
            <path d="M82,19.667 L82,1 L76.395,1 L59,29 L72.336,29 C77.673,29 82,24.821 82,19.667 Z" id="Path" fill="#E52421"></path>
            <path d="M48,29 L54.17,29 L71,1 L64.83,1 L48,29 Z M43.92,29 L61,1 L52.08,1 L35,29 L43.92,29 Z M0,29 L32.759,29 L50,1 L33.511,1 C23.417,1 14.064,6.16 8.871,14.594 L0,29 Z M98,29 C105.371,29 108.207,25.315 108.207,20.981 C108.207,17.498 106.506,15.392 103.63,14.339 C105.858,13.246 107.316,11.261 107.316,8.386 C107.316,3.404 103.711,1.055 97.109,1.055 L87.754,1.055 L87.754,29 L98,29 Z M97.19,12.111 L93.424,12.111 L93.424,5.834 L96.583,5.834 C100.673,5.834 101.646,6.968 101.646,8.912 C101.646,10.897 100.309,12.112 97.19,12.112 L97.19,12.111 Z M97.515,24.221 L93.424,24.221 L93.424,16.891 L96.988,16.891 C100.795,16.891 102.537,17.903 102.537,20.536 C102.537,22.925 100.917,24.221 97.514,24.221 L97.515,24.221 Z M119.626,29 L119.626,24.545 C117.44,24.545 116.792,23.532 116.792,21.345 L116.792,1.055 L111.608,1.055 L111.608,22.52 C111.608,27.583 114.159,29 119.627,29 L119.626,29 Z M130.602,29.364 C133.275,29.364 134.368,28.676 135.219,27.299 L135.219,29 L140.282,29 L140.282,8.75 L135.138,8.75 L135.138,20.657 C135.138,23.452 134.004,24.91 131.614,24.91 C129.468,24.91 128.334,23.816 128.334,20.617 L128.334,8.75 L123.15,8.75 L123.15,21.386 C123.15,27.34 126.512,29.365 130.602,29.365 L130.602,29.364 Z M152.715,29.364 C156.36,29.364 158.709,28.393 160.126,25.922 L156.279,23.249 C155.509,24.342 154.821,24.99 152.674,24.99 C149.799,24.99 148.908,22.965 148.868,20.171 L160.41,20.171 L160.41,17.863 C160.41,11.706 157.778,8.386 152.067,8.386 C146.802,8.386 143.724,11.342 143.724,17.458 L143.724,20.212 C143.724,25.436 146.64,29.364 152.715,29.364 L152.715,29.364 Z M155.226,16.486 L148.868,16.486 C149.07,14.177 150.042,12.759 152.108,12.759 C154.052,12.759 155.104,13.853 155.226,16.485 L155.226,16.486 Z M173.33,29 L173.33,5.874 L181.025,5.874 L181.025,1.055 L159.965,1.055 L159.965,5.875 L167.661,5.875 L167.661,29 L173.331,29 L173.33,29 Z M188.599,29 L188.599,17.093 C188.599,14.42 189.774,12.84 192.163,12.84 C194.269,12.84 195.403,13.974 195.403,17.134 L195.403,29 L200.547,29 L200.547,16.323 C200.547,10.329 197.226,8.385 193.135,8.385 C190.786,8.385 189.369,9.317 188.599,10.329 L188.599,1.055 L183.415,1.055 L183.415,29 L188.599,29 Z M210.712,6.077 L210.712,1.055 L205.123,1.055 L205.123,6.077 L210.712,6.077 Z M210.51,29 L210.51,8.75 L205.326,8.75 L205.326,29 L210.51,29 Z M220.432,29 L220.432,17.093 C220.432,14.42 221.607,12.84 223.996,12.84 C226.102,12.84 227.236,13.974 227.236,17.134 L227.236,29 L232.38,29 L232.38,16.323 C232.38,10.329 229.059,8.385 224.968,8.385 C222.7,8.385 221.08,9.438 220.311,10.451 L220.311,8.75 L215.248,8.75 L215.248,29 L220.432,29 Z M241.735,29 L241.735,23.087 L243.112,21.386 L248.661,29 L254.736,29 L246.555,17.215 L253.561,8.75 L247.405,8.75 L241.735,16.121 L241.735,1.055 L236.551,1.055 L236.551,29 L241.735,29 Z M279.965,29.243 C286.648,29.243 291.165,25.395 293.4,16.485 L293.68,15.352 L283.758,15.352 L283.162,17.538 L290.776,17.538 C288.688,24.91 285.219,27.056 280.562,27.056 C275.823,27.056 273.664,24.302 275.688,16.688 L276.565,13.367 C278.588,5.753 281.532,2.999 286.878,2.999 C290.766,2.999 293.038,4.7 292.747,9.519 L295.015,9.519 C295.649,3.849 292.294,0.812 287.475,0.812 C280.873,0.812 276.58,4.336 274.215,13.367 L273.339,16.688 C270.974,25.719 274.539,29.243 279.965,29.243 L279.965,29.243 Z M304.427,29.243 C310.988,29.243 315.235,25.8 317.646,16.688 L318.523,13.367 C320.666,5.186 317.93,0.812 311.936,0.812 C305.092,0.812 300.985,4.579 298.678,13.367 L297.801,16.688 C295.491,25.517 298.838,29.243 304.427,29.243 Z M305.024,27.056 C300.204,27.056 298.169,24.262 300.15,16.688 L301.027,13.367 C303.004,5.834 305.873,2.999 311.34,2.999 C315.917,2.999 318.206,5.632 316.174,13.367 L315.297,16.688 C313.317,24.261 310.005,27.056 305.024,27.056 L305.024,27.056 Z M257.363,7.348 C257.445,7.348 257.513,7.344 257.566,7.335 C257.610117,7.32926078 257.653627,7.31955481 257.696,7.306 C257.72304,7.29841431 257.746897,7.28227591 257.764,7.26 C257.777556,7.23958205 257.784536,7.21550272 257.784,7.191 L257.784,1.713 L259.561,1.713 C259.587,1.713 259.611,1.706 259.631,1.693 C259.654047,1.67819455 259.672696,1.65747335 259.685,1.633 C259.701812,1.59840722 259.712632,1.56121269 259.717,1.523 C259.731615,1.41515959 259.731615,1.30584041 259.717,1.198 C259.712559,1.15820067 259.701755,1.1193729 259.685,1.083 C259.673236,1.05736941 259.65453,1.03554535 259.631,1.02 C259.610003,1.00690348 259.585747,0.999999923 259.561,0.999999923 L255.166,0.999999923 C255.141253,0.999999923 255.116997,1.00690348 255.096,1.02 C255.072663,1.03522352 255.054524,1.05720073 255.044,1.083 C255.028733,1.11990214 255.017989,1.15851617 255.012,1.198 C255.003431,1.25190008 254.999417,1.30642613 255,1.361 C255,1.423 255.004,1.477 255.012,1.522 C255.017915,1.55988501 255.02867,1.59685385 255.044,1.632 C255.057,1.66 255.074,1.68 255.095,1.693 C255.116,1.706 255.14,1.713 255.166,1.713 L256.943,1.713 L256.943,7.191 C256.942464,7.21550272 256.949444,7.23958205 256.963,7.26 C256.980103,7.28227591 257.00396,7.29841431 257.031,7.306 C257.073991,7.32001185 257.118176,7.33005385 257.163,7.336 C257.218,7.344 257.285,7.348 257.363,7.348 L257.363,7.348 Z M267.1,7.348 C267.181,7.348 267.247,7.344 267.297,7.335 C267.339424,7.32895127 267.381246,7.31924852 267.422,7.306 C267.44904,7.29841431 267.472897,7.28227591 267.49,7.26 C267.503556,7.23958205 267.510536,7.21550272 267.51,7.191 L267.51,1.381 C267.511353,1.32193059 267.501162,1.26316512 267.48,1.208 C267.46307,1.16408374 267.437575,1.12397258 267.405,1.09 C267.373214,1.05875053 267.334496,1.03545125 267.292,1.022 C267.24716,1.0072053 267.200218,0.999775652 267.153,1 L266.621,1 C266.548423,0.998887214 266.476049,1.00797603 266.406,1.027 C266.344674,1.0447928 266.287545,1.0747175 266.238,1.115 C266.182481,1.1610553 266.135147,1.21616515 266.098,1.278 C266.050701,1.35719159 266.011503,1.44094807 265.981,1.528 L264.077,6.088 L264.053,6.088 L262.222,1.513 C262.196143,1.43281174 262.161605,1.3556877 262.119,1.283 C262.042957,1.15271174 261.915531,1.06050004 261.768,1.029 C261.689,1.009 261.598,1 261.494,1 L260.986,1 C260.898414,1.00003923 260.813698,1.03123177 260.747,1.088 C260.675,1.146 260.64,1.244 260.64,1.381 L260.64,7.191 C260.64,7.217 260.645,7.241 260.657,7.26 C260.668,7.28 260.689,7.295 260.72,7.306 C260.751,7.318 260.793,7.327 260.845,7.336 C260.909607,7.34488547 260.974791,7.3488968 261.04,7.348 C261.121,7.348 261.188,7.344 261.24,7.335 C261.283103,7.32908043 261.3256,7.31937627 261.367,7.306 C261.394405,7.29861045 261.418638,7.28245479 261.436,7.26 C261.449556,7.23958205 261.456536,7.21550272 261.456,7.191 L261.456,1.688 L261.46,1.688 L263.613,7.216 C263.62,7.236 263.632,7.253 263.65,7.27 C263.672376,7.28855318 263.698207,7.30248825 263.726,7.311 C263.758,7.322 263.799,7.331 263.848,7.338 C263.96229,7.35053513 264.077572,7.35120537 264.192,7.34 C264.233412,7.33641779 264.274317,7.32837109 264.314,7.316 C264.342601,7.30748606 264.369149,7.29319095 264.392,7.274 C264.410029,7.25793103 264.424359,7.23814283 264.434,7.216 L266.684,1.688 L266.694,1.688 L266.694,7.191 C266.693464,7.21550272 266.700444,7.23958205 266.714,7.26 C266.730583,7.28192607 266.75369,7.29803079 266.78,7.306 C266.81,7.318 266.853,7.327 266.907,7.336 C266.96,7.344 267.025,7.348 267.1,7.348 L267.1,7.348 Z" id="Shape" fill="#15192E"></path>
        </g>
    </g>
</svg>