<svg width="217" height="119" viewBox="0 0 217 119" fill="none" xmlns="http://www.w3.org/2000/svg">
<path d="M184.475 54.981C179.139 54.981 174.311 56.2363 169.992 58.4958C170.5 56.4873 170.754 54.73 170.754 52.4705C170.754 40.4198 160.844 30.8797 148.902 30.8797C143.311 30.8797 138.484 32.8882 134.672 36.1519C134.418 16.0675 118.156 0 97.8279 0C77.5 0 60.9836 16.3186 60.9836 36.403C60.9836 36.654 60.9836 37.1561 60.9836 37.4072C55.6475 34.8966 49.5492 33.6413 43.1967 33.6413C19.3115 33.6413 0 52.7215 0 76.3207C0 99.9198 19.3115 119 43.1967 119H184.475C202.262 119 217 104.69 217 86.865C217 69.0401 202.516 54.981 184.475 54.981Z" fill="white"/>
<path d="M184.475 54.981C179.139 54.981 174.311 56.2363 169.992 58.4958C170.5 56.4873 170.754 54.73 170.754 52.4705C170.754 40.4198 160.844 30.8797 148.902 30.8797C143.311 30.8797 138.484 32.8882 134.672 36.1519C134.418 16.0675 118.156 0 97.8279 0C77.5 0 60.9836 16.3186 60.9836 36.403C60.9836 36.654 60.9836 37.1561 60.9836 37.4072C55.6475 34.8966 49.5492 33.6413 43.1967 33.6413C19.3115 33.6413 0 52.7215 0 76.3207C0 99.9198 19.3115 119 43.1967 119H184.475C202.262 119 217 104.69 217 86.865C217 69.0401 202.516 54.981 184.475 54.981Z" fill="url(#paint0_linear)"/>
<path d="M82.4219 87.224C80.6193 87.224 79.2433 86.7227 78.2939 85.72C77.3553 84.7173 76.8859 83.2933 76.8859 81.448C76.8859 80.5307 77.0299 79.7147 77.3179 79C77.6059 78.2747 78.0006 77.6667 78.5019 77.176C79.0033 76.6747 79.6006 76.296 80.2939 76.04C80.9873 75.784 81.7393 75.656 82.5499 75.656C83.0193 75.656 83.4459 75.6933 83.8299 75.768C84.2139 75.832 84.5499 75.912 84.8379 76.008C85.1259 76.0933 85.3659 76.184 85.5579 76.28C85.7499 76.376 85.8886 76.4507 85.9739 76.504L85.2539 78.52C84.9126 78.3387 84.5126 78.184 84.0539 78.056C83.6059 77.928 83.0939 77.864 82.5179 77.864C82.1339 77.864 81.7553 77.928 81.3819 78.056C81.0193 78.184 80.6939 78.392 80.4059 78.68C80.1286 78.9573 79.9046 79.32 79.7339 79.768C79.5633 80.216 79.4779 80.76 79.4779 81.4C79.4779 81.912 79.5313 82.392 79.6379 82.84C79.7553 83.2773 79.9366 83.656 80.1819 83.976C80.4379 84.296 80.7686 84.552 81.1739 84.744C81.5793 84.9253 82.0699 85.016 82.6459 85.016C83.0086 85.016 83.3339 84.9947 83.6219 84.952C83.9099 84.9093 84.1659 84.8613 84.3899 84.808C84.6139 84.744 84.8113 84.6747 84.9819 84.6C85.1526 84.5253 85.3073 84.456 85.4459 84.392L86.1339 86.392C85.7819 86.6053 85.2859 86.7973 84.6459 86.968C84.0059 87.1387 83.2646 87.224 82.4219 87.224ZM97.1489 84.856V87H89.7409V75.912H92.2369V84.856H97.1489ZM102.54 81.448C102.54 81.992 102.604 82.4827 102.732 82.92C102.871 83.3573 103.063 83.736 103.308 84.056C103.564 84.3653 103.873 84.6053 104.236 84.776C104.599 84.9467 105.015 85.032 105.484 85.032C105.943 85.032 106.353 84.9467 106.716 84.776C107.089 84.6053 107.399 84.3653 107.644 84.056C107.9 83.736 108.092 83.3573 108.22 82.92C108.359 82.4827 108.428 81.992 108.428 81.448C108.428 80.904 108.359 80.4133 108.22 79.976C108.092 79.528 107.9 79.1493 107.644 78.84C107.399 78.52 107.089 78.2747 106.716 78.104C106.353 77.9333 105.943 77.848 105.484 77.848C105.015 77.848 104.599 77.9387 104.236 78.12C103.873 78.2907 103.564 78.536 103.308 78.856C103.063 79.1653 102.871 79.544 102.732 79.992C102.604 80.4293 102.54 80.9147 102.54 81.448ZM111.004 81.448C111.004 82.3973 110.86 83.2347 110.572 83.96C110.295 84.6747 109.911 85.2773 109.42 85.768C108.929 86.248 108.343 86.6107 107.66 86.856C106.988 87.1013 106.263 87.224 105.484 87.224C104.727 87.224 104.012 87.1013 103.34 86.856C102.668 86.6107 102.081 86.248 101.58 85.768C101.079 85.2773 100.684 84.6747 100.396 83.96C100.108 83.2347 99.9641 82.3973 99.9641 81.448C99.9641 80.4987 100.113 79.6667 100.412 78.952C100.711 78.2267 101.111 77.6187 101.612 77.128C102.124 76.6373 102.711 76.2693 103.372 76.024C104.044 75.7787 104.748 75.656 105.484 75.656C106.241 75.656 106.956 75.7787 107.628 76.024C108.3 76.2693 108.887 76.6373 109.388 77.128C109.889 77.6187 110.284 78.2267 110.572 78.952C110.86 79.6667 111.004 80.4987 111.004 81.448ZM119.421 87.224C118.642 87.224 117.97 87.1173 117.405 86.904C116.839 86.68 116.37 86.376 115.997 85.992C115.634 85.5973 115.362 85.1333 115.181 84.6C115.01 84.056 114.925 83.4587 114.925 82.808V75.912H117.421V82.6C117.421 83.048 117.469 83.432 117.565 83.752C117.671 84.0613 117.81 84.3173 117.981 84.52C118.162 84.712 118.375 84.8507 118.621 84.936C118.877 85.0213 119.154 85.064 119.453 85.064C120.061 85.064 120.551 84.8773 120.925 84.504C121.309 84.1307 121.501 83.496 121.501 82.6V75.912H123.997V82.808C123.997 83.4587 123.906 84.056 123.725 84.6C123.543 85.144 123.266 85.6133 122.893 86.008C122.519 86.392 122.045 86.6907 121.469 86.904C120.893 87.1173 120.21 87.224 119.421 87.224ZM130.893 84.968C131.011 84.9787 131.144 84.9893 131.293 85C131.453 85 131.64 85 131.853 85C133.101 85 134.024 84.6853 134.621 84.056C135.229 83.4267 135.533 82.5573 135.533 81.448C135.533 80.2853 135.245 79.4053 134.669 78.808C134.093 78.2107 133.181 77.912 131.933 77.912C131.763 77.912 131.587 77.9173 131.405 77.928C131.224 77.928 131.053 77.9387 130.893 77.96V84.968ZM138.109 81.448C138.109 82.408 137.96 83.2453 137.661 83.96C137.363 84.6747 136.936 85.2667 136.381 85.736C135.837 86.2053 135.171 86.5573 134.381 86.792C133.592 87.0267 132.707 87.144 131.725 87.144C131.277 87.144 130.755 87.1227 130.157 87.08C129.56 87.048 128.973 86.9733 128.397 86.856V76.056C128.973 75.9493 129.571 75.88 130.189 75.848C130.819 75.8053 131.357 75.784 131.805 75.784C132.755 75.784 133.613 75.8907 134.381 76.104C135.16 76.3173 135.827 76.6533 136.381 77.112C136.936 77.5707 137.363 78.1573 137.661 78.872C137.96 79.5867 138.109 80.4453 138.109 81.448Z" fill="white"/>
<defs>
<linearGradient id="paint0_linear" x1="108.5" y1="0" x2="108.5" y2="119" gradientUnits="userSpaceOnUse">
<stop stop-color="#47BBD5"/>
<stop offset="1" stop-color="#265293"/>
</linearGradient>
</defs>
</svg>
