<svg width="416" height="300" viewBox="0 0 416 300" fill="none" xmlns="http://www.w3.org/2000/svg">
<rect width="416" height="40" rx="20" fill="url(#paint0_linear)"/>
<circle cx="20" cy="20" r="20" fill="white" fill-opacity="0.1"/>
<path d="M13 20.7143L17.2 25L27 15" stroke="white" stroke-width="3" stroke-linecap="round"/>
<path d="M51.5078 26V14.5781H53.375V24.3984H58.2109V26H51.5078ZM67.6484 21.6641C67.6484 23.0755 67.2865 24.1771 66.5625 24.9688C65.8385 25.7604 64.8307 26.1562 63.5391 26.1562C62.7318 26.1562 62.0182 25.974 61.3984 25.6094C60.7786 25.2448 60.3021 24.7214 59.9688 24.0391C59.6354 23.3568 59.4688 22.5651 59.4688 21.6641C59.4688 20.263 59.8281 19.1693 60.5469 18.3828C61.2656 17.5964 62.2786 17.2031 63.5859 17.2031C64.8359 17.2031 65.8255 17.6068 66.5547 18.4141C67.2839 19.2161 67.6484 20.2995 67.6484 21.6641ZM61.3594 21.6641C61.3594 23.6589 62.0964 24.6562 63.5703 24.6562C65.0286 24.6562 65.7578 23.6589 65.7578 21.6641C65.7578 19.6901 65.0234 18.7031 63.5547 18.7031C62.7839 18.7031 62.224 18.9583 61.875 19.4688C61.5312 19.9792 61.3594 20.7109 61.3594 21.6641ZM76.8516 26L75.7344 21.9688C75.599 21.5417 75.3542 20.5495 75 18.9922H74.9297C74.6276 20.3984 74.388 21.3958 74.2109 21.9844L73.0625 26H71.0312L68.6094 17.3594H70.4844L71.5859 21.6172C71.8359 22.6693 72.013 23.5703 72.1172 24.3203H72.1641C72.2161 23.9401 72.2943 23.5052 72.3984 23.0156C72.5078 22.5208 72.6016 22.151 72.6797 21.9062L73.9922 17.3594H76.0078L77.2812 21.9062C77.3594 22.1615 77.4557 22.5521 77.5703 23.0781C77.6901 23.6042 77.7604 24.013 77.7812 24.3047H77.8438C77.9219 23.6641 78.1042 22.7682 78.3906 21.6172L79.5078 17.3594H81.3516L78.9141 26H76.8516ZM88.8359 26H87V13.8438H88.8359V26ZM96.875 26L96.5078 24.7969H96.4453C96.0286 25.3229 95.6094 25.6823 95.1875 25.875C94.7656 26.0625 94.224 26.1562 93.5625 26.1562C92.7135 26.1562 92.0495 25.9271 91.5703 25.4688C91.0964 25.0104 90.8594 24.362 90.8594 23.5234C90.8594 22.6328 91.1901 21.9609 91.8516 21.5078C92.513 21.0547 93.5208 20.8073 94.875 20.7656L96.3672 20.7188V20.2578C96.3672 19.7057 96.237 19.2943 95.9766 19.0234C95.7214 18.7474 95.3229 18.6094 94.7812 18.6094C94.3385 18.6094 93.9141 18.6745 93.5078 18.8047C93.1016 18.9349 92.7109 19.0885 92.3359 19.2656L91.7422 17.9531C92.2109 17.7083 92.724 17.5234 93.2812 17.3984C93.8385 17.2682 94.3646 17.2031 94.8594 17.2031C95.9583 17.2031 96.7865 17.4427 97.3438 17.9219C97.9062 18.401 98.1875 19.1536 98.1875 20.1797V26H96.875ZM94.1406 24.75C94.8073 24.75 95.3411 24.5651 95.7422 24.1953C96.1484 23.8203 96.3516 23.2969 96.3516 22.625V21.875L95.2422 21.9219C94.3776 21.9531 93.7474 22.099 93.3516 22.3594C92.9609 22.6146 92.7656 23.0078 92.7656 23.5391C92.7656 23.9245 92.8802 24.224 93.1094 24.4375C93.3385 24.6458 93.6823 24.75 94.1406 24.75ZM103.969 24.6719C104.417 24.6719 104.865 24.6016 105.312 24.4609V25.8438C105.109 25.9323 104.846 26.0052 104.523 26.0625C104.206 26.125 103.875 26.1562 103.531 26.1562C101.792 26.1562 100.922 25.2396 100.922 23.4062V18.75H99.7422V17.9375L101.008 17.2656L101.633 15.4375H102.766V17.3594H105.227V18.75H102.766V23.375C102.766 23.8177 102.875 24.1458 103.094 24.3594C103.318 24.5677 103.609 24.6719 103.969 24.6719ZM110.82 26.1562C109.477 26.1562 108.424 25.7656 107.664 24.9844C106.909 24.1979 106.531 23.1172 106.531 21.7422C106.531 20.3307 106.883 19.2214 107.586 18.4141C108.289 17.6068 109.255 17.2031 110.484 17.2031C111.625 17.2031 112.526 17.5495 113.188 18.2422C113.849 18.9349 114.18 19.888 114.18 21.1016V22.0938H108.422C108.448 22.9323 108.674 23.5781 109.102 24.0312C109.529 24.4792 110.13 24.7031 110.906 24.7031C111.417 24.7031 111.891 24.6562 112.328 24.5625C112.771 24.4635 113.245 24.3021 113.75 24.0781V25.5703C113.302 25.7839 112.849 25.9349 112.391 26.0234C111.932 26.112 111.409 26.1562 110.82 26.1562ZM110.484 18.5938C109.901 18.5938 109.432 18.7786 109.078 19.1484C108.729 19.5182 108.521 20.0573 108.453 20.7656H112.375C112.365 20.0521 112.193 19.513 111.859 19.1484C111.526 18.7786 111.068 18.5938 110.484 18.5938ZM123.867 26H122.023V20.6875C122.023 20.0208 121.888 19.5234 121.617 19.1953C121.352 18.8672 120.927 18.7031 120.344 18.7031C119.568 18.7031 119 18.9323 118.641 19.3906C118.281 19.849 118.102 20.6172 118.102 21.6953V26H116.266V17.3594H117.703L117.961 18.4922H118.055C118.315 18.0807 118.685 17.763 119.164 17.5391C119.643 17.3151 120.174 17.2031 120.758 17.2031C122.831 17.2031 123.867 18.2578 123.867 20.3672V26ZM129.906 26.1562C128.599 26.1562 127.604 25.776 126.922 25.0156C126.245 24.25 125.906 23.1536 125.906 21.7266C125.906 20.2734 126.26 19.1562 126.969 18.375C127.682 17.5938 128.711 17.2031 130.055 17.2031C130.966 17.2031 131.786 17.3724 132.516 17.7109L131.961 19.1875C131.185 18.8854 130.544 18.7344 130.039 18.7344C128.544 18.7344 127.797 19.7266 127.797 21.7109C127.797 22.6797 127.982 23.4089 128.352 23.8984C128.727 24.3828 129.273 24.625 129.992 24.625C130.81 24.625 131.583 24.4219 132.312 24.0156V25.6172C131.984 25.8099 131.633 25.9479 131.258 26.0312C130.888 26.1146 130.438 26.1562 129.906 26.1562ZM133.031 17.3594H135.031L136.789 22.2578C137.055 22.9557 137.232 23.612 137.32 24.2266H137.383C137.43 23.9401 137.516 23.5938 137.641 23.1875C137.766 22.776 138.427 20.8333 139.625 17.3594H141.609L137.914 27.1484C137.242 28.9453 136.122 29.8438 134.555 29.8438C134.148 29.8438 133.753 29.7995 133.367 29.7109V28.2578C133.643 28.3203 133.958 28.3516 134.312 28.3516C135.198 28.3516 135.82 27.8385 136.18 26.8125L136.5 26L133.031 17.3594Z" fill="white"/>
<rect y="65" width="416" height="40" rx="20" fill="url(#paint1_linear)"/>
<circle cx="20" cy="85" r="20" fill="white" fill-opacity="0.1"/>
<path d="M13 85.7143L17.2 90L27 80" stroke="white" stroke-width="3" stroke-linecap="round"/>
<path d="M51.5078 91V79.5781H53.375V89.3984H58.2109V91H51.5078ZM67.6484 86.6641C67.6484 88.0755 67.2865 89.1771 66.5625 89.9688C65.8385 90.7604 64.8307 91.1562 63.5391 91.1562C62.7318 91.1562 62.0182 90.974 61.3984 90.6094C60.7786 90.2448 60.3021 89.7214 59.9688 89.0391C59.6354 88.3568 59.4688 87.5651 59.4688 86.6641C59.4688 85.263 59.8281 84.1693 60.5469 83.3828C61.2656 82.5964 62.2786 82.2031 63.5859 82.2031C64.8359 82.2031 65.8255 82.6068 66.5547 83.4141C67.2839 84.2161 67.6484 85.2995 67.6484 86.6641ZM61.3594 86.6641C61.3594 88.6589 62.0964 89.6562 63.5703 89.6562C65.0286 89.6562 65.7578 88.6589 65.7578 86.6641C65.7578 84.6901 65.0234 83.7031 63.5547 83.7031C62.7839 83.7031 62.224 83.9583 61.875 84.4688C61.5312 84.9792 61.3594 85.7109 61.3594 86.6641ZM76.8516 91L75.7344 86.9688C75.599 86.5417 75.3542 85.5495 75 83.9922H74.9297C74.6276 85.3984 74.388 86.3958 74.2109 86.9844L73.0625 91H71.0312L68.6094 82.3594H70.4844L71.5859 86.6172C71.8359 87.6693 72.013 88.5703 72.1172 89.3203H72.1641C72.2161 88.9401 72.2943 88.5052 72.3984 88.0156C72.5078 87.5208 72.6016 87.151 72.6797 86.9062L73.9922 82.3594H76.0078L77.2812 86.9062C77.3594 87.1615 77.4557 87.5521 77.5703 88.0781C77.6901 88.6042 77.7604 89.013 77.7812 89.3047H77.8438C77.9219 88.6641 78.1042 87.7682 78.3906 86.6172L79.5078 82.3594H81.3516L78.9141 91H76.8516ZM90.4844 91.1562C89.1771 91.1562 88.1823 90.776 87.5 90.0156C86.8229 89.25 86.4844 88.1536 86.4844 86.7266C86.4844 85.2734 86.8385 84.1562 87.5469 83.375C88.2604 82.5938 89.2891 82.2031 90.6328 82.2031C91.5443 82.2031 92.3646 82.3724 93.0938 82.7109L92.5391 84.1875C91.763 83.8854 91.1224 83.7344 90.6172 83.7344C89.1224 83.7344 88.375 84.7266 88.375 86.7109C88.375 87.6797 88.5599 88.4089 88.9297 88.8984C89.3047 89.3828 89.8516 89.625 90.5703 89.625C91.388 89.625 92.1615 89.4219 92.8906 89.0156V90.6172C92.5625 90.8099 92.2109 90.9479 91.8359 91.0312C91.4661 91.1146 91.0156 91.1562 90.4844 91.1562ZM102.586 86.6641C102.586 88.0755 102.224 89.1771 101.5 89.9688C100.776 90.7604 99.7682 91.1562 98.4766 91.1562C97.6693 91.1562 96.9557 90.974 96.3359 90.6094C95.7161 90.2448 95.2396 89.7214 94.9062 89.0391C94.5729 88.3568 94.4062 87.5651 94.4062 86.6641C94.4062 85.263 94.7656 84.1693 95.4844 83.3828C96.2031 82.5964 97.2161 82.2031 98.5234 82.2031C99.7734 82.2031 100.763 82.6068 101.492 83.4141C102.221 84.2161 102.586 85.2995 102.586 86.6641ZM96.2969 86.6641C96.2969 88.6589 97.0339 89.6562 98.5078 89.6562C99.9661 89.6562 100.695 88.6589 100.695 86.6641C100.695 84.6901 99.9609 83.7031 98.4922 83.7031C97.7214 83.7031 97.1615 83.9583 96.8125 84.4688C96.4688 84.9792 96.2969 85.7109 96.2969 86.6641ZM110.508 88.5391C110.508 89.3828 110.201 90.0312 109.586 90.4844C108.971 90.9323 108.091 91.1562 106.945 91.1562C105.794 91.1562 104.87 90.9818 104.172 90.6328V89.0469C105.188 89.5156 106.133 89.75 107.008 89.75C108.138 89.75 108.703 89.4089 108.703 88.7266C108.703 88.5078 108.641 88.3255 108.516 88.1797C108.391 88.0339 108.185 87.8828 107.898 87.7266C107.612 87.5703 107.214 87.3932 106.703 87.1953C105.708 86.8099 105.034 86.4245 104.68 86.0391C104.331 85.6536 104.156 85.1536 104.156 84.5391C104.156 83.7995 104.453 83.2266 105.047 82.8203C105.646 82.4089 106.458 82.2031 107.484 82.2031C108.5 82.2031 109.461 82.4089 110.367 82.8203L109.773 84.2031C108.841 83.8177 108.057 83.625 107.422 83.625C106.453 83.625 105.969 83.901 105.969 84.4531C105.969 84.724 106.094 84.9531 106.344 85.1406C106.599 85.3281 107.151 85.5859 108 85.9141C108.714 86.1901 109.232 86.4427 109.555 86.6719C109.878 86.901 110.117 87.1667 110.273 87.4688C110.43 87.7656 110.508 88.1224 110.508 88.5391ZM115.719 89.6719C116.167 89.6719 116.615 89.6016 117.062 89.4609V90.8438C116.859 90.9323 116.596 91.0052 116.273 91.0625C115.956 91.125 115.625 91.1562 115.281 91.1562C113.542 91.1562 112.672 90.2396 112.672 88.4062V83.75H111.492V82.9375L112.758 82.2656L113.383 80.4375H114.516V82.3594H116.977V83.75H114.516V88.375C114.516 88.8177 114.625 89.1458 114.844 89.3594C115.068 89.5677 115.359 89.6719 115.719 89.6719Z" fill="white"/>
<rect y="130" width="416" height="40" rx="20" fill="url(#paint2_linear)"/>
<circle cx="20" cy="150" r="20" fill="white" fill-opacity="0.1"/>
<path d="M13 150.714L17.2 155L27 145" stroke="white" stroke-width="3" stroke-linecap="round"/>
<path d="M60.7969 150.18C60.7969 152.065 60.2734 153.508 59.2266 154.508C58.1797 155.503 56.6719 156 54.7031 156H51.5078V144.578H55.0391C56.8568 144.578 58.2708 145.068 59.2812 146.047C60.2917 147.026 60.7969 148.404 60.7969 150.18ZM58.8281 150.242C58.8281 147.508 57.5495 146.141 54.9922 146.141H53.375V154.43H54.7031C57.4531 154.43 58.8281 153.034 58.8281 150.242ZM66.8359 156.156C65.4922 156.156 64.4401 155.766 63.6797 154.984C62.9245 154.198 62.5469 153.117 62.5469 151.742C62.5469 150.331 62.8984 149.221 63.6016 148.414C64.3047 147.607 65.2708 147.203 66.5 147.203C67.6406 147.203 68.5417 147.549 69.2031 148.242C69.8646 148.935 70.1953 149.888 70.1953 151.102V152.094H64.4375C64.4635 152.932 64.6901 153.578 65.1172 154.031C65.5443 154.479 66.1458 154.703 66.9219 154.703C67.4323 154.703 67.9062 154.656 68.3438 154.562C68.7865 154.464 69.2604 154.302 69.7656 154.078V155.57C69.3177 155.784 68.8646 155.935 68.4062 156.023C67.9479 156.112 67.4245 156.156 66.8359 156.156ZM66.5 148.594C65.9167 148.594 65.4479 148.779 65.0938 149.148C64.7448 149.518 64.5365 150.057 64.4688 150.766H68.3906C68.3802 150.052 68.2083 149.513 67.875 149.148C67.5417 148.779 67.0833 148.594 66.5 148.594ZM74.25 156L70.9688 147.359H72.9062L74.6641 152.383C74.9661 153.227 75.1484 153.909 75.2109 154.43H75.2734C75.3203 154.055 75.5026 153.372 75.8203 152.383L77.5781 147.359H79.5312L76.2344 156H74.25ZM82.6797 156H80.8438V147.359H82.6797V156ZM80.7344 145.07C80.7344 144.742 80.8229 144.49 81 144.312C81.1823 144.135 81.4401 144.047 81.7734 144.047C82.0964 144.047 82.3464 144.135 82.5234 144.312C82.7057 144.49 82.7969 144.742 82.7969 145.07C82.7969 145.383 82.7057 145.63 82.5234 145.812C82.3464 145.99 82.0964 146.078 81.7734 146.078C81.4401 146.078 81.1823 145.99 81 145.812C80.8229 145.63 80.7344 145.383 80.7344 145.07ZM88.7969 156.156C87.4896 156.156 86.4948 155.776 85.8125 155.016C85.1354 154.25 84.7969 153.154 84.7969 151.727C84.7969 150.273 85.151 149.156 85.8594 148.375C86.5729 147.594 87.6016 147.203 88.9453 147.203C89.8568 147.203 90.6771 147.372 91.4062 147.711L90.8516 149.188C90.0755 148.885 89.4349 148.734 88.9297 148.734C87.4349 148.734 86.6875 149.727 86.6875 151.711C86.6875 152.68 86.8724 153.409 87.2422 153.898C87.6172 154.383 88.1641 154.625 88.8828 154.625C89.7005 154.625 90.474 154.422 91.2031 154.016V155.617C90.875 155.81 90.5234 155.948 90.1484 156.031C89.7786 156.115 89.3281 156.156 88.7969 156.156ZM97.0078 156.156C95.6641 156.156 94.612 155.766 93.8516 154.984C93.0964 154.198 92.7188 153.117 92.7188 151.742C92.7188 150.331 93.0703 149.221 93.7734 148.414C94.4766 147.607 95.4427 147.203 96.6719 147.203C97.8125 147.203 98.7135 147.549 99.375 148.242C100.036 148.935 100.367 149.888 100.367 151.102V152.094H94.6094C94.6354 152.932 94.862 153.578 95.2891 154.031C95.7161 154.479 96.3177 154.703 97.0938 154.703C97.6042 154.703 98.0781 154.656 98.5156 154.562C98.9583 154.464 99.4323 154.302 99.9375 154.078V155.57C99.4896 155.784 99.0365 155.935 98.5781 156.023C98.1198 156.112 97.5964 156.156 97.0078 156.156ZM96.6719 148.594C96.0885 148.594 95.6198 148.779 95.2656 149.148C94.9167 149.518 94.7083 150.057 94.6406 150.766H98.5625C98.5521 150.052 98.3802 149.513 98.0469 149.148C97.7135 148.779 97.2552 148.594 96.6719 148.594ZM110.992 156.156C109.898 156.156 109.049 155.763 108.445 154.977H108.336C108.409 155.706 108.445 156.148 108.445 156.305V159.844H106.609V147.359H108.094C108.135 147.521 108.221 147.906 108.352 148.516H108.445C109.018 147.641 109.878 147.203 111.023 147.203C112.102 147.203 112.94 147.594 113.539 148.375C114.143 149.156 114.445 150.253 114.445 151.664C114.445 153.076 114.138 154.177 113.523 154.969C112.914 155.76 112.07 156.156 110.992 156.156ZM110.547 148.703C109.818 148.703 109.284 148.917 108.945 149.344C108.612 149.771 108.445 150.453 108.445 151.391V151.664C108.445 152.716 108.612 153.479 108.945 153.953C109.279 154.422 109.823 154.656 110.578 154.656C111.214 154.656 111.703 154.396 112.047 153.875C112.391 153.354 112.562 152.612 112.562 151.648C112.562 150.68 112.391 149.948 112.047 149.453C111.708 148.953 111.208 148.703 110.547 148.703ZM120.961 147.203C121.331 147.203 121.635 147.229 121.875 147.281L121.695 148.992C121.435 148.93 121.164 148.898 120.883 148.898C120.148 148.898 119.552 149.138 119.094 149.617C118.641 150.096 118.414 150.719 118.414 151.484V156H116.578V147.359H118.016L118.258 148.883H118.352C118.638 148.367 119.01 147.958 119.469 147.656C119.932 147.354 120.43 147.203 120.961 147.203ZM131.148 151.664C131.148 153.076 130.786 154.177 130.062 154.969C129.339 155.76 128.331 156.156 127.039 156.156C126.232 156.156 125.518 155.974 124.898 155.609C124.279 155.245 123.802 154.721 123.469 154.039C123.135 153.357 122.969 152.565 122.969 151.664C122.969 150.263 123.328 149.169 124.047 148.383C124.766 147.596 125.779 147.203 127.086 147.203C128.336 147.203 129.326 147.607 130.055 148.414C130.784 149.216 131.148 150.299 131.148 151.664ZM124.859 151.664C124.859 153.659 125.596 154.656 127.07 154.656C128.529 154.656 129.258 153.659 129.258 151.664C129.258 149.69 128.523 148.703 127.055 148.703C126.284 148.703 125.724 148.958 125.375 149.469C125.031 149.979 124.859 150.711 124.859 151.664ZM136.75 156.156C135.443 156.156 134.448 155.776 133.766 155.016C133.089 154.25 132.75 153.154 132.75 151.727C132.75 150.273 133.104 149.156 133.812 148.375C134.526 147.594 135.555 147.203 136.898 147.203C137.81 147.203 138.63 147.372 139.359 147.711L138.805 149.188C138.029 148.885 137.388 148.734 136.883 148.734C135.388 148.734 134.641 149.727 134.641 151.711C134.641 152.68 134.826 153.409 135.195 153.898C135.57 154.383 136.117 154.625 136.836 154.625C137.654 154.625 138.427 154.422 139.156 154.016V155.617C138.828 155.81 138.477 155.948 138.102 156.031C137.732 156.115 137.281 156.156 136.75 156.156ZM144.961 156.156C143.617 156.156 142.565 155.766 141.805 154.984C141.049 154.198 140.672 153.117 140.672 151.742C140.672 150.331 141.023 149.221 141.727 148.414C142.43 147.607 143.396 147.203 144.625 147.203C145.766 147.203 146.667 147.549 147.328 148.242C147.99 148.935 148.32 149.888 148.32 151.102V152.094H142.562C142.589 152.932 142.815 153.578 143.242 154.031C143.669 154.479 144.271 154.703 145.047 154.703C145.557 154.703 146.031 154.656 146.469 154.562C146.911 154.464 147.385 154.302 147.891 154.078V155.57C147.443 155.784 146.99 155.935 146.531 156.023C146.073 156.112 145.549 156.156 144.961 156.156ZM144.625 148.594C144.042 148.594 143.573 148.779 143.219 149.148C142.87 149.518 142.661 150.057 142.594 150.766H146.516C146.505 150.052 146.333 149.513 146 149.148C145.667 148.779 145.208 148.594 144.625 148.594ZM156.211 153.539C156.211 154.383 155.904 155.031 155.289 155.484C154.674 155.932 153.794 156.156 152.648 156.156C151.497 156.156 150.573 155.982 149.875 155.633V154.047C150.891 154.516 151.836 154.75 152.711 154.75C153.841 154.75 154.406 154.409 154.406 153.727C154.406 153.508 154.344 153.326 154.219 153.18C154.094 153.034 153.888 152.883 153.602 152.727C153.315 152.57 152.917 152.393 152.406 152.195C151.411 151.81 150.737 151.424 150.383 151.039C150.034 150.654 149.859 150.154 149.859 149.539C149.859 148.799 150.156 148.227 150.75 147.82C151.349 147.409 152.161 147.203 153.188 147.203C154.203 147.203 155.164 147.409 156.07 147.82L155.477 149.203C154.544 148.818 153.76 148.625 153.125 148.625C152.156 148.625 151.672 148.901 151.672 149.453C151.672 149.724 151.797 149.953 152.047 150.141C152.302 150.328 152.854 150.586 153.703 150.914C154.417 151.19 154.935 151.443 155.258 151.672C155.581 151.901 155.82 152.167 155.977 152.469C156.133 152.766 156.211 153.122 156.211 153.539ZM164.008 153.539C164.008 154.383 163.701 155.031 163.086 155.484C162.471 155.932 161.591 156.156 160.445 156.156C159.294 156.156 158.37 155.982 157.672 155.633V154.047C158.688 154.516 159.633 154.75 160.508 154.75C161.638 154.75 162.203 154.409 162.203 153.727C162.203 153.508 162.141 153.326 162.016 153.18C161.891 153.034 161.685 152.883 161.398 152.727C161.112 152.57 160.714 152.393 160.203 152.195C159.208 151.81 158.534 151.424 158.18 151.039C157.831 150.654 157.656 150.154 157.656 149.539C157.656 148.799 157.953 148.227 158.547 147.82C159.146 147.409 159.958 147.203 160.984 147.203C162 147.203 162.961 147.409 163.867 147.82L163.273 149.203C162.341 148.818 161.557 148.625 160.922 148.625C159.953 148.625 159.469 148.901 159.469 149.453C159.469 149.724 159.594 149.953 159.844 150.141C160.099 150.328 160.651 150.586 161.5 150.914C162.214 151.19 162.732 151.443 163.055 151.672C163.378 151.901 163.617 152.167 163.773 152.469C163.93 152.766 164.008 153.122 164.008 153.539ZM167.836 156H166V147.359H167.836V156ZM165.891 145.07C165.891 144.742 165.979 144.49 166.156 144.312C166.339 144.135 166.596 144.047 166.93 144.047C167.253 144.047 167.503 144.135 167.68 144.312C167.862 144.49 167.953 144.742 167.953 145.07C167.953 145.383 167.862 145.63 167.68 145.812C167.503 145.99 167.253 146.078 166.93 146.078C166.596 146.078 166.339 145.99 166.156 145.812C165.979 145.63 165.891 145.383 165.891 145.07ZM178.07 156H176.227V150.688C176.227 150.021 176.091 149.523 175.82 149.195C175.555 148.867 175.13 148.703 174.547 148.703C173.771 148.703 173.203 148.932 172.844 149.391C172.484 149.849 172.305 150.617 172.305 151.695V156H170.469V147.359H171.906L172.164 148.492H172.258C172.518 148.081 172.888 147.763 173.367 147.539C173.846 147.315 174.378 147.203 174.961 147.203C177.034 147.203 178.07 148.258 178.07 150.367V156ZM187.922 147.359V148.367L186.445 148.641C186.581 148.823 186.693 149.047 186.781 149.312C186.87 149.578 186.914 149.859 186.914 150.156C186.914 151.047 186.607 151.747 185.992 152.258C185.378 152.768 184.531 153.023 183.453 153.023C183.177 153.023 182.927 153.003 182.703 152.961C182.307 153.206 182.109 153.492 182.109 153.82C182.109 154.018 182.201 154.167 182.383 154.266C182.57 154.365 182.911 154.414 183.406 154.414H184.914C185.867 154.414 186.591 154.617 187.086 155.023C187.581 155.43 187.828 156.016 187.828 156.781C187.828 157.76 187.424 158.516 186.617 159.047C185.81 159.578 184.643 159.844 183.117 159.844C181.94 159.844 181.042 159.635 180.422 159.219C179.802 158.802 179.492 158.208 179.492 157.438C179.492 156.906 179.659 156.458 179.992 156.094C180.331 155.734 180.802 155.484 181.406 155.344C181.161 155.24 180.958 155.073 180.797 154.844C180.641 154.609 180.562 154.365 180.562 154.109C180.562 153.786 180.654 153.513 180.836 153.289C181.018 153.065 181.289 152.844 181.648 152.625C181.201 152.432 180.836 152.12 180.555 151.688C180.279 151.25 180.141 150.74 180.141 150.156C180.141 149.219 180.435 148.492 181.023 147.977C181.617 147.461 182.461 147.203 183.555 147.203C183.799 147.203 184.055 147.221 184.32 147.258C184.591 147.289 184.794 147.323 184.93 147.359H187.922ZM181.133 157.344C181.133 157.74 181.31 158.044 181.664 158.258C182.023 158.471 182.526 158.578 183.172 158.578C184.172 158.578 184.917 158.435 185.406 158.148C185.896 157.862 186.141 157.482 186.141 157.008C186.141 156.633 186.005 156.365 185.734 156.203C185.469 156.047 184.971 155.969 184.242 155.969H182.852C182.326 155.969 181.906 156.091 181.594 156.336C181.286 156.586 181.133 156.922 181.133 157.344ZM181.922 150.156C181.922 150.698 182.06 151.115 182.336 151.406C182.617 151.698 183.018 151.844 183.539 151.844C184.602 151.844 185.133 151.276 185.133 150.141C185.133 149.578 185 149.146 184.734 148.844C184.474 148.536 184.076 148.383 183.539 148.383C183.008 148.383 182.604 148.534 182.328 148.836C182.057 149.138 181.922 149.578 181.922 150.156Z" fill="white"/>
<rect y="195" width="416" height="40" rx="20" fill="url(#paint3_linear)"/>
<circle cx="20" cy="215" r="20" fill="white" fill-opacity="0.1"/>
<path d="M13 215.714L17.2 220L27 210" stroke="white" stroke-width="3" stroke-linecap="round"/>
<path d="M60.4609 209.578V216.969C60.4609 217.812 60.2786 218.552 59.9141 219.188C59.5547 219.818 59.0312 220.305 58.3438 220.648C57.6615 220.987 56.8438 221.156 55.8906 221.156C54.474 221.156 53.3724 220.781 52.5859 220.031C51.7995 219.281 51.4062 218.25 51.4062 216.938V209.578H53.2812V216.805C53.2812 217.747 53.5 218.443 53.9375 218.891C54.375 219.339 55.0469 219.562 55.9531 219.562C57.7135 219.562 58.5938 218.638 58.5938 216.789V209.578H60.4609ZM70.7891 221H68.9453V215.688C68.9453 215.021 68.8099 214.523 68.5391 214.195C68.2734 213.867 67.849 213.703 67.2656 213.703C66.4896 213.703 65.9219 213.932 65.5625 214.391C65.2031 214.849 65.0234 215.617 65.0234 216.695V221H63.1875V212.359H64.625L64.8828 213.492H64.9766C65.237 213.081 65.6068 212.763 66.0859 212.539C66.5651 212.315 67.0964 212.203 67.6797 212.203C69.7526 212.203 70.7891 213.258 70.7891 215.367V221ZM77.7266 212.203C78.0964 212.203 78.401 212.229 78.6406 212.281L78.4609 213.992C78.2005 213.93 77.9297 213.898 77.6484 213.898C76.9141 213.898 76.3177 214.138 75.8594 214.617C75.4062 215.096 75.1797 215.719 75.1797 216.484V221H73.3438V212.359H74.7812L75.0234 213.883H75.1172C75.4036 213.367 75.776 212.958 76.2344 212.656C76.6979 212.354 77.1953 212.203 77.7266 212.203ZM84.0234 221.156C82.6797 221.156 81.6276 220.766 80.8672 219.984C80.112 219.198 79.7344 218.117 79.7344 216.742C79.7344 215.331 80.0859 214.221 80.7891 213.414C81.4922 212.607 82.4583 212.203 83.6875 212.203C84.8281 212.203 85.7292 212.549 86.3906 213.242C87.0521 213.935 87.3828 214.888 87.3828 216.102V217.094H81.625C81.651 217.932 81.8776 218.578 82.3047 219.031C82.7318 219.479 83.3333 219.703 84.1094 219.703C84.6198 219.703 85.0938 219.656 85.5312 219.562C85.974 219.464 86.4479 219.302 86.9531 219.078V220.57C86.5052 220.784 86.0521 220.935 85.5938 221.023C85.1354 221.112 84.612 221.156 84.0234 221.156ZM83.6875 213.594C83.1042 213.594 82.6354 213.779 82.2812 214.148C81.9323 214.518 81.724 215.057 81.6562 215.766H85.5781C85.5677 215.052 85.3958 214.513 85.0625 214.148C84.7292 213.779 84.2708 213.594 83.6875 213.594ZM95.2734 218.539C95.2734 219.383 94.9661 220.031 94.3516 220.484C93.737 220.932 92.8568 221.156 91.7109 221.156C90.5599 221.156 89.6354 220.982 88.9375 220.633V219.047C89.9531 219.516 90.8984 219.75 91.7734 219.75C92.9036 219.75 93.4688 219.409 93.4688 218.727C93.4688 218.508 93.4062 218.326 93.2812 218.18C93.1562 218.034 92.9505 217.883 92.6641 217.727C92.3776 217.57 91.9792 217.393 91.4688 217.195C90.474 216.81 89.7995 216.424 89.4453 216.039C89.0964 215.654 88.9219 215.154 88.9219 214.539C88.9219 213.799 89.2188 213.227 89.8125 212.82C90.4115 212.409 91.224 212.203 92.25 212.203C93.2656 212.203 94.2266 212.409 95.1328 212.82L94.5391 214.203C93.6068 213.818 92.8229 213.625 92.1875 213.625C91.2188 213.625 90.7344 213.901 90.7344 214.453C90.7344 214.724 90.8594 214.953 91.1094 215.141C91.3646 215.328 91.9167 215.586 92.7656 215.914C93.4792 216.19 93.9974 216.443 94.3203 216.672C94.6432 216.901 94.8828 217.167 95.0391 217.469C95.1953 217.766 95.2734 218.122 95.2734 218.539ZM100.484 219.672C100.932 219.672 101.38 219.602 101.828 219.461V220.844C101.625 220.932 101.362 221.005 101.039 221.062C100.721 221.125 100.391 221.156 100.047 221.156C98.3073 221.156 97.4375 220.24 97.4375 218.406V213.75H96.2578V212.938L97.5234 212.266L98.1484 210.438H99.2812V212.359H101.742V213.75H99.2812V218.375C99.2812 218.818 99.3906 219.146 99.6094 219.359C99.8333 219.568 100.125 219.672 100.484 219.672ZM107.945 212.203C108.315 212.203 108.62 212.229 108.859 212.281L108.68 213.992C108.419 213.93 108.148 213.898 107.867 213.898C107.133 213.898 106.536 214.138 106.078 214.617C105.625 215.096 105.398 215.719 105.398 216.484V221H103.562V212.359H105L105.242 213.883H105.336C105.622 213.367 105.995 212.958 106.453 212.656C106.917 212.354 107.414 212.203 107.945 212.203ZM112.305 221H110.469V212.359H112.305V221ZM110.359 210.07C110.359 209.742 110.448 209.49 110.625 209.312C110.807 209.135 111.065 209.047 111.398 209.047C111.721 209.047 111.971 209.135 112.148 209.312C112.331 209.49 112.422 209.742 112.422 210.07C112.422 210.383 112.331 210.63 112.148 210.812C111.971 210.99 111.721 211.078 111.398 211.078C111.065 211.078 110.807 210.99 110.625 210.812C110.448 210.63 110.359 210.383 110.359 210.07ZM118.422 221.156C117.115 221.156 116.12 220.776 115.438 220.016C114.76 219.25 114.422 218.154 114.422 216.727C114.422 215.273 114.776 214.156 115.484 213.375C116.198 212.594 117.227 212.203 118.57 212.203C119.482 212.203 120.302 212.372 121.031 212.711L120.477 214.188C119.701 213.885 119.06 213.734 118.555 213.734C117.06 213.734 116.312 214.727 116.312 216.711C116.312 217.68 116.497 218.409 116.867 218.898C117.242 219.383 117.789 219.625 118.508 219.625C119.326 219.625 120.099 219.422 120.828 219.016V220.617C120.5 220.81 120.148 220.948 119.773 221.031C119.404 221.115 118.953 221.156 118.422 221.156ZM126.078 219.672C126.526 219.672 126.974 219.602 127.422 219.461V220.844C127.219 220.932 126.956 221.005 126.633 221.062C126.315 221.125 125.984 221.156 125.641 221.156C123.901 221.156 123.031 220.24 123.031 218.406V213.75H121.852V212.938L123.117 212.266L123.742 210.438H124.875V212.359H127.336V213.75H124.875V218.375C124.875 218.818 124.984 219.146 125.203 219.359C125.427 219.568 125.719 219.672 126.078 219.672ZM132.93 221.156C131.586 221.156 130.534 220.766 129.773 219.984C129.018 219.198 128.641 218.117 128.641 216.742C128.641 215.331 128.992 214.221 129.695 213.414C130.398 212.607 131.365 212.203 132.594 212.203C133.734 212.203 134.635 212.549 135.297 213.242C135.958 213.935 136.289 214.888 136.289 216.102V217.094H130.531C130.557 217.932 130.784 218.578 131.211 219.031C131.638 219.479 132.24 219.703 133.016 219.703C133.526 219.703 134 219.656 134.438 219.562C134.88 219.464 135.354 219.302 135.859 219.078V220.57C135.411 220.784 134.958 220.935 134.5 221.023C134.042 221.112 133.518 221.156 132.93 221.156ZM132.594 213.594C132.01 213.594 131.542 213.779 131.188 214.148C130.839 214.518 130.63 215.057 130.562 215.766H134.484C134.474 215.052 134.302 214.513 133.969 214.148C133.635 213.779 133.177 213.594 132.594 213.594ZM141.289 221.156C140.211 221.156 139.37 220.766 138.766 219.984C138.161 219.203 137.859 218.107 137.859 216.695C137.859 215.279 138.164 214.177 138.773 213.391C139.388 212.599 140.237 212.203 141.32 212.203C142.456 212.203 143.32 212.622 143.914 213.461H144.008C143.919 212.841 143.875 212.352 143.875 211.992V208.844H145.719V221H144.281L143.961 219.867H143.875C143.286 220.727 142.424 221.156 141.289 221.156ZM141.781 219.672C142.536 219.672 143.086 219.461 143.43 219.039C143.773 218.612 143.951 217.922 143.961 216.969V216.711C143.961 215.622 143.784 214.849 143.43 214.391C143.076 213.932 142.521 213.703 141.766 213.703C141.12 213.703 140.622 213.966 140.273 214.492C139.924 215.013 139.75 215.758 139.75 216.727C139.75 217.685 139.919 218.417 140.258 218.922C140.596 219.422 141.104 219.672 141.781 219.672ZM156.914 212.203C157.992 212.203 158.831 212.594 159.43 213.375C160.034 214.156 160.336 215.253 160.336 216.664C160.336 218.081 160.031 219.185 159.422 219.977C158.812 220.763 157.966 221.156 156.883 221.156C155.789 221.156 154.94 220.763 154.336 219.977H154.211L153.875 221H152.5V208.844H154.336V211.734C154.336 211.948 154.326 212.266 154.305 212.688C154.284 213.109 154.268 213.378 154.258 213.492H154.336C154.919 212.633 155.779 212.203 156.914 212.203ZM156.438 213.703C155.698 213.703 155.164 213.922 154.836 214.359C154.513 214.792 154.346 215.518 154.336 216.539V216.664C154.336 217.716 154.503 218.479 154.836 218.953C155.169 219.422 155.714 219.656 156.469 219.656C157.12 219.656 157.612 219.398 157.945 218.883C158.284 218.367 158.453 217.622 158.453 216.648C158.453 214.685 157.781 213.703 156.438 213.703ZM167.875 221L167.508 219.797H167.445C167.029 220.323 166.609 220.682 166.188 220.875C165.766 221.062 165.224 221.156 164.562 221.156C163.714 221.156 163.049 220.927 162.57 220.469C162.096 220.01 161.859 219.362 161.859 218.523C161.859 217.633 162.19 216.961 162.852 216.508C163.513 216.055 164.521 215.807 165.875 215.766L167.367 215.719V215.258C167.367 214.706 167.237 214.294 166.977 214.023C166.721 213.747 166.323 213.609 165.781 213.609C165.339 213.609 164.914 213.674 164.508 213.805C164.102 213.935 163.711 214.089 163.336 214.266L162.742 212.953C163.211 212.708 163.724 212.523 164.281 212.398C164.839 212.268 165.365 212.203 165.859 212.203C166.958 212.203 167.786 212.443 168.344 212.922C168.906 213.401 169.188 214.154 169.188 215.18V221H167.875ZM165.141 219.75C165.807 219.75 166.341 219.565 166.742 219.195C167.148 218.82 167.352 218.297 167.352 217.625V216.875L166.242 216.922C165.378 216.953 164.747 217.099 164.352 217.359C163.961 217.615 163.766 218.008 163.766 218.539C163.766 218.924 163.88 219.224 164.109 219.438C164.339 219.646 164.682 219.75 165.141 219.75ZM179.352 221H177.508V215.688C177.508 215.021 177.372 214.523 177.102 214.195C176.836 213.867 176.411 213.703 175.828 213.703C175.052 213.703 174.484 213.932 174.125 214.391C173.766 214.849 173.586 215.617 173.586 216.695V221H171.75V212.359H173.188L173.445 213.492H173.539C173.799 213.081 174.169 212.763 174.648 212.539C175.128 212.315 175.659 212.203 176.242 212.203C178.315 212.203 179.352 213.258 179.352 215.367V221ZM184.82 221.156C183.742 221.156 182.901 220.766 182.297 219.984C181.693 219.203 181.391 218.107 181.391 216.695C181.391 215.279 181.695 214.177 182.305 213.391C182.919 212.599 183.768 212.203 184.852 212.203C185.987 212.203 186.852 212.622 187.445 213.461H187.539C187.451 212.841 187.406 212.352 187.406 211.992V208.844H189.25V221H187.812L187.492 219.867H187.406C186.818 220.727 185.956 221.156 184.82 221.156ZM185.312 219.672C186.068 219.672 186.617 219.461 186.961 219.039C187.305 218.612 187.482 217.922 187.492 216.969V216.711C187.492 215.622 187.315 214.849 186.961 214.391C186.607 213.932 186.052 213.703 185.297 213.703C184.651 213.703 184.154 213.966 183.805 214.492C183.456 215.013 183.281 215.758 183.281 216.727C183.281 217.685 183.451 218.417 183.789 218.922C184.128 219.422 184.635 219.672 185.312 219.672ZM198.961 221L197.844 216.969C197.708 216.542 197.464 215.549 197.109 213.992H197.039C196.737 215.398 196.497 216.396 196.32 216.984L195.172 221H193.141L190.719 212.359H192.594L193.695 216.617C193.945 217.669 194.122 218.57 194.227 219.32H194.273C194.326 218.94 194.404 218.505 194.508 218.016C194.617 217.521 194.711 217.151 194.789 216.906L196.102 212.359H198.117L199.391 216.906C199.469 217.161 199.565 217.552 199.68 218.078C199.799 218.604 199.87 219.013 199.891 219.305H199.953C200.031 218.664 200.214 217.768 200.5 216.617L201.617 212.359H203.461L201.023 221H198.961ZM206.789 221H204.953V212.359H206.789V221ZM204.844 210.07C204.844 209.742 204.932 209.49 205.109 209.312C205.292 209.135 205.549 209.047 205.883 209.047C206.206 209.047 206.456 209.135 206.633 209.312C206.815 209.49 206.906 209.742 206.906 210.07C206.906 210.383 206.815 210.63 206.633 210.812C206.456 210.99 206.206 211.078 205.883 211.078C205.549 211.078 205.292 210.99 205.109 210.812C204.932 210.63 204.844 210.383 204.844 210.07ZM212.336 221.156C211.258 221.156 210.417 220.766 209.812 219.984C209.208 219.203 208.906 218.107 208.906 216.695C208.906 215.279 209.211 214.177 209.82 213.391C210.435 212.599 211.284 212.203 212.367 212.203C213.503 212.203 214.367 212.622 214.961 213.461H215.055C214.966 212.841 214.922 212.352 214.922 211.992V208.844H216.766V221H215.328L215.008 219.867H214.922C214.333 220.727 213.471 221.156 212.336 221.156ZM212.828 219.672C213.583 219.672 214.133 219.461 214.477 219.039C214.82 218.612 214.997 217.922 215.008 216.969V216.711C215.008 215.622 214.831 214.849 214.477 214.391C214.122 213.932 213.568 213.703 212.812 213.703C212.167 213.703 211.669 213.966 211.32 214.492C210.971 215.013 210.797 215.758 210.797 216.727C210.797 217.685 210.966 218.417 211.305 218.922C211.643 219.422 212.151 219.672 212.828 219.672ZM222.609 219.672C223.057 219.672 223.505 219.602 223.953 219.461V220.844C223.75 220.932 223.487 221.005 223.164 221.062C222.846 221.125 222.516 221.156 222.172 221.156C220.432 221.156 219.562 220.24 219.562 218.406V213.75H218.383V212.938L219.648 212.266L220.273 210.438H221.406V212.359H223.867V213.75H221.406V218.375C221.406 218.818 221.516 219.146 221.734 219.359C221.958 219.568 222.25 219.672 222.609 219.672ZM233.289 221H231.445V215.688C231.445 215.021 231.31 214.523 231.039 214.195C230.773 213.867 230.349 213.703 229.766 213.703C228.995 213.703 228.427 213.935 228.062 214.398C227.703 214.857 227.523 215.628 227.523 216.711V221H225.688V208.844H227.523V211.93C227.523 212.424 227.492 212.953 227.43 213.516H227.547C227.797 213.099 228.143 212.776 228.586 212.547C229.034 212.318 229.555 212.203 230.148 212.203C232.242 212.203 233.289 213.258 233.289 215.367V221Z" fill="white"/>
<rect y="260" width="416" height="40" rx="20" fill="url(#paint4_linear)"/>
<circle cx="20" cy="280" r="20" fill="white" fill-opacity="0.1"/>
<path d="M13 280.714L17.2 285L27 275" stroke="white" stroke-width="3" stroke-linecap="round"/>
<path d="M56.3672 276.016C55.2943 276.016 54.4505 276.396 53.8359 277.156C53.2214 277.917 52.9141 278.966 52.9141 280.305C52.9141 281.706 53.2083 282.766 53.7969 283.484C54.3906 284.203 55.2474 284.562 56.3672 284.562C56.8516 284.562 57.3203 284.516 57.7734 284.422C58.2266 284.323 58.6979 284.198 59.1875 284.047V285.648C58.2917 285.987 57.276 286.156 56.1406 286.156C54.4688 286.156 53.1849 285.651 52.2891 284.641C51.3932 283.625 50.9453 282.174 50.9453 280.289C50.9453 279.102 51.1615 278.062 51.5938 277.172C52.0312 276.281 52.6615 275.599 53.4844 275.125C54.3073 274.651 55.2734 274.414 56.3828 274.414C57.5495 274.414 58.6276 274.659 59.6172 275.148L58.9453 276.703C58.5599 276.521 58.151 276.362 57.7188 276.227C57.2917 276.086 56.8411 276.016 56.3672 276.016ZM66.8594 286L66.4922 284.797H66.4297C66.013 285.323 65.5938 285.682 65.1719 285.875C64.75 286.062 64.2083 286.156 63.5469 286.156C62.6979 286.156 62.0339 285.927 61.5547 285.469C61.0807 285.01 60.8438 284.362 60.8438 283.523C60.8438 282.633 61.1745 281.961 61.8359 281.508C62.4974 281.055 63.5052 280.807 64.8594 280.766L66.3516 280.719V280.258C66.3516 279.706 66.2214 279.294 65.9609 279.023C65.7057 278.747 65.3073 278.609 64.7656 278.609C64.3229 278.609 63.8984 278.674 63.4922 278.805C63.0859 278.935 62.6953 279.089 62.3203 279.266L61.7266 277.953C62.1953 277.708 62.7083 277.523 63.2656 277.398C63.8229 277.268 64.349 277.203 64.8438 277.203C65.9427 277.203 66.7708 277.443 67.3281 277.922C67.8906 278.401 68.1719 279.154 68.1719 280.18V286H66.8594ZM64.125 284.75C64.7917 284.75 65.3255 284.565 65.7266 284.195C66.1328 283.82 66.3359 283.297 66.3359 282.625V281.875L65.2266 281.922C64.362 281.953 63.7318 282.099 63.3359 282.359C62.9453 282.615 62.75 283.008 62.75 283.539C62.75 283.924 62.8646 284.224 63.0938 284.438C63.3229 284.646 63.6667 284.75 64.125 284.75ZM78.3359 286H76.4922V280.688C76.4922 280.021 76.3568 279.523 76.0859 279.195C75.8203 278.867 75.3958 278.703 74.8125 278.703C74.0365 278.703 73.4688 278.932 73.1094 279.391C72.75 279.849 72.5703 280.617 72.5703 281.695V286H70.7344V277.359H72.1719L72.4297 278.492H72.5234C72.7839 278.081 73.1536 277.763 73.6328 277.539C74.112 277.315 74.6432 277.203 75.2266 277.203C77.2995 277.203 78.3359 278.258 78.3359 280.367V286ZM89.4297 277.203C89.7995 277.203 90.1042 277.229 90.3438 277.281L90.1641 278.992C89.9036 278.93 89.6328 278.898 89.3516 278.898C88.6172 278.898 88.0208 279.138 87.5625 279.617C87.1094 280.096 86.8828 280.719 86.8828 281.484V286H85.0469V277.359H86.4844L86.7266 278.883H86.8203C87.1068 278.367 87.4792 277.958 87.9375 277.656C88.401 277.354 88.8984 277.203 89.4297 277.203ZM98.0469 286L97.7891 284.867H97.6953C97.4401 285.268 97.0755 285.583 96.6016 285.812C96.1328 286.042 95.5964 286.156 94.9922 286.156C93.9453 286.156 93.1641 285.896 92.6484 285.375C92.1328 284.854 91.875 284.065 91.875 283.008V277.359H93.7266V282.688C93.7266 283.349 93.862 283.846 94.1328 284.18C94.4036 284.508 94.8281 284.672 95.4062 284.672C96.1771 284.672 96.7422 284.443 97.1016 283.984C97.4661 283.521 97.6484 282.747 97.6484 281.664V277.359H99.4922V286H98.0469ZM109.711 286H107.867V280.688C107.867 280.021 107.732 279.523 107.461 279.195C107.195 278.867 106.771 278.703 106.188 278.703C105.411 278.703 104.844 278.932 104.484 279.391C104.125 279.849 103.945 280.617 103.945 281.695V286H102.109V277.359H103.547L103.805 278.492H103.898C104.159 278.081 104.529 277.763 105.008 277.539C105.487 277.315 106.018 277.203 106.602 277.203C108.674 277.203 109.711 278.258 109.711 280.367V286ZM123.508 286L122.391 281.969C122.255 281.542 122.01 280.549 121.656 278.992H121.586C121.284 280.398 121.044 281.396 120.867 281.984L119.719 286H117.688L115.266 277.359H117.141L118.242 281.617C118.492 282.669 118.669 283.57 118.773 284.32H118.82C118.872 283.94 118.951 283.505 119.055 283.016C119.164 282.521 119.258 282.151 119.336 281.906L120.648 277.359H122.664L123.938 281.906C124.016 282.161 124.112 282.552 124.227 283.078C124.346 283.604 124.417 284.013 124.438 284.305H124.5C124.578 283.664 124.76 282.768 125.047 281.617L126.164 277.359H128.008L125.57 286H123.508ZM131.336 286H129.5V277.359H131.336V286ZM129.391 275.07C129.391 274.742 129.479 274.49 129.656 274.312C129.839 274.135 130.096 274.047 130.43 274.047C130.753 274.047 131.003 274.135 131.18 274.312C131.362 274.49 131.453 274.742 131.453 275.07C131.453 275.383 131.362 275.63 131.18 275.812C131.003 275.99 130.753 276.078 130.43 276.078C130.096 276.078 129.839 275.99 129.656 275.812C129.479 275.63 129.391 275.383 129.391 275.07ZM137.188 284.672C137.635 284.672 138.083 284.602 138.531 284.461V285.844C138.328 285.932 138.065 286.005 137.742 286.062C137.424 286.125 137.094 286.156 136.75 286.156C135.01 286.156 134.141 285.24 134.141 283.406V278.75H132.961V277.938L134.227 277.266L134.852 275.438H135.984V277.359H138.445V278.75H135.984V283.375C135.984 283.818 136.094 284.146 136.312 284.359C136.536 284.568 136.828 284.672 137.188 284.672ZM147.867 286H146.023V280.688C146.023 280.021 145.888 279.523 145.617 279.195C145.352 278.867 144.927 278.703 144.344 278.703C143.573 278.703 143.005 278.935 142.641 279.398C142.281 279.857 142.102 280.628 142.102 281.711V286H140.266V273.844H142.102V276.93C142.102 277.424 142.07 277.953 142.008 278.516H142.125C142.375 278.099 142.721 277.776 143.164 277.547C143.612 277.318 144.133 277.203 144.727 277.203C146.82 277.203 147.867 278.258 147.867 280.367V286ZM158.086 281.664C158.086 283.076 157.724 284.177 157 284.969C156.276 285.76 155.268 286.156 153.977 286.156C153.169 286.156 152.456 285.974 151.836 285.609C151.216 285.245 150.74 284.721 150.406 284.039C150.073 283.357 149.906 282.565 149.906 281.664C149.906 280.263 150.266 279.169 150.984 278.383C151.703 277.596 152.716 277.203 154.023 277.203C155.273 277.203 156.263 277.607 156.992 278.414C157.721 279.216 158.086 280.299 158.086 281.664ZM151.797 281.664C151.797 283.659 152.534 284.656 154.008 284.656C155.466 284.656 156.195 283.659 156.195 281.664C156.195 279.69 155.461 278.703 153.992 278.703C153.221 278.703 152.661 278.958 152.312 279.469C151.969 279.979 151.797 280.711 151.797 281.664ZM166.297 286L166.039 284.867H165.945C165.69 285.268 165.326 285.583 164.852 285.812C164.383 286.042 163.846 286.156 163.242 286.156C162.195 286.156 161.414 285.896 160.898 285.375C160.383 284.854 160.125 284.065 160.125 283.008V277.359H161.977V282.688C161.977 283.349 162.112 283.846 162.383 284.18C162.654 284.508 163.078 284.672 163.656 284.672C164.427 284.672 164.992 284.443 165.352 283.984C165.716 283.521 165.898 282.747 165.898 281.664V277.359H167.742V286H166.297ZM173.578 284.672C174.026 284.672 174.474 284.602 174.922 284.461V285.844C174.719 285.932 174.456 286.005 174.133 286.062C173.815 286.125 173.484 286.156 173.141 286.156C171.401 286.156 170.531 285.24 170.531 283.406V278.75H169.352V277.938L170.617 277.266L171.242 275.438H172.375V277.359H174.836V278.75H172.375V283.375C172.375 283.818 172.484 284.146 172.703 284.359C172.927 284.568 173.219 284.672 173.578 284.672ZM182.648 286H180.812V277.359H182.648V286ZM180.703 275.07C180.703 274.742 180.792 274.49 180.969 274.312C181.151 274.135 181.409 274.047 181.742 274.047C182.065 274.047 182.315 274.135 182.492 274.312C182.674 274.49 182.766 274.742 182.766 275.07C182.766 275.383 182.674 275.63 182.492 275.812C182.315 275.99 182.065 276.078 181.742 276.078C181.409 276.078 181.151 275.99 180.969 275.812C180.792 275.63 180.703 275.383 180.703 275.07ZM192.883 286H191.039V280.688C191.039 280.021 190.904 279.523 190.633 279.195C190.367 278.867 189.943 278.703 189.359 278.703C188.583 278.703 188.016 278.932 187.656 279.391C187.297 279.849 187.117 280.617 187.117 281.695V286H185.281V277.359H186.719L186.977 278.492H187.07C187.331 278.081 187.701 277.763 188.18 277.539C188.659 277.315 189.19 277.203 189.773 277.203C191.846 277.203 192.883 278.258 192.883 280.367V286ZM198.656 284.672C199.104 284.672 199.552 284.602 200 284.461V285.844C199.797 285.932 199.534 286.005 199.211 286.062C198.893 286.125 198.562 286.156 198.219 286.156C196.479 286.156 195.609 285.24 195.609 283.406V278.75H194.43V277.938L195.695 277.266L196.32 275.438H197.453V277.359H199.914V278.75H197.453V283.375C197.453 283.818 197.562 284.146 197.781 284.359C198.005 284.568 198.297 284.672 198.656 284.672ZM205.508 286.156C204.164 286.156 203.112 285.766 202.352 284.984C201.596 284.198 201.219 283.117 201.219 281.742C201.219 280.331 201.57 279.221 202.273 278.414C202.977 277.607 203.943 277.203 205.172 277.203C206.312 277.203 207.214 277.549 207.875 278.242C208.536 278.935 208.867 279.888 208.867 281.102V282.094H203.109C203.135 282.932 203.362 283.578 203.789 284.031C204.216 284.479 204.818 284.703 205.594 284.703C206.104 284.703 206.578 284.656 207.016 284.562C207.458 284.464 207.932 284.302 208.438 284.078V285.57C207.99 285.784 207.536 285.935 207.078 286.023C206.62 286.112 206.096 286.156 205.508 286.156ZM205.172 278.594C204.589 278.594 204.12 278.779 203.766 279.148C203.417 279.518 203.208 280.057 203.141 280.766H207.062C207.052 280.052 206.88 279.513 206.547 279.148C206.214 278.779 205.755 278.594 205.172 278.594ZM215.336 277.203C215.706 277.203 216.01 277.229 216.25 277.281L216.07 278.992C215.81 278.93 215.539 278.898 215.258 278.898C214.523 278.898 213.927 279.138 213.469 279.617C213.016 280.096 212.789 280.719 212.789 281.484V286H210.953V277.359H212.391L212.633 278.883H212.727C213.013 278.367 213.385 277.958 213.844 277.656C214.307 277.354 214.805 277.203 215.336 277.203ZM225.461 286H223.617V280.688C223.617 280.021 223.482 279.523 223.211 279.195C222.945 278.867 222.521 278.703 221.938 278.703C221.161 278.703 220.594 278.932 220.234 279.391C219.875 279.849 219.695 280.617 219.695 281.695V286H217.859V277.359H219.297L219.555 278.492H219.648C219.909 278.081 220.279 277.763 220.758 277.539C221.237 277.315 221.768 277.203 222.352 277.203C224.424 277.203 225.461 278.258 225.461 280.367V286ZM231.789 286.156C230.445 286.156 229.393 285.766 228.633 284.984C227.878 284.198 227.5 283.117 227.5 281.742C227.5 280.331 227.852 279.221 228.555 278.414C229.258 277.607 230.224 277.203 231.453 277.203C232.594 277.203 233.495 277.549 234.156 278.242C234.818 278.935 235.148 279.888 235.148 281.102V282.094H229.391C229.417 282.932 229.643 283.578 230.07 284.031C230.497 284.479 231.099 284.703 231.875 284.703C232.385 284.703 232.859 284.656 233.297 284.562C233.74 284.464 234.214 284.302 234.719 284.078V285.57C234.271 285.784 233.818 285.935 233.359 286.023C232.901 286.112 232.378 286.156 231.789 286.156ZM231.453 278.594C230.87 278.594 230.401 278.779 230.047 279.148C229.698 279.518 229.49 280.057 229.422 280.766H233.344C233.333 280.052 233.161 279.513 232.828 279.148C232.495 278.779 232.036 278.594 231.453 278.594ZM240.453 284.672C240.901 284.672 241.349 284.602 241.797 284.461V285.844C241.594 285.932 241.331 286.005 241.008 286.062C240.69 286.125 240.359 286.156 240.016 286.156C238.276 286.156 237.406 285.24 237.406 283.406V278.75H236.227V277.938L237.492 277.266L238.117 275.438H239.25V277.359H241.711V278.75H239.25V283.375C239.25 283.818 239.359 284.146 239.578 284.359C239.802 284.568 240.094 284.672 240.453 284.672ZM251.172 286.156C249.865 286.156 248.87 285.776 248.188 285.016C247.51 284.25 247.172 283.154 247.172 281.727C247.172 280.273 247.526 279.156 248.234 278.375C248.948 277.594 249.977 277.203 251.32 277.203C252.232 277.203 253.052 277.372 253.781 277.711L253.227 279.188C252.451 278.885 251.81 278.734 251.305 278.734C249.81 278.734 249.062 279.727 249.062 281.711C249.062 282.68 249.247 283.409 249.617 283.898C249.992 284.383 250.539 284.625 251.258 284.625C252.076 284.625 252.849 284.422 253.578 284.016V285.617C253.25 285.81 252.898 285.948 252.523 286.031C252.154 286.115 251.703 286.156 251.172 286.156ZM263.273 281.664C263.273 283.076 262.911 284.177 262.188 284.969C261.464 285.76 260.456 286.156 259.164 286.156C258.357 286.156 257.643 285.974 257.023 285.609C256.404 285.245 255.927 284.721 255.594 284.039C255.26 283.357 255.094 282.565 255.094 281.664C255.094 280.263 255.453 279.169 256.172 278.383C256.891 277.596 257.904 277.203 259.211 277.203C260.461 277.203 261.451 277.607 262.18 278.414C262.909 279.216 263.273 280.299 263.273 281.664ZM256.984 281.664C256.984 283.659 257.721 284.656 259.195 284.656C260.654 284.656 261.383 283.659 261.383 281.664C261.383 279.69 260.648 278.703 259.18 278.703C258.409 278.703 257.849 278.958 257.5 279.469C257.156 279.979 256.984 280.711 256.984 281.664ZM272.992 286H271.148V280.688C271.148 280.021 271.013 279.523 270.742 279.195C270.477 278.867 270.052 278.703 269.469 278.703C268.693 278.703 268.125 278.932 267.766 279.391C267.406 279.849 267.227 280.617 267.227 281.695V286H265.391V277.359H266.828L267.086 278.492H267.18C267.44 278.081 267.81 277.763 268.289 277.539C268.768 277.315 269.299 277.203 269.883 277.203C271.956 277.203 272.992 278.258 272.992 280.367V286ZM283.148 286H281.305V280.688C281.305 280.021 281.169 279.523 280.898 279.195C280.633 278.867 280.208 278.703 279.625 278.703C278.849 278.703 278.281 278.932 277.922 279.391C277.562 279.849 277.383 280.617 277.383 281.695V286H275.547V277.359H276.984L277.242 278.492H277.336C277.596 278.081 277.966 277.763 278.445 277.539C278.924 277.315 279.456 277.203 280.039 277.203C282.112 277.203 283.148 278.258 283.148 280.367V286ZM289.477 286.156C288.133 286.156 287.081 285.766 286.32 284.984C285.565 284.198 285.188 283.117 285.188 281.742C285.188 280.331 285.539 279.221 286.242 278.414C286.945 277.607 287.911 277.203 289.141 277.203C290.281 277.203 291.182 277.549 291.844 278.242C292.505 278.935 292.836 279.888 292.836 281.102V282.094H287.078C287.104 282.932 287.331 283.578 287.758 284.031C288.185 284.479 288.786 284.703 289.562 284.703C290.073 284.703 290.547 284.656 290.984 284.562C291.427 284.464 291.901 284.302 292.406 284.078V285.57C291.958 285.784 291.505 285.935 291.047 286.023C290.589 286.112 290.065 286.156 289.477 286.156ZM289.141 278.594C288.557 278.594 288.089 278.779 287.734 279.148C287.385 279.518 287.177 280.057 287.109 280.766H291.031C291.021 280.052 290.849 279.513 290.516 279.148C290.182 278.779 289.724 278.594 289.141 278.594ZM298.406 286.156C297.099 286.156 296.104 285.776 295.422 285.016C294.745 284.25 294.406 283.154 294.406 281.727C294.406 280.273 294.76 279.156 295.469 278.375C296.182 277.594 297.211 277.203 298.555 277.203C299.466 277.203 300.286 277.372 301.016 277.711L300.461 279.188C299.685 278.885 299.044 278.734 298.539 278.734C297.044 278.734 296.297 279.727 296.297 281.711C296.297 282.68 296.482 283.409 296.852 283.898C297.227 284.383 297.773 284.625 298.492 284.625C299.31 284.625 300.083 284.422 300.812 284.016V285.617C300.484 285.81 300.133 285.948 299.758 286.031C299.388 286.115 298.938 286.156 298.406 286.156ZM306.062 284.672C306.51 284.672 306.958 284.602 307.406 284.461V285.844C307.203 285.932 306.94 286.005 306.617 286.062C306.299 286.125 305.969 286.156 305.625 286.156C303.885 286.156 303.016 285.24 303.016 283.406V278.75H301.836V277.938L303.102 277.266L303.727 275.438H304.859V277.359H307.32V278.75H304.859V283.375C304.859 283.818 304.969 284.146 305.188 284.359C305.411 284.568 305.703 284.672 306.062 284.672ZM310.977 286H309.141V277.359H310.977V286ZM309.031 275.07C309.031 274.742 309.12 274.49 309.297 274.312C309.479 274.135 309.737 274.047 310.07 274.047C310.393 274.047 310.643 274.135 310.82 274.312C311.003 274.49 311.094 274.742 311.094 275.07C311.094 275.383 311.003 275.63 310.82 275.812C310.643 275.99 310.393 276.078 310.07 276.078C309.737 276.078 309.479 275.99 309.297 275.812C309.12 275.63 309.031 275.383 309.031 275.07ZM321.273 281.664C321.273 283.076 320.911 284.177 320.188 284.969C319.464 285.76 318.456 286.156 317.164 286.156C316.357 286.156 315.643 285.974 315.023 285.609C314.404 285.245 313.927 284.721 313.594 284.039C313.26 283.357 313.094 282.565 313.094 281.664C313.094 280.263 313.453 279.169 314.172 278.383C314.891 277.596 315.904 277.203 317.211 277.203C318.461 277.203 319.451 277.607 320.18 278.414C320.909 279.216 321.273 280.299 321.273 281.664ZM314.984 281.664C314.984 283.659 315.721 284.656 317.195 284.656C318.654 284.656 319.383 283.659 319.383 281.664C319.383 279.69 318.648 278.703 317.18 278.703C316.409 278.703 315.849 278.958 315.5 279.469C315.156 279.979 314.984 280.711 314.984 281.664ZM330.992 286H329.148V280.688C329.148 280.021 329.013 279.523 328.742 279.195C328.477 278.867 328.052 278.703 327.469 278.703C326.693 278.703 326.125 278.932 325.766 279.391C325.406 279.849 325.227 280.617 325.227 281.695V286H323.391V277.359H324.828L325.086 278.492H325.18C325.44 278.081 325.81 277.763 326.289 277.539C326.768 277.315 327.299 277.203 327.883 277.203C329.956 277.203 330.992 278.258 330.992 280.367V286Z" fill="white"/>
<defs>
<linearGradient id="paint0_linear" x1="416" y1="19.9584" x2="-2.84295e-06" y2="19.9584" gradientUnits="userSpaceOnUse">
<stop stop-color="#45B7D2" stop-opacity="0"/>
<stop offset="1" stop-color="#226CC7"/>
</linearGradient>
<linearGradient id="paint1_linear" x1="416" y1="84.9584" x2="-2.84295e-06" y2="84.9584" gradientUnits="userSpaceOnUse">
<stop stop-color="#45B7D2" stop-opacity="0"/>
<stop offset="1" stop-color="#226CC7"/>
</linearGradient>
<linearGradient id="paint2_linear" x1="416" y1="149.958" x2="-2.84295e-06" y2="149.958" gradientUnits="userSpaceOnUse">
<stop stop-color="#45B7D2" stop-opacity="0"/>
<stop offset="1" stop-color="#226CC7"/>
</linearGradient>
<linearGradient id="paint3_linear" x1="416" y1="214.958" x2="-2.84295e-06" y2="214.958" gradientUnits="userSpaceOnUse">
<stop stop-color="#45B7D2" stop-opacity="0"/>
<stop offset="1" stop-color="#226CC7"/>
</linearGradient>
<linearGradient id="paint4_linear" x1="416" y1="279.958" x2="-2.84295e-06" y2="279.958" gradientUnits="userSpaceOnUse">
<stop stop-color="#45B7D2" stop-opacity="0"/>
<stop offset="1" stop-color="#226CC7"/>
</linearGradient>
</defs>
</svg>
