<svg width="247" height="89" viewBox="0 0 247 89" fill="none" xmlns="http://www.w3.org/2000/svg">
<path d="M62.4523 35.3455H9.54799C9.07842 35.3455 8.76538 35.0428 8.76538 34.5888C8.76538 34.1347 9.07842 33.832 9.54799 33.832H62.4523C62.9219 33.832 63.235 34.1347 63.235 34.5888C63.235 35.0428 62.9219 35.3455 62.4523 35.3455Z" fill="white"/>
<path d="M55.5649 39.1297C56.17 39.1297 56.6605 38.6553 56.6605 38.0702C56.6605 37.4851 56.17 37.0107 55.5649 37.0107C54.9598 37.0107 54.4692 37.4851 54.4692 38.0702C54.4692 38.6553 54.9598 39.1297 55.5649 39.1297Z" fill="white"/>
<path d="M59.0087 39.1297C59.6139 39.1297 60.1044 38.6553 60.1044 38.0702C60.1044 37.4851 59.6139 37.0107 59.0087 37.0107C58.4036 37.0107 57.9131 37.4851 57.9131 38.0702C57.9131 38.6553 58.4036 39.1297 59.0087 39.1297Z" fill="white"/>
<path d="M62.2959 39.1297C62.901 39.1297 63.3915 38.6553 63.3915 38.0702C63.3915 37.4851 62.901 37.0107 62.2959 37.0107C61.6907 37.0107 61.2002 37.4851 61.2002 38.0702C61.2002 38.6553 61.6907 39.1297 62.2959 39.1297Z" fill="white"/>
<path d="M69.8087 22.1784L64.6435 19.7568C63.5478 19.3027 62.4522 19 61.2 19H36H10.8C9.54783 19 8.45217 19.3027 7.35652 19.7568L2.1913 22.1784C0.93913 22.4811 0 23.3892 0 24.7514V44.427C0 45.7892 1.25217 47 2.66087 47H69.3391C70.7478 47 72 45.7892 72 44.427V24.7514C72 23.3892 71.0609 22.4811 69.8087 22.1784ZM70.4348 44.427C70.4348 45.0324 69.9652 45.4865 69.3391 45.4865H2.66087C2.03478 45.4865 1.56522 45.0324 1.56522 44.427V24.7514C1.56522 24.1459 2.03478 23.6919 2.66087 23.6919H69.3391C69.9652 23.6919 70.4348 24.1459 70.4348 24.7514V44.427Z" fill="white"/>
<path d="M69.8087 22.1784L64.6435 19.7568C63.5478 19.3027 62.4522 19 61.2 19H36H10.8C9.54783 19 8.45217 19.3027 7.35652 19.7568L2.1913 22.1784C0.93913 22.4811 0 23.3892 0 24.7514V44.427C0 45.7892 1.25217 47 2.66087 47H69.3391C70.7478 47 72 45.7892 72 44.427V24.7514C72 23.3892 71.0609 22.4811 69.8087 22.1784ZM70.4348 44.427C70.4348 45.0324 69.9652 45.4865 69.3391 45.4865H2.66087C2.03478 45.4865 1.56522 45.0324 1.56522 44.427V24.7514C1.56522 24.1459 2.03478 23.6919 2.66087 23.6919H69.3391C69.9652 23.6919 70.4348 24.1459 70.4348 24.7514V44.427Z" fill="url(#paint0_linear)"/>
<path d="M237.452 35.3455H184.548C184.078 35.3455 183.765 35.0428 183.765 34.5888C183.765 34.1347 184.078 33.832 184.548 33.832H237.452C237.922 33.832 238.235 34.1347 238.235 34.5888C238.235 35.0428 237.922 35.3455 237.452 35.3455Z" fill="white"/>
<path d="M230.565 39.1297C231.17 39.1297 231.661 38.6553 231.661 38.0702C231.661 37.4851 231.17 37.0107 230.565 37.0107C229.96 37.0107 229.469 37.4851 229.469 38.0702C229.469 38.6553 229.96 39.1297 230.565 39.1297Z" fill="white"/>
<path d="M234.009 39.1297C234.614 39.1297 235.104 38.6553 235.104 38.0702C235.104 37.4851 234.614 37.0107 234.009 37.0107C233.404 37.0107 232.913 37.4851 232.913 38.0702C232.913 38.6553 233.404 39.1297 234.009 39.1297Z" fill="white"/>
<path d="M237.296 39.1297C237.901 39.1297 238.392 38.6553 238.392 38.0702C238.392 37.4851 237.901 37.0107 237.296 37.0107C236.691 37.0107 236.2 37.4851 236.2 38.0702C236.2 38.6553 236.691 39.1297 237.296 39.1297Z" fill="white"/>
<path d="M244.809 22.1784L239.643 19.7568C238.548 19.3027 237.452 19 236.2 19H211H185.8C184.548 19 183.452 19.3027 182.357 19.7568L177.191 22.1784C175.939 22.4811 175 23.3892 175 24.7514V44.427C175 45.7892 176.252 47 177.661 47H244.339C245.748 47 247 45.7892 247 44.427V24.7514C247 23.3892 246.061 22.4811 244.809 22.1784ZM245.435 44.427C245.435 45.0324 244.965 45.4865 244.339 45.4865H177.661C177.035 45.4865 176.565 45.0324 176.565 44.427V24.7514C176.565 24.1459 177.035 23.6919 177.661 23.6919H244.339C244.965 23.6919 245.435 24.1459 245.435 24.7514V44.427Z" fill="white"/>
<path d="M244.809 22.1784L239.643 19.7568C238.548 19.3027 237.452 19 236.2 19H211H185.8C184.548 19 183.452 19.3027 182.357 19.7568L177.191 22.1784C175.939 22.4811 175 23.3892 175 24.7514V44.427C175 45.7892 176.252 47 177.661 47H244.339C245.748 47 247 45.7892 247 44.427V24.7514C247 23.3892 246.061 22.4811 244.809 22.1784ZM245.435 44.427C245.435 45.0324 244.965 45.4865 244.339 45.4865H177.661C177.035 45.4865 176.565 45.0324 176.565 44.427V24.7514C176.565 24.1459 177.035 23.6919 177.661 23.6919H244.339C244.965 23.6919 245.435 24.1459 245.435 24.7514V44.427Z" fill="url(#paint1_linear)"/>
<path d="M62.4523 65.3455H9.54799C9.07842 65.3455 8.76538 65.0428 8.76538 64.5888C8.76538 64.1347 9.07842 63.832 9.54799 63.832H62.4523C62.9219 63.832 63.235 64.1347 63.235 64.5888C63.235 65.0428 62.9219 65.3455 62.4523 65.3455Z" fill="white"/>
<path d="M55.5649 69.1297C56.17 69.1297 56.6605 68.6553 56.6605 68.0702C56.6605 67.4851 56.17 67.0107 55.5649 67.0107C54.9598 67.0107 54.4692 67.4851 54.4692 68.0702C54.4692 68.6553 54.9598 69.1297 55.5649 69.1297Z" fill="white"/>
<path d="M59.0087 69.1297C59.6139 69.1297 60.1044 68.6553 60.1044 68.0702C60.1044 67.4851 59.6139 67.0107 59.0087 67.0107C58.4036 67.0107 57.9131 67.4851 57.9131 68.0702C57.9131 68.6553 58.4036 69.1297 59.0087 69.1297Z" fill="white"/>
<path d="M62.2959 69.1297C62.901 69.1297 63.3915 68.6553 63.3915 68.0702C63.3915 67.4851 62.901 67.0107 62.2959 67.0107C61.6907 67.0107 61.2002 67.4851 61.2002 68.0702C61.2002 68.6553 61.6907 69.1297 62.2959 69.1297Z" fill="white"/>
<path d="M69.8087 52.1784L64.6435 49.7568C63.5478 49.3027 62.4522 49 61.2 49H36H10.8C9.54783 49 8.45217 49.3027 7.35652 49.7568L2.1913 52.1784C0.93913 52.4811 0 53.3892 0 54.7514V74.427C0 75.7892 1.25217 77 2.66087 77H69.3391C70.7478 77 72 75.7892 72 74.427V54.7514C72 53.3892 71.0609 52.4811 69.8087 52.1784ZM70.4348 74.427C70.4348 75.0324 69.9652 75.4865 69.3391 75.4865H2.66087C2.03478 75.4865 1.56522 75.0324 1.56522 74.427V54.7514C1.56522 54.1459 2.03478 53.6919 2.66087 53.6919H69.3391C69.9652 53.6919 70.4348 54.1459 70.4348 54.7514V74.427Z" fill="white"/>
<path d="M69.8087 52.1784L64.6435 49.7568C63.5478 49.3027 62.4522 49 61.2 49H36H10.8C9.54783 49 8.45217 49.3027 7.35652 49.7568L2.1913 52.1784C0.93913 52.4811 0 53.3892 0 54.7514V74.427C0 75.7892 1.25217 77 2.66087 77H69.3391C70.7478 77 72 75.7892 72 74.427V54.7514C72 53.3892 71.0609 52.4811 69.8087 52.1784ZM70.4348 74.427C70.4348 75.0324 69.9652 75.4865 69.3391 75.4865H2.66087C2.03478 75.4865 1.56522 75.0324 1.56522 74.427V54.7514C1.56522 54.1459 2.03478 53.6919 2.66087 53.6919H69.3391C69.9652 53.6919 70.4348 54.1459 70.4348 54.7514V74.427Z" fill="url(#paint2_linear)"/>
<path d="M237.452 65.3455H184.548C184.078 65.3455 183.765 65.0428 183.765 64.5888C183.765 64.1347 184.078 63.832 184.548 63.832H237.452C237.922 63.832 238.235 64.1347 238.235 64.5888C238.235 65.0428 237.922 65.3455 237.452 65.3455Z" fill="white"/>
<path d="M230.565 69.1297C231.17 69.1297 231.661 68.6553 231.661 68.0702C231.661 67.4851 231.17 67.0107 230.565 67.0107C229.96 67.0107 229.469 67.4851 229.469 68.0702C229.469 68.6553 229.96 69.1297 230.565 69.1297Z" fill="white"/>
<path d="M234.009 69.1297C234.614 69.1297 235.104 68.6553 235.104 68.0702C235.104 67.4851 234.614 67.0107 234.009 67.0107C233.404 67.0107 232.913 67.4851 232.913 68.0702C232.913 68.6553 233.404 69.1297 234.009 69.1297Z" fill="white"/>
<path d="M237.296 69.1297C237.901 69.1297 238.392 68.6553 238.392 68.0702C238.392 67.4851 237.901 67.0107 237.296 67.0107C236.691 67.0107 236.2 67.4851 236.2 68.0702C236.2 68.6553 236.691 69.1297 237.296 69.1297Z" fill="white"/>
<path d="M244.809 52.1784L239.643 49.7568C238.548 49.3027 237.452 49 236.2 49H211H185.8C184.548 49 183.452 49.3027 182.357 49.7568L177.191 52.1784C175.939 52.4811 175 53.3892 175 54.7514V74.427C175 75.7892 176.252 77 177.661 77H244.339C245.748 77 247 75.7892 247 74.427V54.7514C247 53.3892 246.061 52.4811 244.809 52.1784ZM245.435 74.427C245.435 75.0324 244.965 75.4865 244.339 75.4865H177.661C177.035 75.4865 176.565 75.0324 176.565 74.427V54.7514C176.565 54.1459 177.035 53.6919 177.661 53.6919H244.339C244.965 53.6919 245.435 54.1459 245.435 54.7514V74.427Z" fill="white"/>
<path d="M244.809 52.1784L239.643 49.7568C238.548 49.3027 237.452 49 236.2 49H211H185.8C184.548 49 183.452 49.3027 182.357 49.7568L177.191 52.1784C175.939 52.4811 175 53.3892 175 54.7514V74.427C175 75.7892 176.252 77 177.661 77H244.339C245.748 77 247 75.7892 247 74.427V54.7514C247 53.3892 246.061 52.4811 244.809 52.1784ZM245.435 74.427C245.435 75.0324 244.965 75.4865 244.339 75.4865H177.661C177.035 75.4865 176.565 75.0324 176.565 74.427V54.7514C176.565 54.1459 177.035 53.6919 177.661 53.6919H244.339C244.965 53.6919 245.435 54.1459 245.435 54.7514V74.427Z" fill="url(#paint3_linear)"/>
<path d="M99.5613 15V3.912H107.049V6.008H102.057V8.184H106.489V10.232H102.057V12.904H107.417V15H99.5613ZM113.76 12.968C113.878 12.9787 114.011 12.9893 114.16 13C114.32 13 114.507 13 114.72 13C115.968 13 116.891 12.6853 117.488 12.056C118.096 11.4267 118.4 10.5573 118.4 9.448C118.4 8.28533 118.112 7.40533 117.536 6.808C116.96 6.21067 116.048 5.912 114.8 5.912C114.63 5.912 114.454 5.91733 114.272 5.928C114.091 5.928 113.92 5.93867 113.76 5.96V12.968ZM120.976 9.448C120.976 10.408 120.827 11.2453 120.528 11.96C120.23 12.6747 119.803 13.2667 119.248 13.736C118.704 14.2053 118.038 14.5573 117.248 14.792C116.459 15.0267 115.574 15.144 114.592 15.144C114.144 15.144 113.622 15.1227 113.024 15.08C112.427 15.048 111.84 14.9733 111.264 14.856V4.056C111.84 3.94933 112.438 3.88 113.056 3.848C113.686 3.80533 114.224 3.784 114.672 3.784C115.622 3.784 116.48 3.89067 117.248 4.104C118.027 4.31733 118.694 4.65333 119.248 5.112C119.803 5.57067 120.23 6.15733 120.528 6.872C120.827 7.58667 120.976 8.44533 120.976 9.448ZM130.469 5.832C129.307 5.832 128.464 6.15733 127.941 6.808C127.429 7.448 127.173 8.328 127.173 9.448C127.173 9.992 127.237 10.488 127.365 10.936C127.493 11.3733 127.685 11.752 127.941 12.072C128.197 12.392 128.517 12.6427 128.901 12.824C129.285 12.9947 129.733 13.08 130.245 13.08C130.523 13.08 130.757 13.0747 130.949 13.064C131.152 13.0533 131.328 13.032 131.477 13V9.144H133.973V14.632C133.675 14.7493 133.195 14.872 132.533 15C131.872 15.1387 131.056 15.208 130.085 15.208C129.253 15.208 128.496 15.08 127.813 14.824C127.141 14.568 126.565 14.1947 126.085 13.704C125.605 13.2133 125.232 12.6107 124.965 11.896C124.709 11.1813 124.581 10.3653 124.581 9.448C124.581 8.52 124.725 7.69867 125.013 6.984C125.301 6.26933 125.696 5.66667 126.197 5.176C126.699 4.67467 127.285 4.296 127.957 4.04C128.64 3.784 129.365 3.656 130.133 3.656C130.656 3.656 131.125 3.69333 131.541 3.768C131.968 3.832 132.331 3.912 132.629 4.008C132.939 4.09333 133.189 4.184 133.381 4.28C133.584 4.376 133.728 4.45067 133.813 4.504L133.093 6.504C132.752 6.32267 132.357 6.168 131.909 6.04C131.472 5.90133 130.992 5.832 130.469 5.832ZM138.296 15V3.912H145.784V6.008H140.792V8.184H145.224V10.232H140.792V12.904H146.152V15H138.296Z" fill="white"/>
<rect x="63.3208" y="47" width="119.519" height="40.8333" fill="#0E111B"/>
<path d="M167.689 68.6052H77.3111C76.5089 68.6052 75.9741 68.0755 75.9741 67.2809C75.9741 66.4863 76.5089 65.9565 77.3111 65.9565H167.689C168.492 65.9565 169.026 66.4863 169.026 67.2809C169.026 68.0755 168.492 68.6052 167.689 68.6052Z" fill="white"/>
<path d="M155.924 75.2272C156.957 75.2272 157.795 74.3971 157.795 73.3731C157.795 72.3491 156.957 71.519 155.924 71.519C154.89 71.519 154.052 72.3491 154.052 73.3731C154.052 74.3971 154.89 75.2272 155.924 75.2272Z" fill="white"/>
<path d="M161.807 75.2272C162.841 75.2272 163.679 74.3971 163.679 73.3731C163.679 72.3491 162.841 71.519 161.807 71.519C160.773 71.519 159.935 72.3491 159.935 73.3731C159.935 74.3971 160.773 75.2272 161.807 75.2272Z" fill="white"/>
<path d="M167.422 75.2272C168.456 75.2272 169.294 74.3971 169.294 73.3731C169.294 72.3491 168.456 71.519 167.422 71.519C166.388 71.519 165.55 72.3491 165.55 73.3731C165.55 74.3971 166.388 75.2272 167.422 75.2272Z" fill="white"/>
<path d="M180.257 45.5622L171.433 41.3243C169.561 40.5297 167.689 40 165.55 40H122.5H79.45C77.3109 40 75.4391 40.5297 73.5674 41.3243L64.7435 45.5622C62.6043 46.0919 61 47.6811 61 50.0649V84.4973C61 86.8811 63.1391 89 65.5457 89H179.454C181.861 89 184 86.8811 184 84.4973V50.0649C184 47.6811 182.396 46.0919 180.257 45.5622ZM181.326 84.4973C181.326 85.5568 180.524 86.3514 179.454 86.3514H65.5457C64.4761 86.3514 63.6739 85.5568 63.6739 84.4973V50.0649C63.6739 49.0054 64.4761 48.2108 65.5457 48.2108H179.454C180.524 48.2108 181.326 49.0054 181.326 50.0649V84.4973Z" fill="white"/>
<path d="M180.257 45.5622L171.433 41.3243C169.561 40.5297 167.689 40 165.55 40H122.5H79.45C77.3109 40 75.4391 40.5297 73.5674 41.3243L64.7435 45.5622C62.6043 46.0919 61 47.6811 61 50.0649V84.4973C61 86.8811 63.1391 89 65.5457 89H179.454C181.861 89 184 86.8811 184 84.4973V50.0649C184 47.6811 182.396 46.0919 180.257 45.5622ZM181.326 84.4973C181.326 85.5568 180.524 86.3514 179.454 86.3514H65.5457C64.4761 86.3514 63.6739 85.5568 63.6739 84.4973V50.0649C63.6739 49.0054 64.4761 48.2108 65.5457 48.2108H179.454C180.524 48.2108 181.326 49.0054 181.326 50.0649V84.4973Z" fill="url(#paint4_linear)"/>
<defs>
<linearGradient id="paint0_linear" x1="36" y1="19" x2="36" y2="47" gradientUnits="userSpaceOnUse">
<stop stop-color="#47BBD5"/>
<stop offset="1" stop-color="#265293"/>
</linearGradient>
<linearGradient id="paint1_linear" x1="211" y1="19" x2="211" y2="47" gradientUnits="userSpaceOnUse">
<stop stop-color="#47BBD5"/>
<stop offset="1" stop-color="#265293"/>
</linearGradient>
<linearGradient id="paint2_linear" x1="36" y1="49" x2="36" y2="77" gradientUnits="userSpaceOnUse">
<stop stop-color="#47BBD5"/>
<stop offset="1" stop-color="#265293"/>
</linearGradient>
<linearGradient id="paint3_linear" x1="211" y1="49" x2="211" y2="77" gradientUnits="userSpaceOnUse">
<stop stop-color="#47BBD5"/>
<stop offset="1" stop-color="#265293"/>
</linearGradient>
<linearGradient id="paint4_linear" x1="122.5" y1="40" x2="122.5" y2="89" gradientUnits="userSpaceOnUse">
<stop stop-color="#47BBD5"/>
<stop offset="0.708333" stop-color="#265293"/>
</linearGradient>
</defs>
</svg>
