<svg width="160" height="160" viewBox="0 0 160 160" fill="none" xmlns="http://www.w3.org/2000/svg">
<path d="M43.7222 56H30V69.7222" stroke="#7BB7EF" stroke-width="2"/>
<path d="M68 69.7222L68 56L54.2778 56" stroke="#7BB7EF" stroke-width="2"/>
<path d="M54.2778 94L68 94L68 80.2778" stroke="#7BB7EF" stroke-width="2"/>
<path d="M30 80.2778L30 94L43.7222 94" stroke="#7BB7EF" stroke-width="2"/>
<path d="M101.944 104H94V111.944" stroke="#7BB7EF" stroke-width="2"/>
<path d="M116 111.944L116 104L108.056 104" stroke="#7BB7EF" stroke-width="2"/>
<path d="M108.056 126L116 126L116 118.056" stroke="#7BB7EF" stroke-width="2"/>
<path d="M94 118.056L94 126L101.944 126" stroke="#7BB7EF" stroke-width="2"/>
<path d="M107.489 113C106.902 111.239 104.798 111.533 103.82 111.899C103.331 112.266 102.279 113.367 101.986 114.834C101.619 116.669 103.82 116.302 106.021 117.402C108.222 118.503 108.222 115.201 107.489 113Z" fill="white"/>
<path d="M52.4131 72.8385C51.6282 70.4906 48.8153 70.8819 47.507 71.3711C46.8528 71.8602 45.4464 73.3277 45.0539 75.2844C44.5633 77.7303 47.507 77.2411 50.4507 78.7085C53.3944 80.176 53.3944 75.7735 52.4131 72.8385Z" fill="white"/>
<path d="M32.5549 127.379C31.7549 125.618 28.8883 125.911 27.5549 126.278C26.8883 126.645 25.4549 127.746 25.0549 129.213C24.5549 131.048 27.5549 130.681 30.5549 131.781C33.5549 132.882 33.5549 129.58 32.5549 127.379Z" fill="#7BB7EF" fill-opacity="0.5"/>
<path d="M63.5549 114.879C62.7549 112.479 59.8883 112.879 58.5549 113.379C57.8883 113.879 56.4549 115.379 56.0549 117.379C55.5549 119.879 58.5549 119.379 61.5549 120.879C64.5549 122.379 64.5549 117.879 63.5549 114.879Z" fill="#7BB7EF" fill-opacity="0.5"/>
<path d="M74.5187 142.004C72.217 141.095 70.714 143.494 70.2503 144.808C70.2058 145.622 70.4286 147.64 71.676 149.197C73.2352 151.144 74.747 148.581 77.7576 147.276C80.7683 145.971 77.3958 143.141 74.5187 142.004Z" fill="#7BB7EF" fill-opacity="0.2"/>
<path d="M13.5549 92.8793C12.7549 90.4793 9.88825 90.8793 8.55492 91.3793C7.88825 91.8793 6.45492 93.3793 6.05492 95.3794C5.55492 97.8795 8.55492 97.3794 11.5549 98.8794C14.5549 100.379 14.5549 95.8793 13.5549 92.8793Z" fill="#7BB7EF" fill-opacity="0.2"/>
<path d="M93.5549 77.8793C92.7549 75.4793 89.8883 75.8793 88.5549 76.3793C87.8883 76.8793 86.4549 78.3793 86.0549 80.3794C85.5549 82.8795 88.5549 82.3794 91.5549 83.8794C94.5549 85.3794 94.5549 80.8793 93.5549 77.8793Z" fill="#7BB7EF" fill-opacity="0.5"/>
<path d="M40.5549 28.8793C39.7549 26.4793 36.8883 26.8793 35.5549 27.3793C34.8883 27.8793 33.4549 29.3793 33.0549 31.3794C32.5549 33.8795 35.5549 33.3794 38.5549 34.8794C41.5549 36.3794 41.5549 31.8793 40.5549 28.8793Z" fill="#7BB7EF" fill-opacity="0.5"/>
<path d="M141.696 118.919C141.304 117.745 139.902 117.941 139.25 118.186C138.924 118.43 138.223 119.164 138.027 120.142C137.782 121.365 139.25 121.121 140.717 121.854C142.185 122.588 142.185 120.387 141.696 118.919Z" fill="#7BB7EF" fill-opacity="0.5"/>
<path d="M153.391 94.8385C152.608 92.4906 149.804 92.8819 148.5 93.3711C147.847 93.8602 146.445 95.3277 146.054 97.2844C145.565 99.7303 148.5 99.2411 151.434 100.709C154.369 102.176 154.369 97.7735 153.391 94.8385Z" fill="#7BB7EF" fill-opacity="0.2"/>
<path d="M124.696 85.9193C124.304 84.7453 122.902 84.941 122.25 85.1855C121.924 85.4301 121.223 86.1639 121.027 87.1422C120.782 88.3652 122.25 88.1205 123.717 88.8543C125.185 89.588 125.185 87.3867 124.696 85.9193Z" fill="#7BB7EF" fill-opacity="0.5"/>
<path d="M8.61943 58.1491C8.13027 56.6816 6.37746 56.9262 5.5622 57.2319C5.15457 57.5376 4.27816 58.4548 4.03358 59.6778C3.72786 61.2064 5.5622 60.9007 7.39654 61.8178C9.23087 62.735 9.23087 59.9834 8.61943 58.1491Z" fill="#7BB7EF" fill-opacity="0.2"/>
<path fill-rule="evenodd" clip-rule="evenodd" d="M131.24 52.0425C128.245 53.1912 126.068 56.5032 126.082 59.6075C126.085 60.1395 126.728 60.2321 127.003 59.7766C128.332 57.465 130.481 57.3225 132.001 58.8919C132.583 59.4911 133.737 59.83 134.595 59.7942C136.808 59.7083 138.025 60.5564 138.334 62.7559C138.4 63.197 138.455 63.635 138.51 64.073C138.564 64.5111 138.619 64.9491 138.686 65.3902C138.953 67.1848 138.869 68.9247 138.103 70.5995C138.01 70.8046 137.955 71.0259 137.901 71.244C137.898 71.2585 137.894 71.2729 137.891 71.2873C137.869 71.3742 137.896 71.4668 137.97 71.5162C138.058 71.5744 138.175 71.5591 138.252 71.4871C138.294 71.4475 138.337 71.4077 138.38 71.3679C138.658 71.1085 138.94 70.8446 139.187 70.5653C141.939 67.3849 142.387 63.5867 142.052 59.5785C142.004 59.0283 141.929 58.4775 141.853 57.9262C141.73 57.0339 141.607 56.1401 141.605 55.245C141.602 54.5106 141.821 53.7877 142.038 53.0714C142.116 52.8167 142.193 52.5628 142.26 52.3096C142.332 52.0203 142.436 51.7414 142.54 51.4639C142.695 51.0508 142.849 50.6409 142.893 50.2052C143.368 45.6661 142.276 41.3859 139.541 37.8368C134.004 30.6519 127.356 26.4264 118.398 24.6643C118.258 24.6307 118.011 24.5468 117.728 24.4507C117.225 24.2801 117.084 23.5571 117.509 23.239C117.837 22.9934 118.152 22.7601 118.462 22.5313C119.178 22.0019 119.039 20.9048 118.236 20.519C117.617 20.222 117.03 19.9099 116.728 19.6702C115.99 19.0831 115.629 18.6261 115.235 18.1262C114.94 17.7534 114.627 17.3567 114.125 16.8645C113.271 16.025 112.872 15.928 112.265 16.8088C110.39 19.545 107.769 21.4806 105.081 23.3296C104.229 23.9082 103.182 24.2871 102.167 24.4679C95.8535 25.5512 90.1111 27.7624 85.4426 32.3388C83.6554 34.1042 82.2627 36.133 81.3264 38.4515C81.1815 38.7769 81.1623 39.4116 81.3704 39.5954C81.5804 39.8093 82.1638 39.7294 82.5348 39.632C82.8241 39.556 83.0839 39.4181 83.3472 39.2783C83.5421 39.1748 83.7409 39.3305 83.5951 39.4961C83.5911 39.5006 83.5872 39.505 83.5833 39.5095C82.5409 40.6575 82.5561 41.1243 84.0203 41.5957C85.7931 42.1695 87.6381 42.6938 89.4878 42.8255C93.6223 43.0481 97.7712 43.0285 101.92 43.0088C103.203 43.0082 104.142 43.2995 105.095 44.2538C105.888 45.0568 106.783 45.6729 107.777 46.1314C109.056 46.7213 109.84 45.1923 108.831 44.2092C108.451 43.8385 108.653 43.1931 109.176 43.1047C112.06 42.6175 114.892 42.1335 117.724 41.6494C117.88 41.6228 118.035 41.5962 118.191 41.5696C119.376 41.3671 120.541 41.9292 121.215 42.9246C122.145 44.2993 123.027 45.1789 124.669 46.0025C125.086 46.2116 125.489 45.6919 125.894 45.4602C126.401 45.1695 125.64 44.5883 125.174 44.2355C124.607 43.8071 124.114 43.0379 123.633 42.2894C123.217 41.641 123.605 40.6487 124.373 40.5797C125.001 40.5231 125.626 40.5074 126.241 40.5714C129.399 40.8669 132.537 41.3145 135.092 43.4864C137.696 45.7006 137.305 48.0471 135.138 50.2424C134.708 50.6774 134.095 50.9502 133.493 51.2182C133.34 51.2858 133.189 51.3532 133.041 51.4228C132.714 51.5719 132.368 51.6775 132.019 51.7841C131.76 51.8635 131.498 51.9435 131.24 52.0425ZM90.3244 36.6697C90.8687 36.0533 90.8103 35.1124 90.1939 34.568C89.5776 34.0237 88.6366 34.0821 88.0923 34.6984C87.548 35.3148 87.6063 36.2557 88.2227 36.8001C88.8391 37.3444 89.78 37.286 90.3244 36.6697Z" fill="#7BB7EF"/>
</svg>
