<svg width="160" height="160" viewBox="0 0 160 160" fill="none" xmlns="http://www.w3.org/2000/svg">
<path d="M43.7222 56H30V69.7222" stroke="#7BB7EF" stroke-width="2"/>
<path d="M68 69.7222L68 56L54.2778 56" stroke="#7BB7EF" stroke-width="2"/>
<path d="M54.2778 94L68 94L68 80.2778" stroke="#7BB7EF" stroke-width="2"/>
<path d="M30 80.2778L30 94L43.7222 94" stroke="#7BB7EF" stroke-width="2"/>
<path d="M101.944 104H94V111.944" stroke="#7BB7EF" stroke-width="2"/>
<path d="M116 111.944L116 104L108.056 104" stroke="#7BB7EF" stroke-width="2"/>
<path d="M108.056 126L116 126L116 118.056" stroke="#7BB7EF" stroke-width="2"/>
<path d="M94 118.056L94 126L101.944 126" stroke="#7BB7EF" stroke-width="2"/>
<path d="M107.489 113C106.902 111.239 104.798 111.532 103.82 111.899C103.331 112.266 102.279 113.366 101.986 114.834C101.619 116.668 103.82 116.301 106.021 117.402C108.222 118.503 108.222 115.201 107.489 113Z" fill="white"/>
<path d="M52.4131 72.8385C51.6282 70.4906 48.8153 70.8819 47.507 71.3711C46.8528 71.8602 45.4464 73.3277 45.0539 75.2844C44.5633 77.7303 47.507 77.2411 50.4507 78.7085C53.3944 80.176 53.3944 75.7735 52.4131 72.8385Z" fill="white"/>
<path d="M32.5549 127.379C31.7549 125.618 28.8883 125.911 27.5549 126.278C26.8883 126.645 25.4549 127.746 25.0549 129.213C24.5549 131.048 27.5549 130.681 30.5549 131.781C33.5549 132.882 33.5549 129.58 32.5549 127.379Z" fill="#7BB7EF" fill-opacity="0.5"/>
<path d="M63.5549 114.879C62.7549 112.479 59.8883 112.879 58.5549 113.379C57.8883 113.879 56.4549 115.379 56.0549 117.379C55.5549 119.879 58.5549 119.379 61.5549 120.879C64.5549 122.379 64.5549 117.879 63.5549 114.879Z" fill="#7BB7EF" fill-opacity="0.5"/>
<path d="M74.5197 142.004C72.2179 141.094 70.715 143.494 70.2513 144.808C70.2067 145.622 70.4296 147.639 71.6769 149.197C73.2362 151.144 74.7479 148.581 77.7586 147.276C80.7693 145.971 77.3968 143.141 74.5197 142.004Z" fill="#7BB7EF" fill-opacity="0.2"/>
<path d="M13.5549 92.8793C12.7549 90.4793 9.88825 90.8793 8.55492 91.3793C7.88825 91.8793 6.45492 93.3793 6.05492 95.3794C5.55492 97.8795 8.55492 97.3794 11.5549 98.8794C14.5549 100.379 14.5549 95.8793 13.5549 92.8793Z" fill="#7BB7EF" fill-opacity="0.2"/>
<path d="M93.5549 77.8792C92.7549 75.4792 89.8883 75.8792 88.5549 76.3792C87.8883 76.8792 86.4549 78.3792 86.0549 80.3793C85.5549 82.8794 88.5549 82.3793 91.5549 83.8793C94.5549 85.3793 94.5549 80.8792 93.5549 77.8792Z" fill="#7BB7EF" fill-opacity="0.5"/>
<path d="M40.5549 28.8792C39.7549 26.4792 36.8883 26.8792 35.5549 27.3792C34.8883 27.8792 33.4549 29.3792 33.0549 31.3793C32.5549 33.8794 35.5549 33.3793 38.5549 34.8793C41.5549 36.3793 41.5549 31.8792 40.5549 28.8792Z" fill="#7BB7EF" fill-opacity="0.5"/>
<path d="M141.696 118.919C141.304 117.745 139.902 117.941 139.25 118.186C138.924 118.43 138.223 119.164 138.027 120.142C137.782 121.365 139.25 121.121 140.717 121.854C142.185 122.588 142.185 120.387 141.696 118.919Z" fill="#7BB7EF" fill-opacity="0.5"/>
<path d="M153.391 94.8385C152.608 92.4906 149.804 92.8819 148.5 93.3711C147.847 93.8602 146.445 95.3277 146.054 97.2844C145.565 99.7303 148.5 99.2411 151.434 100.709C154.369 102.176 154.369 97.7735 153.391 94.8385Z" fill="#7BB7EF" fill-opacity="0.2"/>
<path d="M124.696 85.9193C124.304 84.7453 122.902 84.941 122.25 85.1855C121.924 85.4301 121.223 86.1639 121.027 87.1422C120.782 88.3652 122.25 88.1205 123.717 88.8543C125.185 89.588 125.185 87.3867 124.696 85.9193Z" fill="#7BB7EF" fill-opacity="0.5"/>
<path d="M8.61943 58.149C8.13027 56.6815 6.37746 56.9261 5.5622 57.2318C5.15457 57.5375 4.27816 58.4547 4.03358 59.6776C3.72786 61.2063 5.5622 60.9005 7.39654 61.8177C9.23087 62.7349 9.23087 59.9833 8.61943 58.149Z" fill="#7BB7EF" fill-opacity="0.2"/>
<path fill-rule="evenodd" clip-rule="evenodd" d="M131.24 52.0426C128.245 53.1914 126.068 56.5033 126.082 59.6076C126.085 60.1396 126.728 60.2323 127.003 59.7767C128.332 57.4651 130.481 57.3227 132.001 58.892C132.583 59.4912 133.737 59.8301 134.595 59.7943C136.808 59.7084 138.025 60.5565 138.334 62.756C138.4 63.1971 138.455 63.6351 138.51 64.0732C138.564 64.5112 138.619 64.9492 138.686 65.3903C138.953 67.1849 138.869 68.9248 138.103 70.5996C138.01 70.8048 137.955 71.026 137.901 71.2441C137.898 71.2586 137.894 71.273 137.891 71.2874C137.869 71.3743 137.896 71.4669 137.97 71.5164C138.058 71.5745 138.175 71.5593 138.252 71.4873C138.294 71.4476 138.337 71.4079 138.38 71.368C138.658 71.1086 138.94 70.8447 139.187 70.5655C141.939 67.385 142.387 63.5868 142.052 59.5786C142.004 59.0284 141.929 58.4776 141.853 57.9264C141.73 57.034 141.607 56.1402 141.605 55.2451C141.602 54.5108 141.821 53.7878 142.038 53.0715C142.116 52.8168 142.193 52.5629 142.26 52.3097C142.332 52.0205 142.436 51.7415 142.54 51.464C142.695 51.0509 142.849 50.6411 142.893 50.2053C143.368 45.6662 142.276 41.3861 139.541 37.8369C134.004 30.652 127.356 26.4265 118.398 24.6644C118.258 24.6308 118.011 24.547 117.728 24.4508C117.225 24.2803 117.084 23.5572 117.509 23.2391C117.837 22.9935 118.152 22.7602 118.462 22.5314C119.178 22.002 119.039 20.9049 118.236 20.5192C117.617 20.2221 117.03 19.9101 116.728 19.6703C115.99 19.0832 115.629 18.6262 115.235 18.1263C114.94 17.7535 114.627 17.3568 114.125 16.8646C113.271 16.0252 112.872 15.9281 112.265 16.8089C110.39 19.5451 107.769 21.4807 105.081 23.3297C104.229 23.9083 103.182 24.2872 102.167 24.468C95.8535 25.5514 90.1111 27.7625 85.4426 32.3389C83.6554 34.1044 82.2627 36.1331 81.3264 38.4516C81.1815 38.777 81.1623 39.4118 81.3704 39.5955C81.5804 39.8094 82.1638 39.7295 82.5348 39.6321C82.8241 39.5561 83.0839 39.4182 83.3472 39.2784C83.5421 39.1749 83.7409 39.3306 83.5951 39.4963C83.5911 39.5007 83.5872 39.5051 83.5833 39.5096C82.5409 40.6576 82.5561 41.1244 84.0203 41.5958C85.7931 42.1696 87.6381 42.6939 89.4878 42.8256C93.6223 43.0482 97.7712 43.0286 101.92 43.0089C103.203 43.0083 104.142 43.2996 105.095 44.254C105.888 45.0569 106.783 45.6731 107.777 46.1315C109.056 46.7214 109.84 45.1924 108.831 44.2093C108.451 43.8386 108.653 43.1932 109.176 43.1048C112.06 42.6177 114.892 42.1336 117.724 41.6495C117.88 41.6229 118.035 41.5963 118.191 41.5697C119.376 41.3672 120.541 41.9293 121.215 42.9247C122.145 44.2994 123.027 45.179 124.669 46.0027C125.086 46.2117 125.489 45.6921 125.894 45.4603C126.401 45.1696 125.64 44.5884 125.174 44.2357C124.607 43.8072 124.114 43.0381 123.633 42.2895C123.217 41.6411 123.605 40.6489 124.373 40.5798C125.001 40.5232 125.626 40.5075 126.241 40.5715C129.399 40.867 132.537 41.3147 135.092 43.4865C137.696 45.7007 137.305 48.0473 135.138 50.2426C134.708 50.6776 134.095 50.9503 133.493 51.2183C133.34 51.286 133.189 51.3533 133.041 51.4229C132.714 51.572 132.368 51.6776 132.019 51.7842C131.76 51.8636 131.498 51.9436 131.24 52.0426ZM90.3244 36.6698C90.8687 36.0534 90.8103 35.1125 90.1939 34.5682C89.5776 34.0238 88.6366 34.0822 88.0923 34.6986C87.548 35.3149 87.6063 36.2559 88.2227 36.8002C88.8391 37.3445 89.78 37.2862 90.3244 36.6698Z" fill="#7BB7EF"/>
</svg>
