<svg width="405" height="451" viewBox="0 0 405 451" fill="none" xmlns="http://www.w3.org/2000/svg">
<g filter="url(#filter0_f)">
<rect x="50.1626" y="50" width="304.384" height="285.246" fill="url(#paint0_linear)" fill-opacity="0.6"/>
</g>
<g opacity="0.2">
<path d="M322.24 364.885L266.893 332.854V448.663H387.52V330.23L328.274 364.872C326.412 365.961 324.108 365.966 322.24 364.885Z" fill="url(#paint1_linear)"/>
<path d="M272.831 328.595L327.477 296.865C329.041 295.957 330.973 295.964 332.53 296.884L381.719 325.933C385 327.87 384.994 332.62 381.708 334.549L327.671 366.282C326.112 367.197 324.181 367.2 322.62 366.289L272.822 337.237C269.511 335.306 269.516 330.52 272.831 328.595Z" fill="#0E111B" stroke="#2377DA" stroke-width="2"/>
</g>
<g opacity="0.2">
<path d="M79.8266 364.885L24.4796 332.854V448.663H145.107V330.23L85.8605 364.872C83.998 365.961 81.6941 365.966 79.8266 364.885Z" fill="url(#paint2_linear)"/>
<path d="M30.4173 328.595L85.0629 296.865C86.6267 295.957 88.559 295.964 90.1161 296.884L139.305 325.933C142.586 327.87 142.58 332.62 139.294 334.549L85.2572 366.282C83.6985 367.197 81.7671 367.2 80.2058 366.289L30.4083 337.237C27.0971 335.306 27.1021 330.52 30.4173 328.595Z" fill="#0E111B" stroke="#2377DA" stroke-width="2"/>
</g>
<path d="M193.545 314.093L104.842 262.812V444.606H294.399V258.694L199.574 314.08C197.713 315.167 195.411 315.172 193.545 314.093Z" fill="url(#paint3_linear)"/>
<path d="M108.803 258.582L201.496 204.818C203.059 203.911 204.989 203.919 206.545 204.837L290.574 254.408C293.858 256.345 293.852 261.098 290.564 263.027L198.907 316.794C197.349 317.708 195.42 317.711 193.859 316.801L108.794 267.227C105.48 265.296 105.485 260.506 108.803 258.582Z" fill="#0E111B" stroke="#2377DA" stroke-width="2"/>
<path d="M187.624 373.403H183.968V375.879H188.259V377.409H182.064V368.167H188.246V369.709H183.968V371.912H187.624V373.403ZM190.376 377.409V368.167H193.22C194.033 368.167 194.758 368.351 195.397 368.719C196.041 369.083 196.542 369.603 196.902 370.28C197.261 370.953 197.441 371.719 197.441 372.578V373.003C197.441 373.862 197.264 374.626 196.908 375.295C196.557 375.964 196.06 376.482 195.416 376.85C194.773 377.218 194.047 377.404 193.239 377.409H190.376ZM192.281 369.709V375.879H193.201C193.946 375.879 194.515 375.636 194.909 375.149C195.302 374.662 195.503 373.966 195.512 373.061V372.572C195.512 371.632 195.317 370.921 194.928 370.439C194.538 369.952 193.969 369.709 193.22 369.709H192.281ZM207.144 376.241C206.801 376.651 206.317 376.971 205.69 377.199C205.064 377.424 204.37 377.536 203.608 377.536C202.808 377.536 202.106 377.362 201.501 377.015C200.9 376.664 200.434 376.156 200.104 375.492C199.778 374.827 199.611 374.047 199.603 373.149V372.521C199.603 371.598 199.757 370.801 200.066 370.128C200.379 369.451 200.828 368.935 201.412 368.579C202 368.219 202.688 368.04 203.475 368.04C204.571 368.04 205.428 368.302 206.046 368.827C206.664 369.347 207.03 370.107 207.144 371.105H205.29C205.206 370.576 205.017 370.189 204.725 369.944C204.438 369.698 204.04 369.576 203.532 369.576C202.885 369.576 202.392 369.819 202.053 370.306C201.715 370.792 201.543 371.516 201.539 372.477V373.067C201.539 374.036 201.723 374.768 202.091 375.263C202.459 375.758 202.999 376.006 203.71 376.006C204.425 376.006 204.935 375.854 205.24 375.549V373.956H203.507V372.553H207.144V376.241ZM215.253 373.403H211.597V375.879H215.888V377.409H209.693V368.167H215.875V369.709H211.597V371.912H215.253V373.403ZM160.129 386.709H157.298V394.409H155.393V386.709H152.6V385.167H160.129V386.709ZM167.781 390.403H164.125V392.879H168.416V394.409H162.221V385.167H168.403V386.709H164.125V388.912H167.781V390.403ZM177.788 391.33C177.716 392.325 177.348 393.107 176.684 393.679C176.024 394.25 175.152 394.536 174.069 394.536C172.884 394.536 171.951 394.138 171.269 393.342C170.592 392.542 170.254 391.446 170.254 390.054V389.489C170.254 388.601 170.41 387.818 170.723 387.141C171.037 386.464 171.483 385.945 172.063 385.585C172.647 385.222 173.324 385.04 174.094 385.04C175.16 385.04 176.02 385.325 176.671 385.896C177.323 386.468 177.7 387.27 177.801 388.302H175.897C175.85 387.706 175.683 387.274 175.395 387.007C175.112 386.736 174.678 386.601 174.094 386.601C173.459 386.601 172.983 386.83 172.666 387.287C172.353 387.739 172.192 388.444 172.183 389.4V390.099C172.183 391.097 172.334 391.827 172.634 392.289C172.939 392.75 173.417 392.98 174.069 392.98C174.657 392.98 175.095 392.847 175.383 392.581C175.675 392.31 175.842 391.893 175.884 391.33H177.788ZM187.561 394.409H185.657V390.448H181.943V394.409H180.039V385.167H181.943V388.912H185.657V385.167H187.561V394.409ZM197.746 394.409H195.842L192.135 388.328V394.409H190.23V385.167H192.135L195.848 391.26V385.167H197.746V394.409ZM208.001 389.997C208.001 390.907 207.84 391.705 207.518 392.39C207.197 393.076 206.736 393.605 206.135 393.977C205.538 394.349 204.852 394.536 204.078 394.536C203.312 394.536 202.629 394.352 202.028 393.983C201.427 393.615 200.961 393.09 200.631 392.409C200.301 391.724 200.134 390.937 200.13 390.048V389.591C200.13 388.681 200.293 387.881 200.618 387.191C200.949 386.497 201.412 385.966 202.009 385.598C202.61 385.226 203.295 385.04 204.065 385.04C204.835 385.04 205.519 385.226 206.116 385.598C206.716 385.966 207.18 386.497 207.506 387.191C207.836 387.881 208.001 388.679 208.001 389.584V389.997ZM206.071 389.578C206.071 388.609 205.898 387.873 205.551 387.369C205.204 386.866 204.709 386.614 204.065 386.614C203.426 386.614 202.933 386.863 202.586 387.363C202.239 387.858 202.064 388.586 202.059 389.546V389.997C202.059 390.941 202.233 391.673 202.58 392.193C202.927 392.714 203.426 392.974 204.078 392.974C204.717 392.974 205.208 392.724 205.551 392.225C205.893 391.722 206.067 390.989 206.071 390.029V389.578ZM212.289 392.879H216.332V394.409H210.385V385.167H212.289V392.879ZM225.616 389.997C225.616 390.907 225.455 391.705 225.134 392.39C224.812 393.076 224.351 393.605 223.75 393.977C223.153 394.349 222.468 394.536 221.693 394.536C220.927 394.536 220.244 394.352 219.643 393.983C219.042 393.615 218.577 393.09 218.246 392.409C217.916 391.724 217.749 390.937 217.745 390.048V389.591C217.745 388.681 217.908 387.881 218.234 387.191C218.564 386.497 219.027 385.966 219.624 385.598C220.225 385.226 220.91 385.04 221.681 385.04C222.451 385.04 223.134 385.226 223.731 385.598C224.332 385.966 224.795 386.497 225.121 387.191C225.451 387.881 225.616 388.679 225.616 389.584V389.997ZM223.686 389.578C223.686 388.609 223.513 387.873 223.166 387.369C222.819 386.866 222.324 386.614 221.681 386.614C221.042 386.614 220.549 386.863 220.202 387.363C219.855 387.858 219.679 388.586 219.675 389.546V389.997C219.675 390.941 219.848 391.673 220.195 392.193C220.542 392.714 221.042 392.974 221.693 392.974C222.332 392.974 222.823 392.724 223.166 392.225C223.509 391.722 223.682 390.989 223.686 390.029V389.578ZM235.312 393.241C234.97 393.651 234.485 393.971 233.859 394.199C233.232 394.424 232.538 394.536 231.777 394.536C230.977 394.536 230.274 394.362 229.669 394.015C229.068 393.664 228.603 393.156 228.273 392.492C227.947 391.827 227.78 391.047 227.771 390.149V389.521C227.771 388.598 227.926 387.801 228.235 387.128C228.548 386.451 228.996 385.935 229.58 385.579C230.169 385.219 230.856 385.04 231.643 385.04C232.739 385.04 233.596 385.302 234.214 385.827C234.832 386.347 235.198 387.107 235.312 388.105H233.459C233.374 387.576 233.186 387.189 232.894 386.944C232.606 386.698 232.208 386.576 231.701 386.576C231.053 386.576 230.56 386.819 230.222 387.306C229.883 387.792 229.712 388.516 229.707 389.477V390.067C229.707 391.036 229.891 391.768 230.26 392.263C230.628 392.758 231.167 393.006 231.878 393.006C232.593 393.006 233.103 392.854 233.408 392.549V390.956H231.675V389.553H235.312V393.241ZM241.048 389.331L242.971 385.167H245.053L242.019 391.057V394.409H240.083V391.057L237.049 385.167H239.137L241.048 389.331Z" fill="white"/>
<g clip-path="url(#clip0)">
<path d="M352.997 162.548C351.757 163.297 349.772 163.546 348.284 163.047L323.478 177.519H281.557L256.999 191.742L255.263 190.744L280.565 176.022H322.486L346.548 162.049C345.803 161.051 346.052 160.053 347.292 159.304C348.78 158.306 351.509 158.306 352.997 159.304C354.734 160.053 354.734 161.55 352.997 162.548Z" fill="#275494"/>
<path d="M271.635 137.845C270.394 138.594 268.41 138.594 266.922 138.344L243.852 151.818L240.628 153.815L216.318 167.788L214.582 166.79L238.891 152.567L241.62 151.07V126.617L264.193 113.641C263.449 112.643 263.697 111.645 264.937 110.897C266.425 109.898 269.154 109.898 270.642 110.897C272.131 111.895 272.131 113.392 270.642 114.14C269.402 114.889 267.418 115.138 265.929 114.639L244.1 127.365V149.822L265.433 137.596C264.689 136.597 264.937 135.599 266.177 134.851C267.666 133.853 270.394 133.853 271.883 134.851C273.123 135.599 273.123 137.097 271.635 137.845Z" fill="#275494"/>
<path d="M304.874 134.352C303.634 135.1 301.649 135.1 300.161 134.851L229.961 175.773L228.225 174.775L298.425 133.853C297.681 132.855 297.929 131.857 299.169 131.108C300.657 130.11 303.386 130.11 304.874 131.108C306.611 131.857 306.363 133.354 304.874 134.352Z" fill="#275494"/>
<path d="M325.463 160.053C323.975 161.051 321.246 161.051 319.758 160.053C319.261 159.803 319.013 159.554 318.765 159.055H285.774L243.604 183.757L241.868 182.759L284.534 158.057L284.782 157.807L312.068 141.837C311.324 140.839 311.572 139.841 312.812 139.093C314.3 138.095 317.029 138.095 318.517 139.093C320.006 140.091 320.006 141.588 318.517 142.337C317.277 143.085 315.293 143.085 313.804 142.836L288.502 157.557H319.013C319.261 157.308 319.51 156.809 320.006 156.559C321.494 155.561 324.223 155.561 325.711 156.559C327.199 157.557 327.199 159.055 325.463 160.053Z" fill="#275494"/>
<path d="M352.997 162.548C351.757 163.297 349.772 163.546 348.284 163.047L323.478 177.519H281.557L256.999 191.742L255.263 190.744L280.565 176.022H322.486L346.548 162.049C345.803 161.051 346.052 160.053 347.292 159.304C348.78 158.306 351.509 158.306 352.997 159.304C354.734 160.053 354.734 161.55 352.997 162.548Z" fill="#275494"/>
<path d="M271.635 137.845C270.394 138.594 268.41 138.594 266.922 138.344L243.852 151.818L240.628 153.815L216.318 167.788L214.582 166.79L238.891 152.567L241.62 151.07V126.617L264.193 113.641C263.449 112.643 263.697 111.645 264.937 110.897C266.425 109.898 269.154 109.898 270.642 110.897C272.131 111.895 272.131 113.392 270.642 114.14C269.402 114.889 267.418 115.138 265.929 114.639L244.1 127.365V149.822L265.433 137.596C264.689 136.597 264.937 135.599 266.177 134.851C267.666 133.853 270.394 133.853 271.883 134.851C273.123 135.599 273.123 137.097 271.635 137.845Z" fill="#275494"/>
<path d="M304.874 134.352C303.634 135.1 301.649 135.1 300.161 134.851L229.961 175.773L228.225 174.775L298.425 133.853C297.681 132.855 297.929 131.857 299.169 131.108C300.657 130.11 303.386 130.11 304.874 131.108C306.611 131.857 306.363 133.354 304.874 134.352Z" fill="#275494"/>
<path d="M325.463 160.053C323.975 161.051 321.246 161.051 319.758 160.053C319.261 159.803 319.013 159.554 318.765 159.055H285.774L243.604 183.757L241.868 182.759L284.534 158.057L284.782 157.807L312.068 141.837C311.324 140.839 311.572 139.841 312.812 139.093C314.3 138.095 317.029 138.095 318.517 139.093C320.006 140.091 320.006 141.588 318.517 142.337C317.277 143.085 315.293 143.085 313.804 142.836L288.502 157.557H319.013C319.261 157.308 319.51 156.809 320.006 156.559C321.494 155.561 324.223 155.561 325.711 156.559C327.199 157.557 327.199 159.055 325.463 160.053Z" fill="#275494"/>
<path d="M44.1742 162.548C45.4145 163.297 47.3989 163.546 48.8873 163.047L73.6929 177.519H115.614L140.172 191.742L141.908 190.744L116.607 176.022H74.6851L50.6236 162.049C51.3678 161.051 51.1198 160.053 49.8795 159.304C48.3912 158.306 45.6625 158.306 44.1742 159.304C42.4378 160.053 42.4378 161.55 44.1742 162.548Z" fill="#275494"/>
<path d="M125.537 137.845C126.777 138.594 128.761 138.594 130.25 138.344L153.319 151.818L156.544 153.815L180.853 167.788L182.59 166.79L158.28 152.567L155.551 151.07V126.617L132.978 113.641C133.723 112.643 133.474 111.645 132.234 110.897C130.746 109.898 128.017 109.898 126.529 110.897C125.041 111.895 125.041 113.392 126.529 114.14C127.769 114.889 129.754 115.138 131.242 114.639L153.071 127.365V149.822L131.738 137.596C132.482 136.597 132.234 135.599 130.994 134.851C129.506 133.853 126.777 133.853 125.289 134.851C124.048 135.599 124.048 137.097 125.537 137.845Z" fill="#275494"/>
<path d="M92.2971 134.352C93.5374 135.1 95.5218 135.1 97.0102 134.851L167.21 175.773L168.946 174.775L98.7466 133.853C99.4907 132.855 99.2427 131.857 98.0024 131.108C96.5141 130.11 93.7855 130.11 92.2971 131.108C90.5607 131.857 90.8088 133.354 92.2971 134.352Z" fill="#275494"/>
<path d="M71.7084 160.053C73.1968 161.051 75.9254 161.051 77.4137 160.053C77.9098 159.803 78.1579 159.554 78.406 159.055H111.397L153.567 183.757L155.303 182.759L112.638 158.057L112.39 157.807L85.1035 141.837C85.8476 140.839 85.5996 139.841 84.3593 139.093C82.871 138.095 80.1424 138.095 78.654 139.093C77.1657 140.091 77.1657 141.588 78.654 142.337C79.8943 143.085 81.8787 143.085 83.3671 142.836L108.669 157.557H78.1579C77.9098 157.308 77.6618 156.809 77.1657 156.559C75.6773 155.561 72.9487 155.561 71.4604 156.559C69.972 157.557 69.972 159.055 71.7084 160.053Z" fill="#275494"/>
<path d="M111.458 209.19L185.452 251.783C192.779 256.06 205.648 255.526 214.227 250.536L284.11 210.438C292.689 205.626 293.583 198.141 286.255 193.864L212.261 151.271C204.933 146.994 192.065 147.529 183.486 152.519L113.602 192.795C105.023 197.607 103.951 204.913 111.458 209.19Z" fill="url(#paint4_linear)"/>
<path d="M111.458 209.19L185.452 251.783C192.779 256.06 205.648 255.526 214.227 250.536L284.11 210.438C292.689 205.626 293.583 198.141 286.255 193.864L212.261 151.271C204.933 146.994 192.065 147.529 183.486 152.519L113.602 192.795C105.023 197.607 103.951 204.913 111.458 209.19Z" fill="url(#paint5_linear)"/>
<path d="M270.894 207.326L209.961 242.424C203.927 245.948 193.329 245.508 186.265 241.396L128.717 208.354C125.526 206.563 123.626 204.322 123.058 202.079V197.807H274.992V202.079C274.76 204.037 273.414 205.889 270.894 207.326Z" fill="#0A1B35"/>
<path d="M270.894 203.054L209.961 238.152C203.927 241.677 193.329 241.236 186.265 237.124L128.717 204.082C121.652 200.117 120.916 193.949 126.95 190.425L187.884 155.327C193.918 151.802 204.515 152.243 211.58 156.355L269.128 189.544C276.193 193.509 277.076 199.53 270.894 203.054Z" fill="url(#paint6_linear)"/>
<g opacity="0.85">
<g clip-path="url(#clip1)">
<path d="M-371.286 1043.7C-70.1323 1043.7 174.001 803.697 174.001 507.642C174.001 211.587 -70.1323 -28.4136 -371.286 -28.4136C-672.44 -28.4136 -916.574 211.587 -916.574 507.642C-916.574 803.697 -672.44 1043.7 -371.286 1043.7Z" fill="url(#paint7_radial)"/>
<path d="M158.754 211.552C158.562 211.588 158.357 211.611 158.145 211.618C157.952 211.624 157.756 211.615 157.563 211.591C157.38 211.568 157.202 211.536 157.031 211.495C156.87 211.455 156.716 211.408 156.573 211.353C156.442 211.303 156.321 211.247 156.211 211.186L152.594 209.137L153.608 208.726L157.226 210.775C157.406 210.877 157.603 210.933 157.817 210.943C158.032 210.953 158.235 210.92 158.427 210.842C158.516 210.807 158.59 210.764 158.645 210.715C158.696 210.67 158.726 210.621 158.735 210.568C158.742 210.516 158.726 210.463 158.687 210.413C158.644 210.357 158.579 210.305 158.498 210.26L156.341 209.038C156.177 208.943 156.041 208.837 155.938 208.725C155.82 208.6 155.75 208.467 155.732 208.334C155.715 208.188 155.761 208.045 155.868 207.914C155.979 207.773 156.187 207.64 156.491 207.517C156.796 207.394 157.102 207.318 157.412 207.29C157.969 207.234 158.569 207.294 159.071 207.457C159.285 207.524 159.48 207.606 159.649 207.699L162.841 209.506L161.827 209.917L158.635 208.11C158.457 208.009 158.26 207.954 158.043 207.945C157.826 207.936 157.621 207.97 157.429 208.048C157.234 208.127 157.13 208.218 157.116 208.32C157.103 208.422 157.185 208.524 157.363 208.625L159.527 209.85C159.631 209.913 159.724 209.98 159.803 210.05C159.891 210.128 159.961 210.209 160.013 210.292C160.069 210.38 160.103 210.471 160.116 210.561C160.129 210.656 160.114 210.75 160.071 210.84C160.023 210.939 159.943 211.032 159.835 211.116C159.708 211.214 159.55 211.3 159.365 211.373C159.184 211.448 158.979 211.508 158.754 211.552Z" fill="#F2F2F2"/>
<path d="M163.184 215.142L159.802 213.226C159.66 213.143 159.542 213.052 159.451 212.955C159.228 212.726 159.203 212.471 159.38 212.25C159.473 212.127 159.651 212.012 159.913 211.906L163.573 210.425C163.641 210.397 163.72 210.376 163.808 210.364C163.892 210.353 163.981 210.349 164.071 210.354C164.16 210.359 164.248 210.373 164.33 210.395C164.415 210.418 164.492 210.449 164.556 210.485L168.779 212.877L167.764 213.287L164.007 211.159L160.851 212.437C160.718 212.491 160.649 212.55 160.644 212.615C160.639 212.681 160.699 212.749 160.824 212.819L164.199 214.731L163.184 215.142ZM165.049 213.977L162.088 212.3L163.11 211.887L166.071 213.563L165.049 213.977Z" fill="#F2F2F2"/>
<path d="M169.175 218.542L168.237 218.011L169.611 217.454L166.314 215.588L164.941 216.144L164.003 215.613L166.801 214.48C167.183 214.321 167.632 214.204 168.123 214.134C168.578 214.069 169.063 214.051 169.55 214.081C170.034 214.113 170.509 214.191 170.946 214.311C171.415 214.44 171.835 214.61 172.184 214.812L174.298 216.009C174.361 216.044 174.41 216.085 174.442 216.129C174.506 216.214 174.499 216.305 174.422 216.382C174.383 216.421 174.328 216.456 174.259 216.483L169.175 218.542ZM167.329 215.177L170.625 217.044L172.818 216.156L171.17 215.222C171.141 215.206 171.076 215.174 170.974 215.125C170.853 215.068 170.722 215.017 170.585 214.971C170.41 214.912 170.225 214.862 170.033 214.821C169.813 214.774 169.582 214.746 169.349 214.737C169.083 214.728 168.819 214.742 168.572 214.78C168.3 214.819 168.022 214.896 167.738 215.011L167.329 215.177Z" fill="#F2F2F2"/>
<path d="M175.023 221.857L170.749 219.437C170.684 219.401 170.634 219.359 170.601 219.315C170.537 219.231 170.545 219.141 170.621 219.065C170.661 219.026 170.718 218.991 170.788 218.963L175.868 216.907L176.805 217.437L172.228 219.29L176.037 221.447L175.023 221.857Z" fill="#F2F2F2"/>
<path d="M180.801 225.14L179.863 224.609L181.236 224.053L177.94 222.186L176.566 222.742L175.629 222.211L178.426 221.078C178.808 220.92 179.258 220.802 179.749 220.732C180.203 220.667 180.689 220.65 181.175 220.68C181.66 220.712 182.134 220.79 182.572 220.91C183.04 221.039 183.461 221.209 183.81 221.41L185.923 222.607C185.987 222.643 186.036 222.684 186.068 222.727C186.132 222.813 186.124 222.904 186.048 222.981C186.009 223.02 185.953 223.054 185.885 223.082L180.801 225.14ZM178.954 221.775L182.251 223.642L184.444 222.755L182.795 221.821C182.767 221.805 182.701 221.772 182.6 221.723C182.478 221.667 182.348 221.615 182.21 221.569C182.036 221.511 181.851 221.461 181.658 221.42C181.439 221.373 181.208 221.344 180.975 221.336C180.708 221.326 180.445 221.341 180.198 221.379C179.925 221.418 179.648 221.495 179.364 221.61L178.954 221.775Z" fill="#F2F2F2"/>
<path d="M188.292 228.196C188.154 228.25 187.998 228.294 187.83 228.325C187.439 228.401 186.987 228.392 186.58 228.301C186.354 228.252 186.136 228.169 185.927 228.05L182.368 226.035C182.303 225.998 182.253 225.957 182.219 225.913C182.156 225.828 182.163 225.738 182.24 225.663C182.28 225.623 182.336 225.588 182.407 225.56L186.979 223.709C187.047 223.681 187.126 223.661 187.214 223.649C187.298 223.637 187.387 223.634 187.477 223.639C187.566 223.644 187.654 223.658 187.736 223.679C187.821 223.702 187.898 223.733 187.962 223.77L191.099 225.546C191.223 225.619 191.326 225.698 191.404 225.784C191.493 225.878 191.546 225.978 191.561 226.079C191.576 226.188 191.544 226.296 191.466 226.394C191.385 226.5 191.232 226.599 191.006 226.691L190.815 226.768C190.616 226.846 190.393 226.909 190.153 226.956C189.885 227.009 189.596 227.038 189.299 227.042C189.334 227.132 189.349 227.223 189.343 227.313C189.335 227.409 189.302 227.502 189.243 227.59C189.177 227.688 189.085 227.779 188.968 227.863C188.833 227.958 188.671 228.044 188.487 228.117L188.292 228.196ZM187.549 227.586C187.673 227.538 187.774 227.477 187.848 227.409C187.914 227.347 187.951 227.278 187.957 227.207C187.962 227.135 187.935 227.063 187.878 226.994C187.814 226.917 187.722 226.845 187.607 226.781L185.494 225.585L186.516 225.171L188.207 226.129C188.319 226.194 188.452 226.249 188.6 226.292C188.866 226.37 189.18 226.39 189.457 226.346C189.61 226.322 189.75 226.283 189.87 226.233L190.061 226.156C190.207 226.097 190.215 226.03 190.085 225.957L187.413 224.444L183.847 225.887L186.941 227.639C186.958 227.649 186.98 227.66 187.006 227.673C187.061 227.7 187.141 227.711 187.212 227.702C187.268 227.694 187.32 227.681 187.362 227.662L187.549 227.586Z" fill="#F2F2F2"/>
<path d="M153.379 207.763L157.108 206.253L156.109 205.687L147.412 206.195L149.79 207.542C150.742 208.081 152.349 208.18 153.379 207.763Z" fill="#E52421"/>
<path d="M146.476 205.663L155.174 205.155L154.036 204.51L145.339 205.018L146.476 205.663Z" fill="#F2F2F2"/>
<path d="M144.645 204.623L153.342 204.115L151.722 203.197L143.024 203.705L144.645 204.623Z" fill="#F2F2F2"/>
<path d="M136.735 200.14L142.635 203.481L151.34 202.971L148.37 201.29C146.552 200.26 143.835 199.724 141.213 199.878L136.735 200.14Z" fill="#F2F2F2"/>
</g>
</g>
<g clip-path="url(#clip2)">
<path d="M239.558 192.594L241.407 191.485C241.869 191.208 242.609 191.208 243.071 191.485C243.533 191.763 243.533 192.225 243.071 192.502L241.222 193.611L242.701 194.442L241.037 195.366L236.322 192.594L237.986 191.67L239.558 192.594Z" fill="#4CFFD5"/>
<path d="M233.733 189.268L235.582 188.159C236.044 187.882 236.784 187.882 237.246 188.159C237.708 188.436 237.708 188.898 237.246 189.175L235.397 190.284L236.876 191.116L235.212 192.04L230.497 189.268L232.161 188.344L233.733 189.268Z" fill="#4CFFD5"/>
<path d="M227.908 185.849L229.757 184.74C230.219 184.463 230.959 184.463 231.421 184.74C231.884 185.017 231.884 185.479 231.421 185.757L229.572 186.865L231.051 187.697L229.387 188.621L224.672 185.849L226.336 184.925L227.908 185.849Z" fill="#4CFFD5"/>
<path d="M222.175 182.522L224.024 181.414C224.487 181.136 225.226 181.136 225.689 181.414C226.151 181.691 226.151 182.153 225.689 182.43L223.839 183.539L225.319 184.37L223.655 185.294L218.939 182.522L220.603 181.598L222.175 182.522Z" fill="#4CFFD5"/>
<path d="M216.35 179.196L218.199 178.087C218.662 177.81 219.401 177.81 219.864 178.087C220.326 178.365 220.326 178.827 219.864 179.104L218.015 180.213L219.494 181.044L217.83 181.968L213.114 179.196L214.778 178.272L216.35 179.196Z" fill="#4CFFD5"/>
<path d="M210.618 175.87L212.467 174.761C212.929 174.484 213.669 174.484 214.131 174.761C214.593 175.038 214.593 175.5 214.131 175.777L212.282 176.886L213.761 177.718L212.097 178.642L207.382 175.87L209.046 174.946L210.618 175.87Z" fill="#4CFFD5"/>
<path d="M204.793 172.543L206.642 171.434C207.104 171.157 207.844 171.157 208.306 171.434C208.769 171.711 208.769 172.173 208.306 172.451L206.457 173.559L207.936 174.391L206.272 175.315L201.557 172.543L203.221 171.619L204.793 172.543Z" fill="#4CFFD5"/>
<path d="M198.968 169.217L200.817 168.108C201.279 167.831 202.019 167.831 202.481 168.108C202.943 168.385 202.943 168.847 202.481 169.124L200.632 170.233L202.111 171.065L200.447 171.989L195.732 169.217L197.396 168.293L198.968 169.217Z" fill="#4CFFD5"/>
</g>
<path d="M244.481 207.449L224.703 218.046C219.902 220.826 211.472 220.479 205.851 217.235L160.068 191.168C154.447 188.04 153.862 183.175 158.662 180.394L178.44 169.797C183.241 167.017 191.672 167.364 197.292 170.608L243.076 196.791C248.696 199.919 249.399 204.669 244.481 207.449Z" fill="url(#paint8_linear)"/>
<path d="M244.481 204.56L224.703 215.157C219.902 217.938 211.472 217.59 205.851 214.346L160.068 188.28C154.447 185.152 153.862 180.286 158.662 177.505L178.44 166.909C183.241 164.128 191.672 164.476 197.292 167.72L243.076 193.902C248.696 197.03 249.399 201.78 244.481 204.56Z" fill="url(#paint9_linear)"/>
<g clip-path="url(#clip3)">
<path d="M162.191 193.805L160.342 194.914C159.879 195.191 159.14 195.191 158.677 194.914C158.215 194.636 158.215 194.174 158.677 193.897L160.527 192.788L159.047 191.957L160.712 191.033L165.427 193.805L163.763 194.729L162.191 193.805Z" fill="#4CFFD5"/>
<path d="M168.016 197.131L166.167 198.24C165.704 198.517 164.965 198.517 164.502 198.24C164.04 197.963 164.04 197.501 164.502 197.224L166.352 196.115L164.872 195.283L166.536 194.359L171.252 197.131L169.588 198.055L168.016 197.131Z" fill="#4CFFD5"/>
<path d="M173.841 200.55L171.992 201.659C171.529 201.936 170.79 201.936 170.327 201.659C169.865 201.381 169.865 200.919 170.327 200.642L172.177 199.533L170.697 198.702L172.361 197.778L177.077 200.55L175.413 201.474L173.841 200.55Z" fill="#4CFFD5"/>
<path d="M179.573 203.877L177.724 204.985C177.262 205.263 176.522 205.263 176.06 204.985C175.598 204.708 175.598 204.246 176.06 203.969L177.909 202.86L176.43 202.029L178.094 201.104L182.809 203.877L181.145 204.801L179.573 203.877Z" fill="#4CFFD5"/>
<path d="M185.398 207.203L183.549 208.312C183.087 208.589 182.347 208.589 181.885 208.312C181.423 208.034 181.423 207.572 181.885 207.295L183.734 206.186L182.255 205.355L183.919 204.431L188.634 207.203L186.97 208.127L185.398 207.203Z" fill="#4CFFD5"/>
<path d="M191.131 210.529L189.282 211.638C188.819 211.915 188.08 211.915 187.617 211.638C187.155 211.361 187.155 210.899 187.617 210.622L189.467 209.513L187.987 208.681L189.651 207.757L194.367 210.529L192.703 211.453L191.131 210.529Z" fill="#4CFFD5"/>
<path d="M196.956 213.856L195.107 214.965C194.644 215.242 193.905 215.242 193.442 214.965C192.98 214.688 192.98 214.226 193.442 213.948L195.292 212.84L193.812 212.008L195.476 211.084L200.192 213.856L198.528 214.78L196.956 213.856Z" fill="#4CFFD5"/>
<path d="M202.781 217.182L200.932 218.291C200.469 218.568 199.73 218.568 199.267 218.291C198.805 218.014 198.805 217.552 199.267 217.275L201.117 216.166L199.637 215.334L201.301 214.41L206.017 217.182L204.353 218.106L202.781 217.182Z" fill="#4CFFD5"/>
</g>
<path d="M111.458 209.19L185.452 251.783C192.78 256.06 205.649 255.526 214.228 250.536L284.111 210.438C288.936 207.765 291.26 204.2 291.081 200.814V208.834C291.26 212.22 288.936 215.784 284.111 218.458L214.228 258.734C205.649 263.545 192.959 264.08 185.452 259.981L111.458 217.388C108.241 215.606 106.633 213.111 106.454 210.438V202.418C106.633 204.913 108.241 207.408 111.458 209.19Z" fill="url(#paint10_linear)"/>
<path d="M193.982 177.652L185.044 172.256L171.294 180.468L174.044 182.345L179.773 178.826L185.273 182.11L187.565 180.703L182.065 177.652L185.502 175.541L191.69 179.06L193.982 177.652Z" fill="white"/>
<path d="M191.919 184.222L196.274 181.641L198.795 183.284C199.482 183.753 199.711 184.222 199.711 184.691C199.711 185.161 199.253 185.63 198.566 186.099C197.878 186.568 197.19 186.568 196.503 186.568C195.815 186.568 194.899 186.334 194.211 185.864L191.919 184.222ZM201.086 181.876L195.586 178.591L181.836 186.803L184.815 188.68L189.628 185.864L192.149 187.272C193.753 188.211 195.586 188.68 197.19 188.68C198.795 188.68 200.399 188.445 201.774 187.507C202.691 187.038 203.149 186.334 203.607 185.63C203.837 184.926 203.837 184.222 203.378 183.518C202.92 183.049 202.232 182.58 201.086 181.876Z" fill="white"/>
<path d="M213.92 189.149C212.774 188.445 211.399 187.976 210.024 187.742C208.649 187.507 207.274 187.507 205.67 187.976C204.295 188.211 202.691 188.915 201.316 189.619L200.399 190.088C199.024 190.792 198.107 191.73 197.649 192.669C197.19 193.607 197.19 194.311 197.42 195.25C197.878 196.188 198.565 196.892 199.711 197.596C200.857 198.3 202.003 198.769 203.378 199.239C204.753 199.708 205.899 199.708 207.045 199.708L212.545 196.423L207.274 193.373L205.212 194.546L207.732 196.188L205.441 197.596C204.524 197.596 203.607 197.362 202.461 196.658C201.316 195.954 200.857 195.25 201.086 194.546C201.316 193.842 202.003 192.903 203.607 192.2L204.524 191.73C205.899 190.792 207.274 190.323 208.649 190.323C209.795 190.088 210.941 190.323 211.858 191.026C212.545 191.496 213.004 191.965 213.004 192.434C213.004 192.903 212.774 193.373 212.087 194.077L214.837 195.719C216.212 194.781 216.67 193.842 216.67 192.669C216.441 191.261 215.524 190.323 213.92 189.149Z" fill="white"/>
<path d="M216.441 201.35L223.316 199.239L219.879 203.228L216.441 201.35ZM228.129 197.831L225.379 196.188L206.357 201.35L209.337 203.228L213.233 202.054L218.275 205.105L216.441 207.451L219.42 209.328L228.129 197.831Z" fill="white"/>
</g>
<defs>
<filter id="filter0_f" x="0.162598" y="0" width="404.384" height="385.246" filterUnits="userSpaceOnUse" color-interpolation-filters="sRGB">
<feFlood flood-opacity="0" result="BackgroundImageFix"/>
<feBlend mode="normal" in="SourceGraphic" in2="BackgroundImageFix" result="shape"/>
<feGaussianBlur stdDeviation="25" result="effect1_foregroundBlur"/>
</filter>
<linearGradient id="paint0_linear" x1="202.355" y1="50" x2="202.355" y2="335.246" gradientUnits="userSpaceOnUse">
<stop stop-color="#0E111B"/>
<stop offset="0.414418" stop-color="#0362D2"/>
<stop offset="1" stop-color="#0E111B"/>
</linearGradient>
<linearGradient id="paint1_linear" x1="327.207" y1="328.408" x2="327.207" y2="448.663" gradientUnits="userSpaceOnUse">
<stop stop-color="#247CE3"/>
<stop offset="1" stop-color="#191C27"/>
</linearGradient>
<linearGradient id="paint2_linear" x1="84.7931" y1="328.408" x2="84.7931" y2="448.663" gradientUnits="userSpaceOnUse">
<stop stop-color="#247CE3"/>
<stop offset="1" stop-color="#191C27"/>
</linearGradient>
<linearGradient id="paint3_linear" x1="199.621" y1="255.834" x2="199.621" y2="444.606" gradientUnits="userSpaceOnUse">
<stop stop-color="#247CE3"/>
<stop offset="1" stop-color="#0E111B"/>
</linearGradient>
<linearGradient id="paint4_linear" x1="279.002" y1="201.417" x2="140.374" y2="201.417" gradientUnits="userSpaceOnUse">
<stop stop-color="#46BAD4"/>
<stop offset="1" stop-color="#275393"/>
</linearGradient>
<linearGradient id="paint5_linear" x1="291.202" y1="201.417" x2="106.438" y2="201.417" gradientUnits="userSpaceOnUse">
<stop stop-color="#52D6D2"/>
<stop offset="1" stop-color="#3B84EF"/>
</linearGradient>
<linearGradient id="paint6_linear" x1="197.881" y1="240.528" x2="197.881" y2="152.951" gradientUnits="userSpaceOnUse">
<stop stop-color="#0B2854"/>
<stop offset="1" stop-color="#226AD8"/>
</linearGradient>
<radialGradient id="paint7_radial" cx="0" cy="0" r="1" gradientUnits="userSpaceOnUse" gradientTransform="translate(-371.286 507.642) scale(545.287 536.056)">
<stop stop-color="#15192E" stop-opacity="0"/>
<stop offset="0.726895" stop-color="#15192E" stop-opacity="0"/>
<stop offset="1" stop-color="#2672AB"/>
</radialGradient>
<linearGradient id="paint8_linear" x1="197.873" y1="230.175" x2="197.873" y2="161.086" gradientUnits="userSpaceOnUse">
<stop/>
<stop offset="1" stop-color="#226AD8"/>
</linearGradient>
<linearGradient id="paint9_linear" x1="187.888" y1="169.367" x2="209.567" y2="217.015" gradientUnits="userSpaceOnUse">
<stop stop-color="#5B9DFF"/>
<stop offset="1" stop-color="#013E9B"/>
</linearGradient>
<linearGradient id="paint10_linear" x1="278.9" y1="231.709" x2="140.367" y2="231.709" gradientUnits="userSpaceOnUse">
<stop stop-color="#0D7B94"/>
<stop offset="1" stop-color="#164284"/>
</linearGradient>
<clipPath id="clip0">
<rect x="42.8719" y="110.148" width="311.675" height="153.103" fill="white"/>
</clipPath>
<clipPath id="clip1">
<rect x="136.74" y="199.708" width="54.8317" height="28.8874" fill="white"/>
</clipPath>
<clipPath id="clip2">
<rect width="47.617" height="27.4431" transform="matrix(1 0 0 -1 197.267 195.366)" fill="white"/>
</clipPath>
<clipPath id="clip3">
<rect width="47.617" height="27.4431" transform="matrix(-1 0 0 1 205.925 191.033)" fill="white"/>
</clipPath>
</defs>
</svg>
