<svg width="86" height="86" viewBox="0 0 86 86" fill="none" xmlns="http://www.w3.org/2000/svg">
<path opacity="0.3" d="M80 43C80 56.2782 73.0055 67.9228 62.5 74.4503C56.8381 77.9683 50.1563 80 43 80C22.5655 80 6 63.4345 6 43C6 22.5655 22.5655 6 43 6C63.4345 6 80 22.5655 80 43Z" stroke="#7BB7EF" stroke-width="3"/>
<path d="M43 6C63.4345 6 80 22.5655 80 43C80 56.2782 73.0055 67.9228 62.5 74.4503" stroke="#7BB7EF" stroke-width="5" stroke-linecap="round"/>
<path d="M35.1836 54.3496C35.1836 54.8848 35.0215 55.3398 34.6973 55.7148C34.373 56.0898 33.918 56.3477 33.332 56.4883V56.5234C34.0234 56.6094 34.5469 56.8203 34.9023 57.1562C35.2578 57.4883 35.4355 57.9375 35.4355 58.5039C35.4355 59.3281 35.1367 59.9707 34.5391 60.4316C33.9414 60.8887 33.0879 61.1172 31.9785 61.1172C31.0488 61.1172 30.2246 60.9629 29.5059 60.6543V59.1133C29.8379 59.2812 30.2031 59.418 30.6016 59.5234C31 59.6289 31.3945 59.6816 31.7852 59.6816C32.3828 59.6816 32.8242 59.5801 33.1094 59.377C33.3945 59.1738 33.5371 58.8477 33.5371 58.3984C33.5371 57.9961 33.373 57.7109 33.0449 57.543C32.7168 57.375 32.1934 57.291 31.4746 57.291H30.8242V55.9023H31.4863C32.1504 55.9023 32.6348 55.8164 32.9395 55.6445C33.248 55.4688 33.4023 55.1699 33.4023 54.748C33.4023 54.0996 32.9961 53.7754 32.1836 53.7754C31.9023 53.7754 31.6152 53.8223 31.3223 53.916C31.0332 54.0098 30.7109 54.1719 30.3555 54.4023L29.5176 53.1543C30.2988 52.5918 31.2305 52.3105 32.3125 52.3105C33.1992 52.3105 33.8984 52.4902 34.4102 52.8496C34.9258 53.209 35.1836 53.709 35.1836 54.3496ZM43.6035 54.3262C44.377 54.3262 44.9824 54.6289 45.4199 55.2344C45.8574 55.8359 46.0762 56.6621 46.0762 57.7129C46.0762 58.7949 45.8496 59.6328 45.3965 60.2266C44.9473 60.8203 44.334 61.1172 43.5566 61.1172C42.7871 61.1172 42.1836 60.8379 41.7461 60.2793H41.623L41.3242 61H39.959V51.8828H41.7461V54.0039C41.7461 54.2734 41.7227 54.7051 41.6758 55.2988H41.7461C42.1641 54.6504 42.7832 54.3262 43.6035 54.3262ZM43.0293 55.7559C42.5879 55.7559 42.2656 55.8926 42.0625 56.166C41.8594 56.4355 41.7539 56.8828 41.7461 57.5078V57.7012C41.7461 58.4043 41.8496 58.9082 42.0566 59.2129C42.2676 59.5176 42.5996 59.6699 43.0527 59.6699C43.4199 59.6699 43.7109 59.502 43.9258 59.166C44.1445 58.8262 44.2539 58.334 44.2539 57.6895C44.2539 57.0449 44.1445 56.5625 43.9258 56.2422C43.707 55.918 43.4082 55.7559 43.0293 55.7559ZM47.4766 52.7559C47.4766 52.1738 47.8008 51.8828 48.4492 51.8828C49.0977 51.8828 49.4219 52.1738 49.4219 52.7559C49.4219 53.0332 49.3398 53.25 49.1758 53.4062C49.0156 53.5586 48.7734 53.6348 48.4492 53.6348C47.8008 53.6348 47.4766 53.3418 47.4766 52.7559ZM49.3398 61H47.5527V54.4492H49.3398V61ZM53.0078 61H51.2207V51.8828H53.0078V61Z" fill="#7BB7EF"/>
<path d="M42 28C43.1046 28 44 27.1046 44 26C44 24.8954 43.1046 24 42 24C40.8954 24 40 24.8954 40 26C40 27.1046 40.8954 28 42 28Z" fill="#7BB7EF"/>
<path d="M45.89 30.11C45.5 29.72 44.83 29 43.53 29C43.32 29 42.11 29 40.99 29C38.24 28.99 36 26.75 36 24H34C34 27.16 36.11 29.84 39 30.71V44H41V38H43V44H45V32.05L48.95 36L50.36 34.59L45.89 30.11Z" fill="#7BB7EF"/>
</svg>
