<svg width="159" height="205" viewBox="0 0 159 205" fill="none" xmlns="http://www.w3.org/2000/svg">
<g opacity="0.5">
<path d="M39.598 129.449L2.9301 107.598L39.598 85.7458L76.2659 107.598L39.598 129.449Z" stroke="#7BB7EF" stroke-width="3"/>
<path d="M39.598 105.449L2.9301 83.5977L39.598 61.7458L76.2659 83.5977L39.598 105.449Z" fill="#0E111B" stroke="#7BB7EF" stroke-width="3"/>
<path d="M39.598 84.4495L2.9301 62.5977L39.598 40.7458L76.2659 62.5977L39.598 84.4495Z" fill="#0E111B" stroke="#7BB7EF" stroke-width="3"/>
<path d="M118.598 186.449L81.9301 164.598L118.598 142.746L155.266 164.598L118.598 186.449Z" fill="#0E111B" stroke="#E61B20" stroke-width="3"/>
<path d="M118.598 162.449L81.9301 140.598L118.598 118.746L155.266 140.598L118.598 162.449Z" fill="#0E111B" stroke="#7BB7EF" stroke-width="3"/>
<path d="M118.598 141.449L81.9301 119.598L118.598 97.7458L155.266 119.598L118.598 141.449Z" fill="#0E111B" stroke="#7BB7EF" stroke-width="3"/>
<path d="M39.598 61.4495L2.9301 39.5977L39.598 17.7458L76.2659 39.5977L39.598 61.4495Z" fill="#0E111B" stroke="#E61B20" stroke-width="3"/>
<path d="M118.598 118.449L81.9301 96.5977L118.598 74.7458L155.266 96.5977L118.598 118.449Z" fill="#0E111B" stroke="#7BB7EF" stroke-width="3"/>
</g>
</svg>
