<svg width="60" height="60" viewBox="0 0 60 60" fill="none" xmlns="http://www.w3.org/2000/svg">
<g clip-path="url(#clip0)">
<path d="M32.9298 3.88385C32.9298 5.48642 31.6309 6.78577 30.0279 6.78577C28.4253 6.78577 27.126 5.48642 27.126 3.88385C27.126 2.28081 28.4253 0.981934 30.0279 0.981934C31.6309 0.981934 32.9298 2.28081 32.9298 3.88385Z" fill="white"/>
<path d="M8.74715 6.78569C8.74715 7.85407 7.88092 8.7203 6.81254 8.7203C5.74416 8.7203 4.87793 7.85407 4.87793 6.78569C4.87793 5.7173 5.74416 4.85107 6.81254 4.85107C7.88092 4.85107 8.74715 5.7173 8.74715 6.78569Z" fill="white"/>
<path d="M55.1778 6.78569C55.1778 7.85407 54.3116 8.7203 53.2432 8.7203C52.1748 8.7203 51.3086 7.85407 51.3086 6.78569C51.3086 5.7173 52.1748 4.85107 53.2432 4.85107C54.3116 4.85107 55.1778 5.7173 55.1778 6.78569Z" fill="white"/>
<path d="M8.74715 53.2164C8.74715 54.2847 7.88092 55.151 6.81254 55.151C5.74416 55.151 4.87793 54.2847 4.87793 53.2164C4.87793 52.148 5.74416 51.2817 6.81254 51.2817C7.88092 51.2817 8.74715 52.148 8.74715 53.2164Z" fill="white"/>
<path d="M55.1778 53.2164C55.1778 54.2847 54.3116 55.151 53.2432 55.151C52.1748 55.151 51.3086 54.2847 51.3086 53.2164C51.3086 52.148 52.1748 51.2817 53.2432 51.2817C54.3116 51.2817 55.1778 52.148 55.1778 53.2164Z" fill="white"/>
<path d="M32.9298 56.1182C32.9298 57.7208 31.6309 59.0201 30.0279 59.0201C28.4253 59.0201 27.126 57.7208 27.126 56.1182C27.126 54.5152 28.4253 53.2163 30.0279 53.2163C31.6309 53.2163 32.9298 54.5152 32.9298 56.1182Z" fill="white"/>
<path d="M59.047 30.001C59.047 31.6036 57.7481 32.903 56.1451 32.903C54.5425 32.903 53.2432 31.6036 53.2432 30.001C53.2432 28.398 54.5425 27.0991 56.1451 27.0991C57.7481 27.0991 59.047 28.398 59.047 30.001Z" fill="white"/>
<path d="M6.81262 30.001C6.81262 31.6036 5.51375 32.903 3.91071 32.903C2.30813 32.903 1.00879 31.6036 1.00879 30.001C1.00879 28.398 2.30813 27.0991 3.91071 27.0991C5.51375 27.0991 6.81262 28.398 6.81262 30.001Z" fill="white"/>
<path d="M8.74707 8.72021L16.9692 16.9423L8.74707 8.72021Z" fill="#57A4FF"/>
<path d="M51.309 8.72021L43.0869 16.9423L51.309 8.72021Z" fill="#57A4FF"/>
<path d="M51.3093 51.2819L42.6035 42.5762L51.3093 51.2819Z" fill="#57A4FF"/>
<path d="M17.4528 42.5762L8.74707 51.2819L17.4528 42.5762Z" fill="#57A4FF"/>
<path d="M56.1443 26.1319C54.3854 26.1385 52.8522 27.3306 52.4125 29.0338H48.3567C48.1394 24.8283 46.4764 20.8273 43.6486 17.7067C43.6912 17.6831 43.7318 17.6562 43.7696 17.6264L51.9917 9.40431L51.9978 9.39533C52.3851 9.58568 52.8106 9.68534 53.2423 9.6877C54.8454 9.6877 56.1443 8.38835 56.1443 6.78578C56.1443 5.18274 54.8454 3.88386 53.2423 3.88386C51.6398 3.88386 50.3404 5.18274 50.3404 6.78578C50.3423 7.21701 50.4415 7.64256 50.6309 8.03034L50.6219 8.03648L42.3998 16.2586C42.3701 16.2964 42.3432 16.337 42.3195 16.3795C39.1971 13.5503 35.1927 11.8868 30.9849 11.6705C30.9849 11.654 30.9943 11.6398 30.9943 11.6223V7.61564C32.8812 7.12868 34.1111 5.31451 33.8655 3.38179C33.6199 1.4486 31.9758 0 30.027 0C28.0787 0 26.4341 1.4486 26.189 3.38179C25.9434 5.31451 27.1733 7.12868 29.0597 7.61564V11.6223C29.0597 11.6398 29.0687 11.654 29.0696 11.6705C24.8608 11.8868 20.856 13.5498 17.7326 16.3795C17.7095 16.337 17.6825 16.2964 17.6523 16.2586L9.4302 8.03648L9.42359 8.03034C9.61299 7.64256 9.71218 7.21701 9.71359 6.78578C9.71359 5.18274 8.41472 3.88386 6.81168 3.88386C5.2091 3.88386 3.90976 5.18274 3.90976 6.78578C3.90976 8.38835 5.2091 9.6877 6.81168 9.6877C7.24337 9.68581 7.66893 9.58662 8.0567 9.39722L8.06237 9.4062L16.2845 17.6283C16.3227 17.6581 16.3633 17.685 16.4054 17.7086C13.5786 20.8287 11.9155 24.8288 11.6978 29.0338H7.64201C7.15458 27.1469 5.34088 25.917 3.40769 26.1626C1.47496 26.4082 0.0263672 28.0523 0.0263672 30.0011C0.0263672 31.9494 1.47496 33.594 3.40769 33.8392C5.34088 34.0848 7.15458 32.8549 7.64201 30.9684H11.6978C11.9151 35.164 13.5715 39.157 16.3884 42.2743L8.06946 50.5932L8.06332 50.6017C7.67366 50.4123 7.24526 50.3141 6.81168 50.3145C5.2091 50.3145 3.90976 51.6134 3.90976 53.2164C3.90976 54.819 5.2091 56.1184 6.81168 56.1184C8.41472 56.1184 9.71359 54.819 9.71359 53.2164C9.71218 52.7848 9.61299 52.3592 9.42359 51.9714L9.43209 51.9658L17.7538 43.6397C20.8749 46.4581 24.8721 48.1145 29.0715 48.3294C29.0715 48.3459 29.0616 48.3606 29.0616 48.378V52.3842C27.1752 52.8717 25.9452 54.6854 26.1909 56.6185C26.4365 58.5513 28.0806 59.9999 30.0289 59.9999C31.9777 59.9999 33.6218 58.5513 33.8674 56.6185C34.113 54.6854 32.8831 52.8717 30.9962 52.3842V48.3799C30.9962 48.3624 30.9877 48.3478 30.9868 48.3313C35.1861 48.1164 39.1834 46.46 42.3044 43.6421L50.6229 51.9658L50.6319 51.9714C50.442 52.3592 50.3428 52.7848 50.3404 53.2164C50.3404 54.819 51.6398 56.1184 53.2423 56.1184C54.8454 56.1184 56.1443 54.819 56.1443 53.2164C56.1443 51.6134 54.8454 50.3145 53.2423 50.3145C52.8111 50.3159 52.3856 50.4151 51.9978 50.6045L51.9917 50.596L43.668 42.2771C46.4844 39.1584 48.1404 35.165 48.3567 30.9684H52.4125C52.9188 32.9101 54.8274 34.141 56.8055 33.8004C58.7831 33.4604 60.1708 31.6618 59.9984 29.6625C59.826 27.6631 58.1511 26.1286 56.1443 26.1319ZM53.2423 5.81848C53.7765 5.81848 54.2097 6.25159 54.2097 6.78578C54.2097 7.31997 53.7765 7.75309 53.2423 7.75309C52.7082 7.75309 52.275 7.31997 52.275 6.78578C52.275 6.25159 52.7082 5.81848 53.2423 5.81848ZM6.81168 7.75309C6.27749 7.75309 5.84437 7.31997 5.84437 6.78578C5.84437 6.25159 6.27749 5.81848 6.81168 5.81848C7.34587 5.81848 7.77898 6.25159 7.77898 6.78578C7.77898 7.31997 7.34587 7.75309 6.81168 7.75309ZM6.81168 54.1838C6.27749 54.1838 5.84437 53.7506 5.84437 53.2164C5.84437 52.6823 6.27749 52.2491 6.81168 52.2491C7.34587 52.2491 7.77898 52.6823 7.77898 53.2164C7.77898 53.7506 7.34587 54.1838 6.81168 54.1838ZM53.2423 52.2491C53.7765 52.2491 54.2097 52.6823 54.2097 53.2164C54.2097 53.7506 53.7765 54.1838 53.2423 54.1838C52.7082 54.1838 52.275 53.7506 52.275 53.2164C52.275 52.6823 52.7082 52.2491 53.2423 52.2491ZM28.0924 3.88386C28.0924 2.81548 28.9586 1.94925 30.027 1.94925C31.0954 1.94925 31.9616 2.81548 31.9616 3.88386C31.9616 4.95225 31.0954 5.81848 30.027 5.81848C28.9586 5.81848 28.0924 4.95225 28.0924 3.88386ZM3.90976 31.9357C2.84138 31.9357 1.97515 31.0695 1.97515 30.0011C1.97515 28.9327 2.84138 28.0665 3.90976 28.0665C4.97814 28.0665 5.84437 28.9327 5.84437 30.0011C5.84437 31.0695 4.97814 31.9357 3.90976 31.9357ZM31.9616 56.1184C31.9616 57.1867 31.0954 58.053 30.027 58.053C28.9586 58.053 28.0924 57.1867 28.0924 56.1184C28.0924 55.05 28.9586 54.1838 30.027 54.1838C31.0954 54.1838 31.9616 55.05 31.9616 56.1184ZM30.027 46.4453C20.9453 46.4453 13.5828 39.0828 13.5828 30.0011C13.5828 20.9189 20.9453 13.5569 30.027 13.5569C39.1092 13.5569 46.4712 20.9189 46.4712 30.0011C46.4613 39.0786 39.1049 46.4349 30.027 46.4453ZM56.1443 31.9357C55.0759 31.9357 54.2097 31.0695 54.2097 30.0011C54.2097 28.9327 55.0759 28.0665 56.1443 28.0665C57.2126 28.0665 58.0789 28.9327 58.0789 30.0011C58.0789 31.0695 57.2126 31.9357 56.1443 31.9357Z" fill="#7BB7EF"/>
<circle cx="30" cy="30" r="17" fill="url(#paint0_linear)"/>
<path d="M30.0276 23.23H37.766C38.3002 23.23 38.7333 22.7969 38.7333 22.2627C38.7333 21.7285 38.3002 21.2954 37.766 21.2954H30.0276C26.3426 21.3016 23.0604 23.6258 21.8301 27.0992H19.3872C18.853 27.0992 18.4199 27.5324 18.4199 28.0666C18.4199 28.6007 18.853 29.0339 19.3872 29.0339H21.379C21.3029 29.6762 21.3029 30.3256 21.379 30.9685H19.3872C18.853 30.9685 18.4199 31.4016 18.4199 31.9358C18.4199 32.47 18.853 32.9031 19.3872 32.9031H21.8301C23.0604 36.3765 26.3426 38.7003 30.0276 38.7069H37.766C38.3002 38.7069 38.7333 38.2738 38.7333 37.7396C38.7333 37.2054 38.3002 36.7723 37.766 36.7723H30.0276C27.4157 36.7685 25.0385 35.2628 23.9191 32.9031H30.9949C31.5291 32.9031 31.9622 32.47 31.9622 31.9358C31.9622 31.4016 31.5291 30.9685 30.9949 30.9685H23.3339C23.2309 30.3275 23.2309 29.6743 23.3339 29.0339H30.9949C31.5291 29.0339 31.9622 28.6007 31.9622 28.0666C31.9622 27.5324 31.5291 27.0992 30.9949 27.0992H23.9191C25.0385 24.7391 27.4157 23.2333 30.0276 23.23Z" fill="white"/>
</g>
<defs>
<linearGradient id="paint0_linear" x1="30" y1="13" x2="30" y2="47" gradientUnits="userSpaceOnUse">
<stop stop-color="#47BBD5"/>
<stop offset="1" stop-color="#265293"/>
</linearGradient>
<clipPath id="clip0">
<rect width="60" height="60" fill="white"/>
</clipPath>
</defs>
</svg>
