<svg width="32" height="32" viewBox="0 0 32 32" fill="none" xmlns="http://www.w3.org/2000/svg">
<g clip-path="url(#clip0)">
<path d="M6.50166 16.0001C6.50166 13.6277 7.37633 11.4561 8.81884 9.78955C5.63264 11.0392 2.59051 13.108 0.22502 15.4582C-0.074902 15.7562 -0.0750902 16.2421 0.224957 16.5401C2.55424 18.8528 5.57523 20.9389 8.81821 22.2094C7.3757 20.5434 6.50166 18.3718 6.50166 16.0001Z" fill="white"/>
<path d="M23.1818 9.79077C24.6243 11.4567 25.4983 13.6283 25.4983 16C25.4983 18.3724 24.6237 20.544 23.1812 22.2105C26.3673 20.9609 29.4095 18.8921 31.775 16.5419C32.075 16.2439 32.0751 15.758 31.775 15.46C29.4457 13.1473 26.4248 11.0613 23.1818 9.79077Z" fill="white"/>
<path d="M16 8.38403C11.8005 8.38403 8.38403 11.8005 8.38403 16C8.38403 20.1996 11.8005 23.616 16 23.616C20.1996 23.616 23.616 20.1996 23.616 16C23.616 11.8005 20.1996 8.38403 16 8.38403ZM16 19.5765C14.028 19.5765 12.4236 17.9721 12.4236 16C12.4236 14.028 14.028 12.4236 16 12.4236C17.9721 12.4236 19.5765 14.028 19.5765 16C19.5765 17.9721 17.9721 19.5765 16 19.5765Z" fill="white"/>
<path d="M16 17.6942C16.9357 17.6942 17.6941 16.9357 17.6941 16C17.6941 15.0644 16.9357 14.3059 16 14.3059C15.0644 14.3059 14.3059 15.0644 14.3059 16C14.3059 16.9357 15.0644 17.6942 16 17.6942Z" fill="white"/>
<path d="M16 4.07586C16.5198 4.07586 16.9412 3.65446 16.9412 3.13468V0.941177C16.9412 0.421396 16.5198 0 16 0C15.4802 0 15.0588 0.421396 15.0588 0.941177V3.13462C15.0588 3.65446 15.4802 4.07586 16 4.07586Z" fill="white"/>
<path d="M21.6086 5.33292C22.0599 5.59036 22.6348 5.43331 22.8924 4.98167L24.1434 2.78822C24.4009 2.33671 24.2437 1.7619 23.7922 1.5044C23.3406 1.24689 22.7658 1.40413 22.5083 1.85564L21.2573 4.04909C20.9998 4.5006 21.1571 5.07541 21.6086 5.33292Z" fill="white"/>
<path d="M9.10771 4.98167C9.36521 5.43318 9.93996 5.59042 10.3915 5.33292C10.843 5.07541 11.0003 4.5006 10.7428 4.04909L9.49177 1.85564C9.23426 1.40413 8.65939 1.24689 8.20794 1.5044C7.75643 1.7619 7.59919 2.33671 7.85669 2.78823L9.10771 4.98167Z" fill="white"/>
<path d="M16 27.9241C15.4802 27.9241 15.0588 28.3455 15.0588 28.8652V31.0587C15.0588 31.5785 15.4802 31.9999 16 31.9999C16.5198 31.9999 16.9412 31.5785 16.9412 31.0587V28.8652C16.9412 28.3454 16.5198 27.9241 16 27.9241Z" fill="white"/>
<path d="M10.3915 26.667C9.94002 26.4095 9.36527 26.5667 9.10771 27.0182L7.85669 29.2117C7.59919 29.6632 7.75643 30.238 8.20794 30.4955C8.65952 30.753 9.23426 30.5957 9.49177 30.1443L10.7428 27.9508C11.0003 27.4993 10.843 26.9245 10.3915 26.667Z" fill="white"/>
<path d="M22.8924 27.0183C22.6349 26.5668 22.0601 26.4095 21.6086 26.667C21.1571 26.9245 20.9998 27.4993 21.2573 27.9508L22.5083 30.1443C22.7658 30.5958 23.3406 30.753 23.7922 30.4955C24.2437 30.238 24.4009 29.6632 24.1434 29.2117L22.8924 27.0183Z" fill="white"/>
</g>
<defs>
<clipPath id="clip0">
<rect width="32" height="32" fill="white"/>
</clipPath>
</defs>
</svg>
