<?xml version="1.0" encoding="UTF-8"?>
<svg width="52px" height="52px" viewBox="0 0 52 52" version="1.1" xmlns="http://www.w3.org/2000/svg" xmlns:xlink="http://www.w3.org/1999/xlink">
    <!-- Generator: Sketch 57.1 (83088) - https://sketch.com -->
    <title>AISIconActive</title>
    <desc>Created with Sketch.</desc>
    <defs>
        <linearGradient x1="0%" y1="0%" x2="102.314718%" y2="100%" id="linearGradient-1">
            <stop stop-color="#264059" offset="0%"></stop>
            <stop stop-color="#F6F6F6" stop-opacity="0" offset="49.926098%"></stop>
            <stop stop-color="#7BB7EF" stop-opacity="0.867733829" offset="71.1729307%"></stop>
            <stop stop-color="#648DB3" offset="100%"></stop>
        </linearGradient>
    </defs>
    <g id="Icons" stroke="none" stroke-width="1" fill="none" fill-rule="evenodd">
        <g id="AISIconActive" transform="translate(2.000000, 2.000000)">
            <g id="AISIcon">
                <path d="M24,36 C30.627417,36 36,30.627417 36,24 C36,17.372583 30.627417,12 24,12 C17.372583,12 12,17.372583 12,24 C12,30.627417 17.372583,36 24,36 Z M24,34.6666667 C18.1089627,34.6666667 13.3333333,29.8910373 13.3333333,24 C13.3333333,18.1089627 18.1089627,13.3333333 24,13.3333333 C29.8910373,13.3333333 34.6666667,18.1089627 34.6666667,24 C34.6666667,29.8910373 29.8910373,34.6666667 24,34.6666667 Z" id="Oval" fill="#7BB7EF" fill-rule="nonzero"></path>
                <circle id="Oval" stroke="url(#linearGradient-1)" stroke-width="3" cx="24" cy="24" r="24"></circle>
                <path d="M23.7473684,24 L40.7115635,6.77430786 C36.3904114,2.58133556 30.4966573,0 24,0 C10.745166,0 0,10.745166 0,24 C0,37.254834 10.745166,48 24,48 C37.254834,48 48,37.254834 48,24" id="Path" stroke="#7BB7EF" stroke-width="3" stroke-linecap="round"></path>
            </g>
        </g>
    </g>
</svg>