<svg width="28" height="32" viewBox="0 0 28 32" fill="none" xmlns="http://www.w3.org/2000/svg">
<path d="M27.8584 8.43891C27.8563 8.4069 27.852 8.37703 27.8456 8.34502C27.8243 8.22126 27.788 8.10069 27.7261 7.99293C27.725 7.99186 27.725 7.9908 27.725 7.98973C27.7218 7.98546 27.7176 7.98226 27.7144 7.97799C27.6525 7.87557 27.5703 7.78808 27.4765 7.71126C27.4519 7.69206 27.4295 7.67285 27.4039 7.65578C27.3815 7.64084 27.3644 7.62057 27.3399 7.6067L14.5367 0.138168C14.5111 0.123231 14.4823 0.116829 14.4556 0.104026C14.4268 0.0890889 14.398 0.0773527 14.367 0.0656164C14.1291 -0.0218721 13.8709 -0.0218721 13.633 0.0656164C13.6021 0.0773527 13.5732 0.0890889 13.5434 0.102959C13.5167 0.115762 13.4879 0.122164 13.4623 0.137101L0.659082 7.60563C0.635609 7.6195 0.617471 7.63978 0.595066 7.65578C0.570526 7.67285 0.548121 7.69099 0.524648 7.71019C0.430758 7.78701 0.347537 7.87557 0.285655 7.97799C0.282454 7.98333 0.27712 7.98546 0.274986 7.98973C0.273919 7.9908 0.273919 7.99186 0.273919 7.994C0.21097 8.10069 0.175761 8.22126 0.154422 8.34502C0.149087 8.37703 0.14482 8.4069 0.141619 8.43784C0.139485 8.46878 0.129883 8.49652 0.129883 8.52746V23.4645C0.129883 23.4955 0.139485 23.5232 0.141619 23.5531C0.143753 23.5851 0.148021 23.615 0.154422 23.6459C0.175761 23.7697 0.212037 23.8902 0.273919 23.998C0.274986 23.9991 0.274986 24.0001 0.274986 24.0012C0.29099 24.0289 0.314462 24.0503 0.333667 24.0759C0.368876 24.125 0.401951 24.1762 0.445695 24.2189C0.481971 24.2551 0.524648 24.2818 0.565192 24.3117C0.597199 24.3352 0.62494 24.364 0.659082 24.3842L13.4623 31.8528C13.4879 31.8677 13.5167 31.8741 13.5434 31.8869C13.5732 31.9008 13.6021 31.9125 13.633 31.9242C13.7525 31.9701 13.8752 32 14 32C14.1248 32 14.2475 31.9701 14.367 31.9264C14.398 31.9146 14.4279 31.9029 14.4567 31.889C14.4833 31.8762 14.5121 31.8698 14.5378 31.8549L27.341 24.3864C27.3762 24.3661 27.4028 24.3373 27.4348 24.3138C27.4754 24.2839 27.5181 24.2573 27.5543 24.221C27.5981 24.1783 27.6312 24.1271 27.6664 24.078C27.6845 24.0524 27.708 24.0311 27.725 24.0033C27.7261 24.0023 27.7261 24.0012 27.7261 24.0001C27.788 23.8924 27.8243 23.7729 27.8456 23.648C27.8509 23.616 27.8552 23.5862 27.8584 23.5542C27.8605 23.5232 27.8702 23.4944 27.8702 23.4645V8.52746C27.8702 8.49759 27.8605 8.46878 27.8584 8.43891ZM12.9331 29.0755L3.31361 23.4645L8.13508 20.6521C8.64401 20.3544 8.81685 19.7015 8.52025 19.1925C8.22257 18.6847 7.56961 18.5129 7.06068 18.8084L2.26375 21.607V10.385L12.9331 16.6084V29.0755ZM14 14.7605L3.31361 8.52746L12.9331 2.91646V8.52746C12.9331 9.11641 13.41 9.5944 14 9.5944C14.59 9.5944 15.0669 9.11641 15.0669 8.52746V2.91646L24.6864 8.52746L14 14.7605ZM25.7363 21.607L20.9394 18.8084C20.4315 18.5129 19.7775 18.6847 19.4798 19.1925C19.1842 19.7015 19.356 20.3544 19.8639 20.6521L24.6864 23.4645L15.0669 29.0755V16.6084L25.7363 10.385V21.607Z" fill="white"/>
</svg>
