<svg width="72" height="72" viewBox="0 0 72 72" fill="none" xmlns="http://www.w3.org/2000/svg">
<path d="M55.8023 53.0156C59.5256 53.0156 62.9006 50.5459 64.0926 47.0363C67.489 47.1841 70.6426 44.9984 71.6649 41.647C72.2736 39.6519 72.0269 37.5936 71.1387 35.8731C71.1365 32.3311 70.5981 28.8534 69.5825 25.4674C69.1919 24.1672 67.1688 24.7648 67.5615 26.0739C68.2597 28.3991 68.7036 30.7974 68.8909 33.2303C67.0243 31.8527 64.5667 31.4077 62.3359 32.0515C61.1373 29.5439 58.6274 27.924 55.7924 27.924C52.9574 27.924 50.4481 29.5433 49.249 32.051C46.3129 31.2034 43.0779 32.2679 41.2026 34.6778C39.0685 25.3389 30.7612 18.3543 20.8674 18.3543C15.5709 18.3543 10.5211 20.3593 6.64728 24.0002C5.14819 25.4097 3.87817 27.0137 2.86194 28.7584C4.19733 22.4555 7.29822 16.6663 11.9191 12.0015C18.2357 5.62445 26.6325 2.11157 35.5638 2.10938C41.87 2.11157 48.0108 3.8952 53.3232 7.26746C58.4984 10.5524 62.6858 15.1974 65.4329 20.7004C66.0569 21.9512 67.9444 20.9405 67.3187 19.6952C64.3931 13.8658 59.9431 8.94617 54.4493 5.46735C48.8007 1.89075 42.2732 0 35.5726 0C35.5699 0 35.5671 0 35.5638 0C35.5594 0 35.5556 0 35.5512 0C26.0535 0 17.1244 3.7337 10.409 10.5128C3.6969 17.2897 0 26.2991 0 35.8813C0 36.5416 0.0197754 37.2321 0.0593262 37.9341C0.0615234 37.9737 0.0664672 38.0121 0.0725098 38.05C0.519653 45.4999 3.27173 52.6893 7.93817 58.4945C8.78851 59.553 10.4387 58.2385 9.58228 57.1734C5.17236 51.6868 2.57904 44.8863 2.17365 37.8419C2.55542 33.1348 4.65381 28.7693 8.09198 25.5377C9.30322 24.399 10.643 23.4388 12.0751 22.6703C9.50812 27.4362 8.20734 32.7667 8.29633 38.2434C8.3172 39.5294 8.41553 40.8219 8.58911 42.0864C8.77478 43.4388 10.8644 43.1521 10.6787 41.7997C10.5172 40.6192 10.4249 39.4107 10.4057 38.2094C10.3085 32.2306 11.9828 26.4386 15.2479 21.459C15.2809 21.4091 15.3073 21.3574 15.3309 21.3047C17.1057 20.7521 18.9684 20.4642 20.8669 20.4642C21.4514 20.4642 22.0292 20.4928 22.6005 20.5461C18.5471 25.2927 16.0565 31.2589 15.5418 37.5326C14.8854 45.5312 17.3787 53.2837 22.5632 59.363C23.4481 60.4006 25.0477 59.0257 24.1683 57.9941C19.3513 52.3455 17.0343 45.1401 17.644 37.7051C18.1582 31.4363 20.7944 25.4987 25.0746 20.9454C27.245 21.4497 29.272 22.3363 31.0836 23.5294C25.6866 28.1629 22.6088 34.8541 22.6088 42.0397C22.6088 55.4453 33.416 66.3514 46.7001 66.3514C48.0641 66.3514 49.4214 66.2344 50.7563 66.0048C46.0893 68.4053 40.8917 69.683 35.5732 69.683C27.373 69.683 19.4848 66.6573 13.361 61.1631C12.3508 60.2567 10.9347 61.8206 11.952 62.733C18.4636 68.575 26.8522 71.7924 35.5732 71.7924C44.1623 71.7924 52.4559 68.6591 58.9257 62.9698C59.8546 62.153 58.7664 60.6423 57.6964 61.2675C54.3691 63.2137 50.5668 64.242 46.7001 64.242C34.5795 64.242 24.7181 54.2818 24.7181 42.0397C24.7181 35.3139 27.6674 29.0638 32.8228 24.8225C36.8212 28.1722 39.425 33.1633 39.6123 38.7625C39.3217 42.2633 41.4706 45.6284 44.9324 46.7051C45.7729 46.966 46.6309 47.0775 47.495 47.0385C48.6969 50.5514 52.0752 53.0162 55.8023 53.0156ZM49.2935 45.6614C49.183 45.1736 48.7496 44.8396 48.2657 44.8396C48.2064 44.8396 48.1454 44.8445 48.085 44.855C47.2346 45.0022 46.3848 44.9467 45.5581 44.6896C43.2977 43.9871 41.8112 41.9304 41.7003 39.6694C41.7217 39.5865 41.7338 39.5002 41.7338 39.4107C41.7338 39.2119 41.7305 39.0141 41.725 38.8169C41.7618 38.4675 41.831 38.1165 41.9376 37.7688C42.371 36.3477 43.3268 35.1859 44.6298 34.4965C45.9152 33.8165 47.3868 33.6791 48.7738 34.1104C48.9847 34.1757 49.2012 34.2587 49.416 34.357C49.9894 34.6179 50.6788 34.3032 50.8618 33.7061C51.5347 31.5093 53.5161 30.0328 55.7924 30.0328C58.0682 30.0328 60.0496 31.5093 60.7225 33.7061C60.9055 34.3037 61.5959 34.6185 62.1694 34.3564C63.3834 33.8016 64.7534 33.7143 66.0262 34.1104C68.9128 35.0079 70.5377 38.1127 69.6473 41.0312C68.8392 43.6794 66.1948 45.3219 63.4993 44.8544C62.9451 44.7567 62.4144 45.1121 62.2897 45.6597C62.2469 45.8509 62.2062 46.0058 62.1628 46.1481C61.6349 47.8784 60.4704 49.294 58.8834 50.1339C57.3168 50.9628 55.5227 51.1298 53.833 50.6041C51.5649 49.8994 49.8252 48.0048 49.2935 45.6614Z" fill="#7BB7EF"/>
</svg>
