<svg width="254" height="245" viewBox="0 0 254 245" fill="none" xmlns="http://www.w3.org/2000/svg">
<g clip-path="url(#clip0)">
<path opacity="0.5" d="M283.549 218.606L251.988 218.699C240.896 218.732 231.896 209.732 231.929 198.64L231.963 187.197C231.995 176.106 222.995 167.106 211.904 167.139L200.461 167.172C189.369 167.205 180.37 158.205 180.402 147.113L180.436 135.671C180.469 124.579 171.469 115.579 160.377 115.612L148.935 115.646C137.843 115.678 128.843 106.679 128.876 95.5868L128.909 84.1443C128.942 73.0525 119.942 64.0526 108.851 64.0854L97.4081 64.1191C86.3163 64.1518 77.3164 55.152 77.3491 44.0602L77.3829 32.6177C77.4156 21.5259 68.4157 12.5261 57.324 12.5588L45.8815 12.5925C34.7897 12.6252 25.7898 3.62537 25.8225 -7.46639L25.8394 -13.1876L25.9156 -39.0272" stroke="#E61B20" stroke-width="3"/>
<path opacity="0.5" d="M301.573 200.719L270.012 200.812C258.92 200.845 249.921 191.845 249.953 180.753L249.987 169.311C250.02 158.219 241.02 149.219 229.928 149.252L218.486 149.286C207.394 149.318 198.394 140.318 198.427 129.227L198.46 117.784C198.493 106.692 189.493 97.6925 178.402 97.7252L166.959 97.759C155.867 97.7917 146.867 88.7918 146.9 77.7001L146.934 66.2576C146.967 55.1658 137.967 46.1659 126.875 46.1986L115.432 46.2324C104.341 46.2651 95.3408 37.2652 95.3735 26.1735L95.4073 14.731C95.44 3.63923 86.4401 -5.36066 75.3484 -5.32794L63.9059 -5.29419C52.8141 -5.26147 43.8142 -14.2613 43.847 -25.3531L43.8638 -31.0744L43.9401 -56.9139" stroke="#7BB7EF" stroke-width="3"/>
<path opacity="0.5" d="M319.598 182.832L288.038 182.925C276.946 182.958 267.946 173.958 267.979 162.867L268.012 151.424C268.045 140.332 259.045 131.332 247.954 131.365L236.511 131.399C225.419 131.432 216.419 122.432 216.452 111.34L216.486 99.8974C216.519 88.8057 207.519 79.8058 196.427 79.8385L184.984 79.8723C173.893 79.905 164.893 70.9051 164.926 59.8133L164.959 48.3708C164.992 37.2791 155.992 28.2792 144.9 28.3119L133.458 28.3457C122.366 28.3784 113.366 19.3785 113.399 8.28676L113.433 -3.15574C113.465 -14.2475 104.466 -23.2474 93.3738 -23.2147L81.9313 -23.1809C70.8395 -23.1482 61.8396 -32.1481 61.8724 -43.2398L61.8892 -48.9611L61.9655 -74.8006" stroke="#7BB7EF" stroke-width="3"/>
<path opacity="0.5" d="M337.623 164.948L306.062 165.041C294.97 165.073 285.97 156.073 286.003 144.982L286.037 133.539C286.07 122.447 277.07 113.448 265.978 113.48L254.535 113.514C243.444 113.547 234.444 104.547 234.477 93.4552L234.51 82.0127C234.543 70.9209 225.543 61.921 214.451 61.9537L203.009 61.9875C191.917 62.0202 182.917 53.0203 182.95 41.9286L182.984 30.4861C183.016 19.3943 174.017 10.3944 162.925 10.4272L151.482 10.4609C140.391 10.4936 131.391 1.49375 131.423 -9.598L131.457 -21.0405C131.49 -32.1323 122.49 -41.1321 111.398 -41.0994L99.9557 -41.0657C88.8639 -41.033 79.864 -50.0328 79.8968 -61.1246L79.9136 -66.8458L79.9899 -92.6854" stroke="#7BB7EF" stroke-width="3"/>
<path opacity="0.5" d="M355.648 147.061L324.087 147.154C312.996 147.187 303.996 138.187 304.028 127.095L304.062 115.653C304.095 104.561 295.095 95.5609 284.003 95.5936L272.561 95.6273C261.469 95.6601 252.469 86.6602 252.502 75.5684L252.536 64.1259C252.568 53.0342 243.568 44.0343 232.477 44.067L221.034 44.1008C209.942 44.1335 200.943 35.1336 200.975 24.0419L201.009 12.5994C201.042 1.50761 192.042 -7.49229 180.95 -7.45957L169.508 -7.42581C158.416 -7.39309 149.416 -16.393 149.449 -27.4847L149.482 -38.9272C149.515 -50.019 140.515 -59.0189 129.424 -58.9861L117.981 -58.9524C106.889 -58.9197 97.8894 -67.9196 97.9222 -79.0113L97.939 -84.7326L98.0153 -110.572" stroke="#7BB7EF" stroke-width="3"/>
<path opacity="0.5" d="M373.673 129.176L342.112 129.269C331.02 129.302 322.02 120.302 322.053 109.21L322.087 97.7678C322.119 86.676 313.119 77.6761 302.028 77.7088L290.585 77.7426C279.493 77.7753 270.494 68.7754 270.526 57.6837L270.56 46.2412C270.593 35.1494 261.593 26.1495 250.501 26.1822L239.059 26.216C227.967 26.2487 218.967 17.2488 219 6.15709L219.033 -5.2854C219.066 -16.3772 210.066 -25.3771 198.975 -25.3443L187.532 -25.3106C176.44 -25.2779 167.44 -34.2777 167.473 -45.3695L167.507 -56.812C167.54 -67.9037 158.54 -76.9036 147.448 -76.8709L136.006 -76.8372C124.914 -76.8044 115.914 -85.8043 115.947 -96.8961L115.963 -102.617L116.04 -128.457" stroke="#7BB7EF" stroke-width="3"/>
<path opacity="0.5" d="M391.697 111.289L360.136 111.382C349.044 111.415 340.045 102.415 340.077 91.3235L340.111 79.881C340.144 68.7893 331.144 59.7894 320.052 59.8221L308.61 59.8559C297.518 59.8886 288.518 50.8887 288.551 39.797L288.584 28.3545C288.617 17.2627 279.617 8.26281 268.526 8.29553L257.083 8.32928C245.991 8.362 236.991 -0.637872 237.024 -11.7296L237.058 -23.1721C237.091 -34.2639 228.091 -43.2638 216.999 -43.2311L205.556 -43.1973C194.465 -43.1646 185.465 -52.1645 185.498 -63.2562L185.531 -74.6987C185.564 -85.7905 176.564 -94.7904 165.472 -94.7576L154.03 -94.7239C142.938 -94.6912 133.938 -103.691 133.971 -114.783L133.988 -120.504L134.064 -146.344" stroke="#7BB7EF" stroke-width="3"/>
<path opacity="0.5" d="M409.722 93.4046L378.162 93.4977C367.07 93.5304 358.07 84.5305 358.103 73.4388L358.136 61.9963C358.169 50.9045 349.169 41.9046 338.078 41.9373L326.635 41.9711C315.543 42.0038 306.543 33.0039 306.576 21.9122L306.61 10.4697C306.643 -0.622064 297.643 -9.62196 286.551 -9.58924L275.108 -9.55548C264.017 -9.52276 255.017 -18.5226 255.05 -29.6144L255.083 -41.0569C255.116 -52.1486 246.116 -61.1485 235.024 -61.1158L223.582 -61.0821C212.49 -61.0493 203.49 -70.0492 203.523 -81.141L203.557 -92.5835C203.589 -103.675 194.59 -112.675 183.498 -112.642L172.055 -112.609C160.964 -112.576 151.964 -121.576 151.996 -132.668L152.013 -138.389L152.089 -164.228" stroke="#7BB7EF" stroke-width="2"/>
<path opacity="0.5" d="M427.747 75.5179L396.186 75.611C385.094 75.6437 376.094 66.6438 376.127 55.552L376.161 44.1096C376.194 33.0178 367.194 24.0179 356.102 24.0506L344.659 24.0844C333.568 24.1171 324.568 15.1172 324.601 4.02547L324.634 -7.41703C324.667 -18.5088 315.667 -27.5087 304.575 -27.476L293.133 -27.4422C282.041 -27.4095 273.041 -36.4094 273.074 -47.5011L273.108 -58.9436C273.14 -70.0354 264.141 -79.0353 253.049 -79.0025L241.606 -78.9688C230.515 -78.9361 221.515 -87.9359 221.547 -99.0277L221.581 -110.47C221.614 -121.562 212.614 -130.562 201.522 -130.529L190.08 -130.495C178.988 -130.463 169.988 -139.463 170.021 -150.554L170.038 -156.276L170.114 -182.115" stroke="#7BB7EF" stroke-width="2"/>
<path opacity="0.5" d="M445.772 57.6331L414.211 57.7262C403.12 57.7589 394.12 48.759 394.153 37.6673L394.186 26.2248C394.219 15.133 385.219 6.13314 374.127 6.16586L362.685 6.19961C351.593 6.23233 342.593 -2.76754 342.626 -13.8593L342.66 -25.3018C342.692 -36.3935 333.693 -45.3934 322.601 -45.3607L311.158 -45.327C300.067 -45.2942 291.067 -54.2941 291.099 -65.3859L291.133 -76.8284C291.166 -87.9201 282.166 -96.92 271.074 -96.8873L259.632 -96.8535C248.54 -96.8208 239.54 -105.821 239.573 -116.912L239.607 -128.355C239.639 -139.447 230.639 -148.447 219.548 -148.414L208.105 -148.38C197.013 -148.347 188.013 -157.347 188.046 -168.439L188.063 -174.16L188.139 -200" stroke="#7BB7EF" stroke-width="2"/>
</g>
<defs>
<clipPath id="clip0">
<rect width="254" height="245" fill="white"/>
</clipPath>
</defs>
</svg>
