<svg width="32" height="32" viewBox="0 0 32 32" fill="none" xmlns="http://www.w3.org/2000/svg">
<path d="M22.7396 3.80988C23.003 3.80988 23.2175 3.59642 23.2175 3.33301V0.477948C23.2175 0.214536 23.003 0 22.7396 0C22.4767 0 22.2627 0.214536 22.2627 0.477948V3.33301C22.2627 3.59642 22.4773 3.80988 22.7396 3.80988Z" fill="white"/>
<path d="M20.1397 3.80988C20.4036 3.80988 20.6181 3.59642 20.6181 3.33301V0.477948C20.6181 0.214536 20.4036 0 20.1397 0C19.8774 0 19.6633 0.214536 19.6633 0.477948V3.33301C19.6633 3.59642 19.8774 3.80988 20.1397 3.80988Z" fill="white"/>
<path d="M17.4921 3.80988C17.755 3.80988 17.9678 3.59642 17.9678 3.33301V0.477948C17.9678 0.214536 17.7544 0 17.4921 0C17.2287 0 17.0142 0.214536 17.0142 0.477948V3.33301C17.0142 3.59642 17.2282 3.80988 17.4921 3.80988Z" fill="white"/>
<path d="M14.8915 3.80988C15.1543 3.80988 15.3683 3.59642 15.3683 3.33301V0.477948C15.3683 0.214536 15.1538 0 14.8915 0C14.6281 0 14.4141 0.214536 14.4141 0.477948V3.33301C14.4141 3.59642 14.6281 3.80988 14.8915 3.80988Z" fill="white"/>
<path d="M12.4931 3.80988C12.7548 3.80988 12.9694 3.59642 12.9694 3.33301V0.477948C12.9694 0.214536 12.7549 0 12.4931 0C12.2286 0 12.0151 0.214536 12.0151 0.477948V3.33301C12.0151 3.59642 12.2286 3.80988 12.4931 3.80988Z" fill="white"/>
<path d="M9.89269 3.80988C10.1556 3.80988 10.369 3.59642 10.369 3.33301V0.477948C10.369 0.214536 10.1556 0 9.89269 0C9.62928 0 9.41528 0.213996 9.41528 0.477948V3.33301C9.41528 3.59642 9.62928 3.80988 9.89269 3.80988Z" fill="white"/>
<path d="M3.33078 8.73535H0.476867C0.213456 8.73535 0 8.94989 0 9.21222C0 9.47455 0.213456 9.68909 0.476867 9.68909H3.33078C3.59527 9.68909 3.80873 9.47455 3.80873 9.21222C3.80873 8.94989 3.59527 8.73535 3.33078 8.73535Z" fill="white"/>
<path d="M3.33078 11.3359H0.476867C0.213456 11.3359 0 11.5494 0 11.8123C0 12.0757 0.213456 12.2891 0.476867 12.2891H3.33078C3.59527 12.2891 3.80873 12.0757 3.80873 11.8123C3.80873 11.5489 3.59527 11.3359 3.33078 11.3359Z" fill="white"/>
<path d="M3.33078 13.9851H0.476867C0.213456 13.9851 0 14.1986 0 14.4631C0 14.7259 0.213456 14.9394 0.476867 14.9394H3.33078C3.59527 14.9394 3.80873 14.7259 3.80873 14.4631C3.80873 14.1986 3.59527 13.9851 3.33078 13.9851Z" fill="white"/>
<path d="M3.33078 16.584H0.476867C0.213456 16.584 0 16.7985 0 17.0609C0 17.3231 0.213456 17.5377 0.476867 17.5377H3.33078C3.59527 17.5377 3.80873 17.3232 3.80873 17.0609C3.80873 16.7985 3.59527 16.584 3.33078 16.584Z" fill="white"/>
<path d="M3.33078 18.9819H0.476867C0.213456 18.9819 0 19.1965 0 19.4588C0 19.7233 0.213456 19.9378 0.476867 19.9378H3.33078C3.59527 19.9378 3.80873 19.7233 3.80873 19.4588C3.80873 19.1959 3.59527 18.9819 3.33078 18.9819Z" fill="white"/>
<path d="M3.33078 21.5828H0.476867C0.213456 21.5828 0 21.7957 0 22.0596C0 22.3225 0.213456 22.537 0.476867 22.537H3.33078C3.59527 22.537 3.80873 22.3225 3.80873 22.0596C3.80873 21.7957 3.59527 21.5828 3.33078 21.5828Z" fill="white"/>
<path d="M22.7396 28.1914C22.4767 28.1914 22.2627 28.4059 22.2627 28.6683V31.5233C22.2627 31.7873 22.4772 32.0002 22.7396 32.0002C23.003 32.0002 23.2175 31.7873 23.2175 31.5233V28.6683C23.2175 28.4054 23.0035 28.1914 22.7396 28.1914Z" fill="white"/>
<path d="M20.1397 28.1914C19.8774 28.1914 19.6633 28.4059 19.6633 28.6683V31.5233C19.6633 31.7873 19.8779 32.0002 20.1397 32.0002C20.4036 32.0002 20.6181 31.7873 20.6181 31.5233V28.6683C20.6181 28.4054 20.4036 28.1914 20.1397 28.1914Z" fill="white"/>
<path d="M17.4921 28.1914C17.2287 28.1914 17.0142 28.4059 17.0142 28.6683V31.5233C17.0142 31.7873 17.2287 32.0002 17.4921 32.0002C17.755 32.0002 17.9678 31.7873 17.9678 31.5233V28.6683C17.9678 28.4054 17.7544 28.1914 17.4921 28.1914Z" fill="white"/>
<path d="M14.8915 28.1914C14.6281 28.1914 14.4141 28.4059 14.4141 28.6683V31.5233C14.4141 31.7873 14.6275 32.0002 14.8915 32.0002C15.1543 32.0002 15.3683 31.7873 15.3683 31.5233V28.6683C15.3683 28.4054 15.1538 28.1914 14.8915 28.1914Z" fill="white"/>
<path d="M12.4931 28.1914C12.2286 28.1914 12.0151 28.4059 12.0151 28.6683V31.5233C12.0151 31.7873 12.2286 32.0002 12.4931 32.0002C12.7548 32.0002 12.9694 31.7873 12.9694 31.5233V28.6683C12.9694 28.4054 12.7549 28.1914 12.4931 28.1914Z" fill="white"/>
<path d="M9.8925 28.1914C9.62909 28.1914 9.41455 28.4059 9.41455 28.6683V31.5233C9.41455 31.7873 9.62909 32.0002 9.8925 32.0002C10.1554 32.0002 10.3688 31.7873 10.3688 31.5233V28.6683C10.3688 28.4054 10.1554 28.1914 9.8925 28.1914Z" fill="white"/>
<path d="M24.0659 5.05933H8.56531C6.93887 5.05933 5.61426 6.38509 5.61426 8.01153V23.5111C5.61426 25.1403 6.93887 26.466 8.56531 26.466H24.0659C25.6929 26.466 27.0187 25.1402 27.0187 23.5111V8.01153C27.0187 6.38509 25.6929 5.05933 24.0659 5.05933ZM10.0644 9.76967C9.54423 9.76967 9.12278 9.34823 9.12278 8.82917C9.12278 8.31004 9.54423 7.88752 10.0644 7.88752C10.5824 7.88752 11.0049 8.31004 11.0049 8.82917C11.005 9.34823 10.5825 9.76967 10.0644 9.76967ZM21.3025 20.4398H11.4346V10.4798H21.3025V20.4398Z" fill="white"/>
<path d="M28.6663 9.68909H31.5219C31.7853 9.68909 31.9999 9.47455 31.9999 9.21222C31.9999 8.94989 31.7853 8.73535 31.5219 8.73535H28.6663C28.4034 8.73535 28.1895 8.94989 28.1895 9.21222C28.1895 9.47455 28.4034 9.68909 28.6663 9.68909Z" fill="white"/>
<path d="M31.5219 11.3359H28.6663C28.4034 11.3359 28.1895 11.5494 28.1895 11.8123C28.1895 12.0757 28.404 12.2891 28.6663 12.2891H31.5219C31.7853 12.2891 31.9999 12.0757 31.9999 11.8123C31.9999 11.5489 31.7859 11.3359 31.5219 11.3359Z" fill="white"/>
<path d="M31.5219 13.9851H28.6663C28.4034 13.9851 28.1895 14.1986 28.1895 14.4631C28.1895 14.7259 28.404 14.9394 28.6663 14.9394H31.5219C31.7853 14.9394 31.9999 14.7259 31.9999 14.4631C31.9999 14.1986 31.7859 13.9851 31.5219 13.9851Z" fill="white"/>
<path d="M31.5219 16.584H28.6663C28.4034 16.584 28.1895 16.7985 28.1895 17.0609C28.1895 17.3231 28.404 17.5377 28.6663 17.5377H31.5219C31.7853 17.5377 31.9999 17.3232 31.9999 17.0609C31.9999 16.7985 31.7859 16.584 31.5219 16.584Z" fill="white"/>
<path d="M31.5219 18.9819H28.6663C28.4034 18.9819 28.1895 19.1965 28.1895 19.4588C28.1895 19.7233 28.404 19.9378 28.6663 19.9378H31.5219C31.7853 19.9378 31.9999 19.7233 31.9999 19.4588C31.9999 19.1959 31.7859 18.9819 31.5219 18.9819Z" fill="white"/>
<path d="M31.5219 21.5828H28.6663C28.4034 21.5828 28.1895 21.7957 28.1895 22.0596C28.1895 22.3225 28.404 22.537 28.6663 22.537H31.5219C31.7853 22.537 31.9999 22.3225 31.9999 22.0596C31.9999 21.7957 31.7859 21.5828 31.5219 21.5828Z" fill="white"/>
</svg>
