<svg width="221" height="205" viewBox="0 0 221 205" fill="none" xmlns="http://www.w3.org/2000/svg">
<g opacity="0.5">
<path d="M-35 55L-3.5 23.5L28 55L59.5 23.5L91 55L154.5 -8.5" stroke="#7BB7EF" stroke-width="3" stroke-linecap="round"/>
<path d="M-35 84.5L-3.5 53L28 84.5L59.5 53L91 84.5L186 -10.5" stroke="#7BB7EF" stroke-width="3" stroke-linecap="round"/>
<path d="M-35 114L-3.5 82.5L28 114L59.5 82.5L91 114L219.5 -14.5" stroke="#E61B20" stroke-width="3" stroke-linecap="round"/>
<path d="M-35 143.5L-3.5 112L28 143.5L59.5 112L91 143.5L178 56.5" stroke="#E61B20" stroke-width="3" stroke-linecap="round"/>
<path d="M-35 173L-3.5 141.5L28 173L59.5 141.5L91 173L158.5 105.5" stroke="#7BB7EF" stroke-width="3" stroke-linecap="round"/>
<path d="M-35 202.5L-3.5 171L28 202.5L59.5 171L91 202.5L141.5 152" stroke="#7BB7EF" stroke-width="3" stroke-linecap="round"/>
</g>
</svg>
