<svg width="60" height="60" viewBox="0 0 60 60" fill="none" xmlns="http://www.w3.org/2000/svg">
<path d="M45.4036 21.4969C43.5597 19.1806 41.2172 17.31 38.5504 16.0242C35.8835 14.7385 32.9611 14.0708 30.0005 14.0708C27.0399 14.0708 24.1174 14.7385 21.4505 16.0242C18.7837 17.31 16.4412 19.1806 14.5973 21.4969C4.35983 34.3219 13.5192 53.4375 30.0005 53.4375C46.4817 53.4375 55.6598 34.3313 45.4036 21.4969Z" fill="url(#paint0_linear)"/>
<path d="M49.5659 19.2563C50.6253 18.2063 51.5628 17.5219 51.5628 15.9376C51.5694 15.2828 51.3795 14.6412 51.0175 14.0956C50.6555 13.55 50.1381 13.1255 49.5323 12.8772C48.9265 12.6288 48.2601 12.5679 47.6193 12.7023C46.9785 12.8368 46.3927 13.1604 45.9378 13.6313L45.0003 14.5688C41.4781 11.8066 37.2597 10.0738 32.8128 9.56257V8.43757C33.6831 8.37541 34.493 7.97009 35.0644 7.31078C35.6358 6.65147 35.9219 5.79218 35.8597 4.92194C35.7975 4.0517 35.3922 3.24179 34.7329 2.67039C34.0736 2.09899 33.2143 1.81291 32.3441 1.87507H27.6566C26.7863 1.81291 25.927 2.09899 25.2677 2.67039C24.6084 3.24179 24.2031 4.0517 24.1409 4.92194C24.0788 5.79218 24.3649 6.65147 24.9363 7.31078C25.5077 7.97009 26.3176 8.37541 27.1878 8.43757V9.56257C22.739 10.0792 18.5204 11.8186 15.0003 14.5876L14.0628 13.6501C13.4536 13.0285 12.6225 12.6743 11.7522 12.6655C10.8819 12.6567 10.0438 12.994 9.42219 13.6032C8.80059 14.2124 8.44644 15.0435 8.43765 15.9138C8.42886 16.7841 8.76615 17.6222 9.37532 18.2438L10.3972 19.2563C-1.46218 35.2313 9.97532 58.1251 30.0003 58.1251C50.0253 58.1251 61.4441 35.1938 49.5659 19.2563ZM47.3066 15.0001C47.4973 14.8042 47.7416 14.669 48.0089 14.6115C48.2762 14.5541 48.5545 14.5768 48.8089 14.677C49.0633 14.7771 49.2825 14.9502 49.4388 15.1745C49.5952 15.3988 49.6818 15.6642 49.6878 15.9376C49.6876 16.1139 49.6508 16.2882 49.5798 16.4496C49.5088 16.6109 49.4052 16.7558 49.2753 16.8751C48.3378 17.8126 48.4597 17.8126 48.3378 17.6813C47.7484 17.004 47.1224 16.3593 46.4628 15.7501L47.3066 15.0001ZM27.6566 3.75007H32.3441C32.717 3.75007 33.0747 3.89822 33.3384 4.16195C33.6022 4.42567 33.7503 4.78336 33.7503 5.15632C33.7503 5.52928 33.6022 5.88696 33.3384 6.15068C33.0747 6.41441 32.717 6.56257 32.3441 6.56257H27.6566C27.2836 6.56257 26.9259 6.41441 26.6622 6.15068C26.3985 5.88696 26.2503 5.52928 26.2503 5.15632C26.2503 4.78336 26.3985 4.42567 26.6622 4.16195C26.9259 3.89822 27.2836 3.75007 27.6566 3.75007ZM29.0628 9.37507V8.43757H30.9378V9.37507H29.0628ZM12.6941 15.0001C13.6316 15.9376 13.5566 15.8063 13.4628 15.8907C12.8036 16.4805 12.1776 17.1065 11.5878 17.7657L10.7441 16.8751C10.5707 16.6064 10.4962 16.2859 10.5332 15.9684C10.5702 15.6508 10.7164 15.356 10.9469 15.1345C11.1773 14.9129 11.4776 14.7783 11.7963 14.7538C12.1151 14.7293 12.4324 14.8163 12.6941 15.0001ZM47.1941 48.2907C45.082 50.7945 42.4487 52.807 39.4781 54.1876C36.5075 55.5681 33.2713 56.2833 29.9956 56.2833C26.7199 56.2833 23.4837 55.5681 20.5132 54.1876C17.5426 52.807 14.9093 50.7945 12.7972 48.2907C0.422191 33.6188 10.9691 11.2501 30.0003 11.2501C49.0316 11.2501 59.5784 33.6094 47.1941 48.2532V48.2907Z" fill="#7BB7EF"/>
<path d="M30 19.6875C30.2486 19.6875 30.4871 19.5887 30.6629 19.4129C30.8387 19.2371 30.9375 18.9986 30.9375 18.75C30.9375 18.5014 30.8387 18.2629 30.6629 18.0871C30.4871 17.9113 30.2486 17.8125 30 17.8125C29.7514 17.8125 29.5129 17.9113 29.3371 18.0871C29.1613 18.2629 29.0625 18.5014 29.0625 18.75C29.0625 18.9986 29.1613 19.2371 29.3371 19.4129C29.5129 19.5887 29.7514 19.6875 30 19.6875Z" fill="white"/>
<path d="M30 47.8125C29.7514 47.8125 29.5129 47.9113 29.3371 48.0871C29.1613 48.2629 29.0625 48.5014 29.0625 48.75C29.0625 48.9986 29.1613 49.2371 29.3371 49.4129C29.5129 49.5887 29.7514 49.6875 30 49.6875C30.2486 49.6875 30.4871 49.5887 30.6629 49.4129C30.8387 49.2371 30.9375 48.9986 30.9375 48.75C30.9375 48.5014 30.8387 48.2629 30.6629 48.0871C30.4871 47.9113 30.2486 47.8125 30 47.8125Z" fill="white"/>
<path d="M45 32.8125C44.7514 32.8125 44.5129 32.9113 44.3371 33.0871C44.1613 33.2629 44.0625 33.5014 44.0625 33.75C44.0625 33.9986 44.1613 34.2371 44.3371 34.4129C44.5129 34.5887 44.7514 34.6875 45 34.6875C45.2486 34.6875 45.4871 34.5887 45.6629 34.4129C45.8387 34.2371 45.9375 33.9986 45.9375 33.75C45.9375 33.5014 45.8387 33.2629 45.6629 33.0871C45.4871 32.9113 45.2486 32.8125 45 32.8125Z" fill="white"/>
<path d="M15 32.8125C14.7514 32.8125 14.5129 32.9113 14.3371 33.0871C14.1613 33.2629 14.0625 33.5014 14.0625 33.75C14.0625 33.9986 14.1613 34.2371 14.3371 34.4129C14.5129 34.5887 14.7514 34.6875 15 34.6875C15.2486 34.6875 15.4871 34.5887 15.6629 34.4129C15.8387 34.2371 15.9375 33.9986 15.9375 33.75C15.9375 33.5014 15.8387 33.2629 15.6629 33.0871C15.4871 32.9113 15.2486 32.8125 15 32.8125Z" fill="white"/>
<path d="M18.7508 22.4998C18.5972 22.6792 18.517 22.9099 18.5261 23.1458C18.5352 23.3818 18.633 23.6056 18.8 23.7726C18.9669 23.9395 19.1908 24.0373 19.4267 24.0464C19.6627 24.0556 19.8933 23.9753 20.0727 23.8217C20.2263 23.6424 20.3065 23.4117 20.2974 23.1757C20.2883 22.9398 20.1905 22.716 20.0235 22.549C19.8566 22.382 19.6328 22.2842 19.3968 22.2751C19.1609 22.266 18.9302 22.3463 18.7508 22.4998Z" fill="white"/>
<path d="M39.947 43.697C39.8235 43.8775 39.767 44.0954 39.7872 44.3132C39.8075 44.5309 39.9032 44.7347 40.0578 44.8893C40.2124 45.0439 40.4162 45.1397 40.634 45.1599C40.8517 45.1801 41.0696 45.1236 41.2501 45.0001C41.3736 44.8196 41.4301 44.6017 41.4099 44.384C41.3897 44.1662 41.2939 43.9624 41.1393 43.8078C40.9847 43.6532 40.7809 43.5575 40.5631 43.5372C40.3454 43.517 40.1275 43.5735 39.947 43.697Z" fill="white"/>
<path d="M39.947 22.4997C39.8235 22.6802 39.767 22.8982 39.7872 23.1159C39.8075 23.3336 39.9032 23.5374 40.0578 23.6921C40.2124 23.8467 40.4162 23.9424 40.634 23.9626C40.8517 23.9829 41.0696 23.9263 41.2501 23.8028C41.3736 23.6224 41.4301 23.4044 41.4099 23.1867C41.3897 22.969 41.2939 22.7651 41.1393 22.6105C40.9847 22.4559 40.7809 22.3602 40.5631 22.34C40.3454 22.3197 40.1275 22.3762 39.947 22.4997Z" fill="white"/>
<path d="M18.7497 43.697C18.6262 43.8775 18.5697 44.0954 18.59 44.3132C18.6102 44.5309 18.7059 44.7347 18.8605 44.8893C19.0151 45.0439 19.219 45.1397 19.4367 45.1599C19.6544 45.1801 19.8724 45.1236 20.0528 45.0001C20.1763 44.8196 20.2329 44.6017 20.2126 44.384C20.1924 44.1662 20.0967 43.9624 19.9421 43.8078C19.7874 43.6532 19.5836 43.5575 19.3659 43.5372C19.1482 43.517 18.9302 43.5735 18.7497 43.697Z" fill="white"/>
<path d="M30.9375 31.1063V23.4375C30.9375 23.1889 30.8387 22.9504 30.6629 22.7746C30.4871 22.5988 30.2486 22.5 30 22.5C29.7514 22.5 29.5129 22.5988 29.3371 22.7746C29.1613 22.9504 29.0625 23.1889 29.0625 23.4375V31.1063C28.437 31.3274 27.9098 31.7626 27.5741 32.3348C27.2384 32.9071 27.1158 33.5796 27.228 34.2335C27.3402 34.8874 27.6799 35.4806 28.1872 35.9082C28.6944 36.3359 29.3365 36.5704 30 36.5704C30.6635 36.5704 31.3056 36.3359 31.8128 35.9082C32.3201 35.4806 32.6598 34.8874 32.772 34.2335C32.8842 33.5796 32.7616 32.9071 32.4259 32.3348C32.0902 31.7626 31.563 31.3274 30.9375 31.1063ZM30 34.6875C29.7514 34.6875 29.5129 34.5887 29.3371 34.4129C29.1613 34.2371 29.0625 33.9986 29.0625 33.75C29.0625 33.5014 29.1613 33.2629 29.3371 33.0871C29.5129 32.9113 29.7514 32.8125 30 32.8125C30.2486 32.8125 30.4871 32.9113 30.6629 33.0871C30.8387 33.2629 30.9375 33.5014 30.9375 33.75C30.9375 33.9986 30.8387 34.2371 30.6629 34.4129C30.4871 34.5887 30.2486 34.6875 30 34.6875Z" fill="white"/>
<defs>
<linearGradient id="paint0_linear" x1="30.0046" y1="14.0708" x2="30.0046" y2="53.4375" gradientUnits="userSpaceOnUse">
<stop stop-color="#47BBD5"/>
<stop offset="1" stop-color="#265293"/>
</linearGradient>
</defs>
</svg>
