<?xml version="1.0" encoding="UTF-8"?>
<svg width="61px" height="25px" viewBox="0 0 61 25" version="1.1" xmlns="http://www.w3.org/2000/svg" xmlns:xlink="http://www.w3.org/1999/xlink">
    <!-- Generator: Sketch 57.1 (83088) - https://sketch.com -->
    <title>WeatherIcon</title>
    <desc>Created with Sketch.</desc>
    <g id="Icons" stroke="none" stroke-width="1" fill="none" fill-rule="evenodd">
        <g id="WeatherIcon" transform="translate(0.000000, -1.000000)" fill="#7BB7EF">
            <g id="Weather">
                <g>
                    <path d="M0,25.9904762 L61,25.9904762 C58.1624319,18.94028 53.1062853,15.8979326 45.8315601,16.863434 C44.6191988,13.4543211 38.4597112,6.13621574 27.572447,7.07249775 C16.6851828,8.00877976 12.0244571,19.5727031 12.0244571,22.1818368 C7.21481925,20.4149608 3.20666689,21.6845072 0,25.9904762 Z" id="Path-7"></path>
                    <path d="M49.861911,0.99047619 C54.9087382,0.99047619 59,5.00859036 59,9.96518538 C59,12.284066 58.104538,14.3975395 56.6346981,15.9902625 C54.128498,14.6474664 51.1014348,14.1997326 47.5525706,14.6468778 C46.8765503,12.8422321 44.6803575,9.89726412 41.0011362,7.76734521 C41.9976691,3.87346717 45.5869817,0.99047619 49.861911,0.99047619 Z" id="Combined-Shape"></path>
                </g>
            </g>
        </g>
    </g>
</svg>