<svg width="32" height="32" viewBox="0 0 32 32" fill="none" xmlns="http://www.w3.org/2000/svg">
<path d="M8.88625 11.4713V8.88629H15.0625V2.38691C14.18 1.66254 13.0519 1.22754 11.8244 1.22754C9.30437 1.22754 7.20438 3.05941 6.78625 5.46129C6.55188 5.42316 6.31375 5.40379 6.07562 5.40379C3.63437 5.40379 1.64813 7.38941 1.64813 9.83066C1.64813 10.5163 1.80813 11.1888 2.10875 11.7957C0.7875 12.7982 0 14.3563 0 16.0619C0 17.8444 0.899375 19.5069 2.34687 20.4963C2.23812 20.9244 2.18313 21.365 2.18313 21.8138C2.18313 24.5638 4.2625 26.8363 6.93125 27.1432C7.57438 29.2588 9.555 30.7725 11.8244 30.7725C13.0519 30.7725 14.18 30.3375 15.0625 29.6132V23.1138H8.88625V20.5288H7.34438V18.6538H8.88625V16.9375H7.34438V15.0625H8.88625V13.3463H7.34438V11.4713H8.88625Z" fill="white"/>
<path d="M16.9374 14.333H15.9999H15.0624H14.333V17.6667H15.0624H15.9999H16.9374H17.6667V14.333H16.9374Z" fill="white"/>
<path d="M16.9375 10.7612H16H15.0625H10.7612V21.2387H15.0625H16H16.9375H21.2387V10.7612H16.9375ZM19.5419 19.5419H16.9375H16H15.0625H12.4581V12.4581H15.0625H16H16.9375H19.5419V19.5419Z" fill="white"/>
<path d="M32 16.0619C32 14.3563 31.2125 12.7982 29.8913 11.7957C30.1919 11.1888 30.3519 10.5163 30.3519 9.83066C30.3519 7.38941 28.3656 5.40379 25.9244 5.40379C25.6863 5.40379 25.4481 5.42316 25.2138 5.46129C24.7956 3.05941 22.6956 1.22754 20.1756 1.22754C18.9481 1.22754 17.82 1.66254 16.9375 2.38691V8.88629H23.1138V11.4713H24.6556V13.3463H23.1138V15.0625H24.6556V16.9375H23.1138V18.6538H24.6556V20.5288H23.1138V23.1138H16.9375V29.6132C17.82 30.3375 18.9481 30.7725 20.1756 30.7725C22.445 30.7725 24.4256 29.2588 25.0688 27.1432C27.7375 26.8363 29.8169 24.5638 29.8169 21.8138C29.8169 21.365 29.7619 20.9244 29.6531 20.4963C31.1006 19.5069 32 17.8444 32 16.0619Z" fill="white"/>
</svg>
