<svg width="103" height="81" viewBox="0 0 103 81" fill="none" xmlns="http://www.w3.org/2000/svg">
<path d="M76.0609 41.4669L81.2401 38.6169C82.1859 38.098 82.8689 37.237 83.1634 36.1939C83.4586 35.1514 83.3269 34.0574 82.7943 33.1135C82.2669 32.1801 81.41 31.5104 80.3818 31.2277C79.3517 30.9412 78.2749 31.0808 77.3498 31.6135L73.1152 34.0483C70.7624 35.4021 69.0569 37.5914 68.3122 40.2123L66.6172 46.1817C66.6055 46.2235 66.5789 46.2607 66.5458 46.2862C66.5225 46.3031 66.4511 46.3573 66.3441 46.3018C66.2384 46.2483 66.2384 46.1582 66.2384 46.1282V43.6314C66.2384 41.4303 64.4577 39.6385 62.2703 39.6385C60.0823 39.6385 58.3022 41.4303 58.3022 43.6314V47.3691C58.3022 49.4168 57.3078 51.3405 55.6413 52.5167L55.1755 52.8457C53.4928 54.0331 52.2921 55.834 51.8296 57.8439L51.3995 55.6806C50.6749 52.0376 51.3846 48.3156 53.3968 45.2006C55.1223 42.5296 56.0351 39.4335 56.0351 36.2474V35.4217C56.0351 34.765 56.2874 34.1468 56.7473 33.6801C57.4427 32.9719 58.4858 32.7526 59.407 33.1246L62.4902 34.3655C64.0445 34.9876 65.8407 34.4269 66.7677 33.0287C67.3872 32.0939 67.5351 30.949 67.1731 29.885C66.8105 28.821 65.9951 28.0077 64.9351 27.6526L64.9105 27.6434L65.4541 26.5494C66.3214 24.8052 68.0644 23.721 70.0034 23.721H73.5939C75.7891 23.721 77.5749 21.924 77.5749 19.715C77.5749 17.5061 75.7891 15.7091 73.5939 15.7091H71.9067V13.9708C71.9067 11.7697 70.1266 9.97852 67.9386 9.97852C65.7512 9.97852 63.9705 11.7697 63.9705 13.9708V15.5811C63.9705 16.0609 63.7662 16.5178 63.4088 16.8351C63.0572 17.1497 62.607 17.2927 62.1373 17.2483C61.6696 17.2006 61.2564 16.9656 60.9736 16.5857L60.5928 16.0753C59.8753 15.1118 58.7797 14.5113 57.5867 14.4257C56.3996 14.3487 55.2242 14.7795 54.3783 15.6314C52.9369 17.0818 52.7721 19.4135 53.9949 21.0532L54.8473 22.1988C55.5732 23.1707 55.4752 24.5546 54.6203 25.4156C53.7977 26.242 52.4997 26.3719 51.5325 25.723L47.8505 23.2523C46.4331 22.3006 45.2804 20.9873 44.5188 19.4546L42.971 16.3396C41.9059 14.1973 39.3078 13.3265 37.1782 14.397C35.0498 15.4675 34.1838 18.0825 35.2477 20.2261L37.4921 24.7419L32.8864 26.129C30.8281 26.7498 29.606 28.883 30.1029 30.9849C30.3766 32.1416 31.1349 33.1194 32.1845 33.6651C33.2341 34.2147 34.4653 34.2748 35.5603 33.829L40.3431 31.9007C42.2107 31.1442 44.3488 31.4627 45.9219 32.7304C47.3062 33.8446 48.0996 35.5052 48.0996 37.2892C48.0996 38.596 47.713 39.8572 46.9812 40.9362L46.3792 41.8233L45.7792 40.6144C44.7355 38.5157 42.1906 37.6613 40.1057 38.7103C39.0555 39.2397 38.29 40.1529 37.9495 41.2834C37.6089 42.414 37.7425 43.602 38.3251 44.6282L40.8394 49.0552C41.8021 50.751 42.4281 52.5892 42.7024 54.5194L43.405 59.4679L41.4732 58.6905C39.5608 57.9209 38.0001 56.4757 37.0789 54.6232L36.6475 53.7531C36.2706 52.9946 36.209 52.1329 36.4763 51.3287L36.6962 50.6662C37.2288 49.0584 36.8194 47.3136 35.6278 46.1138L34.7968 45.2783C34.0612 44.5387 33.0447 44.1673 32.0113 44.277C30.9767 44.3801 30.0523 44.9382 29.4756 45.8083C29.1194 46.3469 28.3929 46.4924 27.8649 46.1373C27.8629 46.136 27.7682 46.0714 27.7663 46.0701C25.9973 44.8827 23.5997 45.3671 22.4204 47.1465C21.3397 48.7777 21.64 50.9684 23.119 52.2432L29.6319 57.8622C29.7273 57.9444 29.7377 58.0443 29.7292 58.1141C29.7208 58.1833 29.6871 58.278 29.5742 58.3348L26.5 59.8811C25.3149 60.4771 24.4618 61.5633 24.1576 62.8597C23.8534 64.1574 24.1342 65.5125 24.9289 66.5784C26.345 68.4799 28.9949 68.9368 30.9617 67.6189L33.4806 65.9289C35.2451 64.7455 37.5161 64.6071 39.4071 65.5732L41.1417 66.457C42.6363 67.2175 43.5652 68.7384 43.5652 70.4238V72.7202C43.5652 73.3508 44.0725 73.8606 44.6991 73.8606H56.0357C56.6617 73.8606 57.169 73.3508 57.169 72.7202V70.1712C57.169 69.6784 57.3701 69.2254 57.7353 68.8964C58.0992 68.568 58.5708 68.412 59.0541 68.4708L64.5505 69.0778C67.6214 69.4147 70.6994 68.6078 73.2125 66.7997L76.7939 64.2265C77.7734 63.5235 78.3923 62.4275 78.4922 61.2199C78.5914 60.0123 78.1601 58.8282 77.3083 57.9712C75.8831 56.5377 73.59 56.3706 71.9767 57.5815L68.5295 60.1638C67.5409 60.9047 66.3175 61.312 65.0863 61.312H62.2359C61.3174 61.312 60.5701 60.56 60.5701 59.637C60.5701 58.4144 61.2402 57.3047 62.3183 56.7427L67.5799 53.9965C69.8503 52.8124 72.4016 52.1858 74.9588 52.1858H79.2752C81.4632 52.1858 83.2432 50.3946 83.2432 48.1935C83.2432 45.9918 81.4632 44.2006 79.2752 44.2006H76.7556C75.9571 44.2006 75.3078 43.5465 75.3078 42.7437C75.3078 42.2123 75.5964 41.7221 76.0609 41.4669ZM76.7556 46.4833H79.2752C80.2132 46.4833 80.976 47.2509 80.976 48.1948C80.976 49.1381 80.2132 49.9057 79.2752 49.9057H74.9581C72.0403 49.9057 69.127 50.6198 66.5355 51.9723L61.2739 54.7185C59.4413 55.6741 58.3029 57.5606 58.3029 59.6377C58.3029 61.8205 60.0667 63.5947 62.2359 63.5947H65.0863C66.8014 63.5947 68.5049 63.0268 69.8834 61.9954L73.3305 59.4118C74.0519 58.8746 75.0723 58.9483 75.7054 59.5854C76.0849 59.9673 76.2769 60.4947 76.2321 61.0326C76.188 61.5698 75.9123 62.0574 75.4764 62.3714L71.895 64.9446C69.8354 66.425 67.3152 67.0882 64.7976 66.8108L59.3019 66.2037C58.1855 66.083 57.0606 66.442 56.2219 67.1985C55.3825 67.9538 54.9018 69.0374 54.9018 70.1719V71.5799H45.8324V70.4251C45.8324 67.8735 44.4273 65.5745 42.1653 64.4211L40.4314 63.5385C37.8106 62.203 34.6658 62.3923 32.2228 64.0314L29.7046 65.7214C28.7387 66.3689 27.4374 66.1443 26.7426 65.2109C26.3528 64.6874 26.2146 64.0216 26.3638 63.3851C26.513 62.7481 26.9321 62.2154 27.5133 61.9223L30.5887 60.3766C31.3548 59.9902 31.8744 59.2486 31.9789 58.3922C32.0833 57.5364 31.7577 56.6911 31.107 56.1304L24.5942 50.5115C23.9857 49.9866 23.8611 49.0845 24.3061 48.4129C24.792 47.6798 25.7813 47.4827 26.5033 47.9664C26.5052 47.967 26.6006 48.0316 26.6019 48.0329C28.1782 49.0898 30.3124 48.6589 31.362 47.0747C31.5598 46.7751 31.8783 46.5832 32.2345 46.5479C32.5951 46.5075 32.9409 46.6367 33.1939 46.8919L34.0236 47.7275C34.6042 48.3123 34.804 49.1616 34.5445 49.9442L34.3252 50.6074C33.8672 51.99 33.9717 53.4691 34.6191 54.7727L35.0505 55.6428C36.2207 57.9966 38.2018 59.8302 40.6305 60.8094L44.3839 62.3192C44.7595 62.4706 45.1863 62.408 45.5055 62.1567C45.8233 61.9047 45.9842 61.5013 45.9265 61.0979L44.9463 54.1969C44.6323 51.9808 43.9129 49.8711 42.8075 47.9233L40.2926 43.4963C40.0227 43.0211 39.9611 42.4695 40.1193 41.9447C40.277 41.4205 40.6325 40.9969 41.119 40.7514C42.0888 40.2645 43.2675 40.6627 43.7501 41.6353L45.2135 44.5792C45.3932 44.9415 45.75 45.1797 46.1503 45.2078C46.5661 45.2267 46.9371 45.0459 47.1635 44.7117L48.8534 42.2221C49.8433 40.7619 50.3668 39.0562 50.3668 37.2892C50.3668 34.8094 49.2633 32.498 47.3387 30.9483C45.1305 29.1702 42.1271 28.7211 39.4998 29.7832L34.7157 31.7127C34.2331 31.9066 33.6901 31.8811 33.227 31.6403C32.7645 31.3981 32.4297 30.9686 32.3091 30.4575C32.0898 29.5292 32.6295 28.5886 33.5364 28.3145L39.4343 26.539C39.7554 26.4417 40.0175 26.208 40.1498 25.8986C40.2828 25.5899 40.2731 25.238 40.1232 24.9358L37.2761 19.2052C36.7708 18.1882 37.1821 16.946 38.1927 16.4382C39.2008 15.9277 40.4372 16.3429 40.9425 17.3599L42.4903 20.4748C43.4283 22.362 44.8464 23.9802 46.5927 25.1505L50.2747 27.6219C52.1383 28.8706 54.6404 28.6232 56.2225 27.0292C57.8709 25.3705 58.059 22.7053 56.661 20.8293L55.8087 19.6844C55.2586 18.9467 55.3319 17.8971 55.9806 17.2444C56.362 16.8612 56.8874 16.6654 57.4252 16.7019C57.9701 16.7411 58.4508 17.0048 58.7784 17.4448L59.1598 17.9552C59.8169 18.8377 60.8185 19.4069 61.9083 19.5179C62.9936 19.6295 64.0925 19.2744 64.9111 18.5446C65.7544 17.7946 66.2384 16.715 66.2384 15.5811V13.9714C66.2384 13.0275 67.0006 12.2599 67.9386 12.2599C68.8766 12.2599 69.6395 13.0275 69.6395 13.9714V16.8501C69.6395 17.4807 70.1467 17.9905 70.7727 17.9905H73.5939C74.5384 17.9905 75.3078 18.764 75.3078 19.715C75.3078 20.6668 74.5384 21.4396 73.5939 21.4396H70.0034C67.1997 21.4396 64.6802 23.0075 63.4256 25.5298L62.2975 27.8001C62.1509 28.0964 62.1386 28.4417 62.2645 28.7466C62.3903 29.0521 62.6414 29.2884 62.9527 29.3922L64.2177 29.8165C64.6017 29.9457 64.8969 30.2407 65.0279 30.6252C65.1596 31.011 65.1064 31.4248 64.8813 31.7636C64.5466 32.2702 63.8959 32.4758 63.3322 32.2473L60.2483 31.0058C58.4806 30.2962 56.4749 30.714 55.1366 32.0756C54.2537 32.9712 53.7679 34.1599 53.7679 35.4217V36.2474C53.7679 38.9916 52.9823 41.6575 51.4961 43.9578C49.1595 47.5754 48.3357 51.8973 49.1764 56.1284L50.8105 64.3493C50.9188 64.8884 51.3995 65.2905 51.9405 65.2657C52.488 65.2572 52.9505 64.8558 53.04 64.3121L53.9657 58.7251C54.233 57.1134 55.1483 55.6506 56.4775 54.7126L56.9432 54.3843C59.2143 52.7824 60.5701 50.1596 60.5701 47.3691V43.6314C60.5701 42.6875 61.3323 41.9205 62.2703 41.9205C63.2083 41.9205 63.9705 42.6875 63.9705 43.6314V46.1282C63.9705 47.0669 64.4875 47.9141 65.3205 48.3371C66.1514 48.7614 67.1362 48.6805 67.8899 48.123C68.3259 47.7993 68.6483 47.3325 68.7968 46.809L70.4918 40.8383C71.0731 38.7932 72.4042 37.0856 74.24 36.0294L78.4747 33.594C78.8743 33.3635 79.34 33.3028 79.7824 33.4282C80.2268 33.5509 80.5966 33.8387 80.8236 34.2415C81.0532 34.6482 81.1097 35.1201 80.9825 35.5705C80.8554 36.0203 80.5609 36.3917 80.1528 36.6156L74.973 39.4649C73.7807 40.1202 73.0399 41.3781 73.0399 42.745C73.0399 44.8064 74.7071 46.4833 76.7556 46.4833Z" fill="#7BB7EF"/>
<circle cx="26" cy="25" r="21" fill="#1F2331"/>
<circle cx="26" cy="25" r="14" stroke="#7BB7EF" stroke-width="2"/>
<path d="M26.3692 23.4339C24.6321 22.9486 24.0735 22.4468 24.0735 21.6654C24.0735 20.7688 24.8464 20.1436 26.1396 20.1436C27.5017 20.1436 28.0067 20.8428 28.0527 21.871H29.7438C29.6902 20.4562 28.8867 19.1565 27.2874 18.737V16.9355H24.9918V18.7123C23.5073 19.0578 22.3135 20.0943 22.3135 21.6818C22.3135 23.582 23.7751 24.528 25.91 25.0791C27.8231 25.5726 28.2057 26.2965 28.2057 27.0615C28.2057 27.6291 27.8307 28.5339 26.1396 28.5339C24.5633 28.5339 23.9434 27.7772 23.8593 26.8065H22.1758C22.2676 28.608 23.5226 29.6197 24.9918 29.957V31.742H27.2874V29.9734C28.7796 29.6691 29.9657 28.7396 29.9657 27.0533C29.9657 24.7172 28.1062 23.9193 26.3692 23.4339Z" fill="#7BB7EF"/>
</svg>
