<svg width="79" height="79" viewBox="0 0 79 79" fill="none" xmlns="http://www.w3.org/2000/svg">
<path opacity="0.3" d="M76 40C76 53.2782 69.0055 64.9228 58.5 71.4503C52.8381 74.9683 46.1563 77 39 77C18.5655 77 2 60.4345 2 40C2 19.5655 18.5655 3 39 3C59.4345 3 76 19.5655 76 40Z" stroke="#7BB7EF" stroke-width="3"/>
<path d="M39 3C59.4345 3 76 19.5655 76 40C76 53.2782 69.0055 64.9228 58.5 71.4503" stroke="#7BB7EF" stroke-width="5" stroke-linecap="round"/>
<path d="M31.1836 51.3496C31.1836 51.8848 31.0215 52.3398 30.6973 52.7148C30.373 53.0898 29.918 53.3477 29.332 53.4883V53.5234C30.0234 53.6094 30.5469 53.8203 30.9023 54.1562C31.2578 54.4883 31.4355 54.9375 31.4355 55.5039C31.4355 56.3281 31.1367 56.9707 30.5391 57.4316C29.9414 57.8887 29.0879 58.1172 27.9785 58.1172C27.0488 58.1172 26.2246 57.9629 25.5059 57.6543V56.1133C25.8379 56.2812 26.2031 56.418 26.6016 56.5234C27 56.6289 27.3945 56.6816 27.7852 56.6816C28.3828 56.6816 28.8242 56.5801 29.1094 56.377C29.3945 56.1738 29.5371 55.8477 29.5371 55.3984C29.5371 54.9961 29.373 54.7109 29.0449 54.543C28.7168 54.375 28.1934 54.291 27.4746 54.291H26.8242V52.9023H27.4863C28.1504 52.9023 28.6348 52.8164 28.9395 52.6445C29.248 52.4688 29.4023 52.1699 29.4023 51.748C29.4023 51.0996 28.9961 50.7754 28.1836 50.7754C27.9023 50.7754 27.6152 50.8223 27.3223 50.916C27.0332 51.0098 26.7109 51.1719 26.3555 51.4023L25.5176 50.1543C26.2988 49.5918 27.2305 49.3105 28.3125 49.3105C29.1992 49.3105 29.8984 49.4902 30.4102 49.8496C30.9258 50.209 31.1836 50.709 31.1836 51.3496ZM39.6035 51.3262C40.377 51.3262 40.9824 51.6289 41.4199 52.2344C41.8574 52.8359 42.0762 53.6621 42.0762 54.7129C42.0762 55.7949 41.8496 56.6328 41.3965 57.2266C40.9473 57.8203 40.334 58.1172 39.5566 58.1172C38.7871 58.1172 38.1836 57.8379 37.7461 57.2793H37.623L37.3242 58H35.959V48.8828H37.7461V51.0039C37.7461 51.2734 37.7227 51.7051 37.6758 52.2988H37.7461C38.1641 51.6504 38.7832 51.3262 39.6035 51.3262ZM39.0293 52.7559C38.5879 52.7559 38.2656 52.8926 38.0625 53.166C37.8594 53.4355 37.7539 53.8828 37.7461 54.5078V54.7012C37.7461 55.4043 37.8496 55.9082 38.0566 56.2129C38.2676 56.5176 38.5996 56.6699 39.0527 56.6699C39.4199 56.6699 39.7109 56.502 39.9258 56.166C40.1445 55.8262 40.2539 55.334 40.2539 54.6895C40.2539 54.0449 40.1445 53.5625 39.9258 53.2422C39.707 52.918 39.4082 52.7559 39.0293 52.7559ZM43.4766 49.7559C43.4766 49.1738 43.8008 48.8828 44.4492 48.8828C45.0977 48.8828 45.4219 49.1738 45.4219 49.7559C45.4219 50.0332 45.3398 50.25 45.1758 50.4062C45.0156 50.5586 44.7734 50.6348 44.4492 50.6348C43.8008 50.6348 43.4766 50.3418 43.4766 49.7559ZM45.3398 58H43.5527V51.4492H45.3398V58ZM49.0078 58H47.2207V48.8828H49.0078V58Z" fill="#7BB7EF"/>
<path d="M41.89 27.11C41.5 26.72 40.83 26 39.53 26C39.32 26 38.11 26 36.99 26C34.24 25.99 32 23.75 32 21H30C30 24.16 32.11 26.84 35 27.71V41H37V35H39V41H41V29.05L44.95 33L46.36 31.59L41.89 27.11Z" fill="#7BB7EF"/>
</svg>
