<svg width="160" height="160" viewBox="0 0 160 160" fill="none" xmlns="http://www.w3.org/2000/svg">
<path opacity="0.4" d="M145.871 80.9334C145.826 80.3738 147.283 77.4261 146.754 77.4261C145.517 77.4633 143.458 79.4515 142.25 79.3663C141.826 79.3365 141.133 79.1178 140.237 78.8225C140.511 78.478 140.634 77.9184 140.177 77.8078C139.784 77.7129 139.356 78.13 139.096 78.4469C138.23 78.1661 137.241 77.8618 136.161 77.5962C136.165 77.4769 136.154 77.1687 135.982 76.792C135.762 76.3069 135.849 74.9635 135.541 75.0008C133.978 75.3237 132.579 76.4551 132.053 76.9227C131.218 76.8626 130.361 76.8518 129.493 76.912C123.046 77.3598 120.59 78.5582 119.707 78.8564C118.824 79.155 118.868 79.7146 119.575 79.7891C120.281 79.8639 121.503 80.5356 122.474 81.3938C122.474 81.3938 120.266 81.6548 119.648 81.431C119.03 81.2069 118.766 81.6176 119.251 81.9534C119.759 82.3046 121.721 82.9369 124.304 83.397C126.282 82.2541 126.11 80.2653 125.747 79.7078C125.335 79.0766 125.655 78.7751 126.111 79.5245C127.02 81.02 125.766 82.9198 125.282 83.5581C125.958 83.6601 126.666 83.7482 127.394 83.8155C127.26 83.4851 127.15 83.1929 127.084 83.0193C127.576 83.5599 128.551 84.6097 129.102 84.8886C129.764 85.2244 131.264 84.7393 131.309 84.2541C131.316 84.1678 131.202 84.0619 131.01 83.9459C132.504 83.9072 134.04 83.7486 135.473 83.5448C135.806 83.7847 136.51 84.2505 137.218 84.4407C138.025 84.2223 138.242 83.465 138.3 83.0744C140.295 82.6985 141.737 82.3458 141.985 82.3512C143.663 82.3888 146.236 84.3275 146.93 83.8066C147.327 83.508 145.912 81.4601 145.871 80.9334ZM122.777 79.9126C122.488 79.9126 122.253 79.7211 122.253 79.4852C122.253 79.2489 122.488 79.0573 122.777 79.0573C123.066 79.0573 123.301 79.2489 123.301 79.4852C123.301 79.7211 123.066 79.9126 122.777 79.9126Z" fill="#7BB7EF"/>
<path opacity="0.4" d="M91.911 26.1201C91.8679 25.4486 93.2729 21.9113 92.7623 21.9113C91.5704 21.956 89.5845 24.3418 88.4196 24.2396C88.0105 24.2039 87.3427 23.9414 86.4787 23.5869C86.7424 23.1736 86.8617 22.502 86.4204 22.3693C86.0416 22.2555 85.6292 22.756 85.378 23.1362C84.5428 22.7994 83.5892 22.4342 82.5486 22.1154C82.5519 21.9723 82.541 21.6024 82.3753 21.1504C82.1631 20.5683 82.2477 18.9563 81.9501 19.0009C80.4428 19.3885 79.0936 20.7461 78.5872 21.3072C77.7815 21.2351 76.9556 21.2222 76.1179 21.2944C69.9019 21.8318 67.5332 23.2698 66.6819 23.6277C65.8306 23.986 65.8728 24.6575 66.5543 24.7469C67.2357 24.8367 68.4132 25.6427 69.3499 26.6725C69.3499 26.6725 67.2213 26.9858 66.6253 26.7172C66.0293 26.4483 65.774 26.9411 66.2424 27.3441C66.7318 27.7655 68.6237 28.5243 71.1142 29.0764C73.0222 27.705 72.8565 25.3183 72.5057 24.6493C72.1084 23.8919 72.4177 23.5301 72.8574 24.4294C73.734 26.224 72.5243 28.5037 72.0576 29.2697C72.7094 29.3922 73.3925 29.4979 74.0941 29.5787C73.9648 29.1821 73.8591 28.8315 73.7957 28.6231C74.27 29.2719 75.2101 30.5316 75.7409 30.8663C76.3792 31.2693 77.8264 30.6871 77.8696 30.105C77.8764 30.0014 77.7665 29.8743 77.5813 29.7351C79.0218 29.6886 80.5029 29.4984 81.8851 29.2538C82.2054 29.5417 82.8851 30.1006 83.5673 30.3288C84.3459 30.0668 84.5547 29.158 84.6105 28.6893C86.5346 28.2382 87.9252 27.815 88.1644 27.8214C89.7825 27.8665 92.2636 30.193 92.9323 29.5679C93.3152 29.2096 91.9508 26.7521 91.911 26.1201ZM69.6424 24.8952C69.3634 24.8952 69.1368 24.6653 69.1368 24.3822C69.1368 24.0986 69.3634 23.8688 69.6424 23.8688C69.9205 23.8688 70.147 24.0987 70.147 24.3822C70.1471 24.6653 69.9205 24.8952 69.6424 24.8952Z" fill="#7BB7EF"/>
<path opacity="0.4" d="M55.8304 136.12C55.7841 135.449 57.2932 131.911 56.7447 131.911C55.4645 131.956 53.3315 134.342 52.0804 134.24C51.6409 134.204 50.9236 133.941 49.9956 133.587C50.2789 133.174 50.407 132.502 49.933 132.369C49.5262 132.255 49.0832 132.756 48.8134 133.136C47.9164 132.799 46.8921 132.434 45.7744 132.115C45.778 131.972 45.7662 131.602 45.5883 131.15C45.3604 130.568 45.4512 128.956 45.1316 129.001C43.5126 129.388 42.0635 130.746 41.5195 131.307C40.6542 131.235 39.7671 131.222 38.8673 131.294C32.1909 131.832 29.6468 133.27 28.7324 133.628C27.8181 133.986 27.8634 134.658 28.5953 134.747C29.3272 134.837 30.592 135.643 31.598 136.673C31.598 136.673 29.3117 136.986 28.6716 136.717C28.0315 136.448 27.7572 136.941 28.2603 137.344C28.786 137.766 30.8181 138.524 33.493 139.076C35.5423 137.705 35.3643 135.318 34.9876 134.649C34.5608 133.892 34.8931 133.53 35.3653 134.429C36.3068 136.224 35.0076 138.504 34.5064 139.27C35.2064 139.392 35.94 139.498 36.6937 139.579C36.5548 139.182 36.4413 138.832 36.3732 138.623C36.8825 139.272 37.8923 140.532 38.4625 140.866C39.148 141.269 40.7024 140.687 40.7488 140.105C40.7561 140.001 40.638 139.874 40.4392 139.735C41.9864 139.689 43.5772 139.498 45.0617 139.254C45.4058 139.542 46.1359 140.101 46.8686 140.329C47.7049 140.067 47.9292 139.158 47.9891 138.689C50.0557 138.238 51.5493 137.815 51.8062 137.821C53.5441 137.867 56.2091 140.193 56.9273 139.568C57.3386 139.21 55.8731 136.752 55.8304 136.12ZM31.9122 134.895C31.6125 134.895 31.3692 134.665 31.3692 134.382C31.3692 134.099 31.6125 133.869 31.9122 133.869C32.2109 133.869 32.4542 134.099 32.4542 134.382C32.4543 134.665 32.2109 134.895 31.9122 134.895Z" fill="#7BB7EF"/>
<path opacity="0.2" d="M32.153 85.1534C32.1195 84.7617 33.2123 82.6983 32.8151 82.6983C31.8881 82.7243 30.3435 84.1161 29.4375 84.0564C29.1193 84.0356 28.5999 83.8825 27.9279 83.6757C28.133 83.4346 28.2257 83.0428 27.8825 82.9654C27.5879 82.899 27.2671 83.191 27.0718 83.4128C26.4222 83.2163 25.6805 83.0033 24.8711 82.8173C24.8737 82.7339 24.8652 82.5181 24.7363 82.2544C24.5713 81.9148 24.6371 80.9745 24.4056 81.0005C23.2333 81.2266 22.1839 82.0186 21.79 82.3459C21.1634 82.3038 20.521 82.2963 19.8695 82.3384C15.0348 82.6519 13.1925 83.4907 12.5304 83.6995C11.8683 83.9085 11.9011 84.3002 12.4311 84.3524C12.9611 84.4047 13.877 84.8749 14.6055 85.4756C14.6055 85.4756 12.9499 85.6584 12.4863 85.5017C12.0228 85.3448 11.8242 85.6323 12.1885 85.8674C12.5692 86.1132 14.0407 86.5558 15.9777 86.8779C17.4617 86.0779 17.3328 84.6857 17.06 84.2955C16.751 83.8536 16.9916 83.6426 17.3335 84.1671C18.0153 85.214 17.0744 86.5438 16.7115 86.9907C17.2185 87.0621 17.7497 87.1238 18.2954 87.1709C18.1948 86.9396 18.1126 86.7351 18.0633 86.6135C18.4322 86.9919 19.1634 87.7268 19.5763 87.922C20.0727 88.1571 21.1983 87.8175 21.2319 87.4779C21.2372 87.4175 21.1517 87.3433 21.0077 87.2621C22.1281 87.235 23.28 87.124 24.355 86.9814C24.6042 87.1493 25.1329 87.4754 25.6635 87.6085C26.269 87.4556 26.4315 86.9255 26.4749 86.6521C27.9714 86.3889 29.0529 86.1421 29.239 86.1458C30.4975 86.1721 32.4273 87.5293 32.9473 87.1646C33.2452 86.9556 32.1839 85.522 32.153 85.1534ZM14.8329 84.4388C14.616 84.4388 14.4398 84.3047 14.4398 84.1396C14.4398 83.9742 14.616 83.8401 14.8329 83.8401C15.0493 83.8401 15.2255 83.9742 15.2255 84.1396C15.2255 84.3047 15.0493 84.4388 14.8329 84.4388Z" fill="#7BB7EF"/>
<path opacity="0.3" d="M151.113 56.3401C151.078 55.8364 152.222 53.1835 151.806 53.1835C150.835 53.217 149.217 55.0064 148.268 54.9297C147.934 54.9029 147.39 54.706 146.686 54.4402C146.901 54.1302 146.998 53.6265 146.639 53.527C146.33 53.4416 145.994 53.817 145.79 54.1022C145.109 53.8495 144.332 53.5757 143.484 53.3365C143.487 53.2292 143.478 52.9518 143.343 52.6128C143.17 52.1762 143.239 50.9672 142.996 51.0007C141.768 51.2913 140.669 52.3096 140.256 52.7304C139.6 52.6763 138.927 52.6666 138.244 52.7208C133.179 53.1238 131.249 54.2024 130.556 54.4708C129.862 54.7395 129.896 55.2432 130.452 55.3102C131.007 55.3775 131.966 55.982 132.73 56.7544C132.73 56.7544 130.995 56.9893 130.509 56.7879C130.024 56.5862 129.816 56.9558 130.197 57.258C130.596 57.5742 132.138 58.1432 134.167 58.5573C135.722 57.5287 135.587 55.7387 135.301 55.237C134.977 54.6689 135.229 54.3976 135.587 55.072C136.302 56.418 135.316 58.1278 134.936 58.7023C135.467 58.7941 136.023 58.8734 136.595 58.934C136.49 58.6366 136.404 58.3737 136.352 58.2173C136.738 58.7039 137.504 59.6487 137.937 59.8997C138.457 60.202 139.636 59.7653 139.671 59.3287C139.677 59.2511 139.587 59.1557 139.437 59.0513C140.61 59.0165 141.817 58.8738 142.943 58.6904C143.204 58.9062 143.758 59.3255 144.314 59.4966C144.949 59.3001 145.119 58.6185 145.164 58.267C146.732 57.9286 147.865 57.6112 148.06 57.6161C149.378 57.6499 151.4 59.3948 151.945 58.9259C152.257 58.6572 151.145 56.8141 151.113 56.3401ZM132.968 55.4214C132.741 55.4214 132.556 55.249 132.556 55.0366C132.556 54.824 132.741 54.6516 132.968 54.6516C133.194 54.6516 133.379 54.824 133.379 55.0366C133.379 55.249 133.195 55.4214 132.968 55.4214Z" fill="#7BB7EF"/>
<path opacity="0.3" d="M128.113 34.3401C128.078 33.8364 129.222 31.1835 128.806 31.1835C127.835 31.217 126.217 33.0064 125.268 32.9297C124.934 32.9029 124.39 32.706 123.686 32.4402C123.901 32.1302 123.998 31.6265 123.639 31.527C123.33 31.4416 122.994 31.817 122.79 32.1022C122.109 31.8495 121.332 31.5757 120.484 31.3365C120.487 31.2292 120.478 30.9518 120.343 30.6128C120.17 30.1762 120.239 28.9672 119.996 29.0007C118.768 29.2913 117.669 30.3096 117.256 30.7304C116.6 30.6763 115.927 30.6666 115.244 30.7208C110.179 31.1238 108.249 32.2024 107.556 32.4708C106.862 32.7395 106.896 33.2432 107.452 33.3102C108.007 33.3775 108.966 33.982 109.73 34.7544C109.73 34.7544 107.995 34.9893 107.509 34.7879C107.024 34.5862 106.816 34.9558 107.197 35.258C107.596 35.5742 109.138 36.1432 111.167 36.5573C112.722 35.5287 112.587 33.7387 112.301 33.237C111.977 32.6689 112.229 32.3976 112.587 33.072C113.302 34.418 112.316 36.1278 111.936 36.7023C112.467 36.7941 113.023 36.8734 113.595 36.934C113.49 36.6366 113.404 36.3737 113.352 36.2173C113.738 36.7039 114.504 37.6487 114.937 37.8997C115.457 38.202 116.636 37.7653 116.671 37.3287C116.677 37.2511 116.587 37.1557 116.437 37.0513C117.61 37.0165 118.817 36.8738 119.943 36.6904C120.204 36.9062 120.758 37.3255 121.314 37.4966C121.949 37.3001 122.119 36.6185 122.164 36.267C123.732 35.9286 124.865 35.6112 125.06 35.6161C126.378 35.6499 128.4 37.3948 128.945 36.9259C129.257 36.6572 128.145 34.8141 128.113 34.3401ZM109.968 33.4214C109.741 33.4214 109.556 33.249 109.556 33.0366C109.556 32.824 109.741 32.6516 109.968 32.6516C110.194 32.6516 110.379 32.824 110.379 33.0366C110.379 33.249 110.195 33.4214 109.968 33.4214Z" fill="#7BB7EF"/>
<path opacity="0.4" d="M32.911 59.5268C32.8679 58.9112 34.2729 55.6687 33.7623 55.6687C32.5704 55.7096 30.5845 57.8967 29.4196 57.8029C29.0105 57.7702 28.3427 57.5296 27.4787 57.2047C27.7424 56.8258 27.8617 56.2102 27.4204 56.0885C27.0416 55.9842 26.6292 56.443 26.378 56.7916C25.5428 56.4827 24.5892 56.148 23.5486 55.8558C23.5519 55.7246 23.541 55.3855 23.3753 54.9712C23.1631 54.4376 23.2477 52.9599 22.9501 53.0008C21.4428 53.3561 20.0936 54.6006 19.5872 55.115C18.7815 55.0488 17.9556 55.037 17.1179 55.1032C10.9019 55.5958 8.53319 56.914 7.6819 57.242C6.83061 57.5705 6.87285 58.1861 7.55428 58.268C8.23566 58.3503 9.41322 59.0892 10.3499 60.0332C10.3499 60.0332 8.22127 60.3203 7.62526 60.0741C7.02931 59.8276 6.77397 60.2793 7.24236 60.6487C7.73179 61.0351 9.62374 61.7306 12.1142 62.2367C14.0222 60.9796 13.8565 58.7918 13.5057 58.1786C13.1084 57.4842 13.4177 57.1526 13.8574 57.9769C14.734 59.622 13.5243 61.7117 13.0576 62.4139C13.7094 62.5262 14.3925 62.623 15.0941 62.6971C14.9648 62.3336 14.8591 62.0122 14.7957 61.8212C15.27 62.4159 16.2101 63.5706 16.7409 63.8774C17.3792 64.2468 18.8264 63.7132 18.8696 63.1796C18.8764 63.0846 18.7665 62.9681 18.5813 62.8405C20.0218 62.7979 21.5029 62.6235 22.8851 62.3993C23.2054 62.6632 23.8851 63.1756 24.5673 63.3848C25.3459 63.1445 25.5547 62.3115 25.6105 61.8818C27.5346 61.4683 28.9252 61.0804 29.1644 61.0863C30.7825 61.1277 33.2636 63.2603 33.9323 62.6873C34.3152 62.3588 32.9508 60.1061 32.911 59.5268ZM10.6424 58.4039C10.3634 58.4039 10.1368 58.1932 10.1368 57.9337C10.1368 57.6737 10.3634 57.4631 10.6424 57.4631C10.9205 57.4631 11.147 57.6738 11.147 57.9337C11.1471 58.1932 10.9205 58.4039 10.6424 58.4039Z" fill="#7BB7EF"/>
<path opacity="0.2" d="M145.234 110.153C145.203 109.762 146.192 107.698 145.833 107.698C144.994 107.724 143.597 109.116 142.777 109.056C142.489 109.036 142.019 108.882 141.411 108.676C141.597 108.435 141.68 108.043 141.37 107.965C141.103 107.899 140.813 108.191 140.636 108.413C140.049 108.216 139.378 108.003 138.645 107.817C138.648 107.734 138.64 107.518 138.523 107.254C138.374 106.915 138.434 105.974 138.224 106.001C137.163 106.227 136.214 107.019 135.858 107.346C135.291 107.304 134.71 107.296 134.12 107.338C129.746 107.652 128.079 108.491 127.48 108.699C126.881 108.909 126.911 109.3 127.39 109.352C127.87 109.405 128.698 109.875 129.357 110.476C129.357 110.476 127.859 110.658 127.44 110.502C127.021 110.345 126.841 110.632 127.171 110.867C127.515 111.113 128.846 111.556 130.599 111.878C131.942 111.078 131.825 109.686 131.578 109.295C131.298 108.854 131.516 108.643 131.826 109.167C132.442 110.214 131.591 111.544 131.263 111.991C131.721 112.062 132.202 112.124 132.696 112.171C132.605 111.94 132.53 111.735 132.486 111.613C132.82 111.992 133.481 112.727 133.855 112.922C134.304 113.157 135.322 112.817 135.353 112.478C135.357 112.417 135.28 112.343 135.15 112.262C136.163 112.235 137.206 112.124 138.178 111.981C138.404 112.149 138.882 112.475 139.362 112.608C139.91 112.456 140.057 111.926 140.096 111.652C141.45 111.389 142.429 111.142 142.597 111.146C143.736 111.172 145.482 112.529 145.952 112.165C146.222 111.956 145.262 110.522 145.234 110.153ZM129.563 109.439C129.367 109.439 129.207 109.305 129.207 109.14C129.207 108.974 129.367 108.84 129.563 108.84C129.759 108.84 129.918 108.974 129.918 109.14C129.918 109.305 129.759 109.439 129.563 109.439Z" fill="#7BB7EF"/>
<path opacity="0.2" d="M49.274 35.1534C49.2453 34.7617 50.182 32.6983 49.8415 32.6983C49.0469 32.7243 47.723 34.1161 46.9464 34.0564C46.6737 34.0356 46.2285 33.8825 45.6525 33.6757C45.8283 33.4346 45.9078 33.0428 45.6136 32.9654C45.3611 32.899 45.0861 33.191 44.9187 33.4128C44.3619 33.2163 43.7262 33.0033 43.0324 32.8173C43.0346 32.7339 43.0273 32.5181 42.9169 32.2544C42.7754 31.9148 42.8318 30.9745 42.6334 31.0005C41.6285 31.2266 40.729 32.0186 40.3914 32.3459C39.8544 32.3038 39.3037 32.2963 38.7452 32.3384C34.6013 32.6519 33.0221 33.4907 32.4546 33.6995C31.8871 33.9085 31.9152 34.3002 32.3695 34.3524C32.8238 34.4047 33.6088 34.8749 34.2333 35.4756C34.2333 35.4756 32.8142 35.6584 32.4168 35.5017C32.0195 35.3448 31.8493 35.6323 32.1616 35.8674C32.4879 36.1132 33.7492 36.5558 35.4094 36.8779C36.6814 36.0779 36.571 34.6857 36.3371 34.2955C36.0722 33.8536 36.2785 33.6426 36.5716 34.1671C37.156 35.214 36.3495 36.5438 36.0384 36.9907C36.473 37.0621 36.9283 37.1238 37.3961 37.1709C37.3099 36.9396 37.2394 36.7351 37.1971 36.6135C37.5133 36.9919 38.14 37.7268 38.494 37.922C38.9194 38.1571 39.8843 37.8175 39.913 37.4779C39.9176 37.4175 39.8443 37.3433 39.7209 37.2621C40.6812 37.235 41.6686 37.124 42.59 36.9814C42.8036 37.1493 43.2567 37.4754 43.7116 37.6085C44.2306 37.4556 44.3698 36.9255 44.407 36.6521C45.6897 36.3889 46.6168 36.1421 46.7763 36.1458C47.855 36.1721 49.5091 37.5293 49.9549 37.1646C50.2102 36.9556 49.3005 35.522 49.274 35.1534ZM34.4282 34.4388C34.2423 34.4388 34.0912 34.3047 34.0912 34.1396C34.0912 33.9742 34.2423 33.8401 34.4282 33.8401C34.6137 33.8401 34.7647 33.9742 34.7647 34.1396C34.7647 34.3047 34.6137 34.4388 34.4282 34.4388Z" fill="#7BB7EF"/>
<path opacity="0.2" d="M126.709 135.713C126.658 134.986 128.323 131.154 127.718 131.154C126.306 131.202 123.952 133.787 122.571 133.676C122.086 133.638 121.295 133.353 120.271 132.969C120.584 132.521 120.725 131.794 120.202 131.65C119.753 131.527 119.264 132.069 118.967 132.481C117.977 132.116 116.846 131.72 115.613 131.375C115.617 131.22 115.604 130.819 115.408 130.33C115.156 129.699 115.256 127.953 114.904 128.001C113.117 128.421 111.518 129.892 110.918 130.499C109.963 130.421 108.984 130.407 107.992 130.486C100.624 131.068 97.8171 132.626 96.8082 133.013C95.7992 133.402 95.8493 134.129 96.6569 134.226C97.4645 134.323 98.8601 135.196 99.9702 136.312C99.9702 136.312 97.4474 136.651 96.7411 136.36C96.0347 136.069 95.7321 136.603 96.2872 137.039C96.8673 137.496 99.1096 138.318 102.061 138.916C104.323 137.43 104.126 134.845 103.71 134.12C103.24 133.3 103.606 132.908 104.127 133.882C105.166 135.826 103.732 138.296 103.179 139.126C103.952 139.258 104.761 139.373 105.593 139.46C105.44 139.031 105.314 138.651 105.239 138.425C105.801 139.128 106.916 140.493 107.545 140.855C108.301 141.292 110.016 140.661 110.068 140.03C110.076 139.918 109.945 139.78 109.726 139.63C111.433 139.579 113.189 139.373 114.827 139.108C115.206 139.42 116.012 140.026 116.821 140.273C117.743 139.989 117.991 139.005 118.057 138.497C120.337 138.008 121.985 137.55 122.269 137.557C124.187 137.605 127.127 140.126 127.92 139.449C128.374 139.06 126.756 136.398 126.709 135.713ZM100.317 134.386C99.9862 134.386 99.7177 134.137 99.7177 133.831C99.7177 133.524 99.9862 133.275 100.317 133.275C100.646 133.275 100.915 133.524 100.915 133.831C100.915 134.137 100.647 134.386 100.317 134.386Z" fill="#7BB7EF"/>
<path opacity="0.3" d="M39.032 113.34C38.9937 112.836 40.2426 110.183 39.7887 110.183C38.7292 110.217 36.964 112.006 35.9286 111.93C35.5649 111.903 34.9713 111.706 34.2033 111.44C34.4377 111.13 34.5437 110.627 34.1514 110.527C33.8148 110.442 33.4481 110.817 33.2249 111.102C32.4825 110.85 31.6349 110.576 30.7098 110.337C30.7128 110.229 30.7031 109.952 30.5558 109.613C30.3672 109.176 30.4424 107.967 30.1779 108.001C28.838 108.291 27.6387 109.31 27.1886 109.73C26.4725 109.676 25.7383 109.667 24.9937 109.721C19.4684 110.124 17.3628 111.202 16.6061 111.471C15.8494 111.74 15.887 112.243 16.4927 112.31C17.0984 112.378 18.1451 112.982 18.9777 113.754C18.9777 113.754 17.0856 113.989 16.5558 113.788C16.0261 113.586 15.7991 113.956 16.2154 114.258C16.6505 114.574 18.3322 115.143 20.5459 115.557C22.2419 114.529 22.0946 112.739 21.7828 112.237C21.4297 111.669 21.7046 111.398 22.0954 112.072C22.8746 113.418 21.7994 115.128 21.3846 115.702C21.9639 115.794 22.5711 115.873 23.1948 115.934C23.0798 115.637 22.9859 115.374 22.9295 115.217C23.3511 115.704 24.1867 116.649 24.6586 116.9C25.2259 117.202 26.5124 116.765 26.5507 116.329C26.5568 116.251 26.4591 116.156 26.2945 116.051C27.5749 116.016 28.8915 115.874 30.1201 115.69C30.4048 115.906 31.009 116.325 31.6154 116.497C32.3075 116.3 32.4931 115.619 32.5427 115.267C34.253 114.929 35.4891 114.611 35.7017 114.616C37.14 114.65 39.3454 116.395 39.9398 115.926C40.2802 115.657 39.0674 113.814 39.032 113.34ZM19.2376 112.421C18.9897 112.421 18.7883 112.249 18.7883 112.037C18.7883 111.824 18.9897 111.652 19.2376 111.652C19.4849 111.652 19.6862 111.824 19.6862 112.037C19.6863 112.249 19.4849 112.421 19.2376 112.421Z" fill="#7BB7EF"/>
<path opacity="0.2" d="M85.395 125.56C85.3711 125.224 86.1516 123.456 85.868 123.456C85.2058 123.478 84.1025 124.671 83.4554 124.62C83.228 124.602 82.8571 124.471 82.3771 124.293C82.5236 124.087 82.5898 123.751 82.3447 123.685C82.1342 123.628 81.9051 123.878 81.7656 124.068C81.3016 123.9 80.7718 123.717 80.1936 123.558C80.1955 123.486 80.1894 123.301 80.0974 123.075C79.9795 122.784 80.0265 121.978 79.8612 122C79.0238 122.194 78.2742 122.873 77.9929 123.154C77.5453 123.118 77.0865 123.111 76.621 123.147C73.1677 123.416 71.8518 124.135 71.3788 124.314C70.9059 124.493 70.9294 124.829 71.3079 124.873C71.6865 124.918 72.3407 125.321 72.8611 125.836C72.8611 125.836 71.6785 125.993 71.3474 125.859C71.0163 125.724 70.8744 125.971 71.1346 126.172C71.4065 126.383 72.4576 126.762 73.8412 127.038C74.9012 126.352 74.8091 125.159 74.6143 124.825C74.3935 124.446 74.5654 124.265 74.8096 124.715C75.2966 125.612 74.6246 126.752 74.3654 127.135C74.7275 127.196 75.1069 127.249 75.4967 127.289C75.4249 127.091 75.3662 126.916 75.331 126.812C75.5944 127.136 76.1167 127.766 76.4116 127.933C76.7662 128.135 77.5702 127.844 77.5942 127.552C77.598 127.501 77.5369 127.437 77.4341 127.368C78.2343 127.344 79.0572 127.249 79.825 127.127C80.003 127.271 80.3806 127.55 80.7596 127.664C81.1922 127.533 81.3082 127.079 81.3392 126.845C82.4081 126.619 83.1807 126.407 83.3136 126.411C84.2125 126.433 85.5909 127.597 85.9624 127.284C86.1751 127.105 85.4171 125.876 85.395 125.56ZM73.0235 124.948C72.8686 124.948 72.7427 124.833 72.7427 124.691C72.7427 124.549 72.8686 124.434 73.0235 124.434C73.178 124.434 73.3039 124.549 73.3039 124.691C73.3039 124.833 73.1781 124.948 73.0235 124.948Z" fill="#7BB7EF"/>
<rect x="48.9492" y="50.8184" width="58.3648" height="58.3648" fill="#0E111B"/>
<path d="M70.0615 50.9453H49.0762V71.9306" stroke="#7BB7EF" stroke-width="2"/>
<path d="M107.189 71.9306L107.189 50.9453L86.2041 50.9453" stroke="#7BB7EF" stroke-width="2"/>
<path d="M86.2041 109.059L107.189 109.059L107.189 88.0733" stroke="#7BB7EF" stroke-width="2"/>
<path d="M49.0762 88.0733L49.0762 109.059L70.0615 109.059" stroke="#7BB7EF" stroke-width="2"/>
<path fill-rule="evenodd" clip-rule="evenodd" d="M91.2578 85.0816C89.2118 85.8662 87.7248 88.1283 87.7348 90.2486C87.7365 90.612 88.1759 90.6753 88.3635 90.3641V90.3641C89.2714 88.7853 90.7391 88.688 91.7775 89.7599C92.1751 90.1691 92.9632 90.4006 93.5492 90.3762C95.0606 90.3175 95.8919 90.8968 96.1027 92.399C96.148 92.7003 96.1854 92.9995 96.2228 93.2986C96.2603 93.5978 96.2977 93.897 96.343 94.1983C96.5255 95.424 96.4686 96.6124 95.9449 97.7563C95.8817 97.8965 95.8443 98.0476 95.8073 98.1966C95.8049 98.2064 95.8025 98.2163 95.8 98.2261C95.7853 98.2855 95.8034 98.3487 95.8544 98.3825V98.3825C95.9143 98.4222 95.9944 98.4118 96.0469 98.3626C96.0758 98.3355 96.1049 98.3084 96.1341 98.2811C96.324 98.104 96.5171 97.9237 96.6855 97.733C98.565 95.5607 98.871 92.9665 98.642 90.2288C98.6098 89.853 98.558 89.4768 98.5062 89.1003C98.4222 88.4908 98.3382 87.8804 98.3368 87.269C98.3347 86.7674 98.4845 86.2736 98.633 85.7844C98.6859 85.6104 98.7385 85.437 98.784 85.264C98.8334 85.0665 98.9048 84.8759 98.9758 84.6864C99.0816 84.4043 99.1865 84.1243 99.2166 83.8267C99.5413 80.7264 98.7952 77.803 96.9269 75.3789C93.1454 70.4715 88.6044 67.5854 82.486 66.3818C82.3904 66.3589 82.2218 66.3016 82.0283 66.2359V66.2359C81.6852 66.1195 81.589 65.6256 81.879 65.4083C82.1029 65.2406 82.3185 65.0812 82.53 64.9249V64.9249C83.0193 64.5633 82.9238 63.8141 82.3754 63.5506C81.9531 63.3477 81.5521 63.1345 81.3459 62.9708C80.8416 62.5698 80.5952 62.2576 80.3257 61.9162C80.1247 61.6615 79.9108 61.3906 79.5676 61.0544C78.9841 60.4811 78.7118 60.4148 78.2973 61.0164C77.0165 62.8853 75.2262 64.2073 73.3908 65.4702C72.8083 65.8654 72.0932 66.1242 71.4002 66.2477C67.088 66.9876 63.1658 68.4979 59.9771 71.6236C58.7565 72.8295 57.8052 74.2151 57.1657 75.7987C57.0667 76.0209 57.0536 76.4545 57.1957 76.58C57.3392 76.7261 57.7377 76.6716 57.9911 76.605C58.1887 76.5531 58.3662 76.4589 58.5459 76.3634V76.3634C58.6791 76.2927 58.8149 76.3991 58.7152 76.5122C58.7126 76.5153 58.7099 76.5183 58.7072 76.5214C57.9952 77.3055 58.0056 77.6243 59.0057 77.9463C60.2165 78.3382 61.4767 78.6963 62.7401 78.7862C65.564 78.9383 68.3978 78.9249 71.2316 78.9114C72.1077 78.911 72.7494 79.11 73.3998 79.7618C73.9419 80.3103 74.5532 80.7312 75.2321 81.0443C76.1056 81.4471 76.6409 80.4029 75.9522 79.7315V79.7315V79.7315C75.6924 79.4783 75.8303 79.0373 76.188 78.9769C78.157 78.6442 80.0911 78.3137 82.0251 77.9831C82.1317 77.9649 82.2382 77.9467 82.3448 77.9284C83.1542 77.7901 83.9497 78.174 84.4101 78.8539C85.0458 79.7929 85.6479 80.3936 86.7696 80.9562C87.0542 81.099 87.3298 80.7441 87.606 80.5858V80.5858V80.5858C87.9526 80.3872 87.4328 79.9902 87.1143 79.7493C86.7274 79.4567 86.3902 78.9313 86.062 78.4201V78.4201C85.7777 77.9772 86.043 77.2995 86.5672 77.2523C86.9963 77.2137 87.4233 77.2029 87.8431 77.2466C90.0002 77.4485 92.1434 77.7542 93.8888 79.2376C95.6671 80.75 95.3999 82.3527 93.92 83.8521C93.6265 84.1492 93.2076 84.3356 92.7961 84.5186C92.6922 84.5648 92.5887 84.6108 92.4879 84.6583C92.2641 84.7602 92.0282 84.8323 91.7899 84.9051C91.6125 84.9594 91.4338 85.014 91.2578 85.0816ZM63.3109 74.5815C63.6828 74.1604 63.6429 73.5176 63.2218 73.1457C62.8007 72.7738 62.1579 72.8137 61.786 73.2348C61.4141 73.6559 61.454 74.2987 61.8751 74.6706C62.2962 75.0425 62.939 75.0026 63.3109 74.5815Z" fill="#7BB7EF"/>
</svg>
