<svg width="150" height="108" viewBox="0 0 150 108" fill="none" xmlns="http://www.w3.org/2000/svg">
<path d="M47.6326 47.2746V68.9926H40.7828V41.6941L54.9242 41.7082C60.9307 41.7082 62.9768 45.9833 62.9768 49.8664V68.9926H56.1394V49.9022C56.1394 48.2756 55.3051 47.2746 53.2928 47.2746H47.6326V47.2746ZM94.2102 46.9484C91.8689 46.9484 90.0569 48.1632 89.3001 49.8123C88.8517 50.8024 88.6975 51.5613 88.6448 52.7735H99.1828C99.0477 49.8123 97.7171 46.9484 94.2102 46.9484ZM88.6448 57.4788C88.6448 61.0149 90.8228 63.6176 94.7114 63.6176C97.7369 63.6176 99.2406 62.7714 100.99 61.0149L105.221 65.0919C102.512 67.7911 99.6692 69.4302 94.6611 69.4302C88.104 69.4302 81.8288 65.8216 81.8288 55.3046C81.8288 46.3186 87.3076 41.2314 94.5069 41.2314C101.804 41.2314 106.02 47.1872 106.02 54.9884V57.4788H88.6448ZM76.0466 68.9585C70.4663 68.9585 68.0987 65.0379 68.0987 61.1655V34.2564H74.9378V41.6941H80.0934V47.2746H74.9378V60.7329C74.9378 62.3187 75.6797 63.199 77.3112 63.199H80.0934V68.9585H76.0466ZM34.6881 37.9216H27.7913V31.3093H34.6881V37.9216ZM34.7055 69.2796C29.5407 68.7787 27.7839 65.617 27.7839 61.9685L27.7914 41.6941H34.7055V69.2796H34.7055ZM116.905 68.6964C111.751 68.1946 110.003 65.0379 110.003 61.3943V30.3683H116.905V68.6964ZM141.036 34.8522C134.781 4.07073 75.5792 2.12209 37.4201 25.5682V28.1567C75.5404 8.38405 129.604 8.50053 134.53 36.8516C136.178 46.2262 130.944 56.0002 121.596 61.6182V68.9684C132.847 64.814 144.386 51.3424 141.036 34.8522ZM71.6716 88.7078C45.3359 91.1648 17.8922 87.3067 14.0522 66.5364C12.1726 56.2972 16.7941 45.4432 22.925 38.7012V35.096C11.8882 44.8641 5.89822 57.2308 9.34661 71.8431C13.748 90.5807 37.3014 101.199 73.2519 97.6731C87.4758 96.2719 106.093 91.6558 119.036 84.486V74.3002C107.292 81.3584 87.8575 87.1952 71.6716 88.7078Z" fill="white"/>
<path d="M124.884 32.4273C124.884 32.0895 124.689 31.9822 124.242 31.9822H123.811V32.9382C123.873 32.9382 124.187 32.9499 124.242 32.9499C124.689 32.9499 124.884 32.7993 124.884 32.4831V32.4274V32.4273ZM125.557 34.7978H125.046C125 34.7978 124.959 34.7687 124.939 34.7296L124.242 33.5365C124.23 33.5124 124.169 33.4832 124.146 33.4832H123.832V34.6664C123.832 34.7296 123.789 34.7978 123.707 34.7978H123.244C123.187 34.7978 123.129 34.7296 123.129 34.6664V31.6735C123.129 31.5005 123.196 31.4281 123.341 31.4056C123.504 31.384 123.948 31.369 124.187 31.369C125.036 31.369 125.549 31.6219 125.549 32.4274V32.4831C125.549 32.9815 125.304 33.2444 124.923 33.3734L125.646 34.6073C125.651 34.6322 125.667 34.6664 125.667 34.6955C125.667 34.7437 125.638 34.7978 125.557 34.7978L125.557 34.7978ZM124.343 30.829C123.085 30.829 122.068 31.8773 122.068 33.1396C122.068 34.4034 123.085 35.4352 124.343 35.4352C125.595 35.4352 126.622 34.4034 126.622 33.1396C126.622 31.8773 125.595 30.829 124.343 30.829ZM124.343 35.9111C122.815 35.9111 121.596 34.6664 121.596 33.1396C121.596 31.6153 122.815 30.3672 124.343 30.3672C125.855 30.3672 127.098 31.6153 127.098 33.1396C127.098 34.6664 125.855 35.9111 124.343 35.9111Z" fill="white"/>
</svg>
