<svg width="601" height="586" viewBox="0 0 601 586" fill="none" xmlns="http://www.w3.org/2000/svg">
<g clip-path="url(#clip0)">
<rect width="601" height="586" fill="#0E111B"/>
<path d="M147.543 107.847C150.548 14.2096 271.619 -20.8779 324.227 56.6424C347.997 91.669 391.618 107.406 432.276 95.6232C522.259 69.5452 593.042 173.848 535.573 247.836C509.606 281.267 508.118 327.616 531.889 362.643C584.497 440.163 507.172 539.713 419.046 507.92C379.227 493.555 334.687 506.463 308.72 539.894C251.251 613.882 132.678 571.104 135.683 477.467C137.04 435.158 111 396.787 71.1815 382.421C-16.9445 350.628 -12.9017 224.64 77.0813 198.562C117.739 186.779 146.185 150.156 147.543 107.847Z" stroke="#7BB7EF"/>
<path opacity="0.5" d="M170.325 134.691C172.859 55.7226 274.963 26.1319 319.329 91.5079C339.414 121.103 376.271 134.4 410.624 124.444C486.511 102.452 546.205 190.415 497.739 252.812C475.798 281.059 474.541 320.221 494.626 349.817C538.992 415.193 473.781 499.147 399.461 472.335C365.817 460.197 328.183 471.104 306.242 499.351C257.776 561.748 157.779 525.672 160.313 446.704C161.46 410.955 139.458 378.533 105.813 366.396C31.4929 339.583 34.9024 233.332 110.789 211.34C145.142 201.384 169.178 170.439 170.325 134.691Z" stroke="#7BB7EF"/>
<path opacity="0.3" d="M191.666 159.837C193.759 94.6098 278.096 70.1682 314.742 124.168C331.373 148.676 361.895 159.687 390.343 151.443C453.024 133.277 502.331 205.933 462.298 257.472C444.129 280.864 443.089 313.294 459.72 337.802C496.366 391.802 442.503 461.147 381.115 439.001C353.255 428.949 322.09 437.981 303.921 461.372C263.889 512.911 181.292 483.113 183.385 417.886C184.335 388.283 166.115 361.435 138.254 351.384C76.8666 329.237 79.6828 241.475 142.364 223.309C170.812 215.065 190.716 189.44 191.666 159.837Z" stroke="#7BB7EF"/>
<rect x="391" y="54" width="152" height="152" rx="76" fill="url(#paint0_linear)"/>
<rect x="391" y="54" width="152" height="152" rx="76" fill="url(#paint1_radial)"/>
<rect x="391" y="54" width="152" height="152" rx="76" fill="url(#paint2_linear)"/>
<rect x="57" y="42" width="154.203" height="152" rx="76" fill="url(#paint3_linear)"/>
<rect x="57" y="42" width="154.203" height="152" rx="76" fill="url(#paint4_radial)"/>
<rect x="57" y="42" width="154.203" height="152" rx="76" fill="url(#paint5_linear)"/>
<rect x="168" y="165" width="249" height="250" rx="124.5" fill="url(#paint6_linear)"/>
<rect x="168" y="165" width="249" height="250" rx="124.5" fill="url(#paint7_radial)"/>
<rect x="168" y="165" width="249" height="250" rx="124.5" fill="url(#paint8_linear)"/>
<path d="M239.438 341.578H242.992C244.612 341.578 245.786 341.81 246.516 342.273C247.25 342.732 247.617 343.464 247.617 344.469C247.617 345.151 247.456 345.711 247.133 346.148C246.815 346.586 246.391 346.849 245.859 346.938V347.016C246.583 347.177 247.104 347.479 247.422 347.922C247.745 348.365 247.906 348.953 247.906 349.688C247.906 350.729 247.529 351.542 246.773 352.125C246.023 352.708 245.003 353 243.711 353H239.438V341.578ZM241.859 346.102H243.266C243.922 346.102 244.396 346 244.688 345.797C244.984 345.594 245.133 345.258 245.133 344.789C245.133 344.352 244.971 344.039 244.648 343.852C244.331 343.659 243.826 343.562 243.133 343.562H241.859V346.102ZM241.859 348.023V351H243.438C244.104 351 244.596 350.872 244.914 350.617C245.232 350.362 245.391 349.971 245.391 349.445C245.391 348.497 244.714 348.023 243.359 348.023H241.859ZM253.617 345.797C253.112 345.797 252.716 345.958 252.43 346.281C252.143 346.599 251.979 347.052 251.938 347.641H255.281C255.271 347.052 255.117 346.599 254.82 346.281C254.523 345.958 254.122 345.797 253.617 345.797ZM253.953 353.156C252.547 353.156 251.448 352.768 250.656 351.992C249.865 351.216 249.469 350.117 249.469 348.695C249.469 347.232 249.833 346.102 250.562 345.305C251.297 344.503 252.31 344.102 253.602 344.102C254.836 344.102 255.797 344.453 256.484 345.156C257.172 345.859 257.516 346.831 257.516 348.07V349.227H251.883C251.909 349.904 252.109 350.432 252.484 350.812C252.859 351.193 253.385 351.383 254.062 351.383C254.589 351.383 255.086 351.328 255.555 351.219C256.023 351.109 256.513 350.935 257.023 350.695V352.539C256.607 352.747 256.161 352.901 255.688 353C255.214 353.104 254.635 353.156 253.953 353.156ZM263.133 351.258C263.549 351.258 264.049 351.167 264.633 350.984V352.758C264.039 353.023 263.31 353.156 262.445 353.156C261.492 353.156 260.797 352.917 260.359 352.438C259.927 351.953 259.711 351.229 259.711 350.266V346.055H258.57V345.047L259.883 344.25L260.57 342.406H262.094V344.266H264.539V346.055H262.094V350.266C262.094 350.604 262.188 350.854 262.375 351.016C262.568 351.177 262.82 351.258 263.133 351.258ZM270.086 351.258C270.503 351.258 271.003 351.167 271.586 350.984V352.758C270.992 353.023 270.263 353.156 269.398 353.156C268.445 353.156 267.75 352.917 267.312 352.438C266.88 351.953 266.664 351.229 266.664 350.266V346.055H265.523V345.047L266.836 344.25L267.523 342.406H269.047V344.266H271.492V346.055H269.047V350.266C269.047 350.604 269.141 350.854 269.328 351.016C269.521 351.177 269.773 351.258 270.086 351.258ZM276.977 345.797C276.471 345.797 276.076 345.958 275.789 346.281C275.503 346.599 275.339 347.052 275.297 347.641H278.641C278.63 347.052 278.477 346.599 278.18 346.281C277.883 345.958 277.482 345.797 276.977 345.797ZM277.312 353.156C275.906 353.156 274.807 352.768 274.016 351.992C273.224 351.216 272.828 350.117 272.828 348.695C272.828 347.232 273.193 346.102 273.922 345.305C274.656 344.503 275.669 344.102 276.961 344.102C278.195 344.102 279.156 344.453 279.844 345.156C280.531 345.859 280.875 346.831 280.875 348.07V349.227H275.242C275.268 349.904 275.469 350.432 275.844 350.812C276.219 351.193 276.745 351.383 277.422 351.383C277.948 351.383 278.445 351.328 278.914 351.219C279.383 351.109 279.872 350.935 280.383 350.695V352.539C279.966 352.747 279.521 352.901 279.047 353C278.573 353.104 277.995 353.156 277.312 353.156ZM287.688 344.102C288.01 344.102 288.279 344.125 288.492 344.172L288.312 346.406C288.12 346.354 287.885 346.328 287.609 346.328C286.849 346.328 286.255 346.523 285.828 346.914C285.406 347.305 285.195 347.852 285.195 348.555V353H282.812V344.266H284.617L284.969 345.734H285.086C285.357 345.245 285.721 344.852 286.18 344.555C286.643 344.253 287.146 344.102 287.688 344.102ZM300.328 350.406C300.328 351.302 300.016 351.984 299.391 352.453C298.771 352.922 297.841 353.156 296.602 353.156C295.966 353.156 295.424 353.112 294.977 353.023C294.529 352.94 294.109 352.815 293.719 352.648V350.68C294.161 350.888 294.659 351.062 295.211 351.203C295.768 351.344 296.258 351.414 296.68 351.414C297.544 351.414 297.977 351.164 297.977 350.664C297.977 350.477 297.919 350.326 297.805 350.211C297.69 350.091 297.492 349.958 297.211 349.812C296.93 349.661 296.555 349.487 296.086 349.289C295.414 349.008 294.919 348.747 294.602 348.508C294.289 348.268 294.06 347.995 293.914 347.688C293.773 347.375 293.703 346.992 293.703 346.539C293.703 345.763 294.003 345.164 294.602 344.742C295.206 344.315 296.06 344.102 297.164 344.102C298.216 344.102 299.24 344.331 300.234 344.789L299.516 346.508C299.078 346.32 298.669 346.167 298.289 346.047C297.909 345.927 297.521 345.867 297.125 345.867C296.422 345.867 296.07 346.057 296.07 346.438C296.07 346.651 296.182 346.836 296.406 346.992C296.635 347.148 297.133 347.38 297.898 347.688C298.581 347.964 299.081 348.221 299.398 348.461C299.716 348.701 299.951 348.977 300.102 349.289C300.253 349.602 300.328 349.974 300.328 350.406ZM305.805 345.797C305.299 345.797 304.904 345.958 304.617 346.281C304.331 346.599 304.167 347.052 304.125 347.641H307.469C307.458 347.052 307.305 346.599 307.008 346.281C306.711 345.958 306.31 345.797 305.805 345.797ZM306.141 353.156C304.734 353.156 303.635 352.768 302.844 351.992C302.052 351.216 301.656 350.117 301.656 348.695C301.656 347.232 302.021 346.102 302.75 345.305C303.484 344.503 304.497 344.102 305.789 344.102C307.023 344.102 307.984 344.453 308.672 345.156C309.359 345.859 309.703 346.831 309.703 348.07V349.227H304.07C304.096 349.904 304.297 350.432 304.672 350.812C305.047 351.193 305.573 351.383 306.25 351.383C306.776 351.383 307.273 351.328 307.742 351.219C308.211 351.109 308.701 350.935 309.211 350.695V352.539C308.794 352.747 308.349 352.901 307.875 353C307.401 353.104 306.823 353.156 306.141 353.156ZM315.188 353.156C312.469 353.156 311.109 351.664 311.109 348.68C311.109 347.195 311.479 346.062 312.219 345.281C312.958 344.495 314.018 344.102 315.398 344.102C316.409 344.102 317.315 344.299 318.117 344.695L317.414 346.539C317.039 346.388 316.69 346.266 316.367 346.172C316.044 346.073 315.721 346.023 315.398 346.023C314.159 346.023 313.539 346.904 313.539 348.664C313.539 350.372 314.159 351.227 315.398 351.227C315.857 351.227 316.281 351.167 316.672 351.047C317.062 350.922 317.453 350.729 317.844 350.469V352.508C317.458 352.753 317.068 352.922 316.672 353.016C316.281 353.109 315.786 353.156 315.188 353.156ZM326.062 353L325.742 351.883H325.617C325.362 352.289 325 352.604 324.531 352.828C324.062 353.047 323.529 353.156 322.93 353.156C321.904 353.156 321.13 352.883 320.609 352.336C320.089 351.784 319.828 350.992 319.828 349.961V344.266H322.211V349.367C322.211 349.997 322.323 350.471 322.547 350.789C322.771 351.102 323.128 351.258 323.617 351.258C324.284 351.258 324.766 351.036 325.062 350.594C325.359 350.146 325.508 349.406 325.508 348.375V344.266H327.891V353H326.062ZM335.266 344.102C335.589 344.102 335.857 344.125 336.07 344.172L335.891 346.406C335.698 346.354 335.464 346.328 335.188 346.328C334.427 346.328 333.833 346.523 333.406 346.914C332.984 347.305 332.773 347.852 332.773 348.555V353H330.391V344.266H332.195L332.547 345.734H332.664C332.935 345.245 333.299 344.852 333.758 344.555C334.221 344.253 334.724 344.102 335.266 344.102ZM337.555 342.008C337.555 341.232 337.987 340.844 338.852 340.844C339.716 340.844 340.148 341.232 340.148 342.008C340.148 342.378 340.039 342.667 339.82 342.875C339.607 343.078 339.284 343.18 338.852 343.18C337.987 343.18 337.555 342.789 337.555 342.008ZM340.039 353H337.656V344.266H340.039V353ZM346.227 351.258C346.643 351.258 347.143 351.167 347.727 350.984V352.758C347.133 353.023 346.404 353.156 345.539 353.156C344.586 353.156 343.891 352.917 343.453 352.438C343.021 351.953 342.805 351.229 342.805 350.266V346.055H341.664V345.047L342.977 344.25L343.664 342.406H345.188V344.266H347.633V346.055H345.188V350.266C345.188 350.604 345.281 350.854 345.469 351.016C345.661 351.177 345.914 351.258 346.227 351.258ZM348.25 344.266H350.859L352.508 349.18C352.648 349.607 352.745 350.112 352.797 350.695H352.844C352.901 350.159 353.013 349.654 353.18 349.18L354.797 344.266H357.352L353.656 354.117C353.318 355.029 352.833 355.711 352.203 356.164C351.578 356.617 350.846 356.844 350.008 356.844C349.596 356.844 349.193 356.799 348.797 356.711V354.82C349.083 354.888 349.396 354.922 349.734 354.922C350.156 354.922 350.523 354.792 350.836 354.531C351.154 354.276 351.401 353.888 351.578 353.367L351.719 352.938L348.25 344.266Z" fill="white"/>
<rect x="76" y="410" width="152" height="152" rx="76" fill="url(#paint9_linear)"/>
<rect x="76" y="410" width="152" height="152" rx="76" fill="url(#paint10_radial)"/>
<rect x="76" y="410" width="152" height="152" rx="76" fill="url(#paint11_linear)"/>
<path d="M130.156 515V505.006H132.275V513.25H136.329V515H130.156ZM139.569 511.165C139.569 511.922 139.692 512.493 139.938 512.881C140.189 513.268 140.595 513.462 141.155 513.462C141.711 513.462 142.11 513.271 142.352 512.888C142.598 512.5 142.721 511.926 142.721 511.165C142.721 510.409 142.598 509.841 142.352 509.463C142.105 509.085 141.702 508.896 141.142 508.896C140.586 508.896 140.185 509.085 139.938 509.463C139.692 509.837 139.569 510.404 139.569 511.165ZM144.854 511.165C144.854 512.409 144.525 513.382 143.869 514.084C143.213 514.786 142.299 515.137 141.128 515.137C140.394 515.137 139.747 514.977 139.187 514.658C138.626 514.335 138.195 513.872 137.895 513.271C137.594 512.669 137.443 511.967 137.443 511.165C137.443 509.916 137.769 508.946 138.421 508.253C139.073 507.56 139.989 507.214 141.169 507.214C141.903 507.214 142.55 507.373 143.11 507.692C143.671 508.011 144.102 508.469 144.402 509.066C144.703 509.663 144.854 510.363 144.854 511.165ZM152.858 515L152.271 512.327L151.478 508.95H151.43L150.035 515H147.793L145.619 507.357H147.697L148.579 510.741C148.72 511.347 148.864 512.184 149.01 513.25H149.051C149.069 512.904 149.149 512.354 149.29 511.603L149.399 511.021L150.343 507.357H152.64L153.535 511.021C153.553 511.122 153.581 511.27 153.617 511.466C153.658 511.662 153.697 511.871 153.733 512.095C153.77 512.313 153.802 512.53 153.829 512.744C153.861 512.954 153.879 513.122 153.884 513.25H153.925C153.966 512.922 154.039 512.473 154.144 511.903C154.248 511.329 154.324 510.942 154.369 510.741L155.285 507.357H157.329L155.128 515H152.858ZM161.731 508.697C161.289 508.697 160.943 508.839 160.692 509.121C160.442 509.399 160.298 509.796 160.262 510.311H163.188C163.178 509.796 163.044 509.399 162.784 509.121C162.524 508.839 162.174 508.697 161.731 508.697ZM162.025 515.137C160.795 515.137 159.833 514.797 159.141 514.118C158.448 513.439 158.102 512.478 158.102 511.233C158.102 509.953 158.421 508.964 159.059 508.267C159.701 507.565 160.588 507.214 161.718 507.214C162.798 507.214 163.639 507.521 164.24 508.137C164.842 508.752 165.143 509.602 165.143 510.687V511.698H160.214C160.237 512.291 160.412 512.753 160.74 513.086C161.068 513.419 161.529 513.585 162.121 513.585C162.581 513.585 163.017 513.537 163.427 513.441C163.837 513.346 164.265 513.193 164.712 512.983V514.597C164.347 514.779 163.958 514.913 163.543 515C163.128 515.091 162.622 515.137 162.025 515.137ZM171.104 507.214C171.386 507.214 171.621 507.234 171.808 507.275L171.65 509.23C171.482 509.185 171.277 509.162 171.035 509.162C170.37 509.162 169.85 509.333 169.477 509.675C169.107 510.017 168.923 510.495 168.923 511.11V515H166.838V507.357H168.417L168.725 508.643H168.827C169.064 508.214 169.383 507.87 169.784 507.61C170.19 507.346 170.63 507.214 171.104 507.214ZM127.941 532H125.856V521.363H127.941V532ZM134.989 532L134.586 530.961H134.531C134.18 531.403 133.818 531.711 133.444 531.884C133.075 532.052 132.592 532.137 131.995 532.137C131.261 532.137 130.683 531.927 130.259 531.508C129.84 531.089 129.63 530.492 129.63 529.717C129.63 528.906 129.912 528.309 130.478 527.926C131.047 527.538 131.904 527.324 133.048 527.283L134.374 527.242V526.907C134.374 526.132 133.978 525.745 133.185 525.745C132.574 525.745 131.856 525.93 131.031 526.299L130.341 524.891C131.22 524.43 132.196 524.2 133.267 524.2C134.292 524.2 135.078 524.424 135.625 524.87C136.172 525.317 136.445 525.996 136.445 526.907V532H134.989ZM134.374 528.459L133.567 528.486C132.961 528.505 132.51 528.614 132.214 528.814C131.918 529.015 131.77 529.32 131.77 529.73C131.77 530.318 132.107 530.612 132.781 530.612C133.264 530.612 133.649 530.473 133.937 530.195C134.228 529.917 134.374 529.548 134.374 529.088V528.459ZM141.818 530.476C142.183 530.476 142.62 530.396 143.131 530.236V531.788C142.611 532.021 141.973 532.137 141.217 532.137C140.383 532.137 139.774 531.927 139.392 531.508C139.013 531.084 138.824 530.451 138.824 529.607V525.923H137.826V525.041L138.975 524.344L139.576 522.73H140.909V524.357H143.049V525.923H140.909V529.607C140.909 529.904 140.991 530.122 141.155 530.264C141.324 530.405 141.545 530.476 141.818 530.476ZM147.848 525.697C147.406 525.697 147.059 525.839 146.809 526.121C146.558 526.399 146.414 526.796 146.378 527.311H149.304C149.295 526.796 149.16 526.399 148.9 526.121C148.641 525.839 148.29 525.697 147.848 525.697ZM148.142 532.137C146.911 532.137 145.95 531.797 145.257 531.118C144.564 530.439 144.218 529.478 144.218 528.233C144.218 526.953 144.537 525.964 145.175 525.267C145.817 524.565 146.704 524.214 147.834 524.214C148.914 524.214 149.755 524.521 150.356 525.137C150.958 525.752 151.259 526.602 151.259 527.687V528.698H146.33C146.353 529.291 146.528 529.753 146.856 530.086C147.185 530.419 147.645 530.585 148.237 530.585C148.698 530.585 149.133 530.537 149.543 530.441C149.953 530.346 150.382 530.193 150.828 529.983V531.597C150.464 531.779 150.074 531.913 149.659 532C149.244 532.091 148.739 532.137 148.142 532.137ZM160.009 532H157.924V527.536C157.924 526.985 157.826 526.572 157.63 526.299C157.434 526.021 157.122 525.882 156.693 525.882C156.11 525.882 155.688 526.078 155.429 526.47C155.169 526.857 155.039 527.502 155.039 528.404V532H152.954V524.357H154.547L154.827 525.335H154.943C155.176 524.966 155.495 524.688 155.9 524.501C156.311 524.31 156.775 524.214 157.295 524.214C158.184 524.214 158.858 524.455 159.318 524.938C159.779 525.417 160.009 526.11 160.009 527.017V532ZM165.259 532.137C162.88 532.137 161.69 530.831 161.69 528.22C161.69 526.921 162.014 525.93 162.661 525.246C163.308 524.558 164.236 524.214 165.443 524.214C166.327 524.214 167.12 524.387 167.822 524.733L167.207 526.347C166.879 526.215 166.574 526.107 166.291 526.025C166.008 525.939 165.726 525.896 165.443 525.896C164.359 525.896 163.816 526.666 163.816 528.206C163.816 529.701 164.359 530.448 165.443 530.448C165.844 530.448 166.216 530.396 166.558 530.291C166.899 530.182 167.241 530.013 167.583 529.785V531.569C167.246 531.784 166.904 531.932 166.558 532.014C166.216 532.096 165.783 532.137 165.259 532.137ZM168.267 524.357H170.55L171.992 528.657C172.115 529.031 172.2 529.473 172.245 529.983H172.286C172.336 529.514 172.434 529.072 172.58 528.657L173.995 524.357H176.23L172.997 532.978C172.701 533.775 172.277 534.372 171.726 534.769C171.179 535.165 170.538 535.363 169.805 535.363C169.445 535.363 169.091 535.325 168.745 535.247V533.593C168.996 533.652 169.269 533.682 169.565 533.682C169.935 533.682 170.256 533.568 170.529 533.34C170.807 533.117 171.024 532.777 171.179 532.321L171.302 531.945L168.267 524.357Z" fill="white"/>
<path d="M152.211 475.577C151.918 475.577 151.623 475.465 151.399 475.241C150.95 474.792 150.95 474.065 151.399 473.616L155.408 469.607C155.856 469.158 156.584 469.158 157.033 469.607C157.481 470.055 157.481 470.783 157.033 471.232L153.024 475.241C152.799 475.465 152.505 475.577 152.211 475.577Z" fill="white"/>
<path d="M154.255 474.756C154.439 473.621 153.668 472.551 152.533 472.367C151.398 472.183 150.329 472.954 150.145 474.089C149.961 475.224 150.732 476.294 151.867 476.478C153.002 476.662 154.071 475.891 154.255 474.756Z" fill="white"/>
<path d="M140.48 464.984C140.436 465.028 140.426 465.079 140.426 465.114C140.426 465.148 140.436 465.199 140.48 465.244L141.629 466.392C141.907 466.671 141.907 467.122 141.629 467.4C141.49 467.539 141.307 467.608 141.125 467.608C140.943 467.608 140.76 467.539 140.621 467.4L139.472 466.251C139.169 465.947 139.001 465.543 139.001 465.114C139.001 464.684 139.169 464.28 139.472 463.976L141.651 461.797C141.955 461.494 142.359 461.326 142.789 461.326C143.218 461.326 143.622 461.494 143.926 461.797L145.075 462.946C145.353 463.224 145.353 463.675 145.075 463.953C144.797 464.232 144.346 464.232 144.068 463.953L142.919 462.805C142.874 462.76 142.823 462.751 142.789 462.751C142.754 462.751 142.703 462.76 142.659 462.805L140.48 464.984ZM163.918 465.244C163.99 465.172 163.99 465.055 163.918 464.984L161.74 462.805C161.668 462.733 161.551 462.733 161.48 462.805L160.331 463.953C160.052 464.232 159.601 464.232 159.323 463.953C159.045 463.675 159.045 463.224 159.323 462.946L160.472 461.797C160.776 461.494 161.18 461.326 161.61 461.326C162.039 461.326 162.443 461.494 162.747 461.797L164.926 463.976C165.229 464.28 165.397 464.684 165.397 465.114C165.397 465.543 165.229 465.947 164.926 466.251L163.777 467.4C163.638 467.539 163.455 467.608 163.273 467.608C163.091 467.608 162.909 467.539 162.769 467.4C162.491 467.122 162.491 466.67 162.769 466.392L163.918 465.244ZM154.395 462.719V460.675H154.602C155.762 460.675 156.706 459.731 156.706 458.571V457.441C156.706 456.281 155.763 455.337 154.602 455.337H149.82C148.66 455.337 147.716 456.281 147.716 457.441V458.571C147.716 459.731 148.66 460.675 149.82 460.675H150.027V462.719C144.498 463.748 140.298 468.605 140.298 474.428C140.298 480.997 145.642 486.341 152.211 486.341C158.78 486.341 164.125 480.997 164.125 474.428C164.124 468.605 159.924 463.748 154.395 462.719ZM149.141 458.572V457.441C149.141 457.067 149.445 456.762 149.82 456.762H154.602C154.976 456.762 155.281 457.067 155.281 457.441V458.572C155.281 458.946 154.977 459.25 154.602 459.25H149.82C149.445 459.25 149.141 458.946 149.141 458.572ZM151.451 460.675H152.97V462.541C152.719 462.525 152.466 462.515 152.211 462.515C151.956 462.515 151.703 462.525 151.451 462.541V460.675ZM152.211 484.916C146.428 484.916 141.722 480.211 141.722 474.428C141.722 468.645 146.428 463.939 152.211 463.939C157.994 463.939 162.699 468.645 162.699 474.428C162.699 480.211 157.994 484.916 152.211 484.916ZM180.422 468.343C180.422 474.464 175.442 479.445 169.32 479.445H165.604C165.21 479.445 164.892 479.126 164.892 478.732C164.892 478.339 165.21 478.02 165.604 478.02H169.32C174.656 478.02 178.997 473.679 178.997 468.343C178.997 463.007 174.656 458.666 169.32 458.666C169.262 458.666 169.204 458.667 169.145 458.668C169.141 458.668 169.137 458.668 169.132 458.668C168.792 458.668 168.497 458.426 168.433 458.09C167.56 453.549 163.563 450.253 158.931 450.253C157.534 450.253 156.186 450.544 154.925 451.119C154.576 451.277 154.163 451.132 153.992 450.788C152.342 447.48 149.022 445.425 145.328 445.425C139.992 445.425 135.651 449.766 135.651 455.102C135.651 456.006 135.775 456.9 136.021 457.761C136.083 457.98 136.038 458.214 135.899 458.393C135.76 458.572 135.543 458.682 135.318 458.669C135.246 458.667 135.174 458.666 135.102 458.666C129.766 458.666 125.425 463.007 125.425 468.343C125.425 473.679 129.766 478.02 135.102 478.02H138.817C139.211 478.02 139.53 478.339 139.53 478.732C139.53 479.126 139.211 479.445 138.817 479.445H135.102C128.98 479.445 124 474.464 124 468.343C124 462.445 128.623 457.606 134.436 457.261C134.296 456.552 134.226 455.83 134.226 455.102C134.226 448.98 139.206 444 145.328 444C149.342 444 152.97 446.115 154.951 449.563C156.218 449.075 157.554 448.828 158.931 448.828C164.048 448.828 168.489 452.335 169.706 457.248C175.65 457.452 180.422 462.351 180.422 468.343Z" fill="white"/>
<rect x="439" y="368" width="152" height="152" rx="76" fill="url(#paint12_linear)"/>
<rect x="439" y="368" width="152" height="152" rx="76" fill="url(#paint13_radial)"/>
<rect x="439" y="368" width="152" height="152" rx="76" fill="url(#paint14_linear)"/>
<path d="M433.619 156H431.507V151.687H427.549V156H425.43V146.006H427.549V149.923H431.507V146.006H433.619V156ZM435.896 146.382C435.896 145.703 436.274 145.363 437.03 145.363C437.787 145.363 438.165 145.703 438.165 146.382C438.165 146.705 438.069 146.958 437.878 147.141C437.691 147.318 437.409 147.407 437.03 147.407C436.274 147.407 435.896 147.065 435.896 146.382ZM438.069 156H435.984V148.357H438.069V156ZM446.915 148.357V149.417L445.719 149.725C445.938 150.066 446.047 150.449 446.047 150.873C446.047 151.693 445.76 152.334 445.186 152.794C444.616 153.25 443.823 153.478 442.807 153.478L442.431 153.457L442.123 153.423C441.909 153.587 441.802 153.769 441.802 153.97C441.802 154.271 442.185 154.421 442.95 154.421H444.249C445.088 154.421 445.726 154.601 446.163 154.961C446.605 155.321 446.826 155.85 446.826 156.547C446.826 157.44 446.452 158.133 445.705 158.625C444.962 159.117 443.894 159.363 442.499 159.363C441.433 159.363 440.617 159.176 440.052 158.803C439.491 158.434 439.211 157.914 439.211 157.244C439.211 156.784 439.354 156.399 439.642 156.089C439.929 155.779 440.35 155.558 440.906 155.426C440.692 155.335 440.505 155.187 440.346 154.981C440.186 154.772 440.106 154.551 440.106 154.318C440.106 154.027 440.191 153.785 440.359 153.594C440.528 153.398 440.772 153.206 441.091 153.02C440.69 152.846 440.371 152.568 440.134 152.186C439.901 151.803 439.785 151.352 439.785 150.832C439.785 149.998 440.056 149.353 440.599 148.897C441.141 148.442 441.916 148.214 442.923 148.214C443.137 148.214 443.39 148.234 443.682 148.275C443.978 148.312 444.167 148.339 444.249 148.357H446.915ZM441.016 157.08C441.016 157.367 441.152 157.593 441.426 157.757C441.704 157.921 442.091 158.003 442.588 158.003C443.335 158.003 443.921 157.9 444.345 157.695C444.769 157.49 444.98 157.21 444.98 156.854C444.98 156.567 444.855 156.369 444.604 156.26C444.354 156.15 443.966 156.096 443.442 156.096H442.362C441.979 156.096 441.658 156.185 441.398 156.362C441.143 156.545 441.016 156.784 441.016 157.08ZM441.774 150.859C441.774 151.274 441.868 151.602 442.055 151.844C442.246 152.085 442.535 152.206 442.923 152.206C443.315 152.206 443.602 152.085 443.784 151.844C443.966 151.602 444.058 151.274 444.058 150.859C444.058 149.939 443.679 149.479 442.923 149.479C442.157 149.479 441.774 149.939 441.774 150.859ZM455.234 156H453.149V151.536C453.149 150.433 452.739 149.882 451.919 149.882C451.336 149.882 450.914 150.08 450.654 150.477C450.395 150.873 450.265 151.516 450.265 152.404V156H448.18V145.363H450.265V147.53C450.265 147.699 450.249 148.095 450.217 148.72L450.169 149.335H450.278C450.743 148.588 451.481 148.214 452.493 148.214C453.391 148.214 454.072 148.455 454.537 148.938C455.002 149.422 455.234 150.114 455.234 151.017V156ZM460.546 149.697C460.104 149.697 459.757 149.839 459.507 150.121C459.256 150.399 459.113 150.796 459.076 151.311H462.002C461.993 150.796 461.858 150.399 461.599 150.121C461.339 149.839 460.988 149.697 460.546 149.697ZM460.84 156.137C459.609 156.137 458.648 155.797 457.955 155.118C457.262 154.439 456.916 153.478 456.916 152.233C456.916 150.953 457.235 149.964 457.873 149.267C458.516 148.565 459.402 148.214 460.532 148.214C461.612 148.214 462.453 148.521 463.055 149.137C463.656 149.752 463.957 150.602 463.957 151.687V152.698H459.028C459.051 153.291 459.227 153.753 459.555 154.086C459.883 154.419 460.343 154.585 460.936 154.585C461.396 154.585 461.831 154.537 462.241 154.441C462.651 154.346 463.08 154.193 463.526 153.983V155.597C463.162 155.779 462.772 155.913 462.357 156C461.943 156.091 461.437 156.137 460.84 156.137ZM469.918 148.214C470.201 148.214 470.435 148.234 470.622 148.275L470.465 150.23C470.296 150.185 470.091 150.162 469.85 150.162C469.184 150.162 468.665 150.333 468.291 150.675C467.922 151.017 467.737 151.495 467.737 152.11V156H465.652V148.357H467.231L467.539 149.643H467.642C467.879 149.214 468.198 148.87 468.599 148.61C469.004 148.346 469.444 148.214 469.918 148.214ZM479.844 156.137C478.946 156.137 478.242 155.811 477.731 155.159H477.622C477.695 155.797 477.731 156.166 477.731 156.267V159.363H475.646V148.357H477.342L477.636 149.349H477.731C478.219 148.592 478.941 148.214 479.898 148.214C480.801 148.214 481.507 148.562 482.018 149.26C482.528 149.957 482.783 150.925 482.783 152.165C482.783 152.981 482.662 153.689 482.421 154.291C482.184 154.893 481.844 155.351 481.402 155.665C480.96 155.979 480.441 156.137 479.844 156.137ZM479.229 149.882C478.714 149.882 478.338 150.041 478.101 150.36C477.864 150.675 477.741 151.197 477.731 151.926V152.151C477.731 152.972 477.852 153.56 478.094 153.915C478.34 154.271 478.727 154.448 479.256 154.448C480.19 154.448 480.657 153.678 480.657 152.138C480.657 151.386 480.541 150.823 480.309 150.449C480.081 150.071 479.721 149.882 479.229 149.882ZM487.671 149.697C487.229 149.697 486.882 149.839 486.632 150.121C486.381 150.399 486.238 150.796 486.201 151.311H489.127C489.118 150.796 488.983 150.399 488.724 150.121C488.464 149.839 488.113 149.697 487.671 149.697ZM487.965 156.137C486.734 156.137 485.773 155.797 485.08 155.118C484.387 154.439 484.041 153.478 484.041 152.233C484.041 150.953 484.36 149.964 484.998 149.267C485.641 148.565 486.527 148.214 487.657 148.214C488.737 148.214 489.578 148.521 490.18 149.137C490.781 149.752 491.082 150.602 491.082 151.687V152.698H486.153C486.176 153.291 486.352 153.753 486.68 154.086C487.008 154.419 487.468 154.585 488.061 154.585C488.521 154.585 488.956 154.537 489.366 154.441C489.776 154.346 490.205 154.193 490.651 153.983V155.597C490.287 155.779 489.897 155.913 489.482 156C489.068 156.091 488.562 156.137 487.965 156.137ZM497.631 156L497.228 154.961H497.173C496.822 155.403 496.46 155.711 496.086 155.884C495.717 156.052 495.234 156.137 494.637 156.137C493.903 156.137 493.324 155.927 492.9 155.508C492.481 155.089 492.271 154.492 492.271 153.717C492.271 152.906 492.554 152.309 493.119 151.926C493.689 151.538 494.546 151.324 495.689 151.283L497.016 151.242V150.907C497.016 150.132 496.619 149.745 495.826 149.745C495.215 149.745 494.498 149.93 493.673 150.299L492.982 148.891C493.862 148.43 494.837 148.2 495.908 148.2C496.934 148.2 497.72 148.424 498.267 148.87C498.813 149.317 499.087 149.996 499.087 150.907V156H497.631ZM497.016 152.459L496.209 152.486C495.603 152.505 495.152 152.614 494.855 152.814C494.559 153.015 494.411 153.32 494.411 153.73C494.411 154.318 494.748 154.612 495.423 154.612C495.906 154.612 496.291 154.473 496.578 154.195C496.87 153.917 497.016 153.548 497.016 153.088V152.459ZM503.243 151.844L504.152 150.682L506.292 148.357H508.644L505.608 151.673L508.828 156H506.422L504.221 152.903L503.325 153.621V156H501.24V145.363H503.325V150.107L503.216 151.844H503.243ZM453.792 166.214C454.075 166.214 454.309 166.234 454.496 166.275L454.339 168.23C454.17 168.185 453.965 168.162 453.724 168.162C453.058 168.162 452.539 168.333 452.165 168.675C451.796 169.017 451.611 169.495 451.611 170.11V174H449.526V166.357H451.105L451.413 167.643H451.516C451.753 167.214 452.072 166.87 452.473 166.61C452.878 166.346 453.318 166.214 453.792 166.214ZM460.737 174L460.334 172.961H460.279C459.928 173.403 459.566 173.711 459.192 173.884C458.823 174.052 458.34 174.137 457.743 174.137C457.009 174.137 456.431 173.927 456.007 173.508C455.588 173.089 455.378 172.492 455.378 171.717C455.378 170.906 455.66 170.309 456.226 169.926C456.795 169.538 457.652 169.324 458.796 169.283L460.122 169.242V168.907C460.122 168.132 459.726 167.745 458.933 167.745C458.322 167.745 457.604 167.93 456.779 168.299L456.089 166.891C456.968 166.43 457.944 166.2 459.015 166.2C460.04 166.2 460.826 166.424 461.373 166.87C461.92 167.317 462.193 167.996 462.193 168.907V174H460.737ZM460.122 170.459L459.315 170.486C458.709 170.505 458.258 170.614 457.962 170.814C457.666 171.015 457.518 171.32 457.518 171.73C457.518 172.318 457.855 172.612 458.529 172.612C459.012 172.612 459.397 172.473 459.685 172.195C459.976 171.917 460.122 171.548 460.122 171.088V170.459ZM467.566 172.476C467.931 172.476 468.368 172.396 468.879 172.236V173.788C468.359 174.021 467.721 174.137 466.965 174.137C466.131 174.137 465.522 173.927 465.14 173.508C464.761 173.084 464.572 172.451 464.572 171.607V167.923H463.574V167.041L464.723 166.344L465.324 164.73H466.657V166.357H468.797V167.923H466.657V171.607C466.657 171.904 466.739 172.122 466.903 172.264C467.072 172.405 467.293 172.476 467.566 172.476ZM473.596 167.697C473.154 167.697 472.807 167.839 472.557 168.121C472.306 168.399 472.162 168.796 472.126 169.311H475.052C475.043 168.796 474.908 168.399 474.648 168.121C474.389 167.839 474.038 167.697 473.596 167.697ZM473.89 174.137C472.659 174.137 471.698 173.797 471.005 173.118C470.312 172.439 469.966 171.478 469.966 170.233C469.966 168.953 470.285 167.964 470.923 167.267C471.565 166.565 472.452 166.214 473.582 166.214C474.662 166.214 475.503 166.521 476.104 167.137C476.706 167.752 477.007 168.602 477.007 169.687V170.698H472.078C472.101 171.291 472.276 171.753 472.604 172.086C472.933 172.419 473.393 172.585 473.985 172.585C474.446 172.585 474.881 172.537 475.291 172.441C475.701 172.346 476.13 172.193 476.576 171.983V173.597C476.212 173.779 475.822 173.913 475.407 174C474.993 174.091 474.487 174.137 473.89 174.137ZM484.034 171.73C484.034 172.514 483.761 173.111 483.214 173.521C482.672 173.932 481.858 174.137 480.773 174.137C480.217 174.137 479.743 174.098 479.352 174.021C478.96 173.948 478.593 173.838 478.251 173.692V171.97C478.638 172.152 479.074 172.305 479.557 172.428C480.044 172.551 480.473 172.612 480.842 172.612C481.598 172.612 481.977 172.394 481.977 171.956C481.977 171.792 481.926 171.66 481.826 171.56C481.726 171.455 481.553 171.339 481.307 171.211C481.061 171.079 480.732 170.926 480.322 170.753C479.734 170.507 479.301 170.279 479.023 170.069C478.75 169.86 478.549 169.62 478.422 169.352C478.299 169.078 478.237 168.743 478.237 168.347C478.237 167.668 478.499 167.144 479.023 166.774C479.552 166.401 480.299 166.214 481.266 166.214C482.186 166.214 483.082 166.414 483.952 166.815L483.323 168.319C482.94 168.155 482.583 168.021 482.25 167.916C481.917 167.811 481.578 167.759 481.231 167.759C480.616 167.759 480.309 167.925 480.309 168.258C480.309 168.445 480.407 168.606 480.603 168.743C480.803 168.88 481.238 169.083 481.908 169.352C482.505 169.593 482.943 169.819 483.221 170.028C483.499 170.238 483.704 170.479 483.836 170.753C483.968 171.026 484.034 171.352 484.034 171.73Z" fill="white"/>
<g clip-path="url(#clip1)">
<path d="M151.84 75.9231C151.646 75.5377 151.177 75.383 150.791 75.5771C150.406 75.7712 150.251 76.2411 150.445 76.6263C152.242 80.1904 151.554 84.4794 148.735 87.2989L144.808 91.2262C142.079 93.9545 137.976 94.6698 134.52 93.1189L137.247 90.3915C137.591 90.4541 137.937 90.4855 138.281 90.4855C139.798 90.4855 141.283 89.8904 142.377 88.7961L146.305 84.8688C147.395 83.7784 147.995 82.327 147.995 80.7816C147.995 79.2361 147.395 77.7847 146.305 76.6943C145.214 75.6042 143.763 75.004 142.218 75.004C140.672 75.004 139.22 75.6042 138.13 76.6943L134.203 80.6216C132.874 81.9504 132.282 83.8541 132.597 85.6927C131.474 85.1202 130.284 84.7604 129.079 84.6057C129.107 82.2034 130.068 79.8962 131.773 78.1915L135.7 74.2642C138.52 71.4447 142.809 70.7571 146.373 72.5537C146.758 72.7478 147.228 72.5931 147.422 72.2076C147.616 71.8225 147.461 71.3528 147.076 71.1587C142.909 69.0579 137.893 69.8621 134.595 73.1595L130.668 77.0868C128.69 79.0649 127.567 81.7352 127.518 84.5193C124.794 84.567 122.111 85.6445 120.08 87.6755L116.152 91.6028C114.12 93.6356 113 96.3425 113 99.2246C113 102.107 114.12 104.814 116.152 106.847C118.185 108.879 120.892 109.999 123.774 109.999C126.657 109.999 129.364 108.879 131.396 106.847L135.324 102.919C137.293 100.95 138.424 98.2678 138.474 95.4868C141.198 95.4388 143.881 94.3616 145.912 92.3309L149.839 88.4033C153.137 85.1062 153.941 80.0906 151.84 75.9231ZM135.51 85.0586C135.835 84.7342 136.266 84.5554 136.725 84.5554C137.184 84.5554 137.616 84.7342 137.94 85.0586C138.265 85.3833 138.444 85.8148 138.444 86.2738C138.444 86.7328 138.265 87.1643 137.94 87.4887L130.498 94.9316C129.828 95.6015 128.738 95.6015 128.067 94.9316C127.398 94.2615 127.398 93.1714 128.067 92.5012L135.51 85.0586ZM126.963 96.0361C127.602 96.6757 128.443 96.9952 129.283 96.9952C130.123 96.9952 130.963 96.6757 131.602 96.0361L131.89 95.748C131.788 96.6928 131.372 97.5922 130.684 98.2797L126.757 102.207C125.962 103.002 124.902 103.44 123.774 103.44C122.646 103.44 121.587 103.002 120.792 102.207C119.997 101.412 119.559 100.353 119.559 99.2246C119.559 98.0963 119.997 97.0374 120.792 96.2421L124.719 92.3148C125.407 91.6272 126.306 91.2103 127.251 91.1084L126.963 91.3965C125.684 92.6758 125.684 94.7571 126.963 96.0361ZM135.308 81.7264L139.235 77.7991C140.88 76.1545 143.555 76.1545 145.2 77.7991C145.995 78.594 146.433 79.6533 146.433 80.7816C146.433 81.9095 145.995 82.9687 145.2 83.764L141.273 87.6913C140.585 88.3795 139.685 88.7967 138.74 88.8986L139.045 88.5934C140.324 87.3145 140.324 85.2332 139.045 83.9542C137.766 82.6749 135.685 82.6749 134.406 83.9542L134.1 84.2593C134.202 83.3145 134.62 82.4145 135.308 81.7264ZM134.219 101.815L130.292 105.742C128.554 107.48 126.239 108.437 123.774 108.437C121.309 108.437 118.995 107.48 117.257 105.742C115.519 104.004 114.562 101.689 114.562 99.2246C114.562 96.7596 115.519 94.4452 117.257 92.7072L121.185 88.7799C123.078 86.8866 125.633 85.9637 128.175 86.0934C128.221 86.1017 128.267 86.1063 128.315 86.1063C128.331 86.1063 128.347 86.106 128.363 86.1047C128.365 86.1047 128.367 86.1044 128.37 86.1041C129.425 86.1804 130.475 86.4401 131.472 86.8875L128.744 89.6158C126.886 89.2783 124.956 89.8682 123.615 91.21L119.687 95.1376C118.597 96.2277 117.996 97.6794 117.996 99.2246C117.996 100.77 118.597 102.222 119.687 103.312C120.777 104.402 122.229 105.002 123.774 105.002C125.32 105.002 126.771 104.402 127.861 103.312L131.789 99.3845C133.117 98.056 133.709 96.1517 133.393 94.3118C134.516 94.885 135.707 95.246 136.912 95.4007C136.884 97.8003 135.916 100.117 134.219 101.815Z" fill="white"/>
</g>
<g clip-path="url(#clip2)">
<path d="M318.952 256.354C314.371 256.329 310.644 252.581 310.644 248V246H275.356V248C275.356 252.581 271.629 256.329 267.047 256.354L265.059 256.365V287.45C265.059 296.255 270.282 304.198 278.367 307.686L293 314L307.633 307.686C315.718 304.198 320.941 296.255 320.941 287.45V256.365L318.952 256.354ZM293 309.644L279.951 304.014C273.334 301.158 269.059 294.657 269.059 287.45V282.133H283.36L295.575 269.918C296.561 270.452 297.689 270.755 298.887 270.755C302.735 270.755 305.865 267.625 305.865 263.778C305.865 259.93 302.735 256.8 298.887 256.8C295.039 256.8 291.909 259.93 291.909 263.778C291.909 264.975 292.213 266.103 292.747 267.089L281.703 278.133H269.059V270.755H276.247L284.864 262.172L282.041 259.338L274.594 266.755H269.059V260.182C274.24 259.306 278.342 255.184 279.193 250H306.807C307.658 255.184 311.76 259.306 316.941 260.182V275.822H302.64L290.425 288.037C289.439 287.503 288.311 287.2 287.113 287.2C283.265 287.2 280.135 290.33 280.135 294.177C280.135 298.025 283.266 301.155 287.113 301.155C290.961 301.155 294.091 298.025 294.091 294.177C294.091 292.98 293.787 291.852 293.253 290.866L304.297 279.822H316.941V287.2H309.754L301.136 295.783L303.959 298.617L311.406 291.2H316.546C315.349 296.847 311.493 301.665 306.049 304.014L293 309.644ZM295.909 263.778C295.909 262.136 297.245 260.8 298.887 260.8C300.529 260.8 301.865 262.136 301.865 263.778C301.865 265.42 300.529 266.755 298.887 266.755C297.245 266.755 295.909 265.42 295.909 263.778ZM290.091 294.177C290.091 295.819 288.755 297.155 287.113 297.155C285.471 297.155 284.135 295.819 284.135 294.177C284.135 292.535 285.471 291.2 287.113 291.2C288.755 291.2 290.091 292.536 290.091 294.177Z" fill="white"/>
</g>
<path d="M520.004 414.387H518.773V426.076L528.121 433.087L528.859 432.104C530.311 430.174 531.078 427.877 531.078 425.461C531.078 419.355 526.11 414.387 520.004 414.387Z" fill="white"/>
<path d="M504.439 421.019H494.75V420.059H505.239H505.738L505.931 419.598C506.371 418.546 506.925 417.553 507.579 416.635L507.983 416.069L507.448 415.624L505.507 414.006L506.122 413.267L508.066 414.887L508.599 415.332L509.084 414.834C511.15 412.711 513.827 411.188 516.825 410.549L517.755 410.351L517.346 409.493C517.165 409.112 517.062 408.685 517.062 408.234C517.062 406.613 518.383 405.293 520.004 405.293C521.625 405.293 522.945 406.613 522.945 408.234C522.945 408.685 522.843 409.112 522.662 409.493L522.253 410.351L523.183 410.549C526.181 411.187 528.857 412.711 530.924 414.834L531.408 415.332L531.942 414.887L533.886 413.267L534.501 414.005L532.559 415.624L532.025 416.069L532.429 416.635C534.205 419.128 535.25 422.174 535.25 425.461C535.25 433.867 528.41 440.707 520.004 440.707C513.676 440.707 508.234 436.831 505.931 431.324L505.738 430.863H505.239H499.672V429.902H504.438H505.387L505.168 428.979C504.988 428.218 504.864 427.435 504.802 426.634L504.749 425.941H504.055H497.211V424.981H504.055H504.75L504.803 424.288C504.864 423.488 504.988 422.704 505.168 421.942L505.387 421.019H504.439ZM521.984 408.234C521.984 407.142 521.097 406.254 520.004 406.254C518.911 406.254 518.023 407.142 518.023 408.234C518.023 409.327 518.911 410.215 520.004 410.215C521.097 410.215 521.984 409.327 521.984 408.234Z" stroke="white" stroke-width="1.5" stroke-linecap="round"/>
<path d="M467 83L450 100H459.154V109.808H474.846V100H484L467 83Z" stroke="white" stroke-width="1.5" stroke-linejoin="round"/>
<line x1="458.596" y1="114.942" x2="475.404" y2="114.942" stroke="white" stroke-width="1.5" stroke-linecap="round"/>
<line x1="458.596" y1="120.173" x2="475.404" y2="120.173" stroke="white" stroke-width="1.5" stroke-linecap="round"/>
<line x1="458.596" y1="125.404" x2="475.404" y2="125.404" stroke="white" stroke-width="1.5" stroke-linecap="round"/>
<path d="M467.259 467H465.174V457.006H470.902V458.742H467.259V461.319H470.649V463.049H467.259V467ZM477.547 467L477.144 465.961H477.089C476.738 466.403 476.376 466.711 476.002 466.884C475.633 467.052 475.15 467.137 474.553 467.137C473.819 467.137 473.24 466.927 472.816 466.508C472.397 466.089 472.188 465.492 472.188 464.717C472.188 463.906 472.47 463.309 473.035 462.926C473.605 462.538 474.462 462.324 475.605 462.283L476.932 462.242V461.907C476.932 461.132 476.535 460.745 475.742 460.745C475.132 460.745 474.414 460.93 473.589 461.299L472.898 459.891C473.778 459.43 474.753 459.2 475.824 459.2C476.85 459.2 477.636 459.424 478.183 459.87C478.729 460.317 479.003 460.996 479.003 461.907V467H477.547ZM476.932 463.459L476.125 463.486C475.519 463.505 475.068 463.614 474.771 463.814C474.475 464.015 474.327 464.32 474.327 464.73C474.327 465.318 474.664 465.612 475.339 465.612C475.822 465.612 476.207 465.473 476.494 465.195C476.786 464.917 476.932 464.548 476.932 464.088V463.459ZM486.488 464.73C486.488 465.514 486.215 466.111 485.668 466.521C485.126 466.932 484.312 467.137 483.228 467.137C482.672 467.137 482.198 467.098 481.806 467.021C481.414 466.948 481.047 466.838 480.705 466.692V464.97C481.092 465.152 481.528 465.305 482.011 465.428C482.498 465.551 482.927 465.612 483.296 465.612C484.052 465.612 484.431 465.394 484.431 464.956C484.431 464.792 484.381 464.66 484.28 464.56C484.18 464.455 484.007 464.339 483.761 464.211C483.515 464.079 483.187 463.926 482.776 463.753C482.188 463.507 481.756 463.279 481.478 463.069C481.204 462.86 481.004 462.62 480.876 462.352C480.753 462.078 480.691 461.743 480.691 461.347C480.691 460.668 480.953 460.144 481.478 459.774C482.006 459.401 482.754 459.214 483.72 459.214C484.64 459.214 485.536 459.414 486.406 459.815L485.777 461.319C485.395 461.155 485.037 461.021 484.704 460.916C484.371 460.811 484.032 460.759 483.686 460.759C483.07 460.759 482.763 460.925 482.763 461.258C482.763 461.445 482.861 461.606 483.057 461.743C483.257 461.88 483.692 462.083 484.362 462.352C484.959 462.593 485.397 462.819 485.675 463.028C485.953 463.238 486.158 463.479 486.29 463.753C486.422 464.026 486.488 464.352 486.488 464.73ZM491.335 465.476C491.7 465.476 492.137 465.396 492.647 465.236V466.788C492.128 467.021 491.49 467.137 490.733 467.137C489.899 467.137 489.291 466.927 488.908 466.508C488.53 466.084 488.341 465.451 488.341 464.607V460.923H487.343V460.041L488.491 459.344L489.093 457.73H490.426V459.357H492.565V460.923H490.426V464.607C490.426 464.904 490.508 465.122 490.672 465.264C490.84 465.405 491.062 465.476 491.335 465.476ZM497.364 460.697C496.922 460.697 496.576 460.839 496.325 461.121C496.075 461.399 495.931 461.796 495.895 462.311H498.82C498.811 461.796 498.677 461.399 498.417 461.121C498.157 460.839 497.806 460.697 497.364 460.697ZM497.658 467.137C496.428 467.137 495.466 466.797 494.773 466.118C494.081 465.439 493.734 464.478 493.734 463.233C493.734 461.953 494.053 460.964 494.691 460.267C495.334 459.565 496.22 459.214 497.351 459.214C498.431 459.214 499.271 459.521 499.873 460.137C500.475 460.752 500.775 461.602 500.775 462.687V463.698H495.847C495.869 464.291 496.045 464.753 496.373 465.086C496.701 465.419 497.161 465.585 497.754 465.585C498.214 465.585 498.649 465.537 499.06 465.441C499.47 465.346 499.898 465.193 500.345 464.983V466.597C499.98 466.779 499.59 466.913 499.176 467C498.761 467.091 498.255 467.137 497.658 467.137ZM506.736 459.214C507.019 459.214 507.254 459.234 507.44 459.275L507.283 461.23C507.115 461.185 506.91 461.162 506.668 461.162C506.003 461.162 505.483 461.333 505.109 461.675C504.74 462.017 504.556 462.495 504.556 463.11V467H502.471V459.357H504.05L504.357 460.643H504.46C504.697 460.214 505.016 459.87 505.417 459.61C505.823 459.346 506.262 459.214 506.736 459.214ZM517.318 467L516.915 465.961H516.86C516.509 466.403 516.147 466.711 515.773 466.884C515.404 467.052 514.921 467.137 514.324 467.137C513.59 467.137 513.012 466.927 512.588 466.508C512.169 466.089 511.959 465.492 511.959 464.717C511.959 463.906 512.242 463.309 512.807 462.926C513.376 462.538 514.233 462.324 515.377 462.283L516.703 462.242V461.907C516.703 461.132 516.307 460.745 515.514 460.745C514.903 460.745 514.185 460.93 513.36 461.299L512.67 459.891C513.549 459.43 514.525 459.2 515.596 459.2C516.621 459.2 517.407 459.424 517.954 459.87C518.501 460.317 518.774 460.996 518.774 461.907V467H517.318ZM516.703 463.459L515.896 463.486C515.29 463.505 514.839 463.614 514.543 463.814C514.247 464.015 514.099 464.32 514.099 464.73C514.099 465.318 514.436 465.612 515.11 465.612C515.593 465.612 515.979 465.473 516.266 465.195C516.557 464.917 516.703 464.548 516.703 464.088V463.459ZM522.746 467L519.834 459.357H522.015L523.491 463.712C523.655 464.263 523.758 464.785 523.799 465.277H523.84C523.863 464.84 523.965 464.318 524.147 463.712L525.617 459.357H527.798L524.886 467H522.746ZM532.063 460.697C531.621 460.697 531.275 460.839 531.024 461.121C530.774 461.399 530.63 461.796 530.594 462.311H533.52C533.51 461.796 533.376 461.399 533.116 461.121C532.856 460.839 532.506 460.697 532.063 460.697ZM532.357 467.137C531.127 467.137 530.165 466.797 529.473 466.118C528.78 465.439 528.434 464.478 528.434 463.233C528.434 461.953 528.753 460.964 529.391 460.267C530.033 459.565 530.92 459.214 532.05 459.214C533.13 459.214 533.971 459.521 534.572 460.137C535.174 460.752 535.475 461.602 535.475 462.687V463.698H530.546C530.569 464.291 530.744 464.753 531.072 465.086C531.4 465.419 531.861 465.585 532.453 465.585C532.913 465.585 533.349 465.537 533.759 465.441C534.169 465.346 534.597 465.193 535.044 464.983V466.597C534.679 466.779 534.29 466.913 533.875 467C533.46 467.091 532.954 467.137 532.357 467.137ZM541.436 459.214C541.718 459.214 541.953 459.234 542.14 459.275L541.982 461.23C541.814 461.185 541.609 461.162 541.367 461.162C540.702 461.162 540.182 461.333 539.809 461.675C539.439 462.017 539.255 462.495 539.255 463.11V467H537.17V459.357H538.749L539.057 460.643H539.159C539.396 460.214 539.715 459.87 540.116 459.61C540.522 459.346 540.962 459.214 541.436 459.214ZM548.381 467L547.978 465.961H547.923C547.572 466.403 547.21 466.711 546.836 466.884C546.467 467.052 545.984 467.137 545.387 467.137C544.653 467.137 544.074 466.927 543.65 466.508C543.231 466.089 543.021 465.492 543.021 464.717C543.021 463.906 543.304 463.309 543.869 462.926C544.439 462.538 545.296 462.324 546.439 462.283L547.766 462.242V461.907C547.766 461.132 547.369 460.745 546.576 460.745C545.965 460.745 545.248 460.93 544.423 461.299L543.732 459.891C544.612 459.43 545.587 459.2 546.658 459.2C547.684 459.2 548.47 459.424 549.017 459.87C549.563 460.317 549.837 460.996 549.837 461.907V467H548.381ZM547.766 463.459L546.959 463.486C546.353 463.505 545.902 463.614 545.605 463.814C545.309 464.015 545.161 464.32 545.161 464.73C545.161 465.318 545.498 465.612 546.173 465.612C546.656 465.612 547.041 465.473 547.328 465.195C547.62 464.917 547.766 464.548 547.766 464.088V463.459ZM558.642 459.357V460.417L557.445 460.725C557.664 461.066 557.773 461.449 557.773 461.873C557.773 462.693 557.486 463.334 556.912 463.794C556.342 464.25 555.549 464.478 554.533 464.478L554.157 464.457L553.85 464.423C553.635 464.587 553.528 464.769 553.528 464.97C553.528 465.271 553.911 465.421 554.677 465.421H555.976C556.814 465.421 557.452 465.601 557.89 465.961C558.332 466.321 558.553 466.85 558.553 467.547C558.553 468.44 558.179 469.133 557.432 469.625C556.689 470.117 555.62 470.363 554.226 470.363C553.159 470.363 552.343 470.176 551.778 469.803C551.218 469.434 550.938 468.914 550.938 468.244C550.938 467.784 551.081 467.399 551.368 467.089C551.655 466.779 552.077 466.558 552.633 466.426C552.419 466.335 552.232 466.187 552.072 465.981C551.913 465.772 551.833 465.551 551.833 465.318C551.833 465.027 551.917 464.785 552.086 464.594C552.255 464.398 552.498 464.206 552.817 464.02C552.416 463.846 552.097 463.568 551.86 463.186C551.628 462.803 551.512 462.352 551.512 461.832C551.512 460.998 551.783 460.353 552.325 459.897C552.868 459.442 553.642 459.214 554.649 459.214C554.864 459.214 555.117 459.234 555.408 459.275C555.704 459.312 555.894 459.339 555.976 459.357H558.642ZM552.742 468.08C552.742 468.367 552.879 468.593 553.152 468.757C553.43 468.921 553.818 469.003 554.314 469.003C555.062 469.003 555.647 468.9 556.071 468.695C556.495 468.49 556.707 468.21 556.707 467.854C556.707 467.567 556.582 467.369 556.331 467.26C556.08 467.15 555.693 467.096 555.169 467.096H554.089C553.706 467.096 553.385 467.185 553.125 467.362C552.87 467.545 552.742 467.784 552.742 468.08ZM553.501 461.859C553.501 462.274 553.594 462.602 553.781 462.844C553.973 463.085 554.262 463.206 554.649 463.206C555.041 463.206 555.328 463.085 555.511 462.844C555.693 462.602 555.784 462.274 555.784 461.859C555.784 460.939 555.406 460.479 554.649 460.479C553.884 460.479 553.501 460.939 553.501 461.859ZM563.071 460.697C562.629 460.697 562.283 460.839 562.032 461.121C561.782 461.399 561.638 461.796 561.602 462.311H564.527C564.518 461.796 564.384 461.399 564.124 461.121C563.864 460.839 563.513 460.697 563.071 460.697ZM563.365 467.137C562.135 467.137 561.173 466.797 560.48 466.118C559.788 465.439 559.441 464.478 559.441 463.233C559.441 461.953 559.76 460.964 560.398 460.267C561.041 459.565 561.927 459.214 563.058 459.214C564.138 459.214 564.979 459.521 565.58 460.137C566.182 460.752 566.482 461.602 566.482 462.687V463.698H561.554C561.576 464.291 561.752 464.753 562.08 465.086C562.408 465.419 562.868 465.585 563.461 465.585C563.921 465.585 564.356 465.537 564.767 465.441C565.177 465.346 565.605 465.193 566.052 464.983V466.597C565.687 466.779 565.298 466.913 564.883 467C564.468 467.091 563.962 467.137 563.365 467.137ZM501.315 482.73C501.315 483.514 501.042 484.111 500.495 484.521C499.953 484.932 499.139 485.137 498.055 485.137C497.499 485.137 497.025 485.098 496.633 485.021C496.241 484.948 495.874 484.838 495.532 484.692V482.97C495.92 483.152 496.355 483.305 496.838 483.428C497.326 483.551 497.754 483.612 498.123 483.612C498.88 483.612 499.258 483.394 499.258 482.956C499.258 482.792 499.208 482.66 499.107 482.56C499.007 482.455 498.834 482.339 498.588 482.211C498.342 482.079 498.014 481.926 497.604 481.753C497.016 481.507 496.583 481.279 496.305 481.069C496.031 480.86 495.831 480.62 495.703 480.352C495.58 480.078 495.519 479.743 495.519 479.347C495.519 478.668 495.781 478.144 496.305 477.774C496.833 477.401 497.581 477.214 498.547 477.214C499.467 477.214 500.363 477.414 501.233 477.815L500.604 479.319C500.222 479.155 499.864 479.021 499.531 478.916C499.199 478.811 498.859 478.759 498.513 478.759C497.897 478.759 497.59 478.925 497.59 479.258C497.59 479.445 497.688 479.606 497.884 479.743C498.084 479.88 498.52 480.083 499.189 480.352C499.786 480.593 500.224 480.819 500.502 481.028C500.78 481.238 500.985 481.479 501.117 481.753C501.249 482.026 501.315 482.352 501.315 482.73ZM507.14 485.137C506.242 485.137 505.538 484.811 505.027 484.159H504.918C504.991 484.797 505.027 485.166 505.027 485.267V488.363H502.942V477.357H504.638L504.932 478.349H505.027C505.515 477.592 506.237 477.214 507.194 477.214C508.097 477.214 508.803 477.562 509.313 478.26C509.824 478.957 510.079 479.925 510.079 481.165C510.079 481.981 509.958 482.689 509.717 483.291C509.48 483.893 509.14 484.351 508.698 484.665C508.256 484.979 507.737 485.137 507.14 485.137ZM506.524 478.882C506.009 478.882 505.633 479.041 505.396 479.36C505.16 479.675 505.036 480.197 505.027 480.926V481.151C505.027 481.972 505.148 482.56 505.39 482.915C505.636 483.271 506.023 483.448 506.552 483.448C507.486 483.448 507.953 482.678 507.953 481.138C507.953 480.386 507.837 479.823 507.604 479.449C507.377 479.071 507.017 478.882 506.524 478.882ZM514.967 478.697C514.525 478.697 514.178 478.839 513.928 479.121C513.677 479.399 513.534 479.796 513.497 480.311H516.423C516.414 479.796 516.279 479.399 516.02 479.121C515.76 478.839 515.409 478.697 514.967 478.697ZM515.261 485.137C514.03 485.137 513.069 484.797 512.376 484.118C511.683 483.439 511.337 482.478 511.337 481.233C511.337 479.953 511.656 478.964 512.294 478.267C512.937 477.565 513.823 477.214 514.953 477.214C516.033 477.214 516.874 477.521 517.476 478.137C518.077 478.752 518.378 479.602 518.378 480.687V481.698H513.449C513.472 482.291 513.647 482.753 513.976 483.086C514.304 483.419 514.764 483.585 515.356 483.585C515.817 483.585 516.252 483.537 516.662 483.441C517.072 483.346 517.501 483.193 517.947 482.983V484.597C517.583 484.779 517.193 484.913 516.778 485C516.364 485.091 515.858 485.137 515.261 485.137ZM523.238 478.697C522.796 478.697 522.45 478.839 522.199 479.121C521.949 479.399 521.805 479.796 521.769 480.311H524.694C524.685 479.796 524.551 479.399 524.291 479.121C524.031 478.839 523.68 478.697 523.238 478.697ZM523.532 485.137C522.302 485.137 521.34 484.797 520.647 484.118C519.955 483.439 519.608 482.478 519.608 481.233C519.608 479.953 519.927 478.964 520.565 478.267C521.208 477.565 522.094 477.214 523.225 477.214C524.305 477.214 525.146 477.521 525.747 478.137C526.349 478.752 526.649 479.602 526.649 480.687V481.698H521.721C521.743 482.291 521.919 482.753 522.247 483.086C522.575 483.419 523.035 483.585 523.628 483.585C524.088 483.585 524.523 483.537 524.934 483.441C525.344 483.346 525.772 483.193 526.219 482.983V484.597C525.854 484.779 525.465 484.913 525.05 485C524.635 485.091 524.129 485.137 523.532 485.137ZM530.765 485.137C529.867 485.137 529.16 484.788 528.646 484.091C528.135 483.394 527.88 482.427 527.88 481.192C527.88 479.939 528.14 478.964 528.659 478.267C529.183 477.565 529.903 477.214 530.819 477.214C531.781 477.214 532.515 477.588 533.021 478.335H533.089C532.984 477.765 532.932 477.257 532.932 476.811V474.363H535.023V485H533.424L533.021 484.009H532.932C532.458 484.761 531.735 485.137 530.765 485.137ZM531.496 483.476C532.029 483.476 532.419 483.321 532.665 483.011C532.916 482.701 533.052 482.174 533.075 481.432V481.206C533.075 480.386 532.948 479.798 532.692 479.442C532.442 479.087 532.032 478.909 531.462 478.909C530.997 478.909 530.635 479.107 530.375 479.504C530.12 479.896 529.992 480.468 529.992 481.22C529.992 481.972 530.122 482.537 530.382 482.915C530.642 483.289 531.013 483.476 531.496 483.476Z" fill="white"/>
<path d="M112.37 131.442H113.054C113.724 131.442 114.218 131.331 114.537 131.107C114.856 130.884 115.016 130.533 115.016 130.055C115.016 129.581 114.852 129.243 114.523 129.043C114.2 128.842 113.696 128.742 113.013 128.742H112.37V131.442ZM112.37 133.165V137H110.251V127.006H113.163C114.521 127.006 115.526 127.254 116.178 127.751C116.829 128.243 117.155 128.993 117.155 130C117.155 130.588 116.993 131.112 116.67 131.572C116.346 132.028 115.888 132.386 115.296 132.646C116.8 134.892 117.78 136.344 118.235 137H115.884L113.498 133.165H112.37ZM120.99 133.165C120.99 133.922 121.113 134.493 121.359 134.881C121.61 135.268 122.016 135.462 122.576 135.462C123.132 135.462 123.531 135.271 123.772 134.888C124.019 134.5 124.142 133.926 124.142 133.165C124.142 132.409 124.019 131.841 123.772 131.463C123.526 131.085 123.123 130.896 122.562 130.896C122.007 130.896 121.605 131.085 121.359 131.463C121.113 131.837 120.99 132.404 120.99 133.165ZM126.274 133.165C126.274 134.409 125.946 135.382 125.29 136.084C124.634 136.786 123.72 137.137 122.549 137.137C121.815 137.137 121.168 136.977 120.607 136.658C120.047 136.335 119.616 135.872 119.315 135.271C119.015 134.669 118.864 133.967 118.864 133.165C118.864 131.916 119.19 130.946 119.842 130.253C120.493 129.56 121.41 129.214 122.59 129.214C123.324 129.214 123.971 129.373 124.531 129.692C125.092 130.011 125.522 130.469 125.823 131.066C126.124 131.663 126.274 132.363 126.274 133.165ZM132.249 129.214C133.151 129.214 133.858 129.567 134.368 130.273C134.879 130.975 135.134 131.939 135.134 133.165C135.134 134.427 134.869 135.405 134.341 136.098C133.817 136.79 133.101 137.137 132.194 137.137C131.297 137.137 130.592 136.811 130.082 136.159H129.938L129.59 137H127.997V126.363H130.082V128.838C130.082 129.152 130.055 129.656 130 130.349H130.082C130.57 129.592 131.292 129.214 132.249 129.214ZM131.579 130.882C131.064 130.882 130.688 131.041 130.451 131.36C130.214 131.675 130.091 132.197 130.082 132.926V133.151C130.082 133.972 130.203 134.56 130.444 134.915C130.69 135.271 131.078 135.448 131.606 135.448C132.035 135.448 132.374 135.252 132.625 134.86C132.88 134.464 133.008 133.89 133.008 133.138C133.008 132.386 132.88 131.823 132.625 131.449C132.37 131.071 132.021 130.882 131.579 130.882ZM142.271 137L141.99 136.022H141.881C141.658 136.378 141.341 136.654 140.931 136.85C140.521 137.041 140.053 137.137 139.529 137.137C138.632 137.137 137.955 136.897 137.499 136.419C137.043 135.936 136.815 135.243 136.815 134.341V129.357H138.9V133.821C138.9 134.373 138.998 134.787 139.194 135.065C139.39 135.339 139.702 135.476 140.131 135.476C140.714 135.476 141.136 135.282 141.396 134.895C141.655 134.503 141.785 133.855 141.785 132.953V129.357H143.87V137H142.271ZM151.39 134.73C151.39 135.514 151.116 136.111 150.569 136.521C150.027 136.932 149.214 137.137 148.129 137.137C147.573 137.137 147.099 137.098 146.707 137.021C146.315 136.948 145.948 136.838 145.606 136.692V134.97C145.994 135.152 146.429 135.305 146.912 135.428C147.4 135.551 147.828 135.612 148.197 135.612C148.954 135.612 149.332 135.394 149.332 134.956C149.332 134.792 149.282 134.66 149.182 134.56C149.081 134.455 148.908 134.339 148.662 134.211C148.416 134.079 148.088 133.926 147.678 133.753C147.09 133.507 146.657 133.279 146.379 133.069C146.105 132.86 145.905 132.62 145.777 132.352C145.654 132.078 145.593 131.743 145.593 131.347C145.593 130.668 145.855 130.144 146.379 129.774C146.908 129.401 147.655 129.214 148.621 129.214C149.542 129.214 150.437 129.414 151.308 129.815L150.679 131.319C150.296 131.155 149.938 131.021 149.605 130.916C149.273 130.811 148.933 130.759 148.587 130.759C147.972 130.759 147.664 130.925 147.664 131.258C147.664 131.445 147.762 131.606 147.958 131.743C148.159 131.88 148.594 132.083 149.264 132.352C149.861 132.593 150.298 132.819 150.576 133.028C150.854 133.238 151.059 133.479 151.191 133.753C151.324 134.026 151.39 134.352 151.39 134.73ZM156.236 135.476C156.601 135.476 157.038 135.396 157.549 135.236V136.788C157.029 137.021 156.391 137.137 155.635 137.137C154.801 137.137 154.192 136.927 153.81 136.508C153.431 136.084 153.242 135.451 153.242 134.607V130.923H152.244V130.041L153.393 129.344L153.994 127.73H155.327V129.357H157.467V130.923H155.327V134.607C155.327 134.904 155.409 135.122 155.573 135.264C155.742 135.405 155.963 135.476 156.236 135.476ZM108.959 154H106.382L105.596 153.228C104.725 153.834 103.741 154.137 102.643 154.137C101.531 154.137 100.649 153.882 99.9971 153.371C99.3454 152.861 99.0195 152.17 99.0195 151.3C99.0195 150.675 99.1562 150.145 99.4297 149.707C99.7077 149.265 100.182 148.853 100.852 148.47C100.51 148.078 100.261 147.704 100.106 147.349C99.9515 146.989 99.874 146.597 99.874 146.173C99.874 145.48 100.138 144.922 100.667 144.498C101.2 144.074 101.911 143.862 102.8 143.862C103.647 143.862 104.324 144.061 104.83 144.457C105.34 144.849 105.596 145.375 105.596 146.036C105.596 146.578 105.438 147.075 105.124 147.526C104.81 147.973 104.301 148.399 103.6 148.805L105.541 150.698C105.865 150.165 106.145 149.479 106.382 148.641H108.556C108.392 149.256 108.166 149.857 107.879 150.445C107.592 151.029 107.266 151.546 106.901 151.997L108.959 154ZM101.214 151.102C101.214 151.493 101.36 151.806 101.651 152.038C101.948 152.271 102.326 152.387 102.786 152.387C103.36 152.387 103.878 152.248 104.338 151.97L102.068 149.714C101.804 149.914 101.594 150.124 101.439 150.343C101.289 150.562 101.214 150.814 101.214 151.102ZM103.668 146.255C103.668 146.013 103.586 145.824 103.422 145.688C103.258 145.546 103.046 145.476 102.786 145.476C102.481 145.476 102.239 145.549 102.062 145.694C101.888 145.84 101.802 146.048 101.802 146.316C101.802 146.717 102.018 147.16 102.451 147.643C102.843 147.424 103.144 147.21 103.354 147C103.563 146.786 103.668 146.537 103.668 146.255ZM115.973 148.442H116.656C117.326 148.442 117.821 148.331 118.14 148.107C118.459 147.884 118.618 147.533 118.618 147.055C118.618 146.581 118.454 146.243 118.126 146.043C117.802 145.842 117.299 145.742 116.615 145.742H115.973V148.442ZM115.973 150.165V154H113.854V144.006H116.766C118.124 144.006 119.129 144.254 119.78 144.751C120.432 145.243 120.758 145.993 120.758 147C120.758 147.588 120.596 148.112 120.272 148.572C119.949 149.028 119.491 149.386 118.898 149.646C120.402 151.892 121.382 153.344 121.838 154H119.486L117.101 150.165H115.973ZM126.097 147.697C125.655 147.697 125.308 147.839 125.058 148.121C124.807 148.399 124.663 148.796 124.627 149.311H127.553C127.544 148.796 127.409 148.399 127.149 148.121C126.89 147.839 126.539 147.697 126.097 147.697ZM126.391 154.137C125.16 154.137 124.199 153.797 123.506 153.118C122.813 152.439 122.467 151.478 122.467 150.233C122.467 148.953 122.786 147.964 123.424 147.267C124.066 146.565 124.953 146.214 126.083 146.214C127.163 146.214 128.004 146.521 128.605 147.137C129.207 147.752 129.508 148.602 129.508 149.687V150.698H124.579C124.602 151.291 124.777 151.753 125.105 152.086C125.434 152.419 125.894 152.585 126.486 152.585C126.947 152.585 127.382 152.537 127.792 152.441C128.202 152.346 128.631 152.193 129.077 151.983V153.597C128.713 153.779 128.323 153.913 127.908 154C127.493 154.091 126.988 154.137 126.391 154.137ZM133.288 154H131.203V143.363H133.288V154ZM135.394 144.382C135.394 143.703 135.772 143.363 136.528 143.363C137.285 143.363 137.663 143.703 137.663 144.382C137.663 144.705 137.567 144.958 137.376 145.141C137.189 145.318 136.907 145.407 136.528 145.407C135.772 145.407 135.394 145.065 135.394 144.382ZM137.567 154H135.482V146.357H137.567V154ZM144.615 154L144.212 152.961H144.157C143.806 153.403 143.444 153.711 143.07 153.884C142.701 154.052 142.218 154.137 141.621 154.137C140.887 154.137 140.309 153.927 139.885 153.508C139.465 153.089 139.256 152.492 139.256 151.717C139.256 150.906 139.538 150.309 140.104 149.926C140.673 149.538 141.53 149.324 142.674 149.283L144 149.242V148.907C144 148.132 143.604 147.745 142.811 147.745C142.2 147.745 141.482 147.93 140.657 148.299L139.967 146.891C140.846 146.43 141.822 146.2 142.893 146.2C143.918 146.2 144.704 146.424 145.251 146.87C145.798 147.317 146.071 147.996 146.071 148.907V154H144.615ZM144 150.459L143.193 150.486C142.587 150.505 142.136 150.614 141.84 150.814C141.544 151.015 141.396 151.32 141.396 151.73C141.396 152.318 141.733 152.612 142.407 152.612C142.89 152.612 143.275 152.473 143.562 152.195C143.854 151.917 144 151.548 144 151.088V150.459ZM152.477 146.214C153.379 146.214 154.085 146.567 154.596 147.273C155.106 147.975 155.361 148.939 155.361 150.165C155.361 151.427 155.097 152.405 154.568 153.098C154.044 153.79 153.329 154.137 152.422 154.137C151.524 154.137 150.82 153.811 150.31 153.159H150.166L149.817 154H148.225V143.363H150.31V145.838C150.31 146.152 150.282 146.656 150.228 147.349H150.31C150.797 146.592 151.52 146.214 152.477 146.214ZM151.807 147.882C151.292 147.882 150.916 148.041 150.679 148.36C150.442 148.675 150.319 149.197 150.31 149.926V150.151C150.31 150.972 150.43 151.56 150.672 151.915C150.918 152.271 151.305 152.448 151.834 152.448C152.262 152.448 152.602 152.252 152.853 151.86C153.108 151.464 153.235 150.89 153.235 150.138C153.235 149.386 153.108 148.823 152.853 148.449C152.597 148.071 152.249 147.882 151.807 147.882ZM159.169 154H157.084V143.363H159.169V154ZM164.528 147.697C164.086 147.697 163.74 147.839 163.489 148.121C163.239 148.399 163.095 148.796 163.059 149.311H165.984C165.975 148.796 165.841 148.399 165.581 148.121C165.321 147.839 164.97 147.697 164.528 147.697ZM164.822 154.137C163.592 154.137 162.63 153.797 161.938 153.118C161.245 152.439 160.898 151.478 160.898 150.233C160.898 148.953 161.217 147.964 161.855 147.267C162.498 146.565 163.384 146.214 164.515 146.214C165.595 146.214 166.436 146.521 167.037 147.137C167.639 147.752 167.939 148.602 167.939 149.687V150.698H163.011C163.034 151.291 163.209 151.753 163.537 152.086C163.865 152.419 164.326 152.585 164.918 152.585C165.378 152.585 165.813 152.537 166.224 152.441C166.634 152.346 167.062 152.193 167.509 151.983V153.597C167.144 153.779 166.755 153.913 166.34 154C165.925 154.091 165.419 154.137 164.822 154.137Z" fill="white"/>
</g>
<defs>
<linearGradient id="paint0_linear" x1="467" y1="54" x2="467" y2="206" gradientUnits="userSpaceOnUse">
<stop stop-color="#3E4768"/>
<stop offset="1" stop-color="#0C0E16"/>
</linearGradient>
<radialGradient id="paint1_radial" cx="0" cy="0" r="1" gradientUnits="userSpaceOnUse" gradientTransform="translate(467 130) rotate(90) scale(76)">
<stop stop-color="#3E4768"/>
<stop offset="1" stop-color="#3E4768" stop-opacity="0"/>
</radialGradient>
<linearGradient id="paint2_linear" x1="467" y1="54" x2="467" y2="206" gradientUnits="userSpaceOnUse">
<stop stop-color="#47BBD5"/>
<stop offset="1" stop-color="#265293"/>
</linearGradient>
<linearGradient id="paint3_linear" x1="134.101" y1="42" x2="134.101" y2="194" gradientUnits="userSpaceOnUse">
<stop stop-color="#3E4768"/>
<stop offset="1" stop-color="#0C0E16"/>
</linearGradient>
<radialGradient id="paint4_radial" cx="0" cy="0" r="1" gradientUnits="userSpaceOnUse" gradientTransform="translate(134.101 118) rotate(90) scale(76 77.1014)">
<stop stop-color="#3E4768"/>
<stop offset="1" stop-color="#3E4768" stop-opacity="0"/>
</radialGradient>
<linearGradient id="paint5_linear" x1="134.101" y1="42" x2="134.101" y2="194" gradientUnits="userSpaceOnUse">
<stop stop-color="#47BBD5"/>
<stop offset="1" stop-color="#265293"/>
</linearGradient>
<linearGradient id="paint6_linear" x1="292.5" y1="165" x2="292.5" y2="415" gradientUnits="userSpaceOnUse">
<stop stop-color="#3E4768"/>
<stop offset="1" stop-color="#0C0E16"/>
</linearGradient>
<radialGradient id="paint7_radial" cx="0" cy="0" r="1" gradientUnits="userSpaceOnUse" gradientTransform="translate(292.5 290) rotate(90) scale(125 124.5)">
<stop stop-color="#3E4768"/>
<stop offset="1" stop-color="#3E4768" stop-opacity="0"/>
</radialGradient>
<linearGradient id="paint8_linear" x1="292.5" y1="165" x2="292.5" y2="415" gradientUnits="userSpaceOnUse">
<stop stop-color="#47BBD5"/>
<stop offset="1" stop-color="#265293"/>
</linearGradient>
<linearGradient id="paint9_linear" x1="152" y1="410" x2="152" y2="562" gradientUnits="userSpaceOnUse">
<stop stop-color="#3E4768"/>
<stop offset="1" stop-color="#0C0E16"/>
</linearGradient>
<radialGradient id="paint10_radial" cx="0" cy="0" r="1" gradientUnits="userSpaceOnUse" gradientTransform="translate(152 486) rotate(90) scale(76)">
<stop stop-color="#3E4768"/>
<stop offset="1" stop-color="#3E4768" stop-opacity="0"/>
</radialGradient>
<linearGradient id="paint11_linear" x1="152" y1="410" x2="152" y2="562" gradientUnits="userSpaceOnUse">
<stop stop-color="#47BBD5"/>
<stop offset="1" stop-color="#265293"/>
</linearGradient>
<linearGradient id="paint12_linear" x1="515" y1="368" x2="515" y2="520" gradientUnits="userSpaceOnUse">
<stop stop-color="#3E4768"/>
<stop offset="1" stop-color="#0C0E16"/>
</linearGradient>
<radialGradient id="paint13_radial" cx="0" cy="0" r="1" gradientUnits="userSpaceOnUse" gradientTransform="translate(515 444) rotate(90) scale(76)">
<stop stop-color="#3E4768"/>
<stop offset="1" stop-color="#3E4768" stop-opacity="0"/>
</radialGradient>
<linearGradient id="paint14_linear" x1="515" y1="368" x2="515" y2="520" gradientUnits="userSpaceOnUse">
<stop stop-color="#47BBD5"/>
<stop offset="1" stop-color="#265293"/>
</linearGradient>
<clipPath id="clip0">
<rect width="601" height="586" fill="white"/>
</clipPath>
<clipPath id="clip1">
<rect x="113" y="70" width="40" height="40" fill="white"/>
</clipPath>
<clipPath id="clip2">
<rect x="259" y="246" width="68" height="68" fill="white"/>
</clipPath>
</defs>
</svg>
