<svg width="160" height="160" viewBox="0 0 160 160" fill="none" xmlns="http://www.w3.org/2000/svg">
<path d="M68.5127 124.155C68.5127 124.155 69.1667 122.759 67.7751 121.04C66.4579 119.414 64.4072 118.733 63.2791 119.647C62.151 120.561 61.8547 122.545 63.3093 124.341C64.7639 126.137 66.5523 125.907 66.5523 125.907C66.5523 125.907 66.3777 126.198 67.7751 127.924C69.1724 129.649 70.501 129.5 70.501 129.5C71.501 129.5 72.001 128.5 71.501 127C71.2299 126.187 70.5208 125.598 70.001 125C69.4812 124.402 68.5127 124.155 68.5127 124.155Z" fill="white"/>
<path d="M63.9444 113H56V120.944" stroke="#7BB7EF" stroke-width="2"/>
<path d="M78 120.944L78 113L70.0556 113" stroke="#7BB7EF" stroke-width="2"/>
<path d="M70.0556 135L78 135L78 127.056" stroke="#7BB7EF" stroke-width="2"/>
<path d="M56 127.056L56 135L63.9444 135" stroke="#7BB7EF" stroke-width="2"/>
<path d="M66.5711 42.016C63.5164 44.4589 64.1185 47.1189 64.1185 47.1189C64.1185 47.1189 61.4699 47.4149 60.3456 48.2512C59.2213 49.0875 57.5965 49.9679 57.1424 51.1269C56.6884 52.2858 57.0686 52.4006 57.0686 52.4006C57.0686 52.4006 51.9617 56.0657 42.6225 64.3091C33.2833 72.5525 32.1811 74.9628 32.1811 74.9628C32.1811 74.9628 31.5472 77.0824 33.2756 74.8624C35.004 72.6425 43.0272 64.9698 47.621 61.359C52.2149 57.7481 53.8255 56.6695 53.8255 56.6695C53.8255 56.6695 54.0228 56.9935 54.2483 57.3786C54.4864 57.7537 54.9971 57.7222 54.9971 57.7222C54.9971 57.7222 48.4163 63.1524 43.8313 68.5783C39.2462 74.0041 38.3955 76.2133 35.7698 78.5225C33.1441 80.8317 33.8041 81.1416 34.772 80.3676C35.74 79.5935 38.9542 77.1697 42.0307 72.9502C45.1073 68.7307 48.6459 64.728 52.9812 61.0517C57.3165 57.3753 59.9195 56.0686 59.9195 56.0686C59.9195 56.0686 61.1045 57.2153 64.1717 54.7625C67.239 52.3096 66.8437 50.8874 66.8437 50.8874C66.8437 50.8874 69.8468 51.9624 73.0397 49.409C76.2327 46.8556 76.4713 43.3139 74.8675 41.3084C73.2637 39.3029 69.4624 39.7039 66.5711 42.016Z" fill="white"/>
<path d="M43.5556 25H19V49.5556" stroke="#7BB7EF" stroke-width="2"/>
<path d="M87 49.5556L87 25L62.4444 25" stroke="#7BB7EF" stroke-width="2"/>
<path d="M62.4444 93L87 93L87 68.4444" stroke="#7BB7EF" stroke-width="2"/>
<path d="M19 68.4444L19 93L43.5556 93" stroke="#7BB7EF" stroke-width="2"/>
<path d="M120.775 91.0405C122.167 92.7587 121.513 94.1548 121.513 94.1548C121.513 94.1548 122.94 94.6385 123.459 95.2362C123.979 95.8339 124.77 96.5165 124.881 97.2114C124.991 97.9063 124.767 97.9237 124.767 97.9237C124.767 97.9237 127.34 99.8189 131.501 105.5C132.542 106.752 132.882 109.171 132.882 109.171C132.882 109.171 132.976 110.418 132.29 108.984C131.603 107.549 131.002 106.562 128.902 104.013C128.761 103.842 126.558 100.108 125.723 101.014C125.546 101.192 125.723 101.627 125.723 101.627C127.501 104.013 127.961 108 127.501 108C126.501 108 126.885 105.118 125.268 103C123.318 100.446 122.75 99.6047 122.75 99.6047C122.75 99.6047 121.957 100.095 120.559 98.3694C119.162 96.6441 119.552 95.9066 119.552 95.9066C119.552 95.9066 117.764 96.1372 116.309 94.3412C114.855 92.5452 115.151 90.5606 116.279 89.6469C117.407 88.7333 119.458 89.4142 120.775 91.0405Z" fill="white"/>
<path d="M119 82H106V95" stroke="#7BB7EF" stroke-width="2"/>
<path d="M142 95L142 82L129 82" stroke="#7BB7EF" stroke-width="2"/>
<path d="M129 118L142 118L142 105" stroke="#7BB7EF" stroke-width="2"/>
<path d="M106 105L106 118L119 118" stroke="#7BB7EF" stroke-width="2"/>
</svg>
