<svg width="88" height="57" viewBox="0 0 88 57" fill="none" xmlns="http://www.w3.org/2000/svg">
<path d="M26.0472 24.2208V38.0384H21.5537V20.6704L30.8305 20.6794C34.7708 20.6794 36.113 23.3993 36.113 25.8698V38.0384H31.6277V25.8926C31.6277 24.8577 31.0804 24.2209 29.7603 24.2209H26.0472V24.2208ZM56.6021 24.0133C55.0663 24.0133 53.8776 24.7862 53.3812 25.8354C53.087 26.4654 52.9858 26.9481 52.9512 27.7194H59.8642C59.7755 25.8354 58.9027 24.0133 56.6021 24.0133ZM52.9512 30.713C52.9512 32.9628 54.38 34.6187 56.9309 34.6187C58.9156 34.6187 59.9021 34.0803 61.0496 32.9628L63.825 35.5567C62.0479 37.274 60.1833 38.3168 56.8979 38.3168C52.5965 38.3168 48.4799 36.021 48.4799 29.3298C48.4799 23.6126 52.0741 20.376 56.7968 20.376C61.5839 20.376 64.3496 24.1653 64.3496 29.1286V30.713H52.9512ZM44.6868 38.0167C41.0262 38.0167 39.473 35.5223 39.473 33.0586V15.9384H43.9594V20.6704H47.3415V24.2208H43.9594V32.7833C43.9594 33.7923 44.4461 34.3524 45.5164 34.3524H47.3415V38.0167H44.6868ZM17.5556 18.2702H13.0314V14.0633H17.5556V18.2702ZM17.567 38.221C14.1789 37.9023 13.0265 35.8907 13.0265 33.5695L13.0314 20.6704H17.5671V38.221H17.567ZM71.4902 37.8499C68.1092 37.5307 66.9622 35.5223 66.9622 33.2042V13.4646H71.4902V37.8499ZM87.3198 16.3174C83.2163 -3.26654 44.3802 -4.50631 19.3479 10.4107V12.0576C44.3548 -0.522299 79.8206 -0.44819 83.0519 17.5895C84.1329 23.5538 80.6994 29.7723 74.5674 33.3466V38.023C81.9481 35.3799 89.5176 26.8089 87.3198 16.3174ZM41.8168 50.5817C24.5406 52.1449 6.53751 49.6903 4.01849 36.4757C2.78548 29.9613 5.81717 23.0557 9.83907 18.7662V16.4725C2.5989 22.6873 -1.33052 30.5552 0.931629 39.852C3.81894 51.7733 19.27 58.5291 42.8535 56.2856C52.1844 55.3942 64.3972 52.4573 72.8876 47.8957V41.4152C65.1835 45.9058 52.4348 49.6193 41.8168 50.5817Z" fill="white"/>
<path d="M76.7246 14.7756C76.7246 14.5606 76.5964 14.4924 76.3033 14.4924H76.0205V15.1006C76.0616 15.1006 76.2671 15.108 76.3033 15.108C76.5964 15.108 76.7246 15.0122 76.7246 14.811V14.7756V14.7756ZM77.1659 16.2837H76.8306C76.8003 16.2837 76.7738 16.2652 76.7608 16.2403L76.3033 15.4812C76.2952 15.4659 76.2557 15.4473 76.2401 15.4473H76.0346V16.2001C76.0346 16.2403 76.0064 16.2837 75.9524 16.2837H75.649C75.6111 16.2837 75.5733 16.2403 75.5733 16.2001V14.296C75.5733 14.1859 75.6171 14.1398 75.7123 14.1255C75.8193 14.1118 76.1103 14.1022 76.2671 14.1022C76.8241 14.1022 77.161 14.2631 77.161 14.7756V14.811C77.161 15.1281 76.9999 15.2954 76.75 15.3774L77.2243 16.1625C77.2273 16.1784 77.2384 16.2001 77.2384 16.2186C77.2384 16.2493 77.2194 16.2837 77.1659 16.2837L77.1659 16.2837ZM76.3698 13.7586C75.5446 13.7586 74.8773 14.4256 74.8773 15.2287C74.8773 16.0328 75.5446 16.6892 76.3698 16.6892C77.1908 16.6892 77.8646 16.0328 77.8646 15.2287C77.8646 14.4256 77.1908 13.7586 76.3698 13.7586ZM76.3698 16.992C75.3672 16.992 74.5674 16.2001 74.5674 15.2287C74.5674 14.2589 75.3672 13.4648 76.3698 13.4648C77.3617 13.4648 78.1766 14.2589 78.1766 15.2287C78.1766 16.2001 77.3617 16.992 76.3698 16.992Z" fill="#0071C5"/>
</svg>
