<svg width="222" height="39" viewBox="0 0 222 39" fill="none" xmlns="http://www.w3.org/2000/svg">
<path d="M30.1615 34.3197L21.009 18.5497C20.9706 18.4915 20.9183 18.4437 20.8566 18.4105C20.795 18.3774 20.726 18.3599 20.6558 18.3597C20.5852 18.357 20.5151 18.3732 20.4529 18.4066C20.3908 18.4401 20.3389 18.4895 20.3027 18.5497L11.1502 34.3297C11.0964 34.402 11.068 34.4898 11.0695 34.5797C11.0666 34.6851 11.1049 34.7876 11.1763 34.8658C11.2477 34.944 11.3468 34.992 11.4529 34.9997H29.8588C29.9118 34.9971 29.9638 34.9842 30.0118 34.9617C30.0598 34.9392 30.1028 34.9075 30.1384 34.8685C30.174 34.8295 30.2015 34.7839 30.2193 34.7343C30.2372 34.6848 30.2449 34.6322 30.2422 34.5797C30.243 34.4868 30.2148 34.396 30.1615 34.3197Z" fill="white"/>
<path d="M29.8588 1.00014H11.4529C11.3468 1.00782 11.2477 1.05575 11.1763 1.13398C11.1049 1.2122 11.0666 1.31469 11.0695 1.42014C11.0701 1.50967 11.0983 1.59689 11.1502 1.67014L20.2825 17.4301C20.321 17.4942 20.3757 17.5473 20.4411 17.5841C20.5066 17.6209 20.5806 17.6402 20.6559 17.6401C20.7286 17.6409 20.8 17.6216 20.8624 17.5846C20.9247 17.5475 20.9755 17.4941 21.009 17.4301L30.1615 1.68014C30.2257 1.60751 30.2646 1.51636 30.2725 1.42014C30.2753 1.3651 30.2666 1.31008 30.2469 1.25853C30.2272 1.20698 30.197 1.16002 30.1582 1.12059C30.1194 1.08115 30.0727 1.0501 30.0212 1.02937C29.9696 1.00864 29.9144 0.99869 29.8588 1.00014Z" fill="white"/>
<path d="M28.4157 6.7793H28.3451C28.308 6.7793 28.2713 6.78654 28.237 6.80061C28.2027 6.81468 28.1716 6.83531 28.1453 6.86131C28.1191 6.88731 28.0983 6.91817 28.0841 6.95215C28.0699 6.98612 28.0626 7.02253 28.0626 7.0593C28.0629 7.11573 28.0804 7.17074 28.1128 7.21714C28.1452 7.26354 28.191 7.29914 28.2442 7.3193C32.4017 8.7393 35.1666 11.2293 35.1666 14.0693C35.1666 17.5993 30.8779 20.5993 24.9344 21.6593C24.8937 21.6669 24.8555 21.6839 24.8227 21.709C24.79 21.734 24.7637 21.7664 24.746 21.8035C24.7282 21.8405 24.7196 21.8812 24.7208 21.9222C24.722 21.9632 24.7329 22.0033 24.7527 22.0393C25.2472 23.0393 25.8527 24.1193 26.448 25.1493C27.1947 26.4393 27.9415 27.6593 28.668 28.7993C28.7069 28.8601 28.7605 28.9103 28.8239 28.9452C28.8874 28.9801 28.9587 28.9987 29.0313 28.9993H29.1423C35.7014 26.9993 40.2423 22.8493 40.2423 17.9993C40.2221 12.9993 35.3179 8.6793 28.4157 6.7793Z" fill="white"/>
<path d="M12.8152 29.1104H12.8858C12.959 29.1078 13.0283 29.0772 13.0791 29.0249C13.1299 28.9727 13.1583 28.903 13.1582 28.8304C13.1594 28.7736 13.1425 28.718 13.1099 28.6713C13.0772 28.6246 13.0306 28.5893 12.9766 28.5704C8.81915 27.1504 6.05424 24.6704 6.05424 21.8304C6.05424 18.2904 10.3429 15.2904 16.2763 14.2404C16.3377 14.2266 16.3923 14.1921 16.4309 14.1429C16.4696 14.0937 16.4898 14.0327 16.4882 13.9704C16.4986 13.9345 16.4986 13.8964 16.4882 13.8604C15.9938 12.8604 15.3883 11.7704 14.793 10.7504C14.0462 9.45041 13.2995 8.24041 12.5629 7.10041C12.5271 7.03907 12.4756 6.98823 12.4136 6.95309C12.3515 6.91795 12.2812 6.89977 12.2097 6.90041H12.1088C5.55979 8.90041 1.00879 13.0604 1.00879 17.9004C1.00879 22.9104 5.86252 27.2004 12.8152 29.1104Z" fill="white"/>
<path d="M126.207 15.7088L126.298 13.9988C126.037 14.588 125.602 15.0853 125.052 15.4261C124.501 15.7668 123.859 15.935 123.21 15.9088C122.878 15.9511 122.54 15.9212 122.221 15.8213C121.902 15.7215 121.608 15.5539 121.36 15.3304C121.113 15.1069 120.917 14.8327 120.787 14.5268C120.657 14.2209 120.595 13.8906 120.607 13.5588C120.607 10.9688 122.786 9.76883 126.137 9.76883V9.59883C126.137 8.44883 125.612 7.85883 124.118 7.85883C123.145 7.86884 122.19 8.12345 121.343 8.59883L121.162 6.90883C122.206 6.51311 123.313 6.3065 124.431 6.29883C127.277 6.29883 128.064 7.52883 128.064 9.41883V14.5288C128.518 14.5988 129.245 14.7988 129.245 14.7988V15.6588L126.207 15.7088ZM126.106 11.0888C123.18 11.0888 122.453 11.9288 122.453 13.1988C122.455 13.363 122.492 13.5249 122.561 13.674C122.63 13.8231 122.731 13.9559 122.856 14.0636C122.98 14.1714 123.127 14.2516 123.286 14.2991C123.444 14.3465 123.611 14.3601 123.775 14.3388C124.437 14.295 125.054 13.9962 125.496 13.5064C125.937 13.0166 126.167 12.3748 126.137 11.7188L126.106 11.0888Z" fill="white"/>
<path d="M120.415 33.8387L120.506 32.1387C120.232 32.7192 119.791 33.206 119.237 33.5372C118.684 33.8684 118.044 34.0291 117.398 33.9987C117.065 34.0393 116.727 34.008 116.408 33.9069C116.088 33.8058 115.795 33.6373 115.547 33.413C115.3 33.1887 115.105 32.914 114.975 32.6077C114.844 32.3014 114.783 31.9708 114.794 31.6387C114.794 29.0487 116.974 27.8487 120.324 27.8487V27.7087C120.324 26.5487 119.799 25.9587 118.306 25.9587C117.332 25.9674 116.377 26.2221 115.531 26.6987L115.38 24.9987C116.424 24.603 117.531 24.3963 118.649 24.3887C121.495 24.3887 122.282 25.6187 122.282 27.5087V32.6187C122.736 32.6887 123.462 32.8887 123.462 32.8887V33.7587L120.415 33.8387ZM120.314 29.2187C117.388 29.2187 116.661 30.0587 116.661 31.3387C116.664 31.502 116.702 31.6628 116.772 31.8107C116.841 31.9586 116.942 32.0901 117.067 32.1968C117.192 32.3035 117.338 32.3828 117.496 32.4297C117.654 32.4765 117.82 32.4898 117.983 32.4687C118.639 32.4174 119.249 32.1154 119.684 31.6264C120.119 31.1374 120.345 30.4999 120.314 29.8487V29.2187Z" fill="white"/>
<path d="M172.555 15.8888C169.971 15.8888 168.286 14.4588 168.286 11.2188C168.286 8.42883 170.102 6.29883 172.928 6.29883C175.42 6.29883 177.176 7.66883 177.176 10.9188C177.217 13.7588 175.35 15.8888 172.555 15.8888ZM172.756 7.94883C171.535 7.94883 170.345 8.87883 170.345 11.0088C170.345 13.1388 171.172 14.2088 172.746 14.2088C174.038 14.2088 175.138 13.2088 175.138 11.0488C175.178 9.06883 174.401 7.99883 172.797 7.99883L172.756 7.94883Z" fill="white"/>
<path d="M88.0233 33.9997C85.4401 33.9997 83.7549 32.5997 83.7549 29.3497C83.7549 26.5697 85.5712 24.4297 88.4068 24.4297C90.8892 24.4297 92.6551 25.8097 92.6551 29.0497C92.6551 31.8897 90.8185 33.9997 88.0233 33.9997ZM88.2353 25.9997C87.0042 25.9997 85.8134 26.9297 85.8134 29.0697C85.8134 31.2097 86.651 32.2597 88.2151 32.2597C89.5168 32.2597 90.6167 31.2597 90.6167 29.0997C90.6167 27.1997 89.8094 26.0797 88.2353 26.0797V25.9997Z" fill="white"/>
<path d="M54.7437 33.9997C52.1604 33.9997 50.4551 32.5997 50.4551 29.3497C50.4551 26.5697 52.2714 24.4297 55.0969 24.4297C57.5894 24.4297 59.3553 25.7997 59.3553 29.0497C59.3754 31.8897 57.5187 33.9997 54.7437 33.9997ZM54.9556 25.9997C53.7245 25.9997 52.5338 26.9297 52.5338 29.0697C52.5338 31.2097 53.3613 32.2597 54.9354 32.2597C56.2372 32.2597 57.327 31.2597 57.327 29.0997C57.327 27.1997 56.5601 26.0797 54.9556 26.0797V25.9997Z" fill="white"/>
<path d="M192 8.28914C192.274 7.67533 192.727 7.1568 193.301 6.80035C193.874 6.44389 194.543 6.26584 195.219 6.28914C197.338 6.28914 198.004 7.60914 198.004 9.28914V15.7491H195.986V9.76914C196.067 8.61914 195.764 7.99914 194.654 7.99914C193.272 7.99914 192.222 9.46914 192.222 11.3091V15.7591H190.204V7.75914L189.023 7.52914V6.52914C189.023 6.52914 190.981 6.37914 192.121 6.42914C192.127 7.05125 192.087 7.67294 192 8.28914Z" fill="white"/>
<path d="M210.981 15.7093H208.963V7.70934C208.508 7.62934 207.822 7.47934 207.822 7.47934V6.47934C207.822 6.47934 209.729 6.32934 210.94 6.37934L210.981 15.7093Z" fill="white"/>
<path d="M209.892 4.48924C209.557 4.48667 209.237 4.35446 208.999 4.12087C208.761 3.88729 208.625 3.57086 208.62 3.23924C208.649 2.92058 208.796 2.62405 209.035 2.40805C209.273 2.19206 209.584 2.07227 209.907 2.07227C210.23 2.07227 210.541 2.19206 210.779 2.40805C211.017 2.62405 211.165 2.92058 211.193 3.23924C211.191 3.40602 211.155 3.57066 211.088 3.72375C211.021 3.87684 210.925 4.01538 210.804 4.13145C210.683 4.24753 210.54 4.33887 210.384 4.40026C210.227 4.46165 210.06 4.49189 209.892 4.48924Z" fill="white"/>
<path d="M132.817 8.52891H132.898C133.079 7.83866 133.503 7.23505 134.093 6.82638C134.683 6.4177 135.4 6.2307 136.117 6.29891V8.29891C134.27 7.95891 133.089 9.23891 133.089 12.0089V15.7589H131.071V7.75891L129.8 7.52891V6.52891C129.8 6.52891 131.818 6.37891 132.978 6.42891C132.974 7.13179 132.92 7.83352 132.817 8.52891Z" fill="white"/>
<path d="M77.5486 11.4888H71.6455C71.6455 13.6188 72.5436 14.3188 74.4003 14.3188C75.339 14.3228 76.2667 14.1178 77.1147 13.7188L77.3065 15.2988C76.2821 15.7002 75.1889 15.9005 74.0875 15.8888C71.1813 15.8888 69.5869 14.4088 69.5869 11.1588C69.5869 8.37883 71.1207 6.29883 73.8352 6.29883C76.5496 6.29883 77.6395 8.36883 77.6395 10.5588C77.5991 10.8188 77.5789 11.1288 77.5486 11.4888ZM73.7242 7.76883C72.3316 7.76883 71.8473 8.60883 71.6455 10.0888H75.7726C75.8332 8.35883 74.8947 7.76883 73.7242 7.76883Z" fill="white"/>
<path d="M118.922 11.4888H113.019C112.958 13.6188 113.917 14.3188 115.773 14.3188C116.712 14.3215 117.639 14.1165 118.488 13.7188L118.669 15.2988C117.645 15.7012 116.552 15.9016 115.45 15.8888C112.544 15.8888 110.96 14.4088 110.96 11.1588C110.96 8.37883 112.494 6.29883 115.208 6.29883C117.923 6.29883 119.013 8.36883 119.013 10.5588C118.999 10.8702 118.969 11.1807 118.922 11.4888ZM115.107 7.76883C113.705 7.76883 113.22 8.60883 113.029 10.0888H117.156C117.206 8.35883 116.268 7.76883 115.107 7.76883Z" fill="white"/>
<path d="M101.475 11.4888H95.5312C95.5312 13.6188 96.4293 14.3188 98.286 14.3188C99.2248 14.3228 100.152 14.1178 101 13.7188L101.192 15.2988C100.168 15.7002 99.0746 15.9005 97.9732 15.8888C95.067 15.8888 93.4727 14.4088 93.4727 11.1588C93.4727 8.37883 95.0065 6.29883 97.7209 6.29883C100.435 6.29883 101.525 8.36883 101.525 10.5588C101.525 10.8188 101.505 11.1288 101.475 11.4888ZM97.6503 7.76883C96.2577 7.76883 95.7734 8.60883 95.5716 10.0888H99.6987C99.7593 8.35883 98.8107 7.76883 97.6503 7.76883Z" fill="white"/>
<path d="M54.9149 3.99906V15.7091H52.8261V3.99906H49.7988V2.28906H57.9321V3.99906H54.9149Z" fill="white"/>
<path d="M105.329 15.8888C104.669 15.8886 104.01 15.8284 103.361 15.7088L103.422 14.0188C104.077 14.2111 104.757 14.3121 105.44 14.3188C106.53 14.3188 107.277 13.8488 107.277 13.0888C107.277 11.2388 103.24 12.3488 103.24 9.15883C103.24 7.55883 104.552 6.29883 107.085 6.29883C107.667 6.30634 108.248 6.36322 108.82 6.46883L108.77 8.07883C108.18 7.90718 107.569 7.81964 106.954 7.81883C105.844 7.81883 105.309 8.26883 105.309 8.96883C105.309 10.7488 109.426 9.83883 109.426 12.9088C109.376 14.6288 107.821 15.8888 105.329 15.8888Z" fill="white"/>
<path d="M144.027 3.11914V2.11914C145.036 2.11914 146.046 2.11914 147.277 2.11914V6.33914C147.291 6.9598 147.237 7.58017 147.115 8.18914C147.4 7.58748 147.862 7.08514 148.44 6.74791C149.018 6.41067 149.685 6.25426 150.354 6.29914C152.473 6.29914 153.139 7.61914 153.139 9.29914V15.7591H151.121V9.76914C151.121 8.61914 150.798 7.94914 149.729 7.94914C148.336 7.99914 147.327 9.41914 147.327 11.2691V15.7091H145.309V3.42914C144.876 3.3494 144.448 3.2459 144.027 3.11914Z" fill="white"/>
<path d="M164.422 15.8701C160.184 15.8101 158.68 12.2801 158.731 8.94013C158.791 5.04013 160.82 2.14013 165.068 2.20013C166.008 2.23084 166.942 2.365 167.853 2.60013L167.601 4.45013C166.72 4.1624 165.803 4.00405 164.876 3.98013C162.232 3.98013 161.001 5.98013 160.971 8.64013C160.92 11.5501 162.141 14.0201 164.896 14.0601C165.811 14.0642 166.718 13.8839 167.56 13.5301L167.772 15.3301C166.699 15.7137 165.563 15.8968 164.422 15.8701Z" fill="white"/>
<path d="M185.279 15.7084C185.279 15.4084 185.35 14.3584 185.39 13.9084C185.115 14.523 184.66 15.0419 184.085 15.3983C183.509 15.7547 182.839 15.9324 182.161 15.9084C180.052 15.9084 179.376 14.5984 179.376 12.9084V7.73841C178.922 7.66841 178.367 7.55841 178.195 7.52841V6.52841C178.801 6.52841 180.496 6.40841 181.374 6.43841V12.3684C181.374 13.5184 181.677 14.1884 182.766 14.1884C184.149 14.1884 185.198 12.7284 185.198 10.8884V6.48841H187.217V14.4884C187.661 14.5584 188.074 14.6784 188.397 14.7584V15.6184C187.358 15.6984 186.409 15.6784 185.279 15.7084Z" fill="white"/>
<path d="M204.129 15.86C201.738 15.86 199.992 14.69 199.992 11.4C199.992 8.46996 201.516 6.33996 204.715 6.33996C205.398 6.33613 206.077 6.43044 206.733 6.61996L206.531 8.31996C205.929 8.10769 205.294 7.99945 204.654 7.99996C202.959 7.99996 202.071 9.25996 202.071 11.21C202.071 12.9 202.707 14.21 204.563 14.21C205.261 14.2179 205.952 14.0674 206.582 13.77L206.753 15.43C205.911 15.7254 205.023 15.871 204.129 15.86Z" fill="white"/>
<path d="M140.708 15.86C138.316 15.86 136.57 14.69 136.57 11.4C136.57 8.46996 138.084 6.33996 141.293 6.33996C141.976 6.33613 142.656 6.43044 143.311 6.61996L143.109 8.31996C142.519 8.11215 141.899 8.00398 141.273 7.99996C139.567 7.99996 138.689 9.25996 138.689 11.21C138.689 12.9 139.325 14.21 141.182 14.21C141.879 14.2158 142.569 14.0654 143.2 13.77L143.372 15.43C142.517 15.7301 141.614 15.8758 140.708 15.86Z" fill="white"/>
<path d="M215.733 15.7099H213.715V3.43988C213.382 3.37988 212.625 3.15988 212.464 3.11988V2.11988C212.464 2.11988 214.24 2.06988 215.723 2.11988L215.733 15.7099Z" fill="white"/>
<path d="M66.6001 22.0002C66.186 21.8688 65.7533 21.8047 65.3186 21.8102C64.1278 21.8102 63.5829 22.4602 63.5829 23.9102V24.6502H66.1359V26.1902H63.5728V33.8702H61.5546V26.1602H59.9199V24.6202H61.5546V23.9102C61.5546 21.3902 62.7756 20.1602 65.1874 20.1602C65.6968 20.16 66.2046 20.2171 66.701 20.3302L66.6001 22.0002Z" fill="white"/>
<path d="M111.484 33.8396H109.466L107.892 28.9996C107.69 28.3796 107.519 27.7496 107.347 27.0496H107.287C107.105 27.8596 106.893 28.5896 106.651 29.3696L105.248 33.8196H103.23L100.546 24.5996H102.564L103.755 28.8896C104.007 29.7596 104.179 30.6296 104.36 31.4596H104.431C104.604 30.6086 104.823 29.7674 105.087 28.9396L106.469 24.5996H108.356L109.759 28.8696C110.112 29.9796 110.304 30.6696 110.485 31.4596H110.556C110.738 30.6096 110.879 29.8696 111.162 28.9596L112.413 24.5996H114.35L111.484 33.8396Z" fill="white"/>
<path d="M128.407 34.7294C127.327 37.6094 126.389 38.4994 124.31 38.4994C123.887 38.4908 123.465 38.4473 123.049 38.3694L123.2 36.6294C123.592 36.7653 124.006 36.833 124.421 36.8294C125.36 36.8294 125.884 36.3994 126.439 34.8294L126.813 33.8294L123.331 24.6094H125.531L127.055 28.8194C127.348 29.6394 127.58 30.4494 127.781 31.2294H127.842C128.034 30.4894 128.427 29.2894 128.76 28.3594L130.092 24.6094H132.242L128.407 34.7294Z" fill="white"/>
<path d="M58.6582 3.25V2.25C59.6673 2.25 60.5957 2.25 61.8267 2.25V6.25C61.838 6.87103 61.7805 7.49141 61.6552 8.1C61.95 7.52091 62.4109 7.04108 62.98 6.72082C63.5492 6.40055 64.2012 6.25415 64.854 6.3C66.9731 6.3 67.6492 7.62 67.6492 9.3V15.76H65.631V9.77C65.631 8.62 65.3182 7.95 64.2486 7.95C62.8459 7.95 61.8167 9.42 61.8167 11.27V15.71H59.7985V3.57C59.5361 3.52 58.8701 3.31 58.6582 3.25Z" fill="white"/>
<path d="M79.1027 33.8395L75.1471 26.5095C74.5921 25.5995 73.8554 24.1195 73.4619 23.2795C73.5426 24.5095 73.5729 27.8495 73.5729 29.6295V33.8395H71.6455V20.5195H74.1884L78.356 28.0595C78.9211 28.9795 79.365 29.9895 79.809 30.8895C79.7283 29.4595 79.6779 26.9995 79.6779 25.1595V20.5195H81.6961V33.8395H79.1027Z" fill="white"/>
<path d="M90.8188 15.7087L86.5302 9.70875H86.0358V15.7087H84.0176V2.28875C84.9358 2.28875 85.8037 2.21875 87.2265 2.21875C89.6079 2.21875 91.5252 3.08875 91.6463 5.56875C91.7761 6.49639 91.5308 7.43729 90.9638 8.1865C90.3968 8.93571 89.554 9.43254 88.619 9.56875C88.9722 10.0087 89.1034 10.1787 89.6281 10.8487L93.1902 15.7487L90.8188 15.7087ZM86.8733 3.86875C86.4798 3.86875 86.288 3.86875 85.9954 3.86875V7.99875C86.2575 8.01534 86.5204 8.01534 86.7825 7.99875C88.3365 7.99875 89.7088 7.57875 89.6887 5.73875C89.6685 3.89875 88.3466 3.86875 86.8733 3.86875Z" fill="white"/>
<path d="M96.5097 26.6588H96.5904C96.7721 25.9667 97.1973 25.3616 97.7894 24.9528C98.3814 24.5439 99.1014 24.3581 99.8195 24.4288V26.3788C97.9628 26.0488 96.7922 27.3288 96.7922 30.0888V33.8388H94.7741V25.8388C94.3301 25.7688 93.5127 25.6088 93.5127 25.6088V24.6588C93.5127 24.6588 95.5309 24.5088 96.6913 24.5688C96.6796 25.2688 96.6189 25.9671 96.5097 26.6588Z" fill="white"/>
<path d="M126.207 15.7088L126.298 13.9988C126.037 14.588 125.602 15.0853 125.052 15.4261C124.501 15.7668 123.859 15.935 123.21 15.9088C122.878 15.9511 122.54 15.9212 122.221 15.8213C121.902 15.7215 121.608 15.5539 121.36 15.3304C121.113 15.1069 120.917 14.8327 120.787 14.5268C120.657 14.2209 120.595 13.8906 120.607 13.5588C120.607 10.9688 122.786 9.76883 126.137 9.76883V9.59883C126.137 8.44883 125.612 7.85883 124.118 7.85883C123.145 7.86884 122.19 8.12345 121.343 8.59883L121.162 6.90883C122.206 6.51311 123.313 6.3065 124.431 6.29883C127.277 6.29883 128.064 7.52883 128.064 9.41883V14.5288C128.518 14.5988 129.245 14.7988 129.245 14.7988V15.6588L126.207 15.7088ZM126.106 11.0888C123.18 11.0888 122.453 11.9288 122.453 13.1988C122.455 13.363 122.492 13.5249 122.561 13.674C122.63 13.8231 122.731 13.9559 122.856 14.0636C122.98 14.1714 123.127 14.2516 123.286 14.2991C123.444 14.3465 123.611 14.3601 123.775 14.3388C124.437 14.295 125.054 13.9962 125.496 13.5064C125.937 13.0166 126.167 12.3748 126.137 11.7188L126.106 11.0888Z" fill="white"/>
<path d="M120.415 33.6888L120.506 31.9788C120.244 32.5682 119.81 33.0661 119.259 33.4084C118.709 33.7506 118.068 33.9215 117.418 33.8988C117.085 33.9395 116.748 33.9082 116.428 33.8071C116.109 33.706 115.815 33.5375 115.568 33.3132C115.32 33.0889 115.125 32.8141 114.995 32.5078C114.865 32.2015 114.804 31.8709 114.815 31.5388C114.815 28.9488 116.994 27.7488 120.345 27.7488V27.5988C120.345 26.4488 119.82 25.8588 118.326 25.8588C117.353 25.8675 116.398 26.1222 115.551 26.5988L115.37 24.9088C116.414 24.5131 117.521 24.3065 118.639 24.2988C121.485 24.2988 122.272 25.5288 122.272 27.4188V32.5288C122.726 32.5988 123.453 32.7988 123.453 32.7988V33.6688L120.415 33.6888ZM120.314 29.0688C117.388 29.0688 116.661 29.9088 116.661 31.1888C116.664 31.3521 116.702 31.513 116.772 31.6608C116.842 31.8087 116.942 31.9403 117.067 32.047C117.192 32.1536 117.338 32.233 117.496 32.2798C117.654 32.3267 117.82 32.34 117.983 32.3188C118.639 32.2676 119.249 31.9655 119.684 31.4765C120.119 30.9876 120.345 30.35 120.314 29.6988V29.0688Z" fill="white"/>
<path d="M172.555 15.8888C169.971 15.8888 168.286 14.4588 168.286 11.2188C168.286 8.42883 170.102 6.29883 172.928 6.29883C175.42 6.29883 177.176 7.66883 177.176 10.9188C177.217 13.7588 175.35 15.8888 172.555 15.8888ZM172.756 7.94883C171.535 7.94883 170.345 8.87883 170.345 11.0088C170.345 13.1388 171.172 14.2088 172.746 14.2088C174.038 14.2088 175.138 13.2088 175.138 11.0488C175.178 9.06883 174.401 7.99883 172.797 7.99883L172.756 7.94883Z" fill="white"/>
<path d="M88.0233 33.8793C85.4401 33.8793 83.7549 32.4493 83.7549 29.1993C83.7549 26.4093 85.5712 24.2793 88.4068 24.2793C90.8892 24.2793 92.6551 25.6593 92.6551 28.8993C92.6551 31.7393 90.8185 33.8793 88.0233 33.8793ZM88.2353 25.8793C87.0042 25.8793 85.8134 26.8093 85.8134 28.9393C85.8134 31.0693 86.651 32.1393 88.2151 32.1393C89.5168 32.1393 90.6167 31.1393 90.6167 28.9793C90.6167 27.0493 89.8094 25.9293 88.2353 25.9293V25.8793Z" fill="white"/>
<path d="M54.7431 33.8793C52.1598 33.8793 50.4746 32.4493 50.4746 29.1993C50.4746 26.4093 52.291 24.2793 55.1164 24.2793C57.6089 24.2793 59.3748 25.6493 59.3748 28.8993C59.3748 31.7393 57.5181 33.8793 54.7431 33.8793ZM54.955 25.8793C53.7239 25.8793 52.5332 26.8093 52.5332 28.9393C52.5332 31.0693 53.3606 32.1393 54.9348 32.1393C56.2365 32.1393 57.3263 31.1393 57.3263 28.9793C57.3263 27.0493 56.5594 25.9293 54.955 25.9293V25.8793Z" fill="white"/>
<path d="M192 8.28914C192.274 7.67533 192.727 7.1568 193.301 6.80035C193.874 6.44389 194.543 6.26584 195.219 6.28914C197.338 6.28914 198.004 7.60914 198.004 9.28914V15.7491H195.986V9.76914C196.067 8.61914 195.764 7.99914 194.654 7.99914C193.272 7.99914 192.222 9.46914 192.222 11.3091V15.7591H190.204V7.75914L189.023 7.52914V6.52914C189.023 6.52914 190.981 6.37914 192.121 6.42914C192.127 7.05125 192.087 7.67294 192 8.28914Z" fill="white"/>
<path d="M210.981 15.7093H208.963V7.70934C208.508 7.62934 207.822 7.47934 207.822 7.47934V6.47934C207.822 6.47934 209.729 6.32934 210.94 6.37934L210.981 15.7093Z" fill="white"/>
<path d="M209.892 4.48924C209.557 4.48667 209.237 4.35446 208.999 4.12087C208.761 3.88729 208.625 3.57086 208.62 3.23924C208.649 2.92058 208.796 2.62405 209.035 2.40805C209.273 2.19206 209.584 2.07227 209.907 2.07227C210.23 2.07227 210.541 2.19206 210.779 2.40805C211.017 2.62405 211.165 2.92058 211.193 3.23924C211.191 3.40602 211.155 3.57066 211.088 3.72375C211.021 3.87684 210.925 4.01538 210.804 4.13145C210.683 4.24753 210.54 4.33887 210.384 4.40026C210.227 4.46165 210.06 4.49189 209.892 4.48924Z" fill="white"/>
<path d="M132.817 8.52891H132.898C133.079 7.83866 133.503 7.23505 134.093 6.82638C134.683 6.4177 135.4 6.2307 136.117 6.29891V8.29891C134.27 7.95891 133.089 9.23891 133.089 12.0089V15.7589H131.071V7.75891L129.8 7.52891V6.52891C129.8 6.52891 131.818 6.37891 132.978 6.42891C132.974 7.13179 132.92 7.83352 132.817 8.52891Z" fill="white"/>
<path d="M77.5486 11.4888H71.6455C71.6455 13.6188 72.5436 14.3188 74.4003 14.3188C75.339 14.3228 76.2667 14.1178 77.1147 13.7188L77.3065 15.2988C76.2821 15.7002 75.1889 15.9005 74.0875 15.8888C71.1813 15.8888 69.5869 14.4088 69.5869 11.1588C69.5869 8.37883 71.1207 6.29883 73.8352 6.29883C76.5496 6.29883 77.6395 8.36883 77.6395 10.5588C77.5991 10.8188 77.5789 11.1288 77.5486 11.4888ZM73.7242 7.76883C72.3316 7.76883 71.8473 8.60883 71.6455 10.0888H75.7726C75.8332 8.35883 74.8947 7.76883 73.7242 7.76883Z" fill="white"/>
<path d="M118.922 11.4888H113.019C112.958 13.6188 113.917 14.3188 115.773 14.3188C116.712 14.3215 117.639 14.1165 118.488 13.7188L118.669 15.2988C117.645 15.7012 116.552 15.9016 115.45 15.8888C112.544 15.8888 110.96 14.4088 110.96 11.1588C110.96 8.37883 112.494 6.29883 115.208 6.29883C117.923 6.29883 119.013 8.36883 119.013 10.5588C118.999 10.8702 118.969 11.1807 118.922 11.4888ZM115.107 7.76883C113.705 7.76883 113.22 8.60883 113.029 10.0888H117.156C117.206 8.35883 116.268 7.76883 115.107 7.76883Z" fill="white"/>
<path d="M101.475 11.4888H95.5312C95.5312 13.6188 96.4293 14.3188 98.286 14.3188C99.2248 14.3228 100.152 14.1178 101 13.7188L101.192 15.2988C100.168 15.7002 99.0746 15.9005 97.9732 15.8888C95.067 15.8888 93.4727 14.4088 93.4727 11.1588C93.4727 8.37883 95.0065 6.29883 97.7209 6.29883C100.435 6.29883 101.525 8.36883 101.525 10.5588C101.525 10.8188 101.505 11.1288 101.475 11.4888ZM97.6503 7.76883C96.2577 7.76883 95.7734 8.60883 95.5716 10.0888H99.6987C99.7593 8.35883 98.8107 7.76883 97.6503 7.76883Z" fill="white"/>
<path d="M54.9149 3.99906V15.7091H52.8261V3.99906H49.7988V2.28906H57.9321V3.99906H54.9149Z" fill="white"/>
<path d="M105.329 15.8888C104.669 15.8886 104.01 15.8284 103.361 15.7088L103.422 14.0188C104.077 14.2111 104.757 14.3121 105.44 14.3188C106.53 14.3188 107.277 13.8488 107.277 13.0888C107.277 11.2388 103.24 12.3488 103.24 9.15883C103.24 7.55883 104.552 6.29883 107.085 6.29883C107.667 6.30634 108.248 6.36322 108.82 6.46883L108.77 8.07883C108.18 7.90718 107.569 7.81964 106.954 7.81883C105.844 7.81883 105.309 8.26883 105.309 8.96883C105.309 10.7488 109.426 9.83883 109.426 12.9088C109.376 14.6288 107.821 15.8888 105.329 15.8888Z" fill="white"/>
<path d="M144.027 3.11914V2.11914C145.036 2.11914 146.046 2.11914 147.277 2.11914V6.33914C147.291 6.9598 147.237 7.58017 147.115 8.18914C147.4 7.58748 147.862 7.08514 148.44 6.74791C149.018 6.41067 149.685 6.25426 150.354 6.29914C152.473 6.29914 153.139 7.61914 153.139 9.29914V15.7591H151.121V9.76914C151.121 8.61914 150.798 7.94914 149.729 7.94914C148.336 7.99914 147.327 9.41914 147.327 11.2691V15.7091H145.309V3.42914C144.876 3.3494 144.448 3.2459 144.027 3.11914Z" fill="white"/>
<path d="M164.422 15.8701C160.184 15.8101 158.68 12.2801 158.731 8.94013C158.791 5.04013 160.82 2.14013 165.068 2.20013C166.008 2.23084 166.942 2.365 167.853 2.60013L167.601 4.45013C166.72 4.1624 165.803 4.00405 164.876 3.98013C162.232 3.98013 161.001 5.98013 160.971 8.64013C160.92 11.5501 162.141 14.0201 164.896 14.0601C165.811 14.0642 166.718 13.8839 167.56 13.5301L167.772 15.3301C166.699 15.7137 165.563 15.8968 164.422 15.8701Z" fill="white"/>
<path d="M185.279 15.7084C185.279 15.4084 185.35 14.3584 185.39 13.9084C185.115 14.523 184.66 15.0419 184.085 15.3983C183.509 15.7547 182.839 15.9324 182.161 15.9084C180.052 15.9084 179.376 14.5984 179.376 12.9084V7.73841C178.922 7.66841 178.367 7.55841 178.195 7.52841V6.52841C178.801 6.52841 180.496 6.40841 181.374 6.43841V12.3684C181.374 13.5184 181.677 14.1884 182.766 14.1884C184.149 14.1884 185.198 12.7284 185.198 10.8884V6.48841H187.217V14.4884C187.661 14.5584 188.074 14.6784 188.397 14.7584V15.6184C187.358 15.6984 186.409 15.6784 185.279 15.7084Z" fill="white"/>
<path d="M204.129 15.86C201.738 15.86 199.992 14.69 199.992 11.4C199.992 8.46996 201.516 6.33996 204.715 6.33996C205.398 6.33613 206.077 6.43044 206.733 6.61996L206.531 8.31996C205.929 8.10769 205.294 7.99945 204.654 7.99996C202.959 7.99996 202.071 9.25996 202.071 11.21C202.071 12.9 202.707 14.21 204.563 14.21C205.261 14.2179 205.952 14.0674 206.582 13.77L206.753 15.43C205.911 15.7254 205.023 15.871 204.129 15.86Z" fill="white"/>
<path d="M140.708 15.86C138.316 15.86 136.57 14.69 136.57 11.4C136.57 8.46996 138.084 6.33996 141.293 6.33996C141.976 6.33613 142.656 6.43044 143.311 6.61996L143.109 8.31996C142.519 8.11215 141.899 8.00398 141.273 7.99996C139.567 7.99996 138.689 9.25996 138.689 11.21C138.689 12.9 139.325 14.21 141.182 14.21C141.879 14.2158 142.569 14.0654 143.2 13.77L143.372 15.43C142.517 15.7301 141.614 15.8758 140.708 15.86Z" fill="white"/>
<path d="M215.733 15.7099H213.715V3.43988C213.382 3.37988 212.625 3.15988 212.464 3.11988V2.11988C212.464 2.11988 214.24 2.06988 215.723 2.11988L215.733 15.7099Z" fill="white"/>
<path d="M66.6001 21.8098C66.1845 21.6863 65.7524 21.6256 65.3186 21.6298C64.1278 21.6298 63.5829 22.2798 63.5829 23.7198V24.4698H66.1359V25.9998H63.5728V33.6798H61.5546V25.9998H59.9199V24.4698H61.5546V23.7598C61.5546 21.2398 62.7756 20.0098 65.1874 20.0098C65.6968 20.0097 66.2046 20.0667 66.701 20.1798L66.6001 21.8098Z" fill="white"/>
<path d="M111.485 33.6888H109.467L107.943 28.8688C107.741 28.2488 107.569 27.6188 107.398 26.9188H107.337C107.156 27.7288 106.944 28.4588 106.702 29.2388L105.299 33.6888H103.281L100.597 24.4688H102.615L103.806 28.7488C104.058 29.6288 104.229 30.4988 104.411 31.3288H104.482C104.654 30.4775 104.873 29.6362 105.138 28.8088L106.52 24.4688H108.407L109.81 28.7388C110.163 29.8488 110.355 30.5388 110.536 31.3288H110.607C110.788 30.4788 110.93 29.7388 111.212 28.8288L112.464 24.4688H114.401L111.485 33.6888Z" fill="white"/>
<path d="M128.407 34.579C127.327 37.459 126.389 38.349 124.31 38.349C123.887 38.3404 123.465 38.2969 123.049 38.219L123.2 36.469C123.591 36.613 124.005 36.6841 124.421 36.679C125.36 36.679 125.884 36.249 126.439 34.679L126.813 33.679L123.331 24.459H125.531L127.055 28.669C127.348 29.489 127.58 30.299 127.781 31.079H127.842C128.034 30.339 128.427 29.129 128.76 28.209L130.092 24.459H132.242L128.407 34.579Z" fill="white"/>
<path d="M58.6582 3.25V2.25C59.6673 2.25 60.5957 2.25 61.8267 2.25V6.25C61.838 6.87103 61.7805 7.49141 61.6552 8.1C61.95 7.52091 62.4109 7.04108 62.98 6.72082C63.5492 6.40055 64.2012 6.25415 64.854 6.3C66.9731 6.3 67.6492 7.62 67.6492 9.3V15.76H65.631V9.77C65.631 8.62 65.3182 7.95 64.2486 7.95C62.8459 7.95 61.8167 9.42 61.8167 11.27V15.71H59.7985V3.57C59.5361 3.52 58.8701 3.31 58.6582 3.25Z" fill="white"/>
<path d="M79.1027 33.6894L75.1471 26.3594C74.5921 25.4494 73.8554 23.9694 73.4619 23.1294C73.5426 24.3594 73.5729 27.6994 73.5729 29.4794V33.6894H71.6455V20.3594H74.1884L78.3055 27.8994C78.8706 28.8294 79.3146 29.8294 79.7586 30.7394C79.6779 29.3094 79.6274 26.8494 79.6274 25.0094V20.3594H81.6456V33.6894H79.1027Z" fill="white"/>
<path d="M90.8188 15.7087L86.5302 9.70875H86.0358V15.7087H84.0176V2.28875C84.9358 2.28875 85.8037 2.21875 87.2265 2.21875C89.6079 2.21875 91.5252 3.08875 91.6463 5.56875C91.7761 6.49639 91.5308 7.43729 90.9638 8.1865C90.3968 8.93571 89.554 9.43254 88.619 9.56875C88.9722 10.0087 89.1034 10.1787 89.6281 10.8487L93.1902 15.7487L90.8188 15.7087ZM86.8733 3.86875C86.4798 3.86875 86.288 3.86875 85.9954 3.86875V7.99875C86.2575 8.01534 86.5204 8.01534 86.7825 7.99875C88.3365 7.99875 89.7088 7.57875 89.6887 5.73875C89.6685 3.89875 88.3466 3.86875 86.8733 3.86875Z" fill="white"/>
<path d="M96.5097 26.5084H96.5904C96.7721 25.8163 97.1973 25.2112 97.7894 24.8024C98.3814 24.3935 99.1014 24.2077 99.8195 24.2784V26.2284C97.9628 25.8984 96.7922 27.1784 96.7922 29.9384V33.6884H94.7741V25.7384C94.3301 25.6684 93.5127 25.5084 93.5127 25.5084V24.5084C93.5127 24.5084 95.5309 24.3584 96.6913 24.4084C96.6801 25.1117 96.6194 25.8134 96.5097 26.5084Z" fill="white"/>
</svg>
