<svg fill="none" height="27" viewBox="0 0 159 27" width="159" xmlns="http://www.w3.org/2000/svg"><path d="m7.65585 26.6074h-7.65585v-26.110391h13.2407l15.1905 19.493091v-19.493091h7.6558v26.110391h-12.9724l-15.45875-19.82596zm65.06085-8.0743c0 3.6296-.64 4.8813-1.6994 6.0812-1.6237 1.7858-3.9869 2.324-8.5402 2.324h-13.0718c-4.5534 0-6.9205-.5382-8.5423-2.324-1.0593-1.1999-1.6993-2.4516-1.6993-6.0812v-10.06544c0-3.62755.64-4.87727 1.6993-6.07914 1.6238-1.787867 3.9889-2.32602 8.5423-2.32602h13.0718c4.5533 0 6.9165.538153 8.5402 2.32602 1.0594 1.20187 1.6994 2.45159 1.6994 6.07914zm-10.5616 1.7899c1.749 0 2.3651-.1037 2.7845-.4864.3915-.3567.5644-.8172.5644-2.3519v-7.96864c0-1.53473-.1729-1.99117-.5644-2.34994-.4194-.38468-1.0355-.48633-2.7845-.48633h-12.4298c-1.749 0-2.3652.10165-2.7825.48633-.3936.35877-.5665.81521-.5665 2.34994v7.96864c0 1.5347.1729 1.9952.5665 2.3519.4173.3827 1.0335.4864 2.7825.4864zm21.6876-19.825991v26.110391h-7.9997v-26.110391zm13.515 0h10.5613l-14.2541 12.212091 16.0771 13.8983h-11.3011l-14.5982-13.6173zm13.8593 0h8.001v26.110391h-8.001zm38.503 26.110391-2.367-4.5484h-15.48l-2.34 4.5464h-8.838l14.181-26.108391h9.945l14.179 26.110391zm-15.067-10.2189h9.948l-4.975-9.45358z" fill="#fff"/></svg>