<svg width="630" height="701" viewBox="0 0 630 701" fill="none" xmlns="http://www.w3.org/2000/svg">
<g clip-path="url(#clip0)">
<rect width="630" height="701" fill="#0E111B"/>
<path d="M496.958 -287C478.419 -259.867 443.409 -213.859 477.02 -146.617C522.425 -55.7814 586.154 -128.922 626.03 -55.7812C665.906 17.3594 597.697 26.207 644.394 99.9375C692.211 175.438 737.724 113.386 774.662 186.055C812.439 262.734 752.625 279.25 788.304 358.289C830.278 436.148 860.71 357.109 902.685 445.586C944.659 534.062 878.549 558.836 902.685 619" stroke="#7BB7EF"/>
<path d="M472.958 -273C454.419 -245.867 419.409 -199.859 453.02 -132.617C498.425 -41.7814 562.154 -114.922 602.03 -41.7812C641.906 31.3594 573.697 40.207 620.394 113.938C668.211 189.438 713.724 127.386 750.662 200.055C788.439 276.734 728.625 293.25 764.304 372.289C806.278 450.148 836.71 371.109 878.685 459.586C920.659 548.062 854.549 572.836 878.685 633" stroke="#7BB7EF"/>
<path d="M448.958 -259C430.419 -231.867 395.409 -185.859 429.02 -118.617C474.425 -27.7814 538.154 -100.922 578.03 -27.7812C617.906 45.3594 549.697 54.207 596.394 127.938C644.211 203.438 689.724 141.386 726.662 214.055C764.439 290.734 704.625 307.25 740.304 386.289C782.278 464.148 812.71 385.109 854.685 473.586C896.659 562.062 830.549 586.836 854.685 647" stroke="#7BB7EF"/>
<path d="M424.958 -245C406.419 -217.837 371.409 -171.779 405.02 -104.462C450.425 -13.5262 514.154 -86.7474 554.03 -13.526C593.906 59.6953 525.697 68.5527 572.394 142.365C620.211 217.948 665.724 155.828 702.662 228.577C740.439 305.341 680.625 321.875 716.304 401.001C758.278 478.947 788.71 399.82 830.685 488.395C872.659 576.969 806.549 601.77 830.685 662" stroke="#7BB7EF"/>
<path d="M399.958 -230C381.419 -202.867 346.409 -156.859 380.02 -89.6172C425.425 1.21855 489.154 -71.9219 529.03 1.21875C568.906 74.3594 500.697 83.207 547.394 156.938C595.211 232.438 640.724 170.386 677.662 243.055C715.439 319.734 655.625 336.25 691.304 415.289C733.278 493.148 763.71 414.109 805.685 502.586C847.659 591.062 781.549 615.836 805.685 676" stroke="#7BB7EF"/>
<path d="M376.958 -217C358.419 -189.807 323.409 -143.698 357.02 -76.3073C402.425 14.729 466.154 -58.5729 506.03 14.7292C545.906 88.0312 477.697 96.8984 524.394 170.792C572.211 246.458 617.724 184.27 654.662 257.099C692.439 333.948 632.625 350.5 668.304 429.714C710.278 507.745 740.71 428.531 782.685 517.203C824.659 605.875 758.549 630.703 782.685 691" stroke="#7BB7EF"/>
<path d="M351.958 -202C333.419 -174.837 298.409 -128.779 332.02 -61.4622C377.425 29.4738 441.154 -43.7474 481.03 29.474C520.906 102.695 452.697 111.553 499.394 185.365C547.211 260.948 592.724 198.828 629.662 271.577C667.439 348.341 607.625 364.875 643.304 444.001C685.278 521.947 715.71 442.82 757.685 531.395C799.659 619.969 733.549 644.77 757.685 705" stroke="#7BB7EF"/>
<path d="M327.958 -187C309.419 -159.867 274.409 -113.859 308.02 -46.6172C353.425 44.2186 417.154 -28.9219 457.03 44.2188C496.906 117.359 428.697 126.207 475.394 199.938C523.211 275.438 568.724 213.386 605.662 286.055C643.439 362.734 583.625 379.25 619.304 458.289C661.278 536.148 691.71 457.109 733.685 545.586C775.659 634.062 709.549 658.836 733.685 719" stroke="#7BB7EF"/>
<path d="M303.958 -173C285.419 -145.867 250.409 -99.8594 284.02 -32.6172C329.425 58.2186 393.154 -14.9219 433.03 58.2188C472.906 131.359 404.697 140.207 451.394 213.938C499.211 289.438 544.724 227.386 581.662 300.055C619.439 376.734 559.625 393.25 595.304 472.289C637.278 550.148 667.71 471.109 709.685 559.586C751.659 648.062 685.549 672.836 709.685 733" stroke="#7BB7EF"/>
<path d="M279.958 -158C261.419 -130.867 226.409 -84.8594 260.02 -17.6172C305.425 73.2186 369.154 0.078125 409.03 73.2188C448.906 146.359 380.697 155.207 427.394 228.938C475.211 304.438 520.724 242.386 557.662 315.055C595.439 391.734 535.625 408.25 571.304 487.289C613.278 565.148 643.71 486.109 685.685 574.586C727.659 663.062 661.549 687.836 685.685 748" stroke="#7BB7EF"/>
<path d="M255.958 -144C237.419 -116.897 202.409 -70.9401 236.02 -3.77214C281.425 86.9633 345.154 13.9036 385.03 86.9635C424.906 160.023 356.697 168.861 403.394 242.51C451.211 317.927 496.724 255.944 533.662 328.533C571.439 405.128 511.625 421.625 547.304 500.577C589.278 578.35 619.71 499.398 661.685 587.777C703.659 676.156 637.549 700.902 661.685 761" stroke="#7BB7EF"/>
<path d="M231.958 -130C213.419 -102.867 178.409 -56.8594 212.02 10.3828C257.425 101.219 321.154 28.0781 361.03 101.219C400.906 174.359 332.697 183.207 379.394 256.938C427.211 332.438 472.724 270.386 509.662 343.055C547.439 419.734 487.625 436.25 523.304 515.289C565.278 593.148 595.71 514.109 637.685 602.586C679.659 691.062 613.549 715.836 637.685 776" stroke="#7BB7EF"/>
<path d="M206.958 -116C188.419 -88.8672 153.409 -42.8594 187.02 24.3828C232.425 115.219 296.154 42.0781 336.03 115.219C375.906 188.359 307.697 197.207 354.394 270.938C402.211 346.438 447.724 284.386 484.662 357.055C522.439 433.734 462.625 450.25 498.304 529.289C540.278 607.148 570.71 528.109 612.685 616.586C654.659 705.062 588.549 729.836 612.685 790" stroke="#7BB7EF"/>
<path d="M183.958 -101C165.419 -73.8971 130.409 -27.9401 164.02 39.2279C209.425 129.963 273.154 56.9036 313.03 129.964C352.906 203.023 284.697 211.861 331.394 285.51C379.211 360.927 424.724 298.944 461.662 371.533C499.439 448.128 439.625 464.625 475.304 543.577C517.278 621.35 547.71 542.398 589.685 630.777C631.659 719.156 565.549 743.902 589.685 804" stroke="#7BB7EF"/>
<path d="M158.958 -88C140.419 -60.8672 105.409 -14.8594 139.02 52.3828C184.425 143.219 248.154 70.0781 288.03 143.219C327.906 216.359 259.697 225.207 306.394 298.938C354.211 374.438 399.724 312.386 436.662 385.055C474.439 461.734 414.625 478.25 450.304 557.289C492.278 635.148 522.71 556.109 564.685 644.586C606.659 733.062 540.549 757.836 564.685 818" stroke="#7BB7EF"/>
<path d="M134.958 -73C116.419 -45.8672 81.4087 0.140625 115.02 67.3828C160.425 158.219 224.154 85.0781 264.03 158.219C303.906 231.359 235.697 240.207 282.394 313.938C330.211 389.438 375.724 327.386 412.662 400.055C450.439 476.734 390.625 493.25 426.304 572.289C468.278 650.148 498.71 571.109 540.685 659.586C582.659 748.062 516.549 772.836 540.685 833" stroke="#7BB7EF"/>
<path d="M110.958 -59C92.4192 -31.8672 57.4087 14.1406 91.02 81.3828C136.425 172.219 200.154 99.0781 240.03 172.219C279.906 245.359 211.697 254.207 258.394 327.938C306.211 403.438 351.724 341.386 388.662 414.055C426.439 490.734 366.625 507.25 402.304 586.289C444.278 664.148 474.71 585.109 516.685 673.586C558.659 762.062 492.549 786.836 516.685 847" stroke="#7BB7EF"/>
<path d="M86.958 -45C68.4192 -17.8372 33.4087 28.2214 67.02 95.5378C112.425 186.474 176.154 113.253 216.03 186.474C255.906 259.695 187.697 268.553 234.394 342.365C282.211 417.948 327.724 355.828 364.662 428.577C402.439 505.341 342.625 521.875 378.304 601.001C420.278 678.947 450.71 599.82 492.685 688.395C534.659 776.969 468.549 801.77 492.685 862" stroke="#7BB7EF"/>
<path d="M62.958 -31C44.4192 -3.83724 9.40865 42.2214 43.02 109.538C88.4247 200.474 152.154 127.253 192.03 200.474C231.906 273.695 163.697 282.553 210.394 356.365C258.211 431.948 303.724 369.828 340.662 442.577C378.439 519.341 318.625 535.875 354.304 615.001C396.278 692.947 426.71 613.82 468.685 702.395C510.659 790.969 444.549 815.77 468.685 876" stroke="#7BB7EF"/>
<path d="M38.958 -16C20.4192 11.1328 -14.5913 57.1406 19.02 124.383C64.4247 215.219 128.154 142.078 168.03 215.219C207.906 288.359 139.697 297.207 186.394 370.938C234.211 446.438 279.724 384.386 316.662 457.055C354.439 533.734 294.625 550.25 330.304 629.289C372.278 707.148 402.71 628.109 444.685 716.586C486.659 805.062 420.549 829.836 444.685 890" stroke="#7BB7EF"/>
<path d="M13.958 -2C-4.58084 25.1328 -39.5913 71.1406 -5.98 138.383C39.4247 229.219 103.154 156.078 143.03 229.219C182.906 302.359 114.697 311.207 161.394 384.938C209.211 460.438 254.724 398.386 291.662 471.055C329.439 547.734 269.625 564.25 305.304 643.289C347.278 721.148 377.71 642.109 419.685 730.586C461.659 819.062 395.549 843.836 419.685 904" stroke="#7BB7EF"/>
<path d="M-9.04203 13C-27.5808 40.1328 -62.5913 86.1406 -28.98 153.383C16.4247 244.219 80.1541 171.078 120.03 244.219C159.906 317.359 91.6971 326.207 138.394 399.938C186.211 475.438 231.724 413.386 268.662 486.055C306.439 562.734 246.625 579.25 282.304 658.289C324.278 736.148 354.71 657.109 396.685 745.586C438.659 834.062 372.549 858.836 396.685 919" stroke="#7BB7EF"/>
<path d="M-34.042 27C-52.5808 54.1029 -87.5913 100.06 -53.98 167.228C-8.5753 257.963 55.1541 184.904 95.03 257.964C134.906 331.023 66.6971 339.861 113.394 413.51C161.211 488.927 206.724 426.944 243.662 499.533C281.439 576.128 221.625 592.625 257.304 671.577C299.278 749.35 329.71 670.398 371.685 758.777C413.659 847.156 347.549 871.902 371.685 932" stroke="#7BB7EF"/>
<path d="M-58.042 41C-76.5808 68.1328 -111.591 114.141 -77.98 181.383C-32.5753 272.219 31.1541 199.078 71.03 272.219C110.906 345.359 42.6971 354.207 89.394 427.938C137.211 503.438 182.724 441.386 219.662 514.055C257.439 590.734 197.625 607.25 233.304 686.289C275.278 764.148 305.71 685.109 347.685 773.586C389.659 862.062 323.549 886.836 347.685 947" stroke="#7BB7EF"/>
<path d="M-82.042 55C-100.581 82.1328 -135.591 128.141 -101.98 195.383C-56.5753 286.219 7.15411 213.078 47.03 286.219C86.906 359.359 18.6971 368.207 65.394 441.938C113.211 517.438 158.724 455.386 195.662 528.055C233.439 604.734 173.625 621.25 209.304 700.289C251.278 778.148 281.71 699.109 323.685 787.586C365.659 876.062 299.549 900.836 323.685 961" stroke="#7BB7EF"/>
<path d="M-106.042 70C-124.581 97.1029 -159.591 143.06 -125.98 210.228C-80.5753 300.963 -16.8459 227.904 23.03 300.964C62.906 374.023 -5.30286 382.861 41.394 456.51C89.2115 531.927 134.724 469.944 171.662 542.533C209.439 619.128 149.625 635.625 185.304 714.577C227.278 792.35 257.71 713.398 299.685 801.777C341.659 890.156 275.549 914.902 299.685 975" stroke="#7BB7EF"/>
<path d="M-130.117 83C-148.615 110.133 -183.548 156.141 -150.011 223.383C-104.706 314.219 -41.1171 241.078 -1.32905 314.219C38.4591 387.359 -29.5995 396.207 16.9944 469.938C64.7066 545.438 110.119 483.386 146.975 556.055C184.669 632.734 124.987 649.25 160.587 728.289C202.469 806.148 232.834 727.109 274.716 815.586C316.598 904.062 250.634 928.836 274.716 989" stroke="#7BB7EF"/>
<path d="M-154.042 98C-172.581 125.133 -207.591 171.141 -173.98 238.383C-128.575 329.219 -64.8459 256.078 -24.97 329.219C14.906 402.359 -53.3029 411.207 -6.60604 484.938C41.2115 560.438 86.7242 498.386 123.662 571.055C161.439 647.734 101.625 664.25 137.304 743.289C179.278 821.148 209.71 742.109 251.685 830.586C293.659 919.062 227.549 943.836 251.685 1004" stroke="#7BB7EF"/>
<path d="M-178.117 112C-196.615 139.133 -231.548 185.141 -198.011 252.383C-152.706 343.219 -89.1171 270.078 -49.329 343.219C-9.54095 416.359 -77.5995 425.207 -31.0056 498.938C16.7066 574.438 62.1191 512.386 98.9754 585.055C136.669 661.734 76.9872 678.25 112.587 757.289C154.469 835.148 184.834 756.109 226.716 844.586C268.598 933.062 202.634 957.836 226.716 1018" stroke="#7BB7EF"/>
<path d="M-202.967 126C-221.547 153.163 -256.634 199.221 -222.949 266.538C-177.444 357.474 -113.575 284.253 -73.6109 357.474C-33.6471 430.695 -102.006 439.553 -55.2065 513.365C-7.28364 588.948 38.3293 526.828 75.3483 599.577C113.209 676.341 53.2631 692.875 89.0202 772.001C131.087 849.947 161.586 770.82 203.653 859.395C245.72 947.969 179.464 972.77 203.653 1033" stroke="#7BB7EF"/>
<path d="M-227.042 140C-245.581 167.193 -280.591 213.302 -246.98 280.693C-201.575 371.729 -137.846 298.427 -97.97 371.729C-58.094 445.031 -126.303 453.898 -79.606 527.792C-31.7885 603.458 13.7242 541.27 50.6619 614.099C88.4391 690.948 28.6252 707.5 64.3036 786.714C106.278 864.745 136.71 785.531 178.685 874.203C220.659 962.875 154.549 987.703 178.685 1048" stroke="#7BB7EF"/>
<path d="M-251.042 155C-269.581 182.133 -304.591 228.141 -270.98 295.383C-225.575 386.219 -161.846 313.078 -121.97 386.219C-82.094 459.359 -150.303 468.207 -103.606 541.938C-55.7885 617.438 -10.2758 555.386 26.6619 628.055C64.4391 704.734 4.62518 721.25 40.3036 800.289C82.2783 878.148 112.71 799.109 154.685 887.586C196.659 976.062 130.549 1000.84 154.685 1061" stroke="#7BB7EF"/>
<path d="M-275.042 169C-293.581 196.163 -328.591 242.221 -294.98 309.538C-249.575 400.474 -185.846 327.253 -145.97 400.474C-106.094 473.695 -174.303 482.553 -127.606 556.365C-79.7885 631.948 -34.2758 569.828 2.66188 642.577C40.4391 719.341 -19.3748 735.875 16.3036 815.001C58.2783 892.947 88.7099 813.82 130.685 902.395C172.659 990.969 106.549 1015.77 130.685 1076" stroke="#7BB7EF"/>
<path d="M-299.042 184C-317.581 211.133 -352.591 257.141 -318.98 324.383C-273.575 415.219 -209.846 342.078 -169.97 415.219C-130.094 488.359 -198.303 497.207 -151.606 570.938C-103.789 646.438 -58.2758 584.386 -21.3381 657.055C16.4391 733.734 -43.3748 750.25 -7.69636 829.289C34.2783 907.148 64.7099 828.109 106.685 916.586C148.659 1005.06 82.5492 1029.84 106.685 1090" stroke="#7BB7EF"/>
<path d="M-323.117 198C-341.615 225.133 -376.548 271.141 -343.011 338.383C-297.706 429.219 -234.117 356.078 -194.329 429.219C-154.541 502.359 -222.6 511.207 -176.006 584.938C-128.293 660.438 -82.8809 598.386 -46.0246 671.055C-8.3306 747.734 -68.0128 764.25 -32.4129 843.289C9.46934 921.148 39.8339 842.109 81.7161 930.586C123.598 1019.06 57.6339 1043.84 81.7161 1104" stroke="#7BB7EF"/>
<path d="M-347.042 212C-365.581 239.133 -400.591 285.141 -366.98 352.383C-321.575 443.219 -257.846 370.078 -217.97 443.219C-178.094 516.359 -246.303 525.207 -199.606 598.938C-151.789 674.438 -106.276 612.386 -69.3381 685.055C-31.5609 761.734 -91.3748 778.25 -55.6964 857.289C-13.7217 935.148 16.7099 856.109 58.6846 944.586C100.659 1033.06 34.5492 1057.84 58.6846 1118" stroke="#7BB7EF"/>
</g>
<defs>
<clipPath id="clip0">
<rect width="630" height="701" fill="white"/>
</clipPath>
</defs>
</svg>
