<svg width="247" height="58" viewBox="0 0 247 58" fill="none" xmlns="http://www.w3.org/2000/svg">
<g clip-path="url(#clip0)">
<path d="M0.116167 24.2969C4.79189 30.6817 9.46761 37.0953 14.1724 43.5379C18.8772 37.0953 23.5529 30.6817 28.2286 24.2969C28.2577 24.2969 28.2866 24.3257 28.3156 24.3257C28.3156 24.4702 28.3156 24.6147 28.3156 24.7591C28.3156 34.2352 28.3156 43.7112 28.3156 53.1584C28.3156 53.5339 28.2577 53.6784 27.8219 53.6784C26.1957 53.6495 24.5983 53.6495 22.972 53.6784C22.5945 53.6784 22.5074 53.5918 22.5074 53.2163C22.5074 49.547 22.5074 45.8779 22.5074 42.2089C22.5074 42.0933 22.5074 41.9777 22.5074 41.8622C22.4783 41.8622 22.4492 41.8333 22.4202 41.8333C19.6903 45.647 16.9313 49.4026 14.1724 53.2163C11.4134 49.4026 8.65444 45.618 5.89547 41.8622C5.86644 41.8622 5.83739 41.8912 5.80835 41.8912C5.80835 42.0644 5.80835 42.2089 5.80835 42.3823C5.80835 45.9935 5.80835 49.6337 5.80835 53.2451C5.80835 53.5918 5.72122 53.7074 5.34369 53.7074C3.71735 53.6784 2.091 53.6784 0.435627 53.7074C0.0290417 53.7074 0 53.5628 0 53.2451C0 46.3692 0 39.4932 0 32.6463C0 29.9016 0 27.1281 0 24.3836C0.0580835 24.3257 0.0871252 24.3257 0.116167 24.2969Z" fill="white"/>
<path d="M68.363 37.7012C68.363 38.0191 68.363 38.1924 68.363 38.3656C68.363 43.3059 68.363 48.2462 68.363 53.1577C68.363 53.5621 68.2759 53.7065 67.8402 53.7065C66.243 53.6776 64.6456 53.6776 63.0484 53.7065C62.6998 53.7065 62.5547 53.6488 62.5547 53.2442C62.5547 43.7105 62.5547 34.1766 62.5547 24.6427C62.5547 24.5561 62.5547 24.4694 62.5547 24.2383C68.392 29.7853 74.1423 35.2455 79.9797 40.7925C79.9797 40.5325 79.9797 40.3881 79.9797 40.2435C79.9797 35.2744 79.9797 30.2764 79.9797 25.3072C79.9797 24.8738 80.0959 24.7872 80.5024 24.8161C82.0998 24.845 83.668 24.845 85.2653 24.8161C85.7009 24.8161 85.8171 24.9028 85.7881 25.3361C85.7881 33.5699 85.7881 41.8037 85.7881 50.0374C85.7881 51.3375 85.7881 52.6375 85.7881 53.9376C85.7881 54.0243 85.8171 54.111 85.7009 54.2266C79.9797 48.7373 74.2295 43.2771 68.363 37.7012Z" fill="white"/>
<path d="M225.713 39.2625C225.713 34.6399 225.713 30.0464 225.713 25.4238C225.713 25.0194 225.771 24.875 226.234 24.875C227.832 24.9039 229.429 24.9039 231.026 24.875C231.404 24.875 231.52 24.9617 231.52 25.3661C231.491 28.8619 231.52 32.3576 231.491 35.8534C231.491 36.3156 231.607 36.4022 232.043 36.4022C234.948 36.3734 237.823 36.3734 240.727 36.4022C241.075 36.4022 241.191 36.3156 241.191 35.94C241.162 32.4154 241.191 28.8908 241.162 25.3661C241.162 24.9906 241.249 24.875 241.656 24.875C243.282 24.9039 244.909 24.9039 246.564 24.875C246.883 24.875 247 24.9327 247 25.2794C247 34.611 247 43.9426 247 53.2743C247 53.621 246.913 53.6788 246.593 53.6788C244.967 53.6498 243.34 53.6498 241.685 53.6788C241.307 53.6788 241.191 53.5921 241.191 53.1876C241.22 49.663 241.191 46.1672 241.22 42.6426C241.22 42.2092 241.104 42.1226 240.669 42.1226C237.765 42.1515 234.889 42.1515 231.985 42.1226C231.607 42.1226 231.491 42.2382 231.491 42.6137C231.52 46.1384 231.491 49.634 231.52 53.1587C231.52 53.5921 231.375 53.6788 230.968 53.6788C229.371 53.6498 227.803 53.6498 226.205 53.6788C225.8 53.6788 225.684 53.5921 225.684 53.1876C225.713 48.5651 225.713 43.9138 225.713 39.2625Z" fill="white"/>
<path d="M214.764 53.8801C209.768 53.8801 206.05 51.0778 204.977 47.1197C204.773 46.3398 204.773 46.3398 205.529 46.1664C207.096 45.8485 208.664 45.5018 210.233 45.1841C210.379 45.1553 210.553 45.0397 210.611 45.3286C211.191 47.7264 213.747 48.7376 215.837 47.4376C216.041 47.2932 216.244 47.1486 216.418 46.9753C217.755 45.733 217.61 43.9129 216.07 42.9017C215.083 42.2661 213.979 41.9773 212.847 41.6883C210.958 41.1684 209.245 40.3594 207.794 39.0305C204.221 35.7947 204.483 30.9989 207.125 27.8498C209.478 25.0764 212.528 24.0363 216.07 24.903C219.584 25.7698 221.733 28.0809 222.605 31.5767C222.692 31.9812 222.663 32.1546 222.169 32.2701C220.572 32.559 218.974 32.9057 217.377 33.2812C216.971 33.3679 216.912 33.2524 216.854 32.9057C216.68 31.8367 216.041 31.0856 215.054 30.6522C213.717 30.1033 212.179 30.6522 211.423 31.9234C210.698 33.1945 210.987 34.668 212.208 35.5925C213.022 36.1992 213.979 36.5459 214.938 36.8347C216.506 37.297 218.075 37.7304 219.439 38.6549C221.297 39.8971 222.663 41.5151 223.07 43.7685C223.504 46.2242 222.838 48.4198 221.297 50.3266C219.439 52.6667 216.942 53.8224 214.764 53.8801Z" fill="white"/>
<path d="M171.84 39.2058C171.84 34.5834 171.84 29.9609 171.84 25.3385C171.84 24.9051 171.955 24.8184 172.391 24.8184C177.822 24.8184 183.282 24.8184 188.713 24.8184C189.149 24.8184 189.263 24.9339 189.234 25.3385C189.205 26.9562 189.205 28.5453 189.234 30.1632C189.234 30.5098 189.12 30.5965 188.8 30.5965C185.256 30.5965 181.743 30.5965 178.199 30.5676C177.705 30.5676 177.618 30.712 177.618 31.1743C177.647 32.7343 177.647 34.2945 177.618 35.8546C177.618 36.2879 177.705 36.4324 178.17 36.4324C180.726 36.4034 183.282 36.4324 185.808 36.4034C186.215 36.4034 186.331 36.4901 186.331 36.9235C186.302 38.5413 186.302 40.1592 186.331 41.806C186.331 42.1238 186.244 42.2104 185.925 42.2104C183.34 42.2104 180.726 42.2104 178.141 42.1815C177.705 42.1815 177.647 42.2971 177.647 42.7016C177.676 46.1973 177.647 49.6931 177.676 53.1888C177.676 53.5933 177.589 53.7377 177.153 53.7377C175.556 53.7089 173.989 53.7089 172.391 53.7377C171.955 53.7377 171.869 53.5933 171.869 53.1888C171.84 48.5086 171.84 43.8572 171.84 39.2058Z" fill="white"/>
<path d="M110.62 42.2377C110.62 45.8778 110.62 49.547 110.62 53.1871C110.62 53.5627 110.562 53.7072 110.127 53.7072C108.529 53.6782 106.932 53.6782 105.335 53.7072C104.928 53.7072 104.812 53.5917 104.812 53.1871C104.812 45.8778 104.812 38.5397 104.812 31.2305C104.812 30.6237 104.812 30.6237 104.202 30.6237C102.227 30.6237 100.252 30.6237 98.2776 30.6237C97.813 30.6237 97.6679 30.5081 97.6969 30.017C97.726 28.4281 97.726 26.868 97.6969 25.279C97.6969 24.9613 97.7841 24.8457 98.1034 24.8457C104.493 24.8457 110.882 24.8457 117.271 24.8457C117.59 24.8457 117.678 24.9323 117.678 25.279C117.649 26.8969 117.649 28.5148 117.678 30.1615C117.678 30.5371 117.532 30.6237 117.184 30.6237C115.151 30.6237 113.118 30.6237 111.085 30.5948C110.679 30.5948 110.562 30.6815 110.562 31.1149C110.621 34.8417 110.62 38.5396 110.62 42.2377Z" fill="white"/>
<path d="M95.1698 39.2898C95.1698 43.9123 95.1698 48.5059 95.1698 53.1283C95.1698 53.5616 95.0826 53.7062 94.6179 53.7062C92.9915 53.6772 91.3943 53.6772 89.7679 53.7062C89.4485 53.7062 89.3613 53.6195 89.3613 53.3016C89.3613 43.999 89.3613 34.6674 89.3613 25.3646C89.3613 24.9891 89.4776 24.9023 89.826 24.9023C91.4524 24.9312 93.0496 24.9312 94.676 24.9023C95.0826 24.9023 95.1698 25.0179 95.1698 25.3935C95.1698 30.0159 95.1698 34.6674 95.1698 39.2898Z" fill="white"/>
<path d="M197.803 0C204.279 0.0577809 210.553 1.2134 216.448 4.01577C216.738 4.16022 217.029 4.27579 217.29 4.5069C217.784 4.91138 217.755 5.46029 217.232 5.80697C216.564 6.24034 215.868 6.24034 215.141 5.92254C213.516 5.17138 211.888 4.44912 210.175 3.92909C207.3 3.0335 204.366 2.48458 201.375 2.22456C196.119 1.79121 190.95 2.28234 185.897 3.75576C184.066 4.27579 182.295 4.96915 180.582 5.83587C180.001 6.12477 179.39 6.29812 178.752 6.06699C178.346 5.92254 177.968 5.74919 177.881 5.25806C177.794 4.76692 178.142 4.47802 178.52 4.27579C180.233 3.3513 182.091 2.68681 183.951 2.08011C187.551 0.924494 191.24 0.288904 195.015 0.0866713C195.887 0.0577809 196.844 0 197.803 0Z" fill="white"/>
<path d="M197.483 4.13086C203.146 4.18863 208.374 5.1709 213.282 7.59771C213.602 7.74216 213.891 7.88661 214.152 8.11773C214.646 8.55108 214.617 9.12889 214.065 9.47559C213.311 9.96672 212.556 9.85115 211.8 9.47559C210.959 9.04223 210.145 8.63776 209.273 8.31997C206.369 7.19324 203.321 6.55765 200.213 6.32652C195.653 6.00872 191.21 6.49987 186.911 8.03105C185.808 8.43553 184.733 8.89778 183.659 9.44669C183.078 9.7356 182.439 9.93783 181.771 9.7356C181.625 9.7067 181.511 9.64892 181.394 9.56225C180.755 9.18667 180.697 8.46442 181.336 8.05995C182.119 7.56881 182.991 7.19324 183.834 6.84655C187.783 5.22868 191.906 4.33309 196.206 4.21753C196.698 4.15974 197.192 4.13086 197.483 4.13086Z" fill="white"/>
<path d="M197.716 8.29088C201.985 8.31977 206.079 9.1576 209.914 11.0932C210.292 11.2955 210.669 11.4688 210.988 11.7577C211.452 12.1333 211.452 12.5955 211.017 12.9711C210.35 13.5489 209.594 13.4912 208.839 13.1445C207.997 12.7689 207.213 12.3066 206.37 11.96C203.235 10.7755 199.981 10.2265 196.612 10.3999C193.128 10.5732 189.846 11.411 186.767 13.0867C186.244 13.3756 185.664 13.4623 185.054 13.2889C184.618 13.1734 184.24 12.9133 184.153 12.4511C184.066 11.9889 184.386 11.7 184.763 11.4977C186.651 10.3999 188.683 9.64873 190.805 9.1287C193.041 8.57979 195.364 8.26199 197.716 8.29088Z" fill="white"/>
<path d="M197.804 12.4529C200.941 12.3951 203.815 13.1462 206.574 14.5619C206.981 14.764 207.388 14.9952 207.736 15.313C208.259 15.8041 208.201 16.382 207.591 16.7287C206.836 17.1621 206.082 17.1042 205.384 16.6419C202.945 15.024 200.185 14.4463 197.31 14.5041C194.813 14.5619 192.46 15.1107 190.311 16.4975C189.672 16.9019 189.004 17.1331 188.25 16.9019C187.814 16.7575 187.465 16.5552 187.378 16.0931C187.291 15.6309 187.61 15.3419 187.959 15.1107C189.701 13.9552 191.647 13.2329 193.71 12.8284C195.074 12.5684 196.438 12.424 197.804 12.4529Z" fill="white"/>
<path d="M203.206 20.8298C202.596 20.8298 202.073 20.6565 201.753 20.2519C200.389 18.5763 196.904 18.114 194.667 19.443C194.261 19.6741 193.942 20.0208 193.594 20.3386C192.984 20.9165 192.257 20.9742 191.503 20.7142C190.689 20.4253 190.515 19.7608 191.096 19.0963C191.763 18.3163 192.606 17.7673 193.565 17.3918C196.556 16.265 199.517 16.2361 202.422 17.6518C203.061 17.9696 203.642 18.403 204.135 18.8941C204.454 19.183 204.745 19.5008 204.6 19.9919C204.454 20.4542 204.049 20.6275 203.613 20.743C203.468 20.8009 203.294 20.8298 203.206 20.8298Z" fill="white"/>
<path d="M131.037 24.6446C122.905 24.6735 116.371 31.145 116.342 39.2921C116.313 47.3813 122.76 53.795 130.892 53.9106C139.053 53.9973 145.645 47.2081 145.674 39.4365C145.732 31.5494 139.111 24.6156 131.037 24.6446ZM139.779 39.3209C139.75 44.2034 135.858 48.0459 130.95 48.0459C126.013 48.0459 122.208 44.1457 122.179 39.1765C122.15 34.7562 125.984 30.3937 131.153 30.4804C135.829 30.5383 139.953 34.6406 139.779 39.3209Z" fill="white"/>
<path d="M45.422 24.6152C37.3194 24.6442 30.6979 31.4911 30.814 39.4071C30.9302 47.4677 37.3194 53.8813 45.4801 53.8813C53.4085 53.9969 60.1752 47.3521 60.1463 39.2916C60.1463 31.3179 53.4376 24.6152 45.422 24.6152ZM45.393 48.0455C40.514 48.0165 36.6224 44.1163 36.6515 39.2627C36.6515 34.467 40.7172 30.3933 45.5962 30.48C50.3591 30.5668 54.2797 34.5247 54.2507 39.3494C54.2218 44.203 50.301 48.0455 45.393 48.0455Z" fill="white"/>
<path d="M169.052 53.2741C166.99 50.0673 164.928 46.8316 162.837 43.6248C162.634 43.307 162.663 43.2203 163.012 43.0758C163.942 42.7003 164.754 42.1513 165.422 41.4002C167.28 39.2623 168.065 36.7778 167.891 33.9753C167.804 32.6753 167.658 31.4041 166.99 30.2774C165.103 27.0127 162.227 25.1348 158.452 24.9327C155.141 24.7593 151.801 24.9037 148.462 24.8749C148.113 24.8749 148.113 25.0193 148.113 25.2794C148.113 34.611 148.113 43.9425 148.113 53.2741C148.113 53.592 148.2 53.6787 148.52 53.6787C150.117 53.6498 151.685 53.6787 153.283 53.6787C154.009 53.6787 153.922 53.7654 153.922 53.072C153.922 49.2295 153.922 45.3871 153.922 41.5735C153.922 41.4291 153.864 41.2558 154.009 41.0824C154.211 41.4002 154.386 41.6602 154.56 41.9202C157.029 45.7338 159.497 49.5185 161.966 53.332C162.082 53.5052 162.169 53.7075 162.431 53.7075C164.696 53.7075 166.932 53.7075 169.255 53.7075C169.197 53.5052 169.139 53.3897 169.052 53.2741ZM158.888 38.5112C158.104 38.6845 157.319 38.5689 156.507 38.5978C155.81 38.5978 155.112 38.5689 154.415 38.5978C154.009 38.6266 153.922 38.4822 153.951 38.1067C153.98 36.951 153.951 35.7955 153.951 34.6399C153.951 33.4554 153.951 32.2709 153.951 31.0574C153.951 30.8841 153.864 30.653 154.182 30.653C155.693 30.6818 157.203 30.5085 158.685 30.7974C160.688 31.1729 161.878 32.5886 161.937 34.5243C161.995 36.3732 160.688 38.0778 158.888 38.5112Z" fill="white"/>
<path d="M202.041 56.7998C201.431 55.7887 200.764 54.8642 200.067 53.9397C198.848 52.2641 198.383 50.415 198.732 48.3927C198.992 46.6882 199.602 45.0992 200.183 43.5103C201.084 41.0545 201.693 38.5123 201.838 35.8831C201.954 33.5431 201.896 31.2029 201.547 28.8916C201.258 26.8982 200.764 24.9626 199.805 23.1714C199.398 22.4203 198.904 21.7558 198.267 21.2068C197.831 20.8312 197.86 20.8312 197.511 21.2646C197.395 21.4091 197.337 21.6402 197.104 21.6402C197.017 21.2646 197.279 21.0912 197.424 20.8601C197.511 20.7445 197.54 20.629 197.453 20.5134C197.337 20.369 197.221 20.5134 197.133 20.5713C196.959 20.6868 196.814 20.8312 196.668 20.9757C195.566 22.0736 194.868 23.4025 194.345 24.847C193.562 27.0428 193.242 29.2962 193.097 31.6074C192.923 34.6409 193.039 37.6744 193.562 40.6501C194.025 43.308 194.81 45.9081 195.537 48.5083C195.885 49.8083 196.031 51.0795 195.74 52.4085C195.537 53.3619 195.13 54.2575 194.694 55.1242C194.287 55.9331 193.911 56.7421 193.649 57.6088C193.62 57.7243 193.504 57.8399 193.62 57.9554C193.707 58.0422 193.853 57.9843 193.967 57.9554C194.316 57.8399 194.665 57.6666 194.955 57.4355C195.507 57.0021 196.089 56.5687 196.639 56.1066C197.366 55.5287 198.063 55.4709 198.848 55.962C199.66 56.4531 200.474 56.9444 201.345 57.2911C201.664 57.4066 201.983 57.551 202.332 57.4932C202.332 57.2332 202.158 57.0309 202.041 56.7998ZM198.209 22.8824C198.005 22.8536 197.802 22.8247 197.802 22.5647C197.802 22.3336 198.005 22.2757 198.209 22.2757C198.412 22.2757 198.644 22.3336 198.644 22.5647C198.644 22.8536 198.412 22.8824 198.209 22.8824Z" fill="white"/>
</g>
<defs>
<clipPath id="clip0">
<rect width="247" height="58" fill="white"/>
</clipPath>
</defs>
</svg>
