<svg width="160" height="160" viewBox="0 0 160 160" fill="none" xmlns="http://www.w3.org/2000/svg">
<path d="M37.0977 60.9041H38.388C38.388 58.388 40.388 56.388 42.9041 56.388V55.0977C39.6783 55.0977 37.0977 57.6783 37.0977 60.9041Z" fill="#7BB7EF"/>
<path d="M68.4742 60.723C69.2161 52.0974 62.5388 46 55.1935 46C50.8902 46 46.8839 48.0821 44.3613 51.5769C37.3129 49.8666 32.2678 55.3692 32.1936 60.5C29.0775 61.4666 27 64.2923 27 67.5641C27 71.6538 30.3387 75 34.4194 75H37.35V73.5128H34.4194C31.1548 73.5128 28.4839 70.8359 28.4839 67.5641C28.4839 64.7384 30.4129 62.359 33.0838 61.7642L33.6774 61.6155C33.3065 54.1796 40.5032 51.2796 44.9548 53.2873C44.9548 53.2873 48.2194 47.4873 55.1935 47.4873C61.7225 47.4873 68.1774 53.2129 66.8419 61.6898C66.8419 61.6898 71.5161 62.8051 71.5161 67.5641C71.5161 70.8359 68.8452 73.5128 65.5806 73.5128H62.65V75H65.5806C69.6612 75 73 71.6539 73 67.5641C73 64.5154 71.2193 61.8385 68.4742 60.723Z" fill="#7BB7EF"/>
<path d="M58 67C58 67.8526 57.3661 68.8348 55.8783 69.6614C54.4244 70.4691 52.3481 71 50 71C47.6519 71 45.5756 70.4691 44.1217 69.6614C42.6339 68.8348 42 67.8526 42 67C42 66.1474 42.6339 65.1652 44.1217 64.3386C45.5756 63.5309 47.6519 63 50 63C52.3481 63 54.4244 63.5309 55.8783 64.3386C57.3661 65.1652 58 66.1474 58 67Z" stroke="#7BB7EF" stroke-width="2"/>
<path d="M58 67V73C57.3333 74.3333 54.8 76.5 50 76.5C45.2 76.5 42.6667 74.3333 42 73V67" stroke="#7BB7EF" stroke-width="2"/>
<path d="M94.0977 39.9041H95.388C95.388 37.388 97.388 35.388 99.9041 35.388V34.0977C96.6783 34.0977 94.0977 36.6783 94.0977 39.9041Z" fill="#7BB7EF"/>
<path d="M125.474 39.723C126.216 31.0974 119.539 25 112.194 25C107.89 25 103.884 27.0821 101.361 30.5769C94.3129 28.8666 89.2678 34.3692 89.1936 39.5C86.0775 40.4666 84 43.2923 84 46.5641C84 50.6538 87.3387 54 91.4194 54H94.35V52.5128H91.4194C88.1548 52.5128 85.4839 49.8359 85.4839 46.5641C85.4839 43.7384 87.4129 41.359 90.0838 40.7642L90.6774 40.6155C90.3065 33.1796 97.5032 30.2796 101.955 32.2873C101.955 32.2873 105.219 26.4873 112.194 26.4873C118.723 26.4873 125.177 32.2129 123.842 40.6898C123.842 40.6898 128.516 41.8051 128.516 46.5641C128.516 49.8359 125.845 52.5128 122.581 52.5128H119.65V54H122.581C126.661 54 130 50.6539 130 46.5641C130 43.5154 128.219 40.8385 125.474 39.723Z" fill="#7BB7EF"/>
<path d="M115 46C115 46.8526 114.366 47.8348 112.878 48.6614C111.424 49.4691 109.348 50 107 50C104.652 50 102.576 49.4691 101.122 48.6614C99.6339 47.8348 99 46.8526 99 46C99 45.1474 99.6339 44.1652 101.122 43.3386C102.576 42.5309 104.652 42 107 42C109.348 42 111.424 42.5309 112.878 43.3386C114.366 44.1652 115 45.1474 115 46Z" stroke="#7BB7EF" stroke-width="2"/>
<path d="M115 46V52C114.333 53.3333 111.8 55.5 107 55.5C102.2 55.5 99.6667 53.3333 99 52V46" stroke="#7BB7EF" stroke-width="2"/>
<path d="M51 76V81C51 82.6569 49.6569 84 48 84H32C30.3431 84 29 85.3431 29 87V125C29 126.657 30.3431 128 32 128H129C130.657 128 132 126.657 132 125V67C132 65.3431 130.657 64 129 64H112C110.343 64 109 62.6569 109 61V56" stroke="#7BB7EF" stroke-width="2"/>
<circle cx="29" cy="107" r="6" fill="#7BB7EF" stroke="#0C0E17" stroke-width="4"/>
<circle cx="132" cy="82" r="6" fill="#7BB7EF" stroke="#0C0E17" stroke-width="4"/>
<rect x="50.5" y="107.5" width="64" height="26" rx="1.5" fill="#0C0E17" stroke="#7BB7EF"/>
<path d="M56 113H62" stroke="#7BB7EF" stroke-width="1.5"/>
<path d="M74 118H80" stroke="#7BB7EF" stroke-width="1.5"/>
<path d="M83 118H86" stroke="#7BB7EF" stroke-width="1.5"/>
<path d="M86 123H89" stroke="#7BB7EF" stroke-width="1.5"/>
<path d="M67 128H76" stroke="#7BB7EF" stroke-width="1.5"/>
<path d="M98 128H109" stroke="#7BB7EF" stroke-width="1.5"/>
<path d="M66 113H81" stroke="#7BB7EF" stroke-width="1.5"/>
<path d="M80 128H95" stroke="#7BB7EF" stroke-width="1.5"/>
<path d="M56 123H71" stroke="#7BB7EF" stroke-width="1.5"/>
<path d="M85 113H93" stroke="#7BB7EF" stroke-width="1.5"/>
<path d="M56 128H64" stroke="#7BB7EF" stroke-width="1.5"/>
<path d="M75 123H83" stroke="#7BB7EF" stroke-width="1.5"/>
<path d="M98 113H109" stroke="#7BB7EF" stroke-width="1.5"/>
<path d="M56 118H71" stroke="#7BB7EF" stroke-width="1.5"/>
<path d="M89 118H98" stroke="#7BB7EF" stroke-width="1.5"/>
<path d="M92 123H101" stroke="#7BB7EF" stroke-width="1.5"/>
<path d="M101 118H109" stroke="#7BB7EF" stroke-width="1.5"/>
<path d="M104 123L109 123" stroke="#7BB7EF" stroke-width="1.5"/>
</svg>
