<?xml version="1.0" encoding="UTF-8"?>
<svg width="243px" height="46px" viewBox="0 0 243 46" version="1.1" xmlns="http://www.w3.org/2000/svg" xmlns:xlink="http://www.w3.org/1999/xlink">
    <!-- Generator: Sketch 57.1 (83088) - https://sketch.com -->
    <title>Group</title>
    <desc>Created with Sketch.</desc>
    <g id="Page-1" stroke="none" stroke-width="1" fill="none" fill-rule="evenodd">
        <g id="lysholmbiblioteket_med_ub_bredde" transform="translate(0.000000, -3.000000)">
            <g id="Group" transform="translate(0.000000, 3.402300)">
                <path d="M11.024,33.085 L33.081,33.085 L33.081,11.023 L11.024,11.023 L11.024,33.085 Z M33.081,0 L11.024,0 C4.935,0 0,4.937 0,11.023 L0,33.085 C0,39.169 4.935,44.105 11.024,44.105 L33.081,44.105 C39.169,44.105 44.103,39.169 44.103,33.085 L44.103,11.023 C44.103,4.937 39.169,0 33.081,0 L33.081,0 Z" id="Fill-45" fill="#0D4788"></path>
                <path d="M21.9783,12.9297 C16.9813,12.9297 12.9323,16.9837 12.9323,21.9787 C12.9323,26.9767 16.9813,31.0247 21.9783,31.0247 C26.9743,31.0247 31.0243,26.9767 31.0243,21.9787 C31.0243,16.9837 26.9743,12.9297 21.9783,12.9297" id="Fill-46" fill="#0D4788"></path>
                <polygon id="Fill-47" fill="#1A1919" points="74.9559 0.0469 96.4349 31.2709 96.4349 7.2469 96.3729 1.5329 89.9179 1.5329 89.9179 0.0469 103.7609 0.0469 103.7609 1.5329 98.4219 1.5329 98.3599 7.2469 98.3599 44.4319 97.3669 44.7429 68.5619 2.8379 68.5619 36.4879 68.6229 42.3839 75.2639 42.3839 75.2639 43.8739 60.9269 43.8739 60.9269 42.3839 66.6359 42.3839 66.6979 36.4879 66.6979 7.2469 66.6359 1.5329 60.9269 1.5329 60.9269 0.0469"></polygon>
                <path d="M146.5965,0.0469 L146.5965,14.0739 L144.7335,14.0739 C144.5465,11.9019 144.2975,9.1719 142.3735,5.9429 C140.1385,2.1559 137.0965,1.9689 134.1175,1.8449 L130.6395,1.8449 L130.5795,7.4329 L130.5795,36.0499 L130.6395,42.3839 L137.3465,42.3839 L137.3465,43.8739 L116.9855,43.8739 L116.9855,42.3839 L123.6875,42.3839 L123.7505,36.0499 L123.7505,7.4329 L123.6875,1.8449 L120.8315,1.8449 C117.2315,1.9059 114.5005,1.9059 111.8935,6.0659 C109.8455,9.3579 109.6595,11.9639 109.5345,14.0739 L107.7345,14.0739 L107.7345,0.0469 L146.5965,0.0469 Z" id="Fill-48" fill="#1A1919"></path>
                <polygon id="Fill-49" fill="#1A1919" points="164.2264 0.0469 185.7054 31.2709 185.7054 7.2469 185.6444 1.5329 179.1874 1.5329 179.1874 0.0469 193.0304 0.0469 193.0304 1.5329 187.6914 1.5329 187.6284 7.2469 187.6284 44.4319 186.6354 44.7429 157.8304 2.8379 157.8304 36.4879 157.8934 42.3839 164.5384 42.3839 164.5384 43.8739 150.1954 43.8739 150.1954 42.3839 155.9084 42.3839 155.9674 36.4879 155.9674 7.2469 155.9084 1.5329 150.1954 1.5329 150.1954 0.0469"></polygon>
                <path d="M217.1346,0.0469 L217.1346,1.5329 L210.9856,1.5329 L210.9266,6.8129 L210.9266,30.5269 C210.9856,36.6729 211.1136,42.5069 222.6596,42.5069 C234.3296,42.5069 235.0746,37.4159 235.2596,31.8909 L235.2596,6.8129 L235.1996,1.5329 L228.9316,1.5329 L228.9316,0.0469 L242.6466,0.0469 L242.6466,1.5329 L237.2496,1.5329 L237.1876,6.8129 L237.1876,29.4099 C237.1236,37.5429 237.0606,44.4929 220.9826,44.4929 C218.6896,44.4929 213.2226,44.2469 209.7486,42.8179 C204.2236,40.4579 204.0996,35.6179 204.0366,29.6569 L204.0366,6.8129 L203.9736,1.5329 L198.6346,1.5329 L198.6346,0.0469 L217.1346,0.0469 Z" id="Fill-50" fill="#1A1919"></path>
            </g>
        </g>
    </g>
</svg>