<svg width="152" height="27" viewBox="0 0 152 27" fill="none" xmlns="http://www.w3.org/2000/svg">
<g clip-path="url(#clip0)">
<path fill-rule="evenodd" clip-rule="evenodd" d="M7.48792 7.19477V19.3872H20.1566V7.19477H7.48792ZM-0.59082 6.48498C-0.59082 2.60122 2.68447 -0.560547 6.74188 -0.560547H20.9026C24.96 -0.560547 28.2353 2.60122 28.2353 6.48498V20.097C28.2353 23.9807 24.96 27.1425 20.9026 27.1425H6.74188C2.68447 27.1425 -0.59082 23.9807 -0.59082 20.097V6.48498Z" fill="white"/>
<path d="M13.7776 18.6929C16.9134 18.6929 19.4556 16.2476 19.4556 13.2312C19.4556 10.2148 16.9134 7.76953 13.7776 7.76953C10.6417 7.76953 8.09961 10.2148 8.09961 13.2312C8.09961 16.2476 10.6417 18.6929 13.7776 18.6929Z" fill="white"/>
<path d="M91.8237 0.0258789V8.47804H90.6584C90.5398 7.16962 90.3833 5.5231 89.1794 3.57943C87.78 1.2963 85.8734 1.18361 84.0079 1.10891H81.8307V25.5331H86.03V26.4332H73.2762V25.5331H77.4744V1.10891H75.6864C73.4302 1.147 71.7197 1.147 70.0872 3.6526C68.8028 5.63583 68.6873 7.20622 68.6082 8.47804H67.4824V0.0258887H91.8237V0.0258838V0.0258789Z" fill="white"/>
<path d="M102.867 0.0258887L116.32 18.8402L116.284 0.924531H112.24V0.0258789H120.909V0.924531H117.565L117.526 26.7728L116.904 26.9572L98.8606 1.70899L98.9001 25.5331H103.063V26.4333H94.0781V25.5331H97.6572V0.924531H94.0781V0.0258789H102.867V0.0258838V0.0258887V0.0258935L102.867 0.0258887Z" fill="white"/>
<path d="M136.008 0.0258789V0.92453H132.156L132.12 18.3908C132.156 22.0923 132.238 25.6107 139.469 25.6107C146.779 25.6107 147.246 22.543 147.362 19.2148L147.324 0.92453H143.398V0.0258789H151.989V0.92453H148.608L148.569 17.7176C148.529 22.6177 148.491 26.8079 138.42 26.8079C136.983 26.8079 133.557 26.6586 131.383 25.7951C127.921 24.3754 127.843 21.4571 127.804 17.8684L127.764 0.92453H124.42V0.0258789H136.008V0.0258838V0.0258789Z" fill="white"/>
<path d="M46.9505 0.0258887L60.4041 18.8402L60.3646 0.924531H56.3219V0.0258789H64.993V0.924531H61.6485L61.6105 26.7728L60.9883 26.9572L42.9459 1.70899L42.9823 25.5331H47.1422V26.4333H38.1621V25.5331H41.7392V0.924531H38.1621V0.0258789H46.9505V0.0258838V0.0258887V0.0258935V0.0258887Z" fill="white"/>
</g>
<defs>
<clipPath id="clip0">
<rect width="152" height="27" fill="white"/>
</clipPath>
</defs>
</svg>
