<svg width="160" height="160" viewBox="0 0 160 160" fill="none" xmlns="http://www.w3.org/2000/svg">
<path d="M38.7479 26H19V45.7479" stroke="#7BB7EF" stroke-width="2"/>
<path d="M73.124 45.7479L73.124 26L53.3762 26" stroke="#7BB7EF" stroke-width="2"/>
<path d="M53.3762 80.1238L73.124 80.1238L73.124 60.3759" stroke="#7BB7EF" stroke-width="2"/>
<path d="M19 61.1074L19 80.8552L38.7479 80.8552" stroke="#7BB7EF" stroke-width="2"/>
<path d="M48.8787 48.1866C45.1139 47.7122 44.8805 44.1471 49.5838 42.2447C54.8395 38.7757 69.6128 31.8376 86.6609 31.8376C127.584 31.8376 99.8417 43.5215 99.8417 53.9286C99.8417 62.9673 120.768 71.4588 102 73.5C99.1585 73.809 95.4071 73.8376 90.5354 73.8376C86.6587 73.4088 82.8852 72.8476 79.2841 72.1977C81.8622 68.1309 88.5455 56.0282 83.7024 46.5008C81.2734 41.7268 79.5643 43.6474 81.7594 47.6686C83.6974 51.2201 84.6129 63.8905 74.0715 71.1712C60.3122 68.2402 49.8594 64.2121 47.1554 61.9745C44.5676 59.8351 45.9784 57.2191 49.2709 58.6468C52.5637 60.0725 64.3241 58.4094 64.3241 58.4094C59.1491 52.9423 52.6433 48.6632 48.8787 48.1866Z" fill="#7BB7EF"/>
<circle r="2.9415" transform="matrix(-0.661957 -0.749542 -0.749542 0.661957 63.5151 45.8415)" fill="#0E111B"/>
<path fill-rule="evenodd" clip-rule="evenodd" d="M113.908 35.2221C114.403 35.2505 114.896 35.2464 115.379 35.205C120.584 34.725 125.764 34.0722 130.528 31.7158C132.067 30.9598 132.548 31.4078 133.085 33.2504C133.402 34.3321 133.529 35.1317 133.648 35.8834C133.808 36.8913 133.954 37.8127 134.527 39.2117C135.02 40.4167 137.035 43.0638 137.882 44.1451C136.809 44.3037 135.777 44.4341 134.709 44.5691C133.57 44.7132 132.389 44.8625 131.072 45.0568C145.457 58.4741 141.991 82.6132 133.045 98.7027C125.68 111.949 111.083 120.756 105.288 124.05C107.077 125.376 110.991 129.061 104.548 135.837C102.311 138.19 101.45 141.378 102.246 145.593C101.266 146.063 97.5161 146.747 98.2556 138.169C99.0486 128.97 98.3574 128.672 95.7811 127.561C95.1537 127.291 94.4144 126.972 93.5575 126.465C91.854 125.456 91.5193 124.423 91.2146 123.482C90.7368 122.007 90.3328 120.76 84.8381 120.195C84.5641 120.167 84.2959 120.14 84.0339 120.113C79.8156 119.687 77.214 119.424 77.9365 117.37C78.6177 115.432 80.1344 115.114 83.0681 114.499C83.8519 114.334 84.7368 114.149 85.734 113.905C93.9098 111.91 100.305 114.165 102.605 117.246C112.249 107.898 113.916 101.541 114.689 98.5936C114.808 98.1416 114.905 97.7699 115.007 97.4798C115.775 95.2977 118.489 86.034 113.889 79.8716C110.209 74.9417 106.502 74.1209 102 73.5L93 32C93 32 102.701 31.4261 113.908 35.2221Z" fill="#7BB7EF" fill-opacity="0.4"/>
<path d="M33 42L33 50" stroke="white" stroke-width="2"/>
<path d="M33 56L33 64" stroke="white" stroke-width="2"/>
<path d="M37 45.5L33 49.5L29 45.5" stroke="white" stroke-width="2"/>
<path d="M29 60L33 56L37 60" stroke="white" stroke-width="2"/>
</svg>
