<svg width="381" height="386" viewBox="0 0 381 386" fill="none" xmlns="http://www.w3.org/2000/svg">
<path d="M354.5 204C354.5 299.269 277.269 376.5 182 376.5C86.7309 376.5 9.5 299.269 9.5 204C9.5 108.731 86.7309 31.5 182 31.5C277.269 31.5 354.5 108.731 354.5 204Z" stroke="#3789B5" stroke-width="5"/>
<path d="M334.5 204C334.5 288.223 266.223 356.5 182 356.5C97.7766 356.5 29.5 288.223 29.5 204C29.5 119.777 97.7766 51.5 182 51.5C266.223 51.5 334.5 119.777 334.5 204Z" stroke="#3789B5" stroke-opacity="0.3" stroke-width="3"/>
<path d="M182 334C253.797 334 312 275.797 312 204C312 132.203 253.797 74 182 74C110.203 74 52 132.203 52 204C52 275.797 110.203 334 182 334Z" fill="#7BB7EF" fill-opacity="0.02"/>
<path d="M311.5 204C311.5 275.521 253.521 333.5 182 333.5C110.479 333.5 52.5 275.521 52.5 204C52.5 132.479 110.479 74.5 182 74.5C253.521 74.5 311.5 132.479 311.5 204Z" stroke="#3789B5" stroke-opacity="0.15"/>
<path d="M371 142.918C345.159 63.4588 270.3 6 182 6V204L371 142.918Z" fill="white"/>
<path d="M371 142.918C345.159 63.4588 270.3 6 182 6V204L371 142.918Z" fill="url(#paint0_linear)"/>
<path opacity="0.8" d="M229.082 135H210.317V133.195L218.295 124.869C220.537 122.545 222.109 120.768 223.012 119.537C223.914 118.307 224.577 117.131 225.001 116.01C225.425 114.889 225.637 113.713 225.637 112.482C225.637 110.691 225.049 109.235 223.873 108.114C222.697 106.993 221.173 106.433 219.3 106.433C216.798 106.433 214.405 107.342 212.122 109.16L211.015 107.745C213.517 105.64 216.292 104.587 219.341 104.587C221.952 104.587 224.003 105.284 225.493 106.679C226.997 108.073 227.749 109.994 227.749 112.441C227.749 114.424 227.243 116.345 226.231 118.204C225.233 120.05 223.401 122.333 220.735 125.054L213.045 132.949V133.031H229.082V135ZM245.007 116.974C248.206 116.974 250.722 117.746 252.554 119.291C254.399 120.836 255.322 122.962 255.322 125.669C255.322 128.745 254.365 131.138 252.451 132.847C250.537 134.556 247.898 135.41 244.535 135.41C243.045 135.41 241.63 135.267 240.29 134.979C238.95 134.679 237.829 134.255 236.927 133.708V131.596C238.403 132.348 239.716 132.874 240.864 133.175C242.013 133.462 243.236 133.605 244.535 133.605C247.16 133.605 249.266 132.915 250.852 131.534C252.438 130.14 253.23 128.26 253.23 125.895C253.23 123.666 252.458 121.916 250.913 120.645C249.368 119.373 247.27 118.737 244.617 118.737C242.84 118.737 240.98 119.004 239.039 119.537L237.809 118.737L238.998 105.018H253.436V106.986H240.926L240.003 117.568C242.136 117.172 243.804 116.974 245.007 116.974ZM264.315 113.959C264.315 116.502 264.623 118.416 265.238 119.701C265.854 120.973 266.817 121.608 268.13 121.608C270.769 121.608 272.088 119.059 272.088 113.959C272.088 111.443 271.746 109.557 271.062 108.299C270.393 107.027 269.415 106.392 268.13 106.392C266.817 106.392 265.854 107.027 265.238 108.299C264.623 109.557 264.315 111.443 264.315 113.959ZM274.098 113.959C274.098 117.049 273.585 119.4 272.56 121.014C271.534 122.613 270.058 123.413 268.13 123.413C266.312 123.413 264.883 122.593 263.844 120.952C262.818 119.298 262.306 116.967 262.306 113.959C262.306 110.91 262.798 108.586 263.782 106.986C264.767 105.387 266.216 104.587 268.13 104.587C270.03 104.587 271.5 105.414 272.539 107.068C273.578 108.709 274.098 111.006 274.098 113.959ZM281.788 126.018C281.788 128.547 282.096 130.447 282.711 131.719C283.326 132.977 284.29 133.605 285.603 133.605C288.241 133.605 289.561 131.076 289.561 126.018C289.561 120.973 288.241 118.45 285.603 118.45C284.29 118.45 283.326 119.079 282.711 120.337C282.096 121.581 281.788 123.475 281.788 126.018ZM291.57 126.018C291.57 129.107 291.064 131.459 290.053 133.072C289.041 134.672 287.571 135.472 285.644 135.472C283.784 135.472 282.342 134.645 281.316 132.99C280.291 131.322 279.778 128.998 279.778 126.018C279.778 122.941 280.277 120.61 281.275 119.024C282.287 117.438 283.743 116.646 285.644 116.646C287.517 116.646 288.973 117.466 290.012 119.106C291.051 120.747 291.57 123.051 291.57 126.018ZM286.238 105.018L269.606 135H267.638L284.27 105.018H286.238Z" fill="white"/>
<path d="M216.395 73.2305C218.327 73.2305 219.863 73.7728 221.002 74.8574C222.15 75.9421 222.725 77.4277 222.725 79.3145C222.725 81.5475 222.036 83.2656 220.66 84.4688C219.284 85.6719 217.315 86.2734 214.754 86.2734C212.53 86.2734 210.734 85.9134 209.367 85.1934V81.543C210.087 81.9258 210.926 82.2402 211.883 82.4863C212.84 82.7233 213.747 82.8418 214.604 82.8418C217.183 82.8418 218.473 81.7845 218.473 79.6699C218.473 77.6556 217.137 76.6484 214.467 76.6484C213.984 76.6484 213.451 76.6986 212.867 76.7988C212.284 76.89 211.81 76.9902 211.445 77.0996L209.764 76.1973L210.516 66.0117H221.357V69.5938H214.221L213.852 73.5176L214.33 73.4219C214.886 73.2943 215.574 73.2305 216.395 73.2305ZM234.1 74.7754H242.029V85.1387C240.744 85.5579 239.532 85.8496 238.393 86.0137C237.262 86.1868 236.105 86.2734 234.92 86.2734C231.903 86.2734 229.597 85.3893 228.002 83.6211C226.416 81.8438 225.623 79.2962 225.623 75.9785C225.623 72.752 226.544 70.2363 228.385 68.4316C230.235 66.627 232.796 65.7246 236.068 65.7246C238.119 65.7246 240.097 66.1348 242.002 66.9551L240.594 70.3457C239.135 69.6165 237.618 69.252 236.041 69.252C234.209 69.252 232.742 69.8672 231.639 71.0977C230.536 72.3281 229.984 73.9824 229.984 76.0605C229.984 78.2298 230.426 79.8887 231.311 81.0371C232.204 82.1764 233.498 82.7461 235.193 82.7461C236.077 82.7461 236.975 82.6549 237.887 82.4727V78.3027H234.1V74.7754Z" fill="#DBE0EA"/>
<path d="M102.058 216L98.9639 205.919H98.8848C98.9961 207.97 99.0518 209.338 99.0518 210.023V216H96.6172V203.15H100.326L103.367 212.977H103.42L106.646 203.15H110.354V216H107.814V209.918C107.814 209.631 107.817 209.3 107.823 208.925C107.835 208.55 107.876 207.554 107.946 205.937H107.867L104.554 216H102.058ZM115.522 211.069C115.522 212.042 115.681 212.777 115.997 213.275C116.319 213.773 116.841 214.022 117.562 214.022C118.276 214.022 118.789 213.776 119.1 213.284C119.416 212.786 119.574 212.048 119.574 211.069C119.574 210.097 119.416 209.367 119.1 208.881C118.783 208.395 118.265 208.151 117.544 208.151C116.829 208.151 116.313 208.395 115.997 208.881C115.681 209.361 115.522 210.091 115.522 211.069ZM122.316 211.069C122.316 212.669 121.895 213.92 121.051 214.822C120.207 215.725 119.032 216.176 117.526 216.176C116.583 216.176 115.751 215.971 115.03 215.561C114.31 215.145 113.756 214.55 113.369 213.776C112.982 213.003 112.789 212.101 112.789 211.069C112.789 209.464 113.208 208.216 114.046 207.325C114.884 206.435 116.062 205.989 117.579 205.989C118.522 205.989 119.354 206.194 120.075 206.604C120.796 207.015 121.35 207.604 121.736 208.371C122.123 209.139 122.316 210.038 122.316 211.069ZM129.998 205.989C131.158 205.989 132.066 206.443 132.723 207.352C133.379 208.254 133.707 209.493 133.707 211.069C133.707 212.692 133.367 213.949 132.688 214.84C132.014 215.73 131.094 216.176 129.928 216.176C128.773 216.176 127.868 215.757 127.212 214.919H127.027L126.579 216H124.531V202.324H127.212V205.506C127.212 205.91 127.177 206.558 127.106 207.448H127.212C127.839 206.476 128.768 205.989 129.998 205.989ZM129.137 208.134C128.475 208.134 127.991 208.339 127.687 208.749C127.382 209.153 127.224 209.824 127.212 210.762V211.052C127.212 212.106 127.367 212.862 127.678 213.319C127.994 213.776 128.492 214.005 129.172 214.005C129.723 214.005 130.159 213.753 130.481 213.249C130.81 212.739 130.974 212.001 130.974 211.034C130.974 210.067 130.81 209.344 130.481 208.863C130.153 208.377 129.705 208.134 129.137 208.134ZM135.808 203.634C135.808 202.761 136.294 202.324 137.267 202.324C138.239 202.324 138.726 202.761 138.726 203.634C138.726 204.05 138.603 204.375 138.356 204.609C138.116 204.838 137.753 204.952 137.267 204.952C136.294 204.952 135.808 204.513 135.808 203.634ZM138.603 216H135.922V206.174H138.603V216ZM144.104 216H141.424V202.324H144.104V216ZM150.995 207.896C150.427 207.896 149.981 208.078 149.659 208.441C149.337 208.799 149.152 209.309 149.105 209.971H152.867C152.855 209.309 152.683 208.799 152.349 208.441C152.015 208.078 151.563 207.896 150.995 207.896ZM151.373 216.176C149.791 216.176 148.555 215.739 147.664 214.866C146.773 213.993 146.328 212.757 146.328 211.157C146.328 209.511 146.738 208.239 147.559 207.343C148.385 206.44 149.524 205.989 150.978 205.989C152.366 205.989 153.447 206.385 154.221 207.176C154.994 207.967 155.381 209.06 155.381 210.454V211.755H149.044C149.073 212.517 149.299 213.111 149.721 213.539C150.143 213.967 150.734 214.181 151.496 214.181C152.088 214.181 152.647 214.119 153.175 213.996C153.702 213.873 154.253 213.677 154.827 213.407V215.481C154.358 215.716 153.857 215.889 153.324 216C152.791 216.117 152.141 216.176 151.373 216.176ZM107.278 240.452C107.278 242.567 106.675 244.188 105.468 245.312C104.267 246.438 102.529 247 100.256 247H96.6172V234.15H100.651C102.749 234.15 104.378 234.704 105.538 235.812C106.698 236.919 107.278 238.466 107.278 240.452ZM104.448 240.522C104.448 237.763 103.229 236.383 100.792 236.383H99.3418V244.75H100.511C103.136 244.75 104.448 243.341 104.448 240.522ZM115.971 247L115.452 245.664H115.382C114.931 246.232 114.465 246.628 113.984 246.851C113.51 247.067 112.889 247.176 112.121 247.176C111.178 247.176 110.434 246.906 109.889 246.367C109.35 245.828 109.08 245.061 109.08 244.064C109.08 243.021 109.443 242.254 110.17 241.762C110.902 241.264 112.004 240.988 113.475 240.936L115.18 240.883V240.452C115.18 239.456 114.67 238.958 113.65 238.958C112.865 238.958 111.942 239.195 110.882 239.67L109.994 237.859C111.125 237.268 112.379 236.972 113.756 236.972C115.074 236.972 116.085 237.259 116.788 237.833C117.491 238.407 117.843 239.28 117.843 240.452V247H115.971ZM115.18 242.447L114.143 242.482C113.363 242.506 112.783 242.646 112.402 242.904C112.021 243.162 111.831 243.555 111.831 244.082C111.831 244.838 112.265 245.216 113.132 245.216C113.753 245.216 114.248 245.037 114.617 244.68C114.992 244.322 115.18 243.848 115.18 243.256V242.447ZM124.751 245.04C125.22 245.04 125.782 244.938 126.438 244.732V246.728C125.771 247.026 124.95 247.176 123.978 247.176C122.905 247.176 122.123 246.906 121.631 246.367C121.145 245.822 120.901 245.008 120.901 243.924V239.187H119.618V238.053L121.095 237.156L121.868 235.082H123.582V237.174H126.333V239.187H123.582V243.924C123.582 244.305 123.688 244.586 123.898 244.768C124.115 244.949 124.399 245.04 124.751 245.04ZM134.674 247L134.155 245.664H134.085C133.634 246.232 133.168 246.628 132.688 246.851C132.213 247.067 131.592 247.176 130.824 247.176C129.881 247.176 129.137 246.906 128.592 246.367C128.053 245.828 127.783 245.061 127.783 244.064C127.783 243.021 128.146 242.254 128.873 241.762C129.605 241.264 130.707 240.988 132.178 240.936L133.883 240.883V240.452C133.883 239.456 133.373 238.958 132.354 238.958C131.568 238.958 130.646 239.195 129.585 239.67L128.697 237.859C129.828 237.268 131.082 236.972 132.459 236.972C133.777 236.972 134.788 237.259 135.491 237.833C136.194 238.407 136.546 239.28 136.546 240.452V247H134.674ZM133.883 242.447L132.846 242.482C132.066 242.506 131.486 242.646 131.105 242.904C130.725 243.162 130.534 243.555 130.534 244.082C130.534 244.838 130.968 245.216 131.835 245.216C132.456 245.216 132.951 245.037 133.32 244.68C133.695 244.322 133.883 243.848 133.883 243.256V242.447ZM149.158 247H146.434V236.418H142.944V234.15H152.647V236.418H149.158V247ZM159.898 236.989C160.262 236.989 160.563 237.016 160.804 237.068L160.602 239.582C160.385 239.523 160.121 239.494 159.811 239.494C158.955 239.494 158.287 239.714 157.807 240.153C157.332 240.593 157.095 241.208 157.095 241.999V247H154.414V237.174H156.444L156.84 238.826H156.972C157.276 238.275 157.687 237.833 158.202 237.499C158.724 237.159 159.289 236.989 159.898 236.989ZM168.828 247L168.31 245.664H168.239C167.788 246.232 167.322 246.628 166.842 246.851C166.367 247.067 165.746 247.176 164.979 247.176C164.035 247.176 163.291 246.906 162.746 246.367C162.207 245.828 161.938 245.061 161.938 244.064C161.938 243.021 162.301 242.254 163.027 241.762C163.76 241.264 164.861 240.988 166.332 240.936L168.037 240.883V240.452C168.037 239.456 167.527 238.958 166.508 238.958C165.723 238.958 164.8 239.195 163.739 239.67L162.852 237.859C163.982 237.268 165.236 236.972 166.613 236.972C167.932 236.972 168.942 237.259 169.646 237.833C170.349 238.407 170.7 239.28 170.7 240.452V247H168.828ZM168.037 242.447L167 242.482C166.221 242.506 165.641 242.646 165.26 242.904C164.879 243.162 164.688 243.555 164.688 244.082C164.688 244.838 165.122 245.216 165.989 245.216C166.61 245.216 167.105 245.037 167.475 244.68C167.85 244.322 168.037 243.848 168.037 243.256V242.447ZM178.9 239.187H176.58V247H173.899V239.187H172.423V237.895L173.899 237.174V236.453C173.899 235.334 174.175 234.517 174.726 234.001C175.276 233.485 176.158 233.228 177.371 233.228C178.297 233.228 179.12 233.365 179.841 233.641L179.155 235.609C178.616 235.439 178.118 235.354 177.661 235.354C177.28 235.354 177.005 235.469 176.835 235.697C176.665 235.92 176.58 236.207 176.58 236.559V237.174H178.9V239.187ZM185.87 239.187H183.55V247H180.869V239.187H179.393V237.895L180.869 237.174V236.453C180.869 235.334 181.145 234.517 181.695 234.001C182.246 233.485 183.128 233.228 184.341 233.228C185.267 233.228 186.09 233.365 186.811 233.641L186.125 235.609C185.586 235.439 185.088 235.354 184.631 235.354C184.25 235.354 183.975 235.469 183.805 235.697C183.635 235.92 183.55 236.207 183.55 236.559V237.174H185.87V239.187ZM187.268 234.634C187.268 233.761 187.754 233.324 188.727 233.324C189.699 233.324 190.186 233.761 190.186 234.634C190.186 235.05 190.062 235.375 189.816 235.609C189.576 235.838 189.213 235.952 188.727 235.952C187.754 235.952 187.268 235.513 187.268 234.634ZM190.062 247H187.382V237.174H190.062V247ZM196.865 247.176C193.807 247.176 192.277 245.497 192.277 242.14C192.277 240.47 192.693 239.195 193.525 238.316C194.357 237.432 195.55 236.989 197.103 236.989C198.239 236.989 199.259 237.212 200.161 237.657L199.37 239.731C198.948 239.562 198.556 239.424 198.192 239.318C197.829 239.207 197.466 239.151 197.103 239.151C195.708 239.151 195.011 240.142 195.011 242.122C195.011 244.044 195.708 245.005 197.103 245.005C197.618 245.005 198.096 244.938 198.535 244.803C198.975 244.662 199.414 244.445 199.854 244.152V246.446C199.42 246.722 198.98 246.912 198.535 247.018C198.096 247.123 197.539 247.176 196.865 247.176Z" fill="#DBE0EA"/>
<defs>
<linearGradient id="paint0_linear" x1="276.5" y1="6" x2="276.5" y2="204" gradientUnits="userSpaceOnUse">
<stop stop-color="#47BBD5"/>
<stop offset="1" stop-color="#265293"/>
</linearGradient>
</defs>
</svg>
