<svg width="540" height="540" viewBox="0 0 540 540" fill="none" xmlns="http://www.w3.org/2000/svg">
<path d="M443.087 269.873C443.087 365.524 365.543 443.065 269.886 443.065C174.229 443.065 96.6846 365.524 96.6846 269.873C96.6846 174.222 174.229 96.6816 269.886 96.6816C365.543 96.6816 443.087 174.222 443.087 269.873Z" stroke="#3789B5" stroke-width="5"/>
<path d="M467.679 269.873C467.679 379.106 379.124 467.656 269.886 467.656C160.647 467.656 72.0923 379.106 72.0923 269.873C72.0923 160.641 160.647 72.0908 269.886 72.0908C379.124 72.0908 467.679 160.641 467.679 269.873Z" stroke="#3789B5" stroke-opacity="0.8" stroke-width="2"/>
<path opacity="0.1" d="M269.886 418.459C351.952 418.459 418.479 351.935 418.479 269.874C418.479 187.812 351.952 121.289 269.886 121.289C187.82 121.289 121.293 187.812 121.293 269.874C121.293 351.935 187.82 418.459 269.886 418.459Z" fill="#7BB7EF"/>
<path d="M491.272 269.874C491.272 392.135 392.154 491.247 269.886 491.247C147.618 491.247 48.5 392.135 48.5 269.874C48.5 147.612 147.618 48.5 269.886 48.5C392.154 48.5 491.272 147.612 491.272 269.874Z" stroke="#3789B5" stroke-opacity="0.4"/>
<path d="M459.643 208.55C433.699 128.777 358.539 71.0908 269.886 71.0908V269.873L459.643 208.55Z" fill="white"/>
<path d="M459.643 208.55C433.699 128.777 358.539 71.0908 269.886 71.0908V269.873L459.643 208.55Z" fill="url(#paint0_linear)"/>
<g opacity="0.8">
<path d="M317.156 200.601H298.317V198.789L306.326 190.43C308.577 188.096 310.156 186.312 311.062 185.077C311.968 183.841 312.634 182.661 313.059 181.535C313.485 180.41 313.697 179.229 313.697 177.994C313.697 176.196 313.107 174.734 311.927 173.609C310.746 172.483 309.216 171.92 307.335 171.92C304.823 171.92 302.421 172.833 300.129 174.659L299.017 173.238C301.529 171.124 304.315 170.067 307.376 170.067C309.998 170.067 312.057 170.767 313.553 172.167C315.063 173.567 315.818 175.496 315.818 177.953C315.818 179.943 315.31 181.872 314.294 183.738C313.292 185.591 311.453 187.884 308.776 190.615L301.055 198.542V198.624H317.156V200.601Z" fill="white"/>
<path d="M333.145 182.503C336.357 182.503 338.883 183.279 340.722 184.83C342.575 186.381 343.502 188.515 343.502 191.233C343.502 194.321 342.541 196.723 340.619 198.439C338.698 200.155 336.048 201.012 332.672 201.012C331.175 201.012 329.755 200.868 328.409 200.58C327.064 200.278 325.939 199.853 325.033 199.304V197.183C326.515 197.938 327.833 198.466 328.986 198.768C330.139 199.057 331.368 199.201 332.672 199.201C335.307 199.201 337.421 198.507 339.013 197.121C340.606 195.721 341.402 193.834 341.402 191.459C341.402 189.222 340.626 187.465 339.075 186.188C337.524 184.912 335.417 184.274 332.754 184.274C330.969 184.274 329.103 184.541 327.153 185.077L325.918 184.274L327.112 170.5H341.608V172.476H329.048L328.121 183.1C330.263 182.702 331.937 182.503 333.145 182.503Z" fill="white"/>
<path d="M352.531 179.476C352.531 182.03 352.84 183.951 353.458 185.241C354.075 186.518 355.043 187.156 356.361 187.156C359.01 187.156 360.335 184.596 360.335 179.476C360.335 176.951 359.992 175.057 359.305 173.794C358.633 172.517 357.651 171.879 356.361 171.879C355.043 171.879 354.075 172.517 353.458 173.794C352.84 175.057 352.531 176.951 352.531 179.476ZM362.353 179.476C362.353 182.579 361.838 184.939 360.808 186.559C359.779 188.165 358.296 188.968 356.361 188.968C354.535 188.968 353.101 188.144 352.058 186.497C351.028 184.836 350.513 182.496 350.513 179.476C350.513 176.416 351.007 174.082 351.996 172.476C352.984 170.87 354.439 170.067 356.361 170.067C358.269 170.067 359.744 170.898 360.788 172.559C361.831 174.206 362.353 176.512 362.353 179.476ZM370.074 191.583C370.074 194.122 370.383 196.03 371 197.306C371.618 198.569 372.586 199.201 373.904 199.201C376.553 199.201 377.877 196.661 377.877 191.583C377.877 186.518 376.553 183.985 373.904 183.985C372.586 183.985 371.618 184.617 371 185.88C370.383 187.129 370.074 189.03 370.074 191.583ZM379.895 191.583C379.895 194.685 379.387 197.046 378.372 198.665C377.356 200.271 375.88 201.074 373.945 201.074C372.078 201.074 370.63 200.244 369.6 198.583C368.571 196.908 368.056 194.575 368.056 191.583C368.056 188.494 368.557 186.154 369.559 184.562C370.575 182.97 372.037 182.174 373.945 182.174C375.825 182.174 377.287 182.997 378.33 184.644C379.374 186.291 379.895 188.604 379.895 191.583ZM374.542 170.5L357.843 200.601H355.867L372.565 170.5H374.542Z" fill="white"/>
</g>
<path d="M304.418 138.587C306.358 138.587 307.9 139.132 309.044 140.221C310.197 141.31 310.774 142.801 310.774 144.695C310.774 146.937 310.083 148.662 308.701 149.87C307.319 151.078 305.343 151.682 302.771 151.682C300.538 151.682 298.735 151.32 297.363 150.597V146.933C298.086 147.317 298.928 147.633 299.889 147.88C300.849 148.118 301.76 148.237 302.62 148.237C305.21 148.237 306.505 147.175 306.505 145.052C306.505 143.03 305.164 142.019 302.483 142.019C301.998 142.019 301.462 142.069 300.877 142.17C300.291 142.261 299.815 142.362 299.449 142.472L297.761 141.566L298.516 131.34H309.401V134.936H302.236L301.865 138.876L302.346 138.779C302.904 138.651 303.595 138.587 304.418 138.587Z" fill="#DBE0EA"/>
<path d="M322.194 140.138H330.156V150.543C328.866 150.963 327.648 151.256 326.505 151.421C325.37 151.595 324.208 151.682 323.018 151.682C319.989 151.682 317.674 150.794 316.072 149.019C314.48 147.235 313.684 144.677 313.684 141.346C313.684 138.107 314.608 135.581 316.457 133.769C318.314 131.958 320.886 131.052 324.171 131.052C326.23 131.052 328.216 131.464 330.128 132.287L328.715 135.691C327.25 134.959 325.727 134.593 324.144 134.593C322.304 134.593 320.831 135.211 319.724 136.446C318.616 137.681 318.063 139.342 318.063 141.429C318.063 143.606 318.506 145.272 319.394 146.425C320.291 147.569 321.59 148.141 323.292 148.141C324.18 148.141 325.082 148.049 325.997 147.866V143.68H322.194V140.138Z" fill="#DBE0EA"/>
<path d="M199.381 338.99L196.275 328.869H196.195C196.307 330.928 196.363 332.301 196.363 332.989V338.99H193.918V326.089H197.642L200.696 335.954H200.748L203.987 326.089H207.711V338.99H205.161V332.883C205.161 332.595 205.164 332.263 205.169 331.886C205.181 331.51 205.222 330.51 205.293 328.886H205.214L201.887 338.99H199.381Z" fill="white"/>
<path d="M212.9 334.039C212.9 335.016 213.058 335.754 213.376 336.254C213.7 336.754 214.223 337.004 214.947 337.004C215.664 337.004 216.179 336.757 216.491 336.263C216.809 335.763 216.967 335.022 216.967 334.039C216.967 333.063 216.809 332.331 216.491 331.842C216.173 331.354 215.653 331.11 214.929 331.11C214.211 331.11 213.694 331.354 213.376 331.842C213.058 332.325 212.9 333.057 212.9 334.039ZM219.721 334.039C219.721 335.645 219.297 336.901 218.45 337.807C217.603 338.713 216.423 339.166 214.911 339.166C213.964 339.166 213.129 338.96 212.405 338.548C211.682 338.131 211.126 337.534 210.738 336.757C210.349 335.981 210.155 335.075 210.155 334.039C210.155 332.428 210.576 331.175 211.417 330.28C212.258 329.386 213.441 328.939 214.964 328.939C215.912 328.939 216.747 329.145 217.47 329.557C218.194 329.969 218.75 330.56 219.138 331.33C219.527 332.101 219.721 333.004 219.721 334.039Z" fill="white"/>
<path d="M227.433 328.939C228.598 328.939 229.51 329.395 230.169 330.307C230.828 331.213 231.157 332.457 231.157 334.039C231.157 335.669 230.816 336.931 230.133 337.825C229.457 338.719 228.533 339.166 227.363 339.166C226.204 339.166 225.295 338.745 224.636 337.904H224.45L224 338.99H221.944V325.26H224.636V328.454C224.636 328.86 224.601 329.51 224.53 330.404H224.636C225.265 329.427 226.198 328.939 227.433 328.939ZM226.568 331.092C225.904 331.092 225.418 331.298 225.112 331.71C224.806 332.116 224.648 332.789 224.636 333.731V334.022C224.636 335.081 224.792 335.839 225.103 336.298C225.421 336.757 225.921 336.987 226.604 336.987C227.157 336.987 227.595 336.734 227.918 336.228C228.248 335.716 228.413 334.975 228.413 334.004C228.413 333.033 228.248 332.307 227.918 331.825C227.589 331.336 227.139 331.092 226.568 331.092Z" fill="white"/>
<path d="M233.266 326.574C233.266 325.698 233.754 325.26 234.731 325.26C235.707 325.26 236.196 325.698 236.196 326.574C236.196 326.992 236.072 327.319 235.825 327.554C235.584 327.783 235.219 327.898 234.731 327.898C233.754 327.898 233.266 327.457 233.266 326.574ZM236.072 338.99H233.381V329.125H236.072V338.99Z" fill="white"/>
<path d="M241.596 338.99H238.905V325.26H241.596V338.99Z" fill="white"/>
<path d="M248.514 330.854C247.944 330.854 247.497 331.036 247.173 331.401C246.849 331.76 246.664 332.272 246.617 332.936H250.394C250.382 332.272 250.209 331.76 249.873 331.401C249.538 331.036 249.085 330.854 248.514 330.854ZM248.894 339.166C247.305 339.166 246.064 338.728 245.17 337.851C244.276 336.975 243.829 335.734 243.829 334.128C243.829 332.475 244.24 331.198 245.064 330.298C245.894 329.392 247.038 328.939 248.497 328.939C249.891 328.939 250.976 329.336 251.753 330.13C252.529 330.925 252.918 332.022 252.918 333.422V334.728H246.555C246.585 335.492 246.811 336.089 247.235 336.519C247.658 336.948 248.253 337.163 249.017 337.163C249.611 337.163 250.173 337.101 250.703 336.978C251.232 336.854 251.785 336.657 252.362 336.387V338.469C251.891 338.704 251.388 338.878 250.853 338.99C250.317 339.107 249.664 339.166 248.894 339.166Z" fill="white"/>
<path d="M270.716 332.416C270.716 334.539 270.11 336.166 268.898 337.295C267.692 338.425 265.948 338.99 263.666 338.99H260.012V326.089H264.063C266.169 326.089 267.804 326.645 268.969 327.757C270.134 328.869 270.716 330.422 270.716 332.416ZM267.875 332.486C267.875 329.716 266.651 328.33 264.204 328.33H262.748V336.731H263.922C266.557 336.731 267.875 335.316 267.875 332.486Z" fill="white"/>
<path d="M279.443 338.99L278.923 337.648H278.852C278.399 338.219 277.932 338.616 277.449 338.84C276.973 339.057 276.349 339.166 275.578 339.166C274.631 339.166 273.884 338.895 273.337 338.354C272.796 337.813 272.525 337.042 272.525 336.042C272.525 334.995 272.89 334.225 273.619 333.731C274.355 333.231 275.461 332.954 276.937 332.901L278.649 332.848V332.416C278.649 331.416 278.137 330.916 277.114 330.916C276.326 330.916 275.399 331.154 274.334 331.63L273.443 329.813C274.578 329.219 275.837 328.922 277.22 328.922C278.543 328.922 279.558 329.21 280.264 329.786C280.97 330.363 281.323 331.239 281.323 332.416V338.99H279.443ZM278.649 334.419L277.608 334.454C276.826 334.478 276.243 334.619 275.861 334.878C275.478 335.136 275.287 335.531 275.287 336.06C275.287 336.819 275.723 337.198 276.593 337.198C277.217 337.198 277.714 337.019 278.085 336.66C278.461 336.301 278.649 335.825 278.649 335.231V334.419Z" fill="white"/>
<path d="M288.259 337.022C288.73 337.022 289.294 336.919 289.953 336.713V338.716C289.283 339.016 288.459 339.166 287.482 339.166C286.406 339.166 285.62 338.895 285.126 338.354C284.638 337.807 284.394 336.989 284.394 335.901V331.145H283.106V330.007L284.588 329.107L285.365 327.024H287.085V329.125H289.847V331.145H287.085V335.901C287.085 336.284 287.191 336.566 287.403 336.748C287.621 336.931 287.906 337.022 288.259 337.022Z" fill="white"/>
<path d="M298.222 338.99L297.701 337.648H297.63C297.177 338.219 296.71 338.616 296.227 338.84C295.751 339.057 295.127 339.166 294.357 339.166C293.409 339.166 292.662 338.895 292.115 338.354C291.574 337.813 291.303 337.042 291.303 336.042C291.303 334.995 291.668 334.225 292.398 333.731C293.133 333.231 294.239 332.954 295.715 332.901L297.427 332.848V332.416C297.427 331.416 296.916 330.916 295.892 330.916C295.104 330.916 294.177 331.154 293.112 331.63L292.221 329.813C293.356 329.219 294.615 328.922 295.998 328.922C297.321 328.922 298.336 329.21 299.042 329.786C299.748 330.363 300.101 331.239 300.101 332.416V338.99H298.222ZM297.427 334.419L296.386 334.454C295.604 334.478 295.021 334.619 294.639 334.878C294.257 335.136 294.065 335.531 294.065 336.06C294.065 336.819 294.501 337.198 295.371 337.198C295.995 337.198 296.492 337.019 296.863 336.66C297.239 336.301 297.427 335.825 297.427 335.231V334.419Z" fill="white"/>
<path d="M312.764 338.99H310.028V328.366H306.525V326.089H316.267V328.366H312.764V338.99Z" fill="white"/>
<path d="M323.547 328.939C323.912 328.939 324.215 328.966 324.456 329.019L324.253 331.542C324.036 331.483 323.771 331.454 323.459 331.454C322.6 331.454 321.929 331.675 321.447 332.116C320.971 332.557 320.732 333.175 320.732 333.969V338.99H318.041V329.125H320.079L320.476 330.783H320.609C320.915 330.23 321.326 329.786 321.844 329.451C322.368 329.11 322.935 328.939 323.547 328.939Z" fill="white"/>
<path d="M332.513 338.99L331.992 337.648H331.922C331.469 338.219 331.001 338.616 330.518 338.84C330.042 339.057 329.418 339.166 328.648 339.166C327.701 339.166 326.953 338.895 326.406 338.354C325.865 337.813 325.594 337.042 325.594 336.042C325.594 334.995 325.959 334.225 326.689 333.731C327.424 333.231 328.53 332.954 330.007 332.901L331.719 332.848V332.416C331.719 331.416 331.207 330.916 330.183 330.916C329.395 330.916 328.468 331.154 327.403 331.63L326.512 329.813C327.648 329.219 328.907 328.922 330.289 328.922C331.613 328.922 332.627 329.21 333.333 329.786C334.039 330.363 334.392 331.239 334.392 332.416V338.99H332.513ZM331.719 334.419L330.677 334.454C329.895 334.478 329.312 334.619 328.93 334.878C328.548 335.136 328.356 335.531 328.356 336.06C328.356 336.819 328.792 337.198 329.662 337.198C330.286 337.198 330.783 337.019 331.154 336.66C331.53 336.301 331.719 335.825 331.719 335.231V334.419Z" fill="white"/>
<path d="M342.625 331.145H340.296V338.99H337.604V331.145H336.122V329.848L337.604 329.125V328.401C337.604 327.277 337.881 326.457 338.434 325.939C338.987 325.421 339.872 325.163 341.09 325.163C342.019 325.163 342.846 325.301 343.57 325.577L342.881 327.554C342.34 327.383 341.84 327.298 341.381 327.298C340.999 327.298 340.722 327.413 340.552 327.642C340.381 327.866 340.296 328.154 340.296 328.507V329.125H342.625V331.145ZM349.623 331.145H347.293V338.99H344.602V331.145H343.12V329.848L344.602 329.125V328.401C344.602 327.277 344.878 326.457 345.431 325.939C345.984 325.421 346.87 325.163 348.088 325.163C349.017 325.163 349.844 325.301 350.567 325.577L349.879 327.554C349.338 327.383 348.838 327.298 348.379 327.298C347.996 327.298 347.72 327.413 347.549 327.642C347.379 327.866 347.293 328.154 347.293 328.507V329.125H349.623V331.145ZM351.026 326.574C351.026 325.698 351.514 325.26 352.491 325.26C353.467 325.26 353.956 325.698 353.956 326.574C353.956 326.992 353.832 327.319 353.585 327.554C353.344 327.783 352.979 327.898 352.491 327.898C351.514 327.898 351.026 327.457 351.026 326.574ZM353.832 338.99H351.141V329.125H353.832V338.99Z" fill="white"/>
<path d="M360.662 339.166C357.591 339.166 356.056 337.481 356.056 334.11C356.056 332.433 356.474 331.154 357.309 330.272C358.144 329.383 359.342 328.939 360.9 328.939C362.042 328.939 363.065 329.163 363.971 329.61L363.177 331.692C362.754 331.522 362.359 331.383 361.995 331.278C361.63 331.166 361.265 331.11 360.9 331.11C359.5 331.11 358.8 332.104 358.8 334.092C358.8 336.022 359.5 336.987 360.9 336.987C361.418 336.987 361.898 336.919 362.339 336.784C362.78 336.642 363.221 336.425 363.662 336.131V338.434C363.227 338.71 362.786 338.901 362.339 339.007C361.898 339.113 361.339 339.166 360.662 339.166Z" fill="white"/>
<defs>
<linearGradient id="paint0_linear" x1="364.764" y1="71.0908" x2="364.764" y2="269.873" gradientUnits="userSpaceOnUse">
<stop stop-color="#47BBD5"/>
<stop offset="1" stop-color="#265293"/>
</linearGradient>
</defs>
</svg>
