<svg id="Layer_1" data-name="Layer 1" xmlns="http://www.w3.org/2000/svg" viewBox="0 0 2000 400"><defs><style>.cls-1{fill:#15192e;}.cls-2{fill:#e52421;}</style></defs><title>Sealab logo4</title><path class="cls-1" d="M879.1338,230.8577a47.8339,47.8339,0,0,1-2.04,14.4875,43.28,43.28,0,0,1-5.387,11.3494,35.9872,35.9872,0,0,1-7.8452,8.3682,48.1624,48.1624,0,0,1-9.31,5.6485,46.6065,46.6065,0,0,1-9.78,3.2427A45.5036,45.5036,0,0,1,835.41,275H730.4937V247.8033H835.41q7.8451,0,12.1862-4.6025,4.3392-4.6015,4.341-12.3431a19.9317,19.9317,0,0,0-1.1506-6.9037,15.9545,15.9545,0,0,0-3.295-5.4394,14.545,14.545,0,0,0-5.23-3.5564,18.0265,18.0265,0,0,0-6.8514-1.2553H772.8577a48.4735,48.4735,0,0,1-14.226-2.3535,42.6387,42.6387,0,0,1-14.1736-7.5837,41.3572,41.3572,0,0,1-10.8787-13.7029q-4.3417-8.4729-4.341-20.7113t4.341-20.659a41.6985,41.6985,0,0,1,25.0523-21.3389A48.4705,48.4705,0,0,1,772.8577,125h92.5732v27.1967H772.8577q-7.7424,0-12.0816,4.7071-4.3419,4.707-4.341,12.4477,0,7.8452,4.341,12.3954,4.3392,4.55,12.0816,4.55h62.7615a48.0811,48.0811,0,0,1,9.31,1.2029,46.6819,46.6819,0,0,1,9.78,3.4,47.2459,47.2459,0,0,1,9.2574,5.8054,39.2416,39.2416,0,0,1,7.7929,8.42,41.405,41.405,0,0,1,5.387,11.2971A48.5273,48.5273,0,0,1,879.1338,230.8577Z"/><path class="cls-1" d="M1037.2928,275H939.1757a43.59,43.59,0,0,1-12.3431-1.9874,36.0683,36.0683,0,0,1-21.9142-18.3578q-3.82-7.269-3.818-17.8347V138.7029a13.72,13.72,0,0,1,1.046-5.3347,13.88,13.88,0,0,1,2.8766-4.3933,12.898,12.898,0,0,1,4.341-2.9289A14.019,14.019,0,0,1,914.8033,125h122.4895v27.1967H928.297V236.82q0,5.3348,2.8243,8.159t8.2636,2.8242h97.9079Zm-12.2385-61.2971H939.1757V186.2971h85.8786Z"/><path class="cls-1" d="M1210.7238,275h-27.1967V238.18H1087.92V275h-27.1966V200a79.0962,79.0962,0,0,1,5.6485-30.23,70.5618,70.5618,0,0,1,15.69-23.7448,71.4484,71.4484,0,0,1,23.7448-15.4812A79.0378,79.0378,0,0,1,1135.7238,125h61.2971a13.7512,13.7512,0,0,1,5.3347,1.046,13.462,13.462,0,0,1,7.3222,7.3222,13.7512,13.7512,0,0,1,1.046,5.3347ZM1087.92,210.9833h95.6067V152.1967h-47.8033q-1.2552,0-5.2824.3661a53.7967,53.7967,0,0,0-9.31,1.8305,58.3392,58.3392,0,0,0-11.14,4.4979,39.1286,39.1286,0,0,0-10.7741,8.3682,42.8251,42.8251,0,0,0-8.1067,13.3368q-3.1921,8.0022-3.19,19.4038Z"/><path class="cls-1" d="M1380.0754,275H1256.0169a13.9874,13.9874,0,0,1-5.4394-1.046,13.0938,13.0938,0,0,1-7.2177-7.2176,13.9865,13.9865,0,0,1-1.0461-5.4393V125h27.1969V247.8033h110.5648Z"/><path class="cls-1" d="M1547.23,275h-27.1966V238.18h-95.6067V275H1397.23V200a79.0963,79.0963,0,0,1,5.6486-30.23,70.5618,70.5618,0,0,1,15.69-23.7448,71.448,71.448,0,0,1,23.7447-15.4812A79.0382,79.0382,0,0,1,1472.23,125h61.2971a13.7509,13.7509,0,0,1,5.3347,1.046,13.462,13.462,0,0,1,7.3222,7.3222,13.7512,13.7512,0,0,1,1.046,5.3347Zm-122.8033-64.0167h95.6067V152.1967H1472.23q-1.2552,0-5.2824.3661a53.7958,53.7958,0,0,0-9.31,1.8305,58.34,58.34,0,0,0-11.14,4.4979,39.1267,39.1267,0,0,0-10.774,8.3682,42.8232,42.8232,0,0,0-8.1067,13.3368q-3.1921,8.0022-3.19,19.4038Z"/><path class="cls-1" d="M1728.5064,242.05a37.591,37.591,0,0,1-1.726,10.7741,31.2047,31.2047,0,0,1-15.8472,18.8807Q1704.6571,275,1695.5566,275H1592.3139a13.9883,13.9883,0,0,1-5.4393-1.046,13.0949,13.0949,0,0,1-7.2176-7.2176,13.9883,13.9883,0,0,1-1.046-5.4393V138.7029a13.72,13.72,0,0,1,1.046-5.3347,13.88,13.88,0,0,1,2.8766-4.3933,12.899,12.899,0,0,1,4.341-2.9289,14.0194,14.0194,0,0,1,5.4393-1.046h91.0042a36.6091,36.6091,0,0,1,10.7741,1.7782,32.9166,32.9166,0,0,1,10.7217,5.7009,31.301,31.301,0,0,1,8.2636,10.1987q3.295,6.2762,3.295,15.3766V163.18a56.0917,56.0917,0,0,1-2.4059,15.5335,51.3288,51.3288,0,0,1-7.74,15.7427,48.1228,48.1228,0,0,1,8.63,6.7991,43.648,43.648,0,0,1,7.0606,9.2051,48.8554,48.8554,0,0,1,4.8117,11.82,55.7687,55.7687,0,0,1,1.7783,14.54Zm-27.1967-5.23a25.8957,25.8957,0,0,0-1.6736-9.5711,21.1369,21.1369,0,0,0-4.7071-7.27,20.4455,20.4455,0,0,0-7.3222-4.6548,27.0631,27.0631,0,0,0-9.6234-1.6214h-61.2971V186.2971h49.0586a27.0232,27.0232,0,0,0,9.6234-1.6214,20.0523,20.0523,0,0,0,11.977-11.9247,26.63,26.63,0,0,0,1.6213-9.5711v-5.1255q0-5.8569-5.6485-5.8577h-77.51v95.6066h89.749q.7305,0,1.7782-.1046a3.8793,3.8793,0,0,0,3.3473-2.4058,7.8272,7.8272,0,0,0,.6276-3.4519Z"/><path class="cls-2" d="M699.4937,225V125h-29l-90,150h69A50,50,0,0,0,699.4937,225Z"/><polygon class="cls-1" points="520.494 275 553.494 275 643.494 125 610.494 125 520.494 275"/><polygon class="cls-1" points="453.494 275 500.494 275 590.494 125 543.494 125 453.494 275"/><path class="cls-1" d="M271.4936,275h171l90-150H446.4222a150,150,0,0,0-128.6239,72.8256Z"/></svg>