<svg width="163" height="34" viewBox="0 0 163 34" fill="none" xmlns="http://www.w3.org/2000/svg">
<path fill-rule="evenodd" clip-rule="evenodd" d="M62.6625 12.9989C59.0769 11.7486 56.9409 11.2657 54.8406 11.2657C52.6314 11.2657 51.0269 12.083 51.0269 13.0497C51.0269 15.9762 63.4664 15.3462 63.4664 22.1096C63.4664 25.8319 59.8017 27.6064 54.2976 27.6064C49.9876 27.6064 47.8512 26.7237 45.3887 25.7299V21.5522C48.9373 23.4003 51.1103 24.0536 53.8264 24.0536C56.1808 24.0536 57.5754 22.9488 57.5754 21.8118C57.5754 18.6291 45.2002 19.795 45.2002 12.8319C45.2002 9.47794 48.576 7.71338 54.2976 7.71338C57.0494 7.71338 59.548 8.16743 62.6625 9.21971V12.9989Z" fill="white"/>
<path fill-rule="evenodd" clip-rule="evenodd" d="M68.0605 27.3505H73.2595V7.96924H68.0605V27.3505Z" fill="white"/>
<path fill-rule="evenodd" clip-rule="evenodd" d="M84.0176 27.3505H78.6279V7.96924H83.5745L95.2199 20.0775V7.96924H100.418V27.3505H96.0702L84.0176 14.6087V27.3505Z" fill="white"/>
<path fill-rule="evenodd" clip-rule="evenodd" d="M142.608 27.3505H126.068V7.96924H142.625V11.3271H131.203V15.6502H141.493V19.073H131.203V23.9269H142.608V27.3505Z" fill="white"/>
<mask id="mask0" mask-type="alpha" maskUnits="userSpaceOnUse" x="0" y="0" width="163" height="34">
<path d="M0 0.0737305H162.687V33.9743H0V0.0737305Z" fill="white"/>
</mask>
<g mask="url(#mask0)">
<path fill-rule="evenodd" clip-rule="evenodd" d="M162.687 11.3271H151.126V15.9054H161.466V19.3295H151.126V27.3505H145.992V7.96924H162.687V11.3271Z" fill="white"/>
<path fill-rule="evenodd" clip-rule="evenodd" d="M16.314 31.1695C16.6818 31.1846 17.0592 31.1923 17.4457 31.1923C29.9345 31.1923 32.9724 22.9174 32.9724 16.0946C32.9724 9.61181 30.2291 1.81763 19.2417 1.05758L18.5769 2.90563C18.2088 2.89014 17.8313 2.88196 17.4457 2.88196C4.95639 2.88196 1.91855 11.1569 1.91855 17.9801C1.91855 24.4625 4.66146 32.2575 15.6501 33.0167L16.314 31.1695ZM34.8914 17.0371C34.8914 24.7031 31.4782 34.0001 17.4457 34.0001C3.41321 34.0001 0 24.7031 0 17.0371C0 9.37079 3.41321 0.0737305 17.4457 0.0737305C31.4782 0.0737305 34.8914 9.37079 34.8914 17.0371Z" fill="white"/>
</g>
<path fill-rule="evenodd" clip-rule="evenodd" d="M16.9946 7.29777C8.53092 7.49359 6.45405 13.2336 6.45405 17.9802C6.45405 22.7665 8.56709 28.5646 17.2155 28.6653L17.8951 26.7768C26.3588 26.5814 28.4356 20.8418 28.4356 16.0947C28.4356 11.3076 26.323 5.5104 17.6747 5.40926L16.9946 7.29777ZM30.704 17.0373C30.704 22.7101 28.1096 29.591 17.4453 29.591C6.78048 29.591 4.18652 22.7101 4.18652 17.0373C4.18652 11.3644 6.78048 4.48438 17.4453 4.48438C28.1096 4.48438 30.704 11.3644 30.704 17.0373Z" fill="white"/>
<path fill-rule="evenodd" clip-rule="evenodd" d="M18.5687 24.9045L19.6671 21.8544C20.5587 19.3771 20.0582 17.7455 17.4456 17.0371C14.8325 16.3292 14.332 14.6976 15.2236 12.2199L16.322 9.17022C16.6799 9.14311 17.054 9.12891 17.4456 9.12891C24.3209 9.12891 25.9939 13.4633 25.9939 17.0371C25.9939 20.4079 24.5052 24.4543 18.5687 24.9045Z" fill="white"/>
<path fill-rule="evenodd" clip-rule="evenodd" d="M115.837 27.3505V11.392H123.436V7.96924H103.008V11.392H110.662V27.3505H115.837Z" fill="white"/>
</svg>
