<svg width="476" height="467" viewBox="0 0 476 467" fill="none" xmlns="http://www.w3.org/2000/svg">
<path d="M395.578 296.309C395.765 298.887 395.89 301.482 395.953 304.092L394.953 304.116C394.984 305.407 395 306.702 395 308C395 309.298 394.984 310.593 394.953 311.884L395.953 311.908C395.89 314.518 395.765 317.113 395.578 319.691L394.581 319.618C394.393 322.205 394.144 324.775 393.834 327.325L394.826 327.446C394.512 330.035 394.135 332.606 393.698 335.155L392.712 334.986C392.274 337.54 391.775 340.073 391.216 342.583L392.192 342.8C391.626 345.345 390.999 347.866 390.312 350.362L389.348 350.097C388.662 352.594 387.916 355.065 387.113 357.51L388.063 357.823C387.25 360.297 386.378 362.744 385.448 365.163L384.515 364.805C383.587 367.22 382.602 369.606 381.561 371.962L382.475 372.366C381.423 374.747 380.315 377.097 379.152 379.414L378.258 378.966C377.098 381.276 375.883 383.555 374.615 385.799L375.486 386.291C374.206 388.555 372.873 390.785 371.487 392.979L370.642 392.445C369.262 394.63 367.83 396.778 366.348 398.889L367.166 399.464C365.672 401.591 364.127 403.681 362.534 405.73L361.744 405.116C360.159 407.154 358.524 409.153 356.842 411.11L357.601 411.762C355.907 413.733 354.166 415.662 352.379 417.546L351.654 416.859C349.878 418.732 348.056 420.562 346.191 422.347L346.882 423.07C345.006 424.865 343.085 426.615 341.122 428.318L340.467 427.562C338.518 429.253 336.526 430.897 334.495 432.492L335.113 433.279C333.071 434.882 330.989 436.436 328.868 437.94L328.29 437.124C326.185 438.615 324.043 440.057 321.865 441.446L322.402 442.289C320.214 443.684 317.99 445.027 315.731 446.315L315.235 445.447C312.996 446.724 310.723 447.947 308.417 449.116L308.869 450.008C306.555 451.18 304.21 452.297 301.833 453.357L301.426 452.444C299.073 453.493 296.69 454.487 294.278 455.422L294.64 456.354C292.224 457.291 289.779 458.171 287.307 458.991L286.992 458.042C284.549 458.852 282.08 459.604 279.586 460.297L279.853 461.26C277.358 461.953 274.838 462.585 272.295 463.157L272.076 462.181C269.567 462.745 267.035 463.248 264.482 463.691L264.653 464.676C262.104 465.117 259.534 465.498 256.945 465.815L256.823 464.823C254.273 465.136 251.704 465.388 249.117 465.577L249.19 466.574C246.613 466.763 244.018 466.889 241.408 466.953L241.384 465.953C240.093 465.984 238.798 466 237.5 466C236.202 466 234.907 465.984 233.616 465.953L233.592 466.953C230.982 466.889 228.387 466.763 225.81 466.574L225.883 465.577C223.296 465.388 220.727 465.136 218.177 464.823L218.055 465.815C215.466 465.498 212.896 465.117 210.347 464.676L210.518 463.691C207.965 463.248 205.433 462.745 202.924 462.181L202.705 463.157C200.162 462.585 197.642 461.953 195.147 461.26L195.414 460.297C192.92 459.604 190.451 458.852 188.008 458.042L187.693 458.991C185.221 458.171 182.776 457.291 180.36 456.354L180.722 455.422C178.31 454.487 175.927 453.493 173.574 452.444L173.167 453.357C170.79 452.297 168.445 451.18 166.131 450.008L166.583 449.116C164.277 447.947 162.004 446.724 159.765 445.447L159.269 446.315C157.01 445.027 154.786 443.684 152.598 442.289L153.135 441.446C150.957 440.057 148.815 438.615 146.71 437.124L146.132 437.94C144.011 436.436 141.929 434.882 139.887 433.279L140.505 432.492C138.474 430.897 136.482 429.254 134.533 427.562L133.878 428.318C131.915 426.615 129.994 424.865 128.118 423.07L128.809 422.347C126.944 420.562 125.122 418.732 123.346 416.859L122.621 417.546C120.834 415.662 119.093 413.733 117.399 411.762L118.158 411.11C116.476 409.153 114.841 407.154 113.256 405.116L112.466 405.73C110.873 403.681 109.328 401.591 107.834 399.464L108.652 398.889C107.17 396.778 105.738 394.63 104.358 392.445L103.513 392.979C102.127 390.785 100.794 388.555 99.5141 386.291L100.385 385.799C99.1168 383.555 97.902 381.276 96.7421 378.966L95.8484 379.414C94.6851 377.097 93.5766 374.747 92.5247 372.366L93.4394 371.962C92.3984 369.606 91.4131 367.22 90.4853 364.805L89.5518 365.163C88.6225 362.744 87.7504 360.297 86.9373 357.823L87.8873 357.511C87.0837 355.065 86.338 352.594 85.6518 350.097L84.6876 350.362C84.0013 347.866 83.3743 345.345 82.808 342.8L83.7841 342.583C83.2254 340.073 82.7262 337.54 82.2881 334.986L81.3025 335.155C80.8651 332.606 80.4883 330.035 80.1735 327.446L81.1662 327.325C80.8562 324.775 80.6067 322.205 80.4193 319.618L79.4219 319.691C79.2352 317.113 79.1097 314.518 79.0469 311.908L80.0466 311.884C80.0156 310.593 80 309.298 80 308C80 306.702 80.0156 305.407 80.0466 304.116L79.0469 304.092C79.1097 301.482 79.2352 298.887 79.4219 296.309L80.4193 296.382C80.6067 293.795 80.8562 291.225 81.1662 288.675L80.1735 288.554C80.4883 285.965 80.8651 283.394 81.3025 280.845L82.2881 281.014C82.7262 278.46 83.2254 275.927 83.7841 273.417L82.808 273.2C83.3743 270.655 84.0013 268.134 84.6875 265.638L85.6518 265.903C86.338 263.406 87.0837 260.935 87.8873 258.49L86.9372 258.177C87.7504 255.703 88.6225 253.256 89.5518 250.837L90.4853 251.195C91.4131 248.78 92.3984 246.394 93.4394 244.038L92.5247 243.634C93.5766 241.253 94.685 238.903 95.8483 236.586L96.7421 237.034C97.902 234.724 99.1168 232.445 100.385 230.201L99.5141 229.709C100.794 227.445 102.127 225.215 103.513 223.021L104.358 223.555C105.738 221.37 107.17 219.222 108.652 217.111L107.834 216.536C109.328 214.409 110.873 212.319 112.466 210.27L113.256 210.884C114.841 208.846 116.476 206.847 118.158 204.89L117.399 204.238C119.093 202.267 120.834 200.338 122.621 198.454L123.346 199.141C125.122 197.268 126.944 195.438 128.809 193.653L128.118 192.93C129.994 191.135 131.915 189.385 133.878 187.682L134.533 188.438C136.482 186.747 138.474 185.103 140.505 183.508L139.887 182.721C141.929 181.118 144.011 179.564 146.132 178.06L146.71 178.876C148.815 177.385 150.957 175.943 153.135 174.554L152.598 173.711C154.786 172.316 157.01 170.973 159.269 169.685L159.765 170.553C162.004 169.276 164.277 168.053 166.583 166.884L166.131 165.992C168.445 164.82 170.79 163.703 173.167 162.643L173.574 163.556C175.927 162.507 178.31 161.513 180.722 160.578L180.36 159.646C182.776 158.709 185.221 157.829 187.693 157.009L188.008 157.958C190.451 157.148 192.92 156.396 195.414 155.703L195.147 154.74C197.642 154.047 200.162 153.415 202.705 152.843L202.924 153.819C205.433 153.255 207.965 152.752 210.518 152.309L210.347 151.324C212.896 150.883 215.466 150.502 218.055 150.185L218.177 151.177C220.727 150.864 223.296 150.612 225.883 150.423L225.81 149.426C228.387 149.237 230.982 149.111 233.592 149.047L233.616 150.047C234.907 150.016 236.202 150 237.5 150C238.798 150 240.093 150.016 241.384 150.047L241.408 149.047C244.018 149.111 246.613 149.237 249.19 149.426L249.117 150.423C251.704 150.612 254.273 150.864 256.823 151.177L256.945 150.185C259.534 150.502 262.104 150.883 264.653 151.324L264.482 152.309C267.035 152.752 269.567 153.255 272.076 153.819L272.295 152.843C274.838 153.415 277.358 154.047 279.853 154.74L279.586 155.703C282.08 156.396 284.549 157.148 286.992 157.958L287.307 157.009C289.779 157.829 292.224 158.709 294.64 159.646L294.278 160.578C296.69 161.513 299.073 162.507 301.426 163.556L301.833 162.643C304.21 163.703 306.555 164.82 308.869 165.992L308.417 166.884C310.723 168.053 312.996 169.276 315.235 170.553L315.731 169.685C317.99 170.973 320.214 172.316 322.402 173.711L321.865 174.554C324.043 175.943 326.185 177.385 328.29 178.876L328.868 178.06C330.989 179.564 333.071 181.118 335.113 182.721L334.495 183.508C336.526 185.103 338.518 186.746 340.467 188.437L341.122 187.682C343.085 189.385 345.006 191.135 346.882 192.93L346.191 193.653C348.056 195.438 349.878 197.268 351.654 199.141L352.379 198.454C354.166 200.338 355.907 202.267 357.601 204.238L356.842 204.89C358.524 206.847 360.159 208.846 361.744 210.884L362.534 210.27C364.127 212.319 365.672 214.409 367.166 216.536L366.348 217.111C367.83 219.222 369.262 221.37 370.642 223.555L371.487 223.021C372.873 225.215 374.206 227.445 375.486 229.709L374.615 230.201C375.883 232.445 377.098 234.724 378.258 237.034L379.152 236.586C380.315 238.903 381.423 241.253 382.475 243.634L381.561 244.038C382.602 246.394 383.587 248.78 384.515 251.195L385.448 250.837C386.378 253.256 387.25 255.703 388.063 258.177L387.113 258.489C387.916 260.935 388.662 263.406 389.348 265.903L390.312 265.638C390.999 268.134 391.626 270.655 392.192 273.2L391.216 273.417C391.775 275.927 392.274 278.46 392.712 281.014L393.698 280.845C394.135 283.394 394.512 285.965 394.826 288.554L393.834 288.675C394.144 291.225 394.393 293.795 394.581 296.382L395.578 296.309Z" stroke="#7BB7EF" stroke-width="2" stroke-dasharray="8 8"/>
<circle cx="317" cy="159" r="158" stroke="#BD6B3D" stroke-width="2" stroke-dasharray="8 8"/>
<circle cx="159" cy="159" r="158" stroke="#569F6B" stroke-width="2" stroke-dasharray="8 8"/>
<path opacity="0.2" d="M306 176.697C285.423 165.191 260.061 158 238.048 158C217.6 158 190.003 162.89 170.096 176.697C168.66 195.873 183.016 255.318 238.048 286C292.41 253.401 306 199.548 306 176.697Z" fill="#7BB7EF"/>
<path d="M50.1963 140H44.4404V130.006H50.1963V131.742H46.5596V133.937H49.9434V135.673H46.5596V138.25H50.1963V140ZM59.1787 140H57.0938V135.536C57.0938 134.985 56.9958 134.572 56.7998 134.299C56.6038 134.021 56.2917 133.882 55.8633 133.882C55.2799 133.882 54.8584 134.078 54.5986 134.47C54.3389 134.857 54.209 135.502 54.209 136.404V140H52.124V132.357H53.7168L53.9971 133.335H54.1133C54.3457 132.966 54.6647 132.688 55.0703 132.501C55.4805 132.31 55.9453 132.214 56.4648 132.214C57.3535 132.214 58.028 132.455 58.4883 132.938C58.9486 133.417 59.1787 134.11 59.1787 135.017V140ZM63.1436 140L60.2314 132.357H62.4121L63.8887 136.712C64.0527 137.263 64.1553 137.785 64.1963 138.277H64.2373C64.2601 137.84 64.3626 137.318 64.5449 136.712L66.0146 132.357H68.1953L65.2832 140H63.1436ZM69.207 130.382C69.207 129.703 69.5853 129.363 70.3418 129.363C71.0983 129.363 71.4766 129.703 71.4766 130.382C71.4766 130.705 71.3809 130.958 71.1895 131.141C71.0026 131.318 70.7201 131.407 70.3418 131.407C69.5853 131.407 69.207 131.065 69.207 130.382ZM71.3809 140H69.2959V132.357H71.3809V140ZM77.8408 132.214C78.1234 132.214 78.3581 132.234 78.5449 132.275L78.3877 134.23C78.2191 134.185 78.014 134.162 77.7725 134.162C77.1071 134.162 76.5876 134.333 76.2139 134.675C75.8447 135.017 75.6602 135.495 75.6602 136.11V140H73.5752V132.357H75.1543L75.4619 133.643H75.5645C75.8014 133.214 76.1204 132.87 76.5215 132.61C76.9271 132.346 77.3669 132.214 77.8408 132.214ZM81.5938 136.165C81.5938 136.922 81.7168 137.493 81.9629 137.881C82.2135 138.268 82.6191 138.462 83.1797 138.462C83.7357 138.462 84.1344 138.271 84.376 137.888C84.6221 137.5 84.7451 136.926 84.7451 136.165C84.7451 135.409 84.6221 134.841 84.376 134.463C84.1299 134.085 83.7266 133.896 83.166 133.896C82.61 133.896 82.209 134.085 81.9629 134.463C81.7168 134.837 81.5938 135.404 81.5938 136.165ZM86.8779 136.165C86.8779 137.409 86.5498 138.382 85.8936 139.084C85.2373 139.786 84.3236 140.137 83.1523 140.137C82.4186 140.137 81.7715 139.977 81.2109 139.658C80.6504 139.335 80.2197 138.872 79.9189 138.271C79.6182 137.669 79.4678 136.967 79.4678 136.165C79.4678 134.916 79.7936 133.946 80.4453 133.253C81.097 132.56 82.013 132.214 83.1934 132.214C83.9271 132.214 84.5742 132.373 85.1348 132.692C85.6953 133.011 86.126 133.469 86.4268 134.066C86.7275 134.663 86.8779 135.363 86.8779 136.165ZM95.4434 140H93.3584V135.536C93.3584 134.985 93.265 134.572 93.0781 134.299C92.8958 134.021 92.6064 133.882 92.21 133.882C91.6768 133.882 91.2894 134.078 91.0479 134.47C90.8063 134.862 90.6855 135.507 90.6855 136.404V140H88.6006V132.357H90.1934L90.4736 133.335H90.5898C90.7949 132.984 91.0911 132.711 91.4785 132.515C91.8659 132.314 92.3102 132.214 92.8115 132.214C93.9554 132.214 94.7301 132.588 95.1357 133.335H95.3203C95.5254 132.979 95.8262 132.704 96.2227 132.508C96.6237 132.312 97.0749 132.214 97.5762 132.214C98.4421 132.214 99.096 132.437 99.5381 132.884C99.9847 133.326 100.208 134.037 100.208 135.017V140H98.1162V135.536C98.1162 134.985 98.0228 134.572 97.8359 134.299C97.6536 134.021 97.3643 133.882 96.9678 133.882C96.4574 133.882 96.0745 134.064 95.8193 134.429C95.5687 134.793 95.4434 135.372 95.4434 136.165V140ZM105.52 133.697C105.077 133.697 104.731 133.839 104.48 134.121C104.23 134.399 104.086 134.796 104.05 135.311H106.976C106.966 134.796 106.832 134.399 106.572 134.121C106.312 133.839 105.962 133.697 105.52 133.697ZM105.813 140.137C104.583 140.137 103.621 139.797 102.929 139.118C102.236 138.439 101.89 137.478 101.89 136.233C101.89 134.953 102.209 133.964 102.847 133.267C103.489 132.565 104.376 132.214 105.506 132.214C106.586 132.214 107.427 132.521 108.028 133.137C108.63 133.752 108.931 134.602 108.931 135.687V136.698H104.002C104.025 137.291 104.2 137.753 104.528 138.086C104.856 138.419 105.317 138.585 105.909 138.585C106.369 138.585 106.805 138.537 107.215 138.441C107.625 138.346 108.053 138.193 108.5 137.983V139.597C108.135 139.779 107.746 139.913 107.331 140C106.916 140.091 106.41 140.137 105.813 140.137ZM117.681 140H115.596V135.536C115.596 134.985 115.498 134.572 115.302 134.299C115.106 134.021 114.794 133.882 114.365 133.882C113.782 133.882 113.36 134.078 113.101 134.47C112.841 134.857 112.711 135.502 112.711 136.404V140H110.626V132.357H112.219L112.499 133.335H112.615C112.848 132.966 113.167 132.688 113.572 132.501C113.982 132.31 114.447 132.214 114.967 132.214C115.855 132.214 116.53 132.455 116.99 132.938C117.451 133.417 117.681 134.11 117.681 135.017V140ZM123.047 138.476C123.411 138.476 123.849 138.396 124.359 138.236V139.788C123.84 140.021 123.202 140.137 122.445 140.137C121.611 140.137 121.003 139.927 120.62 139.508C120.242 139.084 120.053 138.451 120.053 137.607V133.923H119.055V133.041L120.203 132.344L120.805 130.73H122.138V132.357H124.277V133.923H122.138V137.607C122.138 137.904 122.22 138.122 122.384 138.264C122.552 138.405 122.773 138.476 123.047 138.476Z" fill="white"/>
<path d="M354.856 140H349.101V130.006H354.856V131.742H351.22V133.937H354.604V135.673H351.22V138.25H354.856V140ZM359.888 140.137C357.509 140.137 356.319 138.831 356.319 136.22C356.319 134.921 356.643 133.93 357.29 133.246C357.937 132.558 358.865 132.214 360.072 132.214C360.956 132.214 361.749 132.387 362.451 132.733L361.836 134.347C361.508 134.215 361.202 134.107 360.92 134.025C360.637 133.939 360.355 133.896 360.072 133.896C358.988 133.896 358.445 134.666 358.445 136.206C358.445 137.701 358.988 138.448 360.072 138.448C360.473 138.448 360.845 138.396 361.187 138.291C361.528 138.182 361.87 138.013 362.212 137.785V139.569C361.875 139.784 361.533 139.932 361.187 140.014C360.845 140.096 360.412 140.137 359.888 140.137ZM365.65 136.165C365.65 136.922 365.773 137.493 366.02 137.881C366.27 138.268 366.676 138.462 367.236 138.462C367.792 138.462 368.191 138.271 368.433 137.888C368.679 137.5 368.802 136.926 368.802 136.165C368.802 135.409 368.679 134.841 368.433 134.463C368.187 134.085 367.783 133.896 367.223 133.896C366.667 133.896 366.266 134.085 366.02 134.463C365.773 134.837 365.65 135.404 365.65 136.165ZM370.935 136.165C370.935 137.409 370.606 138.382 369.95 139.084C369.294 139.786 368.38 140.137 367.209 140.137C366.475 140.137 365.828 139.977 365.268 139.658C364.707 139.335 364.276 138.872 363.976 138.271C363.675 137.669 363.524 136.967 363.524 136.165C363.524 134.916 363.85 133.946 364.502 133.253C365.154 132.56 366.07 132.214 367.25 132.214C367.984 132.214 368.631 132.373 369.191 132.692C369.752 133.011 370.183 133.469 370.483 134.066C370.784 134.663 370.935 135.363 370.935 136.165ZM379.712 140H377.627V135.536C377.627 134.985 377.529 134.572 377.333 134.299C377.137 134.021 376.825 133.882 376.396 133.882C375.813 133.882 375.392 134.078 375.132 134.47C374.872 134.857 374.742 135.502 374.742 136.404V140H372.657V132.357H374.25L374.53 133.335H374.646C374.879 132.966 375.198 132.688 375.604 132.501C376.014 132.31 376.479 132.214 376.998 132.214C377.887 132.214 378.561 132.455 379.021 132.938C379.482 133.417 379.712 134.11 379.712 135.017V140ZM383.52 136.165C383.52 136.922 383.643 137.493 383.889 137.881C384.139 138.268 384.545 138.462 385.105 138.462C385.661 138.462 386.06 138.271 386.302 137.888C386.548 137.5 386.671 136.926 386.671 136.165C386.671 135.409 386.548 134.841 386.302 134.463C386.056 134.085 385.652 133.896 385.092 133.896C384.536 133.896 384.135 134.085 383.889 134.463C383.643 134.837 383.52 135.404 383.52 136.165ZM388.804 136.165C388.804 137.409 388.476 138.382 387.819 139.084C387.163 139.786 386.249 140.137 385.078 140.137C384.344 140.137 383.697 139.977 383.137 139.658C382.576 139.335 382.146 138.872 381.845 138.271C381.544 137.669 381.394 136.967 381.394 136.165C381.394 134.916 381.719 133.946 382.371 133.253C383.023 132.56 383.939 132.214 385.119 132.214C385.853 132.214 386.5 132.373 387.061 132.692C387.621 133.011 388.052 133.469 388.353 134.066C388.653 134.663 388.804 135.363 388.804 136.165ZM397.369 140H395.284V135.536C395.284 134.985 395.191 134.572 395.004 134.299C394.822 134.021 394.532 133.882 394.136 133.882C393.603 133.882 393.215 134.078 392.974 134.47C392.732 134.862 392.611 135.507 392.611 136.404V140H390.526V132.357H392.119L392.399 133.335H392.516C392.721 132.984 393.017 132.711 393.404 132.515C393.792 132.314 394.236 132.214 394.737 132.214C395.881 132.214 396.656 132.588 397.062 133.335H397.246C397.451 132.979 397.752 132.704 398.148 132.508C398.549 132.312 399.001 132.214 399.502 132.214C400.368 132.214 401.022 132.437 401.464 132.884C401.91 133.326 402.134 134.037 402.134 135.017V140H400.042V135.536C400.042 134.985 399.949 134.572 399.762 134.299C399.579 134.021 399.29 133.882 398.894 133.882C398.383 133.882 398 134.064 397.745 134.429C397.494 134.793 397.369 135.372 397.369 136.165V140ZM403.187 132.357H405.47L406.912 136.657C407.035 137.031 407.119 137.473 407.165 137.983H407.206C407.256 137.514 407.354 137.072 407.5 136.657L408.915 132.357H411.15L407.917 140.978C407.621 141.775 407.197 142.372 406.646 142.769C406.099 143.165 405.458 143.363 404.725 143.363C404.365 143.363 404.011 143.325 403.665 143.247V141.593C403.916 141.652 404.189 141.682 404.485 141.682C404.854 141.682 405.176 141.568 405.449 141.34C405.727 141.117 405.944 140.777 406.099 140.321L406.222 139.945L403.187 132.357Z" fill="white"/>
<path d="M196.601 195.225C196.601 196.127 196.275 196.838 195.623 197.357C194.976 197.877 194.074 198.137 192.916 198.137C191.85 198.137 190.906 197.936 190.086 197.535V195.566C190.76 195.867 191.33 196.079 191.795 196.202C192.264 196.325 192.693 196.387 193.08 196.387C193.545 196.387 193.9 196.298 194.146 196.12C194.397 195.942 194.522 195.678 194.522 195.327C194.522 195.131 194.468 194.958 194.358 194.808C194.249 194.653 194.087 194.505 193.873 194.363C193.663 194.222 193.233 193.996 192.581 193.687C191.97 193.399 191.512 193.124 191.207 192.859C190.902 192.595 190.658 192.287 190.476 191.937C190.293 191.586 190.202 191.175 190.202 190.706C190.202 189.822 190.501 189.127 191.098 188.621C191.699 188.115 192.529 187.862 193.586 187.862C194.105 187.862 194.6 187.924 195.069 188.047C195.543 188.17 196.038 188.343 196.553 188.566L195.869 190.214C195.336 189.995 194.894 189.842 194.543 189.756C194.197 189.669 193.855 189.626 193.518 189.626C193.117 189.626 192.809 189.719 192.595 189.906C192.381 190.093 192.273 190.337 192.273 190.638C192.273 190.825 192.317 190.989 192.403 191.13C192.49 191.267 192.627 191.401 192.813 191.533C193.005 191.661 193.454 191.893 194.16 192.23C195.094 192.677 195.735 193.126 196.081 193.577C196.427 194.024 196.601 194.573 196.601 195.225ZM203.662 198L203.382 197.022H203.272C203.049 197.378 202.732 197.654 202.322 197.85C201.912 198.041 201.445 198.137 200.921 198.137C200.023 198.137 199.346 197.897 198.891 197.419C198.435 196.936 198.207 196.243 198.207 195.341V190.357H200.292V194.821C200.292 195.373 200.39 195.787 200.586 196.065C200.782 196.339 201.094 196.476 201.522 196.476C202.106 196.476 202.527 196.282 202.787 195.895C203.047 195.503 203.177 194.855 203.177 193.953V190.357H205.262V198H203.662ZM212.781 195.73C212.781 196.514 212.508 197.111 211.961 197.521C211.419 197.932 210.605 198.137 209.521 198.137C208.965 198.137 208.491 198.098 208.099 198.021C207.707 197.948 207.34 197.838 206.998 197.692V195.97C207.385 196.152 207.821 196.305 208.304 196.428C208.791 196.551 209.22 196.612 209.589 196.612C210.345 196.612 210.724 196.394 210.724 195.956C210.724 195.792 210.674 195.66 210.573 195.56C210.473 195.455 210.3 195.339 210.054 195.211C209.808 195.079 209.479 194.926 209.069 194.753C208.481 194.507 208.049 194.279 207.771 194.069C207.497 193.86 207.297 193.62 207.169 193.352C207.046 193.078 206.984 192.743 206.984 192.347C206.984 191.668 207.246 191.144 207.771 190.774C208.299 190.401 209.047 190.214 210.013 190.214C210.933 190.214 211.829 190.414 212.699 190.815L212.07 192.319C211.688 192.155 211.33 192.021 210.997 191.916C210.664 191.811 210.325 191.759 209.979 191.759C209.363 191.759 209.056 191.925 209.056 192.258C209.056 192.445 209.154 192.606 209.35 192.743C209.55 192.88 209.985 193.083 210.655 193.352C211.252 193.593 211.69 193.819 211.968 194.028C212.246 194.238 212.451 194.479 212.583 194.753C212.715 195.026 212.781 195.352 212.781 195.73ZM217.628 196.476C217.993 196.476 218.43 196.396 218.94 196.236V197.788C218.421 198.021 217.783 198.137 217.026 198.137C216.192 198.137 215.584 197.927 215.201 197.508C214.823 197.084 214.634 196.451 214.634 195.607V191.923H213.636V191.041L214.784 190.344L215.386 188.73H216.719V190.357H218.858V191.923H216.719V195.607C216.719 195.904 216.801 196.122 216.965 196.264C217.133 196.405 217.354 196.476 217.628 196.476ZM225.346 198L224.942 196.961H224.888C224.537 197.403 224.174 197.711 223.801 197.884C223.432 198.052 222.949 198.137 222.352 198.137C221.618 198.137 221.039 197.927 220.615 197.508C220.196 197.089 219.986 196.492 219.986 195.717C219.986 194.906 220.269 194.309 220.834 193.926C221.404 193.538 222.26 193.324 223.404 193.283L224.73 193.242V192.907C224.73 192.132 224.334 191.745 223.541 191.745C222.93 191.745 222.213 191.93 221.388 192.299L220.697 190.891C221.577 190.43 222.552 190.2 223.623 190.2C224.648 190.2 225.435 190.424 225.981 190.87C226.528 191.317 226.802 191.996 226.802 192.907V198H225.346ZM224.73 194.459L223.924 194.486C223.318 194.505 222.867 194.614 222.57 194.814C222.274 195.015 222.126 195.32 222.126 195.73C222.126 196.318 222.463 196.612 223.138 196.612C223.621 196.612 224.006 196.473 224.293 196.195C224.585 195.917 224.73 195.548 224.73 195.088V194.459ZM228.866 188.382C228.866 187.703 229.244 187.363 230.001 187.363C230.757 187.363 231.136 187.703 231.136 188.382C231.136 188.705 231.04 188.958 230.849 189.141C230.662 189.318 230.379 189.407 230.001 189.407C229.244 189.407 228.866 189.065 228.866 188.382ZM231.04 198H228.955V190.357H231.04V198ZM240.289 198H238.204V193.536C238.204 192.985 238.106 192.572 237.91 192.299C237.714 192.021 237.402 191.882 236.974 191.882C236.39 191.882 235.969 192.078 235.709 192.47C235.449 192.857 235.319 193.502 235.319 194.404V198H233.234V190.357H234.827L235.107 191.335H235.224C235.456 190.966 235.775 190.688 236.181 190.501C236.591 190.31 237.056 190.214 237.575 190.214C238.464 190.214 239.138 190.455 239.599 190.938C240.059 191.417 240.289 192.11 240.289 193.017V198ZM247.289 198L246.886 196.961H246.831C246.48 197.403 246.118 197.711 245.744 197.884C245.375 198.052 244.892 198.137 244.295 198.137C243.561 198.137 242.982 197.927 242.559 197.508C242.139 197.089 241.93 196.492 241.93 195.717C241.93 194.906 242.212 194.309 242.777 193.926C243.347 193.538 244.204 193.324 245.348 193.283L246.674 193.242V192.907C246.674 192.132 246.277 191.745 245.484 191.745C244.874 191.745 244.156 191.93 243.331 192.299L242.641 190.891C243.52 190.43 244.495 190.2 245.566 190.2C246.592 190.2 247.378 190.424 247.925 190.87C248.472 191.317 248.745 191.996 248.745 192.907V198H247.289ZM246.674 194.459L245.867 194.486C245.261 194.505 244.81 194.614 244.514 194.814C244.217 195.015 244.069 195.32 244.069 195.73C244.069 196.318 244.407 196.612 245.081 196.612C245.564 196.612 245.949 196.473 246.236 196.195C246.528 195.917 246.674 195.548 246.674 195.088V194.459ZM255.15 190.214C256.053 190.214 256.759 190.567 257.27 191.273C257.78 191.975 258.035 192.939 258.035 194.165C258.035 195.427 257.771 196.405 257.242 197.098C256.718 197.79 256.003 198.137 255.096 198.137C254.198 198.137 253.494 197.811 252.983 197.159H252.84L252.491 198H250.898V187.363H252.983V189.838C252.983 190.152 252.956 190.656 252.901 191.349H252.983C253.471 190.592 254.193 190.214 255.15 190.214ZM254.48 191.882C253.965 191.882 253.59 192.041 253.353 192.36C253.116 192.675 252.993 193.197 252.983 193.926V194.151C252.983 194.972 253.104 195.56 253.346 195.915C253.592 196.271 253.979 196.448 254.508 196.448C254.936 196.448 255.276 196.252 255.526 195.86C255.782 195.464 255.909 194.89 255.909 194.138C255.909 193.386 255.782 192.823 255.526 192.449C255.271 192.071 254.923 191.882 254.48 191.882ZM259.669 188.382C259.669 187.703 260.047 187.363 260.804 187.363C261.56 187.363 261.938 187.703 261.938 188.382C261.938 188.705 261.843 188.958 261.651 189.141C261.465 189.318 261.182 189.407 260.804 189.407C260.047 189.407 259.669 189.065 259.669 188.382ZM261.843 198H259.758V190.357H261.843V198ZM266.122 198H264.037V187.363H266.122V198ZM268.228 188.382C268.228 187.703 268.606 187.363 269.362 187.363C270.119 187.363 270.497 187.703 270.497 188.382C270.497 188.705 270.401 188.958 270.21 189.141C270.023 189.318 269.741 189.407 269.362 189.407C268.606 189.407 268.228 189.065 268.228 188.382ZM270.401 198H268.316V190.357H270.401V198ZM275.815 196.476C276.18 196.476 276.618 196.396 277.128 196.236V197.788C276.608 198.021 275.97 198.137 275.214 198.137C274.38 198.137 273.771 197.927 273.389 197.508C273.01 197.084 272.821 196.451 272.821 195.607V191.923H271.823V191.041L272.972 190.344L273.573 188.73H274.906V190.357H277.046V191.923H274.906V195.607C274.906 195.904 274.988 196.122 275.152 196.264C275.321 196.405 275.542 196.476 275.815 196.476ZM277.586 190.357H279.869L281.312 194.657C281.435 195.031 281.519 195.473 281.564 195.983H281.605C281.656 195.514 281.754 195.072 281.899 194.657L283.314 190.357H285.55L282.316 198.978C282.02 199.775 281.596 200.372 281.045 200.769C280.498 201.165 279.858 201.363 279.124 201.363C278.764 201.363 278.411 201.325 278.064 201.247V199.593C278.315 199.652 278.589 199.682 278.885 199.682C279.254 199.682 279.575 199.568 279.849 199.34C280.127 199.117 280.343 198.777 280.498 198.321L280.621 197.945L277.586 190.357Z" fill="white"/>
<path d="M221.562 412.225C221.562 413.127 221.237 413.838 220.585 414.357C219.938 414.877 219.035 415.137 217.878 415.137C216.812 415.137 215.868 414.936 215.048 414.535V412.566C215.722 412.867 216.292 413.079 216.757 413.202C217.226 413.325 217.655 413.387 218.042 413.387C218.507 413.387 218.862 413.298 219.108 413.12C219.359 412.942 219.484 412.678 219.484 412.327C219.484 412.131 219.43 411.958 219.32 411.808C219.211 411.653 219.049 411.505 218.835 411.363C218.625 411.222 218.195 410.996 217.543 410.687C216.932 410.399 216.474 410.124 216.169 409.859C215.864 409.595 215.62 409.287 215.438 408.937C215.255 408.586 215.164 408.175 215.164 407.706C215.164 406.822 215.463 406.127 216.06 405.621C216.661 405.115 217.491 404.862 218.548 404.862C219.067 404.862 219.562 404.924 220.031 405.047C220.505 405.17 221 405.343 221.515 405.566L220.831 407.214C220.298 406.995 219.856 406.842 219.505 406.756C219.159 406.669 218.817 406.626 218.479 406.626C218.078 406.626 217.771 406.719 217.557 406.906C217.342 407.093 217.235 407.337 217.235 407.638C217.235 407.825 217.279 407.989 217.365 408.13C217.452 408.267 217.589 408.401 217.775 408.533C217.967 408.661 218.416 408.893 219.122 409.23C220.056 409.677 220.697 410.126 221.043 410.577C221.389 411.024 221.562 411.573 221.562 412.225ZM224.871 411.165C224.871 411.922 224.994 412.493 225.24 412.881C225.491 413.268 225.896 413.462 226.457 413.462C227.013 413.462 227.412 413.271 227.653 412.888C227.899 412.5 228.022 411.926 228.022 411.165C228.022 410.409 227.899 409.841 227.653 409.463C227.407 409.085 227.004 408.896 226.443 408.896C225.887 408.896 225.486 409.085 225.24 409.463C224.994 409.837 224.871 410.404 224.871 411.165ZM230.155 411.165C230.155 412.409 229.827 413.382 229.171 414.084C228.515 414.786 227.601 415.137 226.43 415.137C225.696 415.137 225.049 414.977 224.488 414.658C223.928 414.335 223.497 413.872 223.196 413.271C222.896 412.669 222.745 411.967 222.745 411.165C222.745 409.916 223.071 408.946 223.723 408.253C224.374 407.56 225.29 407.214 226.471 407.214C227.204 407.214 227.852 407.373 228.412 407.692C228.973 408.011 229.403 408.469 229.704 409.066C230.005 409.663 230.155 410.363 230.155 411.165ZM234.981 415.137C232.603 415.137 231.413 413.831 231.413 411.22C231.413 409.921 231.737 408.93 232.384 408.246C233.031 407.558 233.958 407.214 235.166 407.214C236.05 407.214 236.843 407.387 237.545 407.733L236.93 409.347C236.602 409.215 236.296 409.107 236.014 409.025C235.731 408.939 235.449 408.896 235.166 408.896C234.081 408.896 233.539 409.666 233.539 411.206C233.539 412.701 234.081 413.448 235.166 413.448C235.567 413.448 235.938 413.396 236.28 413.291C236.622 413.182 236.964 413.013 237.306 412.785V414.569C236.968 414.784 236.627 414.932 236.28 415.014C235.938 415.096 235.506 415.137 234.981 415.137ZM238.994 405.382C238.994 404.703 239.372 404.363 240.129 404.363C240.885 404.363 241.264 404.703 241.264 405.382C241.264 405.705 241.168 405.958 240.977 406.141C240.79 406.318 240.507 406.407 240.129 406.407C239.372 406.407 238.994 406.065 238.994 405.382ZM241.168 415H239.083V407.357H241.168V415ZM246.527 408.697C246.085 408.697 245.739 408.839 245.488 409.121C245.238 409.399 245.094 409.796 245.058 410.311H247.983C247.974 409.796 247.84 409.399 247.58 409.121C247.32 408.839 246.969 408.697 246.527 408.697ZM246.821 415.137C245.591 415.137 244.629 414.797 243.937 414.118C243.244 413.439 242.897 412.478 242.897 411.233C242.897 409.953 243.216 408.964 243.854 408.267C244.497 407.565 245.383 407.214 246.514 407.214C247.594 407.214 248.435 407.521 249.036 408.137C249.638 408.752 249.938 409.602 249.938 410.687V411.698H245.01C245.033 412.291 245.208 412.753 245.536 413.086C245.864 413.419 246.325 413.585 246.917 413.585C247.377 413.585 247.812 413.537 248.223 413.441C248.633 413.346 249.061 413.193 249.508 412.983V414.597C249.143 414.779 248.754 414.913 248.339 415C247.924 415.091 247.418 415.137 246.821 415.137ZM254.854 413.476C255.218 413.476 255.656 413.396 256.166 413.236V414.788C255.646 415.021 255.008 415.137 254.252 415.137C253.418 415.137 252.81 414.927 252.427 414.508C252.049 414.084 251.859 413.451 251.859 412.607V408.923H250.861V408.041L252.01 407.344L252.611 405.73H253.944V407.357H256.084V408.923H253.944V412.607C253.944 412.904 254.026 413.122 254.19 413.264C254.359 413.405 254.58 413.476 254.854 413.476ZM256.624 407.357H258.907L260.35 411.657C260.473 412.031 260.557 412.473 260.603 412.983H260.644C260.694 412.514 260.792 412.072 260.938 411.657L262.353 407.357H264.588L261.354 415.978C261.058 416.775 260.634 417.372 260.083 417.769C259.536 418.165 258.896 418.363 258.162 418.363C257.802 418.363 257.449 418.325 257.103 418.247V416.593C257.353 416.652 257.627 416.682 257.923 416.682C258.292 416.682 258.613 416.568 258.887 416.34C259.165 416.117 259.381 415.777 259.536 415.321L259.659 414.945L256.624 407.357Z" fill="white"/>
<path d="M243.209 364.894C243.209 367.729 240.911 372.025 238.076 372.025C235.241 372.025 232.943 367.729 232.943 364.894C232.943 362.06 235.241 359.762 238.076 359.762C240.911 359.762 243.209 362.06 243.209 364.894Z" fill="#7BB7EF"/>
<path d="M247.993 379.224V386.073H228.158V379.224C228.158 376.303 230.525 373.936 233.447 373.936H235.162L238.031 379.414C238.046 379.451 238.098 379.451 238.113 379.414L240.982 373.936H242.697C245.619 373.936 247.993 376.303 247.993 379.224Z" fill="#7BB7EF"/>
<path d="M231.386 372.55C228.544 373.433 226.465 376.088 226.465 379.228V380.238H211.625V373.39C211.625 370.463 213.992 368.096 216.911 368.096H218.633L221.501 373.577C221.518 373.611 221.569 373.611 221.578 373.577L224.454 368.096H226.168C228.798 368.096 230.996 370.022 231.386 372.55Z" fill="#7BB7EF"/>
<path d="M264.375 373.39V380.238H249.688V379.228C249.688 376.038 247.542 373.348 244.614 372.516C245.022 370.005 247.202 368.096 249.832 368.096H251.546L254.414 373.577C254.431 373.611 254.482 373.611 254.499 373.577L257.367 368.096H259.081C262 368.096 264.375 370.463 264.375 373.39Z" fill="#7BB7EF"/>
<path d="M259.591 359.055C259.591 361.889 257.294 366.185 254.459 366.185C251.624 366.185 249.326 361.889 249.326 359.055C249.326 356.22 251.624 353.922 254.459 353.922C257.294 353.922 259.591 356.22 259.591 359.055Z" fill="#7BB7EF"/>
<path d="M226.821 359.055C226.821 361.889 224.523 366.185 221.688 366.185C218.854 366.185 216.556 361.889 216.556 359.055C216.556 356.22 218.854 353.922 221.688 353.922C224.523 353.922 226.821 356.22 226.821 359.055Z" fill="#7BB7EF"/>
<g clip-path="url(#clip0)">
<path d="M113.313 90.5622C112.44 79.5338 104.512 70.2776 93.6197 68.0308C93.0902 67.9217 92.5427 68.1069 92.1884 68.5157C84.9117 76.9116 83.9943 89.1311 89.9028 98.5287C92.1375 102.083 95.6504 104.222 99.7505 104.436C100.117 107.787 100.172 111.114 99.9097 114.386C99.8401 115.254 100.525 116 101.401 116C102.172 116 102.827 115.407 102.889 114.625C103.339 109.01 102.848 102.784 101.382 96.7992L96.2994 95.0437C95.5191 94.7742 95.1051 93.9232 95.3746 93.143C95.6441 92.3627 96.4952 91.9488 97.2753 92.2183L100.417 93.3032C99.0328 88.802 97.0905 84.2196 94.6201 79.6339C94.2286 78.9073 94.5003 78.0008 95.227 77.6093C95.9538 77.2178 96.8602 77.4896 97.2516 78.2163C98.296 80.1548 99.2494 82.0943 100.111 84.0293L100.701 82.3597C100.975 81.5814 101.829 81.1733 102.608 81.4484C103.386 81.7234 103.794 82.5772 103.519 83.3555L101.816 88.1746C103.663 93.0636 104.985 98.09 105.611 103.384C110.563 101.258 113.778 96.4424 113.313 90.5622Z" fill="#569F6B"/>
<path d="M117.812 68.5157C117.458 68.107 116.911 67.9216 116.381 68.0308C113.158 68.6956 110.095 70.0116 107.386 71.8803C110.84 75.0747 113.446 79.1288 114.941 83.6475C118.204 93.5073 115.394 100.48 109.786 104.452C114.086 104.383 117.782 102.213 120.098 98.5288C125.952 89.2183 125.156 76.9888 117.812 68.5157Z" fill="#569F6B"/>
</g>
<path d="M390.293 91.7015H394.671C393.577 81.4129 385.477 73.0946 374.97 72V76.597H375.189C383.069 77.6916 389.417 83.8209 390.293 91.7015Z" fill="#BD6B3D"/>
<path d="M370.811 76.5969V72.2188C366.433 72.6566 362.493 74.4079 359.209 77.0347L362.274 80.0994C364.682 78.3482 367.746 77.0347 370.811 76.5969Z" fill="#BD6B3D"/>
<path d="M390.512 96.2986C389.418 104.836 381.975 111.622 373 111.622C363.368 111.622 355.488 103.741 355.488 94.1095C355.488 89.9504 356.801 86.2289 359.209 83.3832L356.144 80.0996C353.08 84.0399 351.109 88.8558 351.109 94.1095C351.109 106.149 360.96 116 373 116C384.383 116 393.796 107.244 394.89 96.2985H390.512V96.2986Z" fill="#BD6B3D"/>
<path d="M366.433 89.7305H362.055V102.865H366.433V89.7305Z" fill="#BD6B3D"/>
<path d="M375.189 94.1094H370.811V102.866H375.189V94.1094Z" fill="#BD6B3D"/>
<path d="M383.946 85.3535H379.567V102.866H383.946V85.3535Z" fill="#BD6B3D"/>
<defs>
<clipPath id="clip0">
<rect x="81" y="68" width="48" height="48" fill="white"/>
</clipPath>
</defs>
</svg>
