<?xml version="1.0" encoding="UTF-8" standalone="no"?>
<!-- Created with Inkscape (http://www.inkscape.org/) -->

<svg
   xmlns:dc="http://purl.org/dc/elements/1.1/"
   xmlns:cc="http://creativecommons.org/ns#"
   xmlns:rdf="http://www.w3.org/1999/02/22-rdf-syntax-ns#"
   xmlns:svg="http://www.w3.org/2000/svg"
   xmlns="http://www.w3.org/2000/svg"
   xmlns:sodipodi="http://sodipodi.sourceforge.net/DTD/sodipodi-0.dtd"
   xmlns:inkscape="http://www.inkscape.org/namespaces/inkscape"
   version="1.1"
   id="svg2"
   xml:space="preserve"
   width="807"
   height="807"
   viewBox="0 0 807.00003 807.00003"
   sodipodi:docname="SEALAB_ISO_9001_BLACK_2017_outlined.svg"
   inkscape:version="0.92.3 (d244b95, 2018-08-02)"><metadata
     id="metadata8"><rdf:RDF><cc:Work
         rdf:about=""><dc:format>image/svg+xml</dc:format><dc:type
           rdf:resource="http://purl.org/dc/dcmitype/StillImage" /><dc:title></dc:title></cc:Work></rdf:RDF></metadata><defs
     id="defs6"><clipPath
       clipPathUnits="userSpaceOnUse"
       id="clipPath18"><path
         d="M 0,1000 H 1000 V 0 H 0 Z"
         id="path16"
         inkscape:connector-curvature="0" /></clipPath></defs><sodipodi:namedview
     pagecolor="#ffffff"
     bordercolor="#666666"
     borderopacity="1"
     objecttolerance="10"
     gridtolerance="10"
     guidetolerance="10"
     inkscape:pageopacity="0"
     inkscape:pageshadow="2"
     inkscape:window-width="1785"
     inkscape:window-height="1105"
     id="namedview4"
     showgrid="false"
     inkscape:zoom="0.68"
     inkscape:cx="666.66663"
     inkscape:cy="666.66663"
     inkscape:window-x="642"
     inkscape:window-y="186"
     inkscape:window-maximized="0"
     inkscape:current-layer="g10" /><g
     id="g10"
     inkscape:groupmode="layer"
     inkscape:label="SEALAB_ISO_9001_BLACK_2017_outlined"
     transform="matrix(1.3333333,0,0,-1.3333333,0,807.00005)"><g
       id="g12"
       transform="translate(-197.275,-197.27496)"><g
         id="g14"
         clip-path="url(#clipPath18)"><g
           id="g20"
           transform="translate(252.6865,618.2339)"><path
             d="m 0,0 c -2.711,1.159 -5.132,1.757 -7.266,1.794 -2.133,0.038 -3.942,-0.301 -5.427,-1.014 -1.485,-0.713 -2.687,-1.602 -3.609,-2.665 -0.921,-1.064 -1.631,-2.181 -2.132,-3.351 -0.515,-1.207 -0.837,-2.523 -0.965,-3.948 -0.128,-1.424 0.073,-2.931 0.603,-4.52 0.531,-1.589 1.527,-3.119 2.989,-4.588 1.463,-1.471 3.463,-2.749 6.001,-3.833 2.476,-1.059 4.75,-1.644 6.822,-1.757 2.071,-0.113 3.898,0.162 5.479,0.827 0.983,0.426 1.868,0.965 2.658,1.618 0.789,0.654 1.473,1.393 2.051,2.217 0.578,0.824 1.054,1.673 1.428,2.548 0.668,1.564 1.005,3.151 1.007,4.76 0.003,1.609 -0.338,3.113 -1.021,4.513 C 7.073,-4.262 4.201,-1.795 0,0 m 15.644,-1.594 0.459,0.307 c 0.85,-1.762 1.457,-3.392 1.823,-4.889 0.366,-1.496 0.256,-2.928 -0.328,-4.296 -0.184,-0.432 -0.406,-0.847 -0.664,-1.246 -0.257,-0.4 -0.639,-0.882 -1.143,-1.446 -0.503,-0.565 -1.151,-1.195 -1.944,-1.89 -1.362,-1.211 -3.287,-2.85 -5.775,-4.92 -0.034,-0.014 -0.177,-0.128 -0.429,-0.341 -0.768,-0.91 -1.343,-1.565 -1.724,-1.963 -0.38,-0.398 -0.954,-0.886 -1.717,-1.462 -0.764,-0.577 -1.668,-1.098 -2.711,-1.562 -1.044,-0.466 -2.195,-0.822 -3.453,-1.072 -0.972,-0.196 -1.993,-0.292 -3.062,-0.287 -1.069,0.005 -2.129,0.116 -3.18,0.332 -1.051,0.217 -2.027,0.517 -2.926,0.901 -2.698,1.153 -4.86,2.872 -6.485,5.155 -1.625,2.282 -2.578,4.791 -2.859,7.527 -0.28,2.735 0.121,5.372 1.206,7.91 0.832,1.947 1.993,3.64 3.483,5.08 1.49,1.44 3.177,2.533 5.062,3.278 1.885,0.747 3.855,1.111 5.909,1.093 2.054,-0.019 4.06,-0.446 6.019,-1.283 1.922,-0.821 3.636,-2.01 5.143,-3.564 1.506,-1.555 2.643,-3.363 3.407,-5.424 0.345,-0.934 0.59,-1.76 0.735,-2.477 0.144,-0.718 0.228,-1.391 0.251,-2.02 0.023,-0.629 0.002,-1.265 -0.061,-1.908 -0.064,-0.643 -0.147,-1.256 -0.251,-1.838 l 0.092,-0.04 c 0.032,0.074 0.268,0.286 0.709,0.637 1.637,1.238 2.718,2.19 3.243,2.854 0.525,0.665 0.975,1.441 1.354,2.328 0.469,1.097 0.677,2.06 0.625,2.892 -0.053,0.831 -0.299,1.945 -0.736,3.341 0.011,0.025 -10e-4,0.076 -0.032,0.156 -0.032,0.079 -0.045,0.125 -0.04,0.137"
             style="fill:#000000;fill-opacity:1;fill-rule:nonzero;stroke:none"
             id="path22"
             inkscape:connector-curvature="0" /></g><g
           id="g24"
           transform="translate(283.4268,642.9785)"><path
             d="m 0,0 -3.14,-5.358 -4.231,2.48 -0.119,-0.046 c 1.288,-1.75 1.899,-3.595 1.833,-5.536 -0.066,-1.941 -0.57,-3.716 -1.512,-5.323 -1.064,-1.815 -2.454,-3.194 -4.17,-4.136 -1.719,-0.942 -3.413,-1.382 -5.083,-1.319 -1.187,0.043 -2.305,0.287 -3.356,0.732 -1.052,0.445 -2.103,0.976 -3.155,1.593 l -12.71,7.449 c -0.762,0.447 -1.494,0.669 -2.193,0.668 -0.7,-0.002 -1.435,-0.554 -2.205,-1.655 l -0.295,0.173 4.706,8.028 0.295,-0.173 c -0.553,-1.261 -0.653,-2.211 -0.299,-2.853 0.354,-0.642 0.866,-1.16 1.536,-1.553 l 12.501,-7.327 c 2.543,-1.49 4.574,-2.33 6.093,-2.522 1.62,-0.204 3.119,0.036 4.498,0.719 1.378,0.683 2.48,1.73 3.307,3.14 0.346,0.589 0.652,1.35 0.918,2.28 0.265,0.932 0.362,1.892 0.291,2.882 -0.205,2.962 -1.903,5.378 -5.093,7.248 l -13.958,8.18 c -0.705,0.413 -1.424,0.617 -2.157,0.612 -0.733,-0.005 -1.504,-0.578 -2.313,-1.719 l -0.294,0.172 4.786,8.167 0.295,-0.172 c -0.633,-1.214 -0.748,-2.164 -0.343,-2.852 0.405,-0.687 0.914,-1.21 1.526,-1.569 l 19.35,-11.341 c 0.67,-0.393 1.265,-0.59 1.784,-0.592 0.52,-0.001 0.977,0.149 1.373,0.454 0.395,0.304 0.814,0.715 1.257,1.232 z"
             style="fill:#000000;fill-opacity:1;fill-rule:nonzero;stroke:none"
             id="path26"
             inkscape:connector-curvature="0" /></g><g
           id="g28"
           transform="translate(278.2603,657.9702)"><path
             d="M 0,0 5.66,7.539 -8.473,12.114 -8.521,12.049 Z M -9.427,15.495 16.179,7.358 c 1.331,-0.414 2.357,-0.631 3.077,-0.652 0.722,-0.023 1.258,0.073 1.61,0.286 0.353,0.214 0.727,0.539 1.125,0.979 L 22.248,7.777 16.443,0.046 16.187,0.239 c 0.595,0.793 0.979,1.46 1.15,2.001 0.172,0.541 -0.074,1.061 -0.738,1.56 -0.366,0.274 -0.929,0.537 -1.693,0.793 -0.117,0.021 -0.198,0.048 -0.24,0.08 L 6.8,7.285 0.647,-0.913 5.054,-7.161 c 0.6,-0.853 1.14,-1.46 1.623,-1.822 0.665,-0.498 1.231,-0.664 1.7,-0.496 0.469,0.167 0.933,0.556 1.391,1.167 l 0.257,-0.193 -4.174,-5.562 -0.258,0.193 c 0.521,0.849 0.695,1.711 0.522,2.586 -0.172,0.875 -0.667,1.896 -1.484,3.062 L -10.73,13.758 Z"
             style="fill:#000000;fill-opacity:1;fill-rule:nonzero;stroke:none"
             id="path30"
             inkscape:connector-curvature="0" /></g><g
           id="g32"
           transform="translate(301.333,666.8999)"><path
             d="M 0,0 0.27,0.298 C 0.756,0.834 0.974,1.5 0.925,2.294 0.875,3.088 0.468,3.832 -0.297,4.524 L -16.866,19.52 c -0.914,0.827 -1.759,1.172 -2.534,1.033 -0.777,-0.138 -1.461,-0.516 -2.056,-1.134 l -0.254,0.229 6.352,7.019 0.253,-0.23 c -0.537,-0.633 -0.849,-1.346 -0.932,-2.137 -0.084,-0.792 0.341,-1.611 1.275,-2.455 L 1.256,7.348 C 2.209,6.485 3.087,6.125 3.885,6.27 4.684,6.414 5.574,7.027 6.554,8.11 l 1.712,1.892 c 0.747,0.825 1.244,1.574 1.49,2.245 0.246,0.671 0.296,1.335 0.15,1.992 -0.147,0.657 -0.459,1.471 -0.934,2.444 l 0.23,0.253 2.851,-4.098 L 0.239,-0.216 Z"
             style="fill:#000000;fill-opacity:1;fill-rule:nonzero;stroke:none"
             id="path34"
             inkscape:connector-curvature="0" /></g><g
           id="g36"
           transform="translate(301.2788,709.2197)"><path
             d="m 0,0 0.239,-0.244 c -0.633,-0.618 -0.996,-1.319 -1.092,-2.105 -0.094,-0.785 0.261,-1.589 1.066,-2.414 L 15.909,-20.84 c 0.796,-0.815 1.609,-1.178 2.439,-1.088 0.829,0.09 1.532,0.415 2.108,0.977 l 0.224,-0.23 -6.716,-6.557 -0.224,0.23 c 0.614,0.599 0.967,1.296 1.062,2.091 0.094,0.794 -0.263,1.608 -1.079,2.443 L -1.973,-6.897 c -0.861,0.881 -1.673,1.268 -2.437,1.159 -0.765,-0.11 -1.453,-0.464 -2.067,-1.063 l -0.238,0.244 z"
             style="fill:#000000;fill-opacity:1;fill-rule:nonzero;stroke:none"
             id="path38"
             inkscape:connector-curvature="0" /></g><g
           id="g40"
           transform="translate(327.6309,724.4229)"><path
             d="M 0,0 -0.246,-0.207 C -1.601,1.176 -2.834,1.77 -3.95,1.578 -5.065,1.384 -6.172,0.826 -7.269,-0.096 l -4.508,-3.788 15.99,-19.034 c 1.352,-1.611 2.872,-1.753 4.557,-0.425 l 0.207,-0.246 -7.218,-6.063 -0.207,0.246 c 0.66,0.59 1.066,1.267 1.219,2.034 0.152,0.766 -0.147,1.596 -0.897,2.488 l -15.991,19.035 -4.508,-3.788 c -1.098,-0.922 -1.836,-1.914 -2.214,-2.974 -0.377,-1.061 -0.007,-2.382 1.111,-3.963 l -0.247,-0.206 -4.652,5.539 0.245,0.207 c 0.38,-0.119 0.684,-0.188 0.91,-0.207 0.226,-0.02 0.473,0.008 0.742,0.085 0.268,0.076 0.548,0.207 0.84,0.39 0.292,0.185 0.617,0.427 0.975,0.729 L -6.234,2.296 c 0.975,0.819 1.42,1.831 1.335,3.037 l 0.246,0.207 z"
             style="fill:#000000;fill-opacity:1;fill-rule:nonzero;stroke:none"
             id="path42"
             inkscape:connector-curvature="0" /></g><g
           id="g44"
           transform="translate(349.4229,746.3359)"><path
             d="M 0,0 0.192,-0.283 C -0.533,-0.789 -1.069,-1.402 -1.417,-2.122 -1.763,-2.841 -1.976,-3.49 -2.054,-4.068 -2.132,-4.647 -2.182,-5.315 -2.203,-6.073 l 0.099,-12.497 6.639,-9.825 c 0.592,-0.876 1.3,-1.356 2.124,-1.438 0.824,-0.083 1.615,0.116 2.373,0.597 l 0.18,-0.267 -7.776,-5.254 -0.18,0.266 c 0.773,0.555 1.246,1.201 1.417,1.94 0.172,0.739 -0.045,1.558 -0.653,2.458 l -6.357,9.408 -12.568,5.139 c -1.348,0.56 -2.4,0.828 -3.152,0.805 -0.752,-0.023 -1.586,-0.327 -2.5,-0.913 l -0.191,0.283 8.709,5.886 0.192,-0.284 c -0.866,-0.633 -1.305,-1.209 -1.32,-1.728 -0.012,-0.519 0.085,-0.933 0.296,-1.244 0.24,-0.355 0.794,-0.708 1.661,-1.06 l 10.232,-4.122 -0.082,9.888 c -0.003,1.487 -0.187,2.502 -0.555,3.046 -0.254,0.377 -0.545,0.61 -0.871,0.697 -0.325,0.087 -0.605,0.1 -0.838,0.039 -0.235,-0.061 -0.472,-0.141 -0.713,-0.239 l -0.191,0.284 z"
             style="fill:#000000;fill-opacity:1;fill-rule:nonzero;stroke:none"
             id="path46"
             inkscape:connector-curvature="0" /></g><g
           id="g48"
           transform="translate(395.0684,768.9468)"><path
             d="m 0,0 0.14,-0.312 c -0.486,-0.292 -0.829,-0.509 -1.03,-0.65 -0.2,-0.142 -0.389,-0.378 -0.565,-0.706 -0.272,-0.505 -0.398,-0.921 -0.374,-1.249 0.022,-0.328 0.178,-0.845 0.468,-1.552 0.012,-0.126 0.062,-0.237 0.148,-0.33 l 9.958,-19.629 c 0.404,-0.832 0.933,-1.468 1.586,-1.909 0.653,-0.44 1.618,-0.381 2.895,0.179 l 0.132,-0.293 -8.742,-3.934 -0.133,0.292 c 1.095,0.639 1.72,1.322 1.879,2.047 0.158,0.725 -0.051,1.648 -0.629,2.769 l -10.272,20.326 -0.073,-0.033 1.531,-28.866 -19.674,19.62 -0.074,-0.033 7.64,-19.57 c 0.424,-1.074 0.856,-1.86 1.293,-2.36 0.439,-0.501 0.909,-0.789 1.413,-0.863 0.504,-0.075 1.169,0 1.993,0.224 l 0.132,-0.293 -6.799,-3.06 -0.133,0.293 c 0.863,0.403 1.43,0.908 1.7,1.515 0.27,0.606 0.34,1.244 0.207,1.912 -0.131,0.668 -0.396,1.543 -0.796,2.627 l -7.826,20.28 c -0.034,0.073 -0.165,0.171 -0.397,0.294 -0.232,0.124 -0.498,0.232 -0.797,0.326 -0.299,0.093 -0.571,0.15 -0.815,0.172 -0.532,0.07 -0.96,0.057 -1.284,-0.037 -0.325,-0.095 -0.77,-0.248 -1.337,-0.459 l -0.14,0.312 6.268,2.821 18.296,-18.323 -1.453,25.903 z"
             style="fill:#000000;fill-opacity:1;fill-rule:nonzero;stroke:none"
             id="path50"
             inkscape:connector-curvature="0" /></g><g
           id="g52"
           transform="translate(412.5605,757.3892)"><path
             d="M 0,0 8.998,2.81 0.206,14.782 0.129,14.758 Z M 1.408,18.083 17.427,-3.485 c 0.838,-1.114 1.544,-1.89 2.116,-2.329 0.573,-0.439 1.064,-0.675 1.474,-0.708 0.411,-0.034 0.905,0.012 1.484,0.137 l 0.096,-0.307 -9.228,-2.882 -0.095,0.307 c 0.945,0.296 1.647,0.613 2.103,0.952 0.454,0.339 0.559,0.904 0.311,1.697 -0.135,0.435 -0.438,0.979 -0.909,1.632 -0.083,0.087 -0.133,0.155 -0.149,0.207 L 9.775,1.937 -0.009,-1.118 -0.084,-8.764 c -0.012,-1.042 0.072,-1.851 0.251,-2.427 0.248,-0.793 0.61,-1.258 1.089,-1.396 0.478,-0.14 1.083,-0.094 1.811,0.133 l 0.095,-0.307 -6.638,-2.072 -0.095,0.307 c 0.918,0.384 1.564,0.983 1.936,1.794 0.369,0.811 0.565,1.928 0.584,3.351 l 0.386,26.817 z"
             style="fill:#000000;fill-opacity:1;fill-rule:nonzero;stroke:none"
             id="path54"
             inkscape:connector-curvature="0" /></g><g
           id="g56"
           transform="translate(460.9727,785.8247)"><path
             d="m 0,0 0.063,-0.335 c -0.722,-0.231 -1.277,-0.482 -1.669,-0.753 -0.393,-0.271 -0.654,-0.709 -0.786,-1.313 -0.133,-0.604 -0.1,-1.433 0.098,-2.486 l 4.787,-25.521 -0.198,-0.037 -27.017,20.737 3.358,-17.896 c 0.279,-1.488 0.545,-2.583 0.8,-3.285 0.253,-0.702 0.522,-1.19 0.806,-1.464 0.615,-0.593 1.533,-0.803 2.756,-0.628 l 0.058,-0.316 -7.288,-1.368 -0.06,0.316 c 0.809,0.193 1.413,0.487 1.808,0.882 0.396,0.394 0.612,1.021 0.65,1.88 0.036,0.858 -0.102,2.118 -0.413,3.777 l -3.56,18.982 -1.172,0.906 c -1.038,0.813 -1.838,1.3 -2.4,1.461 -0.562,0.16 -1.238,0.234 -2.026,0.223 l -0.063,0.336 5.472,1.027 26.629,-20.524 -3.524,18.785 c -0.263,1.408 -0.517,2.451 -0.76,3.128 -0.243,0.677 -0.644,1.181 -1.204,1.513 -0.56,0.33 -1.357,0.42 -2.391,0.266 l -0.063,0.336 z"
             style="fill:#000000;fill-opacity:1;fill-rule:nonzero;stroke:none"
             id="path58"
             inkscape:connector-curvature="0" /></g><g
           id="g60"
           transform="translate(472.2158,770.1855)"><path
             d="M 0,0 9.398,0.721 3.515,14.359 3.434,14.353 Z M 5.425,17.307 16.202,-7.304 c 0.567,-1.274 1.08,-2.188 1.54,-2.744 0.459,-0.556 0.885,-0.896 1.277,-1.02 0.393,-0.125 0.885,-0.192 1.478,-0.2 l 0.023,-0.32 -9.638,-0.74 -0.026,0.321 c 0.99,0.076 1.744,0.228 2.264,0.456 0.52,0.228 0.749,0.756 0.686,1.585 -0.035,0.453 -0.21,1.052 -0.521,1.794 -0.063,0.102 -0.096,0.18 -0.099,0.234 L 9.96,-0.304 -0.259,-1.088 -2.049,-8.522 c -0.244,-1.013 -0.343,-1.82 -0.297,-2.421 0.063,-0.828 0.312,-1.364 0.747,-1.606 0.435,-0.242 1.035,-0.334 1.795,-0.275 l 0.025,-0.321 -6.933,-0.532 -0.025,0.322 c 0.981,0.167 1.743,0.606 2.288,1.313 0.543,0.707 0.984,1.752 1.322,3.135 l 6.388,26.048 z"
             style="fill:#000000;fill-opacity:1;fill-rule:nonzero;stroke:none"
             id="path62"
             inkscape:connector-curvature="0" /></g><g
           id="g64"
           transform="translate(519.0488,781.4883)"><path
             d="m 0,0 -0.322,0.005 c -0.401,1.935 -1.519,3.449 -3.351,4.54 -1.834,1.092 -3.936,1.655 -6.308,1.688 -1.232,0.018 -2.559,-0.154 -3.977,-0.515 -1.419,-0.361 -2.807,-1.035 -4.16,-2.02 -1.354,-0.986 -2.487,-2.427 -3.398,-4.323 -0.913,-1.896 -1.389,-4.292 -1.431,-7.185 -0.066,-4.608 0.957,-8.308 3.067,-11.099 2.109,-2.79 5.544,-4.22 10.299,-4.288 1.877,-0.028 3.259,0.08 4.145,0.322 0.888,0.242 1.46,0.582 1.714,1.021 0.255,0.437 0.386,1.032 0.397,1.783 l 0.079,5.425 c 0.018,1.286 -0.247,2.141 -0.798,2.564 -0.55,0.424 -1.38,0.71 -2.49,0.86 l 0.006,0.342 9.626,-0.139 -0.005,-0.341 c -0.887,-0.082 -1.572,-0.262 -2.058,-0.543 -0.486,-0.282 -0.814,-0.649 -0.982,-1.102 -0.167,-0.453 -0.256,-1.055 -0.267,-1.805 l -0.119,-8.239 c -2.959,-0.748 -6.005,-1.099 -9.14,-1.055 -1.621,0.024 -3.22,0.181 -4.797,0.472 -1.578,0.29 -3.217,0.91 -4.918,1.859 -1.701,0.949 -3.195,2.338 -4.483,4.165 -1.93,2.748 -2.871,5.837 -2.821,9.266 0.029,1.996 0.429,3.934 1.199,5.812 0.772,1.878 1.867,3.553 3.289,5.028 1.421,1.473 3.15,2.627 5.185,3.462 2.035,0.835 4.286,1.235 6.751,1.2 0.952,-0.014 1.88,-0.091 2.791,-0.232 0.908,-0.14 2.265,-0.417 4.068,-0.832 0.707,-0.171 1.216,-0.259 1.523,-0.263 0.657,-0.01 1.145,0.312 1.461,0.963 L 0.098,6.792 Z"
             style="fill:#000000;fill-opacity:1;fill-rule:nonzero;stroke:none"
             id="path66"
             inkscape:connector-curvature="0" /></g><g
           id="g68"
           transform="translate(526.7773,786.4009)"><path
             d="m 0,0 0.043,0.339 17.505,-2.223 -0.588,-4.625 -0.279,0.035 c 0.314,2.473 -1.177,3.918 -4.473,4.336 L 6.087,-1.36 4.394,-14.699 9.777,-15.382 c 1.062,-0.135 2.036,-0.083 2.916,0.156 0.882,0.24 1.461,0.97 1.738,2.191 l 0.298,-0.038 -0.845,-6.659 -0.299,0.037 c -0.023,0.773 -0.176,1.383 -0.457,1.831 -0.28,0.448 -0.576,0.759 -0.885,0.933 -0.307,0.174 -0.588,0.277 -0.842,0.309 -0.467,0.141 -0.962,0.244 -1.478,0.31 l -5.644,0.716 -1.323,-10.427 c -0.101,-0.784 -0.037,-1.481 0.19,-2.09 0.226,-0.61 0.884,-0.984 1.974,-1.122 l 4.367,-0.554 c 1.05,-0.133 1.934,-0.091 2.65,0.129 0.717,0.219 1.306,0.577 1.766,1.072 0.462,0.495 0.875,1.111 1.239,1.849 l 0.279,-0.035 -1.603,-4.477 -17.505,2.222 0.041,0.319 0.399,-0.05 c 0.624,-0.079 1.268,0.095 1.931,0.525 0.661,0.429 1.065,1.214 1.21,2.358 l 2.81,22.129 c 0.115,0.905 0.012,1.715 -0.309,2.431 -0.321,0.715 -0.987,1.138 -1.997,1.266 z"
             style="fill:#000000;fill-opacity:1;fill-rule:nonzero;stroke:none"
             id="path70"
             inkscape:connector-curvature="0" /></g><g
           id="g72"
           transform="translate(580.6504,776.6538)"><path
             d="m 0,0 -0.077,-0.333 c -0.564,0.064 -0.968,0.102 -1.213,0.111 -0.246,0.01 -0.538,-0.062 -0.876,-0.216 C -2.69,-0.672 -3.044,-0.926 -3.225,-1.2 -3.407,-1.474 -3.599,-1.979 -3.801,-2.716 -3.868,-2.824 -3.896,-2.941 -3.884,-3.067 L -7.944,-24.7 c -0.187,-0.905 -0.156,-1.733 0.095,-2.48 0.249,-0.748 1.05,-1.288 2.405,-1.622 l -0.075,-0.313 -9.33,2.206 0.075,0.313 c 1.255,-0.16 2.168,0 2.736,0.478 0.567,0.479 0.963,1.339 1.187,2.58 l 4.238,22.376 -0.078,0.018 -16.372,-23.823 -3.65,27.544 -0.078,0.019 -5.863,-20.174 c -0.318,-1.109 -0.454,-1.996 -0.412,-2.66 0.043,-0.664 0.241,-1.179 0.595,-1.545 0.355,-0.366 0.926,-0.711 1.717,-1.035 l -0.074,-0.313 -7.257,1.715 0.074,0.313 c 0.929,-0.206 1.687,-0.15 2.27,0.166 0.585,0.316 1.028,0.779 1.331,1.389 0.302,0.61 0.625,1.466 0.969,2.569 l 6.147,20.85 c 0.019,0.078 -0.026,0.236 -0.136,0.476 -0.107,0.239 -0.253,0.486 -0.433,0.743 -0.181,0.256 -0.362,0.467 -0.542,0.634 -0.379,0.379 -0.726,0.629 -1.04,0.752 -0.317,0.123 -0.762,0.273 -1.34,0.451 l 0.078,0.332 6.689,-1.581 3.348,-25.676 14.627,21.426 z"
             style="fill:#000000;fill-opacity:1;fill-rule:nonzero;stroke:none"
             id="path74"
             inkscape:connector-curvature="0" /></g><g
           id="g76"
           transform="translate(586.3223,774.2886)"><path
             d="m 0,0 0.113,0.322 16.644,-5.861 -1.549,-4.397 -0.265,0.093 c 0.828,2.351 -0.325,4.078 -3.46,5.182 l -5.82,2.049 -4.465,-12.682 5.118,-1.802 c 1.012,-0.356 1.972,-0.51 2.885,-0.462 0.912,0.048 1.631,0.64 2.159,1.775 l 0.285,-0.1 -2.229,-6.331 -0.285,0.1 c 0.14,0.76 0.119,1.388 -0.061,1.885 -0.18,0.497 -0.403,0.863 -0.668,1.098 -0.264,0.235 -0.517,0.396 -0.757,0.481 -0.428,0.235 -0.889,0.441 -1.382,0.613 l -5.365,1.89 -3.491,-9.915 c -0.262,-0.746 -0.346,-1.44 -0.255,-2.084 0.094,-0.643 0.659,-1.147 1.696,-1.512 l 4.151,-1.462 c 0.998,-0.352 1.87,-0.496 2.618,-0.431 0.746,0.063 1.398,0.288 1.953,0.676 0.555,0.386 1.087,0.902 1.599,1.546 l 0.266,-0.094 -2.509,-4.038 -16.645,5.86 0.108,0.304 0.379,-0.134 c 0.593,-0.209 1.258,-0.174 1.997,0.107 0.737,0.279 1.298,0.963 1.68,2.05 l 7.409,21.042 c 0.303,0.858 0.374,1.672 0.21,2.44 -0.164,0.768 -0.725,1.32 -1.685,1.658 z"
             style="fill:#000000;fill-opacity:1;fill-rule:nonzero;stroke:none"
             id="path78"
             inkscape:connector-curvature="0" /></g><g
           id="g80"
           transform="translate(636.2266,753.7764)"><path
             d="m 0,0 -0.146,-0.309 c -0.718,0.237 -1.316,0.359 -1.792,0.37 -0.477,0.011 -0.946,-0.189 -1.408,-0.602 -0.461,-0.412 -0.921,-1.101 -1.379,-2.07 l -11.103,-23.472 -0.181,0.085 -9.703,32.647 -7.787,-16.459 c -0.647,-1.369 -1.073,-2.412 -1.28,-3.129 -0.205,-0.718 -0.276,-1.271 -0.206,-1.659 0.15,-0.842 0.771,-1.55 1.863,-2.126 l -0.139,-0.291 -6.704,3.172 0.138,0.29 c 0.768,-0.319 1.429,-0.435 1.98,-0.347 0.554,0.086 1.097,0.466 1.631,1.141 0.532,0.674 1.16,1.774 1.883,3.299 L -26.074,8 -26.492,9.419 c -0.364,1.269 -0.725,2.133 -1.086,2.593 -0.36,0.46 -0.864,0.916 -1.509,1.37 l 0.147,0.308 5.031,-2.379 9.515,-32.248 8.171,17.277 c 0.615,1.296 1.021,2.29 1.222,2.98 0.201,0.691 0.172,1.334 -0.088,1.931 -0.258,0.597 -0.851,1.137 -1.779,1.62 l 0.146,0.309 z"
             style="fill:#000000;fill-opacity:1;fill-rule:nonzero;stroke:none"
             id="path82"
             inkscape:connector-curvature="0" /></g><g
           id="g84"
           transform="translate(659.3193,732.7544)"><path
             d="m 0,0 -0.273,0.17 c 0.894,1.716 1.077,3.074 0.548,4.074 -0.53,1.001 -1.402,1.88 -2.62,2.637 l -4.998,3.113 -13.141,-21.102 c -1.114,-1.786 -0.777,-3.274 1.007,-4.464 l -0.169,-0.273 -8.001,4.983 0.169,0.273 c 0.766,-0.445 1.536,-0.621 2.312,-0.528 0.776,0.093 1.472,0.634 2.088,1.623 l 13.141,21.103 -4.998,3.113 c -1.217,0.758 -2.388,1.152 -3.514,1.182 -1.125,0.031 -2.267,-0.731 -3.423,-2.284 l -0.274,0.171 3.827,6.141 0.271,-0.17 c 0.006,-0.398 0.033,-0.707 0.085,-0.929 0.053,-0.221 0.156,-0.448 0.312,-0.679 0.155,-0.231 0.367,-0.457 0.63,-0.677 0.266,-0.221 0.597,-0.455 0.997,-0.703 L 0.251,6.638 c 1.08,-0.673 2.181,-0.782 3.3,-0.326 l 0.273,-0.17 z"
             style="fill:#000000;fill-opacity:1;fill-rule:nonzero;stroke:none"
             id="path86"
             inkscape:connector-curvature="0" /></g><g
           id="g88"
           transform="translate(685.6484,712.0586)"><path
             d="m 0,0 -0.247,0.207 c 0.776,1.22 1.101,2.585 0.976,4.096 -0.125,1.51 -0.856,2.825 -2.192,3.942 -0.874,0.731 -1.821,1.174 -2.844,1.33 -1.021,0.156 -2.014,0.034 -2.977,-0.365 -0.964,-0.4 -1.827,-1.057 -2.593,-1.972 -0.593,-0.709 -1.01,-1.431 -1.248,-2.166 -0.238,-0.734 -0.317,-1.493 -0.238,-2.275 0.078,-0.783 0.259,-1.601 0.539,-2.456 0.281,-0.855 0.688,-1.977 1.221,-3.365 0.9,-2.308 1.433,-4.303 1.596,-5.986 0.164,-1.683 -0.415,-3.316 -1.739,-4.899 -0.808,-0.966 -1.837,-1.691 -3.087,-2.173 -1.25,-0.482 -2.621,-0.59 -4.108,-0.324 -1.489,0.268 -2.98,1.024 -4.469,2.27 -0.936,0.783 -1.68,1.575 -2.232,2.377 -0.551,0.802 -1.046,1.693 -1.486,2.671 -0.223,0.36 -0.391,0.588 -0.503,0.683 -0.217,0.18 -0.422,0.221 -0.617,0.123 -0.196,-0.098 -0.564,-0.358 -1.108,-0.776 l -0.262,0.218 4.757,5.689 0.262,-0.219 c -1.022,-1.974 -1.356,-3.835 -1.001,-5.582 0.357,-1.747 1.3,-3.261 2.831,-4.541 1.151,-0.963 2.255,-1.519 3.309,-1.667 1.056,-0.149 1.974,-0.026 2.757,0.367 0.783,0.393 1.432,0.898 1.948,1.514 1.066,1.275 1.548,2.64 1.445,4.095 -0.1,1.457 -0.589,3.268 -1.467,5.434 -0.592,1.508 -1.011,2.645 -1.26,3.412 -0.249,0.767 -0.425,1.639 -0.526,2.614 -0.101,0.975 -0.013,1.954 0.266,2.934 0.278,0.981 0.806,1.935 1.578,2.859 0.895,1.069 2.031,1.855 3.414,2.359 1.382,0.504 2.839,0.617 4.371,0.34 1.533,-0.277 2.956,-0.966 4.272,-2.066 C 0.335,7.868 1.216,6.843 1.98,5.627 2.076,5.407 2.263,5.181 2.54,4.949 2.88,4.666 3.304,4.704 3.814,5.063 L 4.062,4.857 Z"
             style="fill:#000000;fill-opacity:1;fill-rule:nonzero;stroke:none"
             id="path90"
             inkscape:connector-curvature="0" /></g><g
           id="g92"
           transform="translate(712.6143,693.833)"><path
             d="m 0,0 -0.242,-0.241 c -0.635,0.616 -1.337,1.026 -2.11,1.23 -0.773,0.203 -1.45,0.289 -2.032,0.256 C -4.967,1.212 -5.633,1.134 -6.381,1.011 l -12.251,-2.47 -8.385,-8.382 c -0.749,-0.749 -1.086,-1.535 -1.01,-2.359 0.075,-0.824 0.421,-1.564 1.037,-2.217 l -0.228,-0.228 -6.635,6.639 0.228,0.227 c 0.69,-0.654 1.415,-0.995 2.174,-1.024 0.757,-0.028 1.52,0.341 2.288,1.108 l 8.031,8.027 2.66,13.315 c 0.294,1.431 0.359,2.514 0.194,3.248 -0.167,0.734 -0.623,1.494 -1.371,2.281 l 0.24,0.241 7.431,-7.434 -0.241,-0.241 c -0.787,0.73 -1.434,1.052 -1.947,0.966 -0.512,-0.084 -0.9,-0.26 -1.165,-0.525 -0.304,-0.303 -0.545,-0.914 -0.725,-1.833 L -18.161,-0.478 -8.47,1.48 c 1.458,0.284 2.421,0.658 2.885,1.122 0.321,0.322 0.495,0.651 0.519,0.988 0.024,0.336 -0.016,0.614 -0.121,0.831 -0.104,0.219 -0.227,0.436 -0.368,0.654 l 0.241,0.241 z"
             style="fill:#000000;fill-opacity:1;fill-rule:nonzero;stroke:none"
             id="path94"
             inkscape:connector-curvature="0" /></g><g
           id="g96"
           transform="translate(719.8252,676.2612)"><path
             d="M 0,0 -0.206,0.247 C 0.77,1.313 1.326,2.601 1.466,4.11 1.604,5.621 1.113,7.041 -0.009,8.374 c -0.733,0.871 -1.59,1.472 -2.569,1.803 -0.98,0.331 -1.979,0.384 -2.996,0.157 C -6.592,10.108 -7.558,9.611 -8.47,8.842 -9.176,8.248 -9.712,7.608 -10.074,6.926 -10.438,6.244 -10.647,5.511 -10.705,4.727 -10.763,3.943 -10.729,3.105 -10.6,2.214 c 0.128,-0.89 0.334,-2.066 0.619,-3.525 0.485,-2.429 0.663,-4.486 0.532,-6.173 -0.129,-1.686 -0.985,-3.194 -2.562,-4.522 -0.964,-0.812 -2.102,-1.346 -3.419,-1.604 -1.315,-0.258 -2.682,-0.126 -4.102,0.395 -1.419,0.522 -2.755,1.525 -4.007,3.011 -0.784,0.933 -1.379,1.842 -1.784,2.728 -0.405,0.886 -0.739,1.848 -0.999,2.888 -0.157,0.394 -0.282,0.648 -0.378,0.76 -0.181,0.215 -0.377,0.291 -0.586,0.228 -0.211,-0.063 -0.619,-0.254 -1.227,-0.572 l -0.219,0.262 5.672,4.776 0.221,-0.261 c -1.35,-1.767 -2.002,-3.542 -1.955,-5.324 0.047,-1.782 0.714,-3.437 1.999,-4.964 0.966,-1.148 1.956,-1.886 2.969,-2.216 1.014,-0.33 1.939,-0.368 2.779,-0.117 0.839,0.251 1.566,0.636 2.181,1.153 1.27,1.071 1.983,2.331 2.137,3.782 0.152,1.452 -0.017,3.32 -0.504,5.606 -0.321,1.587 -0.538,2.78 -0.649,3.579 -0.112,0.799 -0.134,1.688 -0.064,2.666 0.069,0.978 0.327,1.926 0.771,2.843 0.445,0.918 1.129,1.765 2.052,2.541 1.065,0.898 2.321,1.475 3.771,1.731 C -5.904,12.141 -4.45,12 -2.988,11.46 -1.528,10.922 -0.246,9.997 0.859,8.684 1.696,7.69 2.386,6.528 2.929,5.198 2.984,4.964 3.129,4.71 3.362,4.433 3.646,4.095 4.071,4.058 4.636,4.324 L 4.844,4.078 Z"
             style="fill:#000000;fill-opacity:1;fill-rule:nonzero;stroke:none"
             id="path98"
             inkscape:connector-curvature="0" /></g><g
           id="g100"
           transform="translate(737.8848,651.2231)"><path
             d="M 0,0 -0.185,0.263 C 1.31,1.493 2.008,2.671 1.912,3.799 1.816,4.926 1.356,6.077 0.533,7.25 L -2.85,12.07 -23.197,-2.214 c -1.721,-1.209 -1.994,-2.71 -0.818,-4.503 l -0.262,-0.185 -5.416,7.715 0.263,0.185 c 0.531,-0.708 1.17,-1.171 1.921,-1.39 0.75,-0.217 1.603,0.008 2.557,0.678 l 20.347,14.285 -3.384,4.819 c -0.824,1.174 -1.748,1.994 -2.772,2.462 -1.025,0.468 -2.372,0.213 -4.044,-0.764 l -0.183,0.264 5.921,4.156 0.184,-0.262 c -0.151,-0.368 -0.246,-0.664 -0.285,-0.889 -0.039,-0.223 -0.032,-0.472 0.021,-0.746 0.053,-0.274 0.159,-0.564 0.316,-0.871 0.157,-0.306 0.371,-0.651 0.642,-1.035 L 2.827,6.012 C 3.558,4.97 4.528,4.44 5.736,4.421 L 5.921,4.158 Z"
             style="fill:#000000;fill-opacity:1;fill-rule:nonzero;stroke:none"
             id="path102"
             inkscape:connector-curvature="0" /></g><g
           id="g104"
           transform="translate(744.4229,650.7085)"><path
             d="m 0,0 0.296,0.17 8.784,-15.305 -4.044,-2.32 -0.14,0.243 c 2.162,1.241 2.416,3.302 0.761,6.185 l -3.071,5.351 -11.66,-6.694 2.701,-4.706 c 0.532,-0.929 1.161,-1.674 1.884,-2.232 0.721,-0.559 1.653,-0.581 2.793,-0.065 l 0.15,-0.261 -5.821,-3.342 -0.151,0.262 c 0.604,0.485 0.998,0.974 1.186,1.468 0.187,0.494 0.257,0.916 0.21,1.268 -0.046,0.352 -0.133,0.638 -0.26,0.858 -0.171,0.458 -0.386,0.914 -0.646,1.368 l -2.831,4.933 -9.116,-5.232 c -0.686,-0.394 -1.204,-0.865 -1.553,-1.413 -0.349,-0.549 -0.25,-1.299 0.296,-2.252 l 2.191,-3.817 c 0.527,-0.918 1.095,-1.597 1.702,-2.036 0.607,-0.44 1.247,-0.694 1.92,-0.764 0.673,-0.068 1.414,-0.026 2.222,0.128 l 0.139,-0.244 -4.537,-1.422 -8.783,15.305 0.278,0.16 0.202,-0.349 c 0.312,-0.546 0.839,-0.954 1.582,-1.224 0.741,-0.27 1.612,-0.117 2.612,0.457 l 19.346,11.105 c 0.791,0.453 1.375,1.024 1.752,1.712 0.377,0.688 0.312,1.474 -0.194,2.357 z"
             style="fill:#000000;fill-opacity:1;fill-rule:nonzero;stroke:none"
             id="path106"
             inkscape:connector-curvature="0" /></g><g
           id="g108"
           transform="translate(769.124,601.8784)"><path
             d="M 0,0 -0.312,-0.138 C -0.601,0.349 -0.814,0.694 -0.955,0.896 -1.096,1.098 -1.329,1.288 -1.656,1.465 -2.158,1.742 -2.573,1.87 -2.901,1.85 -3.229,1.83 -3.748,1.678 -4.458,1.394 -4.585,1.382 -4.694,1.334 -4.788,1.249 l -19.705,-9.807 c -0.836,-0.398 -1.476,-0.921 -1.921,-1.571 -0.446,-0.65 -0.394,-1.616 0.156,-2.896 l -0.294,-0.13 -3.867,8.772 0.294,0.13 c 0.63,-1.099 1.308,-1.73 2.032,-1.894 0.723,-0.165 1.648,0.039 2.773,0.607 l 20.405,10.115 -0.032,0.073 -28.877,-1.307 19.771,19.522 -0.033,0.074 -19.627,-7.489 c -1.077,-0.416 -1.867,-0.841 -2.371,-1.276 -0.505,-0.434 -0.796,-0.903 -0.874,-1.406 -0.078,-0.503 -0.009,-1.168 0.21,-1.994 l -0.295,-0.129 -3.007,6.822 0.294,0.13 c 0.396,-0.866 0.897,-1.435 1.501,-1.711 0.605,-0.275 1.241,-0.35 1.91,-0.223 0.669,0.127 1.546,0.385 2.635,0.776 l 20.338,7.67 c 0.073,0.033 0.173,0.164 0.299,0.395 0.124,0.232 0.235,0.496 0.33,0.794 0.097,0.299 0.155,0.571 0.18,0.815 0.074,0.531 0.064,0.959 -0.029,1.284 -0.092,0.325 -0.241,0.772 -0.447,1.34 l 0.312,0.138 2.772,-6.29 -18.462,-18.155 25.913,1.254 z"
             style="fill:#000000;fill-opacity:1;fill-rule:nonzero;stroke:none"
             id="path110"
             inkscape:connector-curvature="0" /></g><g
           id="g112"
           transform="translate(800,500)"><path
             d="m 0,0 c 0,-165.686 -134.314,-300 -300,-300 -165.686,0 -300,134.314 -300,300 0,165.686 134.314,300 300,300 C -134.314,300 0,165.686 0,0 Z"
             style="fill:none;stroke:#231f20;stroke-width:5;stroke-linecap:butt;stroke-linejoin:miter;stroke-miterlimit:10;stroke-dasharray:none;stroke-opacity:1"
             id="path114"
             inkscape:connector-curvature="0" /></g><g
           id="g116"
           transform="translate(260.3994,384.2246)"><path
             d="m 0,0 -0.132,0.311 c 1.223,0.791 2.081,1.883 2.571,3.279 0.493,1.396 0.672,2.839 0.542,4.325 -0.13,1.487 -0.436,2.8 -0.916,3.937 -0.655,1.554 -1.599,2.875 -2.828,3.962 -1.231,1.087 -2.651,1.875 -4.262,2.363 -1.611,0.486 -3.367,0.653 -5.269,0.499 -1.902,-0.155 -3.832,-0.645 -5.789,-1.471 -1.896,-0.8 -3.542,-1.809 -4.938,-3.024 -1.397,-1.216 -2.476,-2.587 -3.237,-4.112 -0.762,-1.524 -1.164,-3.089 -1.207,-4.694 -0.044,-1.603 0.279,-3.225 0.972,-4.863 0.578,-1.369 1.492,-2.757 2.74,-4.161 1.248,-1.405 2.8,-2.494 4.654,-3.267 l -1.046,-0.442 c -1.947,1.094 -3.499,2.195 -4.656,3.299 -1.158,1.103 -2.163,2.664 -3.015,4.683 -0.898,2.128 -1.33,4.234 -1.294,6.317 0.036,2.082 0.459,4.009 1.269,5.778 0.81,1.769 1.908,3.313 3.297,4.635 1.388,1.32 2.956,2.349 4.705,3.088 2.63,1.11 5.347,1.494 8.152,1.15 2.804,-0.345 5.331,-1.346 7.58,-3.005 2.249,-1.659 3.921,-3.785 5.016,-6.379 0.676,-1.602 1.158,-3.409 1.445,-5.42 L 4.628,4.655 C 4.709,4.256 4.804,3.929 4.913,3.673 5.114,3.195 5.319,2.906 5.527,2.807 5.734,2.708 6.04,2.693 6.443,2.761 L 6.566,2.468 Z"
             style="fill:#231f20;fill-opacity:1;fill-rule:nonzero;stroke:none"
             id="path118"
             inkscape:connector-curvature="0" /></g><g
           id="g120"
           transform="translate(267.0928,385.125)"><path
             d="m 0,0 0.298,0.16 8.272,-15.405 -4.071,-2.186 -0.132,0.245 c 2.175,1.168 2.485,3.204 0.927,6.105 l -2.892,5.387 -11.738,-6.303 2.543,-4.737 c 0.502,-0.937 1.104,-1.692 1.803,-2.265 0.7,-0.573 1.622,-0.621 2.767,-0.143 l 0.141,-0.262 -5.86,-3.147 -0.142,0.263 c 0.61,0.464 1.015,0.937 1.215,1.421 0.2,0.484 0.281,0.9 0.245,1.25 -0.038,0.35 -0.116,0.635 -0.235,0.857 -0.156,0.46 -0.356,0.916 -0.601,1.373 l -2.666,4.965 -9.178,-4.927 c -0.69,-0.369 -1.216,-0.823 -1.577,-1.355 -0.362,-0.534 -0.285,-1.279 0.23,-2.239 l 2.063,-3.842 c 0.496,-0.924 1.038,-1.612 1.629,-2.065 0.588,-0.452 1.215,-0.722 1.88,-0.809 0.665,-0.088 1.4,-0.067 2.204,0.064 l 0.132,-0.247 -4.534,-1.281 -8.271,15.407 0.28,0.151 0.189,-0.352 c 0.295,-0.55 0.806,-0.969 1.534,-1.255 0.726,-0.288 1.593,-0.163 2.599,0.377 l 19.477,10.457 c 0.795,0.428 1.389,0.977 1.783,1.648 0.394,0.67 0.352,1.451 -0.126,2.339 z"
             style="fill:#231f20;fill-opacity:1;fill-rule:nonzero;stroke:none"
             id="path122"
             inkscape:connector-curvature="0" /></g><g
           id="g124"
           transform="translate(268.1221,354.8906)"><path
             d="m 0,0 0.919,-1.397 c 0.961,-1.466 1.961,-2.529 2.999,-3.189 1.038,-0.661 2.086,-0.945 3.145,-0.853 1.06,0.091 2.156,0.51 3.288,1.253 0.943,0.621 1.743,1.415 2.399,2.386 0.657,0.972 0.996,2.112 1.019,3.42 0.021,1.31 -0.471,2.731 -1.477,4.262 -0.408,0.622 -0.793,1.098 -1.155,1.432 z m 8.427,12.421 -0.219,0.333 0.35,0.228 5.575,-8.489 c 0.897,-1.364 1.445,-2.66 1.647,-3.885 0.201,-1.226 0.151,-2.316 -0.152,-3.27 -0.303,-0.952 -0.74,-1.781 -1.313,-2.482 -0.572,-0.701 -1.207,-1.282 -1.906,-1.74 C 11.521,-7.469 10.547,-7.841 9.487,-8.005 8.427,-8.169 7.35,-8.059 6.255,-7.674 5.16,-7.288 4.129,-6.588 3.16,-5.572 L 3.093,-5.616 C 3.345,-7.549 2.825,-9.827 1.532,-12.455 l -2.291,-4.674 c -1.019,-2.1 -1.553,-3.598 -1.599,-4.494 -0.047,-0.896 0.095,-1.656 0.426,-2.281 l -0.266,-0.174 -2.931,4.46 c 0.121,0.349 0.24,0.681 0.358,0.997 0.118,0.316 0.243,0.652 0.374,1.009 0.094,0.22 0.239,0.55 0.435,0.989 0.196,0.437 0.302,0.693 0.317,0.768 l 2.92,6.111 c 0.602,1.238 1.009,2.366 1.22,3.386 0.211,1.02 0.275,1.885 0.192,2.592 -0.083,0.707 -0.233,1.297 -0.446,1.768 -0.215,0.472 -0.512,0.995 -0.89,1.571 l -8.973,-5.891 c -1.742,-1.145 -2.058,-2.623 -0.947,-4.436 l -0.266,-0.175 -5.128,7.808 0.266,0.174 c 0.343,-0.473 0.719,-0.845 1.128,-1.117 0.408,-0.272 0.892,-0.404 1.45,-0.394 0.557,0.009 1.17,0.231 1.836,0.669 L 7.261,8.391 c 0.976,0.641 1.508,1.333 1.594,2.071 0.086,0.74 -0.057,1.392 -0.428,1.959"
             style="fill:#231f20;fill-opacity:1;fill-rule:nonzero;stroke:none"
             id="path126"
             inkscape:connector-curvature="0" /></g><g
           id="g128"
           transform="translate(300.5078,325.2773)"><path
             d="M 0,0 -0.198,0.25 C 1.208,1.554 1.829,2.76 1.668,3.869 1.507,4.98 0.984,6.092 0.1,7.203 l -3.632,4.568 -19.284,-15.332 c -1.632,-1.297 -1.813,-2.797 -0.543,-4.502 l -0.249,-0.198 -5.812,7.312 0.249,0.198 c 0.566,-0.67 1.226,-1.09 1.983,-1.262 0.754,-0.171 1.584,0.103 2.488,0.822 l 19.285,15.331 -3.631,4.568 c -0.885,1.111 -1.848,1.869 -2.889,2.271 -1.04,0.403 -2.358,0.072 -3.953,-0.994 l -0.199,0.249 5.613,4.463 0.198,-0.249 c -0.128,-0.373 -0.204,-0.672 -0.23,-0.895 -0.025,-0.225 -0.005,-0.47 0.065,-0.739 0.068,-0.267 0.189,-0.547 0.364,-0.841 0.174,-0.295 0.406,-0.623 0.695,-0.987 L 2.442,6.113 C 3.227,5.126 4.217,4.659 5.414,4.711 L 5.612,4.462 Z"
             style="fill:#231f20;fill-opacity:1;fill-rule:nonzero;stroke:none"
             id="path130"
             inkscape:connector-curvature="0" /></g><g
           id="g132"
           transform="translate(312.3999,321.1582)"><path
             d="M 0,0 -0.249,-0.23 C -0.842,0.414 -1.528,0.794 -2.303,0.91 -3.078,1.027 -3.885,0.699 -4.725,-0.075 l -16.373,-15.09 c -0.83,-0.765 -1.213,-1.56 -1.148,-2.384 0.065,-0.825 0.368,-1.53 0.908,-2.115 l -0.235,-0.217 -6.302,6.839 0.234,0.216 c 0.576,-0.625 1.256,-0.995 2.04,-1.112 0.785,-0.117 1.602,0.216 2.452,1 L -6.776,2.15 c 0.898,0.829 1.304,1.622 1.217,2.382 -0.086,0.76 -0.417,1.453 -0.993,2.077 l 0.249,0.23 z"
             style="fill:#231f20;fill-opacity:1;fill-rule:nonzero;stroke:none"
             id="path134"
             inkscape:connector-curvature="0" /></g><g
           id="g136"
           transform="translate(313.5928,319.2676)"><path
             d="m 0,0 0.235,0.243 12.697,-12.195 -3.091,-3.217 -0.23,0.221 c 0.577,0.716 0.903,1.539 0.979,2.469 0.075,0.931 -0.404,1.894 -1.439,2.887 l -5.084,4.884 -9.202,-9.58 4.739,-4.552 c 0.9,-0.865 1.69,-1.27 2.37,-1.215 0.679,0.058 1.38,0.365 2.101,0.924 l 0.23,-0.222 -4.608,-4.795 -0.229,0.22 c 0.521,0.657 0.799,1.344 0.831,2.059 0.032,0.715 -0.406,1.509 -1.316,2.383 l -4.739,4.552 -7.409,-7.713 c -0.672,-0.7 -1.011,-1.456 -1.018,-2.268 -0.007,-0.812 0.272,-1.489 0.837,-2.032 l 0.302,-0.29 -0.221,-0.229 -6.823,6.552 0.221,0.23 0.287,-0.276 c 0.575,-0.551 1.258,-0.794 2.051,-0.726 0.791,0.069 1.519,0.446 2.181,1.136 L 0.021,-4.549 c 0.874,0.909 1.264,1.727 1.169,2.452 -0.094,0.727 -0.395,1.333 -0.903,1.821 z"
             style="fill:#231f20;fill-opacity:1;fill-rule:nonzero;stroke:none"
             id="path138"
             inkscape:connector-curvature="0" /></g><g
           id="g140"
           transform="translate(335.6172,299.6406)"><path
             d="m 0,0 -0.219,-0.258 c -0.668,0.567 -1.393,0.862 -2.177,0.884 -0.783,0.02 -1.545,-0.403 -2.285,-1.274 l -14.42,-16.965 c -0.731,-0.86 -1.014,-1.696 -0.849,-2.507 0.164,-0.811 0.55,-1.474 1.158,-1.989 l -0.207,-0.244 -7.086,6.024 0.206,0.243 c 0.647,-0.551 1.368,-0.837 2.16,-0.856 0.793,-0.021 1.564,0.409 2.312,1.289 l 14.42,16.965 c 0.791,0.931 1.098,1.768 0.92,2.511 -0.178,0.745 -0.591,1.392 -1.239,1.943 l 0.22,0.257 z"
             style="fill:#231f20;fill-opacity:1;fill-rule:nonzero;stroke:none"
             id="path142"
             inkscape:connector-curvature="0" /></g><g
           id="g144"
           transform="translate(337.0762,297.875)"><path
             d="m 0,0 0.202,0.271 13.987,-10.494 -2.773,-3.696 -0.223,0.168 c 1.482,1.975 0.906,3.951 -1.727,5.927 l -4.891,3.67 -7.996,-10.658 4.3,-3.227 c 0.85,-0.638 1.713,-1.069 2.59,-1.296 0.876,-0.225 1.732,0.119 2.568,1.036 l 0.24,-0.18 -3.993,-5.321 -0.239,0.181 c 0.359,0.677 0.527,1.276 0.504,1.8 -0.022,0.522 -0.123,0.935 -0.304,1.237 -0.181,0.301 -0.372,0.527 -0.573,0.68 -0.335,0.349 -0.709,0.681 -1.124,0.991 l -4.507,3.382 -6.252,-8.331 c -0.47,-0.626 -0.757,-1.259 -0.861,-1.895 -0.103,-0.636 0.28,-1.28 1.152,-1.932 l 3.488,-2.619 c 0.838,-0.63 1.62,-1.024 2.346,-1.187 0.724,-0.162 1.406,-0.144 2.047,0.057 0.64,0.2 1.297,0.53 1.972,0.986 l 0.223,-0.167 -3.573,-3.071 -13.987,10.496 0.191,0.254 0.319,-0.24 c 0.498,-0.375 1.139,-0.539 1.919,-0.494 0.781,0.045 1.514,0.524 2.2,1.438 L 0.492,-4.552 c 0.542,0.722 0.85,1.47 0.925,2.244 0.074,0.775 -0.292,1.465 -1.099,2.07 z"
             style="fill:#231f20;fill-opacity:1;fill-rule:nonzero;stroke:none"
             id="path146"
             inkscape:connector-curvature="0" /></g><g
           id="g148"
           transform="translate(357.5308,281.7422)"><path
             d="m 0,0 -12.09,-19.85 c -0.595,-0.975 -0.876,-1.788 -0.844,-2.436 0.033,-0.65 0.336,-1.243 0.911,-1.779 0.575,-0.538 1.497,-1.192 2.767,-1.965 1.814,-1.106 3.454,-1.86 4.919,-2.263 1.465,-0.402 3.157,-0.341 5.078,0.184 1.421,0.394 2.797,1.094 4.127,2.103 1.33,1.011 2.568,2.455 3.714,4.338 0.905,1.485 1.591,3.084 2.059,4.797 0.468,1.713 0.617,3.398 0.446,5.057 -0.184,1.869 -0.811,3.626 -1.883,5.275 -1.072,1.647 -2.673,3.12 -4.805,4.418 C 3.299,-1.451 1.833,-0.744 0,0 m -4.707,4.103 0.176,0.289 9.645,-5.874 c 1.349,-0.822 2.523,-1.698 3.52,-2.623 0.999,-0.927 1.831,-1.858 2.497,-2.792 0.667,-0.935 1.189,-1.832 1.567,-2.692 0.379,-0.86 0.649,-1.666 0.813,-2.418 0.31,-1.277 0.447,-2.571 0.412,-3.879 -0.034,-1.307 -0.242,-2.584 -0.619,-3.831 -0.379,-1.247 -0.916,-2.443 -1.615,-3.588 -0.697,-1.144 -1.496,-2.15 -2.397,-3.016 -0.9,-0.867 -1.874,-1.585 -2.919,-2.152 -1.045,-0.568 -2.141,-0.994 -3.284,-1.276 -1.144,-0.283 -2.363,-0.426 -3.656,-0.432 -1.096,0.015 -2.255,0.192 -3.477,0.533 -1.223,0.339 -2.725,1.053 -4.505,2.137 l -11.243,6.849 0.167,0.271 0.339,-0.207 c 0.783,-0.475 1.546,-0.537 2.291,-0.182 0.745,0.354 1.318,0.86 1.718,1.518 l 11.521,18.914 c 0.387,0.635 0.606,1.232 0.659,1.79 0.053,0.559 -0.038,1.042 -0.272,1.45 -0.235,0.406 -0.567,0.74 -0.998,1.004 z"
             style="fill:#231f20;fill-opacity:1;fill-rule:nonzero;stroke:none"
             id="path150"
             inkscape:connector-curvature="0" /></g><g
           id="g152"
           transform="translate(411.8965,249.8652)"><path
             d="m 0,0 -0.295,0.12 c 0.588,1.826 0.541,3.182 -0.142,4.071 -0.684,0.89 -1.683,1.603 -2.997,2.141 l -5.401,2.21 -9.329,-22.802 c -0.789,-1.93 -0.212,-3.327 1.728,-4.193 l -0.12,-0.294 -8.645,3.536 0.12,0.294 c 0.821,-0.307 1.603,-0.351 2.346,-0.13 0.743,0.219 1.333,0.863 1.77,1.934 l 9.328,22.801 -5.401,2.209 c -1.315,0.539 -2.524,0.728 -3.629,0.571 -1.104,-0.158 -2.093,-1.092 -2.964,-2.801 l -0.295,0.12 2.715,6.636 0.294,-0.12 c 0.071,-0.388 0.15,-0.686 0.238,-0.893 0.087,-0.208 0.225,-0.412 0.416,-0.611 0.191,-0.2 0.435,-0.387 0.73,-0.559 0.296,-0.171 0.659,-0.344 1.09,-0.519 L -0.859,6.527 C 0.309,6.049 1.401,6.125 2.419,6.756 l 0.296,-0.12 z"
             style="fill:#231f20;fill-opacity:1;fill-rule:nonzero;stroke:none"
             id="path154"
             inkscape:connector-curvature="0" /></g><g
           id="g156"
           transform="translate(436.9204,233.127)"><path
             d="m 0,0 c 1.065,3.756 1.235,6.882 0.508,9.379 -0.727,2.497 -1.858,4.353 -3.389,5.566 -1.533,1.216 -3.066,2.04 -4.598,2.475 -1.188,0.337 -2.477,0.492 -3.864,0.465 -1.387,-0.028 -2.832,-0.388 -4.332,-1.08 -1.501,-0.692 -2.908,-1.867 -4.219,-3.523 -1.312,-1.657 -2.359,-3.864 -3.142,-6.623 -0.688,-2.427 -0.966,-4.636 -0.834,-6.627 0.133,-1.99 0.602,-3.718 1.408,-5.18 0.806,-1.464 1.818,-2.642 3.035,-3.533 1.218,-0.889 2.56,-1.544 4.029,-1.96 1.316,-0.373 2.714,-0.518 4.193,-0.434 1.48,0.084 2.928,0.495 4.345,1.231 1.417,0.738 2.729,1.91 3.939,3.521 C -1.713,-4.714 -0.739,-2.605 0,0 m 3.394,-0.88 c -0.75,-2.643 -2.102,-4.918 -4.056,-6.819 -1.954,-1.904 -4.253,-3.207 -6.896,-3.913 -2.643,-0.706 -5.338,-0.67 -8.085,0.11 -2.758,0.781 -5.097,2.172 -7.014,4.172 -1.916,2 -3.211,4.331 -3.885,6.991 -0.673,2.663 -0.628,5.341 0.137,8.036 0.587,2.07 1.531,3.903 2.833,5.499 1.302,1.598 2.85,2.873 4.646,3.828 1.796,0.953 3.701,1.544 5.72,1.773 2.017,0.227 4.009,0.062 5.977,-0.496 1.929,-0.546 3.68,-1.427 5.254,-2.639 C -0.4,14.449 0.903,12.972 1.933,11.231 2.964,9.489 3.622,7.584 3.904,5.518 4.187,3.45 4.017,1.316 3.394,-0.88"
             style="fill:#231f20;fill-opacity:1;fill-rule:nonzero;stroke:none"
             id="path158"
             inkscape:connector-curvature="0" /></g><g
           id="g160"
           transform="translate(490.2354,240.5742)"><path
             d="m 0,0 -0.033,-0.338 c -0.561,-0.014 -0.963,-0.03 -1.205,-0.055 -0.242,-0.023 -0.52,-0.133 -0.832,-0.33 -0.483,-0.3 -0.794,-0.597 -0.936,-0.891 -0.141,-0.293 -0.261,-0.816 -0.359,-1.566 -0.051,-0.115 -0.063,-0.234 -0.034,-0.357 l -1.062,-21.785 c -0.061,-0.915 0.083,-1.723 0.429,-2.422 0.346,-0.701 1.206,-1.122 2.58,-1.267 l -0.031,-0.317 -9.456,0.902 0.03,0.318 c 1.255,0.014 2.129,0.294 2.621,0.84 0.493,0.546 0.765,1.444 0.818,2.693 l 1.133,22.539 -0.08,0.009 -12.849,-25.602 -7.307,26.547 -0.079,0.007 -3.028,-20.598 c -0.162,-1.132 -0.177,-2.019 -0.045,-2.667 0.131,-0.644 0.395,-1.125 0.793,-1.436 0.397,-0.311 1.006,-0.572 1.826,-0.784 l -0.031,-0.317 -7.355,0.702 0.031,0.318 c 0.939,-0.077 1.674,0.08 2.205,0.469 0.53,0.39 0.903,0.905 1.118,1.543 0.214,0.64 0.416,1.525 0.603,2.654 l 3.217,21.3 c 0.007,0.079 -0.059,0.228 -0.198,0.45 -0.139,0.219 -0.315,0.443 -0.526,0.67 -0.212,0.226 -0.418,0.409 -0.618,0.549 -0.423,0.32 -0.798,0.519 -1.123,0.597 -0.326,0.079 -0.784,0.165 -1.376,0.262 l 0.033,0.337 6.78,-0.648 6.757,-24.754 11.463,23.014 z"
             style="fill:#231f20;fill-opacity:1;fill-rule:nonzero;stroke:none"
             id="path162"
             inkscape:connector-curvature="0" /></g><g
           id="g164"
           transform="translate(492.7344,240.4482)"><path
             d="m 0,0 -0.003,0.339 17.485,0.138 0.038,-4.62 -0.28,-0.003 c -0.019,2.47 -1.676,3.692 -4.969,3.666 l -6.113,-0.049 0.106,-13.323 5.377,0.042 c 1.062,0.009 2.01,0.19 2.844,0.54 0.833,0.352 1.306,1.146 1.415,2.383 l 0.298,0.001 0.054,-6.65 -0.299,-0.003 c -0.126,0.756 -0.355,1.334 -0.691,1.737 -0.335,0.402 -0.666,0.668 -0.992,0.798 -0.327,0.131 -0.616,0.194 -0.868,0.193 -0.478,0.076 -0.976,0.111 -1.495,0.107 l -5.636,-0.045 0.083,-10.415 c 0.006,-0.783 0.161,-1.459 0.464,-2.027 0.304,-0.57 0.999,-0.848 2.088,-0.841 l 4.362,0.035 c 1.048,0.008 1.91,0.167 2.586,0.478 0.673,0.312 1.205,0.74 1.592,1.288 0.387,0.548 0.71,1.207 0.97,1.98 l 0.279,0.002 -0.979,-4.609 -17.486,-0.139 -0.002,0.318 0.398,0.004 c 0.624,0.004 1.233,0.262 1.826,0.772 0.594,0.508 0.886,1.335 0.877,2.476 L 3.153,-3.321 c -0.007,0.902 -0.215,1.684 -0.626,2.344 -0.41,0.662 -1.12,0.988 -2.129,0.979 z"
             style="fill:#231f20;fill-opacity:1;fill-rule:nonzero;stroke:none"
             id="path166"
             inkscape:connector-curvature="0" /></g><g
           id="g168"
           transform="translate(512.6602,240.6846)"><path
             d="m 0,0 -0.028,0.337 17.424,1.475 0.389,-4.603 -0.277,-0.022 C 17.3,-0.354 15.555,0.737 12.273,0.46 l -6.092,-0.516 1.126,-13.277 5.357,0.454 c 1.059,0.09 1.99,0.342 2.794,0.757 0.805,0.414 1.214,1.242 1.229,2.481 l 0.297,0.027 0.562,-6.628 -0.298,-0.026 c -0.183,0.744 -0.457,1.304 -0.821,1.679 -0.365,0.376 -0.716,0.616 -1.051,0.721 -0.335,0.104 -0.629,0.146 -0.88,0.125 -0.482,0.04 -0.982,0.037 -1.498,-0.007 l -5.616,-0.476 0.879,-10.378 c 0.066,-0.781 0.272,-1.443 0.618,-1.987 0.347,-0.544 1.061,-0.769 2.146,-0.679 l 4.346,0.37 c 1.045,0.088 1.893,0.312 2.541,0.674 0.649,0.363 1.146,0.83 1.49,1.407 0.344,0.574 0.617,1.257 0.816,2.048 l 0.278,0.022 -0.624,-4.67 -17.424,-1.477 -0.026,0.319 0.396,0.033 c 0.621,0.053 1.209,0.356 1.762,0.909 0.553,0.553 0.781,1.399 0.685,2.536 L 3.398,-3.07 C 3.322,-2.171 3.055,-1.408 2.595,-0.779 2.135,-0.153 1.402,0.118 0.396,0.033 Z"
             style="fill:#231f20;fill-opacity:1;fill-rule:nonzero;stroke:none"
             id="path170"
             inkscape:connector-curvature="0" /></g><g
           id="g172"
           transform="translate(558.002,241.332)"><path
             d="m 0,0 -0.313,-0.055 c -0.478,1.857 -1.244,2.978 -2.296,3.365 -1.053,0.386 -2.28,0.456 -3.678,0.208 l -5.746,-1.02 4.302,-24.258 c 0.364,-2.052 1.597,-2.926 3.701,-2.62 l 0.055,-0.313 -9.197,-1.632 -0.056,0.314 c 0.859,0.179 1.542,0.56 2.053,1.144 0.511,0.582 0.665,1.442 0.463,2.58 L -15.014,1.97 -20.759,0.951 c -1.399,-0.248 -2.523,-0.734 -3.372,-1.458 -0.849,-0.723 -1.185,-2.041 -1.009,-3.951 l -0.313,-0.056 -1.252,7.061 0.313,0.055 c 0.268,-0.289 0.494,-0.5 0.678,-0.628 0.185,-0.13 0.411,-0.228 0.68,-0.294 0.267,-0.068 0.572,-0.094 0.914,-0.081 0.342,0.013 0.741,0.06 1.198,0.142 l 18.708,3.317 c 1.241,0.22 2.125,0.869 2.649,1.947 l 0.313,0.056 z"
             style="fill:#231f20;fill-opacity:1;fill-rule:nonzero;stroke:none"
             id="path174"
             inkscape:connector-curvature="0" /></g><g
           id="g176"
           transform="translate(579.7734,253.3936)"><path
             d="m 0,0 0.098,-0.324 c -0.839,-0.253 -1.481,-0.704 -1.922,-1.35 -0.444,-0.647 -0.499,-1.517 -0.169,-2.61 l 6.441,-21.315 c 0.327,-1.08 0.875,-1.771 1.647,-2.071 0.77,-0.302 1.537,-0.337 2.3,-0.106 l 0.091,-0.305 -8.902,-2.691 -0.093,0.305 c 0.814,0.245 1.444,0.696 1.891,1.351 0.447,0.656 0.503,1.536 0.169,2.641 L -4.891,-5.16 c -0.353,1.169 -0.89,1.881 -1.612,2.134 -0.722,0.254 -1.489,0.257 -2.303,0.011 l -0.097,0.325 z"
             style="fill:#231f20;fill-opacity:1;fill-rule:nonzero;stroke:none"
             id="path178"
             inkscape:connector-curvature="0" /></g><g
           id="g180"
           transform="translate(598.0713,253.9277)"><path
             d="m 0,0 -0.3,-0.11 c -0.663,1.269 -1.675,2.224 -3.034,2.864 -1.359,0.64 -2.85,0.662 -4.47,0.068 -1.058,-0.39 -1.909,-0.985 -2.548,-1.785 -0.639,-0.801 -1.026,-1.713 -1.16,-2.737 -0.133,-1.025 0.004,-2.091 0.411,-3.201 0.317,-0.861 0.731,-1.576 1.243,-2.143 0.513,-0.569 1.125,-1.013 1.837,-1.332 0.71,-0.318 1.502,-0.568 2.375,-0.751 0.874,-0.182 2.038,-0.387 3.493,-0.616 2.426,-0.368 4.403,-0.899 5.929,-1.59 1.528,-0.692 2.643,-1.998 3.347,-3.916 0.43,-1.172 0.543,-2.413 0.339,-3.727 -0.204,-1.312 -0.789,-2.542 -1.755,-3.687 -0.965,-1.148 -2.352,-2.052 -4.158,-2.715 -1.135,-0.417 -2.184,-0.663 -3.145,-0.739 -0.962,-0.078 -1.97,-0.064 -3.028,0.044 -0.42,-0.013 -0.698,-0.045 -0.836,-0.095 -0.261,-0.097 -0.398,-0.253 -0.411,-0.469 -0.013,-0.217 0.027,-0.662 0.119,-1.336 l -0.318,-0.115 -2.532,6.898 0.318,0.116 c 1.19,-1.854 2.623,-3.061 4.299,-3.619 1.675,-0.559 3.442,-0.498 5.299,0.184 1.396,0.512 2.419,1.184 3.068,2.017 0.649,0.831 0.998,1.681 1.049,2.549 0.048,0.866 -0.063,1.674 -0.338,2.421 -0.567,1.545 -1.501,2.635 -2.801,3.268 -1.301,0.634 -3.098,1.108 -5.393,1.426 -1.586,0.238 -2.77,0.44 -3.551,0.605 -0.783,0.167 -1.618,0.447 -2.505,0.843 -0.889,0.396 -1.684,0.954 -2.388,1.679 -0.704,0.724 -1.263,1.647 -1.675,2.769 -0.474,1.297 -0.588,2.662 -0.337,4.099 0.251,1.436 0.875,2.743 1.871,3.921 0.996,1.18 2.291,2.061 3.886,2.647 1.209,0.444 2.526,0.693 3.947,0.747 0.237,-0.026 0.524,0.024 0.86,0.147 0.411,0.15 0.588,0.534 0.532,1.15 l 0.299,0.11 z"
             style="fill:#231f20;fill-opacity:1;fill-rule:nonzero;stroke:none"
             id="path182"
             inkscape:connector-curvature="0" /></g><g
           id="g184"
           transform="translate(630.7764,258.9658)"><path
             d="m 0,0 c -1.708,3.51 -3.666,5.953 -5.872,7.331 -2.207,1.377 -4.285,2.008 -6.237,1.892 -1.953,-0.116 -3.644,-0.523 -5.078,-1.22 -1.109,-0.541 -2.172,-1.284 -3.189,-2.229 -1.017,-0.945 -1.853,-2.175 -2.511,-3.692 -0.657,-1.517 -0.923,-3.329 -0.797,-5.438 0.126,-2.11 0.818,-4.454 2.073,-7.032 1.104,-2.269 2.369,-4.101 3.794,-5.496 1.425,-1.396 2.926,-2.371 4.503,-2.925 1.577,-0.554 3.116,-0.757 4.617,-0.61 1.501,0.147 2.936,0.555 4.31,1.224 1.229,0.598 2.368,1.422 3.415,2.471 1.048,1.048 1.854,2.321 2.418,3.814 0.566,1.493 0.762,3.243 0.59,5.249 C 1.864,-4.655 1.186,-2.436 0,0 m 3.117,1.605 c 1.203,-2.47 1.71,-5.065 1.521,-7.787 -0.19,-2.719 -1.034,-5.224 -2.533,-7.512 -1.501,-2.288 -3.533,-4.057 -6.1,-5.307 -2.578,-1.256 -5.248,-1.777 -8.011,-1.562 -2.762,0.212 -5.28,1.086 -7.556,2.623 -2.276,1.535 -4.027,3.561 -5.253,6.08 -0.942,1.935 -1.459,3.93 -1.554,5.989 -0.094,2.058 0.211,4.041 0.914,5.949 0.703,1.907 1.73,3.619 3.082,5.134 1.352,1.514 2.948,2.72 4.786,3.614 1.803,0.878 3.694,1.389 5.677,1.534 1.981,0.146 3.937,-0.087 5.866,-0.698 C -4.114,9.05 -2.355,8.068 -0.766,6.716 0.823,5.362 2.118,3.66 3.117,1.605"
             style="fill:#231f20;fill-opacity:1;fill-rule:nonzero;stroke:none"
             id="path186"
             inkscape:connector-curvature="0" /></g><g
           id="g188"
           transform="translate(659.002,283.2832)"><path
             d="m 0,0 c -0.84,1.243 -1.869,2.334 -3.087,3.271 -1.218,0.938 -2.51,1.507 -3.876,1.708 -1.365,0.201 -2.683,-0.144 -3.955,-1.038 -1.305,-0.914 -2.078,-2.13 -2.319,-3.646 -0.242,-1.516 0.244,-3.138 1.457,-4.865 0.747,-1.066 1.667,-1.913 2.757,-2.542 1.09,-0.63 2.211,-0.951 3.363,-0.961 1.151,-0.012 2.216,0.327 3.194,1.013 0.923,0.648 1.652,1.57 2.185,2.763 C 0.252,-3.104 0.346,-1.672 0,0 m -0.075,-25.164 -0.401,0.57 c 0.889,0.884 1.699,1.805 2.429,2.763 0.73,0.959 1.368,2.17 1.915,3.632 0.547,1.463 0.826,3.098 0.839,4.908 0.028,2.177 -0.277,4.228 -0.916,6.157 -0.641,1.928 -1.605,3.882 -2.898,5.863 L 0.77,-1.235 C 0.959,-2.384 0.868,-3.652 0.497,-5.041 0.125,-6.43 -0.908,-7.719 -2.604,-8.908 c -2.032,-1.427 -4.109,-1.941 -6.231,-1.539 -2.123,0.399 -3.806,1.485 -5.049,3.257 -0.648,0.923 -1.08,1.925 -1.296,3.008 -0.216,1.08 -0.21,2.175 0.018,3.285 0.227,1.108 0.692,2.168 1.393,3.18 0.703,1.011 1.596,1.899 2.683,2.66 1.401,0.985 2.799,1.578 4.191,1.776 1.394,0.199 2.717,0.082 3.971,-0.352 C -1.67,5.934 -0.519,5.286 0.532,4.425 1.582,3.563 2.516,2.553 3.331,1.39 3.721,0.835 4.152,0.099 4.625,-0.817 c 0.473,-0.917 0.93,-2.065 1.37,-3.443 0.44,-1.378 0.736,-2.91 0.89,-4.595 0.152,-1.684 0.071,-3.424 -0.242,-5.219 -0.322,-1.83 -0.874,-3.468 -1.663,-4.913 -0.786,-1.445 -1.57,-2.603 -2.352,-3.477 -0.782,-0.873 -1.683,-1.773 -2.703,-2.7"
             style="fill:#231f20;fill-opacity:1;fill-rule:nonzero;stroke:none"
             id="path190"
             inkscape:connector-curvature="0" /></g><g
           id="g192"
           transform="translate(683.7217,296.7627)"><path
             d="m 0,0 c -1.505,1.769 -3.217,3.29 -5.135,4.561 -1.917,1.27 -3.823,2.02 -5.717,2.249 -1.893,0.227 -3.543,-0.256 -4.949,-1.452 -1.386,-1.177 -2.073,-2.783 -2.063,-4.813 0.011,-2.03 0.502,-4.11 1.474,-6.236 0.973,-2.128 2.088,-3.931 3.343,-5.407 1.454,-1.709 3.134,-3.187 5.04,-4.433 1.905,-1.246 3.811,-1.991 5.718,-2.236 1.906,-0.243 3.558,0.229 4.953,1.416 1.153,0.981 1.806,2.39 1.959,4.229 0.153,1.838 -0.179,3.848 -0.996,6.029 C 2.81,-3.913 1.601,-1.882 0,0 m 2.579,2.193 c 1.445,-1.7 2.525,-3.465 3.238,-5.298 0.714,-1.834 1.093,-3.652 1.136,-5.455 0.042,-1.801 -0.24,-3.462 -0.849,-4.982 -0.607,-1.518 -1.487,-2.769 -2.64,-3.749 -1.083,-0.92 -2.388,-1.573 -3.916,-1.958 -1.529,-0.386 -3.168,-0.451 -4.918,-0.197 -1.751,0.256 -3.513,0.892 -5.286,1.91 -1.773,1.018 -3.429,2.434 -4.97,4.246 -2.158,2.538 -3.539,5.098 -4.141,7.681 -0.601,2.582 -0.572,4.915 0.085,7.001 0.659,2.085 1.686,3.72 3.081,4.907 1.497,1.273 3.354,2.025 5.573,2.256 2.217,0.23 4.535,-0.179 6.951,-1.226 2.416,-1.048 4.635,-2.76 6.656,-5.136"
             style="fill:#231f20;fill-opacity:1;fill-rule:nonzero;stroke:none"
             id="path194"
             inkscape:connector-curvature="0" /></g><g
           id="g196"
           transform="translate(703.1602,316.2266)"><path
             d="m 0,0 c -1.675,1.609 -3.53,2.951 -5.565,4.024 -2.036,1.073 -4.006,1.628 -5.914,1.665 -1.907,0.04 -3.5,-0.608 -4.779,-1.938 -1.261,-1.312 -1.784,-2.978 -1.57,-4.996 0.213,-2.019 0.91,-4.039 2.091,-6.058 1.18,-2.018 2.469,-3.701 3.866,-5.044 1.618,-1.555 3.437,-2.857 5.458,-3.908 2.02,-1.049 3.991,-1.599 5.913,-1.65 1.921,-0.052 3.517,0.583 4.787,1.904 1.049,1.091 1.557,2.558 1.526,4.403 C 5.781,-9.754 5.249,-7.787 4.218,-5.699 3.186,-3.612 1.78,-1.712 0,0 m 2.347,2.441 c 1.608,-1.546 2.858,-3.195 3.752,-4.948 0.893,-1.754 1.452,-3.523 1.674,-5.312 0.224,-1.79 0.109,-3.47 -0.343,-5.042 -0.453,-1.575 -1.204,-2.905 -2.253,-3.996 -0.986,-1.024 -2.218,-1.805 -3.7,-2.34 -1.483,-0.536 -3.108,-0.765 -4.875,-0.688 -1.767,0.077 -3.583,0.535 -5.45,1.372 -1.866,0.836 -3.656,2.078 -5.37,3.726 -2.401,2.309 -4.032,4.72 -4.887,7.228 -0.858,2.509 -1.063,4.833 -0.618,6.974 0.448,2.14 1.305,3.871 2.576,5.191 1.361,1.417 3.133,2.351 5.317,2.802 2.184,0.451 4.53,0.278 7.039,-0.523 2.51,-0.801 4.889,-2.281 7.138,-4.444"
             style="fill:#231f20;fill-opacity:1;fill-rule:nonzero;stroke:none"
             id="path198"
             inkscape:connector-curvature="0" /></g><g
           id="g200"
           transform="translate(718.1934,316.7383)"><path
             d="m 0,0 -15.121,12.559 c -1.001,0.831 -1.635,1.315 -1.902,1.449 -0.267,0.137 -0.515,0.066 -0.745,-0.208 -0.152,-0.185 -0.502,-0.99 -1.048,-2.418 l -0.246,0.204 c 0.208,0.915 0.354,1.708 0.437,2.381 0.084,0.672 0.104,1.387 0.057,2.14 -0.046,0.756 -0.2,1.672 -0.459,2.751 l 0.419,0.506 L 1.922,2.313 C 2.79,1.592 3.585,1.276 4.308,1.366 5.029,1.457 5.739,1.921 6.435,2.759 L 6.68,2.555 0.61,-4.753 0.364,-4.549 C 1.756,-2.874 1.635,-1.358 0,0"
             style="fill:#231f20;fill-opacity:1;fill-rule:nonzero;stroke:none"
             id="path202"
             inkscape:connector-curvature="0" /></g><g
           id="g204"
           transform="translate(728.5312,322.7402)"><path
             d="m 0,0 c -0.317,-0.41 -0.719,-0.645 -1.202,-0.706 -0.485,-0.061 -0.925,0.062 -1.324,0.372 -0.41,0.317 -0.65,0.717 -0.72,1.199 -0.07,0.485 0.057,0.937 0.382,1.357 0.325,0.419 0.73,0.659 1.215,0.72 0.484,0.061 0.936,-0.071 1.355,-0.396 C 0.116,2.229 0.347,1.826 0.398,1.342 0.45,0.856 0.318,0.409 0,0 m -10.245,7.943 c -0.318,-0.408 -0.719,-0.643 -1.202,-0.705 -0.486,-0.061 -0.927,0.064 -1.325,0.372 -0.399,0.31 -0.638,0.71 -0.72,1.202 -0.081,0.491 0.041,0.946 0.367,1.366 0.325,0.419 0.734,0.656 1.229,0.709 0.496,0.052 0.947,-0.078 1.357,-0.397 0.409,-0.317 0.64,-0.718 0.691,-1.204 0.053,-0.485 -0.081,-0.932 -0.397,-1.343"
             style="fill:#231f20;fill-opacity:1;fill-rule:nonzero;stroke:none"
             id="path206"
             inkscape:connector-curvature="0" /></g><g
           id="g208"
           transform="translate(742.3193,343.2598)"><path
             d="m 0,0 -10.922,-15.742 c -0.09,0.871 -0.309,2.307 -0.657,4.309 -0.348,2.003 -0.733,3.959 -1.153,5.868 -0.421,1.908 -0.798,3.333 -1.131,4.274 -0.975,2.857 -1.91,4.962 -2.809,6.312 -0.896,1.349 -1.853,2.376 -2.868,3.081 -0.927,0.643 -1.869,1.066 -2.826,1.27 -0.958,0.204 -1.847,0.215 -2.668,0.033 -0.821,-0.181 -1.588,-0.519 -2.301,-1.01 C -28.047,7.903 -28.646,7.309 -29.13,6.611 -29.555,6 -29.895,5.259 -30.152,4.388 c -0.257,-0.872 -0.31,-1.85 -0.157,-2.934 0.154,-1.085 0.612,-2.158 1.377,-3.223 l -0.34,-0.49 c -0.763,0.787 -1.411,1.787 -1.945,2.997 -0.534,1.211 -0.766,2.576 -0.698,4.096 0.068,1.52 0.61,3.01 1.625,4.473 0.991,1.428 2.163,2.442 3.515,3.04 1.351,0.596 2.713,0.811 4.084,0.644 1.37,-0.167 2.623,-0.644 3.756,-1.431 1.354,-0.938 2.507,-2.227 3.462,-3.869 0.955,-1.639 1.713,-3.429 2.274,-5.37 0.56,-1.94 0.997,-3.879 1.308,-5.816 0.313,-1.938 0.611,-4.169 0.896,-6.693 l 0.099,-0.871 7.379,10.637 c 0.462,0.665 0.7,1.297 0.71,1.895 0.011,0.599 -0.17,1.27 -0.543,2.013 l 0.182,0.262 z"
             style="fill:#231f20;fill-opacity:1;fill-rule:nonzero;stroke:none"
             id="path210"
             inkscape:connector-curvature="0" /></g><g
           id="g212"
           transform="translate(742.6729,372.875)"><path
             d="m 0,0 c -2.022,1.143 -4.152,1.981 -6.391,2.514 -2.237,0.533 -4.285,0.581 -6.141,0.143 -1.857,-0.437 -3.239,-1.46 -4.148,-3.067 -0.894,-1.584 -0.988,-3.326 -0.278,-5.23 0.708,-1.902 1.886,-3.685 3.531,-5.346 1.646,-1.663 3.313,-2.971 5,-3.925 1.953,-1.105 4.039,-1.913 6.258,-2.427 2.218,-0.515 4.264,-0.558 6.138,-0.131 1.874,0.43 3.261,1.442 4.163,3.035 0.745,1.32 0.872,2.867 0.384,4.645 -0.49,1.78 -1.495,3.553 -3.012,5.318 C 3.985,-2.707 2.15,-1.216 0,0 M 1.666,2.946 C 3.608,1.85 5.23,0.562 6.531,-0.912 c 1.302,-1.476 2.283,-3.053 2.945,-4.73 0.66,-1.676 0.966,-3.333 0.92,-4.968 -0.048,-1.636 -0.445,-3.113 -1.19,-4.431 -0.698,-1.237 -1.699,-2.299 -3.002,-3.186 -1.303,-0.889 -2.819,-1.515 -4.55,-1.879 -1.731,-0.365 -3.604,-0.373 -5.619,-0.026 -2.015,0.345 -4.058,1.104 -6.128,2.274 -2.9,1.639 -5.079,3.567 -6.532,5.785 -1.454,2.217 -2.231,4.418 -2.331,6.602 -0.1,2.184 0.301,4.075 1.202,5.668 0.967,1.711 2.451,3.056 4.454,4.037 2.003,0.981 4.32,1.394 6.948,1.244 2.63,-0.153 5.302,-0.996 8.018,-2.532"
             style="fill:#231f20;fill-opacity:1;fill-rule:nonzero;stroke:none"
             id="path214"
             inkscape:connector-curvature="0" /></g><g
           id="g216"
           transform="translate(757.0947,377.0791)"><path
             d="m 0,0 -17.771,8.405 c -1.175,0.558 -1.91,0.867 -2.203,0.933 -0.292,0.063 -0.515,-0.066 -0.669,-0.39 -0.101,-0.215 -0.239,-1.083 -0.415,-2.6 l -0.287,0.134 c -0.027,0.939 -0.084,1.745 -0.169,2.415 -0.087,0.673 -0.245,1.369 -0.477,2.09 -0.233,0.719 -0.609,1.568 -1.129,2.549 L -22.84,14.13 1.285,2.719 C 2.306,2.235 3.153,2.13 3.831,2.396 4.508,2.664 5.08,3.289 5.545,4.272 L 5.833,4.137 1.771,-4.45 1.483,-4.313 C 2.415,-2.347 1.92,-0.907 0,0"
             style="fill:#231f20;fill-opacity:1;fill-rule:nonzero;stroke:none"
             id="path218"
             inkscape:connector-curvature="0" /></g><g
           id="g220"
           transform="translate(743.9072,411.9609)"><path
             d="m 0,0 1.904,-1.193 -3.737,-9.316 10.431,-6.415 c 0.198,0.993 0.465,1.91 0.801,2.747 0.564,1.406 1.399,2.57 2.505,3.491 1.107,0.921 2.347,1.498 3.719,1.727 1.372,0.229 2.693,0.09 3.962,-0.42 1.367,-0.548 2.513,-1.404 3.434,-2.568 0.92,-1.162 1.49,-2.535 1.707,-4.117 0.215,-1.582 -0.004,-3.193 -0.662,-4.831 -0.534,-1.331 -1.223,-2.399 -2.068,-3.206 -0.845,-0.804 -1.975,-1.595 -3.389,-2.374 l -1.348,0.541 c 1.046,0.538 1.986,1.163 2.821,1.872 0.836,0.71 1.54,1.779 2.113,3.209 0.534,1.332 0.676,2.54 0.425,3.627 -0.251,1.088 -0.762,2.008 -1.532,2.761 -0.772,0.752 -1.649,1.326 -2.636,1.722 -1.207,0.484 -2.388,0.68 -3.542,0.584 -1.154,-0.095 -2.183,-0.487 -3.09,-1.174 -0.905,-0.688 -1.597,-1.632 -2.077,-2.826 -0.271,-0.678 -0.445,-1.31 -0.523,-1.894 -0.076,-0.584 -0.125,-1.415 -0.143,-2.496 l -13.887,8.552 z"
             style="fill:#231f20;fill-opacity:1;fill-rule:nonzero;stroke:none"
             id="path222"
             inkscape:connector-curvature="0" /></g><g
           id="g224"
           transform="translate(257.8818,437.4805)"><path
             d="m 0,0 c 27.759,-107.816 125.635,-187.48 242.118,-187.48 116.483,0 214.359,79.664 242.118,187.48 z"
             style="fill:none;stroke:#231f20;stroke-width:1;stroke-linecap:butt;stroke-linejoin:miter;stroke-miterlimit:10;stroke-dasharray:none;stroke-opacity:1"
             id="path226"
             inkscape:connector-curvature="0" /></g><g
           id="g228"
           transform="translate(742.1182,562.5195)"><path
             d="M 0,0 C -27.76,107.816 -125.636,187.48 -242.118,187.48 -358.601,187.48 -456.477,107.816 -484.236,0 Z"
             style="fill:none;stroke:#231f20;stroke-width:1;stroke-linecap:butt;stroke-linejoin:miter;stroke-miterlimit:10;stroke-dasharray:none;stroke-opacity:1"
             id="path230"
             inkscape:connector-curvature="0" /></g><path
           d="M 242.914,448.659 H 229.89 v 107.406 h 13.024 z"
           style="fill:#000000;fill-opacity:1;fill-rule:nonzero;stroke:none"
           id="path232"
           inkscape:connector-curvature="0" /><g
           id="g234"
           transform="translate(303.2256,446.8281)"><path
             d="m 0,0 c -13.804,0 -24.123,3.394 -30.957,10.184 -6.836,6.788 -10.431,15.506 -10.787,26.155 h 12.49 c 0.668,-8.011 3.707,-13.933 9.117,-17.767 5.41,-3.835 11.944,-5.751 19.603,-5.751 7.257,0 13.101,1.636 17.533,4.908 4.43,3.272 6.645,7.717 6.645,13.334 0,5.91 -2.294,10.208 -6.879,12.895 -4.587,2.686 -12.48,5.336 -23.678,7.949 -11.198,2.613 -19.235,6.239 -24.111,10.881 -4.876,4.639 -7.313,10.817 -7.313,18.535 0,8.694 3.172,15.825 9.517,21.393 6.345,5.569 14.771,8.352 25.28,8.352 11.042,0 19.948,-2.809 26.717,-8.425 C 29.944,97.026 33.529,89.089 33.93,78.832 H 21.307 c -1.292,12.992 -9.396,19.489 -24.312,19.489 -7.214,0 -12.802,-1.491 -16.765,-4.469 -3.963,-2.98 -5.944,-6.936 -5.944,-11.87 0,-4.494 1.591,-7.864 4.776,-10.11 3.182,-2.247 9.126,-4.421 17.833,-6.52 8.704,-2.101 15.617,-4.176 20.738,-6.228 5.12,-2.051 9.506,-5.238 13.158,-9.561 3.65,-4.323 5.477,-10.124 5.477,-17.4 0,-9.231 -3.351,-16.9 -10.053,-23.005 C 19.514,3.052 10.775,0 0,0"
             style="fill:#000000;fill-opacity:1;fill-rule:nonzero;stroke:none"
             id="path236"
             inkscape:connector-curvature="0" /></g><g
           id="g238"
           transform="translate(399.8047,458.9893)"><path
             d="m 0,0 c 9.795,0 17.822,3.811 24.078,11.43 6.255,7.619 9.384,18.266 9.384,31.943 0,13.675 -3.117,24.324 -9.35,31.943 -6.235,7.62 -14.183,11.43 -23.844,11.43 -9.842,0 -17.912,-3.81 -24.212,-11.43 -6.302,-7.619 -9.451,-18.268 -9.451,-31.943 0,-13.627 3.139,-24.264 9.417,-31.907 C -17.699,3.821 -9.708,0 0,0 m 0.134,98.907 c 13.714,0 24.934,-5.08 33.662,-15.239 C 42.523,73.509 46.887,60.077 46.887,43.373 46.887,26.669 42.523,13.236 33.796,3.077 25.068,-7.082 13.848,-12.161 0.134,-12.161 c -13.759,0 -25.025,5.092 -33.796,15.275 -8.773,10.184 -13.158,23.603 -13.158,40.259 0,16.704 4.385,30.136 13.158,40.295 8.771,10.159 20.037,15.239 33.796,15.239"
             style="fill:#000000;fill-opacity:1;fill-rule:nonzero;stroke:none"
             id="path240"
             inkscape:connector-curvature="0" /></g><g
           id="g242"
           transform="translate(546.6104,508.8096)"><path
             d="m 0,0 c -0.179,12.356 -2.115,21.82 -5.811,28.39 -3.696,6.568 -8.639,9.854 -14.828,9.854 -5.432,0 -9.774,-2.394 -13.023,-7.18 -3.251,-4.787 -4.876,-10.746 -4.876,-17.876 0,-7.23 1.658,-13.151 4.975,-17.767 3.317,-4.616 7.759,-6.924 13.326,-6.924 6.901,0 13.646,3.835 20.237,11.503 m -0.134,-10.623 c -6.457,-7.815 -13.892,-11.723 -22.307,-11.723 -8.149,0 -15.04,3.26 -20.672,9.781 -5.634,6.521 -8.449,14.811 -8.449,24.874 0,10.207 2.793,18.889 8.381,26.045 5.588,7.155 13.013,10.733 22.276,10.733 10.596,0 18.835,-4.469 24.712,-13.407 5.878,-8.938 8.816,-21.833 8.816,-38.684 0,-39.319 -11.555,-58.977 -34.664,-58.977 -7.303,0 -13.503,2.246 -18.602,6.74 -5.098,4.493 -8.181,11.16 -9.25,20.001 h 12.957 c 1.07,-10.6 6.279,-15.899 15.629,-15.899 6.012,0 10.865,3.481 14.561,10.441 3.695,6.96 5.899,16.984 6.612,30.075"
             style="fill:#000000;fill-opacity:1;fill-rule:nonzero;stroke:none"
             id="path244"
             inkscape:connector-curvature="0" /></g><g
           id="g246"
           transform="translate(603.3828,457.6709)"><path
             d="m 0,0 c 6.188,0 10.887,3.271 14.093,9.817 3.206,6.545 4.808,18.12 4.808,34.728 0,16.655 -1.602,28.291 -4.808,34.911 -3.206,6.617 -7.905,9.927 -14.093,9.927 -6.146,0 -10.82,-3.31 -14.026,-9.927 -3.206,-6.62 -4.809,-18.256 -4.809,-34.911 0,-16.608 1.603,-28.183 4.809,-34.728 C -10.82,3.271 -6.146,0 0,0 m 0,100.226 c 21.283,0 31.926,-18.561 31.926,-55.681 0,-36.926 -10.643,-55.388 -31.926,-55.388 -21.239,0 -31.859,18.462 -31.859,55.388 0,37.12 10.62,55.681 31.859,55.681"
             style="fill:#000000;fill-opacity:1;fill-rule:nonzero;stroke:none"
             id="path248"
             inkscape:connector-curvature="0" /></g><g
           id="g250"
           transform="translate(679.457,457.6709)"><path
             d="m 0,0 c 6.188,0 10.887,3.271 14.093,9.817 3.206,6.545 4.808,18.12 4.808,34.728 0,16.655 -1.602,28.291 -4.808,34.911 -3.206,6.617 -7.905,9.927 -14.093,9.927 -6.145,0 -10.82,-3.31 -14.026,-9.927 -3.206,-6.62 -4.809,-18.256 -4.809,-34.911 0,-16.608 1.603,-28.183 4.809,-34.728 C -10.82,3.271 -6.145,0 0,0 m 0,100.226 c 21.283,0 31.926,-18.561 31.926,-55.681 0,-36.926 -10.643,-55.388 -31.926,-55.388 -21.239,0 -31.859,18.462 -31.859,55.388 0,37.12 10.62,55.681 31.859,55.681"
             style="fill:#000000;fill-opacity:1;fill-rule:nonzero;stroke:none"
             id="path252"
             inkscape:connector-curvature="0" /></g><g
           id="g254"
           transform="translate(768.8223,448.6592)"><path
             d="m 0,0 h -12.557 v 84.474 c -5.076,-3.712 -12.935,-5.568 -23.577,-5.568 v 10.843 c 15.363,0 24.179,6.496 26.449,19.488 H 0 Z"
             style="fill:#000000;fill-opacity:1;fill-rule:nonzero;stroke:none"
             id="path256"
             inkscape:connector-curvature="0" /></g><g
           id="g258"
           transform="translate(229.4883,562.5195)"><path
             d="M 0,0 H 539.5"
             style="fill:none;stroke:#231f20;stroke-width:3;stroke-linecap:butt;stroke-linejoin:miter;stroke-miterlimit:10;stroke-dasharray:none;stroke-opacity:1"
             id="path260"
             inkscape:connector-curvature="0" /></g><g
           id="g262"
           transform="translate(229.4883,437.4805)"><path
             d="M 0,0 H 539.5"
             style="fill:none;stroke:#231f20;stroke-width:3;stroke-linecap:butt;stroke-linejoin:miter;stroke-miterlimit:10;stroke-dasharray:none;stroke-opacity:1"
             id="path264"
             inkscape:connector-curvature="0" /></g><g
           id="g266"
           transform="translate(380.0547,600.4541)"><path
             d="M 0,0 C 0,-1.88 -0.238,-3.57 -0.714,-5.072 -1.19,-6.573 -1.819,-7.898 -2.6,-9.045 c -0.782,-1.148 -1.697,-2.124 -2.747,-2.93 -1.049,-0.806 -2.136,-1.465 -3.259,-1.978 -1.123,-0.512 -2.265,-0.891 -3.424,-1.135 -1.16,-0.244 -2.252,-0.366 -3.278,-0.366 h -36.731 v 9.521 h 36.731 c 1.831,0 3.253,0.537 4.266,1.612 1.014,1.074 1.521,2.514 1.521,4.321 0,0.879 -0.135,1.685 -0.403,2.417 -0.269,0.732 -0.654,1.367 -1.154,1.904 -0.501,0.537 -1.111,0.952 -1.831,1.245 -0.72,0.293 -1.52,0.44 -2.399,0.44 h -21.899 c -1.538,0 -3.199,0.274 -4.981,0.824 -1.782,0.549 -3.436,1.434 -4.962,2.655 -1.526,1.221 -2.795,2.82 -3.808,4.797 -1.014,1.978 -1.52,4.395 -1.52,7.251 0,2.857 0.506,5.267 1.52,7.233 1.013,1.965 2.282,3.564 3.808,4.797 1.526,1.233 3.18,2.125 4.962,2.673 1.782,0.55 3.443,0.825 4.981,0.825 h 32.41 v -9.522 h -32.41 c -1.807,0 -3.217,-0.549 -4.23,-1.648 -1.013,-1.099 -1.52,-2.551 -1.52,-4.358 0,-1.831 0.507,-3.277 1.52,-4.34 1.013,-1.061 2.423,-1.592 4.23,-1.592 h 21.899 0.074 c 1.025,-0.025 2.111,-0.165 3.259,-0.421 1.147,-0.257 2.289,-0.654 3.424,-1.191 1.135,-0.537 2.216,-1.215 3.241,-2.032 1.025,-0.818 1.935,-1.801 2.728,-2.948 C -1.789,7.861 -1.16,6.542 -0.696,5.054 -0.232,3.564 0,1.88 0,0"
             style="fill:#000000;fill-opacity:1;fill-rule:nonzero;stroke:none"
             id="path268"
             inkscape:connector-curvature="0" /></g><path
           d="m 431.141,606.46 h -30.066 v 9.595 h 30.066 z M 435.426,585 h -34.351 c -1.318,0 -2.759,0.232 -4.321,0.696 -1.563,0.463 -3.009,1.227 -4.339,2.288 -1.332,1.063 -2.442,2.442 -3.333,4.139 -0.892,1.696 -1.337,3.777 -1.337,6.244 v 34.35 c 0,0.659 0.122,1.282 0.366,1.868 0.244,0.586 0.58,1.099 1.008,1.538 0.426,0.439 0.933,0.781 1.519,1.025 0.586,0.244 1.221,0.367 1.904,0.367 h 42.884 v -9.522 h -38.159 v -29.626 c 0,-1.245 0.329,-2.198 0.988,-2.857 0.66,-0.659 1.624,-0.989 2.893,-0.989 h 34.278 z"
           style="fill:#000000;fill-opacity:1;fill-rule:nonzero;stroke:none"
           id="path270"
           inkscape:connector-curvature="0" /><g
           id="g272"
           transform="translate(453.1504,607.4121)"><path
             d="M 0,0 H 33.472 V 20.581 H 16.736 c -0.293,0 -0.91,-0.043 -1.849,-0.128 C 13.946,20.367 12.86,20.154 11.627,19.812 10.394,19.47 9.094,18.945 7.727,18.237 6.359,17.529 5.103,16.553 3.955,15.308 2.807,14.063 1.861,12.506 1.117,10.639 0.372,8.771 0,6.506 0,3.845 Z M 42.993,-22.412 H 33.472 V -9.521 H 0 V -22.412 H -9.521 V 3.845 c 0,3.833 0.659,7.361 1.977,10.584 1.318,3.222 3.149,5.993 5.493,8.313 2.344,2.319 5.114,4.125 8.313,5.42 3.198,1.294 6.689,1.941 10.474,1.941 h 21.46 c 0.659,0 1.282,-0.123 1.867,-0.367 0.586,-0.244 1.099,-0.586 1.539,-1.025 0.439,-0.44 0.781,-0.952 1.025,-1.538 0.244,-0.586 0.366,-1.209 0.366,-1.868 z"
             style="fill:#000000;fill-opacity:1;fill-rule:nonzero;stroke:none"
             id="path274"
             inkscape:connector-curvature="0" /></g><g
           id="g276"
           transform="translate(555.4326,585)"><path
             d="m 0,0 h -43.433 c -0.683,0 -1.318,0.122 -1.904,0.366 -0.586,0.244 -1.093,0.58 -1.519,1.007 -0.428,0.427 -0.764,0.934 -1.007,1.52 -0.244,0.586 -0.366,1.221 -0.366,1.904 v 47.718 h 9.521 V 9.521 H 0 Z"
             style="fill:#000000;fill-opacity:1;fill-rule:nonzero;stroke:none"
             id="path278"
             inkscape:connector-curvature="0" /></g><g
           id="g280"
           transform="translate(570.96,607.4121)"><path
             d="M 0,0 H 33.472 V 20.581 H 16.736 c -0.293,0 -0.91,-0.043 -1.849,-0.128 C 13.946,20.367 12.86,20.154 11.627,19.812 10.395,19.47 9.095,18.945 7.728,18.237 6.359,17.529 5.103,16.553 3.955,15.308 2.808,14.063 1.861,12.506 1.117,10.639 0.372,8.771 0,6.506 0,3.845 Z M 42.993,-22.412 H 33.472 V -9.521 H 0 V -22.412 H -9.521 V 3.845 c 0,3.833 0.659,7.361 1.977,10.584 1.318,3.222 3.149,5.993 5.493,8.313 2.344,2.319 5.114,4.125 8.314,5.42 3.198,1.294 6.688,1.941 10.473,1.941 h 21.46 c 0.659,0 1.282,-0.123 1.867,-0.367 0.586,-0.244 1.099,-0.586 1.539,-1.025 0.439,-0.44 0.781,-0.952 1.025,-1.538 0.244,-0.586 0.366,-1.209 0.366,-1.868 z"
             style="fill:#000000;fill-opacity:1;fill-rule:nonzero;stroke:none"
             id="path282"
             inkscape:connector-curvature="0" /></g><g
           id="g284"
           transform="translate(667.8965,598.3667)"><path
             d="m 0,0 c 0,1.245 -0.196,2.362 -0.586,3.351 -0.391,0.988 -0.94,1.836 -1.648,2.545 -0.708,0.708 -1.563,1.251 -2.564,1.63 -1.001,0.378 -2.124,0.567 -3.369,0.567 h -21.46 v 9.595 h 17.176 c 1.245,0 2.367,0.189 3.369,0.567 1.001,0.379 1.854,0.922 2.563,1.63 0.708,0.708 1.251,1.557 1.63,2.545 0.378,0.989 0.568,2.106 0.568,3.351 v 1.795 c 0,1.367 -0.659,2.05 -1.978,2.05 H -33.436 V -3.845 h 31.421 c 0.171,0 0.379,0.012 0.623,0.036 0.244,0.024 0.463,0.098 0.66,0.22 0.195,0.122 0.366,0.33 0.512,0.623 0.147,0.293 0.22,0.695 0.22,1.208 z m 9.521,-1.831 c 0,-1.172 -0.201,-2.43 -0.604,-3.772 -0.402,-1.343 -1.062,-2.588 -1.978,-3.735 -0.915,-1.148 -2.105,-2.106 -3.57,-2.875 -1.465,-0.769 -3.26,-1.154 -5.384,-1.154 h -36.144 c -0.684,0 -1.319,0.122 -1.904,0.367 -0.586,0.243 -1.093,0.579 -1.52,1.006 -0.428,0.428 -0.764,0.934 -1.008,1.52 -0.244,0.586 -0.366,1.221 -0.366,1.905 v 42.92 c 0,0.659 0.122,1.281 0.366,1.867 0.244,0.586 0.58,1.099 1.008,1.538 0.427,0.44 0.934,0.782 1.52,1.026 0.585,0.243 1.22,0.366 1.904,0.366 h 31.86 c 1.172,0 2.429,-0.208 3.772,-0.623 C -1.185,38.11 0.066,37.445 1.227,36.53 2.386,35.614 3.351,34.424 4.12,32.959 4.889,31.494 5.273,29.7 5.273,27.576 V 25.781 C 5.273,24.097 4.992,22.284 4.431,20.343 3.869,18.402 2.966,16.565 1.721,14.832 2.795,14.172 3.802,13.379 4.742,12.451 5.682,11.523 6.506,10.449 7.214,9.229 7.922,8.007 8.483,6.628 8.898,5.09 9.313,3.552 9.521,1.855 9.521,0 Z"
             style="fill:#000000;fill-opacity:1;fill-rule:nonzero;stroke:none"
             id="path286"
             inkscape:connector-curvature="0" /></g></g></g></g></svg>