<?xml version="1.0" encoding="UTF-8"?>
<svg width="383px" height="79px" viewBox="0 0 383 79" version="1.1" xmlns="http://www.w3.org/2000/svg" xmlns:xlink="http://www.w3.org/1999/xlink">
    <!-- Generator: Sketch 57.1 (83088) - https://sketch.com -->
    <title>sintef_hovedlogo-eps_pms295</title>
    <desc>Created with Sketch.</desc>
    <defs>
        <polygon id="path-1" points="0 0.171 382.264 0.171 382.264 78.94 0 78.94"></polygon>
    </defs>
    <g id="sintef_hovedlogo-eps_pms295" stroke="none" stroke-width="1" fill="none" fill-rule="evenodd">
        <path d="M147.238,30.203 C138.813,27.298 133.794,26.176 128.859,26.176 C123.668,26.176 119.898,28.075 119.898,30.321 C119.898,37.121 149.127,35.657 149.127,51.372 C149.127,60.021 140.516,64.144 127.583,64.144 C117.456,64.144 112.436,62.093 106.65,59.784 L106.65,50.077 C114.988,54.371 120.094,55.889 126.476,55.889 C132.008,55.889 135.285,53.322 135.285,50.68 C135.285,43.285 106.207,45.994 106.207,29.815 C106.207,22.022 114.139,17.922 127.583,17.922 C134.049,17.922 139.92,18.977 147.238,21.422 L147.238,30.203" id="Fill-1" fill="#00416E"></path>
        <polygon id="Fill-2" fill="#00416E" points="159.921 63.549 172.137 63.549 172.137 18.516 159.921 18.516"></polygon>
        <polyline id="Fill-3" fill="#00416E" points="197.415 63.549 184.751 63.549 184.751 18.516 196.374 18.516 223.737 46.65 223.737 18.516 235.952 18.516 235.952 63.549 225.735 63.549 197.415 33.943 197.415 63.549"></polyline>
        <polyline id="Fill-4" fill="#00416E" points="335.083 63.549 296.221 63.549 296.221 18.516 335.124 18.516 335.124 26.318 308.286 26.318 308.286 36.363 332.465 36.363 332.465 44.316 308.286 44.316 308.286 55.594 335.083 55.594 335.083 63.549"></polyline>
        <g id="Group-8">
            <mask id="mask-2" fill="white">
                <use xlink:href="#path-1"></use>
            </mask>
            <g id="Clip-6"></g>
            <polyline id="Fill-5" fill="#00416E" mask="url(#mask-2)" points="382.264 26.318 355.098 26.318 355.098 36.956 379.395 36.956 379.395 44.912 355.098 44.912 355.098 63.549 343.036 63.549 343.036 18.516 382.264 18.516 382.264 26.318"></polyline>
            <path d="M38.333,72.423 C39.197,72.458 40.084,72.476 40.992,72.476 C70.337,72.476 77.475,53.249 77.475,37.396 C77.475,22.333 71.029,4.223 45.212,2.457 L43.65,6.751 C42.785,6.715 41.898,6.696 40.992,6.696 C11.646,6.696 4.508,25.923 4.508,41.777 C4.508,56.839 10.953,74.951 36.773,76.715 L38.333,72.423 Z M81.984,39.586 C81.984,57.398 73.964,79 40.992,79 C8.02,79 0,57.398 0,39.586 C0,21.773 8.02,0.171 40.992,0.171 C73.964,0.171 81.984,21.773 81.984,39.586 L81.984,39.586 Z" id="Fill-7" fill="#00416E" mask="url(#mask-2)"></path>
        </g>
        <path d="M39.933,16.956 C20.046,17.411 15.166,30.748 15.166,41.777 C15.166,52.898 20.131,66.37 40.452,66.604 L42.049,62.216 C61.936,61.762 66.816,48.426 66.816,37.396 C66.816,26.273 61.852,12.803 41.531,12.568 L39.933,16.956 Z M72.146,39.586 C72.146,52.767 66.05,68.755 40.992,68.755 C15.933,68.755 9.838,52.767 9.838,39.586 C9.838,26.405 15.933,10.419 40.992,10.419 C66.05,10.419 72.146,26.405 72.146,39.586 L72.146,39.586 Z" id="Fill-9" fill="#00416E"></path>
        <path d="M43.631,57.866 L46.212,50.779 C48.307,45.023 47.131,41.232 40.992,39.586 C34.852,37.941 33.676,34.15 35.771,28.393 L38.352,21.307 C39.193,21.244 40.072,21.211 40.992,21.211 C57.147,21.211 61.078,31.282 61.078,39.586 C61.078,47.418 57.58,56.82 43.631,57.866" id="Fill-10" fill="#00416E"></path>
        <polyline id="Fill-11" fill="#00416E" points="272.18 63.549 272.18 26.469 290.036 26.469 290.036 18.516 242.036 18.516 242.036 26.469 260.022 26.469 260.022 63.549 272.18 63.549"></polyline>
    </g>
</svg>