<?xml version="1.0" encoding="UTF-8" standalone="no"?>
<!-- Created with Inkscape (http://www.inkscape.org/) -->

<svg
   xmlns:dc="http://purl.org/dc/elements/1.1/"
   xmlns:cc="http://creativecommons.org/ns#"
   xmlns:rdf="http://www.w3.org/1999/02/22-rdf-syntax-ns#"
   xmlns:svg="http://www.w3.org/2000/svg"
   xmlns="http://www.w3.org/2000/svg"
   xmlns:sodipodi="http://sodipodi.sourceforge.net/DTD/sodipodi-0.dtd"
   xmlns:inkscape="http://www.inkscape.org/namespaces/inkscape"
   version="1.1"
   id="svg2"
   xml:space="preserve"
   width="807"
   height="807"
   viewBox="0 0 807.00003 807.00003"
   sodipodi:docname="SEALAB_ISO_14001_ECO-GREEN_2017_outlined.ai"
   inkscape:version="0.92.3 (d244b95, 2018-08-02)"><metadata
     id="metadata8"><rdf:RDF><cc:Work
         rdf:about=""><dc:format>image/svg+xml</dc:format><dc:type
           rdf:resource="http://purl.org/dc/dcmitype/StillImage" /><dc:title></dc:title></cc:Work></rdf:RDF></metadata><defs
     id="defs6"><clipPath
       clipPathUnits="userSpaceOnUse"
       id="clipPath18"><path
         d="M 0,1000 H 1000 V 0 H 0 Z"
         id="path16"
         inkscape:connector-curvature="0" /></clipPath></defs><sodipodi:namedview
     pagecolor="#ffffff"
     bordercolor="#666666"
     borderopacity="1"
     objecttolerance="10"
     gridtolerance="10"
     guidetolerance="10"
     inkscape:pageopacity="0"
     inkscape:pageshadow="2"
     inkscape:window-width="1397"
     inkscape:window-height="995"
     id="namedview4"
     showgrid="false"
     inkscape:zoom="0.17700001"
     inkscape:cx="666.66663"
     inkscape:cy="666.66663"
     inkscape:window-x="277"
     inkscape:window-y="257"
     inkscape:window-maximized="0"
     inkscape:current-layer="g10" /><g
     id="g10"
     inkscape:groupmode="layer"
     inkscape:label="SEALAB_ISO_14001_ECO-GREEN_2017_outlined"
     transform="matrix(1.3333333,0,0,-1.3333333,0,807.00005)"><g
       id="g12"
       transform="translate(-191.3346,-148.27496)"><g
         id="g14"
         clip-path="url(#clipPath18)"><g
           id="g20"
           transform="translate(246.7964,569.2539)"><path
             d="m 0,0 c -2.71,1.159 -5.132,1.757 -7.265,1.794 -2.133,0.039 -3.942,-0.3 -5.427,-1.012 -1.486,-0.714 -2.688,-1.602 -3.609,-2.665 -0.921,-1.064 -1.632,-2.18 -2.132,-3.35 -0.516,-1.208 -0.838,-2.524 -0.966,-3.948 -0.129,-1.424 0.073,-2.931 0.603,-4.52 0.53,-1.59 1.526,-3.119 2.988,-4.589 1.463,-1.471 3.463,-2.749 6.001,-3.833 2.476,-1.059 4.75,-1.645 6.821,-1.758 2.072,-0.113 3.898,0.162 5.48,0.827 0.983,0.425 1.869,0.964 2.658,1.617 0.788,0.654 1.473,1.393 2.052,2.216 0.578,0.824 1.053,1.673 1.425,2.548 0.67,1.565 1.006,3.152 1.01,4.76 C 9.642,-10.304 9.301,-8.8 8.617,-7.399 7.074,-4.263 4.202,-1.796 0,0 m 15.645,-1.596 0.459,0.307 c 0.849,-1.762 1.455,-3.392 1.822,-4.889 0.365,-1.496 0.256,-2.928 -0.329,-4.296 -0.185,-0.431 -0.405,-0.847 -0.663,-1.246 -0.258,-0.4 -0.639,-0.882 -1.142,-1.446 -0.505,-0.564 -1.152,-1.194 -1.946,-1.89 -1.362,-1.21 -3.285,-2.849 -5.775,-4.919 -0.035,-0.014 -0.177,-0.127 -0.43,-0.34 C 6.875,-21.226 6.3,-21.88 5.918,-22.278 5.537,-22.676 4.963,-23.163 4.2,-23.74 c -0.764,-0.577 -1.668,-1.098 -2.711,-1.562 -1.044,-0.465 -2.195,-0.821 -3.452,-1.071 -0.973,-0.195 -1.994,-0.292 -3.063,-0.286 -1.068,0.005 -2.128,0.116 -3.18,0.332 -1.051,0.217 -2.026,0.517 -2.926,0.901 -2.698,1.154 -4.859,2.872 -6.484,5.155 -1.625,2.283 -2.577,4.792 -2.858,7.528 -0.281,2.735 0.121,5.372 1.206,7.91 0.833,1.945 1.994,3.639 3.483,5.079 1.49,1.439 3.178,2.531 5.063,3.278 1.885,0.745 3.855,1.109 5.909,1.091 2.054,-0.019 4.06,-0.447 6.019,-1.283 1.921,-0.822 3.635,-2.011 5.143,-3.565 1.505,-1.555 2.643,-3.363 3.407,-5.424 0.343,-0.934 0.588,-1.76 0.734,-2.478 0.144,-0.717 0.227,-1.39 0.251,-2.019 0.022,-0.629 0.002,-1.265 -0.062,-1.908 -0.065,-0.643 -0.148,-1.256 -0.25,-1.838 l 0.092,-0.04 c 0.032,0.074 0.266,0.287 0.709,0.637 1.637,1.238 2.717,2.189 3.242,2.854 0.525,0.664 0.975,1.44 1.355,2.327 0.469,1.097 0.676,2.061 0.624,2.893 -0.053,0.83 -0.297,1.944 -0.735,3.34 0.011,0.025 0.001,0.077 -0.032,0.156 -0.031,0.079 -0.045,0.125 -0.039,0.137"
             style="fill:#009f4e;fill-opacity:1;fill-rule:nonzero;stroke:none"
             id="path22"
             inkscape:connector-curvature="0" /></g><g
           id="g24"
           transform="translate(277.5249,593.9736)"><path
             d="m 0,0 -3.139,-5.358 -4.231,2.48 -0.121,-0.046 c 1.289,-1.75 1.901,-3.595 1.835,-5.536 -0.067,-1.941 -0.572,-3.715 -1.512,-5.322 -1.064,-1.815 -2.455,-3.194 -4.172,-4.136 -1.718,-0.943 -3.411,-1.382 -5.082,-1.319 -1.186,0.043 -2.305,0.286 -3.356,0.732 -1.052,0.446 -2.103,0.976 -3.155,1.593 l -12.709,7.449 c -0.763,0.447 -1.495,0.669 -2.194,0.668 -0.7,-10e-4 -1.435,-0.553 -2.205,-1.655 l -0.294,0.173 4.705,8.028 0.295,-0.173 c -0.553,-1.26 -0.652,-2.212 -0.298,-2.853 0.353,-0.642 0.865,-1.16 1.535,-1.553 l 12.501,-7.327 c 2.543,-1.49 4.574,-2.331 6.093,-2.522 1.619,-0.204 3.118,0.036 4.498,0.718 1.379,0.683 2.48,1.73 3.307,3.14 0.345,0.59 0.651,1.35 0.918,2.281 0.265,0.931 0.362,1.891 0.29,2.881 -0.205,2.962 -1.903,5.378 -5.092,7.248 l -13.958,8.18 c -0.705,0.414 -1.424,0.617 -2.157,0.612 -0.733,-0.005 -1.504,-0.578 -2.313,-1.719 l -0.295,0.172 4.787,8.167 0.295,-0.172 c -0.633,-1.214 -0.748,-2.164 -0.343,-2.852 0.404,-0.687 0.913,-1.21 1.525,-1.569 L -4.691,-0.931 c 0.67,-0.393 1.265,-0.59 1.784,-0.592 0.52,-0.002 0.977,0.15 1.372,0.454 0.396,0.304 0.816,0.714 1.259,1.231 z"
             style="fill:#009f4e;fill-opacity:1;fill-rule:nonzero;stroke:none"
             id="path26"
             inkscape:connector-curvature="0" /></g><g
           id="g28"
           transform="translate(272.374,608.9868)"><path
             d="M 0,0 5.66,7.538 -8.472,12.115 -8.52,12.051 Z m -9.426,15.496 25.604,-8.14 c 1.332,-0.414 2.358,-0.631 3.079,-0.653 0.721,-0.022 1.257,0.074 1.609,0.287 0.353,0.213 0.728,0.538 1.125,0.978 L 22.248,7.775 16.443,0.044 16.187,0.237 c 0.595,0.793 0.979,1.461 1.15,2.002 0.173,0.541 -0.074,1.061 -0.738,1.56 -0.366,0.273 -0.928,0.537 -1.693,0.792 -0.117,0.021 -0.198,0.048 -0.24,0.081 L 6.8,7.284 0.647,-0.913 5.054,-7.161 c 0.599,-0.853 1.14,-1.46 1.623,-1.821 0.663,-0.499 1.231,-0.665 1.699,-0.498 0.47,0.167 0.934,0.556 1.392,1.167 l 0.256,-0.193 -4.174,-5.561 -0.257,0.193 c 0.52,0.849 0.694,1.711 0.522,2.586 -0.173,0.875 -0.668,1.896 -1.485,3.062 l -15.358,21.985 z"
             style="fill:#009f4e;fill-opacity:1;fill-rule:nonzero;stroke:none"
             id="path30"
             inkscape:connector-curvature="0" /></g><g
           id="g32"
           transform="translate(295.4468,617.9141)"><path
             d="M 0,0 0.27,0.298 C 0.756,0.834 0.974,1.5 0.925,2.294 0.875,3.089 0.469,3.832 -0.296,4.524 l -16.568,14.998 c -0.914,0.827 -1.76,1.171 -2.534,1.034 -0.776,-0.139 -1.46,-0.517 -2.056,-1.135 l -0.254,0.23 6.352,7.017 0.253,-0.229 c -0.537,-0.634 -0.849,-1.347 -0.932,-2.138 -0.084,-0.792 0.342,-1.61 1.275,-2.454 L 1.257,7.348 C 2.21,6.484 3.087,6.125 3.885,6.269 c 0.8,0.144 1.69,0.757 2.669,1.84 l 1.713,1.892 c 0.747,0.825 1.243,1.573 1.49,2.245 0.246,0.671 0.296,1.335 0.15,1.991 -0.147,0.658 -0.459,1.472 -0.933,2.445 l 0.229,0.253 2.85,-4.099 L 0.239,-0.216 Z"
             style="fill:#009f4e;fill-opacity:1;fill-rule:nonzero;stroke:none"
             id="path34"
             inkscape:connector-curvature="0" /></g><g
           id="g36"
           transform="translate(295.3975,660.2344)"><path
             d="m 0,0 0.238,-0.245 c -0.633,-0.617 -0.996,-1.319 -1.092,-2.104 -0.094,-0.785 0.261,-1.59 1.066,-2.414 l 15.695,-16.079 c 0.795,-0.815 1.608,-1.178 2.439,-1.088 0.828,0.089 1.532,0.415 2.108,0.976 l 0.224,-0.23 -6.717,-6.556 -0.224,0.231 c 0.614,0.599 0.967,1.296 1.062,2.09 0.096,0.795 -0.264,1.609 -1.079,2.443 L -1.974,-6.897 c -0.861,0.882 -1.673,1.268 -2.437,1.159 -0.765,-0.109 -1.453,-0.464 -2.067,-1.062 l -0.238,0.244 z"
             style="fill:#009f4e;fill-opacity:1;fill-rule:nonzero;stroke:none"
             id="path38"
             inkscape:connector-curvature="0" /></g><g
           id="g40"
           transform="translate(321.7295,675.4185)"><path
             d="M 0,0 -0.245,-0.207 C -1.6,1.175 -2.833,1.77 -3.95,1.577 -5.064,1.384 -6.171,0.826 -7.269,-0.096 l -4.508,-3.787 15.99,-19.035 c 1.353,-1.611 2.873,-1.752 4.557,-0.425 l 0.207,-0.246 -7.217,-6.063 -0.208,0.246 c 0.66,0.59 1.067,1.267 1.219,2.034 0.152,0.767 -0.147,1.596 -0.896,2.489 l -15.991,19.035 -4.509,-3.788 c -1.098,-0.922 -1.835,-1.914 -2.213,-2.974 -0.377,-1.062 -0.007,-2.382 1.111,-3.963 l -0.246,-0.207 -4.654,5.54 0.246,0.207 c 0.381,-0.119 0.683,-0.188 0.91,-0.208 0.226,-0.019 0.473,0.009 0.741,0.086 0.269,0.076 0.549,0.207 0.841,0.391 0.292,0.183 0.616,0.426 0.975,0.727 L -6.233,2.296 c 0.975,0.819 1.419,1.83 1.334,3.037 l 0.246,0.207 z"
             style="fill:#009f4e;fill-opacity:1;fill-rule:nonzero;stroke:none"
             id="path42"
             inkscape:connector-curvature="0" /></g><g
           id="g44"
           transform="translate(343.5435,697.3452)"><path
             d="m 0,0 0.191,-0.283 c -0.726,-0.507 -1.26,-1.119 -1.608,-1.838 -0.346,-0.72 -0.559,-1.369 -0.637,-1.946 -0.078,-0.579 -0.128,-1.247 -0.15,-2.005 l 0.099,-12.497 6.637,-9.826 c 0.592,-0.876 1.301,-1.356 2.124,-1.438 0.823,-0.083 1.615,0.116 2.373,0.596 l 0.181,-0.266 -7.777,-5.254 -0.18,0.267 c 0.773,0.554 1.246,1.201 1.417,1.94 0.172,0.738 -0.044,1.558 -0.652,2.457 l -6.357,9.409 -12.567,5.141 c -1.348,0.56 -2.399,0.829 -3.152,0.805 -0.752,-0.023 -1.585,-0.327 -2.5,-0.912 l -0.19,0.283 8.709,5.884 0.192,-0.284 c -0.867,-0.633 -1.307,-1.209 -1.32,-1.727 -0.014,-0.519 0.085,-0.933 0.295,-1.244 0.24,-0.356 0.794,-0.709 1.662,-1.06 l 10.231,-4.124 -0.082,9.887 c -0.002,1.487 -0.187,2.502 -0.554,3.047 -0.255,0.377 -0.545,0.609 -0.871,0.696 -0.326,0.087 -0.605,0.101 -0.839,0.04 -0.234,-0.061 -0.471,-0.141 -0.713,-0.239 l -0.191,0.283 z"
             style="fill:#009f4e;fill-opacity:1;fill-rule:nonzero;stroke:none"
             id="path46"
             inkscape:connector-curvature="0" /></g><g
           id="g48"
           transform="translate(389.167,719.9414)"><path
             d="m 0,0 0.14,-0.312 c -0.486,-0.292 -0.829,-0.508 -1.03,-0.65 -0.2,-0.142 -0.389,-0.377 -0.565,-0.705 -0.273,-0.506 -0.398,-0.921 -0.374,-1.25 0.022,-0.328 0.178,-0.844 0.467,-1.552 0.013,-0.126 0.063,-0.236 0.149,-0.33 l 9.957,-19.629 c 0.404,-0.832 0.934,-1.468 1.586,-1.908 0.654,-0.441 1.619,-0.381 2.896,0.178 l 0.132,-0.293 -8.742,-3.934 -0.133,0.293 c 1.094,0.639 1.72,1.321 1.879,2.046 0.158,0.726 -0.052,1.649 -0.63,2.77 l -10.271,20.325 -0.073,-0.033 1.531,-28.866 -19.673,19.621 -0.074,-0.033 7.64,-19.57 c 0.423,-1.073 0.855,-1.859 1.293,-2.36 0.439,-0.501 0.909,-0.788 1.413,-0.863 0.504,-0.075 1.168,0 1.992,0.225 l 0.133,-0.294 -6.8,-3.06 -0.132,0.294 c 0.863,0.402 1.43,0.907 1.7,1.514 0.269,0.606 0.339,1.244 0.207,1.912 -0.131,0.667 -0.396,1.543 -0.796,2.627 l -7.826,20.28 c -0.034,0.074 -0.165,0.171 -0.397,0.295 -0.232,0.123 -0.498,0.231 -0.797,0.324 -0.299,0.094 -0.571,0.151 -0.816,0.173 -0.531,0.07 -0.959,0.057 -1.283,-0.037 -0.325,-0.095 -0.77,-0.248 -1.337,-0.459 l -0.139,0.312 6.266,2.821 18.296,-18.323 -1.454,25.903 z"
             style="fill:#009f4e;fill-opacity:1;fill-rule:nonzero;stroke:none"
             id="path50"
             inkscape:connector-curvature="0" /></g><g
           id="g52"
           transform="translate(406.6587,708.3848)"><path
             d="M 0,0 8.997,2.809 0.207,14.781 0.129,14.757 Z M 1.407,18.082 17.426,-3.486 c 0.838,-1.114 1.545,-1.89 2.117,-2.329 0.572,-0.439 1.063,-0.675 1.474,-0.708 0.41,-0.033 0.904,0.012 1.483,0.137 l 0.096,-0.307 -9.228,-2.882 -0.095,0.308 c 0.946,0.295 1.647,0.612 2.103,0.951 0.455,0.339 0.559,0.905 0.312,1.698 -0.136,0.434 -0.439,0.978 -0.91,1.632 -0.083,0.086 -0.132,0.155 -0.148,0.206 L 9.774,1.936 -0.009,-1.119 -0.085,-8.764 c -0.012,-1.043 0.073,-1.851 0.253,-2.427 0.248,-0.793 0.609,-1.259 1.088,-1.397 0.479,-0.139 1.082,-0.094 1.81,0.134 l 0.097,-0.307 -6.638,-2.072 -0.095,0.307 c 0.918,0.384 1.563,0.983 1.935,1.794 0.37,0.81 0.566,1.927 0.585,3.351 l 0.385,26.817 z"
             style="fill:#009f4e;fill-opacity:1;fill-rule:nonzero;stroke:none"
             id="path54"
             inkscape:connector-curvature="0" /></g><g
           id="g56"
           transform="translate(455.0708,736.8193)"><path
             d="m 0,0 0.063,-0.335 c -0.72,-0.231 -1.275,-0.482 -1.668,-0.753 -0.393,-0.271 -0.654,-0.709 -0.787,-1.313 -0.132,-0.605 -0.099,-1.433 0.099,-2.487 l 4.787,-25.52 -0.197,-0.037 -27.016,20.737 3.356,-17.896 c 0.28,-1.488 0.547,-2.583 0.801,-3.285 0.254,-0.702 0.522,-1.19 0.805,-1.464 0.616,-0.594 1.535,-0.803 2.756,-0.628 l 0.06,-0.316 -7.289,-1.367 -0.06,0.315 c 0.81,0.193 1.413,0.487 1.808,0.882 0.396,0.394 0.613,1.021 0.65,1.88 0.036,0.858 -0.102,2.118 -0.412,3.777 l -3.561,18.982 -1.172,0.906 c -1.038,0.813 -1.838,1.3 -2.4,1.461 -0.562,0.16 -1.236,0.234 -2.026,0.223 l -0.063,0.336 5.472,1.026 26.628,-20.523 -3.523,18.784 c -0.264,1.409 -0.518,2.452 -0.761,3.13 -0.243,0.676 -0.644,1.18 -1.204,1.511 -0.56,0.331 -1.356,0.421 -2.39,0.267 l -0.063,0.336 z"
             style="fill:#009f4e;fill-opacity:1;fill-rule:nonzero;stroke:none"
             id="path58"
             inkscape:connector-curvature="0" /></g><g
           id="g60"
           transform="translate(466.3149,721.1812)"><path
             d="M 0,0 9.398,0.721 3.515,14.358 3.435,14.352 Z M 5.425,17.306 16.201,-7.305 c 0.567,-1.273 1.082,-2.188 1.541,-2.743 0.459,-0.556 0.884,-0.897 1.277,-1.021 0.392,-0.124 0.885,-0.191 1.476,-0.199 l 0.026,-0.321 -9.639,-0.739 -0.025,0.321 c 0.99,0.076 1.743,0.227 2.263,0.455 0.52,0.228 0.749,0.757 0.685,1.585 -0.034,0.453 -0.208,1.052 -0.521,1.794 -0.061,0.103 -0.094,0.181 -0.098,0.235 L 9.96,-0.305 -0.259,-1.088 -2.047,-8.522 c -0.245,-1.013 -0.345,-1.82 -0.3,-2.421 0.064,-0.829 0.314,-1.364 0.749,-1.606 0.435,-0.243 1.034,-0.334 1.795,-0.276 l 0.024,-0.32 -6.931,-0.532 -0.026,0.321 c 0.981,0.168 1.744,0.607 2.288,1.314 0.543,0.707 0.984,1.752 1.321,3.135 l 6.388,26.048 z"
             style="fill:#009f4e;fill-opacity:1;fill-rule:nonzero;stroke:none"
             id="path62"
             inkscape:connector-curvature="0" /></g><g
           id="g64"
           transform="translate(513.1475,732.4834)"><path
             d="m 0,0 -0.322,0.004 c -0.4,1.936 -1.518,3.45 -3.352,4.541 -1.832,1.092 -3.935,1.654 -6.306,1.688 -1.232,0.018 -2.558,-0.154 -3.977,-0.515 -1.418,-0.362 -2.806,-1.035 -4.159,-2.021 -1.354,-0.985 -2.488,-2.426 -3.399,-4.322 -0.912,-1.896 -1.389,-4.292 -1.43,-7.185 -0.066,-4.609 0.955,-8.308 3.066,-11.099 2.11,-2.791 5.543,-4.22 10.299,-4.289 1.877,-0.027 3.257,0.081 4.145,0.322 0.888,0.242 1.459,0.583 1.714,1.021 0.253,0.438 0.385,1.033 0.397,1.784 l 0.079,5.425 c 0.018,1.286 -0.247,2.141 -0.798,2.564 -0.551,0.423 -1.38,0.71 -2.49,0.86 l 0.006,0.342 9.625,-0.139 -0.005,-0.341 c -0.886,-0.082 -1.572,-0.263 -2.059,-0.544 -0.486,-0.282 -0.812,-0.648 -0.98,-1.101 -0.167,-0.454 -0.256,-1.055 -0.267,-1.805 l -0.119,-8.24 c -2.959,-0.747 -6.005,-1.099 -9.14,-1.054 -1.621,0.023 -3.22,0.181 -4.797,0.471 -1.578,0.291 -3.216,0.911 -4.918,1.86 -1.701,0.949 -3.195,2.337 -4.482,4.165 -1.93,2.747 -2.871,5.836 -2.821,9.266 0.029,1.996 0.429,3.933 1.199,5.812 0.771,1.878 1.866,3.553 3.289,5.027 1.42,1.474 3.148,2.628 5.184,3.463 2.035,0.835 4.286,1.234 6.751,1.199 0.952,-0.014 1.88,-0.091 2.791,-0.231 0.908,-0.14 2.265,-0.418 4.067,-0.832 0.708,-0.171 1.215,-0.259 1.524,-0.263 0.657,-0.01 1.143,0.312 1.46,0.963 L 0.098,6.792 Z"
             style="fill:#009f4e;fill-opacity:1;fill-rule:nonzero;stroke:none"
             id="path66"
             inkscape:connector-curvature="0" /></g><g
           id="g68"
           transform="translate(520.8779,737.3955)"><path
             d="m 0,0 0.041,0.339 17.506,-2.222 -0.588,-4.626 -0.279,0.036 c 0.314,2.472 -1.177,3.917 -4.472,4.336 L 6.087,-1.36 4.393,-14.698 9.775,-15.381 c 1.064,-0.136 2.037,-0.084 2.917,0.155 0.881,0.24 1.46,0.97 1.737,2.191 l 0.3,-0.038 -0.846,-6.659 -0.299,0.038 c -0.023,0.773 -0.176,1.383 -0.456,1.83 -0.281,0.448 -0.576,0.759 -0.886,0.933 -0.308,0.174 -0.589,0.278 -0.841,0.309 -0.468,0.141 -0.962,0.245 -1.481,0.31 l -5.642,0.716 -1.323,-10.427 c -0.1,-0.784 -0.036,-1.48 0.191,-2.09 0.225,-0.61 0.883,-0.984 1.974,-1.122 l 4.366,-0.554 c 1.05,-0.133 1.934,-0.09 2.651,0.129 0.716,0.22 1.305,0.577 1.765,1.072 0.462,0.496 0.874,1.111 1.239,1.849 l 0.279,-0.035 -1.603,-4.477 -17.504,2.222 0.041,0.32 0.399,-0.051 c 0.624,-0.079 1.268,0.095 1.93,0.525 0.662,0.429 1.065,1.214 1.211,2.358 l 2.81,22.13 c 0.114,0.904 0.012,1.714 -0.309,2.43 -0.321,0.715 -0.987,1.138 -1.997,1.266 z"
             style="fill:#009f4e;fill-opacity:1;fill-rule:nonzero;stroke:none"
             id="path70"
             inkscape:connector-curvature="0" /></g><g
           id="g72"
           transform="translate(574.75,727.6489)"><path
             d="m 0,0 -0.078,-0.333 c -0.564,0.064 -0.967,0.102 -1.213,0.112 -0.246,0.009 -0.538,-0.063 -0.878,-0.216 C -2.691,-0.672 -3.045,-0.926 -3.226,-1.199 -3.407,-1.473 -3.6,-1.978 -3.802,-2.716 -3.868,-2.824 -3.896,-2.941 -3.885,-3.068 L -7.945,-24.7 c -0.188,-0.906 -0.155,-1.732 0.094,-2.48 0.25,-0.747 1.052,-1.288 2.406,-1.622 l -0.075,-0.313 -9.33,2.206 0.075,0.313 c 1.256,-0.16 2.169,0 2.737,0.478 0.566,0.479 0.963,1.339 1.187,2.579 l 4.237,22.376 -0.078,0.019 -16.371,-23.823 -3.649,27.544 -0.078,0.019 -5.864,-20.175 c -0.318,-1.108 -0.454,-1.995 -0.411,-2.659 0.042,-0.664 0.24,-1.179 0.595,-1.545 0.354,-0.366 0.925,-0.711 1.716,-1.036 l -0.074,-0.313 -7.256,1.716 0.074,0.313 c 0.929,-0.206 1.687,-0.15 2.27,0.166 0.584,0.316 1.028,0.779 1.33,1.389 0.303,0.61 0.625,1.466 0.968,2.569 l 6.148,20.85 c 0.02,0.079 -0.025,0.236 -0.135,0.476 -0.109,0.238 -0.254,0.486 -0.433,0.743 -0.181,0.255 -0.362,0.467 -0.543,0.634 -0.378,0.379 -0.725,0.629 -1.039,0.751 -0.317,0.123 -0.762,0.274 -1.34,0.451 l 0.078,0.333 6.689,-1.581 3.347,-25.677 14.626,21.427 z"
             style="fill:#009f4e;fill-opacity:1;fill-rule:nonzero;stroke:none"
             id="path74"
             inkscape:connector-curvature="0" /></g><g
           id="g76"
           transform="translate(580.4219,725.2832)"><path
             d="m 0,0 0.113,0.322 16.644,-5.86 -1.549,-4.398 -0.266,0.094 c 0.828,2.35 -0.325,4.077 -3.459,5.181 l -5.82,2.049 -4.465,-12.682 5.117,-1.802 c 1.012,-0.356 1.973,-0.51 2.885,-0.462 0.912,0.049 1.631,0.641 2.159,1.776 l 0.285,-0.1 -2.229,-6.332 -0.284,0.1 c 0.14,0.76 0.118,1.389 -0.061,1.885 -0.181,0.498 -0.404,0.864 -0.67,1.099 -0.264,0.235 -0.516,0.396 -0.755,0.48 -0.429,0.236 -0.89,0.441 -1.383,0.614 l -5.365,1.889 -3.49,-9.915 c -0.262,-0.745 -0.347,-1.439 -0.255,-2.083 0.093,-0.644 0.658,-1.148 1.695,-1.512 l 4.151,-1.462 c 0.998,-0.352 1.871,-0.496 2.618,-0.432 0.745,0.064 1.398,0.289 1.953,0.676 0.554,0.387 1.087,0.902 1.599,1.546 l 0.266,-0.093 -2.509,-4.038 -16.644,5.859 0.107,0.304 0.38,-0.134 c 0.592,-0.209 1.258,-0.173 1.997,0.107 0.737,0.279 1.298,0.963 1.68,2.05 l 7.409,21.042 c 0.303,0.859 0.372,1.672 0.209,2.44 -0.163,0.768 -0.725,1.321 -1.684,1.659 z"
             style="fill:#009f4e;fill-opacity:1;fill-rule:nonzero;stroke:none"
             id="path78"
             inkscape:connector-curvature="0" /></g><g
           id="g80"
           transform="translate(630.3262,704.771)"><path
             d="m 0,0 -0.146,-0.308 c -0.718,0.236 -1.317,0.359 -1.793,0.37 -0.476,0.01 -0.946,-0.19 -1.407,-0.602 -0.463,-0.412 -0.923,-1.102 -1.379,-2.071 l -11.103,-23.472 -0.183,0.086 -9.7,32.646 -7.787,-16.459 c -0.648,-1.369 -1.074,-2.412 -1.28,-3.129 -0.206,-0.718 -0.276,-1.271 -0.207,-1.659 0.15,-0.842 0.771,-1.55 1.862,-2.126 l -0.137,-0.291 -6.704,3.171 0.138,0.291 c 0.768,-0.319 1.429,-0.435 1.98,-0.348 0.554,0.087 1.096,0.467 1.631,1.142 0.532,0.673 1.16,1.773 1.883,3.299 l 8.258,17.459 -0.417,1.42 c -0.364,1.269 -0.725,2.133 -1.086,2.593 -0.36,0.459 -0.864,0.916 -1.509,1.369 l 0.147,0.309 5.031,-2.38 9.512,-32.247 8.173,17.278 c 0.615,1.296 1.021,2.289 1.222,2.979 0.2,0.691 0.172,1.335 -0.088,1.931 -0.259,0.597 -0.851,1.137 -1.779,1.621 l 0.146,0.308 z"
             style="fill:#009f4e;fill-opacity:1;fill-rule:nonzero;stroke:none"
             id="path82"
             inkscape:connector-curvature="0" /></g><g
           id="g84"
           transform="translate(653.3965,683.7651)"><path
             d="m 0,0 -0.273,0.17 c 0.895,1.716 1.078,3.074 0.547,4.074 -0.529,1 -1.401,1.88 -2.619,2.637 L -7.343,9.993 -20.482,-11.11 c -1.113,-1.786 -0.777,-3.274 1.008,-4.464 l -0.171,-0.273 -8.001,4.982 0.17,0.272 c 0.766,-0.444 1.536,-0.62 2.312,-0.527 0.775,0.093 1.472,0.635 2.089,1.624 l 13.138,21.104 -4.999,3.112 c -1.216,0.758 -2.386,1.152 -3.512,1.182 -1.126,0.03 -2.268,-0.732 -3.423,-2.284 l -0.273,0.169 3.824,6.142 0.273,-0.169 c 0.004,-0.398 0.033,-0.708 0.085,-0.929 0.051,-0.221 0.154,-0.448 0.311,-0.68 0.156,-0.231 0.367,-0.456 0.63,-0.677 0.265,-0.221 0.597,-0.454 0.996,-0.702 L 0.25,6.638 C 1.33,5.966 2.432,5.857 3.551,6.312 l 0.272,-0.17 z"
             style="fill:#009f4e;fill-opacity:1;fill-rule:nonzero;stroke:none"
             id="path86"
             inkscape:connector-curvature="0" /></g><g
           id="g88"
           transform="translate(679.7471,663.0527)"><path
             d="m 0,0 -0.246,0.207 c 0.775,1.22 1.1,2.585 0.975,4.096 -0.125,1.51 -0.856,2.825 -2.191,3.942 -0.874,0.731 -1.821,1.174 -2.845,1.33 C -5.328,9.731 -6.32,9.609 -7.283,9.209 -8.247,8.81 -9.111,8.153 -9.876,7.238 c -0.593,-0.71 -1.01,-1.431 -1.248,-2.166 -0.238,-0.735 -0.318,-1.493 -0.239,-2.276 0.079,-0.782 0.259,-1.6 0.54,-2.455 0.281,-0.855 0.687,-1.977 1.22,-3.365 0.9,-2.308 1.432,-4.303 1.597,-5.986 0.164,-1.683 -0.415,-3.316 -1.74,-4.899 -0.807,-0.966 -1.837,-1.69 -3.087,-2.173 -1.251,-0.482 -2.62,-0.59 -4.108,-0.323 -1.489,0.267 -2.979,1.023 -4.469,2.269 -0.935,0.783 -1.679,1.575 -2.231,2.377 -0.552,0.801 -1.046,1.692 -1.486,2.671 -0.223,0.36 -0.391,0.588 -0.503,0.682 -0.217,0.181 -0.423,0.222 -0.618,0.124 -0.195,-0.098 -0.564,-0.358 -1.107,-0.777 l -0.263,0.219 4.758,5.689 0.262,-0.219 c -1.022,-1.975 -1.357,-3.835 -1.001,-5.582 0.356,-1.747 1.3,-3.261 2.83,-4.541 1.152,-0.963 2.255,-1.519 3.309,-1.667 1.056,-0.149 1.974,-0.026 2.757,0.367 0.782,0.393 1.432,0.898 1.948,1.515 1.066,1.274 1.548,2.639 1.446,4.095 -0.101,1.456 -0.589,3.266 -1.468,5.433 -0.591,1.507 -1.01,2.645 -1.259,3.412 -0.25,0.767 -0.425,1.639 -0.527,2.614 -0.101,0.975 -0.012,1.953 0.266,2.934 0.279,0.981 0.807,1.934 1.579,2.859 0.895,1.069 2.031,1.855 3.413,2.359 1.383,0.504 2.838,0.617 4.372,0.34 C -3.4,10.491 -1.977,9.802 -0.661,8.702 0.335,7.868 1.217,6.843 1.981,5.627 2.076,5.407 2.263,5.182 2.541,4.95 2.881,4.666 3.304,4.704 3.814,5.062 L 4.062,4.857 Z"
             style="fill:#009f4e;fill-opacity:1;fill-rule:nonzero;stroke:none"
             id="path90"
             inkscape:connector-curvature="0" /></g><g
           id="g92"
           transform="translate(706.7139,644.8281)"><path
             d="M 0,0 -0.242,-0.242 C -0.877,0.374 -1.579,0.784 -2.353,0.988 -3.125,1.192 -3.802,1.277 -4.384,1.245 -4.967,1.211 -5.633,1.133 -6.381,1.01 l -12.25,-2.469 -8.386,-8.383 c -0.75,-0.749 -1.086,-1.534 -1.009,-2.359 0.074,-0.824 0.421,-1.564 1.036,-2.217 l -0.227,-0.228 -6.635,6.638 0.227,0.228 c 0.69,-0.654 1.416,-0.995 2.175,-1.024 0.757,-0.028 1.519,0.341 2.288,1.108 l 8.03,8.028 2.66,13.314 c 0.295,1.431 0.36,2.514 0.194,3.248 -0.166,0.734 -0.622,1.494 -1.372,2.281 l 0.242,0.241 7.431,-7.434 -0.242,-0.241 c -0.786,0.729 -1.434,1.051 -1.946,0.967 -0.512,-0.086 -0.901,-0.261 -1.166,-0.526 -0.304,-0.303 -0.545,-0.914 -0.725,-1.833 L -18.163,-0.479 -8.47,1.48 c 1.459,0.283 2.421,0.658 2.885,1.122 0.321,0.321 0.495,0.651 0.519,0.987 0.024,0.336 -0.016,0.614 -0.121,0.832 -0.104,0.218 -0.227,0.435 -0.369,0.654 l 0.242,0.241 z"
             style="fill:#009f4e;fill-opacity:1;fill-rule:nonzero;stroke:none"
             id="path94"
             inkscape:connector-curvature="0" /></g><g
           id="g96"
           transform="translate(713.9258,627.2559)"><path
             d="M 0,0 -0.207,0.246 C 0.769,1.313 1.326,2.602 1.465,4.11 1.604,5.62 1.113,7.041 -0.009,8.373 -0.742,9.244 -1.6,9.846 -2.578,10.177 -3.558,10.508 -4.557,10.56 -5.574,10.334 -6.593,10.107 -7.558,9.61 -8.47,8.842 -9.176,8.247 -9.712,7.607 -10.074,6.926 -10.438,6.244 -10.647,5.511 -10.706,4.727 -10.764,3.942 -10.729,3.104 -10.6,2.214 c 0.128,-0.89 0.334,-2.066 0.619,-3.526 0.485,-2.428 0.662,-4.485 0.532,-6.172 -0.131,-1.685 -0.985,-3.194 -2.563,-4.522 -0.965,-0.811 -2.102,-1.346 -3.419,-1.604 -1.314,-0.258 -2.681,-0.126 -4.101,0.394 -1.42,0.522 -2.755,1.526 -4.007,3.011 -0.784,0.933 -1.38,1.843 -1.784,2.728 -0.405,0.886 -0.739,1.849 -1,2.888 -0.156,0.394 -0.282,0.648 -0.377,0.76 -0.182,0.215 -0.377,0.291 -0.587,0.228 -0.21,-0.062 -0.619,-0.253 -1.226,-0.571 l -0.219,0.261 5.671,4.776 0.22,-0.261 c -1.348,-1.767 -2,-3.541 -1.953,-5.324 0.047,-1.782 0.713,-3.437 1.999,-4.964 0.966,-1.147 1.956,-1.886 2.969,-2.215 1.013,-0.33 1.938,-0.369 2.778,-0.118 0.839,0.252 1.567,0.636 2.182,1.155 1.27,1.069 1.982,2.33 2.135,3.781 0.153,1.452 -0.015,3.32 -0.503,5.606 -0.32,1.587 -0.537,2.779 -0.648,3.579 -0.112,0.798 -0.134,1.687 -0.064,2.665 0.069,0.979 0.327,1.926 0.77,2.843 0.446,0.918 1.129,1.765 2.053,2.542 1.065,0.897 2.321,1.474 3.77,1.73 1.449,0.257 2.903,0.115 4.364,-0.424 C -1.528,10.921 -0.246,9.996 0.859,8.684 1.696,7.69 2.386,6.528 2.928,5.197 2.984,4.964 3.129,4.71 3.36,4.433 3.646,4.094 4.07,4.059 4.636,4.324 L 4.843,4.078 Z"
             style="fill:#009f4e;fill-opacity:1;fill-rule:nonzero;stroke:none"
             id="path98"
             inkscape:connector-curvature="0" /></g><g
           id="g100"
           transform="translate(731.9697,602.2412)"><path
             d="M 0,0 -0.185,0.263 C 1.31,1.493 2.009,2.671 1.913,3.798 1.816,4.926 1.356,6.076 0.533,7.25 l -3.384,4.819 -20.344,-14.286 c -1.723,-1.209 -1.994,-2.71 -0.818,-4.503 l -0.262,-0.185 -5.417,7.714 0.262,0.185 c 0.531,-0.708 1.172,-1.172 1.921,-1.39 0.751,-0.218 1.603,0.008 2.558,0.679 l 20.345,14.286 -3.384,4.819 c -0.823,1.173 -1.747,1.994 -2.773,2.462 -1.023,0.467 -2.37,0.212 -4.043,-0.765 l -0.184,0.263 5.921,4.158 0.185,-0.263 c -0.151,-0.368 -0.246,-0.664 -0.285,-0.888 -0.04,-0.224 -0.033,-0.473 0.021,-0.747 0.052,-0.274 0.158,-0.564 0.317,-0.87 0.156,-0.307 0.37,-0.652 0.64,-1.036 L 2.827,6.011 C 3.558,4.97 4.528,4.44 5.736,4.42 L 5.921,4.157 Z"
             style="fill:#009f4e;fill-opacity:1;fill-rule:nonzero;stroke:none"
             id="path102"
             inkscape:connector-curvature="0" /></g><g
           id="g104"
           transform="translate(738.5078,601.7251)"><path
             d="m 0,0 0.297,0.17 8.784,-15.302 -4.044,-2.322 -0.14,0.244 c 2.162,1.241 2.415,3.302 0.761,6.184 l -3.072,5.351 -11.66,-6.695 2.702,-4.705 c 0.533,-0.929 1.161,-1.674 1.884,-2.233 0.721,-0.559 1.654,-0.58 2.794,-0.064 l 0.15,-0.261 -5.82,-3.342 -0.151,0.261 c 0.602,0.485 0.997,0.974 1.186,1.468 0.185,0.494 0.257,0.917 0.209,1.268 -0.046,0.352 -0.133,0.638 -0.261,0.858 -0.169,0.459 -0.385,0.914 -0.645,1.368 l -2.832,4.932 -9.115,-5.233 c -0.686,-0.394 -1.205,-0.864 -1.553,-1.413 -0.35,-0.548 -0.25,-1.298 0.297,-2.251 l 2.19,-3.817 c 0.527,-0.918 1.095,-1.597 1.701,-2.036 0.609,-0.439 1.249,-0.694 1.921,-0.763 0.674,-0.068 1.415,-0.026 2.221,0.128 l 0.14,-0.244 -4.536,-1.423 -8.784,15.303 0.278,0.161 0.201,-0.349 c 0.312,-0.546 0.839,-0.954 1.582,-1.223 0.742,-0.27 1.612,-0.118 2.612,0.457 l 19.346,11.106 c 0.791,0.453 1.374,1.024 1.752,1.712 0.376,0.688 0.311,1.474 -0.194,2.357 z"
             style="fill:#009f4e;fill-opacity:1;fill-rule:nonzero;stroke:none"
             id="path106"
             inkscape:connector-curvature="0" /></g><g
           id="g108"
           transform="translate(763.2227,552.873)"><path
             d="M 0,0 -0.313,-0.138 C -0.602,0.349 -0.815,0.694 -0.955,0.896 -1.096,1.098 -1.33,1.288 -1.657,1.466 -2.16,1.742 -2.575,1.871 -2.902,1.85 -3.23,1.83 -3.749,1.678 -4.46,1.395 -4.586,1.383 -4.696,1.334 -4.79,1.249 l -19.705,-9.807 c -0.835,-0.397 -1.475,-0.921 -1.921,-1.571 -0.444,-0.65 -0.394,-1.616 0.157,-2.896 l -0.295,-0.13 -3.865,8.772 0.294,0.13 c 0.629,-1.099 1.308,-1.73 2.032,-1.894 0.723,-0.165 1.648,0.038 2.773,0.608 l 20.404,10.115 -0.032,0.072 -28.876,-1.307 19.77,19.521 -0.032,0.073 -19.629,-7.488 c -1.076,-0.416 -1.865,-0.841 -2.369,-1.276 -0.505,-0.434 -0.796,-0.902 -0.874,-1.405 -0.078,-0.504 -0.009,-1.169 0.209,-1.995 l -0.294,-0.13 -3.007,6.823 0.294,0.129 c 0.396,-0.864 0.897,-1.435 1.501,-1.71 0.605,-0.275 1.24,-0.349 1.91,-0.223 0.669,0.127 1.546,0.385 2.634,0.777 l 20.339,7.669 c 0.073,0.033 0.172,0.165 0.298,0.396 0.125,0.23 0.236,0.496 0.331,0.793 0.095,0.299 0.155,0.571 0.18,0.815 0.073,0.531 0.064,0.959 -0.029,1.284 -0.092,0.325 -0.241,0.772 -0.448,1.34 l 0.313,0.138 2.772,-6.289 -18.463,-18.155 25.914,1.254 z"
             style="fill:#009f4e;fill-opacity:1;fill-rule:nonzero;stroke:none"
             id="path110"
             inkscape:connector-curvature="0" /></g><g
           id="g112"
           transform="translate(794.0596,451)"><path
             d="m 0,0 c 0,-165.686 -134.314,-300 -300,-300 -165.686,0 -300,134.314 -300,300 0,165.686 134.314,300 300,300 C -134.314,300 0,165.686 0,0 Z"
             style="fill:none;stroke:#009f4e;stroke-width:5;stroke-linecap:butt;stroke-linejoin:miter;stroke-miterlimit:10;stroke-dasharray:none;stroke-opacity:1"
             id="path114"
             inkscape:connector-curvature="0" /></g><g
           id="g116"
           transform="translate(251.3018,342.0146)"><path
             d="M 0,0 -0.123,0.316 C 1.122,1.071 2.01,2.14 2.541,3.521 3.072,4.903 3.293,6.34 3.205,7.829 3.117,9.318 2.849,10.64 2.401,11.79 c -0.611,1.572 -1.516,2.919 -2.715,4.041 -1.199,1.121 -2.596,1.95 -4.192,2.482 -1.597,0.533 -3.348,0.749 -5.254,0.649 -1.905,-0.099 -3.848,-0.535 -5.828,-1.305 -1.918,-0.746 -3.592,-1.707 -5.022,-2.883 -1.43,-1.176 -2.547,-2.515 -3.352,-4.018 -0.805,-1.503 -1.252,-3.054 -1.34,-4.657 -0.09,-1.603 0.189,-3.232 0.833,-4.89 0.539,-1.386 1.413,-2.798 2.621,-4.237 1.208,-1.44 2.728,-2.572 4.559,-3.399 l -1.058,-0.411 c -1.914,1.151 -3.434,2.293 -4.56,3.43 -1.126,1.137 -2.086,2.725 -2.881,4.766 -0.837,2.153 -1.208,4.271 -1.113,6.352 0.094,2.082 0.572,3.995 1.432,5.74 0.859,1.744 2.002,3.258 3.427,4.538 1.425,1.281 3.022,2.266 4.792,2.954 2.66,1.036 5.387,1.341 8.181,0.917 2.792,-0.422 5.289,-1.496 7.491,-3.219 2.201,-1.721 3.813,-3.894 4.833,-6.517 0.631,-1.621 1.06,-3.441 1.291,-5.461 L 4.758,4.522 C 4.829,4.122 4.914,3.793 5.016,3.533 5.203,3.05 5.399,2.756 5.604,2.65 5.809,2.545 6.114,2.521 6.519,2.579 L 6.635,2.282 Z"
             style="fill:#009f4e;fill-opacity:1;fill-rule:nonzero;stroke:none"
             id="path118"
             inkscape:connector-curvature="0" /></g><g
           id="g120"
           transform="translate(258.0229,342.7197)"><path
             d="m 0,0 0.302,0.152 7.83,-15.634 -4.131,-2.07 -0.125,0.248 c 2.208,1.108 2.575,3.133 1.101,6.076 l -2.738,5.467 -11.913,-5.967 2.408,-4.807 c 0.475,-0.949 1.055,-1.722 1.738,-2.315 0.683,-0.592 1.604,-0.667 2.761,-0.221 l 0.134,-0.267 -5.948,-2.979 -0.133,0.267 c 0.623,0.446 1.041,0.908 1.255,1.386 0.212,0.477 0.306,0.893 0.279,1.243 -0.027,0.35 -0.097,0.639 -0.21,0.863 -0.142,0.463 -0.329,0.927 -0.562,1.39 l -2.524,5.04 -9.313,-4.666 c -0.701,-0.351 -1.239,-0.787 -1.616,-1.309 -0.376,-0.523 -0.321,-1.272 0.167,-2.245 l 1.953,-3.899 c 0.47,-0.939 0.993,-1.642 1.568,-2.11 0.577,-0.469 1.196,-0.757 1.858,-0.863 0.662,-0.107 1.397,-0.106 2.205,0 l 0.125,-0.248 -4.569,-1.152 -7.83,15.635 0.285,0.142 0.178,-0.355 c 0.279,-0.559 0.778,-0.991 1.498,-1.301 0.718,-0.307 1.588,-0.206 2.609,0.307 l 19.766,9.898 c 0.807,0.404 1.417,0.938 1.83,1.596 0.411,0.659 0.391,1.44 -0.06,2.343 z"
             style="fill:#009f4e;fill-opacity:1;fill-rule:nonzero;stroke:none"
             id="path122"
             inkscape:connector-curvature="0" /></g><g
           id="g124"
           transform="translate(258.1982,312.457)"><path
             d="m 0,0 0.879,-1.425 c 0.92,-1.491 1.889,-2.581 2.908,-3.271 1.019,-0.69 2.058,-1.004 3.12,-0.943 1.061,0.063 2.168,0.45 3.321,1.16 0.96,0.592 1.783,1.366 2.467,2.318 0.683,0.953 1.055,2.083 1.114,3.39 0.059,1.309 -0.393,2.742 -1.355,4.301 -0.391,0.633 -0.762,1.121 -1.114,1.464 z m 8.775,12.177 -0.209,0.339 0.356,0.219 5.333,-8.644 C 15.112,2.7 15.625,1.39 15.792,0.159 15.958,-1.072 15.877,-2.16 15.546,-3.104 15.217,-4.048 14.756,-4.863 14.165,-5.549 13.573,-6.233 12.921,-6.795 12.209,-7.235 11.305,-7.792 10.321,-8.139 9.257,-8.271 8.193,-8.406 7.119,-8.266 6.036,-7.848 4.952,-7.434 3.941,-6.703 3.001,-5.662 L 2.934,-5.703 C 3.131,-7.641 2.546,-9.904 1.18,-12.495 l -2.422,-4.608 c -1.079,-2.069 -1.655,-3.551 -1.727,-4.446 -0.072,-0.894 0.048,-1.658 0.362,-2.293 l -0.272,-0.167 -2.802,4.542 c 0.129,0.346 0.258,0.675 0.386,0.987 0.126,0.313 0.26,0.646 0.402,0.998 0.1,0.217 0.254,0.543 0.463,0.975 0.208,0.434 0.322,0.687 0.339,0.76 L -1,-9.721 c 0.637,1.219 1.075,2.336 1.315,3.35 0.24,1.014 0.329,1.876 0.265,2.585 -0.063,0.71 -0.195,1.304 -0.396,1.781 -0.201,0.477 -0.482,1.009 -0.845,1.597 l -9.135,-5.637 c -1.774,-1.096 -2.132,-2.564 -1.073,-4.406 l -0.272,-0.167 -4.904,7.949 0.272,0.167 c 0.328,-0.483 0.693,-0.866 1.094,-1.149 0.401,-0.284 0.881,-0.428 1.439,-0.436 0.558,-0.006 1.176,0.2 1.854,0.618 L 7.496,8.18 C 8.49,8.795 9.041,9.469 9.147,10.207 9.255,10.944 9.13,11.6 8.775,12.177"
             style="fill:#009f4e;fill-opacity:1;fill-rule:nonzero;stroke:none"
             id="path126"
             inkscape:connector-curvature="0" /></g><g
           id="g128"
           transform="translate(289.7324,281.9434)"><path
             d="M 0,0 -0.191,0.254 C 1.25,1.519 1.907,2.707 1.776,3.822 1.646,4.936 1.155,6.062 0.303,7.198 l -3.501,4.668 -19.71,-14.781 c -1.667,-1.251 -1.89,-2.745 -0.669,-4.485 l -0.255,-0.192 -5.604,7.474 0.255,0.19 c 0.547,-0.684 1.195,-1.123 1.946,-1.316 0.75,-0.193 1.587,0.058 2.511,0.752 l 19.71,14.78 -3.501,4.668 c -0.853,1.138 -1.793,1.921 -2.822,2.353 -1.03,0.431 -2.356,0.136 -3.981,-0.883 l -0.191,0.255 5.736,4.301 0.19,-0.253 c -0.138,-0.371 -0.223,-0.667 -0.255,-0.889 -0.031,-0.223 -0.016,-0.47 0.044,-0.739 0.061,-0.269 0.175,-0.553 0.341,-0.852 0.166,-0.299 0.389,-0.634 0.667,-1.007 L 2.613,6.042 C 3.37,5.034 4.348,4.538 5.545,4.556 l 0.19,-0.254 z"
             style="fill:#009f4e;fill-opacity:1;fill-rule:nonzero;stroke:none"
             id="path130"
             inkscape:connector-curvature="0" /></g><g
           id="g132"
           transform="translate(301.5039,277.4912)"><path
             d="m 0,0 -0.256,-0.222 c -0.575,0.661 -1.249,1.06 -2.02,1.198 -0.772,0.138 -1.588,-0.168 -2.45,-0.918 l -16.791,-14.623 c -0.851,-0.742 -1.255,-1.526 -1.213,-2.351 0.042,-0.826 0.324,-1.541 0.847,-2.142 l -0.24,-0.209 -6.108,7.015 0.24,0.209 c 0.558,-0.641 1.228,-1.03 2.009,-1.169 0.781,-0.14 1.607,0.171 2.478,0.93 L -6.713,2.341 c 0.921,0.803 1.349,1.584 1.284,2.346 -0.066,0.762 -0.377,1.464 -0.935,2.104 l 0.256,0.224 z"
             style="fill:#009f4e;fill-opacity:1;fill-rule:nonzero;stroke:none"
             id="path134"
             inkscape:connector-curvature="0" /></g><g
           id="g136"
           transform="translate(302.6528,275.5566)"><path
             d="m 0,0 0.241,0.238 12.351,-12.548 -3.179,-3.128 -0.224,0.227 c 0.597,0.699 0.946,1.514 1.048,2.442 0.1,0.928 -0.351,1.904 -1.358,2.925 l -4.945,5.025 -9.467,-9.32 4.611,-4.683 c 0.875,-0.889 1.653,-1.315 2.334,-1.278 0.681,0.037 1.39,0.324 2.127,0.863 l 0.223,-0.228 -4.741,-4.666 -0.223,0.227 c 0.54,0.644 0.836,1.323 0.889,2.035 0.053,0.714 -0.363,1.519 -1.248,2.419 l -4.611,4.683 -7.621,-7.504 c -0.691,-0.679 -1.051,-1.425 -1.081,-2.237 -0.03,-0.811 0.229,-1.496 0.779,-2.054 l 0.294,-0.298 -0.227,-0.224 -6.637,6.741 0.227,0.224 0.28,-0.284 c 0.558,-0.567 1.235,-0.829 2.029,-0.784 0.793,0.045 1.531,0.404 2.212,1.074 l 15.811,15.565 c 0.898,0.885 1.311,1.692 1.237,2.42 -0.074,0.728 -0.358,1.343 -0.852,1.845 z"
             style="fill:#009f4e;fill-opacity:1;fill-rule:nonzero;stroke:none"
             id="path138"
             inkscape:connector-curvature="0" /></g><g
           id="g140"
           transform="translate(324.127,255.3174)"><path
             d="M 0,0 -0.227,-0.253 C -0.878,0.335 -1.596,0.648 -2.378,0.692 -3.161,0.734 -3.934,0.331 -4.697,-0.517 l -14.888,-16.556 c -0.755,-0.84 -1.061,-1.667 -0.919,-2.483 0.142,-0.815 0.509,-1.488 1.101,-2.021 l -0.212,-0.236 -6.917,6.218 0.214,0.237 c 0.631,-0.568 1.343,-0.874 2.135,-0.916 0.792,-0.043 1.575,0.366 2.347,1.224 L -6.949,1.507 c 0.818,0.908 1.147,1.736 0.99,2.484 -0.157,0.748 -0.552,1.407 -1.184,1.977 l 0.227,0.251 z"
             style="fill:#009f4e;fill-opacity:1;fill-rule:nonzero;stroke:none"
             id="path142"
             inkscape:connector-curvature="0" /></g><g
           id="g144"
           transform="translate(325.519,253.5244)"><path
             d="m 0,0 0.211,0.266 13.688,-10.881 -2.875,-3.618 -0.218,0.174 c 1.536,1.933 1.016,3.924 -1.561,5.973 l -4.787,3.805 -8.291,-10.429 4.209,-3.348 c 0.832,-0.659 1.682,-1.116 2.551,-1.366 0.87,-0.251 1.737,0.071 2.598,0.964 l 0.234,-0.186 -4.139,-5.208 -0.234,0.186 c 0.377,0.667 0.562,1.262 0.554,1.786 -0.008,0.524 -0.098,0.938 -0.27,1.244 -0.172,0.308 -0.357,0.538 -0.554,0.696 -0.324,0.36 -0.689,0.701 -1.095,1.023 l -4.412,3.507 -6.481,-8.152 c -0.488,-0.614 -0.793,-1.238 -0.914,-1.871 -0.122,-0.632 0.244,-1.287 1.097,-1.965 l 3.414,-2.714 c 0.82,-0.653 1.591,-1.071 2.311,-1.252 0.72,-0.183 1.402,-0.184 2.048,0 0.646,0.182 1.312,0.492 1.999,0.929 l 0.218,-0.172 -3.658,-2.97 -13.687,10.882 0.198,0.248 0.312,-0.247 c 0.488,-0.389 1.123,-0.572 1.905,-0.548 0.781,0.022 1.527,0.481 2.238,1.376 L 0.366,-4.563 c 0.562,0.707 0.89,1.445 0.987,2.216 0.096,0.773 -0.251,1.472 -1.041,2.1 z"
             style="fill:#009f4e;fill-opacity:1;fill-rule:nonzero;stroke:none"
             id="path146"
             inkscape:connector-curvature="0" /></g><g
           id="g148"
           transform="translate(345.5151,236.8262)"><path
             d="m 0,0 -12.641,-19.504 c -0.621,-0.958 -0.925,-1.762 -0.911,-2.412 0.014,-0.65 0.301,-1.25 0.861,-1.803 0.559,-0.552 1.462,-1.233 2.711,-2.042 1.782,-1.155 3.4,-1.954 4.853,-2.399 1.453,-0.443 3.147,-0.429 5.082,0.041 1.432,0.354 2.826,1.017 4.184,1.987 1.357,0.973 2.635,2.382 3.834,4.232 0.946,1.459 1.677,3.04 2.193,4.738 0.515,1.698 0.71,3.38 0.586,5.044 -0.131,1.871 -0.709,3.646 -1.734,5.324 C 7.993,-5.117 6.433,-3.6 4.337,-2.242 3.257,-1.542 1.812,-0.794 0,0 m -4.59,4.233 0.184,0.283 9.476,-6.14 c 1.326,-0.861 2.475,-1.768 3.447,-2.722 0.971,-0.953 1.777,-1.908 2.418,-2.859 0.64,-0.953 1.136,-1.865 1.49,-2.735 0.354,-0.871 0.602,-1.684 0.744,-2.44 0.275,-1.286 0.376,-2.581 0.305,-3.89 -0.072,-1.305 -0.314,-2.575 -0.727,-3.81 -0.413,-1.236 -0.984,-2.418 -1.713,-3.543 -0.73,-1.125 -1.557,-2.107 -2.481,-2.948 -0.925,-0.84 -1.918,-1.53 -2.979,-2.069 -1.06,-0.539 -2.167,-0.933 -3.318,-1.183 -1.152,-0.251 -2.374,-0.362 -3.667,-0.329 -1.094,0.045 -2.248,0.254 -3.461,0.629 -1.212,0.375 -2.693,1.128 -4.442,2.262 l -11.047,7.16 0.173,0.268 0.334,-0.218 c 0.769,-0.497 1.53,-0.579 2.284,-0.246 0.755,0.334 1.341,0.824 1.76,1.471 l 12.046,18.584 c 0.404,0.624 0.64,1.214 0.709,1.77 0.068,0.558 -0.009,1.042 -0.232,1.456 -0.222,0.413 -0.546,0.758 -0.968,1.033 z"
             style="fill:#009f4e;fill-opacity:1;fill-rule:nonzero;stroke:none"
             id="path150"
             inkscape:connector-curvature="0" /></g><g
           id="g152"
           transform="translate(398.9624,203.4395)"><path
             d="m 0,0 -0.292,0.128 c 0.64,1.807 0.63,3.166 -0.027,4.073 -0.659,0.908 -1.637,1.651 -2.936,2.225 l -5.337,2.36 -9.965,-22.53 c -0.844,-1.906 -0.308,-3.319 1.608,-4.239 l -0.128,-0.292 -8.543,3.778 0.129,0.292 c 0.813,-0.33 1.593,-0.397 2.341,-0.197 0.749,0.198 1.357,0.826 1.824,1.882 l 9.966,22.532 -5.337,2.36 c -1.299,0.574 -2.503,0.798 -3.611,0.672 -1.11,-0.127 -2.123,-1.032 -3.042,-2.717 l -0.291,0.13 2.899,6.557 0.292,-0.13 c 0.06,-0.389 0.131,-0.69 0.212,-0.9 0.081,-0.209 0.215,-0.418 0.4,-0.623 0.184,-0.205 0.422,-0.397 0.713,-0.576 0.291,-0.18 0.649,-0.363 1.075,-0.553 L -0.675,6.548 C 0.479,6.037 1.573,6.083 2.609,6.685 L 2.9,6.556 Z"
             style="fill:#009f4e;fill-opacity:1;fill-rule:nonzero;stroke:none"
             id="path154"
             inkscape:connector-curvature="0" /></g><g
           id="g156"
           transform="translate(423.5083,185.9961)"><path
             d="m 0,0 c 1.171,3.724 1.429,6.845 0.772,9.36 -0.656,2.517 -1.732,4.405 -3.23,5.661 -1.498,1.258 -3.006,2.126 -4.526,2.603 -1.178,0.371 -2.461,0.563 -3.849,0.574 -1.388,0.013 -2.842,-0.306 -4.361,-0.956 -1.52,-0.648 -2.959,-1.783 -4.317,-3.402 -1.358,-1.619 -2.467,-3.796 -3.327,-6.532 -0.757,-2.407 -1.098,-4.607 -1.021,-6.601 0.075,-1.993 0.496,-3.732 1.26,-5.219 0.765,-1.486 1.743,-2.691 2.934,-3.615 1.192,-0.925 2.516,-1.616 3.973,-2.074 1.304,-0.409 2.697,-0.595 4.179,-0.553 1.482,0.043 2.94,0.412 4.378,1.108 1.436,0.697 2.781,1.833 4.036,3.409 C -1.846,-4.663 -0.812,-2.584 0,0 m 3.368,-0.976 c -0.825,-2.62 -2.241,-4.855 -4.247,-6.702 -2.008,-1.846 -4.342,-3.085 -7.004,-3.716 -2.662,-0.629 -5.355,-0.517 -8.078,0.338 -2.736,0.86 -5.034,2.318 -6.893,4.37 -1.86,2.053 -3.089,4.419 -3.688,7.099 -0.597,2.68 -0.475,5.355 0.365,8.027 0.645,2.052 1.641,3.859 2.987,5.418 1.347,1.561 2.931,2.792 4.753,3.695 1.821,0.901 3.744,1.438 5.767,1.609 2.024,0.171 4.011,-0.05 5.961,-0.663 1.912,-0.602 3.638,-1.53 5.178,-2.787 1.539,-1.257 2.8,-2.771 3.781,-4.54 C 3.231,9.402 3.834,7.479 4.059,5.404 4.283,3.329 4.053,1.202 3.368,-0.976"
             style="fill:#009f4e;fill-opacity:1;fill-rule:nonzero;stroke:none"
             id="path158"
             inkscape:connector-curvature="0" /></g><g
           id="g160"
           transform="translate(477.0107,191.9277)"><path
             d="M 0,0 -0.042,-0.336 C -0.604,-0.334 -1.006,-0.339 -1.249,-0.357 -1.492,-0.373 -1.772,-0.476 -2.09,-0.662 -2.58,-0.951 -2.901,-1.238 -3.05,-1.527 -3.2,-1.816 -3.334,-2.335 -3.454,-3.082 -3.508,-3.196 -3.523,-3.314 -3.499,-3.438 l -1.679,-21.748 c -0.087,-0.912 0.033,-1.722 0.36,-2.432 0.327,-0.709 1.174,-1.157 2.543,-1.34 l -0.039,-0.316 -9.427,1.171 0.038,0.318 c 1.255,-0.024 2.137,0.231 2.644,0.764 0.508,0.532 0.806,1.421 0.894,2.668 l 1.773,22.499 -0.079,0.01 -13.571,-25.226 -6.551,26.743 -0.078,0.011 -3.613,-20.504 c -0.194,-1.127 -0.234,-2.015 -0.12,-2.665 0.112,-0.649 0.364,-1.136 0.752,-1.457 0.388,-0.324 0.989,-0.603 1.803,-0.837 l -0.04,-0.317 -7.332,0.911 0.039,0.317 c 0.937,-0.103 1.677,0.032 2.218,0.407 0.542,0.374 0.929,0.877 1.161,1.512 0.233,0.633 0.459,1.511 0.679,2.635 l 3.819,21.2 c 0.01,0.079 -0.051,0.23 -0.184,0.454 -0.133,0.224 -0.302,0.451 -0.507,0.685 -0.205,0.233 -0.406,0.421 -0.602,0.567 -0.414,0.332 -0.782,0.542 -1.106,0.628 -0.323,0.088 -0.779,0.187 -1.367,0.301 l 0.041,0.335 6.759,-0.838 6.053,-24.937 12.111,22.678 z"
             style="fill:#009f4e;fill-opacity:1;fill-rule:nonzero;stroke:none"
             id="path162"
             inkscape:connector-curvature="0" /></g><g
           id="g164"
           transform="translate(479.519,191.7305)"><path
             d="m 0,0 0.007,0.339 17.483,-0.355 -0.094,-4.619 -0.278,0.006 c 0.049,2.469 -1.572,3.736 -4.864,3.804 l -6.112,0.124 -0.27,-13.321 5.376,-0.109 c 1.062,-0.021 2.014,0.132 2.858,0.46 0.843,0.327 1.337,1.108 1.481,2.34 l 0.299,-0.006 -0.135,-6.649 -0.297,0.005 c -0.105,0.759 -0.319,1.343 -0.643,1.755 -0.324,0.413 -0.646,0.687 -0.969,0.828 -0.323,0.138 -0.61,0.211 -0.863,0.215 -0.476,0.09 -0.973,0.14 -1.49,0.15 l -5.635,0.114 -0.211,-10.414 c -0.016,-0.782 0.12,-1.463 0.407,-2.039 0.287,-0.577 0.975,-0.877 2.063,-0.899 l 4.361,-0.087 c 1.048,-0.023 1.915,0.113 2.598,0.405 0.683,0.292 1.226,0.705 1.629,1.241 0.402,0.536 0.744,1.188 1.025,1.951 l 0.279,-0.006 -1.109,-4.579 -17.482,0.355 0.006,0.318 0.399,-0.008 c 0.623,-0.012 1.239,0.227 1.847,0.72 0.607,0.492 0.922,1.309 0.946,2.451 L 3.059,-3.408 C 3.077,-2.506 2.89,-1.719 2.5,-1.046 2.107,-0.375 1.407,-0.028 0.398,-0.008 Z"
             style="fill:#009f4e;fill-opacity:1;fill-rule:nonzero;stroke:none"
             id="path166"
             inkscape:connector-curvature="0" /></g><g
           id="g168"
           transform="translate(499.4404,191.4072)"><path
             d="M 0,0 -0.02,0.339 17.439,1.327 17.7,-3.286 17.422,-3.302 c -0.139,2.465 -1.854,3.606 -5.141,3.42 l -6.104,-0.347 0.754,-13.301 5.368,0.303 c 1.06,0.06 1.999,0.287 2.814,0.679 0.817,0.391 1.248,1.207 1.298,2.446 l 0.298,0.018 0.377,-6.643 -0.299,-0.015 c -0.162,0.748 -0.421,1.314 -0.774,1.702 -0.355,0.385 -0.699,0.634 -1.031,0.749 -0.332,0.113 -0.625,0.164 -0.876,0.149 -0.481,0.053 -0.981,0.064 -1.498,0.036 l -5.627,-0.32 0.589,-10.399 c 0.044,-0.781 0.232,-1.449 0.563,-2.003 0.33,-0.553 1.039,-0.799 2.126,-0.737 l 4.354,0.247 c 1.047,0.058 1.901,0.259 2.559,0.603 0.659,0.343 1.169,0.798 1.529,1.363 0.361,0.566 0.651,1.241 0.872,2.025 l 0.279,0.015 -0.753,-4.65 -17.458,-0.99 -0.019,0.319 0.399,0.023 c 0.622,0.035 1.217,0.321 1.785,0.859 0.568,0.537 0.82,1.376 0.756,2.517 l -1.25,22.07 C 3.26,-2.262 3.014,-1.492 2.571,-0.852 2.13,-0.212 1.404,0.08 0.397,0.023 Z"
             style="fill:#009f4e;fill-opacity:1;fill-rule:nonzero;stroke:none"
             id="path170"
             inkscape:connector-curvature="0" /></g><g
           id="g172"
           transform="translate(544.8428,190.7441)"><path
             d="m 0,0 -0.316,-0.046 c -0.417,1.871 -1.146,3.018 -2.185,3.438 -1.04,0.421 -2.264,0.53 -3.669,0.327 l -5.776,-0.832 3.512,-24.384 c 0.298,-2.064 1.502,-2.977 3.615,-2.739 l 0.045,-0.317 -9.246,-1.331 -0.044,0.316 c 0.863,0.15 1.559,0.509 2.088,1.076 0.529,0.565 0.711,1.42 0.546,2.562 l -3.512,24.385 -5.776,-0.832 c -1.406,-0.202 -2.546,-0.651 -3.418,-1.347 -0.872,-0.696 -1.251,-2.002 -1.135,-3.917 l -0.317,-0.045 -1.021,7.097 0.315,0.045 c 0.257,-0.299 0.477,-0.515 0.657,-0.65 0.18,-0.136 0.404,-0.242 0.669,-0.316 0.265,-0.076 0.57,-0.113 0.911,-0.111 0.342,0.003 0.743,0.037 1.203,0.103 l 18.805,2.709 c 1.249,0.18 2.153,0.799 2.71,1.86 l 0.317,0.046 z"
             style="fill:#009f4e;fill-opacity:1;fill-rule:nonzero;stroke:none"
             id="path174"
             inkscape:connector-curvature="0" /></g><g
           id="g176"
           transform="translate(566.874,202.2441)"><path
             d="M 0,0 0.089,-0.327 C -0.757,-0.557 -1.41,-0.988 -1.87,-1.624 -2.331,-2.258 -2.411,-3.126 -2.112,-4.227 l 5.841,-21.486 c 0.296,-1.091 0.826,-1.795 1.587,-2.118 0.762,-0.323 1.528,-0.38 2.296,-0.171 l 0.083,-0.308 -8.974,-2.439 -0.084,0.308 c 0.82,0.223 1.463,0.656 1.927,1.297 0.466,0.643 0.547,1.522 0.245,2.636 l -5.842,21.487 c -0.321,1.178 -0.838,1.904 -1.552,2.178 -0.714,0.273 -1.481,0.299 -2.301,0.076 l -0.089,0.327 z"
             style="fill:#009f4e;fill-opacity:1;fill-rule:nonzero;stroke:none"
             id="path178"
             inkscape:connector-curvature="0" /></g><g
           id="g180"
           transform="translate(585.1807,202.2617)"><path
             d="m 0,0 -0.302,-0.103 c -0.628,1.289 -1.612,2.272 -2.953,2.95 -1.34,0.677 -2.829,0.742 -4.466,0.194 -1.069,-0.359 -1.935,-0.93 -2.597,-1.712 -0.662,-0.782 -1.075,-1.683 -1.237,-2.704 -0.162,-1.02 -0.055,-2.091 0.321,-3.211 0.292,-0.868 0.685,-1.595 1.181,-2.178 0.497,-0.582 1.096,-1.043 1.798,-1.381 0.701,-0.339 1.486,-0.612 2.354,-0.819 0.868,-0.205 2.025,-0.444 3.474,-0.715 2.415,-0.436 4.376,-1.022 5.882,-1.756 1.507,-0.735 2.585,-2.071 3.235,-4.009 0.397,-1.184 0.474,-2.428 0.234,-3.735 -0.242,-1.306 -0.862,-2.518 -1.859,-3.636 -0.997,-1.12 -2.408,-1.986 -4.234,-2.597 -1.145,-0.384 -2.2,-0.6 -3.163,-0.65 -0.964,-0.05 -1.973,-0.008 -3.026,0.129 -0.42,-0.001 -0.7,-0.024 -0.837,-0.07 -0.265,-0.089 -0.407,-0.241 -0.426,-0.457 -0.018,-0.218 0.009,-0.663 0.082,-1.339 l -0.321,-0.107 -2.336,6.968 0.321,0.107 c 1.137,-1.888 2.535,-3.135 4.194,-3.74 1.66,-0.606 3.427,-0.594 5.303,0.035 1.409,0.473 2.451,1.116 3.124,1.929 0.672,0.814 1.045,1.654 1.119,2.518 0.074,0.865 -0.015,1.676 -0.268,2.431 -0.524,1.56 -1.427,2.677 -2.708,3.345 -1.282,0.669 -3.065,1.196 -5.35,1.578 -1.579,0.283 -2.757,0.517 -3.533,0.706 -0.777,0.187 -1.605,0.492 -2.481,0.912 -0.877,0.421 -1.656,1.003 -2.339,1.746 -0.684,0.744 -1.216,1.684 -1.596,2.816 -0.439,1.309 -0.513,2.678 -0.221,4.106 0.291,1.428 0.951,2.718 1.981,3.867 1.028,1.15 2.348,1.996 3.96,2.536 1.221,0.408 2.544,0.621 3.966,0.636 0.236,-0.033 0.523,0.008 0.863,0.122 0.416,0.139 0.603,0.517 0.564,1.135 l 0.303,0.1 z"
             style="fill:#009f4e;fill-opacity:1;fill-rule:nonzero;stroke:none"
             id="path182"
             inkscape:connector-curvature="0" /></g><g
           id="g184"
           transform="translate(618.0195,206.374)"><path
             d="m 0,0 c -1.608,3.558 -3.495,6.056 -5.661,7.494 -2.167,1.439 -4.228,2.128 -6.182,2.068 -1.954,-0.061 -3.657,-0.419 -5.109,-1.076 -1.125,-0.508 -2.209,-1.22 -3.252,-2.136 -1.043,-0.917 -1.914,-2.123 -2.614,-3.621 -0.701,-1.498 -1.017,-3.301 -0.952,-5.414 0.067,-2.111 0.692,-4.473 1.874,-7.087 1.039,-2.298 2.251,-4.166 3.636,-5.601 1.386,-1.436 2.859,-2.453 4.418,-3.051 1.561,-0.598 3.093,-0.846 4.598,-0.74 1.504,0.103 2.952,0.472 4.343,1.101 1.246,0.563 2.408,1.354 3.484,2.373 1.077,1.018 1.918,2.266 2.525,3.744 0.608,1.476 0.854,3.219 0.739,5.229 C 1.732,-4.707 1.117,-2.468 0,0 m 3.161,1.517 c 1.134,-2.504 1.567,-5.114 1.3,-7.828 -0.267,-2.713 -1.181,-5.193 -2.745,-7.438 -1.565,-2.244 -3.647,-3.954 -6.247,-5.131 -2.614,-1.182 -5.298,-1.627 -8.052,-1.336 -2.755,0.291 -5.248,1.237 -7.479,2.836 -2.233,1.601 -3.925,3.675 -5.08,6.228 -0.885,1.961 -1.347,3.969 -1.382,6.03 -0.036,2.06 0.325,4.034 1.081,5.922 0.756,1.886 1.833,3.568 3.227,5.044 1.395,1.475 3.024,2.635 4.887,3.476 1.826,0.828 3.732,1.285 5.718,1.374 1.985,0.089 3.932,-0.2 5.844,-0.864 C -3.856,9.163 -2.125,8.132 -0.575,6.735 0.976,5.337 2.221,3.598 3.161,1.517"
             style="fill:#009f4e;fill-opacity:1;fill-rule:nonzero;stroke:none"
             id="path186"
             inkscape:connector-curvature="0" /></g><g
           id="g188"
           transform="translate(645.0645,209.2559)"><path
             d="m 0,0 -10.507,16.615 c -0.695,1.098 -1.149,1.754 -1.361,1.966 -0.212,0.211 -0.47,0.221 -0.774,0.03 -0.201,-0.129 -0.782,-0.787 -1.743,-1.975 l -0.171,0.269 c 0.481,0.806 0.864,1.516 1.152,2.13 0.287,0.613 0.525,1.287 0.715,2.02 0.188,0.731 0.325,1.65 0.411,2.757 l 0.555,0.352 L 2.542,1.609 C 3.146,0.654 3.804,0.109 4.52,-0.027 5.234,-0.164 6.052,0.058 6.972,0.64 l 0.171,-0.27 -8.03,-5.077 -0.17,0.27 C 0.784,-3.273 1.136,-1.795 0,0"
             style="fill:#009f4e;fill-opacity:1;fill-rule:nonzero;stroke:none"
             id="path190"
             inkscape:connector-curvature="0" /></g><g
           id="g192"
           transform="translate(649.4746,224.0078)"><path
             d="M 0,0 8.146,6 0.788,15.99 0.725,15.943 Z m 0.793,21.089 9.791,-13.294 6.398,4.713 1.063,-1.444 -6.399,-4.711 4.891,-6.64 c 0.708,-0.962 1.453,-1.451 2.234,-1.471 0.78,-0.019 1.509,0.205 2.188,0.672 l 0.165,-0.225 -7.44,-5.48 -0.165,0.225 c 0.689,0.542 1.136,1.182 1.338,1.926 0.204,0.744 -0.049,1.596 -0.758,2.558 L 9.209,4.557 -1.294,-3.18 -0.09,20.44 Z"
             style="fill:#009f4e;fill-opacity:1;fill-rule:nonzero;stroke:none"
             id="path194"
             inkscape:connector-curvature="0" /></g><g
           id="g196"
           transform="translate(683.4346,253.0078)"><path
             d="m 0,0 c -1.554,1.727 -3.308,3.197 -5.261,4.415 -1.953,1.216 -3.879,1.911 -5.778,2.087 -1.899,0.175 -3.535,-0.356 -4.906,-1.591 -1.352,-1.217 -1.994,-2.84 -1.927,-4.868 0.067,-2.03 0.617,-4.096 1.649,-6.193 1.033,-2.1 2.197,-3.871 3.494,-5.31 1.501,-1.668 3.221,-3.098 5.163,-4.291 1.939,-1.191 3.865,-1.883 5.778,-2.072 1.913,-0.191 3.55,0.328 4.911,1.554 1.125,1.013 1.738,2.44 1.84,4.283 0.101,1.84 -0.288,3.841 -1.166,5.997 C 2.918,-3.832 1.652,-1.836 0,0 M 2.517,2.264 C 4.009,0.606 5.138,-1.129 5.902,-2.94 6.668,-4.752 7.097,-6.559 7.19,-8.36 c 0.094,-1.8 -0.141,-3.469 -0.707,-5.004 -0.564,-1.535 -1.409,-2.81 -2.534,-3.823 -1.055,-0.951 -2.343,-1.64 -3.859,-2.067 -1.518,-0.429 -3.154,-0.541 -4.911,-0.335 -1.757,0.205 -3.536,0.791 -5.337,1.76 -1.801,0.97 -3.497,2.337 -5.087,4.103 -2.23,2.478 -3.682,4.998 -4.356,7.563 -0.673,2.563 -0.711,4.896 -0.112,7 0.599,2.102 1.579,3.767 2.942,4.992 1.46,1.315 3.295,2.119 5.506,2.411 2.21,0.293 4.538,-0.05 6.983,-1.028 2.444,-0.98 4.711,-2.628 6.799,-4.948"
             style="fill:#009f4e;fill-opacity:1;fill-rule:nonzero;stroke:none"
             id="path198"
             inkscape:connector-curvature="0" /></g><g
           id="g200"
           transform="translate(702.3193,273.0107)"><path
             d="m 0,0 c -1.719,1.562 -3.611,2.853 -5.676,3.868 -2.064,1.014 -4.051,1.514 -5.958,1.498 -1.907,-0.015 -3.481,-0.707 -4.722,-2.072 -1.224,-1.347 -1.701,-3.025 -1.431,-5.038 0.27,-2.013 1.023,-4.012 2.261,-5.997 1.236,-1.986 2.572,-3.63 4.006,-4.934 1.661,-1.509 3.516,-2.76 5.565,-3.752 2.05,-0.993 4.035,-1.488 5.957,-1.485 1.923,0.003 3.5,0.682 4.731,2.037 1.019,1.12 1.487,2.602 1.403,4.445 -0.083,1.843 -0.67,3.793 -1.76,5.851 C 3.286,-3.521 1.827,-1.66 0,0 m 2.277,2.505 c 1.651,-1.5 2.948,-3.113 3.89,-4.84 0.942,-1.727 1.551,-3.481 1.823,-5.264 0.274,-1.781 0.205,-3.464 -0.203,-5.049 -0.408,-1.584 -1.121,-2.937 -2.14,-4.057 -0.956,-1.052 -2.166,-1.865 -3.633,-2.443 -1.467,-0.579 -3.084,-0.853 -4.853,-0.824 -1.768,0.029 -3.598,0.435 -5.486,1.218 -1.889,0.783 -3.712,1.976 -5.472,3.574 -2.466,2.242 -4.162,4.604 -5.09,7.088 -0.926,2.484 -1.196,4.803 -0.81,6.954 0.385,2.153 1.195,3.907 2.427,5.262 1.322,1.454 3.067,2.438 5.238,2.951 2.17,0.511 4.52,0.403 7.051,-0.327 2.53,-0.729 4.95,-2.144 7.258,-4.243"
             style="fill:#009f4e;fill-opacity:1;fill-rule:nonzero;stroke:none"
             id="path202"
             inkscape:connector-curvature="0" /></g><g
           id="g204"
           transform="translate(717.3271,273.9355)"><path
             d="m 0,0 -15.467,12.132 c -1.023,0.803 -1.671,1.268 -1.941,1.396 -0.271,0.128 -0.518,0.051 -0.738,-0.232 -0.148,-0.188 -0.474,-1.003 -0.982,-2.443 l -0.25,0.196 c 0.183,0.92 0.305,1.717 0.37,2.392 0.065,0.674 0.064,1.388 -0.003,2.141 -0.067,0.754 -0.247,1.665 -0.537,2.737 l 0.405,0.517 L 1.856,2.365 C 2.744,1.669 3.548,1.376 4.268,1.488 4.986,1.599 5.683,2.082 6.355,2.938 L 6.605,2.741 0.742,-4.733 0.491,-4.536 C 1.836,-2.824 1.672,-1.312 0,0"
             style="fill:#009f4e;fill-opacity:1;fill-rule:nonzero;stroke:none"
             id="path206"
             inkscape:connector-curvature="0" /></g><g
           id="g208"
           transform="translate(727.4932,280.2227)"><path
             d="m 0,0 c -0.305,-0.418 -0.7,-0.664 -1.182,-0.739 -0.482,-0.075 -0.927,0.037 -1.335,0.335 -0.418,0.305 -0.668,0.699 -0.753,1.18 -0.084,0.481 0.032,0.936 0.344,1.365 0.315,0.427 0.712,0.68 1.196,0.755 C -1.248,2.97 -0.793,2.851 -0.364,2.537 0.054,2.231 0.295,1.837 0.36,1.354 0.427,0.869 0.307,0.419 0,0 m -10.464,7.655 c -0.306,-0.419 -0.7,-0.664 -1.182,-0.739 -0.483,-0.075 -0.926,0.036 -1.334,0.335 -0.408,0.298 -0.659,0.692 -0.753,1.18 -0.095,0.489 0.014,0.948 0.328,1.376 0.313,0.428 0.717,0.676 1.21,0.743 0.493,0.067 0.949,-0.052 1.367,-0.358 0.417,-0.306 0.659,-0.7 0.724,-1.184 0.066,-0.484 -0.054,-0.935 -0.36,-1.353"
             style="fill:#009f4e;fill-opacity:1;fill-rule:nonzero;stroke:none"
             id="path210"
             inkscape:connector-curvature="0" /></g><g
           id="g212"
           transform="translate(740.7021,301.1191)"><path
             d="m 0,0 -10.478,-16.04 c -0.114,0.867 -0.374,2.298 -0.778,4.29 -0.403,1.992 -0.842,3.937 -1.317,5.833 -0.474,1.896 -0.89,3.309 -1.249,4.241 -1.055,2.83 -2.049,4.906 -2.984,6.231 -0.934,1.324 -1.92,2.323 -2.953,3 -0.944,0.616 -1.898,1.013 -2.861,1.189 -0.963,0.178 -1.853,0.164 -2.668,-0.041 -0.816,-0.205 -1.573,-0.561 -2.272,-1.072 -0.698,-0.513 -1.28,-1.124 -1.744,-1.834 -0.407,-0.623 -0.726,-1.373 -0.96,-2.253 -0.232,-0.879 -0.257,-1.857 -0.074,-2.937 0.184,-1.079 0.672,-2.138 1.466,-3.181 l -0.327,-0.5 c -0.784,0.765 -1.459,1.746 -2.027,2.941 -0.567,1.195 -0.838,2.554 -0.812,4.074 0.026,1.522 0.526,3.028 1.499,4.517 0.951,1.456 2.094,2.501 3.429,3.137 1.335,0.634 2.688,0.887 4.063,0.759 1.376,-0.129 2.641,-0.571 3.797,-1.326 1.378,-0.901 2.568,-2.157 3.568,-3.769 1,-1.614 1.808,-3.382 2.422,-5.306 0.615,-1.924 1.106,-3.849 1.472,-5.777 0.366,-1.929 0.726,-4.152 1.081,-6.667 l 0.124,-0.865 7.08,10.836 c 0.442,0.68 0.661,1.318 0.655,1.916 -0.005,0.598 -0.205,1.264 -0.598,1.997 l 0.175,0.266 z"
             style="fill:#009f4e;fill-opacity:1;fill-rule:nonzero;stroke:none"
             id="path214"
             inkscape:connector-curvature="0" /></g><g
           id="g216"
           transform="translate(740.2314,330.7441)"><path
             d="m 0,0 c -2.054,1.086 -4.207,1.863 -6.459,2.334 -2.253,0.47 -4.301,0.46 -6.144,-0.029 -1.843,-0.491 -3.196,-1.551 -4.059,-3.182 -0.85,-1.608 -0.895,-3.353 -0.133,-5.236 0.763,-1.883 1.989,-3.631 3.681,-5.246 1.691,-1.617 3.394,-2.876 5.108,-3.783 1.984,-1.048 4.091,-1.798 6.323,-2.251 2.232,-0.451 4.279,-0.437 6.14,0.043 1.86,0.481 3.219,1.531 4.075,3.151 0.708,1.338 0.792,2.888 0.253,4.653 C 8.246,-7.782 7.193,-6.038 5.626,-4.315 4.059,-2.594 2.183,-1.154 0,0 m 1.583,2.993 c 1.972,-1.044 3.629,-2.284 4.971,-3.722 1.342,-1.437 2.367,-2.986 3.075,-4.644 0.708,-1.658 1.06,-3.306 1.059,-4.942 -0.002,-1.636 -0.356,-3.123 -1.064,-4.461 -0.664,-1.257 -1.635,-2.347 -2.912,-3.27 -1.277,-0.925 -2.775,-1.595 -4.495,-2.006 -1.72,-0.411 -3.593,-0.472 -5.617,-0.183 -2.025,0.289 -4.088,0.99 -6.189,2.1 -2.946,1.558 -5.177,3.425 -6.692,5.6 -1.515,2.176 -2.354,4.353 -2.516,6.534 -0.161,2.182 0.188,4.08 1.043,5.7 0.919,1.738 2.365,3.124 4.34,4.161 1.976,1.036 4.278,1.515 6.91,1.438 2.633,-0.079 5.328,-0.848 8.087,-2.305"
             style="fill:#009f4e;fill-opacity:1;fill-rule:nonzero;stroke:none"
             id="path218"
             inkscape:connector-curvature="0" /></g><g
           id="g220"
           transform="translate(754.5352,335.3672)"><path
             d="m 0,0 -17.999,7.901 c -1.191,0.524 -1.935,0.813 -2.229,0.87 -0.294,0.055 -0.513,-0.08 -0.657,-0.408 -0.096,-0.218 -0.21,-1.089 -0.343,-2.612 l -0.291,0.129 c -0.052,0.934 -0.131,1.738 -0.236,2.408 -0.105,0.669 -0.283,1.36 -0.537,2.074 -0.252,0.712 -0.652,1.55 -1.2,2.517 L -23.229,13.48 1.209,2.754 C 2.242,2.3 3.094,2.216 3.764,2.503 4.433,2.789 4.985,3.43 5.423,4.428 L 5.715,4.299 1.896,-4.399 1.605,-4.271 C 2.48,-2.278 1.945,-0.854 0,0"
             style="fill:#009f4e;fill-opacity:1;fill-rule:nonzero;stroke:none"
             id="path222"
             inkscape:connector-curvature="0" /></g><g
           id="g224"
           transform="translate(740.3604,369.835)"><path
             d="m 0,0 1.937,-1.14 -3.474,-9.416 10.607,-6.12 c 0.17,0.998 0.411,1.921 0.724,2.769 0.524,1.421 1.326,2.606 2.406,3.559 1.08,0.952 2.303,1.564 3.668,1.831 1.365,0.269 2.691,0.166 3.973,-0.308 1.383,-0.509 2.551,-1.332 3.504,-2.471 0.954,-1.136 1.56,-2.492 1.822,-4.067 0.261,-1.574 0.086,-3.191 -0.524,-4.848 -0.497,-1.345 -1.157,-2.432 -1.978,-3.261 -0.822,-0.83 -1.929,-1.652 -3.32,-2.468 l -1.364,0.502 c 1.031,0.568 1.954,1.218 2.767,1.951 0.815,0.732 1.49,1.821 2.023,3.265 0.496,1.347 0.603,2.559 0.322,3.639 -0.281,1.08 -0.818,1.985 -1.61,2.716 -0.791,0.731 -1.685,1.28 -2.682,1.648 -1.22,0.449 -2.406,0.612 -3.557,0.484 -1.151,-0.127 -2.169,-0.548 -3.055,-1.261 -0.886,-0.715 -1.552,-1.676 -1.997,-2.884 -0.254,-0.684 -0.409,-1.32 -0.469,-1.906 -0.061,-0.586 -0.085,-1.42 -0.074,-2.499 l -14.121,8.157 z"
             style="fill:#009f4e;fill-opacity:1;fill-rule:nonzero;stroke:none"
             id="path226"
             inkscape:connector-curvature="0" /></g><g
           id="g228"
           transform="translate(251.9414,388.5)"><path
             d="M 0,0 C 27.759,-108 125.635,-187.48 242.118,-187.48 358.601,-187.48 456.477,-108 484.236,0 Z"
             style="fill:none;stroke:#009f4e;stroke-width:1;stroke-linecap:butt;stroke-linejoin:miter;stroke-miterlimit:10;stroke-dasharray:none;stroke-opacity:1"
             id="path230"
             inkscape:connector-curvature="0" /></g><g
           id="g232"
           transform="translate(736.1777,513.5)"><path
             d="M 0,0 C -27.76,108 -125.636,187.48 -242.118,187.48 -358.601,187.48 -456.477,108 -484.236,0 Z"
             style="fill:none;stroke:#009f4e;stroke-width:1;stroke-linecap:butt;stroke-linejoin:miter;stroke-miterlimit:10;stroke-dasharray:none;stroke-opacity:1"
             id="path234"
             inkscape:connector-curvature="0" /></g><path
           d="m 238.626,401.56 h -11.284 v 96.321 h 11.284 z"
           style="fill:#009f4e;fill-opacity:1;fill-rule:nonzero;stroke:none"
           id="path236"
           inkscape:connector-curvature="0" /><g
           id="g238"
           transform="translate(290.8813,399.917)"><path
             d="m 0,0 c -11.96,0 -20.9,3.044 -26.822,9.133 -5.922,6.088 -9.037,13.906 -9.345,23.456 h 10.821 c 0.578,-7.185 3.211,-12.495 7.899,-15.933 4.687,-3.439 10.348,-5.158 16.984,-5.158 6.288,0 11.351,1.467 15.19,4.402 3.838,2.934 5.758,6.92 5.758,11.958 0,5.299 -1.987,9.155 -5.961,11.564 -3.973,2.408 -10.812,4.785 -20.514,7.129 -9.702,2.343 -16.665,5.595 -20.89,9.757 -4.224,4.161 -6.336,9.702 -6.336,16.623 0,7.796 2.749,14.192 8.246,19.185 5.497,4.993 12.798,7.49 21.903,7.49 9.567,0 17.282,-2.519 23.147,-7.555 5.863,-5.038 8.969,-12.155 9.316,-21.354 H 18.459 c -1.119,11.651 -8.14,17.477 -21.063,17.477 -6.25,0 -11.092,-1.337 -14.525,-4.008 -3.434,-2.672 -5.15,-6.22 -5.15,-10.644 0,-4.031 1.379,-7.052 4.137,-9.067 2.758,-2.016 7.908,-3.965 15.451,-5.848 7.542,-1.883 13.531,-3.745 17.968,-5.585 4.436,-1.839 8.236,-4.697 11.4,-8.574 3.162,-3.877 4.745,-9.078 4.745,-15.604 0,-8.279 -2.903,-15.156 -8.709,-20.631 C 16.906,2.737 9.335,0 0,0"
             style="fill:#009f4e;fill-opacity:1;fill-rule:nonzero;stroke:none"
             id="path240"
             inkscape:connector-curvature="0" /></g><g
           id="g242"
           transform="translate(374.5576,410.8232)"><path
             d="m 0,0 c 8.486,0 15.44,3.417 20.861,10.25 5.42,6.833 8.13,16.382 8.13,28.646 0,12.265 -2.7,21.815 -8.101,28.648 -5.402,6.833 -12.288,10.249 -20.659,10.249 -8.526,0 -15.518,-3.416 -20.977,-10.249 -5.459,-6.833 -8.188,-16.383 -8.188,-28.648 0,-12.22 2.72,-21.758 8.16,-28.613 C -15.335,3.428 -8.411,0 0,0 m 0.116,88.7 c 11.882,0 21.603,-4.556 29.165,-13.666 7.56,-9.111 11.342,-21.157 11.342,-36.138 0,-14.98 -3.782,-27.026 -11.342,-36.136 -7.562,-9.112 -17.283,-13.666 -29.165,-13.666 -11.921,0 -21.682,4.566 -29.282,13.699 -7.6,9.133 -11.399,21.167 -11.399,36.103 0,14.981 3.799,27.027 11.399,36.138 7.6,9.11 17.361,13.666 29.282,13.666"
             style="fill:#009f4e;fill-opacity:1;fill-rule:nonzero;stroke:none"
             id="path244"
             inkscape:connector-curvature="0" /></g><g
           id="g246"
           transform="translate(496.5425,401.5596)"><path
             d="m 0,0 h -10.879 v 75.756 c -4.398,-3.329 -11.207,-4.993 -20.428,-4.993 v 9.723 c 13.31,0 20.949,5.826 22.916,17.477 H 0 Z"
             style="fill:#009f4e;fill-opacity:1;fill-rule:nonzero;stroke:none"
             id="path248"
             inkscape:connector-curvature="0" /></g><g
           id="g250"
           transform="translate(556.0293,435.4629)"><path
             d="M 0,0 V 44.152 L -26.04,0 Z M 22.396,-10.907 H 10.938 V -33.903 H 0 v 22.996 H -36.225 V 0 L 2.373,63.666 h 8.565 V 0 h 11.458 z"
             style="fill:#009f4e;fill-opacity:1;fill-rule:nonzero;stroke:none"
             id="path252"
             inkscape:connector-curvature="0" /></g><g
           id="g254"
           transform="translate(616.8486,409.6406)"><path
             d="m 0,0 c 5.361,0 9.433,2.935 12.21,8.805 2.777,5.869 4.166,16.25 4.166,31.143 0,14.937 -1.389,25.372 -4.166,31.308 C 9.433,77.19 5.361,80.158 0,80.158 c -5.324,0 -9.375,-2.968 -12.152,-8.902 -2.778,-5.936 -4.166,-16.371 -4.166,-31.308 0,-14.893 1.388,-25.274 4.166,-31.143 C -9.375,2.935 -5.324,0 0,0 m 0,89.882 c 18.439,0 27.66,-16.645 27.66,-49.934 C 27.66,6.834 18.439,-9.724 0,-9.724 c -18.402,0 -27.603,16.558 -27.603,49.672 0,33.289 9.201,49.934 27.603,49.934"
             style="fill:#009f4e;fill-opacity:1;fill-rule:nonzero;stroke:none"
             id="path256"
             inkscape:connector-curvature="0" /></g><g
           id="g258"
           transform="translate(682.7598,409.6406)"><path
             d="m 0,0 c 5.361,0 9.433,2.935 12.21,8.805 2.777,5.869 4.166,16.25 4.166,31.143 0,14.937 -1.389,25.372 -4.166,31.308 C 9.433,77.19 5.361,80.158 0,80.158 c -5.324,0 -9.375,-2.968 -12.152,-8.902 -2.778,-5.936 -4.166,-16.371 -4.166,-31.308 0,-14.893 1.388,-25.274 4.166,-31.143 C -9.375,2.935 -5.324,0 0,0 m 0,89.882 c 18.439,0 27.66,-16.645 27.66,-49.934 C 27.66,6.834 18.439,-9.724 0,-9.724 c -18.402,0 -27.603,16.558 -27.603,49.672 0,33.289 9.201,49.934 27.603,49.934"
             style="fill:#009f4e;fill-opacity:1;fill-rule:nonzero;stroke:none"
             id="path260"
             inkscape:connector-curvature="0" /></g><g
           id="g262"
           transform="translate(760.1865,401.5596)"><path
             d="m 0,0 h -10.879 v 75.756 c -4.398,-3.329 -11.208,-4.993 -20.428,-4.993 v 9.723 c 13.31,0 20.949,5.826 22.916,17.477 H 0 Z"
             style="fill:#009f4e;fill-opacity:1;fill-rule:nonzero;stroke:none"
             id="path264"
             inkscape:connector-curvature="0" /></g><g
           id="g266"
           transform="translate(224,513.5)"><path
             d="M 0,0 H 539"
             style="fill:none;stroke:#009f4e;stroke-width:3;stroke-linecap:butt;stroke-linejoin:miter;stroke-miterlimit:10;stroke-dasharray:none;stroke-opacity:1"
             id="path268"
             inkscape:connector-curvature="0" /></g><g
           id="g270"
           transform="translate(224,388.5)"><path
             d="M 0,0 H 539"
             style="fill:none;stroke:#009f4e;stroke-width:3;stroke-linecap:butt;stroke-linejoin:miter;stroke-miterlimit:10;stroke-dasharray:none;stroke-opacity:1"
             id="path272"
             inkscape:connector-curvature="0" /></g><g
           id="g274"
           transform="translate(374.1143,551.4541)"><path
             d="M 0,0 C 0,-1.88 -0.238,-3.57 -0.714,-5.072 -1.19,-6.573 -1.819,-7.898 -2.6,-9.045 c -0.782,-1.148 -1.697,-2.124 -2.747,-2.93 -1.049,-0.806 -2.136,-1.465 -3.259,-1.978 -1.123,-0.512 -2.265,-0.891 -3.424,-1.135 -1.16,-0.244 -2.252,-0.366 -3.278,-0.366 h -36.731 v 9.521 h 36.731 c 1.831,0 3.253,0.537 4.266,1.612 1.014,1.074 1.521,2.514 1.521,4.321 0,0.879 -0.135,1.685 -0.403,2.417 -0.269,0.732 -0.654,1.367 -1.154,1.904 -0.501,0.537 -1.111,0.952 -1.831,1.245 -0.72,0.293 -1.52,0.44 -2.399,0.44 h -21.899 c -1.538,0 -3.199,0.274 -4.981,0.824 -1.782,0.549 -3.436,1.434 -4.962,2.655 -1.526,1.221 -2.795,2.82 -3.808,4.797 -1.014,1.978 -1.52,4.395 -1.52,7.251 0,2.857 0.506,5.267 1.52,7.233 1.013,1.965 2.282,3.564 3.808,4.797 1.526,1.233 3.18,2.125 4.962,2.673 1.782,0.55 3.443,0.825 4.981,0.825 h 32.41 v -9.522 h -32.41 c -1.807,0 -3.217,-0.549 -4.23,-1.648 -1.013,-1.099 -1.52,-2.551 -1.52,-4.358 0,-1.831 0.507,-3.277 1.52,-4.34 1.013,-1.061 2.423,-1.592 4.23,-1.592 h 21.899 0.074 c 1.025,-0.025 2.111,-0.165 3.259,-0.421 1.147,-0.257 2.289,-0.654 3.424,-1.191 1.135,-0.537 2.216,-1.215 3.241,-2.032 1.025,-0.818 1.935,-1.801 2.728,-2.948 C -1.789,7.861 -1.16,6.542 -0.696,5.054 -0.232,3.564 0,1.88 0,0"
             style="fill:#009f4e;fill-opacity:1;fill-rule:nonzero;stroke:none"
             id="path276"
             inkscape:connector-curvature="0" /></g><path
           d="m 425.201,557.46 h -30.066 v 9.595 h 30.066 z M 429.485,536 h -34.35 c -1.319,0 -2.76,0.232 -4.322,0.696 -1.562,0.463 -3.009,1.227 -4.339,2.288 -1.331,1.063 -2.442,2.442 -3.333,4.139 -0.891,1.696 -1.336,3.777 -1.336,6.244 v 34.35 c 0,0.659 0.122,1.282 0.366,1.868 0.244,0.586 0.579,1.099 1.007,1.538 0.427,0.439 0.934,0.781 1.52,1.025 0.586,0.244 1.22,0.367 1.904,0.367 h 42.883 v -9.522 h -38.159 v -29.626 c 0,-1.245 0.33,-2.198 0.989,-2.857 0.659,-0.659 1.623,-0.989 2.893,-0.989 h 34.277 z"
           style="fill:#009f4e;fill-opacity:1;fill-rule:nonzero;stroke:none"
           id="path278"
           inkscape:connector-curvature="0" /><g
           id="g280"
           transform="translate(447.21,558.4121)"><path
             d="M 0,0 H 33.472 V 20.581 H 16.736 c -0.293,0 -0.91,-0.043 -1.849,-0.128 C 13.946,20.367 12.86,20.154 11.627,19.812 10.394,19.47 9.094,18.945 7.727,18.237 6.359,17.529 5.103,16.553 3.955,15.308 2.807,14.063 1.861,12.506 1.117,10.639 0.372,8.771 0,6.506 0,3.845 Z M 42.993,-22.412 H 33.472 V -9.521 H 0 V -22.412 H -9.521 V 3.845 c 0,3.833 0.659,7.361 1.977,10.584 1.318,3.222 3.149,5.993 5.493,8.313 2.344,2.319 5.114,4.125 8.313,5.42 3.198,1.294 6.689,1.941 10.474,1.941 h 21.46 c 0.659,0 1.282,-0.123 1.867,-0.367 0.586,-0.244 1.099,-0.586 1.539,-1.025 0.439,-0.44 0.781,-0.952 1.025,-1.538 0.244,-0.586 0.366,-1.209 0.366,-1.868 z"
             style="fill:#009f4e;fill-opacity:1;fill-rule:nonzero;stroke:none"
             id="path282"
             inkscape:connector-curvature="0" /></g><g
           id="g284"
           transform="translate(549.4922,536)"><path
             d="m 0,0 h -43.433 c -0.683,0 -1.318,0.122 -1.904,0.366 -0.586,0.244 -1.093,0.58 -1.519,1.007 -0.428,0.427 -0.764,0.934 -1.007,1.52 -0.244,0.586 -0.366,1.221 -0.366,1.904 v 47.718 h 9.521 V 9.521 H 0 Z"
             style="fill:#009f4e;fill-opacity:1;fill-rule:nonzero;stroke:none"
             id="path286"
             inkscape:connector-curvature="0" /></g><g
           id="g288"
           transform="translate(565.0195,558.4121)"><path
             d="M 0,0 H 33.472 V 20.581 H 16.736 c -0.293,0 -0.91,-0.043 -1.849,-0.128 C 13.946,20.367 12.86,20.154 11.627,19.812 10.395,19.47 9.095,18.945 7.728,18.237 6.359,17.529 5.103,16.553 3.955,15.308 2.808,14.063 1.861,12.506 1.117,10.639 0.372,8.771 0,6.506 0,3.845 Z M 42.993,-22.412 H 33.472 V -9.521 H 0 V -22.412 H -9.521 V 3.845 c 0,3.833 0.659,7.361 1.977,10.584 1.318,3.222 3.149,5.993 5.493,8.313 2.344,2.319 5.114,4.125 8.314,5.42 3.198,1.294 6.688,1.941 10.473,1.941 h 21.46 c 0.659,0 1.282,-0.123 1.867,-0.367 0.586,-0.244 1.099,-0.586 1.539,-1.025 0.439,-0.44 0.781,-0.952 1.025,-1.538 0.244,-0.586 0.366,-1.209 0.366,-1.868 z"
             style="fill:#009f4e;fill-opacity:1;fill-rule:nonzero;stroke:none"
             id="path290"
             inkscape:connector-curvature="0" /></g><g
           id="g292"
           transform="translate(661.9561,549.3667)"><path
             d="m 0,0 c 0,1.245 -0.196,2.362 -0.586,3.351 -0.391,0.988 -0.94,1.836 -1.648,2.545 -0.708,0.708 -1.563,1.251 -2.564,1.63 -1.001,0.378 -2.124,0.567 -3.369,0.567 h -21.46 v 9.595 h 17.176 c 1.245,0 2.367,0.189 3.369,0.567 1.001,0.379 1.854,0.922 2.563,1.63 0.708,0.708 1.251,1.557 1.63,2.545 0.378,0.989 0.568,2.106 0.568,3.351 v 1.795 c 0,1.367 -0.659,2.05 -1.978,2.05 H -33.436 V -3.845 h 31.421 c 0.171,0 0.379,0.012 0.623,0.036 0.244,0.024 0.463,0.098 0.66,0.22 0.195,0.122 0.366,0.33 0.512,0.623 0.147,0.293 0.22,0.695 0.22,1.208 z m 9.521,-1.831 c 0,-1.172 -0.201,-2.43 -0.604,-3.772 -0.402,-1.343 -1.062,-2.588 -1.978,-3.735 -0.915,-1.148 -2.105,-2.106 -3.57,-2.875 -1.465,-0.769 -3.26,-1.154 -5.384,-1.154 h -36.144 c -0.684,0 -1.319,0.122 -1.904,0.367 -0.586,0.243 -1.093,0.579 -1.52,1.006 -0.428,0.428 -0.764,0.934 -1.008,1.52 -0.244,0.586 -0.366,1.221 -0.366,1.905 v 42.92 c 0,0.659 0.122,1.281 0.366,1.867 0.244,0.586 0.58,1.099 1.008,1.538 0.427,0.44 0.934,0.782 1.52,1.026 0.585,0.243 1.22,0.366 1.904,0.366 h 31.86 c 1.172,0 2.429,-0.208 3.772,-0.623 C -1.185,38.11 0.066,37.445 1.227,36.53 2.386,35.614 3.351,34.424 4.12,32.959 4.889,31.494 5.273,29.7 5.273,27.576 V 25.781 C 5.273,24.097 4.992,22.284 4.431,20.343 3.869,18.402 2.966,16.565 1.721,14.832 2.795,14.172 3.802,13.379 4.742,12.451 5.682,11.523 6.506,10.449 7.214,9.229 7.922,8.007 8.483,6.628 8.898,5.09 9.313,3.552 9.521,1.855 9.521,0 Z"
             style="fill:#009f4e;fill-opacity:1;fill-rule:nonzero;stroke:none"
             id="path294"
             inkscape:connector-curvature="0" /></g></g></g></g></svg>