<svg xmlns="http://www.w3.org/2000/svg" width="100" height="100" viewBox="0 0 100 100">
    <g fill="none" fill-rule="evenodd">
        <circle cx="51" cy="50" r="49" fill="#3BA5D8"/>
        <g transform="translate(12.157 31.913)">
            <path stroke="#F2F2F2" stroke-width="1.8" d="M7.222 13.489l-2.288 1.43.171 1.59 66.529-6.847-.17-1.586-2.549-.937-61.693 6.35z"/>
            <path fill="#F2F2F2" d="M4.224 16.736l68.32-7.032.897 8.36 3.36-.393-2.782 5.78.558 5.201-1.401 1.74-65.178 6.71-1.74-1.418-.503-4.686-4.585-5.471 3.954-.404z"/>
            <path fill="#202951" d="M4.306 17.496l68.319-7.031.816 7.604-68.327 7.035z"/>
            <path fill="#F2F2F2" d="M20.765 7.692l3.761-4.546L49.68.503l4.624 3.664-1.357 13.979-27.949 2.937z"/>
            <path fill="#202951" d="M30.691 8.033l13.974-1.469-.39 9.726-11.18 1.175zM47.46 6.27l4.752-.5-.95 9.786-4.192.44zM23.145 8.826l4.751-.5L30.3 17.76l-4.192.44z"/>
            <ellipse cx="68.578" cy="23.948" stroke="#15192E" stroke-width="2.7" rx="2.552" ry="2.473" transform="rotate(-6 68.578 23.948)"/>
            <ellipse cx="11.36" cy="29.837" stroke="#15192E" stroke-width="2.7" rx="2.552" ry="2.473" transform="rotate(-6 11.36 29.837)"/>
        </g>
        <path fill="#15192E" d="M51 95.5c24.78.098 39-16.5 44.41-33.202-1.114-.406-2.053-1.03-2.69-1.812l-.192-.236-.192.236c-1.167 1.434-3.355 2.34-5.771 2.34s-4.604-.906-5.773-2.34l-.192-.236-.192.236c-1.167 1.434-3.355 2.34-5.772 2.34-2.416 0-4.604-.906-5.772-2.34l-.192-.236-.192.236c-1.168 1.434-3.356 2.34-5.772 2.34-2.416 0-4.604-.906-5.772-2.34l-.193-.236-.192.236c-1.167 1.434-3.355 2.34-5.771 2.34s-4.604-.906-5.772-2.34l-.192-.236-.192.236c-1.168 1.434-3.355 2.34-5.772 2.34-2.416 0-4.604-.906-5.772-2.34l-.192-.236-.193.236c-1.167 1.434-3.355 2.34-5.771 2.34s-4.604-.906-5.772-2.34l-.193-.236-.192.236c-1.167 1.434-3.355 2.34-5.771 2.34-2.417 0-4.605-.906-5.773-2.34l-.192-.236-.192.236c-.636.782-1.575 1.406-2.69 1.813C10 79 26.22 95.402 51 95.5z"/>
        <path stroke="#F2F2F2" stroke-linecap="round" stroke-width="1.5" d="M37.047 21.884C29.11 20.32 21.425 25.578 19.882 33.63M34.472 27.777c-3.968-.894-7.81 2.11-8.582 6.712M65.37 78.866c7.937 1.565 15.622-3.694 17.165-11.746M67.675 73.445c3.876 1.237 7.966-1.422 9.135-5.938"/>
        <circle cx="50" cy="50" r="47.5" stroke="#F2F2F2" stroke-width="5"/>
    </g>
</svg>
