<svg xmlns="http://www.w3.org/2000/svg" width="100" height="100" viewBox="0 0 100 100">
    <defs>
        <ellipse id="a" cx="48.943" cy="46.68" rx="48" ry="46"/>
    </defs>
    <g fill="none" fill-rule="evenodd">
        <circle cx="50.226" cy="50.804" r="49" fill="#48CAFF"/>
        <path fill="#34AF49" d="M97 59c-3.35 20.363-23.116 36-47 36S6.35 79.363 3 59z"/>
        <path fill="#F2F2F2" fill-rule="nonzero" d="M50 94.828c24.758 0 44.828-20.07 44.828-44.828 0-24.758-20.07-44.828-44.828-44.828C25.242 5.172 5.172 25.242 5.172 50c0 24.758 20.07 44.828 44.828 44.828zM50 100C22.386 100 0 77.614 0 50S22.386 0 50 0s50 22.386 50 50-22.386 50-50 50z"/>
        <path fill="#F2F2F2" d="M34.813 48C28.25 47.774 23 42.478 23 35.976c0-6.641 5.478-12.025 12.234-12.025 1.164 0 2.29.16 3.355.458C40.081 18.433 45.57 14 52.11 14c7.69 0 13.922 6.126 13.922 13.683 0 .45-.022.894-.065 1.333.435-.059.88-.09 1.33-.09 5.36 0 9.704 4.27 9.704 9.537 0 5.128-4.118 9.311-9.281 9.528V48H34.813z"/>
        <g fill="#15192E">
            <path d="M36.07 73.323c3.654 0 6.615-2.968 6.615-6.628 0-1.798-.885-3.385-1.873-4.622-.988-1.238-4.19-4.951-4.741-6.792-.552 1.84-3.76 5.557-4.749 6.799-.988 1.242-1.866 2.82-1.866 4.615 0 3.66 2.962 6.628 6.615 6.628zM50.953 83.985c3.653 0 6.615-2.968 6.615-6.629 0-1.797-.885-3.384-1.873-4.622-.989-1.238-4.19-4.95-4.742-6.792-.55 1.841-3.76 5.557-4.748 6.8-.989 1.241-1.866 2.82-1.866 4.614 0 3.661 2.961 6.629 6.614 6.629zM64.182 70.863c3.653 0 6.615-3.103 6.615-6.93 0-1.88-.885-3.538-1.873-4.832-.989-1.294-4.19-5.176-4.742-7.101-.55 1.925-3.76 5.81-4.748 7.108-.989 1.299-1.866 2.95-1.866 4.825 0 3.827 2.961 6.93 6.614 6.93z"/>
        </g>
    </g>
</svg>
