<svg xmlns="http://www.w3.org/2000/svg" width="100" height="100" viewBox="0 0 100 100">
    <defs>
        <linearGradient id="a" x1="50%" x2="50%" y1="-107.411%" y2="100%">
            <stop offset="0%" stop-color="#34AF49"/>
            <stop offset="100%" stop-color="#008B29"/>
        </linearGradient>
    </defs>
    <g fill="none" fill-rule="evenodd">
        <path fill="url(#a)" d="M30 52h40v43H30z"/>
        <path stroke="#F2F2F2" d="M30 52.5h40" opacity=".5"/>
        <path fill="#F2F2F2" fill-rule="nonzero" d="M65 0c5.523 0 10 4.477 10 10v80c0 5.523-4.477 10-10 10H35c-5.523 0-10-4.477-10-10V10c0-5.523 4.477-10 10-10h30zm0 5H35a5 5 0 0 0-4.995 4.783L30 10v80a5 5 0 0 0 4.783 4.995L35 95h30a5 5 0 0 0 4.995-4.783L70 90V10a5 5 0 0 0-4.783-4.995L65 5z"/>
    </g>
</svg>
