<svg xmlns="http://www.w3.org/2000/svg" xmlns:xlink="http://www.w3.org/1999/xlink" width="100" height="100" viewBox="0 0 100 100">
    <defs>
        <path id="a" d="M50.15 95.152c-24.853 0-45-20.147-45-45s20.147-45 45-45c24.852 0 45 20.147 45 45s-20.148 45-45 45z"/>
    </defs>
    <g fill="none" fill-rule="evenodd">
        <ellipse cx="49.779" cy="49.804" fill="#48CAFF" rx="48.12" ry="48.144"/>
        <path fill="#F2F2F2" fill-rule="nonzero" d="M50 94.828c24.758 0 44.828-20.07 44.828-44.828 0-24.758-20.07-44.828-44.828-44.828C25.242 5.172 5.172 25.242 5.172 50c0 24.758 20.07 44.828 44.828 44.828zM50 100C22.386 100 0 77.614 0 50S22.386 0 50 0s50 22.386 50 50-22.386 50-50 50z"/>
        <mask id="b" fill="#fff">
            <use xlink:href="#a"/>
        </mask>
        <g mask="url(#b)">
            <path fill="#15192E" d="M99 99H1V66.285c40.587 0 61.873-9.277 98-15.285.172 5.526 0 44 0 48z"/>
            <path fill="#F2F2F2" fill-rule="nonzero" d="M98.853 56.153c-7.919 1.375-16.11 3.045-25.03 5.034.9-.2-11.935 2.687-15.414 3.444-20.079 4.372-35.044 6.504-52.942 6.856C5 71 2.21 65.722 3.297 65.709c18.403-.217 33.373-2.29 53.877-6.755 3.456-.753 16.267-3.635 15.385-3.438 9.487-2.116 18.172-3.877 26.584-5.31.357.294.357 5.294-.29 5.947z"/>
        </g>
    </g>
</svg>
