<svg width="80" height="80" viewBox="0 0 80 80" fill="none" xmlns="http://www.w3.org/2000/svg">
<path d="M40 58.4001L37.4264 74.6992L37.4344 58.1985L32.3432 73.8944L34.932 57.5977L27.448 72.3032L32.5544 56.6129L22.8624 69.9664L30.36 55.268L18.6984 66.9417L28.4032 53.5969L15.0592 63.3016L26.7312 51.64L12.0328 59.1376L25.3864 49.4456L9.69605 54.5521L24.4016 47.0681L8.10565 49.6568L23.8016 44.5657L7.30005 44.5737L23.6 42L7.30085 39.4265L23.8016 39.4344L8.10565 34.3433L24.4024 36.9321L9.69685 29.448L25.3872 34.5544L12.0336 24.8624L26.732 32.3601L15.0584 20.6984L28.4032 30.4032L18.6984 17.0592L30.36 28.7313L22.8624 14.0328L32.5544 27.3864L27.448 11.696L34.932 26.4016L32.3432 10.1056L37.4344 25.8016L37.4264 9.30005L40 25.6L42.5736 9.30085L42.5656 25.8016L47.6568 10.1056L45.068 26.4024L52.552 11.6968L47.4456 27.3872L57.1376 14.0336L49.64 28.732L61.3016 17.0584L51.5968 30.4032L64.9408 20.6984L53.2688 32.3601L67.9672 24.8624L54.6136 34.5544L70.304 29.448L55.5984 36.9321L71.8944 34.3433L56.1984 39.4344L72.7 39.4265L56.4 42L72.6992 44.5737L56.1984 44.5657L71.8944 49.6568L55.5976 47.0681L70.3032 54.5521L54.6128 49.4456L67.9664 59.1376L53.268 51.64L64.9416 63.3016L51.5968 53.5969L61.3016 66.9409L49.64 55.2688L57.1376 69.9673L47.4456 56.6136L52.552 72.304L45.068 57.5984L47.6568 73.8944L42.5656 58.1985L42.5736 74.7001L40 58.4001Z" fill="#FFC020"/>
<path d="M40 55C48.2843 55 55 48.2843 55 40C55 31.7157 48.2843 25 40 25C31.7157 25 25 31.7157 25 40C25 48.2843 31.7157 55 40 55Z" fill="#FFC020"/>
<path d="M2.38806 46.4024C5.30646 64.544 21.0353 78.4016 40.0001 78.4016C58.9649 78.4016 74.6937 64.544 77.6121 46.4016" fill="#34AF49"/>
<path d="M40 75.8624C59.8064 75.8624 75.8624 59.8064 75.8624 40C75.8624 20.1936 59.8064 4.1376 40 4.1376C20.1936 4.1376 4.1376 20.1936 4.1376 40C4.1376 59.8064 20.1936 75.8624 40 75.8624ZM40 80C17.9088 80 0 62.0912 0 40C0 17.9088 17.9088 0 40 0C62.0912 0 80 17.9088 80 40C80 62.0912 62.0912 80 40 80Z" fill="#3D404F"/>
</svg>
