<svg xmlns="http://www.w3.org/2000/svg" width="100" height="100" viewBox="0 0 100 100">
    <g fill="none" fill-rule="evenodd">
        <circle cx="50" cy="50" r="50" fill="#F2F2F2"/>
        <circle cx="50" cy="50" r="45" fill="#48CAFF"/>
        <path fill="#15192E" d="M50 95c17.12 0 31-14.146 31-31.595 0-8.568-4.147-16.131-8.78-22.031C67.59 35.474 52.584 17.776 50 9c-2.583 8.776-17.619 26.488-22.253 32.408C23.113 47.328 19 54.854 19 63.405 19 80.855 32.88 95 50 95z"/>
        <g fill="#F2F2F2" fill-rule="nonzero">
            <path d="M31.058 63.221c0-9.116 4.533-16.047 12.351-16.047 7.819 0 12.352 6.93 12.352 16.047 0 9.116-4.533 16.047-12.352 16.047-7.818 0-12.351-6.93-12.351-16.047zm19.476 0c0-6.512-2.545-11.489-7.125-11.489-4.626 0-7.124 4.977-7.124 11.489 0 6.419 2.498 11.442 7.124 11.442 4.58 0 7.125-5.023 7.125-11.442zM57.945 83.748v-3.082c5.858-5.451 6.75-6.376 6.75-7.893 0-.995-.755-1.683-1.83-1.683-1.304 0-2.357.593-3.25 1.683l-2.15-2.441c1.373-1.73 3.318-2.631 5.491-2.631 3.226 0 5.469 1.99 5.469 5.025 0 2.275-1.35 4.148-5.126 7.68h5.24v3.342H57.945z"/>
        </g>
    </g>
</svg>
