<svg xmlns="http://www.w3.org/2000/svg" width="100" height="100" viewBox="0 0 100 100">
    <g fill="none" fill-rule="evenodd">
        <circle cx="50" cy="50" r="50" fill="#15192E"/>
        <path fill="#F2F2F2" d="M0 50l14-6v12zM99 50l-14-6v12zM50 100l6-14H44zM50 0l6 14H44z"/>
        <circle cx="50" cy="50" r="38" fill="#15192E"/>
        <ellipse cx="49.784" cy="49.783" stroke="#F2F2F2" stroke-width="2.038" rx="37.979" ry="37.981"/>
        <g stroke="#F2F2F2" stroke-width="1.358">
            <path d="M69.699 83.012L29.87 17.003"/>
            <path stroke-linecap="square" d="M83.033 68.844l-66.38-38.155M82.5 30.5L17.416 68.762M68.868 16.588L30.7 82.778"/>
        </g>
        <circle cx="50" cy="50" r="33" fill="#15192E"/>
        <path fill="#48CAFF" d="M50.376 24.473l12.81 38.222a.396.396 0 0 1-.505.5L50 58.858l-12.682 4.339a.396.396 0 0 1-.504-.501l12.81-38.222a.396.396 0 0 1 .752 0z"/>
        <ellipse cx="50" cy="50.001" fill="#48CAFF" rx="1" ry="1.001"/>
    </g>
</svg>
