<svg xmlns="http://www.w3.org/2000/svg" width="100" height="100" viewBox="0 0 100 100">
    <g fill="none" fill-rule="evenodd">
        <path fill="#15192E" d="M50 95c24.853 0 46-20.147 46-45S74.853 4 50 4 4 25.147 4 50s21.147 45 46 45z"/>
        <g transform="translate(10.02 23.505)">
            <path fill="#F2F2F2" stroke="#F2F2F2" d="M53.46 36.807c-1.615-2.222-5.665-3.199-8.556-3.199-16.903-.268-.056.017-16.947-.195-.682-.009-1.667.17-2.594.465-.466.149-.513.157-1.124.443.389-.566 1.395-1.584 1.997-2.19a24.902 24.902 0 0 1 2.21-1.951c8.984-7.11 29.002-16.093 52.898-22.613.775-.212 1.675-.24 2.505-.413 1.248 0-30.39 10.535-30.39 29.653z"/>
            <path stroke="#15192E" stroke-width="1.5" d="M47.028 34.74C49.937 24.597 64.38 11.99 83.85 6.376M26.366 34.94c6.24-13.476 38.014-22.95 57.483-28.564"/>
            <path fill="#F2F2F2" stroke="#15192E" stroke-width="3.626" d="M49.677 18.061c-.013.073-.024.144-.045.286-.062.42-.093.599-.156.865-.21.876-.601 1.622-1.288 2.276-1.204 1.145-2.901 1.707-4.674 1.556-2.03-.173-3.721-1.698-4.364-3.596-.382-1.128-.382-2.339-.033-3.57C41.431 7.35 57.623.246 76.834-1.312l.555-.045.484.274c1.505.851 2.299 1.37 2.75 1.861.66.715.956 1.701.203 2.67-.432.555-.89.726-1.547.835l-.146.019c-16.26 1.368-28.337 7.316-29.456 13.76z"/>
            <path fill="#2672AB" fill-rule="nonzero" d="M12.201 4.889c2.361 0 4.552-.825 5.888-2.21 1.337 1.385 3.528 2.21 5.889 2.21 2.36 0 4.552-.825 5.888-2.21 1.336 1.385 3.527 2.21 5.888 2.21 2.36 0 4.552-.825 5.888-2.21 1.337 1.385 3.528 2.21 5.888 2.21 2.361 0 4.552-.825 5.888-2.21.769.796 1.263 1.021 2.06 1.312.767-.255 1.585-.516 1.998-.644-1.81-.23-2.438-.662-3.375-1.816l-.683-.84-.682.84c-1.031 1.27-3.016 2.082-5.206 2.082-2.189 0-4.174-.811-5.206-2.082l-.682-.84-.683.84c-1.03 1.27-3.015 2.082-5.205 2.082s-4.175-.811-5.206-2.082l-.683-.84-.682.84c-1.03 1.27-3.016 2.082-5.205 2.082-2.19 0-4.175-.811-5.206-2.082l-.683-.84-.683.84c-1.03 1.27-3.015 2.082-5.205 2.082-2.189 0-4.174-.811-5.206-2.082l-.682-.84-.683.84C4.6 2.802 2.615 3.614.425 3.614V4.89c2.36 0 4.552-.825 5.888-2.21C7.65 4.064 9.84 4.889 12.2 4.889z"/>
            <path stroke="#F2F2F2" stroke-linecap="round" stroke-width="3.5" d="M55.502 7.227v17.854"/>
            <path fill="#F2F2F2" fill-rule="nonzero" d="M64.272 2.976v13.603l2.796-.76V2.976zM72.873 1.275v11.053l2.118-.765V1.275z"/>
            <path stroke="#F2F2F2" stroke-width="3.5" d="M28.754 38.308c-2.773 0-5.023 2.258-5.023 5.046 0 2.788 2.25 5.046 5.023 5.046 2.772 0 5.023-2.258 5.023-5.046 0-2.788-2.25-5.046-5.023-5.046zM45.754 38.308c-2.773 0-5.023 2.258-5.023 5.046 0 2.788 2.25 5.046 5.023 5.046 2.772 0 5.023-2.258 5.023-5.046 0-2.788-2.25-5.046-5.023-5.046z"/>
            <ellipse cx="44.317" cy="17.854" fill="#15192E" rx="2.118" ry="2.125"/>
        </g>
        <path fill="#15192E" stroke="#2672AB" stroke-width="1.5" d="M49.82 96.622c19.676 0 36.612-11.73 44.2-28.58-1.101-.401-2.032-1.02-2.662-1.794l-.19-.233-.19.234c-1.157 1.42-3.324 2.316-5.717 2.316s-4.56-.896-5.717-2.317l-.19-.233-.19.234c-1.156 1.42-3.323 2.316-5.716 2.316-2.393 0-4.56-.896-5.717-2.317l-.19-.233-.191.234c-1.156 1.42-3.323 2.316-5.716 2.316-2.393 0-4.56-.896-5.717-2.317l-.19-.233-.19.234c-1.157 1.42-3.324 2.316-5.717 2.316-2.392 0-4.559-.896-5.716-2.317l-.19-.233-.19.234c-1.157 1.42-3.323 2.316-5.717 2.316-2.393 0-4.56-.896-5.716-2.317l-.19-.233-.191.234c-1.156 1.42-3.323 2.316-5.716 2.316-2.393 0-4.56-.896-5.717-2.317l-.19-.233-.19.234c-1.157 1.42-3.324 2.316-5.717 2.316s-4.56-.896-5.717-2.317l-.19-.233-.19.234c-.63.773-1.56 1.392-2.664 1.794 7.588 16.848 24.525 28.579 44.201 28.579z"/>
        <path fill="#F2F2F2" fill-rule="nonzero" d="M35.427 43.58c-7.808-1.662-15.484 3.33-17.143 11.15a.64.64 0 1 0 1.25.266c1.512-7.129 8.51-11.68 15.628-10.165a.639.639 0 0 0 .265-1.25z"/>
        <path fill="#F2F2F2" fill-rule="nonzero" d="M33.841 48.852c-4.61-.982-9.14 1.966-10.12 6.582a.64.64 0 0 0 1.249.266c.833-3.925 4.686-6.431 8.606-5.597a.639.639 0 1 0 .265-1.251zM56.947 84.634c7.809 1.662 15.484-3.33 17.144-11.15a.64.64 0 1 0-1.25-.267c-1.513 7.13-8.51 11.68-15.628 10.165a.639.639 0 0 0-.266 1.252z"/>
        <path fill="#F2F2F2" fill-rule="nonzero" d="M58.35 79.385c4.61.981 9.14-1.966 10.12-6.583a.64.64 0 0 0-1.249-.266c-.833 3.926-4.686 6.432-8.606 5.597a.639.639 0 1 0-.265 1.252z"/>
        <circle cx="50" cy="50" r="47.5" stroke="#F2F2F2" stroke-width="5"/>
    </g>
</svg>
