<svg xmlns="http://www.w3.org/2000/svg" width="100" height="100" viewBox="0 0 100 100">
    <g fill="none" fill-rule="evenodd">
        <circle cx="50" cy="50" r="48.333" fill="#48CAFF"/>
        <path fill="#15192E" d="M6.667 44.167h89.655v16.667H6.667z"/>
        <path fill="#15192E" d="M96.175 60C92.885 80.74 73.465 96.668 50 96.668 26.535 96.667 7.116 80.74 3.825 60z"/>
        <path fill="#34AF49" d="M26.667 29.457c7.746 14.239 8.532 53.428 40 53.428 5.996 0 11.186.142 15.57.425C73.858 91.317 62.503 96.234 50 96.234c-25.773 0-46.667-20.893-46.667-46.667 0-11.84 4.41-22.65 11.677-30.878 4.976 2.042 8.862 5.631 11.657 10.768z"/>
        <path fill="#F2F2F2" fill-rule="nonzero" d="M50 95c24.853 0 45-20.147 45-45S74.853 5 50 5 5 25.147 5 50s20.147 45 45 45zm0 5C22.386 100 0 77.614 0 50S22.386 0 50 0s50 22.386 50 50-22.386 50-50 50z"/>
    </g>
</svg>
