<svg xmlns="http://www.w3.org/2000/svg" width="100" height="100" viewBox="0 0 100 100">
    <g fill="none" fill-rule="evenodd">
        <circle cx="50" cy="50" r="50" fill="#F2F2F2" fill-rule="nonzero"/>
        <circle cx="50" cy="50" r="45" fill="#48CAFF" fill-rule="nonzero"/>
        <path fill="#15192E" fill-rule="nonzero" d="M50 95c17.12 0 31-14.146 31-31.595 0-8.568-4.147-16.131-8.78-22.031C67.59 35.474 52.584 17.776 50 9c-2.583 8.776-17.619 26.488-22.253 32.408C23.113 47.328 19 54.854 19 63.405 19 80.855 32.88 95 50 95z"/>
        <path fill="#F2F2F2" stroke="#F2F2F2" stroke-width="1.275" d="M42.675 65.972l-8.235 7.155a.637.637 0 0 0-.1.852l4.191 5.847c.12.167.313.266.518.266h7.572a.637.637 0 0 0 .615-.804l-3.528-13.002a.637.637 0 0 0-1.033-.314z"/>
        <path stroke="#15192E" stroke-linecap="round" stroke-width="1.275" d="M42.452 68.212l-5.457 5.814"/>
        <path fill="#F2F2F2" stroke="#F2F2F2" stroke-width="1.275" d="M61.046 62.189l-5.393 3.85a.637.637 0 0 0-.195.813l2.723 5.215a.637.637 0 0 0 .67.334l7.729-1.285a.637.637 0 0 0 .43-.976l-5.06-7.78a.637.637 0 0 0-.904-.171z"/>
        <path stroke="#15192E" stroke-linecap="round" stroke-width="1.275" d="M61.371 64.326l-3.869 2.813"/>
        <path fill="#F2F2F2" stroke="#F2F2F2" stroke-width="1.275" d="M44.42 47.39l-.856 5.974a.637.637 0 0 0 .411.689l6.45 2.375a.64.64 0 0 0 .82-.378l3.083-8.35a.637.637 0 0 0-.598-.858h-8.68a.637.637 0 0 0-.63.547z"/>
        <path stroke="#15192E" stroke-linecap="round" stroke-width="1.275" d="M47.113 48.711l-1.148 3.034"/>
    </g>
</svg>
