<svg xmlns="http://www.w3.org/2000/svg" width="100" height="100" viewBox="0 0 100 100">
    <g fill="none" fill-rule="evenodd">
        <circle cx="50" cy="50" r="50" fill="#15192E"/>
        <circle cx="50" cy="66" r="9" fill="#F2F2F2"/>
        <path fill="#D03A02" fill-rule="nonzero" d="M54.451 15.53C71.785 17.477 85.11 32.2 85.11 49.876c0 11.038-5.225 21.216-13.877 27.69-3.948 2.955 0 8.224 3.945 5.271 10.027-7.503 16.517-19.475 16.517-32.961 0-21.027-15.776-38.37-36.139-40.843-4.467-.543-4.919 6.07-1.104 6.499z"/>
        <path fill="#48CAFF" fill-rule="nonzero" d="M45.539 15.53C28.205 17.477 14.88 32.2 14.88 49.876c0 11.038 5.225 21.216 13.877 27.69 3.948 2.955 0 8.224-3.945 5.271C14.787 75.333 8.297 63.361 8.297 49.875c0-21.027 15.775-38.37 36.138-40.843 4.467-.543 4.919 6.07 1.104 6.499z"/>
        <g fill="#F2F2F2">
            <path d="M50 24c-1.167 6.914-5.833 48.032-7 56h14c-1.167-7.968-5.833-49.086-7-56z"/>
        </g>
        <ellipse cx="50" cy="66.001" fill="#15192E" rx="1" ry="1.001"/>
    </g>
</svg>
