<svg width="54" height="54" viewBox="0 0 54 54" fill="none" xmlns="http://www.w3.org/2000/svg">
<path d="M14.0967 21.9031H15.387C15.387 19.387 17.387 17.387 19.9031 17.387V16.0967C16.6773 16.0967 14.0967 18.6773 14.0967 21.9031Z" fill="#7BB7EF"/>
<path fill-rule="evenodd" clip-rule="evenodd" d="M28.3789 9.43359C25.8786 10.1393 23.66 11.6777 22.0967 13.8386C15.9677 12.3547 11.5807 17.1289 11.5161 21.5805C8.80649 22.4192 7 24.8709 7 27.7096C7 31.258 9.90319 34.1613 13.4516 34.1613H16V32.8709H13.4516C10.6129 32.8709 8.29033 30.5484 8.29033 27.7096C8.29033 25.258 9.96773 23.1935 12.2903 22.6774L12.8065 22.5484C12.4839 16.0968 18.7419 13.5807 22.6129 15.3226C22.6129 15.3226 24.3804 12.1893 28.1056 10.8675C28.1692 10.3801 28.2608 9.90162 28.3789 9.43359ZM44.4857 24.351C44.9159 24.2064 45.3355 24.0391 45.7433 23.8504C46.5432 24.9313 47 26.2729 47 27.7096C47 31.2581 44.0967 34.1613 40.5484 34.1613H38V32.8709H40.5484C43.3871 32.8709 45.7097 30.5484 45.7097 27.7096C45.7097 26.2063 45.1709 25.1221 44.4857 24.351Z" fill="#7BB7EF"/>
<path d="M39.7259 10.291C39.7259 10.8223 39.5637 11.2793 39.2395 11.6621C38.9153 12.041 38.4466 12.3164 37.8333 12.4883V12.5234C39.263 12.7031 39.9778 13.3789 39.9778 14.5508C39.9778 15.3477 39.6614 15.9746 39.0286 16.4316C38.3997 16.8887 37.5247 17.1172 36.4036 17.1172C35.9427 17.1172 35.5149 17.084 35.1204 17.0176C34.7298 16.9512 34.3059 16.8301 33.8489 16.6543V14.7324C34.2239 14.9238 34.6048 15.0664 34.9915 15.1602C35.3821 15.25 35.7415 15.2949 36.0696 15.2949C36.5774 15.2949 36.9466 15.2246 37.177 15.084C37.4114 14.9395 37.5286 14.7148 37.5286 14.4102C37.5286 14.1758 37.468 13.9961 37.347 13.8711C37.2259 13.7422 37.0305 13.6465 36.761 13.584C36.4915 13.5176 36.1399 13.4844 35.7063 13.4844H35.179V11.7441H35.718C36.8938 11.7441 37.4817 11.4434 37.4817 10.8418C37.4817 10.6152 37.3938 10.4473 37.218 10.3379C37.0462 10.2285 36.8137 10.1738 36.5208 10.1738C35.9739 10.1738 35.4075 10.3574 34.8216 10.7246L33.8606 9.17773C34.3137 8.86523 34.7766 8.64258 35.2493 8.50977C35.7259 8.37695 36.2708 8.31055 36.8841 8.31055C37.7708 8.31055 38.4661 8.48633 38.97 8.83789C39.4739 9.18945 39.7259 9.67383 39.7259 10.291ZM47.1394 12.7285C47.1394 14.2441 46.8855 15.3555 46.3777 16.0625C45.8698 16.7656 45.0925 17.1172 44.0456 17.1172C43.0222 17.1172 42.2507 16.75 41.7312 16.0156C41.2116 15.2773 40.9519 14.1816 40.9519 12.7285C40.9519 11.2051 41.2058 10.0879 41.7136 9.37695C42.2214 8.66602 42.9987 8.31055 44.0456 8.31055C45.0652 8.31055 45.8347 8.68164 46.3542 9.42383C46.8777 10.1621 47.1394 11.2637 47.1394 12.7285ZM43.2546 12.7285C43.2546 13.6973 43.3152 14.3633 43.4362 14.7266C43.5573 15.0898 43.7605 15.2715 44.0456 15.2715C44.3347 15.2715 44.5378 15.084 44.655 14.709C44.7761 14.334 44.8366 13.6738 44.8366 12.7285C44.8366 11.7793 44.7761 11.1152 44.655 10.7363C44.5339 10.3535 44.3308 10.1621 44.0456 10.1621C43.7605 10.1621 43.5573 10.3457 43.4362 10.7129C43.3152 11.0801 43.2546 11.752 43.2546 12.7285Z" fill="white"/>
<path d="M35 28C35 28.8526 34.3661 29.8348 32.8783 30.6614C31.4244 31.4691 29.3481 32 27 32C24.6519 32 22.5756 31.4691 21.1217 30.6614C19.6339 29.8348 19 28.8526 19 28C19 27.1474 19.6339 26.1652 21.1217 25.3386C22.5756 24.5309 24.6519 24 27 24C29.3481 24 31.4244 24.5309 32.8783 25.3386C34.3661 26.1652 35 27.1474 35 28Z" stroke="#7BB7EF" stroke-width="2"/>
<path d="M35 28V34C34.3333 35.3333 31.8 37.5 27 37.5C22.2 37.5 19.6667 35.3333 19 34V28" stroke="#7BB7EF" stroke-width="2"/>
<path d="M35 33V39C34.3333 40.3333 31.8 42.5 27 42.5C22.2 42.5 19.6667 40.3333 19 39V33" stroke="#7BB7EF" stroke-width="2"/>
<path d="M35 38V44C34.3333 45.3333 31.8 47.5 27 47.5C22.2 47.5 19.6667 45.3333 19 44V38" stroke="#7BB7EF" stroke-width="2"/>
</svg>
