<svg width="54" height="54" viewBox="0 0 54 54" fill="none" xmlns="http://www.w3.org/2000/svg">
<path d="M14.0967 24.9031H15.387C15.387 22.387 17.387 20.387 19.9031 20.387V19.0967C16.6773 19.0967 14.0967 21.6773 14.0967 24.9031Z" fill="#7BB7EF"/>
<path fill-rule="evenodd" clip-rule="evenodd" d="M28.3789 12.4336C25.8786 13.1393 23.66 14.6777 22.0967 16.8386C15.9677 15.3547 11.5807 20.1289 11.5161 24.5805C8.80649 25.4192 7 27.8709 7 30.7096C7 34.258 9.90319 37.1613 13.4516 37.1613H16V35.8709H13.4516C10.6129 35.8709 8.29033 33.5484 8.29033 30.7096C8.29033 28.258 9.96773 26.1935 12.2903 25.6774L12.8065 25.5484C12.4839 19.0968 18.7419 16.5807 22.6129 18.3226C22.6129 18.3226 24.3804 15.1893 28.1056 13.8675C28.1692 13.3801 28.2608 12.9016 28.3789 12.4336ZM44.4857 27.351C44.9159 27.2064 45.3355 27.0391 45.7433 26.8504C46.5432 27.9313 47 29.2729 47 30.7096C47 34.2581 44.0967 37.1613 40.5484 37.1613H38V35.8709H40.5484C43.3871 35.8709 45.7097 33.5484 45.7097 30.7096C45.7097 29.2063 45.1709 28.1221 44.4857 27.351Z" fill="#7BB7EF"/>
<path d="M37.709 20L40.6504 13.3613H36.9414V11.4453H43.123V12.8105L40.1055 20H37.709Z" fill="white"/>
<path d="M35 31C35 31.8526 34.3661 32.8348 32.8783 33.6614C31.4244 34.4691 29.3481 35 27 35C24.6519 35 22.5756 34.4691 21.1217 33.6614C19.6339 32.8348 19 31.8526 19 31C19 30.1474 19.6339 29.1652 21.1217 28.3386C22.5756 27.5309 24.6519 27 27 27C29.3481 27 31.4244 27.5309 32.8783 28.3386C34.3661 29.1652 35 30.1474 35 31Z" stroke="#7BB7EF" stroke-width="2"/>
<path d="M35 31V37C34.3333 38.3333 31.8 40.5 27 40.5C22.2 40.5 19.6667 38.3333 19 37V31" stroke="#7BB7EF" stroke-width="2"/>
<path d="M35 36V42C34.3333 43.3333 31.8 45.5 27 45.5C22.2 45.5 19.6667 43.3333 19 42V36" stroke="#7BB7EF" stroke-width="2"/>
</svg>
