<svg width="54" height="54" viewBox="0 0 54 54" fill="none" xmlns="http://www.w3.org/2000/svg">
<path d="M14.0967 19.9031H15.387C15.387 17.387 17.387 15.387 19.9031 15.387V14.0967C16.6773 14.0967 14.0967 16.6773 14.0967 19.9031Z" fill="#7BB7EF"/>
<path fill-rule="evenodd" clip-rule="evenodd" d="M28.3789 7.43359C25.8786 8.13927 23.66 9.67767 22.0967 11.8386C15.9677 10.3547 11.5807 15.1289 11.5161 19.5805C8.80649 20.4192 7 22.8709 7 25.7096C7 29.258 9.90319 32.1613 13.4516 32.1613H16V30.8709H13.4516C10.6129 30.8709 8.29033 28.5484 8.29033 25.7096C8.29033 23.258 9.96773 21.1935 12.2903 20.6774L12.8065 20.5484C12.4839 14.0968 18.7419 11.5807 22.6129 13.3226C22.6129 13.3226 24.3804 10.1893 28.1056 8.8675C28.1692 8.38015 28.2608 7.90162 28.3789 7.43359ZM44.4857 22.351C44.9159 22.2064 45.3355 22.0391 45.7433 21.8504C46.5432 22.9313 47 24.2729 47 25.7096C47 29.2581 44.0967 32.1613 40.5484 32.1613H38V30.8709H40.5484C43.3871 30.8709 45.7097 28.5484 45.7097 25.7096C45.7097 24.2063 45.1709 23.1221 44.4857 22.351Z" fill="#7BB7EF"/>
<path d="M38.9583 15H36.6087V10.4648C36.6087 9.91406 36.6204 9.41016 36.6438 8.95312C36.4993 9.12891 36.3196 9.3125 36.1048 9.50391L35.1321 10.3066L33.9309 8.83008L36.8723 6.43359H38.9583V15ZM47.1042 15H40.8874V13.4766L42.9792 11.3613C43.5769 10.7363 43.9675 10.3105 44.1511 10.084C44.3347 9.85352 44.4616 9.65625 44.532 9.49219C44.6062 9.32812 44.6433 9.15625 44.6433 8.97656C44.6433 8.75391 44.571 8.57812 44.4265 8.44922C44.282 8.32031 44.0788 8.25586 43.8171 8.25586C43.5476 8.25586 43.2741 8.33398 42.9968 8.49023C42.7234 8.64258 42.4128 8.86914 42.0652 9.16992L40.7937 7.68164C41.2351 7.28711 41.6062 7.00586 41.907 6.83789C42.2077 6.66602 42.5339 6.53516 42.8855 6.44531C43.2409 6.35547 43.6394 6.31055 44.0808 6.31055C44.6355 6.31055 45.1296 6.4082 45.5632 6.60352C46.0007 6.79883 46.3386 7.07812 46.5769 7.44141C46.8191 7.80078 46.9402 8.20508 46.9402 8.6543C46.9402 8.99023 46.8972 9.30078 46.8112 9.58594C46.7292 9.87109 46.6003 10.1523 46.4245 10.4297C46.2487 10.7031 46.0144 10.9922 45.7214 11.2969C45.4323 11.6016 44.8132 12.1797 43.864 13.0312V13.0898H47.1042V15Z" fill="white"/>
<path d="M35 26C35 26.8526 34.3661 27.8348 32.8783 28.6614C31.4244 29.4691 29.3481 30 27 30C24.6519 30 22.5756 29.4691 21.1217 28.6614C19.6339 27.8348 19 26.8526 19 26C19 25.1474 19.6339 24.1652 21.1217 23.3386C22.5756 22.5309 24.6519 22 27 22C29.3481 22 31.4244 22.5309 32.8783 23.3386C34.3661 24.1652 35 25.1474 35 26Z" stroke="#7BB7EF" stroke-width="2"/>
<path d="M35 26V32C34.3333 33.3333 31.8 35.5 27 35.5C22.2 35.5 19.6667 33.3333 19 32V26" stroke="#7BB7EF" stroke-width="2"/>
<path d="M35 31V37C34.3333 38.3333 31.8 40.5 27 40.5C22.2 40.5 19.6667 38.3333 19 37V31" stroke="#7BB7EF" stroke-width="2"/>
<path d="M35 36V42C34.3333 43.3333 31.8 45.5 27 45.5C22.2 45.5 19.6667 43.3333 19 42V36" stroke="#7BB7EF" stroke-width="2"/>
<path d="M35 41V47C34.3333 48.3333 31.8 50.5 27 50.5C22.2 50.5 19.6667 48.3333 19 47V41" stroke="#7BB7EF" stroke-width="2"/>
</svg>
