<svg width="54" height="54" viewBox="0 0 54 54" fill="none" xmlns="http://www.w3.org/2000/svg">
<path d="M14.0967 26.9031H15.387C15.387 24.387 17.387 22.387 19.9031 22.387V21.0967C16.6773 21.0967 14.0967 23.6773 14.0967 26.9031Z" fill="#7BB7EF"/>
<path fill-rule="evenodd" clip-rule="evenodd" d="M28.3789 14.4336C25.8786 15.1393 23.66 16.6777 22.0967 18.8386C15.9677 17.3547 11.5807 22.1289 11.5161 26.5805C8.80649 27.4192 7 29.8709 7 32.7096C7 36.258 9.90319 39.1613 13.4516 39.1613H16V37.8709H13.4516C10.6129 37.8709 8.29033 35.5484 8.29033 32.7096C8.29033 30.258 9.96773 28.1935 12.2903 27.6774L12.8065 27.5484C12.4839 21.0968 18.7419 18.5807 22.6129 20.3226C22.6129 20.3226 24.3804 17.1893 28.1056 15.8675C28.1692 15.3801 28.2608 14.9016 28.3789 14.4336ZM44.4857 29.351C44.9159 29.2064 45.3355 29.0391 45.7433 28.8504C46.5432 29.9313 47 31.2729 47 32.7096C47 36.2581 44.0967 39.1613 40.5484 39.1613H38V37.8709H40.5484C43.3871 37.8709 45.7097 35.5484 45.7097 32.7096C45.7097 31.2063 45.1709 30.1221 44.4857 29.351Z" fill="#7BB7EF"/>
<path d="M40.013 22H33.7962V20.4766L35.888 18.3613C36.4856 17.7363 36.8762 17.3105 37.0598 17.084C37.2434 16.8535 37.3704 16.6562 37.4407 16.4922C37.5149 16.3281 37.552 16.1562 37.552 15.9766C37.552 15.7539 37.4798 15.5781 37.3352 15.4492C37.1907 15.3203 36.9876 15.2559 36.7259 15.2559C36.4563 15.2559 36.1829 15.334 35.9055 15.4902C35.6321 15.6426 35.3216 15.8691 34.9739 16.1699L33.7024 14.6816C34.1438 14.2871 34.5149 14.0059 34.8157 13.8379C35.1165 13.666 35.4427 13.5352 35.7942 13.4453C36.1497 13.3555 36.5481 13.3105 36.9895 13.3105C37.5442 13.3105 38.0384 13.4082 38.472 13.6035C38.9095 13.7988 39.2473 14.0781 39.4856 14.4414C39.7278 14.8008 39.8489 15.2051 39.8489 15.6543C39.8489 15.9902 39.8059 16.3008 39.72 16.5859C39.638 16.8711 39.5091 17.1523 39.3333 17.4297C39.1575 17.7031 38.9231 17.9922 38.6302 18.2969C38.3411 18.6016 37.722 19.1797 36.7727 20.0312V20.0898H40.013V22ZM47.3796 20.3418H46.4362V22H44.1511V20.3418H40.7351V18.6426L44.2976 13.4336H46.4362V18.6133H47.3796V20.3418ZM44.1511 18.6133V17.6172C44.1511 17.4297 44.157 17.1777 44.1687 16.8613C44.1843 16.541 44.196 16.373 44.2038 16.3574H44.1394C44.0066 16.6582 43.8562 16.9395 43.6882 17.2012L42.739 18.6133H44.1511Z" fill="white"/>
<path d="M35 33C35 33.8526 34.3661 34.8348 32.8783 35.6614C31.4244 36.4691 29.3481 37 27 37C24.6519 37 22.5756 36.4691 21.1217 35.6614C19.6339 34.8348 19 33.8526 19 33C19 32.1474 19.6339 31.1652 21.1217 30.3386C22.5756 29.5309 24.6519 29 27 29C29.3481 29 31.4244 29.5309 32.8783 30.3386C34.3661 31.1652 35 32.1474 35 33Z" stroke="#7BB7EF" stroke-width="2"/>
<path d="M35 33V39C34.3333 40.3333 31.8 42.5 27 42.5C22.2 42.5 19.6667 40.3333 19 39V33" stroke="#7BB7EF" stroke-width="2"/>
</svg>
