<svg width="82" height="67" viewBox="0 0 82 67" fill="none" xmlns="http://www.w3.org/2000/svg">
<path d="M40.9375 5H40.0625L39.625 5.875V14.1875L38.75 16.375H37.875V23.8125H38.75V24.6875H36.125V28.625C34.375 28.625 31.3125 29.0625 29.125 29.9375C26.9375 30.8125 23 36.0625 19.9375 37.8125C16.875 39.5625 16 42.625 16 46.5625C16 50.5 18.625 53.125 20.8125 53.125C23 53.125 24.75 54.875 27.8125 57.5C30.2625 59.6 32.625 60.7083 33.5 61H37.4375L48.8125 58.375C50.8542 58.5208 55.2 55.925 56.25 44.375C54.5 30.375 47.3542 28.0417 44 28.625V24.6875H41.375V23.375H42.25V16.375H41.375L40.9375 14.1875V5Z" fill="#7BB7EF"/>
<path d="M43.125 46.5625C43.125 39.5625 38.75 37.375 35.6875 37.375C33.2083 37.6667 28.25 39.5625 28.25 46.5625C28.25 53.5625 33.7917 55.75 36.5625 55.75C39.625 55.75 43.125 53.5625 43.125 46.5625Z" fill="#0E111B"/>
<path d="M37 40.875C37.875 41.1083 39.625 42.765 39.625 46.125" stroke="#7BB7EF" stroke-width="2" stroke-linecap="round"/>
<path opacity="0.2" d="M81 8.75758L80.4563 9.33177C76.5117 13.4975 69.8785 13.4975 65.934 9.33177L64.3587 7.66824C60.4142 3.50252 53.781 3.50251 49.8364 7.66823L48.2612 9.33176C44.3166 13.4975 37.6834 13.4975 33.7388 9.33177L32.1636 7.66824C28.219 3.50252 21.5859 3.50251 17.6413 7.66823L16.066 9.33176C12.1215 13.4975 5.48829 13.4975 1.54371 9.33177L1 8.75758" stroke="#7BB7EF" stroke-width="2"/>
<path d="M71.3781 58.7078L71.4026 58.7429C71.5713 58.9838 71.7 59.2912 71.7 59.6494C71.7 59.9664 71.6073 60.3207 71.3463 60.6137C71.0449 60.9993 70.5574 61.5225 69.9155 62.1642C69.9155 62.1643 69.9154 62.1643 69.9154 62.1644C69.9153 62.1644 69.9153 62.1645 69.9152 62.1645C69.5716 62.5083 69.2603 62.7929 68.9892 62.9983C68.8542 63.1006 68.7074 63.2001 68.555 63.2779C68.4212 63.3462 68.1862 63.4492 67.8997 63.4492C67.5517 63.4492 67.2374 63.3352 66.9754 63.1514L66.954 63.1364L66.9334 63.1203L65.4991 61.9978M71.3781 58.7078L65.4991 61.9978M71.3781 58.7078L71.3507 58.675C70.9168 58.1557 70.5484 57.6947 70.2434 57.2908M71.3781 58.7078L70.2434 57.2908M65.4991 61.9978C65.6992 61.9136 65.896 61.8219 66.0892 61.7228L65.633 60.8329L65.164 61.4323M65.4991 61.9978L65.303 61.8444M65.164 61.4323L64.3498 61.3493L64.6362 62.3074C64.853 62.2426 65.0661 62.1695 65.2756 62.0882C65.2848 62.0084 65.294 61.9272 65.303 61.8444M65.164 61.4323L65.0168 61.6204L65.303 61.8444M65.164 61.4323L65.3447 61.4507C65.3309 61.5855 65.3171 61.7167 65.303 61.8444M70.2434 57.2908C70.2821 57.2036 70.3189 57.117 70.3539 57.031L72.3388 56.7237C72.7767 56.6654 73.0835 56.4067 73.2713 56.1522L73.2731 56.1497C73.4534 55.9037 73.5828 55.593 73.5828 55.2333V52.1498C73.5828 51.7979 73.465 51.4641 73.2383 51.189C73.2383 51.189 73.2383 51.189 73.2383 51.189L72.4666 51.825M70.2434 57.2908L70.3842 50.3666C70.4683 50.5753 70.5409 50.7728 70.6011 50.9586L69.6498 51.2669M72.4666 51.825C72.3889 51.7307 72.2944 51.6721 72.1833 51.6502L69.6498 51.2669M72.4666 51.825C72.5443 51.9192 72.5828 52.0277 72.5828 52.1498V55.2333C72.5828 55.3444 72.5443 55.4525 72.4666 55.5585M72.4666 51.825V55.5585M69.6498 51.2669L69.7844 50.3773L69.0831 49.9001M69.6498 51.2669C69.5273 50.889 69.3386 50.4332 69.0831 49.9001M69.0831 49.9001C69.2495 49.6555 69.4998 49.3221 69.8332 48.9001M69.0831 49.9001L69.9848 49.4679C70.0752 49.6564 70.1589 49.8384 70.2355 50.0135C70.3446 49.8692 70.4718 49.7049 70.6179 49.52L70.6182 49.5196C70.9505 49.0985 71.1921 48.7888 71.334 48.599L71.3431 48.5869L71.3518 48.5744C71.5074 48.3527 71.6499 48.0495 71.6499 47.6835C71.6499 47.4438 71.5757 47.248 71.5252 47.1351C71.4688 47.009 71.3983 46.892 71.3295 46.7898C71.1919 46.5852 71.0068 46.3602 70.7932 46.1228C70.3624 45.6442 69.7361 45.028 68.9288 44.2822L68.9025 44.2579L68.8745 44.2355C68.6162 44.0291 68.285 43.8836 67.8998 43.8836C67.5728 43.8836 67.2321 43.9803 66.9432 44.2177L69.8332 48.9001M69.8332 48.9001C70.1665 48.4778 70.4002 48.1779 70.5332 48.0001C70.6111 47.889 70.6499 47.7834 70.6499 47.6835C70.6499 47.3834 69.8498 46.4946 68.2502 45.0167L69.8332 48.9001ZM51.5146 56.6571C51.1305 56.609 50.8161 56.4122 50.5949 56.1437L51.5146 56.6571ZM51.5146 56.6571L53.445 56.9619C53.4931 57.0803 53.5445 57.1997 53.5991 57.3203C53.4837 57.4695 53.3511 57.6383 53.2009 57.827L53.2008 57.8272C52.8581 58.2582 52.6147 58.5721 52.4865 58.7516L52.4865 58.7515L52.4809 58.7595C52.3266 58.9799 52.1835 59.2831 52.1835 59.6494C52.1835 59.8889 52.2575 60.0846 52.308 60.1977C52.3644 60.3239 52.435 60.441 52.5038 60.5432C52.6415 60.7479 52.8266 60.973 53.0402 61.2103C53.4711 61.689 54.0976 62.3051 54.905 63.0509L54.9315 63.0754L54.9597 63.0979C55.2186 63.3046 55.5495 63.4492 55.9336 63.4492C56.2324 63.4492 56.6001 63.3717 56.9077 63.1019L58.352 62.0127C58.4299 62.0466 58.5072 62.079 58.584 62.1098L58.8752 64.047L51.5146 56.6571ZM72.4666 55.5585C72.3889 55.6638 72.3 55.722 72.1997 55.7333L69.6163 56.1333L72.4666 55.5585ZM59.3932 64.9762C59.3934 64.9763 59.3935 64.9764 59.3936 64.9764L60.0333 64.2078L59.3932 64.9762ZM53.9155 45.154C53.2613 45.7971 52.7623 46.3305 52.4636 46.7317C52.2296 47.0189 52.1334 47.3575 52.1334 47.6836C52.1334 48.0401 52.269 48.3383 52.4067 48.5544L52.4413 48.6086L52.4825 48.658C52.9164 49.1773 53.2848 49.6384 53.5898 50.0422C53.5511 50.1296 53.5142 50.2163 53.4792 50.3023L51.4949 50.6093C51.0552 50.6674 50.7487 50.9281 50.5624 51.1802L50.5606 51.1825C50.3809 51.4272 50.25 51.7382 50.25 52.0995V55.1829C50.25 55.5369 50.3694 55.8697 50.5942 56.1429L53.9155 45.154ZM59.607 51.3569L59.6071 51.3568C60.2527 50.7111 61.004 50.3999 61.9167 50.3999C62.8291 50.3999 63.5803 50.711 64.2259 51.3568L64.2261 51.357C64.872 52.0028 65.1831 52.754 65.1831 53.6664C65.1831 54.5788 64.872 55.3302 64.226 55.9761C63.5803 56.6217 62.829 56.9329 61.9167 56.9329C61.0041 56.9329 60.2528 56.6217 59.6071 55.9762C58.9612 55.3302 58.65 54.5787 58.65 53.6664C58.65 52.7541 58.9612 52.0028 59.607 51.3569Z" fill="#7BB7EF" stroke="#0E111B" stroke-width="2"/>
</svg>
