<svg width="18" height="18" viewBox="0 0 18 18" fill="none" xmlns="http://www.w3.org/2000/svg">
<g clip-path="url(#clip0)">
<path d="M15.8026 2.15088H2.20112C0.986965 2.15088 0 3.13784 0 4.352V13.6481C0 14.8622 0.986965 15.8492 2.20112 15.8492H15.7989C17.013 15.8492 18 14.8622 18 13.6481V4.35572C18.0037 3.14157 17.0168 2.15088 15.8026 2.15088ZM16.9981 13.6481C16.9981 14.3073 16.4618 14.8436 15.8026 14.8436H2.20112C1.5419 14.8436 1.00559 14.3073 1.00559 13.6481V4.35572C1.00559 3.6965 1.5419 3.16019 2.20112 3.16019H15.7989C16.4581 3.16019 16.9944 3.6965 16.9944 4.35572V13.6481H16.9981Z" fill="white" fill-opacity="0.5"/>
<path d="M11.3517 8.88462L15.7539 4.93676C15.9588 4.75054 15.9774 4.43397 15.7912 4.2254C15.6049 4.02056 15.2884 4.00194 15.0798 4.18816L9.00904 9.63695L7.82469 8.57922C7.82096 8.5755 7.81724 8.57177 7.81724 8.56805C7.79117 8.54198 7.7651 8.51963 7.7353 8.49728L2.91593 4.18443C2.70737 3.99821 2.39079 4.01684 2.20457 4.2254C2.01836 4.43397 2.03698 4.75054 2.24554 4.93676L6.69992 8.91814L2.26417 13.0708C2.06305 13.2608 2.05187 13.5774 2.24182 13.7822C2.34238 13.8865 2.47646 13.9423 2.61053 13.9423C2.73344 13.9423 2.85634 13.8977 2.95318 13.8083L7.45597 9.59598L8.67757 10.6872C8.77441 10.7729 8.89359 10.8139 9.01277 10.8139C9.13195 10.8139 9.25485 10.7692 9.34796 10.6835L10.6031 9.55873L15.0798 13.812C15.1766 13.9051 15.3033 13.9498 15.4262 13.9498C15.5603 13.9498 15.6906 13.8977 15.7912 13.7934C15.9811 13.5923 15.9737 13.272 15.7725 13.082L11.3517 8.88462Z" fill="white" fill-opacity="0.5"/>
</g>
<defs>
<clipPath id="clip0">
<rect width="18" height="18" fill="white"/>
</clipPath>
</defs>
</svg>
