<svg width="161" height="160" viewBox="0 0 161 160" fill="none" xmlns="http://www.w3.org/2000/svg">
<path fill-rule="evenodd" clip-rule="evenodd" d="M51.299 79.4943C56.2811 81.4049 59.9021 86.9134 59.8779 92.0765C59.8737 92.9612 58.8036 93.1154 58.3468 92.3577C56.1361 88.5131 52.5621 88.2761 50.0334 90.8863C49.0652 91.8828 47.1461 92.4465 45.7192 92.387C42.0387 92.2441 40.0145 93.6547 39.5013 97.3129C39.3909 98.0465 39.2998 98.775 39.2086 99.5035C39.1175 100.232 39.0263 100.961 38.916 101.694C38.4715 104.679 38.6103 107.573 39.8855 110.358C40.0393 110.7 40.1305 111.068 40.2204 111.43C40.2263 111.454 40.2323 111.478 40.2382 111.502C40.2742 111.647 40.23 111.801 40.1058 111.883C39.9599 111.98 39.7648 111.955 39.637 111.835C39.5666 111.769 39.4958 111.703 39.4247 111.636C38.9624 111.205 38.4922 110.766 38.082 110.302C33.5051 105.012 32.76 98.6948 33.3176 92.0282C33.3961 91.1131 33.5223 90.1971 33.6485 89.2803C33.8529 87.796 34.0576 86.3095 34.061 84.8207C34.0661 83.5993 33.7011 82.397 33.3395 81.2056C33.2109 80.7819 33.0828 80.3597 32.9718 79.9385C32.8517 79.4574 32.6778 78.9935 32.5048 78.532C32.2472 77.8449 31.9917 77.1632 31.9186 76.4384C31.1278 68.889 32.9447 61.7702 37.4941 55.8672C46.7026 43.9173 57.7602 36.8893 72.6591 33.9585C72.8919 33.9026 73.3025 33.7632 73.7735 33.6033C74.6091 33.3197 74.8434 32.1171 74.1372 31.588C73.592 31.1795 73.067 30.7915 72.5521 30.411C71.3606 29.5304 71.593 27.7058 72.9284 27.0642C73.9568 26.5701 74.9334 26.0511 75.4355 25.6524C76.6634 24.6759 77.2634 23.9158 77.9197 23.0843C78.4092 22.4643 78.9299 21.8046 79.7657 20.9859C81.1865 19.5897 81.8496 19.4283 82.8591 20.8933C85.9778 25.4442 90.3374 28.6635 94.8068 31.7387C96.2253 32.701 97.9666 33.3312 99.654 33.6319C110.155 35.4338 119.706 39.1113 127.47 46.7229C130.443 49.6592 132.759 53.0334 134.316 56.8895C134.557 57.4307 134.589 58.4865 134.243 58.7922C133.894 59.1479 132.924 59.0151 132.307 58.853C131.825 58.7266 131.393 58.4972 130.955 58.2647C130.631 58.0926 130.301 58.3515 130.543 58.6271C130.55 58.6344 130.556 58.6418 130.563 58.6493C132.296 60.5587 132.271 61.335 129.836 62.1191C126.887 63.0734 123.819 63.9454 120.742 64.1645C113.866 64.5347 106.965 64.502 100.065 64.4693C97.9312 64.4683 96.3686 64.9528 94.7848 66.5401C93.4651 67.8755 91.9769 68.9002 90.3239 69.6627C88.1966 70.6439 86.8929 68.1008 88.5704 66.4655C89.2026 65.8492 88.8671 64.776 87.9964 64.6289C83.2017 63.8189 78.4922 63.0139 73.7828 62.209C73.5228 62.1645 73.2629 62.1201 73.0029 62.0757C71.032 61.7388 69.0948 62.6737 67.9738 64.3294C66.4257 66.6157 64.9595 68.0786 62.2281 69.4486C61.5351 69.7962 60.8641 68.932 60.1913 68.5465C59.3475 68.0631 60.6132 67.0963 61.3888 66.5097C62.3309 65.797 63.152 64.5178 63.9511 63.2729C64.6434 62.1944 63.9974 60.5441 62.7211 60.4292C61.6761 60.3351 60.6363 60.309 59.6142 60.4154C54.3614 60.9069 49.1424 61.6514 44.8921 65.2637C40.562 68.9464 41.2126 72.8492 44.8163 76.5004C45.5309 77.2239 46.551 77.6776 47.5531 78.1233C47.8061 78.2358 48.058 78.3478 48.3035 78.4636C48.8486 78.7116 49.423 78.8872 50.0032 79.0646C50.4352 79.1966 50.8704 79.3296 51.299 79.4943ZM119.352 53.926C118.447 52.9009 118.544 51.3359 119.569 50.4305C120.594 49.5252 122.159 49.6223 123.064 50.6474C123.97 51.6726 123.873 53.2375 122.847 54.1429C121.822 55.0483 120.257 54.9511 119.352 53.926Z" fill="#7BB7EF"/>
<g clip-path="url(#clip0)">
<path d="M132.306 101.714C132.239 100.686 134.425 95.2732 133.63 95.2732C131.776 95.3416 128.687 98.9928 126.875 98.8363C126.239 98.7816 125.2 98.3799 123.856 97.8375C124.266 97.205 124.451 96.1772 123.765 95.9741C123.176 95.7999 122.534 96.5659 122.144 97.1478C120.844 96.6322 119.361 96.0735 117.742 95.5855C117.747 95.3666 117.73 94.8005 117.473 94.1088C117.143 93.2179 117.274 90.7509 116.811 90.8193C114.467 91.4123 112.368 93.49 111.58 94.3487C110.327 94.2383 109.042 94.2186 107.739 94.3291C98.0696 95.1515 94.385 97.3522 93.0607 97.8999C91.7365 98.4483 91.8022 99.4759 92.8622 99.6127C93.9221 99.7501 95.7539 100.984 97.2109 102.56C97.2109 102.56 93.8997 103.039 92.9726 102.628C92.0456 102.216 91.6484 102.971 92.377 103.587C93.1383 104.232 96.0814 105.393 99.9554 106.238C102.923 104.14 102.666 100.487 102.12 99.4634C101.502 98.3042 101.983 97.7506 102.667 99.1267C104.031 101.873 102.149 105.362 101.423 106.534C102.437 106.722 103.499 106.883 104.591 107.007C104.39 106.4 104.225 105.864 104.127 105.545C104.864 106.538 106.327 108.465 107.153 108.978C108.145 109.594 110.397 108.703 110.464 107.812C110.474 107.654 110.303 107.459 110.015 107.246C112.256 107.175 114.56 106.884 116.71 106.51C117.208 106.95 118.266 107.806 119.327 108.155C120.538 107.754 120.863 106.363 120.95 105.646C123.943 104.956 126.106 104.308 126.478 104.318C128.995 104.387 132.855 107.947 133.895 106.991C134.49 106.442 132.368 102.681 132.306 101.714ZM97.6659 99.8396C97.2319 99.8396 96.8795 99.4878 96.8795 99.0546C96.8795 98.6206 97.2319 98.2689 97.6659 98.2689C98.0985 98.2689 98.4509 98.6207 98.4509 99.0546C98.451 99.4878 98.0986 99.8396 97.6659 99.8396Z" fill="#446485"/>
</g>
<rect x="36" y="29" width="25" height="25" fill="#0E111B"/>
<g clip-path="url(#clip1)">
<path d="M56.3721 131.394C56.4264 130.562 54.6565 126.178 55.2997 126.178C56.8012 126.233 59.3027 129.19 60.7701 129.063C61.2855 129.019 62.1267 128.694 63.2151 128.255C62.8829 127.742 62.7327 126.91 63.2886 126.746C63.7656 126.604 64.2852 127.225 64.6016 127.696C65.6537 127.279 66.8549 126.826 68.1658 126.431C68.1615 126.254 68.1754 125.795 68.3841 125.235C68.6513 124.514 68.5448 122.516 68.9197 122.571C70.8184 123.051 72.518 124.734 73.1559 125.429C74.1707 125.34 75.2111 125.324 76.2664 125.413C84.0966 126.079 87.0804 127.862 88.1527 128.305C89.2251 128.749 89.1719 129.581 88.3135 129.692C87.4552 129.803 85.9718 130.802 84.7919 132.078C84.7919 132.078 87.4733 132.467 88.2241 132.134C88.9748 131.801 89.2964 132.411 88.7064 132.911C88.0899 133.433 85.7066 134.373 82.5695 135.058C80.166 133.358 80.3748 130.4 80.8166 129.571C81.3171 128.632 80.9274 128.184 80.3736 129.299C79.2694 131.523 80.7932 134.348 81.381 135.297C80.56 135.449 79.6996 135.58 78.8157 135.68C78.9786 135.189 79.1118 134.754 79.1916 134.496C78.5942 135.3 77.41 136.861 76.7413 137.276C75.9373 137.775 74.1142 137.054 74.0599 136.332C74.0513 136.204 74.1897 136.046 74.423 135.874C72.6084 135.816 70.7427 135.58 69.0016 135.277C68.5981 135.634 67.7419 136.327 66.8825 136.61C65.9017 136.285 65.6387 135.159 65.5684 134.578C63.1447 134.019 61.3929 133.494 61.0916 133.502C59.0534 133.558 55.9279 136.441 55.0856 135.667C54.6032 135.223 56.322 132.177 56.3721 131.394ZM84.4235 129.876C84.7749 129.876 85.0603 129.591 85.0603 129.24C85.0603 128.889 84.7749 128.604 84.4235 128.604C84.0732 128.604 83.7878 128.889 83.7878 129.24C83.7877 129.591 84.0731 129.876 84.4235 129.876Z" fill="#446485"/>
</g>
<path d="M45.0278 29H36V38.0278" stroke="white" stroke-width="2"/>
<path d="M61 38.0278L61 29L51.9722 29" stroke="white" stroke-width="2"/>
<path d="M51.9722 54L61 54L61 44.9722" stroke="white" stroke-width="2"/>
<path d="M36 44.9722L36 54L45.0278 54" stroke="white" stroke-width="2"/>
<path d="M49 47.52L48.16 46.68C45.04 43.92 43 42.06 43 39.78C43 37.92 44.44 36.48 46.3 36.48C47.32 36.48 48.34 36.96 49 37.74C49.66 36.96 50.68 36.48 51.7 36.48C53.56 36.48 55 37.92 55 39.78C55 42.06 52.96 43.92 49.84 46.68L49 47.52Z" fill="white"/>
<defs>
<clipPath id="clip0">
<rect width="42" height="42" fill="white" transform="translate(92 79)"/>
</clipPath>
<clipPath id="clip1">
<rect width="34.0114" height="34.0114" fill="white" transform="matrix(-1 8.74228e-08 8.74228e-08 1 89.0117 113)"/>
</clipPath>
</defs>
</svg>
