<svg width="375" height="75" viewBox="0 0 375 75" fill="none" xmlns="http://www.w3.org/2000/svg">
<g opacity="0.3">
<path d="M413 12L412.779 11.8036C405.202 5.07132 393.787 5.07132 386.21 11.8036L385.768 12.1964C378.191 18.9287 366.776 18.9287 359.199 12.1965L358.757 11.8036C351.181 5.07132 339.765 5.07132 332.189 11.8036L331.746 12.1964C324.17 18.9287 312.755 18.9287 305.178 12.1964L304.736 11.8036C297.159 5.07132 285.744 5.07132 278.167 11.8036L277.725 12.1964C270.148 18.9287 258.733 18.9287 251.156 12.1964L250.714 11.8035C243.137 5.07131 231.722 5.07131 224.145 11.8035L223.703 12.1964C216.126 18.9287 204.711 18.9287 197.135 12.1964L196.48 11.6146C189.063 5.02465 177.791 5.19934 170.509 11.9385V11.9385C163.192 18.7107 151.83 18.7722 144.513 12V12C137.196 5.22777 125.899 5.22778 118.582 12V12C111.265 18.7722 99.9688 18.7722 92.6519 12V12C85.335 5.22777 74.0385 5.22778 66.7215 12V12C59.4046 18.7722 48.1081 18.7722 40.7911 12V12C33.4742 5.22778 22.1777 5.22777 14.8608 12V12C7.54384 18.7722 -3.75267 18.7722 -11.0696 12V12C-18.3865 5.22777 -29.683 5.22778 -37 12V12" stroke="#7BB7EF"/>
<path d="M413 29L412.779 28.8036C405.202 22.0713 393.787 22.0713 386.21 28.8036L385.768 29.1964C378.191 35.9287 366.776 35.9287 359.199 29.1965L358.757 28.8036C351.181 22.0713 339.765 22.0713 332.189 28.8036L331.746 29.1964C324.17 35.9287 312.755 35.9287 305.178 29.1964L304.736 28.8036C297.159 22.0713 285.744 22.0713 278.167 28.8036L277.725 29.1964C270.148 35.9287 258.733 35.9287 251.156 29.1964L250.714 28.8035C243.137 22.0713 231.722 22.0713 224.145 28.8035L223.703 29.1964C216.126 35.9287 204.711 35.9287 197.135 29.1964L196.48 28.6146C189.063 22.0247 177.791 22.1993 170.509 28.9385V28.9385C163.192 35.7107 151.83 35.7722 144.513 29V29C137.196 22.2278 125.899 22.2278 118.582 29V29C111.265 35.7722 99.9688 35.7722 92.6519 29V29C85.335 22.2278 74.0385 22.2278 66.7215 29V29C59.4046 35.7722 48.1081 35.7722 40.7911 29V29C33.4742 22.2278 22.1777 22.2278 14.8608 29V29C7.54384 35.7722 -3.75267 35.7722 -11.0696 29V29C-18.3865 22.2278 -29.683 22.2278 -37 29V29" stroke="#7BB7EF"/>
<path d="M413 46L412.779 45.8036C405.202 39.0713 393.787 39.0713 386.21 45.8036L385.768 46.1964C378.191 52.9287 366.776 52.9287 359.199 46.1965L358.757 45.8036C351.181 39.0713 339.765 39.0713 332.189 45.8036L331.746 46.1964C324.17 52.9287 312.755 52.9287 305.178 46.1964L304.736 45.8036C297.159 39.0713 285.744 39.0713 278.167 45.8036L277.725 46.1964C270.148 52.9287 258.733 52.9287 251.156 46.1964L250.714 45.8035C243.137 39.0713 231.722 39.0713 224.145 45.8035L223.703 46.1964C216.126 52.9287 204.711 52.9287 197.135 46.1964L196.48 45.6146C189.063 39.0247 177.791 39.1993 170.509 45.9385V45.9385C163.192 52.7107 151.83 52.7722 144.513 46V46C137.196 39.2278 125.899 39.2278 118.582 46V46C111.265 52.7722 99.9688 52.7722 92.6519 46V46C85.335 39.2278 74.0385 39.2278 66.7215 46V46C59.4046 52.7722 48.1081 52.7722 40.7911 46V46C33.4742 39.2278 22.1777 39.2278 14.8608 46V46C7.54384 52.7722 -3.75267 52.7722 -11.0696 46V46C-18.3865 39.2278 -29.683 39.2278 -37 46V46" stroke="#7BB7EF"/>
<path d="M413 63L412.779 62.8036C405.202 56.0713 393.787 56.0713 386.21 62.8036L385.768 63.1964C378.191 69.9287 366.776 69.9287 359.199 63.1965L358.757 62.8036C351.181 56.0713 339.765 56.0713 332.189 62.8036L331.746 63.1964C324.17 69.9287 312.755 69.9287 305.178 63.1964L304.736 62.8036C297.159 56.0713 285.744 56.0713 278.167 62.8036L277.725 63.1964C270.148 69.9287 258.733 69.9287 251.156 63.1964L250.714 62.8035C243.137 56.0713 231.722 56.0713 224.145 62.8035L223.703 63.1964C216.126 69.9287 204.711 69.9287 197.135 63.1964L196.48 62.6146C189.063 56.0247 177.791 56.1993 170.509 62.9385V62.9385C163.192 69.7107 151.83 69.7722 144.513 63V63C137.196 56.2278 125.899 56.2278 118.582 63V63C111.265 69.7722 99.9688 69.7722 92.6519 63V63C85.335 56.2278 74.0385 56.2278 66.7215 63V63C59.4046 69.7722 48.1081 69.7722 40.7911 63V63C33.4742 56.2278 22.1777 56.2278 14.8608 63V63C7.54384 69.7722 -3.75267 69.7722 -11.0696 63V63C-18.3865 56.2278 -29.683 56.2278 -37 63V63" stroke="#7BB7EF"/>
</g>
</svg>
