<svg width="452" height="109" viewBox="0 0 452 109" fill="none" xmlns="http://www.w3.org/2000/svg">
<g opacity="0.3">
<path d="M451 12L450.779 11.8036C443.202 5.07132 431.787 5.07132 424.21 11.8036L423.768 12.1964C416.191 18.9287 404.776 18.9287 397.199 12.1965L396.757 11.8036C389.181 5.07132 377.765 5.07132 370.189 11.8036L369.746 12.1964C362.17 18.9287 350.755 18.9287 343.178 12.1964L342.736 11.8036C335.159 5.07132 323.744 5.07132 316.167 11.8036L315.725 12.1964C308.148 18.9287 296.733 18.9287 289.156 12.1964L288.714 11.8035C281.137 5.07131 269.722 5.07131 262.145 11.8035L261.703 12.1964C254.126 18.9287 242.711 18.9287 235.135 12.1964L234.48 11.6146C227.063 5.02465 215.791 5.19934 208.509 11.9385V11.9385C201.192 18.7107 189.83 18.7722 182.513 12V12C175.196 5.22777 163.899 5.22778 156.582 12V12C149.265 18.7722 137.969 18.7722 130.652 12V12C123.335 5.22777 112.038 5.22778 104.722 12V12C97.4046 18.7722 86.1081 18.7722 78.7911 12V12C71.4742 5.22778 60.1777 5.22777 52.8608 12V12C45.5438 18.7722 34.2473 18.7722 26.9304 12V12C19.6135 5.22777 8.31695 5.22778 1.00002 12V12" stroke="#7BB7EF"/>
<path d="M451 29L450.779 28.8036C443.202 22.0713 431.787 22.0713 424.21 28.8036L423.768 29.1964C416.191 35.9287 404.776 35.9287 397.199 29.1965L396.757 28.8036C389.181 22.0713 377.765 22.0713 370.189 28.8036L369.746 29.1964C362.17 35.9287 350.755 35.9287 343.178 29.1964L342.736 28.8036C335.159 22.0713 323.744 22.0713 316.167 28.8036L315.725 29.1964C308.148 35.9287 296.733 35.9287 289.156 29.1964L288.714 28.8035C281.137 22.0713 269.722 22.0713 262.145 28.8035L261.703 29.1964C254.126 35.9287 242.711 35.9287 235.135 29.1964L234.48 28.6146C227.063 22.0247 215.791 22.1993 208.509 28.9385V28.9385C201.192 35.7107 189.83 35.7722 182.513 29V29C175.196 22.2278 163.899 22.2278 156.582 29V29C149.265 35.7722 137.969 35.7722 130.652 29V29C123.335 22.2278 112.038 22.2278 104.722 29V29C97.4046 35.7722 86.1081 35.7722 78.7911 29V29C71.4742 22.2278 60.1777 22.2278 52.8608 29V29C45.5438 35.7722 34.2473 35.7722 26.9304 29V29C19.6135 22.2278 8.31695 22.2278 1.00002 29V29" stroke="#7BB7EF"/>
<path d="M451 46L450.779 45.8036C443.202 39.0713 431.787 39.0713 424.21 45.8036L423.768 46.1964C416.191 52.9287 404.776 52.9287 397.199 46.1965L396.757 45.8036C389.181 39.0713 377.765 39.0713 370.189 45.8036L369.746 46.1964C362.17 52.9287 350.755 52.9287 343.178 46.1964L342.736 45.8036C335.159 39.0713 323.744 39.0713 316.167 45.8036L315.725 46.1964C308.148 52.9287 296.733 52.9287 289.156 46.1964L288.714 45.8035C281.137 39.0713 269.722 39.0713 262.145 45.8035L261.703 46.1964C254.126 52.9287 242.711 52.9287 235.135 46.1964L234.48 45.6146C227.063 39.0247 215.791 39.1993 208.509 45.9385V45.9385C201.192 52.7107 189.83 52.7722 182.513 46V46C175.196 39.2278 163.899 39.2278 156.582 46V46C149.265 52.7722 137.969 52.7722 130.652 46V46C123.335 39.2278 112.038 39.2278 104.722 46V46C97.4046 52.7722 86.1081 52.7722 78.7911 46V46C71.4742 39.2278 60.1777 39.2278 52.8608 46V46C45.5438 52.7722 34.2473 52.7722 26.9304 46V46C19.6135 39.2278 8.31695 39.2278 1.00002 46V46" stroke="#7BB7EF"/>
<path d="M451 63L450.779 62.8036C443.202 56.0713 431.787 56.0713 424.21 62.8036L423.768 63.1964C416.191 69.9287 404.776 69.9287 397.199 63.1965L396.757 62.8036C389.181 56.0713 377.765 56.0713 370.189 62.8036L369.746 63.1964C362.17 69.9287 350.755 69.9287 343.178 63.1964L342.736 62.8036C335.159 56.0713 323.744 56.0713 316.167 62.8036L315.725 63.1964C308.148 69.9287 296.733 69.9287 289.156 63.1964L288.714 62.8035C281.137 56.0713 269.722 56.0713 262.145 62.8035L261.703 63.1964C254.126 69.9287 242.711 69.9287 235.135 63.1964L234.48 62.6146C227.063 56.0247 215.791 56.1993 208.509 62.9385V62.9385C201.192 69.7107 189.83 69.7722 182.513 63V63C175.196 56.2278 163.899 56.2278 156.582 63V63C149.265 69.7722 137.969 69.7722 130.652 63V63C123.335 56.2278 112.038 56.2278 104.722 63V63C97.4046 69.7722 86.1081 69.7722 78.7911 63V63C71.4742 56.2278 60.1777 56.2278 52.8608 63V63C45.5438 69.7722 34.2473 69.7722 26.9304 63V63C19.6135 56.2278 8.31695 56.2278 1.00002 63V63" stroke="#7BB7EF"/>
<path d="M451 80L450.779 79.8036C443.202 73.0713 431.787 73.0713 424.21 79.8036L423.768 80.1964C416.191 86.9287 404.776 86.9287 397.199 80.1965L396.757 79.8036C389.181 73.0713 377.765 73.0713 370.189 79.8036L369.746 80.1964C362.17 86.9287 350.755 86.9287 343.178 80.1964L342.736 79.8036C335.159 73.0713 323.744 73.0713 316.167 79.8036L315.725 80.1964C308.148 86.9287 296.733 86.9287 289.156 80.1964L288.714 79.8035C281.137 73.0713 269.722 73.0713 262.145 79.8035L261.703 80.1964C254.126 86.9287 242.711 86.9287 235.135 80.1964L234.48 79.6146C227.063 73.0247 215.791 73.1993 208.509 79.9385V79.9385C201.192 86.7107 189.83 86.7722 182.513 80V80C175.196 73.2278 163.899 73.2278 156.582 80V80C149.265 86.7722 137.969 86.7722 130.652 80V80C123.335 73.2278 112.038 73.2278 104.722 80V80C97.4046 86.7722 86.1081 86.7722 78.7911 80V80C71.4742 73.2278 60.1777 73.2278 52.8608 80V80C45.5438 86.7722 34.2473 86.7722 26.9304 80V80C19.6135 73.2278 8.31695 73.2278 1.00002 80V80" stroke="#7BB7EF"/>
<path d="M451 97L450.779 96.8036C443.202 90.0713 431.787 90.0713 424.21 96.8036L423.768 97.1964C416.191 103.929 404.776 103.929 397.199 97.1965L396.757 96.8036C389.181 90.0713 377.765 90.0713 370.189 96.8036L369.746 97.1964C362.17 103.929 350.755 103.929 343.178 97.1964L342.736 96.8036C335.159 90.0713 323.744 90.0713 316.167 96.8036L315.725 97.1964C308.148 103.929 296.733 103.929 289.156 97.1964L288.714 96.8035C281.137 90.0713 269.722 90.0713 262.145 96.8035L261.703 97.1964C254.126 103.929 242.711 103.929 235.135 97.1964L234.48 96.6146C227.063 90.0247 215.791 90.1993 208.509 96.9385V96.9385C201.192 103.711 189.83 103.772 182.513 97V97C175.196 90.2278 163.899 90.2278 156.582 97V97C149.265 103.772 137.969 103.772 130.652 97V97C123.335 90.2278 112.038 90.2278 104.722 97V97C97.4046 103.772 86.1081 103.772 78.7911 97V97C71.4742 90.2278 60.1777 90.2278 52.8608 97V97C45.5438 103.772 34.2473 103.772 26.9304 97V97C19.6135 90.2278 8.31695 90.2278 1.00002 97V97" stroke="#7BB7EF"/>
</g>
</svg>
