<svg width="32" height="32" viewBox="0 0 32 32" fill="none" xmlns="http://www.w3.org/2000/svg">
<path fill-rule="evenodd" clip-rule="evenodd" d="M11 15.8232V4.8C11 2.14907 13.1491 0 15.8 0C18.4509 0 20.6 2.14907 20.6 4.8V15.8232C23.008 17.3933 24.6 20.1107 24.6 23.2C24.6 28.06 20.66 32 15.8 32C10.94 32 7 28.06 7 23.2C7 20.1107 8.592 17.3933 11 15.8232Z" fill="#F2F2F2"/>
<path fill-rule="evenodd" clip-rule="evenodd" d="M15.8003 2.66699C16.3661 2.66699 16.9087 2.89175 17.3088 3.29183C17.7089 3.69191 17.9337 4.23453 17.9337 4.80033V10.667H13.667V4.80033C13.667 4.23453 13.8918 3.69191 14.2918 3.29183C14.6919 2.89175 15.2345 2.66699 15.8003 2.66699Z" fill="#15192E"/>
<path d="M15.8003 29.3331C19.1877 29.3331 21.9337 26.5871 21.9337 23.1997C21.9337 19.8124 19.1877 17.0664 15.8003 17.0664C12.413 17.0664 9.66699 19.8124 9.66699 23.1997C9.66699 26.5871 12.413 29.3331 15.8003 29.3331Z" fill="#48CAFF"/>
<path fill-rule="evenodd" clip-rule="evenodd" d="M13.667 10.667H17.9337V22.3635C17.9337 22.9293 17.7089 23.4719 17.3088 23.872C16.9087 24.2721 16.3661 24.4969 15.8003 24.4969C15.2345 24.4969 14.6919 24.2721 14.2918 23.872C13.8918 23.4719 13.667 22.9293 13.667 22.3635V10.667Z" fill="#48CAFF"/>
</svg>
