<svg width="32" height="32" viewBox="0 0 32 32" fill="none" xmlns="http://www.w3.org/2000/svg">
<path d="M15.9999 31.4665C24.5419 31.4665 31.4665 24.5419 31.4665 15.9999C31.4665 7.45787 24.5419 0.533203 15.9999 0.533203C7.45787 0.533203 0.533203 7.45787 0.533203 15.9999C0.533203 24.5419 7.45787 31.4665 15.9999 31.4665Z" fill="#48CAFF"/>
<path fill-rule="evenodd" clip-rule="evenodd" d="M1.22363 19.2002H30.7756C29.7228 25.837 23.5084 30.9335 15.9996 30.9335C8.49083 30.9335 2.27643 25.837 1.22363 19.2002Z" fill="#34AF49"/>
<path d="M16 29.3333C23.3637 29.3333 29.3333 23.3637 29.3333 16C29.3333 8.63627 23.3637 2.66667 16 2.66667C8.63627 2.66667 2.66667 8.63627 2.66667 16C2.66667 23.3637 8.63627 29.3333 16 29.3333ZM16 32C7.16347 32 0 24.8365 0 16C0 7.16347 7.16347 0 16 0C24.8365 0 32 7.16347 32 16C32 24.8365 24.8365 32 16 32Z" fill="#F2F2F2"/>
<path fill-rule="evenodd" clip-rule="evenodd" d="M11.2001 15.1978C9.12626 15.1274 7.4668 13.4242 7.4668 11.3333C7.4668 9.1978 9.198 7.4666 11.3335 7.4666C11.7012 7.4666 12.0567 7.5178 12.3935 7.6138C12.8655 5.6922 14.5996 4.2666 16.6668 4.2666C19.0969 4.2666 21.0668 6.23647 21.0668 8.6666C21.0668 8.80969 21.06 8.9527 21.0463 9.09513C21.1836 9.07647 21.3241 9.0666 21.4668 9.0666C23.1604 9.0666 24.5335 10.4397 24.5335 12.1333C24.5335 13.7823 23.2321 15.1274 21.6001 15.1973V15.1999H11.2001V15.1978Z" fill="#F2F2F2"/>
<path fill-rule="evenodd" clip-rule="evenodd" d="M11.6138 23.4665C12.7919 23.4665 13.7471 22.5015 13.7471 21.3111C13.7471 20.7268 13.4618 20.2108 13.1429 19.8084C12.8242 19.4057 11.7914 18.1985 11.6138 17.5999C11.4359 18.1985 10.4013 19.4068 10.0823 19.8105C9.7634 20.2145 9.48047 20.7279 9.48047 21.3111C9.48047 22.5015 10.4354 23.4665 11.6138 23.4665ZM16.4138 26.9332C17.5919 26.9332 18.5471 25.9681 18.5471 24.7777C18.5471 24.1935 18.2618 23.6775 17.9429 23.2751C17.6242 22.8724 16.5914 21.6652 16.4138 21.0665C16.2359 21.6652 15.2013 22.8735 14.8823 23.2772C14.5634 23.6812 14.2805 24.1945 14.2805 24.7777C14.2805 25.9681 15.2354 26.9332 16.4138 26.9332ZM20.6805 22.6665C21.8586 22.6665 22.8138 21.6577 22.8138 20.4132C22.8138 19.8023 22.5285 19.2628 22.2095 18.842C21.8909 18.4212 20.8581 17.1591 20.6805 16.5332C20.5026 17.1591 19.4679 18.4223 19.149 18.8444C18.8301 19.2665 18.5471 19.8033 18.5471 20.4132C18.5471 21.6577 19.5021 22.6665 20.6805 22.6665Z" fill="#15192E"/>
</svg>
