<svg width="60" height="60" viewBox="0 0 60 60" fill="none" xmlns="http://www.w3.org/2000/svg">
<path d="M30 59C46.0163 59 59 46.0163 59 30C59 13.9837 46.0163 1 30 1C13.9837 1 1 13.9837 1 30C1 46.0163 13.9837 59 30 59Z" fill="#15192E"/>
<path d="M38.0508 36.6492C37.1008 35.3492 34.7008 34.7492 33.0008 34.7492C23.0508 34.5992 32.9508 34.7492 23.0008 34.6492C22.6008 34.6492 22.0008 34.7492 21.4508 34.8992C21.1508 34.9992 21.1508 34.9992 20.8008 35.1492C21.0508 34.7992 21.6008 34.1992 22.0008 33.8492C22.4008 33.4492 22.8508 33.0492 23.3008 32.6992C28.6008 28.5492 40.4008 23.2992 54.5008 19.4492C54.9508 19.3492 55.5008 19.2992 56.0008 19.1992C56.7008 19.1992 38.0508 25.3992 38.0508 36.6492Z" fill="#F2F2F2"/>
<path d="M38.3 37.3992L37.85 36.7992C37 35.6492 34.75 34.9992 33 34.9992C29.1 34.9492 28.3 34.9492 28.05 34.9492H28C27.95 34.9492 27.85 34.9492 27.75 34.9492C27.35 34.9492 26.2 34.9492 22.95 34.8992C22.55 34.8992 22 34.9992 21.5 35.1492H21.45C21.25 35.1992 21.2 35.2492 20.85 35.3992L20 35.7992L20.5 35.0492C20.75 34.6992 21.35 34.0492 21.7 33.7492C22.1 33.3492 22.55 32.9492 23.05 32.5992C28.75 28.0992 41 22.8992 54.35 19.2492C54.6 19.1992 54.9 19.1492 55.2 19.0992C55.5 19.0492 55.7 18.9992 55.95 18.9492H56H56.2L56.25 19.1492C56.3 19.3992 56.25 19.3992 55.3 19.7992C41.25 25.8992 38.3 32.2992 38.3 36.6492V37.3992ZM28.05 34.4492C28.25 34.4492 29.05 34.4492 33 34.4992C34.6 34.4992 36.65 34.9992 37.8 35.9992C38.05 31.6992 41.25 25.5992 54 19.7992C40.95 23.3992 29 28.4992 23.45 32.8992C23 33.2492 22.55 33.6492 22.15 34.0492C22 34.1992 21.8 34.3992 21.6 34.5992C22.1 34.4492 22.6 34.3992 22.95 34.3992C27.05 34.4492 27.8 34.4492 27.95 34.4492C28 34.4492 28 34.4492 28.05 34.4492ZM38.4 32.5492C38.25 32.5492 38.15 32.4492 38.15 32.2992C38.15 32.1492 38.25 32.0492 38.4 32.0492C38.55 32.0492 38.65 32.1492 38.65 32.2992C38.65 32.4492 38.55 32.5492 38.4 32.5492Z" fill="#F2F2F2"/>
<path d="M22.3992 35.7004L21.6992 35.4004C25.5492 27.1504 45.1492 21.5004 55.7492 18.4504C55.7992 18.4504 55.7992 18.4504 55.8492 18.4004L56.0492 19.1004C55.9992 19.1004 55.9992 19.1004 55.9492 19.1504C44.1492 22.5504 36.1492 30.1504 34.5992 35.5504L33.8992 35.3504C35.1492 31.0004 40.0992 25.5504 47.6992 21.6504C37.6492 24.8004 25.1992 29.6504 22.3992 35.7004Z" fill="#15192E"/>
<path d="M35.6498 25.5998C35.6498 25.6498 35.6498 25.6998 35.5998 25.7498C35.5498 25.9998 35.5498 26.0998 35.4998 26.2498C35.3998 26.7498 35.1498 27.1498 34.7998 27.4998C34.1498 28.1498 33.1498 28.4498 32.1498 28.3498C30.9998 28.2498 30.0998 27.3998 29.6998 26.3498C29.4998 25.6998 29.4998 25.0498 29.6998 24.3498C30.9998 19.6998 39.0998 16.2498 51.0998 14.5998L51.3998 14.5498L51.6498 14.6998C52.4998 15.1498 53.0498 15.5498 53.3998 15.8498C54.1498 16.4998 54.2498 17.6498 52.9998 17.8498H52.9498C43.0498 18.6998 36.2998 21.7998 35.6498 25.5998Z" fill="#F2F2F2"/>
<path d="M32.4999 29.2996C32.3499 29.2996 32.2499 29.2996 32.0999 29.2996C30.6499 29.1996 29.3499 28.1496 28.8999 26.6996C28.6499 25.8996 28.5999 25.0496 28.8499 24.1496C30.1999 19.1996 38.0499 15.4996 50.9499 13.6996L51.5499 13.5996L52.0999 13.8996C53.0499 14.4496 53.5999 14.7996 53.9999 15.1496C54.6999 15.7496 54.9999 16.6496 54.7499 17.3996C54.5499 18.0996 53.9499 18.5996 53.0999 18.6996H52.9999C43.8999 19.4496 37.0999 22.3496 36.5499 25.6996V25.7996C36.4999 26.0996 36.4999 26.2496 36.4499 26.3996C36.2999 27.0996 35.9499 27.6496 35.4999 28.0996C34.6499 28.8996 33.6499 29.2996 32.4999 29.2996ZM51.1999 15.4996C39.2499 17.1496 31.7499 20.4996 30.5999 24.5996C30.4499 25.1496 30.4499 25.6496 30.5999 26.0996C30.8499 26.8496 31.5499 27.4496 32.2499 27.4996C32.9999 27.5496 33.6999 27.3496 34.1999 26.8996C34.4499 26.6996 34.5999 26.4496 34.6499 26.0996C34.6999 25.9496 34.6999 25.8996 34.7499 25.6996L34.7999 25.4996C35.5499 21.1996 42.6499 17.8496 52.8499 16.9996H52.8999C52.9499 16.9996 53.0499 16.9496 53.0499 16.9496C53.0499 16.8996 52.9999 16.7496 52.7999 16.5996C52.4999 16.2996 51.9999 15.9496 51.1999 15.4996Z" fill="#15192E"/>
<path d="M13.7 17.8994C15.1 17.8994 16.4 17.3994 17.15 16.5994C17.95 17.3994 19.25 17.8994 20.65 17.8994C22.05 17.8994 23.35 17.3994 24.1 16.5994C24.9 17.3994 26.2 17.8994 27.55 17.8994C28.9 17.8994 30.25 17.3994 31 16.5994C31.8 17.3994 33.1 17.8994 34.5 17.8994C35.9 17.8994 37.2 17.3994 37.95 16.5994C38.4 17.0494 38.7 17.1994 39.15 17.3494C39.6 17.1994 40.1 17.0494 40.35 16.9494C39.3 16.7994 38.9 16.5494 38.35 15.8994L37.95 15.3994L37.55 15.8994C36.95 16.6494 35.75 17.0994 34.5 17.0994C33.25 17.0994 32.05 16.5994 31.45 15.8994L31.05 15.3994L30.65 15.8994C30.05 16.6494 28.85 17.0994 27.6 17.0994C26.3 17.0994 25.15 16.5994 24.55 15.8994L24.15 15.3994L23.75 15.8994C23.15 16.6494 21.95 17.0994 20.7 17.0994C19.4 17.0994 18.25 16.5994 17.65 15.8994L17.25 15.3994L16.85 15.8994C16.25 16.6494 15.05 17.0994 13.8 17.0994C12.55 17.0994 11.35 16.5994 10.75 15.8994L10.35 15.3994L9.95 15.8994C9.2 16.6494 8.05 17.1494 6.75 17.1494V17.8994C8.15 17.8994 9.45 17.3994 10.2 16.5994C11 17.3994 12.3 17.8994 13.7 17.8994Z" fill="#2672AB"/>
<path d="M39.2496 30.6496C38.7496 30.6496 38.3496 30.2496 38.3496 29.7496V19.2496C38.3496 18.7496 38.7496 18.3496 39.2496 18.3496C39.7496 18.3496 40.1496 18.7496 40.1496 19.2496V29.7496C40.1496 30.2496 39.7496 30.6496 39.2496 30.6496Z" fill="#F2F2F2"/>
<path d="M44.4004 16.75V24.75L46.0504 24.3V16.75H44.4004ZM49.5004 15.75V22.25L50.7504 21.8V15.75H49.5004Z" fill="#F2F2F2"/>
<path d="M33 44.5C30.8 44.5 29 42.7 29 40.5C29 38.3 30.8 36.5 33 36.5C35.2 36.5 37 38.3 37 40.5C37 42.7 35.2 44.5 33 44.5ZM33 38.25C31.75 38.25 30.75 39.25 30.75 40.5C30.75 41.75 31.75 42.75 33 42.75C34.25 42.75 35.25 41.75 35.25 40.5C35.25 39.25 34.25 38.25 33 38.25ZM23 44.5C20.8 44.5 19 42.7 19 40.5C19 38.3 20.8 36.5 23 36.5C25.2 36.5 27 38.3 27 40.5C27 42.7 25.2 44.5 23 44.5ZM23 38.25C21.75 38.25 20.75 39.25 20.75 40.5C20.75 41.75 21.75 42.75 23 42.75C24.25 42.75 25.25 41.75 25.25 40.5C25.25 39.25 24.25 38.25 23 38.25Z" fill="#F2F2F2"/>
<path d="M32.6504 26.749C33.3407 26.749 33.9004 26.1894 33.9004 25.499C33.9004 24.8087 33.3407 24.249 32.6504 24.249C31.96 24.249 31.4004 24.8087 31.4004 25.499C31.4004 26.1894 31.96 26.749 32.6504 26.749Z" fill="#15192E"/>
<path d="M30.5008 58.001C42.0508 58.001 52.0508 51.101 56.5008 41.201C55.8508 40.951 55.3008 40.601 54.9508 40.151L54.8508 40.001L54.7508 40.151C54.0508 41.001 52.8008 41.501 51.4008 41.501C50.0008 41.501 48.7008 40.951 48.0508 40.151L47.8508 40.001L47.7508 40.151C47.0508 41.001 45.8008 41.501 44.4008 41.501C43.0008 41.501 41.7008 40.951 41.0508 40.151L40.9008 40.001L40.8008 40.151C40.1008 41.001 38.8508 41.501 37.4508 41.501C36.0508 41.501 34.7508 40.951 34.1008 40.151L33.9508 40.001L33.8508 40.151C33.2008 40.951 31.9008 41.501 30.5008 41.501C29.1008 41.501 27.8008 40.951 27.1508 40.151L27.0508 40.001L26.9508 40.151C26.2508 41.001 25.0008 41.501 23.6008 41.501C22.2008 41.501 20.9008 40.951 20.2508 40.151L20.1008 40.001L20.0008 40.151C19.3008 40.951 18.0008 41.501 16.6008 41.501C15.2008 41.501 13.9008 40.951 13.2508 40.151L13.1508 40.001L13.0008 40.151C12.3008 41.001 11.0508 41.501 9.65078 41.501C8.25078 41.501 6.95078 40.951 6.30078 40.151L6.20078 40.001L6.10078 40.151C5.75078 40.601 5.20078 40.951 4.55078 41.201C8.95078 51.101 18.9508 58.001 30.5008 58.001Z" fill="#15192E"/>
<path d="M30.5 58.4004C19.15 58.4004 8.8 51.7004 4.15 41.3504L4 41.0004L4.4 40.8504C5 40.6504 5.5 40.3004 5.8 39.9004L6.2 39.4004L6.6 39.9004C7.2 40.6504 8.4 41.1004 9.65 41.1004C10.95 41.1004 12.1 40.6504 12.7 39.9004L13.1 39.4004L13.5 39.9004C14.1 40.6504 15.3 41.1004 16.55 41.1004C17.85 41.1004 19 40.6504 19.6 39.9004L20 39.4004L20.4 39.9004C21 40.6504 22.2 41.1004 23.45 41.1004C24.7 41.1004 25.9 40.6504 26.5 39.9004L26.9 39.4004L27.3 39.9004C27.9 40.6504 29.1 41.1004 30.35 41.1004C31.65 41.1004 32.8 40.6504 33.4 39.9004L33.8 39.4004L34.2 39.9004C34.8 40.6504 36 41.1004 37.25 41.1004C38.55 41.1004 39.7 40.6504 40.3 39.9004L40.7 39.4004L41.1 39.9004C41.7 40.6504 42.9 41.1004 44.15 41.1004C45.4 41.1004 46.6 40.6504 47.2 39.9004L47.6 39.4004L48 39.9004C48.6 40.6504 49.8 41.1004 51.05 41.1004C52.3 41.1004 53.5 40.6504 54.1 39.9004L54.5 39.4004L54.9 39.9004C55.25 40.3004 55.7 40.6004 56.3 40.8504L57 41.0004L56.85 41.3504C52.2 51.7004 41.85 58.4004 30.5 58.4004ZM5 41.4004C9.6 51.3004 19.6 57.6504 30.5 57.6504C41.4 57.6504 51.4 51.3004 56 41.4004C55.55 41.2004 55.15 40.9004 54.85 40.6004C54.05 41.4004 52.75 41.9004 51.4 41.9004C50.05 41.9004 48.7 41.4004 47.95 40.6004C47.15 41.4004 45.85 41.9004 44.5 41.9004C43.15 41.9004 41.8 41.4004 41 40.6004C40.2 41.4004 38.9 41.9004 37.55 41.9004C36.15 41.9004 34.85 41.4004 34.05 40.6004C33.25 41.4004 31.95 41.9004 30.6 41.9004C29.2 41.9004 27.9 41.4004 27.15 40.6004C26.35 41.4004 25.05 41.9004 23.7 41.9004C22.35 41.9004 21 41.4004 20.25 40.6004C19.45 41.4004 18.15 41.9004 16.8 41.9004C15.4 41.9004 14.1 41.4004 13.3 40.6004C12.5 41.4004 11.2 41.9004 9.85 41.9004C8.45 41.9004 7.15 41.4004 6.4 40.6004C5.85 40.9004 5.45 41.2004 5 41.4004Z" fill="#2672AB"/>
<path d="M20.8009 27.4496C16.2009 26.4996 11.7009 29.3996 10.7509 33.9996C10.7009 34.1996 10.8509 34.3996 11.0509 34.4496C11.2509 34.4996 11.4509 34.3496 11.5009 34.1496C12.4009 29.9496 16.5009 27.2996 20.7009 28.1996C20.9009 28.2496 21.1009 28.0996 21.1509 27.8996C21.1509 27.6996 21.0509 27.4996 20.8009 27.4496C20.8509 27.4496 20.8009 27.4496 20.8009 27.4496Z" fill="#F2F2F2"/>
<path d="M19.8991 30.5496C17.1991 29.9496 14.5491 31.6996 13.9491 34.3996C13.8991 34.5996 14.0491 34.7996 14.2491 34.8496C14.4491 34.8996 14.6491 34.7496 14.6991 34.5496C15.1991 32.2496 17.4491 30.7996 19.7491 31.2496C19.9491 31.2996 20.1491 31.1496 20.1991 30.9496C20.1991 30.7496 20.0991 30.5996 19.8991 30.5496ZM34.0491 50.8996C38.6491 51.8496 43.1491 48.9496 44.0991 44.3496C44.1491 44.1496 43.9991 43.9496 43.7991 43.8996C43.5991 43.8496 43.3991 43.9996 43.3491 44.1996C42.4491 48.3996 38.3491 51.0496 34.1491 50.1496C33.9491 50.0996 33.7491 50.2496 33.6991 50.4496C33.6491 50.6496 33.8491 50.8996 34.0491 50.8996Z" fill="#F2F2F2"/>
<path d="M34.8508 47.8487C37.5508 48.4487 40.2008 46.6988 40.8008 43.9988C40.8508 43.7988 40.7008 43.5988 40.5008 43.5488C40.3008 43.4988 40.1008 43.6488 40.0508 43.8488C39.5508 46.1488 37.3008 47.5988 35.0008 47.1488C34.8008 47.0988 34.6008 47.2488 34.5508 47.4488C34.5508 47.5988 34.6508 47.7987 34.8508 47.8487Z" fill="#F2F2F2"/>
<path d="M30 60C13.45 60 0 46.55 0 30C0 13.45 13.45 0 30 0C46.55 0 60 13.45 60 30C60 46.55 46.55 60 30 60ZM30 5C16.2 5 5 16.2 5 30C5 43.8 16.2 55 30 55C43.8 55 55 43.8 55 30C55 16.2 43.8 5 30 5Z" fill="#F2F2F2"/>
</svg>
