<svg width="32" height="32" viewBox="0 0 32 32" fill="none" xmlns="http://www.w3.org/2000/svg">
<path d="M16 32C24.8366 32 32 24.8366 32 16C32 7.16344 24.8366 0 16 0C7.16344 0 0 7.16344 0 16C0 24.8366 7.16344 32 16 32Z" fill="#F2F2F2"/>
<path d="M16.0003 29.3337C23.3641 29.3337 29.3337 23.3641 29.3337 16.0003C29.3337 8.63653 23.3641 2.66699 16.0003 2.66699C8.63653 2.66699 2.66699 8.63653 2.66699 16.0003C2.66699 23.3641 8.63653 29.3337 16.0003 29.3337Z" fill="#48CAFF"/>
<path d="M15.9794 29.5171C21.206 29.5171 25.446 25.2771 25.446 20.0505C25.446 17.4905 24.1927 15.2238 22.7527 13.4371C21.3127 11.6505 16.7527 6.37047 15.9794 3.73047C15.1794 6.37047 10.5927 11.6771 9.17936 13.4371C7.76603 15.1971 6.5127 17.4638 6.5127 20.0238C6.5127 25.2771 10.7527 29.5171 15.9794 29.5171Z" fill="#15192E"/>
<path d="M13.7201 19.9966L11.0001 22.3432C10.9467 22.3966 10.9201 22.5032 10.9734 22.5832L12.3601 24.5032C12.3867 24.5566 12.4401 24.5832 12.4934 24.5832H15.0001C15.1067 24.5832 15.1601 24.5032 15.1601 24.4232C15.1601 24.3966 15.1601 24.3966 15.1601 24.3699L13.9867 20.1032C13.9601 20.0232 13.8801 19.9699 13.7734 19.9966C13.7734 19.9699 13.7467 19.9699 13.7201 19.9966Z" fill="#F2F2F2"/>
<path d="M15.0002 24.743H12.4936C12.3869 24.743 12.2802 24.6896 12.2269 24.6096L10.8402 22.6896C10.7336 22.5563 10.7602 22.343 10.8936 22.2363L13.6136 19.8896C13.6402 19.863 13.6936 19.8363 13.7469 19.8096C13.9336 19.7563 14.1202 19.863 14.1736 20.0496L15.3469 24.3163C15.3469 24.343 15.3469 24.3696 15.3469 24.3963C15.3469 24.583 15.1869 24.743 15.0002 24.743ZM15.0002 24.3963V24.5563V24.3963ZM13.8269 20.1296L11.1336 22.4763L12.4936 24.3963H15.0002L13.8269 20.1296Z" fill="#F2F2F2"/>
<path d="M11.8532 22.7962C11.7999 22.7962 11.7732 22.7695 11.7465 22.7428C11.6665 22.6895 11.6665 22.5828 11.7465 22.5028L13.5065 20.6362C13.5599 20.5562 13.6665 20.5562 13.7465 20.6362C13.8265 20.6895 13.8265 20.7962 13.7465 20.8762L11.9865 22.7428C11.9332 22.7695 11.9065 22.7962 11.8532 22.7962Z" fill="#15192E"/>
<path d="M19.6138 18.7953L17.8271 20.0753C17.7471 20.1287 17.7471 20.2087 17.7738 20.2887L18.6804 22.022C18.7071 22.0753 18.7871 22.1287 18.8671 22.102L21.4271 21.6753C21.5071 21.6487 21.5871 21.5687 21.5604 21.4887C21.5604 21.462 21.5604 21.4353 21.5338 21.4353L19.8538 18.8487C19.8004 18.7687 19.6938 18.742 19.6138 18.7953Z" fill="#F2F2F2"/>
<path d="M18.8401 22.2889C18.7068 22.2889 18.6001 22.2089 18.5468 22.1023L17.6401 20.3689C17.5601 20.2089 17.6135 20.0223 17.7468 19.9423L19.5335 18.6623C19.7201 18.5289 19.9068 18.6089 20.0135 18.7423L21.6935 21.3289C21.7201 21.3823 21.7468 21.4089 21.7468 21.4623C21.7735 21.5423 21.7468 21.6489 21.6935 21.7289C21.6401 21.8089 21.5601 21.8623 21.4801 21.8623L18.8935 22.2623C18.8668 22.2623 18.8401 22.2889 18.8401 22.2889ZM19.7201 18.9289L17.9335 20.2089L18.8401 21.9423V22.1023V21.9423L21.4001 21.5156L19.7201 18.9289Z" fill="#F2F2F2"/>
<path d="M18.4407 20.5829C18.3874 20.5829 18.3341 20.5562 18.3074 20.5029C18.2541 20.4229 18.2807 20.3162 18.3341 20.2629L19.5874 19.3562C19.6674 19.3029 19.7741 19.3296 19.8274 19.3829C19.8807 19.4629 19.8541 19.5696 19.8007 19.6229L18.5474 20.5562C18.5207 20.5562 18.4941 20.5829 18.4407 20.5829Z" fill="#15192E"/>
<path d="M14.2533 14.023L13.96 16.023C13.96 16.103 13.9866 16.183 14.0666 16.2096L16.2 16.983C16.28 17.0096 16.3866 16.983 16.4133 16.8763L17.4266 14.103C17.4533 14.023 17.4266 13.9163 17.32 13.8896C17.32 13.8896 17.2933 13.8896 17.2933 13.8896H14.4133C14.3333 13.8896 14.2533 13.943 14.2533 14.023Z" fill="#F2F2F2"/>
<path d="M16.2533 17.1695C16.2266 17.1695 16.1733 17.1695 16.1466 17.1428L14.0133 16.3695C13.8533 16.3162 13.7733 16.1562 13.8 15.9962L14.0933 14.0228C14.12 13.8628 14.2533 13.7295 14.44 13.7295H17.2933C17.32 13.7295 17.3733 13.7295 17.4 13.7562C17.48 13.7828 17.56 13.8628 17.5866 13.9428C17.6133 14.0228 17.64 14.1295 17.5866 14.2095L16.5733 16.9828C16.52 17.0628 16.4133 17.1695 16.2533 17.1695ZM14.4133 14.0495L14.12 16.0228L16.2533 16.7962L17.2933 14.0495H14.4133Z" fill="#F2F2F2"/>
<path d="M14.7333 15.6232C14.7067 15.6232 14.68 15.6232 14.68 15.6232C14.6 15.5965 14.5467 15.4898 14.5733 15.4098L14.9467 14.4232C14.9733 14.3432 15.08 14.2898 15.16 14.3165C15.24 14.3432 15.2933 14.4498 15.2667 14.5298L14.8933 15.5165C14.8667 15.5965 14.8133 15.6232 14.7333 15.6232Z" fill="#15192E"/>
</svg>
