<svg width="60" height="60" viewBox="0 0 60 60" fill="none" xmlns="http://www.w3.org/2000/svg">
<path d="M30 59C46.0163 59 59 46.0163 59 30C59 13.9837 46.0163 1 30 1C13.9837 1 1 13.9837 1 30C1 46.0163 13.9837 59 30 59Z" fill="#3BA5D8"/>
<path d="M9.96777 29.2936L9.77962 27.5035L11.4757 26.4202L11.5751 26.4098L47.2785 22.6572L49.1627 23.3641L49.3509 25.1543L9.96777 29.2936ZM10.7322 27.9564L10.7688 28.3045L48.3617 24.3533L48.3251 24.0052L47.1737 23.5732L11.7687 27.2944L10.7322 27.9564Z" fill="#F2F2F2"/>
<path d="M9.92188 28.8457L49.3049 24.7064L50.4757 35.845L49.6799 36.8839L12.1367 40.8298L11.0926 39.9844L9.92188 28.8457Z" fill="#F2F2F2"/>
<path d="M10.5503 38.1807L10.2106 34.9485L7.56991 35.1758L8.50202 32.564L10.1322 34.2026L9.9493 32.4622L12.6969 34.6872L10.8073 34.8858L12.9426 37.0243L10.5503 38.1807Z" fill="#F2F2F2"/>
<path d="M50.6298 33.9682L48.0991 33.3292L49.7378 30.7438L47.8535 30.9921L50.0784 28.2445L50.2116 29.9901L50.2614 29.9849L51.4656 28.0484L52.9203 30.4093L50.29 30.736L50.6298 33.9682Z" fill="#F2F2F2"/>
<path d="M9.96777 29.292L49.3508 25.1527L49.8212 29.628L10.4382 33.7673L9.96777 29.292Z" fill="#202951"/>
<path d="M19.467 23.5186L21.6475 20.8259L36.1178 19.305L38.8105 21.4855L38.0162 29.7136L21.9049 31.407L19.467 23.5186Z" fill="#F2F2F2"/>
<path d="M25.1689 23.7236L33.2246 22.877L33.0195 28.5796L26.6049 29.2538L25.1689 23.7236Z" fill="#202951"/>
<path d="M34.8659 22.7045L37.6009 22.417L37.0477 28.1563L34.6609 28.4071L34.8659 22.7045Z" fill="#202951"/>
<path d="M20.8428 24.1787L23.5777 23.8913L24.9639 29.4267L22.5771 29.6775L20.8428 24.1787Z" fill="#202951"/>
<path d="M47.0561 35.3493C45.9019 35.3701 44.9521 34.4644 44.8319 33.3207C44.7692 32.724 44.9603 32.1508 45.3111 31.6615C45.7116 31.1669 46.2376 30.9105 46.8344 30.8478C48.0775 30.7172 49.1766 31.6072 49.3072 32.8503C49.4379 34.0935 48.5479 35.1925 47.3047 35.3232C47.2053 35.3336 47.1058 35.3441 47.0561 35.3493ZM47.0252 32.1852C46.9755 32.1904 46.9755 32.1904 46.9257 32.1956C46.6771 32.2218 46.4887 32.3421 46.3054 32.5122C46.1719 32.6771 46.0986 32.9362 46.1248 33.1848C46.177 33.6821 46.6166 34.0381 47.1139 33.9858C47.6112 33.9335 47.9672 33.4939 47.9149 32.9966C47.8679 32.5491 47.478 32.1879 47.0252 32.1852Z" fill="#15192E"/>
<path d="M14.0366 38.82C12.8824 38.8408 11.9325 37.9351 11.8123 36.7914C11.6817 35.5482 12.5717 34.4492 13.8148 34.3185C15.058 34.1879 16.157 35.0779 16.2877 36.321C16.3504 36.9177 16.1593 37.4908 15.8085 37.9802C15.408 38.4748 14.8819 38.7312 14.2852 38.7939C14.1857 38.8043 14.136 38.8095 14.0366 38.82ZM14.0554 35.6507C14.0057 35.6559 14.0057 35.6559 13.9559 35.6611C13.4587 35.7134 13.1027 36.153 13.1549 36.6503C13.2072 37.1475 13.6468 37.5035 14.1441 37.4513C14.3927 37.4251 14.5812 37.3048 14.7644 37.1347C14.8979 36.9698 14.9712 36.7107 14.9451 36.4621C14.898 36.0146 14.5081 35.6534 14.0554 35.6507Z" fill="#15192E"/>
<path d="M54.55 35L54.65 35.15C55.35 36.1 56.6 36.7 58 36.7C58.05 36.7 58.1 36.7 58.15 36.7C56.35 44.3 51.6 50.7 45.15 54.7C40.55 56.5 35.5 57.5 30.2 57.5C24.35 57.5 18.8 56.3 13.85 54.1C7.85 50.1 3.45 43.9 1.75 36.65C1.95 36.7 2.2 36.7 2.45 36.7C3.85 36.7 5.15 36.1 5.8 35.15L5.9 35L6 35.15C6.7 36.1 7.95 36.7 9.35 36.7C10.75 36.7 12.05 36.1 12.7 35.15L12.8 35L12.9 35.15C13.6 36.1 14.85 36.7 16.25 36.7C17.65 36.7 18.95 36.1 19.6 35.15L19.7 35L19.8 35.15C20.5 36.1 21.75 36.7 23.15 36.7C24.55 36.7 25.85 36.1 26.5 35.15L26.6 35L26.7 35.15C27.4 36.1 28.65 36.7 30.05 36.7C31.45 36.7 32.75 36.1 33.4 35.15L33.5 35L33.6 35.15C34.3 36.1 35.55 36.7 36.95 36.7C38.35 36.7 39.65 36.1 40.3 35.15L40.4 35L40.5 35.15C41.2 36.1 42.45 36.7 43.85 36.7C45.25 36.7 46.55 36.1 47.2 35.15L47.3 35L47.4 35.15C48.1 36.1 49.35 36.7 50.75 36.7C52.15 36.7 53.45 36.1 54.1 35.15L54.55 35Z" fill="#15192E"/>
<path d="M12.0568 21.2019C11.8086 21.1715 11.678 21.0043 11.7024 20.8058C12.2752 16.1408 16.51 12.8322 21.1749 13.405C21.3734 13.4294 21.504 13.5966 21.4797 13.7951C21.4553 13.9936 21.2881 14.1242 21.0339 14.1433C18.9992 13.8935 16.9662 14.4499 15.3503 15.7124C13.7344 16.9749 12.7027 18.8128 12.4529 20.8476C12.4285 21.0461 12.2614 21.1767 12.0568 21.2019Z" fill="#F2F2F2"/>
<path d="M15.0087 20.9595C14.7606 20.929 14.63 20.7618 14.6543 20.5633C14.9895 17.8338 17.4969 15.8748 20.2264 16.2099C20.4249 16.2343 20.6051 16.4076 20.5747 16.6557C20.5503 16.8542 20.377 17.0344 20.1289 17.004C17.7964 16.7176 15.679 18.3719 15.3926 20.7043C15.3744 20.8532 15.2072 20.9838 15.0087 20.9595Z" fill="#F2F2F2"/>
<path d="M40.4563 47.6266C40.004 47.6055 39.5518 47.5845 39.1073 47.5141C38.9098 47.4828 38.7357 47.3034 38.7748 47.0565C38.8061 46.8589 38.9777 46.7343 39.2324 46.724C41.2572 47.0447 43.3084 46.5596 44.9673 45.3543C46.6263 44.1489 47.7215 42.3481 48.0422 40.3233C48.0735 40.1258 48.2451 40.0011 48.4998 39.9908C48.6974 40.0221 48.8715 40.2016 48.8324 40.4485C48.4804 42.6708 47.2551 44.6535 45.4245 45.9835C43.9865 47.072 42.2239 47.6534 40.4563 47.6266Z" fill="#F2F2F2"/>
<path d="M40.8786 44.9607C40.6238 44.971 40.3275 44.924 40.0806 44.8849C39.8831 44.8536 39.709 44.6742 39.7481 44.4273C39.7794 44.2297 39.951 44.105 40.2057 44.0948C41.3416 44.2747 42.449 43.9945 43.3643 43.3295C44.2796 42.6645 44.8883 41.6978 45.0682 40.5619C45.0995 40.3644 45.2712 40.2397 45.5259 40.2294C45.7234 40.2607 45.8975 40.4402 45.8584 40.6871C45.6472 42.0205 44.9578 43.1769 43.8709 43.9666C42.9556 44.6316 41.9391 44.9768 40.8786 44.9607Z" fill="#F2F2F2"/>
<path d="M30 60C13.45 60 0 46.55 0 30C0 13.45 13.45 0 30 0C46.55 0 60 13.45 60 30C60 46.55 46.55 60 30 60ZM30 5C16.2 5 5 16.2 5 30C5 43.8 16.2 55 30 55C43.8 55 55 43.8 55 30C55 16.2 43.8 5 30 5Z" fill="#F2F2F2"/>
</svg>
