<svg width="32" height="32" viewBox="0 0 32 32" fill="none" xmlns="http://www.w3.org/2000/svg">
<path d="M15.9999 31.4665C24.5419 31.4665 31.4665 24.5419 31.4665 15.9999C31.4665 7.45787 24.5419 0.533203 15.9999 0.533203C7.45787 0.533203 0.533203 7.45787 0.533203 15.9999C0.533203 24.5419 7.45787 31.4665 15.9999 31.4665Z" fill="#48CAFF"/>
<path fill-rule="evenodd" clip-rule="evenodd" d="M2.13379 14.1338H29.8671V19.4671H2.13379V14.1338Z" fill="#15192E"/>
<path fill-rule="evenodd" clip-rule="evenodd" d="M1.22363 19.2002H30.7756C29.7228 25.837 23.5084 30.9335 15.9996 30.9335C8.49083 30.9335 2.27643 25.837 1.22363 19.2002Z" fill="#15192E"/>
<path fill-rule="evenodd" clip-rule="evenodd" d="M4.80294 5.98047C6.39521 6.6338 7.63867 7.7826 8.53307 9.42687C11.012 13.9831 11.2632 26.5237 21.3331 26.5237C23.252 26.5237 24.9128 26.569 26.3157 26.6597C25.2396 27.6885 24.016 28.5511 22.6853 29.2189L12.4013 30.3589C5.89201 28.7482 1.06641 22.8685 1.06641 15.8618C1.06641 12.0727 2.47761 8.61354 4.80294 5.98047Z" fill="#34AF49"/>
<path d="M16 29.3333C23.3637 29.3333 29.3333 23.3637 29.3333 16C29.3333 8.63627 23.3637 2.66667 16 2.66667C8.63627 2.66667 2.66667 8.63627 2.66667 16C2.66667 23.3637 8.63627 29.3333 16 29.3333ZM16 32C7.16347 32 0 24.8365 0 16C0 7.16347 7.16347 0 16 0C24.8365 0 32 7.16347 32 16C32 24.8365 24.8365 32 16 32Z" fill="#F2F2F2"/>
</svg>
