<svg width="32" height="32" viewBox="0 0 32 32" fill="none" xmlns="http://www.w3.org/2000/svg">
<path d="M16 32C24.8366 32 32 24.8366 32 16C32 7.16344 24.8366 0 16 0C7.16344 0 0 7.16344 0 16C0 24.8366 7.16344 32 16 32Z" fill="#202538"/>
<path d="M15.9997 24.2671C17.6198 24.2671 18.9331 22.9538 18.9331 21.3337C18.9331 19.7137 17.6198 18.4004 15.9997 18.4004C14.3797 18.4004 13.0664 19.7137 13.0664 21.3337C13.0664 22.9538 14.3797 24.2671 15.9997 24.2671Z" fill="white"/>
<path d="M17.3628 5.03173C22.9343 5.65653 27.2169 10.3864 27.2169 16.0651C27.2169 19.6109 25.5375 22.8805 22.7564 24.9611C21.4876 25.9099 22.7564 27.6027 24.0244 26.6541C27.2471 24.2435 29.3332 20.3976 29.3332 16.0648C29.3332 9.30987 24.2625 3.73813 17.7177 2.94373C16.2817 2.7696 16.1367 4.89413 17.3631 5.03173H17.3628Z" fill="#D03A02"/>
<path d="M14.6374 5.03173C9.06593 5.65653 4.78326 10.3864 4.78326 16.0651C4.78326 19.6109 6.46273 22.8805 9.24379 24.9611C10.5126 25.9099 9.24379 27.6027 7.97579 26.6541C4.75313 24.2435 2.66699 20.3976 2.66699 16.0648C2.66699 9.30987 7.73766 3.73813 14.2825 2.94373C15.7185 2.7696 15.8635 4.89413 14.6371 5.03173H14.6374Z" fill="#48CAFF"/>
<path fill-rule="evenodd" clip-rule="evenodd" d="M15.9995 8C15.6441 10.2387 14.2217 23.5531 13.8662 26.1333H18.1329C17.7774 23.5531 16.355 10.2387 15.9995 8Z" fill="white"/>
</svg>
