<svg width="60" height="60" viewBox="0 0 60 60" fill="none" xmlns="http://www.w3.org/2000/svg">
<path d="M30 59C46.0163 59 59 46.0163 59 30C59 13.9837 46.0163 1 30 1C13.9837 1 1 13.9837 1 30C1 46.0163 13.9837 59 30 59Z" fill="#48CAFF"/>
<path fill-rule="evenodd" clip-rule="evenodd" d="M1.74609 33.9805C3.68509 33.681 5.69959 30 9.57109 30C13.6066 30 15.6246 34 19.6601 34C23.6961 34 25.6221 30 29.7496 30C33.8771 30 35.8031 34 39.8391 34C43.8746 34 45.8721 30 49.9281 30C53.8191 30 55.8156 33.681 57.7531 33.9805C55.9196 48.6675 44.0806 60 29.7496 60C15.4186 60 3.57959 48.6675 1.74609 33.9805Z" fill="#010A2E"/>
<path d="M30 55C43.807 55 55 43.807 55 30C55 16.193 43.807 5 30 5C16.193 5 5 16.193 5 30C5 43.807 16.193 55 30 55ZM30 60C13.4315 60 0 46.5685 0 30C0 13.4315 13.4315 0 30 0C46.5685 0 60 13.4315 60 30C60 46.5685 46.5685 60 30 60Z" fill="#EDECE7"/>
<path fill-rule="evenodd" clip-rule="evenodd" d="M2.05664 31.9315L2.76614 31.3975C4.86964 29.8135 6.66964 29 8.99914 29C11.2561 29 12.6676 29.613 15.3591 31.302C17.4481 32.613 18.3386 33 19.6226 33C20.8801 33 21.7716 32.616 23.7441 31.369L23.8451 31.3055C26.5036 29.625 27.9496 29 30.2471 29C32.5451 29 33.9911 29.625 36.6491 31.305L36.7496 31.369C38.7226 32.616 39.6146 33 40.8716 33C42.1496 33 43.0411 32.6135 45.1026 31.3175L45.1266 31.3025C47.8096 29.616 49.2296 29 51.4956 29C53.8336 29 55.6386 29.8145 57.7381 31.3985L57.9621 31.5675C57.9027 32.8089 57.7713 34.0458 57.5686 35.272C55.5406 33.771 53.7706 33 51.4956 33C49.2296 33 47.8106 33.6155 45.1266 35.3025L45.1026 35.3175C43.0411 36.6135 42.1496 37 40.8716 37C39.6141 37 38.7226 36.616 36.7496 35.369L36.6491 35.3055C33.9911 33.6245 32.5446 33 30.2471 33C27.9496 33 26.5036 33.625 23.8456 35.305L23.7446 35.369C21.7721 36.616 20.8806 37 19.6231 37C18.3391 37 17.4481 36.613 15.3586 35.302C12.6676 33.613 11.2561 33 8.99864 33C6.67014 33 4.86964 33.813 2.76614 35.3975L2.48764 35.607C2.27336 34.3911 2.12945 33.1639 2.05664 31.9315ZM2.79964 39.024C4.70764 37.6855 6.41464 37 8.57114 37C10.8471 37 12.2701 37.613 14.9841 39.302C17.0911 40.613 17.9891 41 19.2841 41C20.5521 41 21.4511 40.616 23.4406 39.369L23.5421 39.3055C26.2221 37.625 27.6801 37 29.9971 37C32.3146 37 33.7721 37.625 36.4526 39.305L36.5546 39.369C38.5441 40.616 39.4426 41 40.7106 41C41.9996 41 42.8986 40.6135 44.9776 39.3175L45.0016 39.3025C47.7081 37.616 49.1391 37 51.4241 37C53.4281 37 55.0436 37.588 56.7826 38.737C56.4607 39.8624 56.0753 40.9687 55.6281 42.0505C54.3011 41.3545 52.9796 41 51.4246 41C49.1396 41 47.7086 41.6155 45.0021 43.3025L44.9781 43.3175C42.8986 44.6135 41.9996 45 40.7106 45C39.4426 45 38.5441 44.616 36.5546 43.369L36.4526 43.3055C33.7726 41.6245 32.3146 41 29.9976 41C27.6801 41 26.2226 41.625 23.5416 43.305L23.4401 43.369C21.4506 44.616 20.5516 45 19.2836 45C17.9886 45 17.0906 44.613 14.9836 43.302C12.2696 41.613 10.8466 41 8.57064 41C6.86064 41 5.43364 41.431 3.96564 42.2765C3.51672 41.2149 3.12744 40.129 2.79964 39.024Z" fill="#EDECE7"/>
</svg>
