<svg width="32" height="32" viewBox="0 0 32 32" fill="none" xmlns="http://www.w3.org/2000/svg">
<path d="M16 32C24.8366 32 32 24.8366 32 16C32 7.16344 24.8366 0 16 0C7.16344 0 0 7.16344 0 16C0 24.8366 7.16344 32 16 32Z" fill="#F2F2F2"/>
<path d="M16.0003 29.3337C23.3641 29.3337 29.3337 23.3641 29.3337 16.0003C29.3337 8.63653 23.3641 2.66699 16.0003 2.66699C8.63653 2.66699 2.66699 8.63653 2.66699 16.0003C2.66699 23.3641 8.63653 29.3337 16.0003 29.3337Z" fill="#48CAFF"/>
<path fill-rule="evenodd" clip-rule="evenodd" d="M15.9695 29.5163C21.1956 29.5163 25.4322 25.2753 25.4322 20.0438C25.4322 17.4753 24.1663 15.2078 22.7522 13.439C21.3388 11.6702 16.7583 6.36433 15.9698 3.7334C15.1812 6.36433 10.5914 11.6747 9.1767 13.4491C7.7623 15.2241 6.50684 17.4803 6.50684 20.0438C6.50684 25.2753 10.7434 29.5163 15.9698 29.5163H15.9695Z" fill="#15192E"/>
<path d="M9.88574 19.354C9.88574 16.4116 11.3364 14.1748 13.838 14.1748C16.3399 14.1748 17.7908 16.4116 17.7908 19.354C17.7908 22.2964 16.3401 24.5332 13.8377 24.5332C11.3364 24.5332 9.88574 22.2964 9.88574 19.354ZM16.1177 19.354C16.1177 17.2521 15.3036 15.646 13.838 15.646C12.3577 15.646 11.5583 17.2521 11.5583 19.354C11.5583 21.4257 12.3577 23.0471 13.8383 23.0471C15.3036 23.0471 16.1177 21.4257 16.1177 19.3537V19.354ZM18.4897 25.9791V24.9844C20.3639 23.2249 20.6497 22.9265 20.6497 22.4369C20.6497 22.1156 20.4079 21.8937 20.0639 21.8937C19.6465 21.8937 19.3097 22.0852 19.0239 22.4369L18.3359 21.6489C18.7751 21.0905 19.3975 20.7999 20.0932 20.7999C21.1252 20.7999 21.8431 21.4425 21.8431 22.4217C21.8431 23.1561 21.4111 23.7604 20.2031 24.9004H21.8796V25.9791H18.4897Z" fill="#F2F2F2"/>
</svg>
