<svg width="32" height="32" viewBox="0 0 32 32" fill="none" xmlns="http://www.w3.org/2000/svg">
<path d="M16 32C24.8366 32 32 24.8366 32 16C32 7.16344 24.8366 0 16 0C7.16344 0 0 7.16344 0 16C0 24.8366 7.16344 32 16 32Z" fill="#14192D"/>
<path d="M0 16L4.8 14.1333V17.8667L0 16ZM32 16L27.2 14.1333V17.8667L32 16ZM16 32L17.8667 27.2H14.1333L16 32ZM16 0L17.8667 4.8H14.1333L16 0Z" fill="white"/>
<path d="M16.0001 28.2667C22.7748 28.2667 28.2667 22.7748 28.2667 16.0001C28.2667 9.22537 22.7748 3.7334 16.0001 3.7334C9.22537 3.7334 3.7334 9.22537 3.7334 16.0001C3.7334 22.7748 9.22537 28.2667 16.0001 28.2667Z" fill="#14192D"/>
<path d="M16.0001 28.5335C9.09346 28.5335 3.4668 22.9068 3.4668 16.0001C3.4668 9.09346 9.09346 3.4668 16.0001 3.4668C22.9068 3.4668 28.5335 9.09346 28.5335 16.0001C28.5335 22.9068 22.9068 28.5335 16.0001 28.5335ZM16.0001 3.8668C9.3068 3.8668 3.8668 9.3068 3.8668 16.0001C3.8668 22.6935 9.3068 28.1335 16.0001 28.1335C22.6935 28.1335 28.1335 22.6935 28.1335 16.0001C28.1335 9.3068 22.6935 3.8668 16.0001 3.8668Z" fill="white"/>
<path d="M22.5025 26.605L9.70703 5.3916L9.47868 5.52933L22.2741 26.7427L22.5025 26.605Z" fill="white"/>
<path d="M9.91982 26.7998L9.67982 26.6665L15.5998 16.3732L5.27982 22.4531L5.14648 22.2132L15.7332 15.9998L5.17315 9.91982L5.30648 9.67982L15.9465 15.8132L22.0798 5.14648L22.3198 5.27982L16.3465 15.6265L26.6932 9.54648L26.8532 9.78648L16.2665 15.9998L26.8798 22.0798L26.7465 22.3198L16.0532 16.1598L9.91982 26.7998Z" fill="white"/>
<path d="M15.9997 26.6663C21.8907 26.6663 26.6663 21.8907 26.6663 15.9997C26.6663 10.1086 21.8907 5.33301 15.9997 5.33301C10.1086 5.33301 5.33301 10.1086 5.33301 15.9997C5.33301 21.8907 10.1086 26.6663 15.9997 26.6663Z" fill="#14192D"/>
<path d="M16.0803 7.81408L20.3736 20.9341C20.3736 20.9874 20.3736 21.0141 20.3203 21.0407C20.2936 21.0407 20.2936 21.0407 20.267 21.0407L16.0003 19.5474L11.7336 21.0407C11.6803 21.0674 11.6536 21.0407 11.627 20.9874C11.627 20.9607 11.627 20.9607 11.627 20.9341L15.9203 7.81408C15.947 7.76074 15.9736 7.76074 16.027 7.76074C16.0536 7.76074 16.0536 7.78741 16.0803 7.81408Z" fill="#47CAFF"/>
</svg>
