<?xml version="1.0" encoding="UTF-8"?>
<svg width="404px" height="193px" viewBox="0 0 404 193" version="1.1" xmlns="http://www.w3.org/2000/svg" xmlns:xlink="http://www.w3.org/1999/xlink">
    <!-- Generator: Sketch 57.1 (83088) - https://sketch.com -->
    <title>Kiwa+NA_MSYS004_no</title>
    <desc>Created with Sketch.</desc>
    <defs>
        <polygon id="path-1" points="0.06 0.0618804984 155.986362 0.0618804984 155.986362 61.261 0.06 61.261"></polygon>
        <polygon id="path-3" points="0.265 0.703 62.812 0.703 62.812 11.94 0.265 11.94"></polygon>
    </defs>
    <g id="Kiwa+NA_MSYS004_no" stroke="none" stroke-width="1" fill="none" fill-rule="evenodd">
        <path d="M308.778,33.791 C311.907,30.607 316.903,30.112 321.514,30.442 L321.735,31.485 C322.009,34.34 318.386,32.638 316.958,33.626 C315.145,34.395 313.28,35.163 311.796,36.371 C311.303,36.481 311.085,36.317 310.864,35.932 C310.425,34.944 307.733,35.329 308.778,33.791 Z M322.284,34.725 C322.229,35.603 321.077,35.603 320.856,36.536 C320.637,37.964 321.514,39.227 322.12,40.434 C320.856,40.325 319.374,38.678 317.891,39.502 C316.903,40.269 316.739,41.478 316.575,42.631 C316.794,43.619 317.124,44.937 318.001,45.431 C319.868,45.925 321.46,44.443 322.887,43.564 C322.997,45.816 321.298,47.353 319.704,48.56 C317.616,49.878 314.432,49.714 312.456,48.451 C310.753,47.353 309.327,45.706 308.995,43.564 C310.7,44.333 312.292,46.145 314.378,45.431 C315.532,44.717 315.639,43.235 315.585,41.862 C315.257,40.819 315.145,39.831 313.991,39.282 C312.292,39.117 310.753,40.269 309.382,40.654 C310.151,39.611 310.479,37.854 312.071,37.854 C314.872,35.712 318.276,34.175 322.065,34.395 L322.284,34.725 Z M337.768,30.497 C338.481,30.881 338.481,31.595 338.208,32.253 L336.78,32.583 C332.718,32.473 328.872,32.967 324.973,32.583 L324.864,30.991 C328.762,29.453 333.649,29.947 337.768,30.497 Z M337.384,37.305 C337.493,38.513 338.317,39.336 338.591,40.49 C337.329,39.831 335.792,38.843 334.364,39.502 C333.21,40.434 332.991,41.971 333.264,43.235 C333.376,44.333 334.2,45.212 335.022,45.596 C336.616,45.542 337.987,44.443 339.139,43.564 C339.085,45.98 337.55,47.682 335.462,48.835 C332.991,49.878 329.862,49.495 327.61,47.957 C326.237,47.079 325.194,45.376 325.194,43.619 C326.567,44.333 328.598,46.309 330.52,45.156 C331.727,43.784 331.727,41.588 330.905,40.05 C330.52,39.227 329.311,39.062 328.489,39.446 C327.555,39.886 326.62,40.215 325.743,40.6 C326.511,39.282 327.501,37.579 326.788,35.987 C326.403,35.219 324.481,35.384 325.249,34.121 C329.585,33.846 334.089,33.846 338.536,33.736 C339.854,35.548 336.559,35.329 337.384,37.305 Z M345.784,39.227 C344.411,39.117 343.149,40.05 341.94,40.49 C342.546,38.952 343.917,37.36 342.819,35.603 C342.27,35.219 341.446,34.999 341.94,34.011 L342.161,33.736 L355.339,34.011 C355.339,34.23 355.557,34.45 355.503,34.725 C354.788,35.329 353.8,35.384 353.581,36.371 C353.251,38.074 354.294,39.117 354.733,40.49 C353.251,40.05 351.659,38.678 350.122,39.502 C349.134,40.6 348.803,42.192 349.243,43.619 C349.462,44.553 350.122,45.431 351.053,45.596 C352.757,45.156 354.13,44.443 355.503,43.399 C355.503,45.925 353.581,47.902 351.438,48.835 C348.913,49.824 345.399,49.549 343.589,47.738 C342.546,46.749 341.446,45.322 341.391,43.619 C342.764,44.333 344.577,46.309 346.333,45.156 C347.266,44.388 347.321,43.345 347.542,42.247 C347.43,41.039 347.1,39.721 345.784,39.227 Z M342.38,30.826 C344.028,30.057 346.114,30.331 347.872,29.892 C350.45,29.728 353.032,30.057 355.503,30.716 C355.776,31.265 355.776,32.034 355.557,32.583 C351.274,32.747 346.772,32.583 342.546,32.363 C342.05,31.979 342.161,31.32 342.38,30.826 Z M362.969,39.611 C361.43,38.513 359.841,39.886 358.413,40.49 C358.85,39.227 360.114,37.689 359.511,35.987 C359.126,35.384 358.303,35.438 358.139,34.833 C359.126,33.571 361.157,34.559 362.53,34.614 C365.001,35.219 367.089,36.975 369.503,37.909 L371.04,40.49 C369.503,40.05 368.02,38.843 366.319,39.282 C365.331,39.886 364.946,41.039 365.001,42.247 C365.11,43.18 365.167,44.059 365.604,44.772 C366.319,45.761 367.362,45.542 368.296,45.212 C369.503,44.827 370.272,43.949 371.425,43.345 C371.37,45.596 369.284,47.902 367.089,48.835 C364.727,49.934 361.651,49.275 359.729,47.682 C358.52,46.475 357.698,45.047 357.698,43.345 C359.014,44.388 360.772,45.816 362.639,45.376 C363.794,44.553 363.794,43.18 363.846,42.027 C363.958,41.094 363.573,40.215 362.969,39.611 Z M359.62,30.112 C363.958,30.442 368.46,30.277 371.591,33.462 C373.128,35.384 369.503,34.779 369.118,36.317 C367.253,35.109 365.11,34.011 362.86,33.352 L358.85,32.747 C359.126,31.979 358.247,30.223 359.62,30.112 Z M310.864,55.699 L369.669,55.534 C370.876,50.427 372.413,45.542 373.622,40.434 C374.335385,37.36 375.104,33.955 372.741,31.485 C368.516,29.289 363.409,27.861 358.303,28.904 C353.911,27.312 348.475,28.355 343.753,28.685 L343.589,28.52 C344.796,27.751 345.675,27.148 346.387,25.94 C347.706,24.018 347.927,20.833 346.882,18.691 C345.675,16.386 343.257,14.848 340.788,14.519 L341.665,13.86 C341.555,11.663 341.612,9.687 341.776,7.546 L345.565,7.546 L345.565,5.185 L341.665,4.965 L341.446,0.683 L338.923,0.683 C338.536,1.891 339.139,3.592 338.702,4.965 L334.802,5.185 L334.802,7.546 L338.702,7.546 C339.085,9.522 338.866,11.828 338.923,13.97 L339.688,14.519 C338.975,14.848 338.096,14.848 337.329,15.232 C335.022,16.386 333.21,18.527 332.991,21.218 C332.718,24.347 334.364,27.148 336.944,28.574 C332.221,28.301 326.731,27.477 322.12,28.959 C317.012,28.301 311.852,29.124 307.788,31.705 C306.196,33.242 305.813,35.603 306.251,37.854 C307.733,43.838 309.327,49.824 310.864,55.699 L310.864,55.699 Z" id="Fill-1" fill="#1A1919"></path>
        <path d="M377.3,85.238 C375.708,82.273 374.171,79.308 371.864,76.673 C362.366,65.198 346.005,58.499 330.302,63.001 C314.212,67.559 301.639,82.437 300.102,99.404 L300.046,139.103 L309.382,139.103 L309.382,104.949 C309.491,95.892 312.675,88.314 318.331,81.779 C325.524,73.16 338.372,70.029 349.628,73.434 C361.487,76.894 370.382,88.423 371.809,100.556 L371.975,138.882 L381.253,138.882 L381.253,107.312 C381.747,99.24 380.266,91.937 377.3,85.238" id="Fill-2" fill="#D8232A"></path>
        <path d="M331.727,81.23 C321.077,86.171 315.2,97.537 315.421,109.837 C315.585,122.136 320.692,134.872 333.1,139.267 C339.909,141.462 347.651,139.759 353.032,135.699 L353.032,122.246 C348.913,127.296 343.04,131.525 336.175,129.054 C329.094,126.747 325.524,119.663 324.589,112.638 C323.382,104.29 326.567,96.273 333.43,92.048 C337.714,89.576 344.19,90.07 348.53,92.212 C353.8,95.287 355.118,100.831 355.667,106.433 L355.887,138.882 L365.167,138.882 L365.167,109.013 C365.495,102.589 364.395,96.714 361.487,91.661 C355.887,81.89 342.983,77.113 331.727,81.23" id="Fill-3" fill="#1A1919"></path>
        <path d="M225.992,61.371 L156.858,61.371 C155.393,60.878 152.967,60.631 151.329,60.772 C148.727,60.999 146.692,61.516 144.47,62.145 C143.484,62.42 142.538,62.828 141.602,63.278 C138.848,64.613 135.142,66.956 132.246,69.127 C131.385,69.773 131.064,70.464 131.331,71.425 C131.824,73.227 132.747,74.922 133.453,76.001 C133.827,76.576 134.366,76.806 135.119,76.999 C135.251,77.031 135.473,77.067 135.742,77.104 C136.276,79.002 137.255,81.076 138.215,81.759 C138.438,81.065 138.313,80.906 138.188,80.54 C137.927,79.728 137.927,79.728 137.873,79.075 C138.984,79.724 140.573,80.088 142.72,80.25 C143.975,80.344 143.873,79.9 142.542,79.652 C140.617,79.296 139.54,78.6 138.752,77.299 C139.726,77.35 139.726,77.336 139.761,77.171 C139.768,76.579 138.352,76.232 137.007,75.979 C135.896,75.771 135.016,75.168 134.657,74.495 C134.299,73.823 133.949,73.309 133.617,71.85 C133.396,71.17 133.404,70.402 134.171,69.857 C137.409,67.556 139.299,66.226 141.821,65.098 C142.648,64.727 143.563,64.395 144.561,64.169 C146.68,63.684 149.378,63.117 151.588,63.029 C157.493,62.791 161.296,66.735 162.424,72.043 C162.8,73.805 162.806,76.083 163.699,77.792 C165.342,81.566 167.141,82.173 170.703,84.448 C174.444,86.831 180.726,91.696 184.282,98.415 C187.623,104.728 190.3,116.136 185.081,124.144 C182.652,127.873 180.638,128.66 180.655,129.658 C180.788,131.409 185.779,131.798 188.739,131.562 C197.656,130.851 202.72,126.604 211.684,125.468 C217.195,124.77 222.066,126.368 223.194,131.808 C223.992,135.657 219.987,138.546 214.66,138.538 C209.443,138.531 206.34,138.111 204.051,137.571 C201.655,137.005 200.579,136.546 198.051,135.811 C196.494,135.358 193.327,134.708 191.053,134.834 C188.738,134.962 187,135.416 183.542,135.657 C174.273,136.302 169.046,131.757 159.428,132.882 C156.296,133.249 154.151,134.472 152.618,136.708 C154.851,135.32 156.621,134.933 160.281,135.108 C171.108,135.623 174.158,140.4 185.021,137.746 C187.756,137.078 190.581,136.53 192.278,136.572 C195.462,136.651 197.93,137.721 201.418,138.801 C205.162,139.96 208.705,140.452 214.903,140.4 C222.173,140.339 225.981,136.867 225.981,130.282 C225.985,130.285 225.992,61.371 225.992,61.371" id="Fill-4" fill="#CF2A2B"></path>
        <path d="M143.537,66.907 C142.853,67.148 142.325,67.809 142.564,68.384 C143.028,69.496 144.914,68.959 145.548,68.095 C146.206,67.198 146.52,66.948 146.52,66.948 C146.52,66.948 145.462,66.234 143.537,66.907" id="Fill-5" fill="#CF2A2B"></path>
        <g id="Group-9" transform="translate(0.000000, 66.000000)">
            <mask id="mask-2" fill="white">
                <use xlink:href="#path-1"></use>
            </mask>
            <g id="Clip-7"></g>
            <path d="M155.984,1.73 C155.901,0.674 154.529,-0.106 152.423,0.093 C151.631,0.155 151.715,0.616 152.167,0.904 C152.623,1.141 153.204,1.343 153.19,1.677 C153.176,2.082 153.034,2.33 152.515,2.594 C151.804,2.963 151.329,2.757 151.329,2.757 C151.329,2.757 151.662,3.505 153.004,3.516 C154.557,3.533 156.054,2.566 155.984,1.73" id="Fill-6" fill="#CF2A2B" mask="url(#mask-2)"></path>
            <path d="M42.416,21.267 L24.852,21.267 L15.691,34.545 L15.941,26.926 L15.941,5.95 L0,5.95 C0,5.95 0.624,6.616 0.624,8.647 L0.624,61.261 L16.088,61.261 C16.088,61.261 16.034,55.587 16.034,52.961 C16.034,50.878 18.916,47.699 18.916,47.699 L26.391,61.261 L43.283,61.261 L28.657,37.662 L42.416,21.267" id="Fill-8" fill="#005992" mask="url(#mask-2)"></path>
        </g>
        <polyline id="Fill-10" fill="#005992" points="117.373 87.267 113.323 103.35 112.017 109.462 110.586 103.271 105.583 87.267 92.264 87.267 87.212 103.359 85.667 109.618 84.297 103.299 79.922 87.267 68.699 87.267 68.699 98.606 78.335 127.261 91.719 127.261 97.671 108.168 98.357 105.168 99.044 108.198 105.2 127.261 118.215 127.261 131.673 87.267 117.373 87.267"></polyline>
        <path d="M152.091,117.238 C152.091,117.297 151.803,117.397 151.638,117.451 C150.246,117.901 148.604,117.901 147.919,117.901 C147.233,117.901 145.787,117.745 144.895,117.135 C144.466,116.842 144.173,116.49 143.939,115.967 C143.698,115.432 143.576,114.876 143.576,114.194 C143.576,112.374 144.37,111.239 146.185,110.521 C147.76,109.897 149.538,109.672 152.091,109.602 L152.091,117.238 Z M167.408,124.013 L167.408,102.495 C167.408,97.138 165.834,92.183 162.956,89.919 C161.44,88.708 159.405,87.824 157.023,87.295 C154.716,86.783 152.205,86.523 149.616,86.523 C144.261,86.523 139.857,87.163 138.364,87.41 L135.31,96.458 C136.59,96.306 140.992,95.815 144.541,95.815 C147.537,95.815 149.349,96.118 150.936,97.297 C152.522,98.476 152.152,102.029 152.152,102.029 C149.356,102.052 146.801,102.187 144.545,102.429 C143.056,102.585 141.564,102.825 140.111,103.14 C138.646,103.458 136.988,103.981 135.186,104.693 C133.284,105.444 131.606,106.704 130.201,108.439 C128.771,110.202 128.045,112.315 128.045,114.72 C128.045,118.465 129.355,121.583 131.941,123.991 C134.57,126.393 138.059,127.612 142.313,127.612 C146.413,127.612 149.985,126.632 152.957,124.694 C153.174,125.788 153.68,126.413 154.476,126.91 C155.102,127.275 156.171,127.261 157.94,127.261 L168.081,127.261 C168.081,127.261 167.408,126.642 167.408,124.013 L167.408,124.013 Z" id="Fill-11" fill="#005992"></path>
        <polyline id="Fill-12" fill="#005992" points="46.575 92.573 46.575 127.261 62.742 127.261 62.742 87.267 51.165 87.267 46.575 92.573"></polyline>
        <path d="M55.447,71.731 C51.115,71.731 47.609,74.756 47.609,78.469 C47.609,82.181 51.115,85.206 55.447,85.206 C59.778,85.206 63.285,82.181 63.285,78.469 C63.285,74.756 59.778,71.731 55.447,71.731" id="Fill-13" fill="#005992"></path>
        <polyline id="Fill-14" fill="#1A1919" points="313.434 156.509 313.434 145.464 315.604 145.464 320.125 152.84 320.125 145.464 322.197 145.464 322.197 156.509 319.957 156.509 315.507 149.307 315.507 156.509 313.434 156.509"></polyline>
        <path d="M326.402,150.978 C326.402,152.228 326.692,153.179 327.268,153.823 C327.846,154.467 328.581,154.792 329.468,154.792 C330.357,154.792 331.089,154.472 331.658,153.831 C332.227,153.191 332.513,152.231 332.513,150.949 C332.513,149.683 332.235,148.738 331.68,148.117 C331.125,147.494 330.387,147.183 329.468,147.183 C328.55,147.183 327.808,147.498 327.246,148.127 C326.683,148.755 326.402,149.709 326.402,150.978 Z M324.106,151.053 C324.106,149.929 324.273,148.986 324.608,148.221 C324.859,147.66 325.204,147.155 325.637,146.706 C326.071,146.261 326.549,145.927 327.065,145.712 C327.752,145.422 328.548,145.277 329.445,145.277 C331.072,145.277 332.378,145.782 333.353,146.79 C334.328,147.798 334.818,149.206 334.818,151.002 C334.818,152.787 334.333,154.182 333.364,155.189 C332.395,156.194 331.097,156.699 329.476,156.699 C327.836,156.699 326.527,156.197 325.558,155.197 C324.591,154.194 324.104,152.812 324.104,151.054 L324.106,151.053 L324.106,151.053 Z" id="Fill-15" fill="#1A1919"></path>
        <path d="M338.798,150.133 L340.445,150.137 C341.515,150.137 342.185,150.091 342.451,150.001 C342.717,149.912 342.927,149.754 343.076,149.535 C343.226,149.314 343.302,149.033 343.302,148.703 C343.302,148.331 343.201,148.032 343.007,147.804 C342.808,147.575 342.527,147.429 342.165,147.371 C341.985,147.345 341.44,147.331 340.538,147.331 L338.798,147.331 L338.798,150.133 Z M336.567,156.509 L336.566,145.464 L341.261,145.464 C342.44,145.464 343.299,145.564 343.832,145.763 C344.368,145.96 344.798,146.313 345.119,146.818 C345.439,147.325 345.599,147.908 345.599,148.561 C345.599,149.39 345.354,150.076 344.87,150.614 C344.383,151.152 343.653,151.496 342.685,151.634 C343.166,151.915 343.565,152.226 343.878,152.561 C344.191,152.898 344.615,153.496 345.148,154.355 L346.495,156.509 L343.83,156.509 L342.219,154.106 C341.647,153.249 341.252,152.706 341.043,152.484 C340.832,152.259 340.607,152.104 340.373,152.022 C340.136,151.941 339.761,151.898 339.247,151.898 L338.798,151.898 L338.798,156.509 L336.567,156.509 L336.567,156.509 Z" id="Fill-16" fill="#1A1919"></path>
        <path d="M347.14,152.914 L349.309,152.703 C349.439,153.432 349.705,153.97 350.102,154.31 C350.504,154.652 351.042,154.823 351.72,154.823 C352.437,154.823 352.978,154.668 353.342,154.367 C353.706,154.063 353.888,153.706 353.888,153.3 C353.888,153.039 353.812,152.816 353.661,152.634 C353.51,152.451 353.238,152.288 352.857,152.155 C352.596,152.065 351.998,151.902 351.073,151.674 C349.877,151.377 349.039,151.011 348.556,150.579 C347.878,149.972 347.538,149.229 347.538,148.356 C347.538,147.795 347.697,147.269 348.015,146.779 C348.334,146.288 348.796,145.914 349.394,145.66 C349.995,145.404 350.72,145.277 351.568,145.277 C352.954,145.277 354.001,145.58 354.7,146.186 C355.399,146.795 355.769,147.608 355.804,148.621 L353.573,148.72 C353.478,148.152 353.273,147.742 352.961,147.494 C352.647,147.246 352.176,147.121 351.547,147.121 C350.899,147.121 350.391,147.255 350.023,147.521 C349.789,147.691 349.671,147.922 349.671,148.208 C349.671,148.468 349.781,148.693 350.001,148.876 C350.283,149.114 350.966,149.361 352.05,149.616 C353.136,149.871 353.941,150.137 354.459,150.41 C354.977,150.683 355.386,151.06 355.678,151.532 C355.974,152.007 356.121,152.594 356.121,153.292 C356.121,153.925 355.944,154.519 355.593,155.07 C355.243,155.621 354.743,156.034 354.101,156.301 C353.459,156.57 352.657,156.705 351.696,156.705 C350.301,156.705 349.228,156.381 348.48,155.737 C347.732,155.093 347.284,154.151 347.14,152.916 L347.14,152.914" id="Fill-17" fill="#1A1919"></path>
        <polyline id="Fill-18" fill="#1A1919" points="358.027 156.509 358.025 145.464 360.257 145.464 360.257 150.369 364.761 145.464 367.761 145.464 363.601 149.765 367.986 156.509 365.101 156.509 362.065 151.326 360.257 153.172 360.257 156.509 358.027 156.509"></polyline>
        <path d="M282.829,169.378 L281.307,165.28 L279.814,169.378 L282.829,169.378 Z M286.936,173.748 L284.509,173.748 L283.544,171.241 L279.129,171.241 L278.218,173.748 L275.852,173.748 L280.154,162.705 L282.511,162.705 L286.936,173.748 L286.936,173.748 Z" id="Fill-19" fill="#1A1919"></path>
        <polyline id="Fill-20" fill="#1A1919" points="288.15 173.748 288.15 162.705 290.381 162.705 290.381 167.61 294.884 162.705 297.886 162.705 293.725 167.007 298.11 173.748 295.225 173.748 292.189 168.568 290.381 170.412 290.381 173.748 288.15 173.748"></polyline>
        <polyline id="Fill-21" fill="#1A1919" points="299.297 173.748 299.296 162.705 301.526 162.705 301.526 167.61 306.029 162.705 309.03 162.705 304.872 167.007 309.256 173.748 306.371 173.748 303.333 168.568 301.526 170.412 301.526 173.748 299.297 173.748"></polyline>
        <path d="M312.648,167.373 L314.298,167.377 C315.367,167.377 316.037,167.33 316.303,167.242 C316.566,167.153 316.777,166.996 316.927,166.775 C317.078,166.554 317.152,166.275 317.152,165.945 C317.152,165.572 317.053,165.274 316.857,165.044 C316.659,164.816 316.377,164.671 316.017,164.611 C315.837,164.586 315.291,164.572 314.389,164.572 L312.648,164.572 L312.648,167.373 Z M310.419,173.748 L310.418,162.705 L315.111,162.705 C316.293,162.705 317.149,162.804 317.683,163.002 C318.219,163.2 318.648,163.554 318.969,164.06 C319.289,164.567 319.452,165.147 319.452,165.801 C319.452,166.629 319.207,167.316 318.719,167.854 C318.235,168.394 317.504,168.738 316.536,168.875 C317.018,169.158 317.416,169.466 317.728,169.801 C318.043,170.138 318.468,170.739 319.001,171.595 L320.347,173.748 L317.681,173.748 L316.069,171.348 C315.497,170.489 315.104,169.947 314.892,169.724 C314.683,169.499 314.459,169.345 314.222,169.263 C313.987,169.18 313.61,169.138 313.099,169.138 L312.648,169.138 L312.648,173.748 L310.419,173.748 L310.419,173.748 Z" id="Fill-22" fill="#1A1919"></path>
        <polyline id="Fill-23" fill="#1A1919" points="321.556 173.748 321.556 162.705 329.745 162.705 329.745 164.572 323.785 164.572 323.785 167.021 329.331 167.021 329.331 168.882 323.785 168.882 323.785 171.891 329.957 171.891 329.957 173.748 321.556 173.748"></polyline>
        <path d="M334.07,164.572 L334.068,171.891 L335.736,171.891 C336.357,171.891 336.808,171.853 337.085,171.784 C337.445,171.695 337.748,171.54 337.985,171.325 C338.222,171.109 338.419,170.752 338.567,170.258 C338.719,169.765 338.794,169.086 338.794,168.234 C338.794,167.38 338.719,166.725 338.569,166.268 C338.419,165.811 338.206,165.454 337.937,165.199 C337.665,164.942 337.318,164.768 336.902,164.679 C336.592,164.609 335.981,164.572 335.07,164.572 L334.07,164.572 Z M331.842,162.701 L335.917,162.705 C336.835,162.705 337.538,162.776 338.02,162.915 C338.666,163.106 339.221,163.448 339.682,163.933 C340.143,164.419 340.497,165.017 340.738,165.722 C340.979,166.428 341.1,167.299 341.1,168.333 C341.1,169.242 340.986,170.028 340.761,170.683 C340.485,171.489 340.089,172.138 339.579,172.635 C339.193,173.011 338.668,173.307 338.011,173.516 C337.52,173.671 336.859,173.748 336.038,173.748 L331.842,173.748 L331.842,162.701 L331.842,162.701 Z" id="Fill-24" fill="#1A1919"></path>
        <polyline id="Fill-25" fill="#1A1919" points="342.927 173.748 342.925 162.705 345.155 162.705 345.155 173.748 342.927 173.748"></polyline>
        <polyline id="Fill-26" fill="#1A1919" points="349.766 173.748 349.766 164.572 346.489 164.572 346.489 162.705 355.264 162.705 355.264 164.572 351.996 164.572 351.996 173.748 349.766 173.748"></polyline>
        <polyline id="Fill-27" fill="#1A1919" points="356.707 173.748 356.707 162.705 364.895 162.705 364.895 164.572 358.934 164.572 358.934 167.021 364.481 167.021 364.481 168.882 358.934 168.882 358.934 171.891 365.106 171.891 365.106 173.748 356.707 173.748"></polyline>
        <path d="M369.235,167.373 L370.886,167.377 C371.955,167.377 372.625,167.33 372.888,167.242 C373.155,167.153 373.364,166.996 373.514,166.775 C373.665,166.554 373.741,166.275 373.741,165.945 C373.741,165.572 373.639,165.274 373.445,165.044 C373.248,164.816 372.965,164.671 372.603,164.611 C372.424,164.586 371.88,164.572 370.976,164.572 L369.235,164.572 L369.235,167.373 Z M367.007,173.748 L367.005,162.705 L371.699,162.705 C372.88,162.705 373.735,162.804 374.27,163.002 C374.806,163.2 375.238,163.554 375.557,164.06 C375.878,164.567 376.04,165.147 376.04,165.801 C376.04,166.629 375.794,167.316 375.308,167.854 C374.823,168.394 374.093,168.738 373.125,168.875 C373.605,169.158 374.005,169.466 374.316,169.801 C374.631,170.138 375.054,170.739 375.587,171.595 L376.935,173.748 L374.268,173.748 L372.656,171.348 C372.085,170.489 371.691,169.947 371.481,169.724 C371.272,169.499 371.046,169.345 370.811,169.263 C370.575,169.18 370.2,169.138 369.688,169.138 L369.235,169.138 L369.235,173.748 L367.007,173.748 L367.007,173.748 Z" id="Fill-28" fill="#1A1919"></path>
        <polygon id="Fill-29" fill="#1A1919" points="378.076 173.748 380.305 173.748 380.305 162.705 378.076 162.705"></polygon>
        <polyline id="Fill-30" fill="#1A1919" points="382.453 173.748 382.453 162.705 384.622 162.705 389.144 170.082 389.144 162.705 391.217 162.705 391.217 173.748 388.976 173.748 384.525 166.549 384.525 173.748 382.453 173.748"></polyline>
        <path d="M398.716,169.687 L398.715,167.828 L403.52,167.828 L403.52,172.229 C403.055,172.679 402.377,173.078 401.491,173.422 C400.606,173.765 399.706,173.939 398.798,173.939 C397.642,173.939 396.635,173.696 395.776,173.212 C394.917,172.726 394.269,172.032 393.84,171.133 C393.407,170.23 393.19,169.248 393.19,168.189 C393.19,167.04 393.431,166.018 393.914,165.122 C394.395,164.23 395.103,163.543 396.032,163.066 C396.738,162.7 397.621,162.517 398.678,162.517 C400.048,162.517 401.118,162.804 401.89,163.378 C402.661,163.953 403.158,164.749 403.38,165.765 L401.163,166.179 C401.008,165.636 400.714,165.207 400.285,164.895 C399.858,164.579 399.318,164.423 398.678,164.423 C397.701,164.423 396.927,164.734 396.352,165.35 C395.776,165.966 395.49,166.885 395.49,168.1 C395.49,169.41 395.781,170.394 396.363,171.049 C396.946,171.703 397.712,172.032 398.654,172.032 C399.119,172.032 399.589,171.942 400.059,171.757 C400.529,171.574 400.933,171.351 401.267,171.09 L401.267,169.689 L398.716,169.687" id="Fill-31" fill="#1A1919"></path>
        <g id="Group-39" transform="translate(303.000000, 181.000000)">
            <mask id="mask-4" fill="white">
                <use xlink:href="#path-3"></use>
            </mask>
            <g id="Clip-33"></g>
            <path d="M0.265,11.813 L0.265,0.891 L2.428,0.891 L5.019,8.621 C5.258,9.339 5.433,9.878 5.543,10.236 C5.666,9.838 5.861,9.255 6.125,8.487 L8.747,0.891 L10.69,0.891 L10.69,11.813 L9.3,11.813 L9.3,2.668 L6.115,11.813 L4.812,11.813 L1.655,2.52 L1.655,11.813 L0.265,11.813" id="Fill-32" fill="#1A1919" mask="url(#mask-4)"></path>
            <path d="M12.531,8.307 L13.891,8.189 C13.956,8.736 14.106,9.185 14.343,9.535 C14.578,9.886 14.944,10.168 15.44,10.384 C15.938,10.603 16.497,10.71 17.117,10.71 C17.668,10.71 18.155,10.628 18.578,10.464 C19,10.299 19.314,10.075 19.519,9.788 C19.726,9.502 19.829,9.191 19.829,8.852 C19.829,8.508 19.728,8.209 19.528,7.954 C19.326,7.697 18.998,7.482 18.54,7.308 C18.246,7.194 17.597,7.016 16.595,6.776 C15.591,6.533 14.888,6.305 14.486,6.092 C13.965,5.82 13.576,5.479 13.322,5.075 C13.067,4.669 12.938,4.216 12.938,3.714 C12.938,3.162 13.094,2.647 13.408,2.166 C13.721,1.689 14.178,1.325 14.779,1.075 C15.381,0.828 16.049,0.703 16.785,0.703 C17.594,0.703 18.308,0.833 18.928,1.095 C19.546,1.355 20.02,1.74 20.355,2.246 C20.688,2.754 20.866,3.326 20.891,3.969 L19.501,4.078 C19.428,3.384 19.175,2.859 18.744,2.504 C18.314,2.151 17.679,1.974 16.84,1.974 C15.966,1.974 15.329,2.133 14.928,2.455 C14.528,2.775 14.329,3.162 14.329,3.616 C14.329,4.007 14.469,4.331 14.753,4.584 C15.031,4.839 15.759,5.098 16.933,5.364 C18.109,5.63 18.916,5.863 19.353,6.061 C19.991,6.354 20.461,6.727 20.763,7.176 C21.068,7.625 21.219,8.144 21.219,8.729 C21.219,9.311 21.053,9.859 20.72,10.372 C20.386,10.887 19.91,11.287 19.287,11.573 C18.664,11.858 17.964,12 17.184,12 C16.197,12 15.369,11.857 14.701,11.569 C14.034,11.281 13.511,10.847 13.132,10.269 C12.752,9.692 12.552,9.037 12.531,8.307" id="Fill-34" fill="#1A1919" mask="url(#mask-4)"></path>
            <path d="M26.26,11.813 L26.26,7.185 L22.051,0.891 L23.793,0.891 L25.947,4.198 C26.344,4.813 26.716,5.43 27.063,6.053 C27.399,5.471 27.802,4.823 28.267,4.11 L30.385,0.891 L32.067,0.891 L27.709,7.185 L27.709,11.813 L26.26,11.813" id="Fill-35" fill="#1A1919" mask="url(#mask-4)"></path>
            <path d="M32.874,8.307 L34.234,8.189 C34.299,8.736 34.449,9.185 34.684,9.535 C34.921,9.886 35.287,10.168 35.784,10.384 C36.281,10.603 36.839,10.71 37.46,10.71 C38.011,10.71 38.498,10.628 38.921,10.464 C39.343,10.299 39.656,10.075 39.862,9.788 C40.068,9.502 40.172,9.191 40.172,8.852 C40.172,8.508 40.07,8.209 39.87,7.954 C39.669,7.697 39.34,7.482 38.883,7.308 C38.589,7.194 37.94,7.016 36.937,6.776 C35.933,6.533 35.23,6.305 34.829,6.092 C34.308,5.82 33.919,5.479 33.665,5.075 C33.409,4.669 33.282,4.216 33.282,3.714 C33.282,3.162 33.437,2.647 33.751,2.166 C34.064,1.689 34.521,1.325 35.122,1.075 C35.723,0.828 36.391,0.703 37.128,0.703 C37.938,0.703 38.651,0.833 39.27,1.095 C39.889,1.355 40.364,1.74 40.697,2.246 C41.03,2.754 41.209,3.326 41.234,3.969 L39.844,4.078 C39.769,3.384 39.517,2.859 39.087,2.504 C38.657,2.151 38.022,1.974 37.183,1.974 C36.307,1.974 35.672,2.133 35.271,2.455 C34.872,2.775 34.672,3.162 34.672,3.616 C34.672,4.007 34.812,4.331 35.095,4.584 C35.374,4.839 36.101,5.098 37.276,5.364 C38.452,5.63 39.258,5.863 39.696,6.061 C40.333,6.354 40.803,6.727 41.106,7.176 C41.41,7.625 41.562,8.144 41.562,8.729 C41.562,9.311 41.394,9.859 41.062,10.372 C40.729,10.887 40.252,11.287 39.63,11.573 C39.008,11.858 38.306,12 37.527,12 C36.539,12 35.711,11.857 35.044,11.569 C34.378,11.281 33.853,10.847 33.473,10.269 C33.094,9.692 32.893,9.037 32.874,8.307" id="Fill-36" fill="#1A1919" mask="url(#mask-4)"></path>
            <path d="M48.602,6.425 C48.602,8.223 48.811,9.418 49.229,10.01 C49.648,10.604 50.165,10.899 50.777,10.899 C51.39,10.899 51.907,10.6 52.325,10.007 C52.743,9.412 52.952,8.218 52.952,6.425 C52.952,4.626 52.743,3.432 52.326,2.841 C51.909,2.248 51.388,1.953 50.762,1.953 C50.149,1.953 49.658,2.214 49.291,2.737 C48.832,3.402 48.602,4.631 48.602,6.425 Z M47.222,6.424 C47.222,5.132 47.355,4.092 47.62,3.302 C47.886,2.513 48.28,1.907 48.803,1.481 C49.326,1.055 49.984,0.841 50.777,0.841 C51.362,0.841 51.876,0.96 52.319,1.196 C52.761,1.432 53.126,1.773 53.412,2.216 C53.697,2.662 53.923,3.203 54.086,3.843 C54.25,4.48 54.331,5.341 54.331,6.424 C54.331,7.707 54.2,8.742 53.936,9.533 C53.676,10.322 53.282,10.931 52.759,11.358 C52.236,11.787 51.575,12 50.777,12 C49.725,12 48.9,11.624 48.302,10.872 C47.583,9.96 47.222,8.477 47.222,6.424 L47.222,6.424 Z" id="Fill-37" fill="#1A1919" mask="url(#mask-4)"></path>
            <path d="M57.084,6.425 C57.084,8.223 57.293,9.418 57.711,10.01 C58.129,10.604 58.645,10.899 59.259,10.899 C59.872,10.899 60.387,10.6 60.805,10.007 C61.223,9.412 61.432,8.218 61.432,6.425 C61.432,4.626 61.223,3.432 60.807,2.841 C60.39,2.248 59.869,1.953 59.244,1.953 C58.631,1.953 58.138,2.214 57.771,2.737 C57.313,3.402 57.084,4.631 57.084,6.425 Z M55.704,6.424 C55.704,5.132 55.837,4.092 56.101,3.302 C56.367,2.513 56.761,1.907 57.283,1.481 C57.807,1.055 58.466,0.841 59.259,0.841 C59.843,0.841 60.357,0.96 60.8,1.196 C61.242,1.432 61.607,1.773 61.893,2.216 C62.178,2.662 62.403,3.203 62.566,3.843 C62.73,4.48 62.812,5.341 62.812,6.424 C62.812,7.707 62.68,8.742 62.418,9.533 C62.157,10.322 61.762,10.931 61.24,11.358 C60.717,11.787 60.056,12 59.259,12 C58.207,12 57.382,11.624 56.782,10.872 C56.064,9.96 55.704,8.477 55.704,6.424 L55.704,6.424 Z" id="Fill-38" fill="#1A1919" mask="url(#mask-4)"></path>
        </g>
        <path d="M371.474,188.97 L371.474,184.051 L368.065,188.97 L371.474,188.97 Z M371.474,192.813 L371.474,190.201 L366.749,190.201 L366.749,188.97 L371.722,181.891 L372.814,181.891 L372.814,188.97 L374.294,188.97 L374.294,190.201 L372.814,190.201 L372.814,192.813 L371.474,192.813 L371.474,192.813 Z" id="Fill-40" fill="#1A1919"></path>
    </g>
</svg>