<svg width="160" height="160" viewBox="0 0 160 160" fill="none" xmlns="http://www.w3.org/2000/svg">
<path d="M68.5117 124.155C68.5117 124.155 69.1657 122.759 67.7741 121.04C66.4569 119.414 64.4062 118.733 63.2781 119.647C62.15 120.561 61.8537 122.545 63.3083 124.341C64.763 126.137 66.5513 125.907 66.5513 125.907C66.5513 125.907 66.3767 126.198 67.7741 127.924C69.1714 129.649 70.5 129.5 70.5 129.5C71.5 129.5 72 128.5 71.5 127C71.2289 126.187 70.5198 125.598 70 125C69.4802 124.402 68.5117 124.155 68.5117 124.155Z" fill="white"/>
<path d="M63.9444 113H56V120.944" stroke="#7BB7EF" stroke-width="2"/>
<path d="M78 120.944L78 113L70.0556 113" stroke="#7BB7EF" stroke-width="2"/>
<path d="M70.0556 135L78 135L78 127.056" stroke="#7BB7EF" stroke-width="2"/>
<path d="M56 127.056L56 135L63.9444 135" stroke="#7BB7EF" stroke-width="2"/>
<path d="M66.5721 42.0162C63.5174 44.459 64.1195 47.119 64.1195 47.119C64.1195 47.119 61.4708 47.415 60.3465 48.2513C59.2222 49.0876 57.5974 49.9681 57.1434 51.127C56.6893 52.286 57.0696 52.4007 57.0696 52.4007C57.0696 52.4007 51.9627 56.0658 42.6235 64.3092C33.2843 72.5527 32.1821 74.9629 32.1821 74.9629C32.1821 74.9629 31.5482 77.0825 33.2766 74.8625C35.005 72.6426 43.0282 64.9699 47.622 61.3591C52.2159 57.7483 53.8265 56.6697 53.8265 56.6697C53.8265 56.6697 54.0237 56.9936 54.2493 57.3787C54.4874 57.7538 54.9981 57.7224 54.9981 57.7224C54.9981 57.7224 48.4173 63.1525 43.8323 68.5784C39.2472 74.0042 38.3964 76.2135 35.7707 78.5226C33.145 80.8318 33.8051 81.1417 34.773 80.3677C35.741 79.5936 38.9552 77.1698 42.0317 72.9503C45.1083 68.7308 48.6469 64.7282 52.9822 61.0518C57.3175 57.3754 59.9205 56.0687 59.9205 56.0687C59.9205 56.0687 61.1054 57.2155 64.1727 54.7626C67.24 52.3097 66.8446 50.8876 66.8446 50.8876C66.8446 50.8876 69.8477 51.9626 73.0407 49.4092C76.2337 46.8558 76.4723 43.314 74.8685 41.3085C73.2647 39.303 69.4634 39.704 66.5721 42.0162Z" fill="white"/>
<path d="M43.5556 25H19V49.5556" stroke="#7BB7EF" stroke-width="2"/>
<path d="M87 49.5556L87 25L62.4444 25" stroke="#7BB7EF" stroke-width="2"/>
<path d="M62.4444 93L87 93L87 68.4444" stroke="#7BB7EF" stroke-width="2"/>
<path d="M19 68.4444L19 93L43.5556 93" stroke="#7BB7EF" stroke-width="2"/>
<path d="M120.774 91.0405C122.166 92.7587 121.512 94.1548 121.512 94.1548C121.512 94.1548 122.939 94.6385 123.458 95.2362C123.978 95.8339 124.769 96.5165 124.88 97.2114C124.99 97.9063 124.766 97.9237 124.766 97.9237C124.766 97.9237 127.339 99.8189 131.5 105.5C132.541 106.752 132.881 109.171 132.881 109.171C132.881 109.171 132.975 110.418 132.289 108.984C131.602 107.549 131.001 106.562 128.901 104.013C128.76 103.842 126.558 100.108 125.722 101.014C125.545 101.192 125.722 101.627 125.722 101.627C127.5 104.013 127.96 108 127.5 108C126.5 108 126.884 105.118 125.267 103C123.317 100.446 122.749 99.6047 122.749 99.6047C122.749 99.6047 121.956 100.095 120.558 98.3694C119.161 96.6441 119.551 95.9066 119.551 95.9066C119.551 95.9066 117.763 96.1372 116.308 94.3412C114.854 92.5452 115.15 90.5606 116.278 89.6469C117.406 88.7333 119.457 89.4142 120.774 91.0405Z" fill="white"/>
<path d="M119 82H106V95" stroke="#7BB7EF" stroke-width="2"/>
<path d="M142 95L142 82L129 82" stroke="#7BB7EF" stroke-width="2"/>
<path d="M129 118L142 118L142 105" stroke="#7BB7EF" stroke-width="2"/>
<path d="M106 105L106 118L119 118" stroke="#7BB7EF" stroke-width="2"/>
</svg>
