<svg width="72" height="72" viewBox="0 0 72 72" fill="none" xmlns="http://www.w3.org/2000/svg">
<path d="M45.3012 12.6482C45.4138 12.1223 45.3675 11.1959 45.818 11.1273C46.3586 11.0587 46.9244 12.0476 47.1271 12.4364C47.5326 13.1681 47.885 13.3267 48.7635 13.4182C49.0338 13.4411 49.2153 13.5783 49.418 13.4182C49.6658 13.2353 49.6896 12.7865 50.0726 12.7637C50.6132 12.7408 51.0072 13.6086 51.6379 13.2885C51.9082 13.1513 52.2734 12.7108 52.3635 12.4364C52.6788 11.5217 52.5317 10.3552 52.5317 9.349C52.5317 8.86879 52.6351 8.17471 53.018 7.85457C53.2433 7.67163 53.4248 7.36009 53.6726 7.20002C53.8077 7.10855 54.2145 6.98709 54.3271 6.87275C54.6425 6.55261 55.2308 6.2253 55.6362 6.54544C55.8164 6.70551 56.1106 7.01701 56.2908 7.19995C56.4709 7.38288 56.6975 7.41288 56.9453 7.52722C57.3057 7.66442 57.7469 7.77015 57.9271 8.18176C58.0848 8.59337 57.7349 9.17239 57.5547 9.46966C57.4196 9.69833 57.1718 10.2014 57.3295 10.4758C57.4196 10.6359 57.5097 10.7045 57.6223 10.6588C57.6674 11.0246 57.7349 11.4362 57.8025 11.7564C57.8701 12.1223 57.9377 12.2595 57.9827 12.8769C58.0278 13.0369 58.1854 13.4486 58.4107 13.7687C58.5008 13.9059 58.6134 14.1346 58.7486 14.226C58.9738 14.3632 58.9963 14.2718 59.1765 14.2946C59.3342 14.3404 59.3792 14.2946 59.582 14.409C59.7622 14.5004 59.8072 14.7291 60.055 14.752C60.1 14.752 60.1676 14.752 60.1901 14.7749C60.2127 14.7977 60.2352 14.8435 60.2577 14.8663C60.3478 15.095 60.3929 15.3465 60.4379 15.5981C60.4379 15.6438 60.4604 15.6667 60.483 15.6895C60.5055 15.7124 60.5505 15.6667 60.528 15.6438C60.5505 15.8725 60.5956 16.1011 60.5956 16.3298C60.5956 16.4442 60.5956 16.8329 60.5731 16.6271C60.5505 16.9701 60.528 16.7186 60.483 17.1302C60.4379 17.5189 60.3929 17.1759 60.3478 17.5875C60.1901 18.2049 60.1 18.2964 60.0775 18.7537C60.0775 18.9367 60.0775 19.0282 60.1 19.1425C60.1226 19.4398 60.1901 19.1882 60.2577 19.7142C60.3028 19.6456 60.3703 19.92 60.4379 20.0114C60.5055 20.5603 60.5956 20.3087 60.6857 20.4002C60.7758 20.6517 60.8884 20.7432 61.0236 20.7203C61.1587 20.7203 61.2939 20.7432 61.429 21.1091C61.5642 21.1091 62.0147 21.7036 62.1273 21.818C62.3976 22.1152 62.6003 22.4582 62.7805 22.847C63.231 23.7617 63.3436 24.5849 63.3436 25.591C63.3436 25.4538 63.3436 25.3166 63.3436 25.1794C63.3436 25.2709 63.3436 25.3395 63.3436 25.431C63.3211 25.8197 62.803 26.2542 62.9382 27.1003C63.1184 27.8778 63.9743 27.8778 64.2221 28.0607C64.5149 29.2041 64.3798 29.3184 64.9429 29.3184C65.9114 29.5242 65.2357 31.1249 65.3709 31.8795C65.4159 31.8338 65.4835 31.6051 65.6637 32.5198C65.7763 32.4741 65.934 32.1768 66.0916 32.8628C66.2493 32.4969 66.4295 32.5198 66.6097 33.1144C66.7899 33.8232 66.9926 32.4741 67.1728 33.3202C67.353 33.2973 67.5558 33.2973 67.736 33.526C67.9162 33.7546 68.1865 33.8232 68.4342 33.9833C68.5243 34.0519 68.6369 34.0976 68.7045 34.1891C68.7721 34.2806 68.7045 34.4178 68.7946 34.5321C68.637 34.9666 68.1639 35.4468 68.682 35.7441C68.3667 36.453 67.9612 37.0018 67.6909 37.7564C67.6233 37.9393 67.5783 38.1223 67.5107 38.3052C67.3305 38.854 67.1503 39.4028 66.9476 39.9516C66.8575 40.2261 66.7674 40.4776 66.5872 40.6834C66.4971 40.7977 66.3619 40.8892 66.3394 41.0264C66.2944 41.1636 66.3619 41.3237 66.3619 41.4609C66.3845 42.0783 65.4159 42.3756 65.4384 42.993C65.4384 43.1073 65.4835 43.2217 65.461 43.336C65.4384 43.4503 65.3483 43.5189 65.2582 43.6104C65.078 43.7705 64.8753 43.9305 64.6951 44.0906C64.2221 44.5022 63.9518 45.1425 63.6139 45.6456C63.1859 46.3087 61.9471 45.7828 61.3614 46.0572C61.1137 46.1715 60.9335 46.4002 60.6632 46.4459C60.5055 46.4688 60.3253 46.4231 60.1676 46.4688C59.8523 46.5603 59.7171 46.949 59.4468 47.1548C59.154 47.4064 58.6134 47.475 58.5684 47.8637C57.9827 48.0009 57.3745 48.161 56.8114 48.3668C56.6312 48.4354 56.451 48.4811 56.2708 48.5497C55.5275 48.8013 54.7842 49.0071 54.0634 49.1443C53.748 49.2129 53.0723 49.6702 53.1399 48.9842C52.847 49.0528 52.7795 49.1443 52.4866 49.0985C52.2839 49.0757 52.0136 49.0985 52.0812 48.8241C52.0136 48.8241 51.9235 48.7784 51.856 48.7784C51.7884 48.4354 51.5406 48.2296 51.2478 48.0924C51.1577 48.0466 51.0225 47.978 50.9099 47.9552C50.5946 47.8637 50.572 47.9552 50.2792 48.0466C50.099 48.0924 49.8287 48.1152 49.671 48.0238C49.5809 47.978 49.5809 47.8637 49.4908 47.818C49.4233 47.7722 49.3332 47.818 49.2656 47.7722C49.0178 47.5893 48.8151 47.2463 49.1079 46.9719C48.9953 46.9033 48.6124 46.7203 48.6349 46.5603C48.6574 46.4002 48.8827 46.3773 48.9728 46.263C49.1304 46.0343 49.1755 45.6684 49.2881 45.394C49.3557 45.1882 49.4233 45.0053 49.4458 44.7995C49.4683 44.6394 49.4458 44.4565 49.4233 44.2964C49.3782 43.9077 49.3557 43.5418 49.3106 43.1531C49.3106 43.0616 49.2881 42.9473 49.2431 42.8558C49.198 42.7872 49.1079 42.7414 49.0629 42.6957C48.7926 42.467 48.725 42.0326 48.9052 41.7124C48.6124 41.5523 48.4547 41.2093 48.4997 40.8892C48.5223 40.7291 48.5673 40.5233 48.4322 40.4547C48.3871 40.4319 48.3421 40.4319 48.297 40.409C48.2069 40.3404 48.1844 40.2032 48.2295 40.0888C48.297 39.8373 48.3871 39.5629 48.2745 39.2885C48.1619 38.9684 47.9141 38.5567 47.9592 38.2137C47.9817 37.9851 48.1619 37.6878 48.2745 37.482C48.4998 37.0704 48.5898 37.0475 48.9953 36.8188C49.198 36.6816 49.5359 36.5216 49.671 36.3386C49.8062 36.1557 49.7161 35.8813 49.8287 35.7212C49.9864 35.5383 50.4144 35.6755 50.6171 35.4925C51.2253 34.9666 51.0676 34.2577 51.3154 33.5946C51.5181 33.0229 52.0812 32.657 52.2839 32.0853C52.374 31.7881 52.374 31.4679 52.5767 31.2392C52.6668 31.1478 52.7569 31.0792 52.8245 30.9877C52.9597 30.7819 52.8921 30.4846 52.9822 30.256C53.0948 29.9129 53.4777 29.7757 53.8156 29.6385C54.4463 29.3641 54.3112 29.044 54.4013 28.4952C54.4914 28.015 55.0094 27.5119 54.7617 26.9859C54.649 26.7573 54.3562 26.5972 54.3112 26.3457C54.2886 26.2313 54.3112 26.0941 54.2661 26.0027C54.1084 25.6825 53.4102 25.4767 53.1399 25.4767C53.0723 25.2938 53.0047 25.1108 52.9597 24.9279C52.847 24.9279 51.901 24.8593 51.9461 24.745C52.0587 24.2876 51.5631 23.6245 51.473 23.0528C51.2928 21.978 51.5406 21.0862 50.6621 20.263C50.955 19.5312 50.3017 18.5022 50.0765 17.8162C49.8738 17.1759 49.9413 16.5814 49.5134 16.0097C49.1079 15.438 48.6349 15.1179 48.0493 14.7291C47.4636 14.3404 47.1483 13.7001 46.6077 13.2885C46.3148 13.0827 45.9544 13.0369 45.6616 12.8311C45.4364 12.8083 45.3688 12.7168 45.3012 12.6482Z" fill="#2E3242"/>
<path d="M26.1815 54.9817C26.249 54.5015 26.3804 53.9236 26.6282 53.6034C27.2363 53.672 27.4801 54.4038 27.8179 53.6034C28.0432 53.0546 27.7278 52.608 27.8179 52.0363C27.9306 51.3274 28.4302 50.6993 29.0158 50.3791C29.6014 50.059 29.6915 49.7997 29.7816 49.0908C29.8717 48.4963 29.5444 48.3534 29.4543 47.7817C29.4093 47.4616 29.3867 46.7928 29.4543 46.4726C29.5669 46.061 29.5113 45.7652 29.7816 45.4908C30.142 45.1021 30.4918 45.0121 30.1089 44.509C29.9287 44.2575 29.5895 44.1517 29.4543 43.8545C29.3642 43.6715 29.4543 43.0784 29.4543 42.8726C29.3747 41.6032 29.4543 40.013 29.4543 38.6181V37.309C29.4543 35.5025 29.8943 33.7775 32.0116 33.7775C32.9351 33.7775 33.5167 33.8705 33.3816 32.7272C33.269 31.7896 32.9536 31.0466 33.3816 30.109C33.8096 29.2172 34.0255 28.358 34.3634 27.4205C34.6112 26.6887 34.2627 25.5129 34.6907 24.8726C35.1186 24.2324 35.8765 24.3182 36.327 23.5635C36.7325 22.9004 37.2307 22.2631 37.6361 21.5999C38.1317 20.7996 38.2231 20.2237 38.2907 19.309C38.3132 18.8745 38.2285 18.4344 38.4312 17.9999C38.5438 17.7255 38.7425 17.1782 38.9452 17.0181C39.666 16.4693 40.2212 17.1796 40.5816 16.0363C40.8068 15.3274 40.6624 14.7272 41.5634 14.7272C42.149 14.7272 42.7802 14.935 43.3433 14.935C44.1542 14.9578 44.1074 14.5691 44.1074 13.8831C44.1074 13.38 43.7881 12.2234 44.5089 12.1091C44.8017 12.0633 45.333 12.2762 45.4907 12.4363C45.5582 12.5049 45.7278 12.6949 45.8179 12.7635C46.1108 12.9693 46.1797 12.885 46.4725 13.0908C47.0131 13.5024 47.5457 14.3384 48.1089 14.7271C48.6945 15.1159 49.3398 15.4646 49.7452 16.0362C50.1732 16.6079 50.197 17.3596 50.3998 17.9999C50.625 18.7088 51.0199 19.559 50.727 20.2908C51.628 21.114 51.5512 22.1615 51.7089 23.2362C51.799 23.8079 52.1487 24.4153 52.0361 24.8726C51.9911 25.0555 51.6082 25.1566 51.3154 25.271C50.8424 25.4539 50.3243 25.431 49.8513 25.6826C49.4008 25.9112 49.4684 26.2314 49.2206 26.5972C48.9503 26.986 48.4547 27.0317 48.1844 27.4205C48.0718 27.5805 48.1394 27.7177 48.0493 27.8778C47.8691 28.198 47.6438 28.4266 47.4862 28.8382C47.3961 29.044 47.3285 29.2498 47.2159 29.4328C46.9456 29.913 46.9456 29.7758 47.1933 30.3475C47.3961 30.8277 47.5988 31.4451 47.0132 31.7195C47.3285 32.2683 47.2384 32.84 46.9681 33.4117C46.878 33.5946 46.7654 33.9834 46.6978 34.0977C46.4275 34.4864 46.2023 34.2578 45.7518 34.3035C45.8193 34.8066 45.4139 34.8294 45.1211 35.0581C44.8733 35.2639 44.6706 35.6069 44.3327 35.7441C43.7696 35.9499 43.3416 35.5383 43.0037 36.2015C42.7109 36.7503 42.5758 37.4134 42.1928 37.9165C41.8099 38.4425 41.2468 38.6711 40.9765 39.3114C40.7963 39.7459 40.8864 40.1575 40.8639 40.6148C40.8413 41.1408 40.5485 41.5067 40.4134 41.9869C40.2332 42.5814 40.0304 43.2674 39.9404 43.8849C39.8953 44.1364 39.9404 44.1135 39.9629 44.4108C39.9854 44.8681 39.8728 45.1654 39.8052 45.5999C39.7376 46.0801 40.053 46.6289 40.2332 47.0405C40.4809 47.6122 40.7512 47.4293 41.3369 47.5665C41.5396 47.6122 41.8099 47.7037 41.9901 47.8637C42.0802 47.9552 42.0352 48.1381 42.1027 48.1839C42.3055 48.3897 42.5983 48.4126 42.8686 48.5269C42.8686 48.9385 43.2065 49.0528 43.3641 49.2815C43.5894 49.6703 43.8371 50.402 43.7696 50.8594C43.702 51.4082 43.4317 51.4539 43.0938 51.8198C42.5082 52.4829 43.1164 53.4891 42.2829 53.9693C41.855 54.2208 40.9765 54.1751 41.0891 54.884C40.5936 55.0898 40.5035 55.1355 40.2557 55.5471C40.098 55.8215 39.9854 56.0273 39.8052 56.2789C39.5124 56.6676 39.2196 57.0564 39.0168 57.468C38.7465 57.9939 38.8592 58.0625 38.9493 58.5885C38.9943 58.9086 38.8817 59.2745 38.8817 59.5946C38.8592 60.0977 38.9042 60.6008 38.8141 61.1039C38.7465 61.5155 38.7465 62.1557 38.5438 62.5216C38.3186 62.9104 38.0032 62.979 37.9807 63.5506C37.9807 63.665 38.0483 63.7793 38.0257 63.8937C37.9807 64.2367 37.8005 64.2595 37.6653 64.5568C37.35 65.2199 37.5527 65.6544 36.7643 66.0432C36.494 66.1804 36.2913 66.2947 35.9985 66.3404C35.3228 66.4319 35.3228 66.1804 34.8723 66.6834C34.3992 67.2094 34.0388 66.8664 33.4757 67.1179C33.0477 67.3009 33.0703 67.7125 32.9351 68.0783C32.7775 68.4214 32.4846 68.8101 32.2143 69.0616C31.6737 69.5647 30.7727 69.4504 30.2547 68.9244C29.8492 68.49 29.8943 67.7811 29.6465 67.278C29.5113 66.9807 29.3537 66.7063 29.2411 66.4319C29.1284 66.1575 29.1059 65.8602 29.196 65.4944C29.3537 64.8769 29.8267 64.5339 29.669 63.8022C29.5339 63.0704 28.9257 62.3158 28.5878 61.6069C28.2274 60.8066 27.822 60.052 27.5066 59.2059C27.2363 58.4513 27.4165 57.7424 27.2138 57.0335C27.0561 56.4847 26.3804 56.2103 26.2227 55.57C26.1101 55.3413 26.1589 55.2104 26.1815 54.9817Z" fill="#2E3242"/>
<path d="M35.1875 18.3192C35.1424 18.4106 35.0073 18.5707 34.9848 18.6622C34.9622 18.7765 35.0298 18.9366 35.0073 19.028C34.9397 19.211 34.7145 19.211 34.6018 19.3939C34.4667 19.5997 34.4667 20.1257 34.4216 20.3772C34.3541 20.7431 34.3541 21.0861 34.2414 21.452C34.1063 21.8407 33.7008 22.0922 33.3179 22.2295C33.1828 22.2752 33.0476 22.3667 32.9125 22.4124C32.8674 22.4353 32.8449 22.5039 32.7773 22.5267C32.7323 22.5496 32.6647 22.481 32.6196 22.481C32.5521 22.5039 32.507 22.481 32.4394 22.5267C32.3043 22.5953 32.1917 22.9383 32.1016 23.0755C31.9664 23.2585 31.8763 23.4643 31.7412 23.6243C31.6736 23.7158 31.5159 23.8073 31.4258 23.8988C31.3808 23.9445 31.2231 24.036 31.2231 24.0588C31.088 24.3332 31.2456 24.722 31.2006 25.0421C31.1555 25.408 31.0204 25.751 30.9753 26.1169C30.9303 26.437 30.7501 26.6657 30.5023 26.8944C30.3221 27.0773 30.2095 27.0544 30.0068 27.123C29.9167 27.1459 29.804 27.2374 29.7139 27.2602C29.6238 27.2831 29.5112 27.1459 29.4662 27.1688C29.331 27.2145 29.286 27.3746 29.1733 27.466C29.0157 27.5804 28.9256 27.5804 28.7454 27.6261C28.6553 27.992 27.3038 28.0377 27.9345 28.7466C27.912 28.7695 27.8894 28.7695 27.8894 28.7695C27.957 29.0896 28.2949 29.0667 28.4525 29.2725C28.5201 29.364 28.7454 29.7528 28.7904 29.8671C29.1058 30.7132 27.6417 31.6279 27.1236 31.9937C26.9884 32.0852 26.8533 32.1081 26.6956 32.1538C26.4929 32.2224 26.6055 32.1538 26.4028 32.2682C26.2226 32.4054 26.0649 32.5654 25.8397 32.6569C25.5919 32.7484 25.4117 32.7255 25.2315 32.9542C25.1189 33.0914 24.9387 33.4344 24.8936 33.5945C24.8486 33.7545 24.9387 33.9375 24.8486 34.0975C24.781 34.2347 24.6233 34.2576 24.5558 34.3719C24.3981 34.6921 24.5783 34.8064 24.2629 35.058C24.0602 35.218 23.88 35.1723 23.6773 35.2409C23.5647 35.2866 23.452 35.4238 23.3394 35.4467C23.1592 35.4696 23.1142 35.2866 22.979 35.2866C22.2132 35.2409 22.4384 36.4986 22.1906 36.8645C22.033 37.116 21.7852 37.3218 21.5149 37.4361C21.3122 37.5047 20.9968 37.6648 20.7941 37.7105C20.5689 37.7334 20.4788 37.6191 20.276 37.6419C20.1409 37.6648 20.0283 37.8478 19.8931 37.8935C19.7805 37.9392 19.5778 37.9164 19.4426 37.9164C19.1948 37.9164 18.902 37.7105 18.6993 37.7791C18.5867 37.802 18.5416 37.9621 18.4515 38.0078C18.3389 38.0764 18.0911 38.0307 17.9785 38.145C17.956 38.1679 17.8433 38.5338 17.7983 38.5795C17.7082 38.831 17.7983 39.174 17.6406 39.3799C17.5956 39.4485 17.483 39.4027 17.4154 39.4485C17.1 39.7686 17.1 40.1573 16.627 40.2488C16.1315 40.3403 15.6359 40.1802 15.1629 40.2945C14.4421 40.4317 14.2619 41.072 14.5097 41.758C14.5322 41.8495 14.6899 41.8495 14.7124 41.941C14.7349 42.0096 14.6673 42.1697 14.6448 42.2611C14.6448 42.3526 14.6673 42.4898 14.6448 42.5813C14.6223 42.7185 14.5322 42.7413 14.5097 42.8557C14.4871 42.9471 14.5097 43.1987 14.4646 43.2901C14.3745 43.4502 14.3295 43.313 14.1493 43.3816C13.8114 43.5417 14.1943 43.5874 14.0366 43.8618C13.9916 43.9533 13.6988 44.0219 13.6087 44.1134C13.023 44.6622 13.0005 45.7827 13.0681 46.5144C13.1357 47.3834 13.2032 48.3209 13.451 49.1441C13.5411 49.4414 13.4735 49.6701 13.4735 49.9902C13.4735 50.1732 13.5636 50.3332 13.5411 50.5391C13.5186 50.6763 13.4285 50.8363 13.4735 50.9507C13.5411 51.1565 13.7664 51.2251 13.8114 51.4995C13.879 51.8653 13.879 52.1855 13.9916 52.5514C14.0817 52.8486 14.1042 53.1002 14.1493 53.3975C14.1943 53.8091 14.0366 54.1978 14.0592 54.6094C14.0817 54.8838 14.0817 55.204 14.1718 55.4784C14.2394 55.6613 14.397 55.8214 14.4196 56.0272C14.4421 56.1644 14.3295 56.2559 14.352 56.3931C14.4646 56.8047 14.8025 56.7818 15.0953 56.7818C15.3206 56.7818 15.5458 56.8275 15.7711 56.8504C15.8612 56.8504 15.9287 56.7818 16.0188 56.8047C16.0414 56.8047 16.0639 56.919 16.1089 56.919C16.199 56.919 16.3342 56.919 16.4468 56.9419C16.7396 56.9647 16.9198 57.0105 17.2127 56.8504C17.4604 56.7132 17.6631 56.4617 17.956 56.4388C18.0686 56.4159 18.1587 56.4845 18.2488 56.4845C18.474 56.4617 18.6317 56.3016 18.8344 56.1873C19.1047 56.05 19.4201 56.0043 19.6679 55.8442C19.8931 55.6842 20.1184 55.4555 20.3211 55.2954C20.4788 55.1582 20.6139 54.9067 20.7941 54.8152C20.9293 54.7466 21.0869 54.861 21.2221 54.8152C21.3797 54.7695 21.4023 54.6094 21.5149 54.4951C21.7176 54.3121 21.9429 54.2207 22.1681 54.0149C22.6186 53.5575 22.7763 52.963 23.2493 52.5514C23.5872 52.2312 23.9926 52.277 24.4657 52.277C25.1189 52.2998 25.1189 52.5742 25.2765 53.1002C25.4793 53.7405 25.5284 54.6159 26.1816 54.9818C26.2492 54.5016 26.3352 53.992 26.583 53.6719C27.1912 53.7405 27.6417 54.6094 27.9795 53.8091C28.2048 53.2602 27.8894 52.5971 27.9795 52.0254C28.0922 51.3165 28.385 50.7677 28.9706 50.4476C29.5563 50.1274 29.9842 50.0131 30.0743 49.3042C30.1644 48.7097 29.804 48.0923 29.7139 47.5206C29.6689 47.2004 29.5788 46.7202 29.6464 46.4001C29.759 45.9885 29.804 46.1257 30.0743 45.8513C30.4347 45.4625 30.6149 44.7994 30.232 44.2963C30.0518 44.0448 29.6238 44.0219 29.4887 43.7246C29.3986 43.5417 29.4887 43.1072 29.4887 42.9014C29.4211 41.598 29.5563 39.9515 29.5563 38.5566V37.3675C29.5563 35.561 29.8491 33.846 31.9664 33.846C32.8899 33.846 33.6107 33.9832 33.4756 32.8398C33.363 31.9023 32.9575 31.1477 33.3855 30.2101C33.8135 29.3183 34.1063 28.4951 34.4442 27.5575C34.6919 26.8258 34.2865 25.6138 34.7145 24.9735C35.1424 24.3332 36.0659 24.4704 36.5164 23.7158C36.9219 23.0527 37.3048 22.3667 37.7103 21.7035C38.2058 20.9032 38.3184 20.3315 38.386 19.4168C38.4085 18.9823 38.4153 18.4344 38.618 18L36.6544 17.3454C36.3165 17.6656 35.5253 17.7932 35.1875 18.3192Z" fill="#7BB7EF"/>
<path d="M60.3703 6.99993C59.7396 6.97707 59.0863 7.13714 58.4782 7.04567C58.0502 6.97707 58.0277 6.77126 57.6673 6.51972C57.4195 6.33679 57.0591 6.24532 56.7438 6.24532C55.9779 5.5593 58.9512 5.97091 58.5232 4.34734C57.5997 4.3016 56.4059 4.69035 55.6175 4.21013C55.1445 3.91286 55.3247 3.38692 54.6264 3.29545C53.9056 3.20398 53.7705 4.1644 53.1623 4.18727C53.1173 4.18727 52.9821 4.07293 52.9145 4.05006C52.6668 3.9586 52.6217 3.86713 52.4415 3.75279C52.419 3.72992 52.1712 3.68419 52.1487 3.66132C52.0586 3.63845 51.9234 3.59272 51.8108 3.54699C51.6531 3.50125 51.4504 3.34118 51.2928 3.31831C50.9774 3.29545 50.6395 3.84426 50.3692 4.0272C50.144 4.18727 49.9863 4.25587 49.7385 4.34734C49.5133 4.43881 49.3781 4.53028 49.1304 4.64461C48.8601 4.75895 48.5898 4.85042 48.297 4.89615C47.9366 4.94189 47.1932 5.23916 47.0581 5.60503C46.9455 5.90231 47.2158 6.10811 47.1932 6.42825C47.1257 7.41154 46.9455 8.09756 45.9093 8.12043C45.3687 8.12043 44.8281 7.86889 44.2875 7.89176C43.9046 7.91462 43.7469 7.75455 43.3865 7.66308C42.8459 7.52588 42.463 7.73168 42.0576 8.09756C41.9675 8.18903 41.9224 8.3491 41.8323 8.44057C41.7422 8.53204 41.5845 8.53204 41.4944 8.66924C41.3368 8.87504 41.4043 9.26379 41.3368 9.51533C41.2917 9.72113 41.2016 10.0184 41.044 10.1785C40.7511 10.4986 40.3907 10.2242 40.0078 10.2471C39.9853 10.43 39.8051 10.43 39.6474 10.4529C39.3546 10.5215 39.3996 10.4757 39.2645 10.6816C39.2194 10.7502 39.2194 10.9102 39.1744 11.0017C39.0843 11.1389 38.9041 11.2075 38.8365 11.3218C38.7464 11.5048 39.0618 13.3113 39.0167 13.3341C38.5662 13.3799 38.0932 13.2655 37.6427 13.1741C37.1697 13.0826 36.6967 12.8082 36.2011 12.8997C35.8632 12.9683 35.2325 13.1969 35.0523 13.4942C34.9848 13.6086 34.9848 13.7229 34.9397 13.8372C34.8271 14.0888 34.6469 14.0659 34.4892 14.2717C34.3315 14.5004 34.3766 14.7748 34.1063 14.9349C33.8811 15.0721 33.4981 15.0263 33.2504 15.0492C32.6872 15.1178 31.8763 15.2321 31.4934 15.7123C31.606 15.8267 31.6961 16.2383 31.6961 16.3984C31.6961 16.5813 31.5385 16.7871 31.4934 17.0158C31.7187 16.9929 31.6961 17.1758 31.8313 17.2216C32.0115 17.2902 32.2142 17.2216 32.3944 17.1758C32.7323 17.1072 33.0251 17.1072 33.363 17.1072C33.3179 16.4898 34.2865 16.2154 34.7145 15.9867C34.8271 15.9181 34.9172 15.8724 35.0298 15.8038C35.0974 15.7352 35.1424 15.6666 35.2325 15.598C35.2776 15.5751 35.3452 15.6209 35.3902 15.5751C35.7281 15.3922 35.9308 15.1635 36.3363 15.0721C37.3274 14.8663 37.5751 15.6666 37.1472 16.5127C37.012 16.7414 36.8346 17.1853 36.6544 17.3454L38.618 18C38.7306 17.7255 39.0167 17.3359 39.2194 17.1758C39.9402 16.627 40.5034 17.313 40.8638 16.1697C41.089 15.4608 40.8638 14.8434 41.7647 14.8434C42.3504 14.8434 42.8459 15.1635 43.4091 15.1635C44.22 15.1864 44.1299 14.4775 44.1299 13.7915C44.1299 13.2884 43.9947 12.4423 44.7155 12.328C45.0083 12.2823 45.1435 12.4195 45.3011 12.5795C45.4138 12.0536 45.5489 11.5048 45.9994 11.4362C46.54 11.3676 46.6977 12.0307 46.9004 12.4195C47.3059 13.1512 47.8239 13.5857 48.7024 13.6772C48.9727 13.7 49.243 13.7 49.4457 13.54C49.6935 13.357 49.7385 12.9683 50.1215 12.9454C50.6621 12.9225 51.1126 13.9058 51.7433 13.5857C52.0135 13.4485 52.4415 12.7167 52.5316 12.4423C52.847 11.5276 52.9821 10.2928 52.9821 9.28665C52.9821 8.80644 52.9596 8.07469 53.3425 7.75455C53.5678 7.57161 53.8155 7.64022 54.0633 7.48014C54.1985 7.38868 54.266 7.20574 54.3787 7.0914C54.694 6.77126 55.2121 6.38252 55.6175 6.67979C55.7977 6.83986 55.8428 7.13714 56.023 7.32007C56.2032 7.50301 56.496 7.61735 56.7438 7.73168C57.1042 7.86889 57.7349 7.98322 57.9151 8.39483C58.0727 8.80644 57.7349 9.10372 57.5547 9.40099C57.4195 9.62966 57.1717 10.1327 57.3294 10.4071C57.4195 10.5672 57.5096 10.6358 57.6222 10.5901C57.825 10.5444 58.0052 10.2013 58.1178 10.0413C58.343 9.76687 58.6809 9.62966 58.816 9.28665C58.9512 8.94365 58.771 8.46343 59.0188 8.18903C59.244 7.96036 59.8071 7.96036 60.0774 7.70882C60.2576 7.57161 60.3703 7.38868 60.3928 7.18287C60.3928 7.20574 60.3928 7.0914 60.3703 6.99993Z" fill="#7BB7EF"/>
<g clip-path="url(#clip0)">
<path d="M13.0909 30.109C18.1518 30.109 22.2545 26.0063 22.2545 20.9454C22.2545 15.8844 18.1518 11.7817 13.0909 11.7817C8.02995 11.7817 3.92725 15.8844 3.92725 20.9454C3.92725 26.0063 8.02995 30.109 13.0909 30.109Z" fill="#F0F0F0"/>
<path d="M4.24316 23.3359C4.77337 25.3032 5.94191 27.0083 7.51326 28.2156V23.3359H4.24316Z" fill="#D80027"/>
<path d="M12.2944 30.0742C12.5571 30.0968 12.8227 30.109 13.0913 30.109C17.3251 30.109 20.8877 27.2375 21.9392 23.3359H12.2944V30.0742Z" fill="#D80027"/>
<path d="M21.9392 18.5548C20.8877 14.6533 17.3251 11.7817 13.0913 11.7817C12.8227 11.7817 12.5571 11.794 12.2944 11.8166V18.5548H21.9392Z" fill="#D80027"/>
<path d="M7.51326 13.675C5.94191 14.8824 4.77337 16.5875 4.24316 18.5548H7.51326V13.675Z" fill="#D80027"/>
<path d="M22.177 19.7501H11.0988H11.0988V11.9995C10.2519 12.1873 9.44909 12.4917 8.70827 12.8959V19.75V19.7501H4.00481C3.95381 20.1413 3.92725 20.5402 3.92725 20.9453C3.92725 21.3504 3.95381 21.7493 4.00481 22.1406H8.70823H8.70827V28.9947C9.44909 29.3989 10.2519 29.7034 11.0988 29.8911V22.1407V22.1406H22.177C22.2279 21.7493 22.2545 21.3504 22.2545 20.9453C22.2545 20.5402 22.2279 20.1413 22.177 19.7501Z" fill="#0052B4"/>
</g>
<defs>
<clipPath id="clip0">
<rect width="18.3273" height="18.3273" fill="white" transform="translate(3.92725 11.7817)"/>
</clipPath>
</defs>
</svg>
