<svg width="18" height="18" viewBox="0 0 18 18" fill="none" xmlns="http://www.w3.org/2000/svg">
<g clip-path="url(#clip0)">
<path d="M14.2253 11.1507C13.8568 10.767 13.4123 10.5619 12.9412 10.5619C12.4739 10.5619 12.0256 10.7632 11.6419 11.1469L10.4415 12.3436C10.3427 12.2904 10.2439 12.241 10.1489 12.1916C10.0122 12.1233 9.883 12.0587 9.77282 11.9903C8.64831 11.2761 7.62637 10.3453 6.64623 9.14102C6.17135 8.54078 5.85223 8.03551 5.62049 7.52264C5.93201 7.23771 6.22074 6.94139 6.50186 6.65646C6.60824 6.55009 6.71461 6.43992 6.82098 6.33354C7.61878 5.53575 7.61878 4.50241 6.82098 3.70462L5.78385 2.66749C5.66608 2.54972 5.54451 2.42815 5.43054 2.30658C5.2026 2.07104 4.96326 1.8279 4.71632 1.59996C4.34782 1.23525 3.90713 1.0415 3.44365 1.0415C2.98017 1.0415 2.53188 1.23525 2.15198 1.59996C2.14818 1.60376 2.14818 1.60376 2.14438 1.60756L0.852716 2.91062C0.366441 3.3969 0.0891121 3.98955 0.0283277 4.67717C-0.0628488 5.78648 0.263867 6.81982 0.514603 7.49604C1.13004 9.15622 2.04941 10.6948 3.42086 12.3436C5.08483 14.3305 7.08691 15.8995 9.37393 17.005C10.2477 17.4191 11.414 17.9092 12.7171 17.9927C12.7968 17.9965 12.8804 18.0003 12.9564 18.0003C13.834 18.0003 14.571 17.685 15.1484 17.0582C15.1522 17.0506 15.1598 17.0468 15.1636 17.0392C15.3612 16.7999 15.5891 16.5833 15.8285 16.3516C15.9918 16.1958 16.159 16.0324 16.3223 15.8615C16.6984 15.4702 16.896 15.0143 16.896 14.547C16.896 14.076 16.6946 13.6239 16.3109 13.244L14.2253 11.1507ZM15.5853 15.1511C15.5815 15.1511 15.5815 15.1549 15.5853 15.1511C15.4372 15.3106 15.2852 15.455 15.1218 15.6146C14.8749 15.8501 14.6242 16.097 14.3886 16.3744C14.0049 16.7847 13.5529 16.9784 12.9602 16.9784C12.9032 16.9784 12.8424 16.9784 12.7854 16.9746C11.6571 16.9024 10.6086 16.4617 9.82221 16.0856C7.67196 15.0447 5.78385 13.5669 4.21485 11.694C2.91938 10.1326 2.05321 8.68894 1.47955 7.13894C1.12625 6.19298 0.997079 5.45597 1.05406 4.76075C1.09205 4.31626 1.26301 3.94776 1.57833 3.63244L2.8738 2.33697C3.05995 2.16222 3.2575 2.06724 3.45125 2.06724C3.69059 2.06724 3.88434 2.2116 4.00591 2.33317C4.0097 2.33697 4.0135 2.34077 4.0173 2.34457C4.24904 2.56111 4.46939 2.78526 4.70113 3.02459C4.8189 3.14616 4.94046 3.26773 5.06203 3.3931L6.09917 4.43023C6.50186 4.83293 6.50186 5.20523 6.09917 5.60793C5.989 5.7181 5.88262 5.82827 5.77245 5.93465C5.45333 6.26136 5.14941 6.56528 4.8189 6.86161C4.8113 6.8692 4.8037 6.873 4.7999 6.8806C4.47319 7.20732 4.53397 7.52644 4.60235 7.74298C4.60615 7.75438 4.60995 7.76577 4.61375 7.77717C4.88348 8.4306 5.26338 9.04605 5.84083 9.77926L5.84463 9.78306C6.89316 11.0747 7.99868 12.0815 9.21817 12.8527C9.37393 12.9514 9.53348 13.0312 9.68544 13.1072C9.82221 13.1756 9.95138 13.2402 10.0615 13.3085C10.0767 13.3161 10.0919 13.3275 10.1071 13.3351C10.2363 13.3997 10.3579 13.4301 10.4832 13.4301C10.7986 13.4301 10.9961 13.2326 11.0607 13.168L12.36 11.8687C12.4891 11.7396 12.6943 11.5838 12.9336 11.5838C13.1691 11.5838 13.3629 11.732 13.4807 11.8611C13.4845 11.8649 13.4845 11.8649 13.4883 11.8687L15.5815 13.962C15.9728 14.3495 15.9728 14.7484 15.5853 15.1511Z" fill="white" fill-opacity="0.5"/>
<path d="M9.72782 4.28181C10.7232 4.44897 11.6273 4.92005 12.3491 5.64186C13.071 6.36367 13.5382 7.26784 13.7092 8.26319C13.751 8.51392 13.9675 8.68868 14.2145 8.68868C14.2448 8.68868 14.2714 8.68488 14.3018 8.68108C14.583 8.63549 14.7691 8.36956 14.7235 8.08843C14.5184 6.88414 13.9485 5.78622 13.0785 4.91625C12.2086 4.04627 11.1107 3.47642 9.90637 3.27127C9.62525 3.22568 9.36311 3.41183 9.31373 3.68916C9.26434 3.96649 9.44669 4.23622 9.72782 4.28181Z" fill="white" fill-opacity="0.5"/>
<path d="M17.9792 7.94042C17.6411 5.95733 16.7066 4.1528 15.2705 2.71677C13.8345 1.28074 12.03 0.346176 10.0469 0.00806309C9.76955 -0.0413242 9.50742 0.148627 9.45803 0.425956C9.41245 0.707083 9.5986 0.969216 9.87973 1.0186C11.6501 1.31873 13.2647 2.15831 14.5487 3.43858C15.8328 4.72265 16.6686 6.33724 16.9687 8.10758C17.0105 8.35832 17.227 8.53307 17.474 8.53307C17.5044 8.53307 17.531 8.52927 17.5614 8.52547C17.8387 8.48368 18.0286 8.21775 17.9792 7.94042Z" fill="white" fill-opacity="0.5"/>
</g>
<defs>
<clipPath id="clip0">
<rect width="18" height="18" fill="white"/>
</clipPath>
</defs>
</svg>
