<svg width="24" height="18" viewBox="0 0 24 18" fill="none" xmlns="http://www.w3.org/2000/svg">
<path d="M17.212 15.766C16.348 15.706 15.646 15.592 15.106 15.424C14.578 15.244 14.182 15.082 13.918 14.938L14.53 13.228C14.914 13.42 15.376 13.594 15.916 13.75C16.468 13.906 17.092 13.984 17.788 13.984C18.616 13.984 19.186 13.864 19.498 13.624C19.822 13.372 19.984 13.042 19.984 12.634C19.984 12.358 19.918 12.118 19.786 11.914C19.654 11.71 19.468 11.53 19.228 11.374C18.988 11.218 18.7 11.074 18.364 10.942C18.04 10.81 17.68 10.672 17.284 10.528C16.912 10.396 16.54 10.246 16.168 10.078C15.808 9.91 15.478 9.706 15.178 9.466C14.89 9.214 14.656 8.914 14.476 8.566C14.296 8.218 14.206 7.792 14.206 7.288C14.206 6.46 14.452 5.758 14.944 5.182C15.436 4.594 16.192 4.216 17.212 4.048V2.032H19.084V3.976C19.66 4.024 20.176 4.108 20.632 4.228C21.088 4.336 21.448 4.444 21.712 4.552L21.262 6.334C20.914 6.202 20.5 6.076 20.02 5.956C19.552 5.836 19.012 5.776 18.4 5.776C17.752 5.776 17.266 5.896 16.942 6.136C16.618 6.364 16.456 6.682 16.456 7.09C16.456 7.33 16.504 7.534 16.6 7.702C16.696 7.858 16.84 8.002 17.032 8.134C17.224 8.254 17.458 8.374 17.734 8.494C18.01 8.602 18.322 8.716 18.67 8.836C19.162 9.028 19.624 9.232 20.056 9.448C20.5 9.652 20.884 9.898 21.208 10.186C21.532 10.462 21.784 10.792 21.964 11.176C22.156 11.56 22.252 12.016 22.252 12.544C22.252 13.336 22.006 14.02 21.514 14.596C21.022 15.172 20.212 15.544 19.084 15.712V17.962H17.212V15.766Z" fill="white"/>
<path d="M1.17772 10.0889H5.08887H9.00001" stroke="white" stroke-width="2"/>
<path d="M4.91112 5.99999L4.91112 9.91113L4.91112 13.8223" stroke="white" stroke-width="2"/>
</svg>
