<svg width="54" height="54" viewBox="0 0 54 54" fill="none" xmlns="http://www.w3.org/2000/svg">
<path d="M10.1251 1.12524V10.1251H1.12524L10.1251 1.12524Z" fill="#7BB7EF"/>
<path d="M2.24986 48.3751V11.2501H10.125C10.7463 11.2501 11.2501 10.7463 11.2501 10.125V2.24986H37.125C38.9888 2.24986 40.5 3.76103 40.5 5.62486V13.5H42.7499V5.62486C42.7462 2.52013 40.2301 0.00370788 37.125 0H10.125C9.82672 0 9.54039 0.118652 9.32945 0.32959L0.32959 9.32945C0.118652 9.54039 0 9.82672 0 10.125V48.3751C0.00370788 51.4799 2.52013 53.9963 5.62486 54H27V51.7501H5.62486C3.76103 51.7501 2.24986 50.239 2.24986 48.3751ZM3.84055 8.99986L8.99986 3.84055V8.99986H3.84055Z" fill="#7BB7EF"/>
<path d="M47.875 25H34.375C32.5108 25 31 26.5112 31 28.375V42.7303C30.9967 44.0107 31.7218 45.1816 32.8696 45.7497L40.6207 49.6311C40.9392 49.7913 41.3149 49.7913 41.6334 49.6311L49.3845 45.7497C50.5307 45.1804 51.2537 44.0095 51.25 42.7303V28.375C51.25 26.5112 49.7388 25 47.875 25Z" fill="#7BB7EF"/>
<path d="M38.875 38.0345L37.4207 36.5797L35.8296 38.1704L38.0799 40.4207C38.519 40.8599 39.2314 40.8599 39.6705 40.4207L46.4205 33.6707L44.8299 32.0796L38.875 38.0345Z" fill="#0E111B"/>
<line x1="9" y1="19" x2="18" y2="19" stroke="#7BB7EF" stroke-width="2"/>
<line x1="9" y1="31" x2="21" y2="31" stroke="#7BB7EF" stroke-width="2"/>
<line x1="9" y1="25" x2="14" y2="25" stroke="#7BB7EF" stroke-width="2"/>
</svg>
