<svg width="1920" height="474" viewBox="0 0 1920 474" fill="none" xmlns="http://www.w3.org/2000/svg">
<g clip-path="url(#clip0)">
<rect width="1921" height="474" fill="#0E111B"/>
<path opacity="0.2" d="M496.958 -285C478.419 -257.867 443.409 -211.859 477.02 -144.617C522.425 -53.7814 586.154 -126.922 626.03 -53.7812C665.906 19.3594 597.697 28.207 644.394 101.938C692.211 177.438 737.724 115.386 774.662 188.055C812.439 264.734 752.625 281.25 788.304 360.289C830.278 438.148 860.71 359.109 902.685 447.586C944.659 536.062 878.549 560.836 902.685 621" stroke="#7BB7EF"/>
<path opacity="0.2" d="M522.958 -301C504.419 -273.867 469.409 -227.859 503.02 -160.617C548.425 -69.7814 612.154 -142.922 652.03 -69.7812C691.906 3.35938 623.697 12.207 670.394 85.9375C718.211 161.438 763.724 99.3859 800.662 172.055C838.439 248.734 778.625 265.25 814.304 344.289C856.278 422.148 886.71 343.109 928.685 431.586C970.659 520.062 904.549 544.836 928.685 605" stroke="#7BB7EF"/>
<path opacity="0.2" d="M548.958 -317C530.419 -289.867 495.409 -243.859 529.02 -176.617C574.425 -85.7814 638.154 -158.922 678.03 -85.7812C717.906 -12.6406 649.697 -3.79297 696.394 69.9375C744.211 145.438 789.724 83.3859 826.662 156.055C864.439 232.734 804.625 249.25 840.304 328.289C882.278 406.148 912.71 327.109 954.685 415.586C996.659 504.062 930.549 528.836 954.685 589" stroke="#7BB7EF"/>
<path opacity="0.2" d="M574.958 -333C556.419 -305.867 521.409 -259.859 555.02 -192.617C600.425 -101.781 664.154 -174.922 704.03 -101.781C743.906 -28.6406 675.697 -19.793 722.394 53.9375C770.211 129.438 815.724 67.3859 852.662 140.055C890.439 216.734 830.625 233.25 866.304 312.289C908.278 390.148 938.71 311.109 980.685 399.586C1022.66 488.062 956.549 512.836 980.685 573" stroke="#7BB7EF"/>
<path opacity="0.2" d="M600.958 -349C582.419 -321.867 547.409 -275.859 581.02 -208.617C626.425 -117.781 690.154 -190.922 730.03 -117.781C769.906 -44.6406 701.697 -35.793 748.394 37.9375C796.211 113.438 841.724 51.3859 878.662 124.055C916.439 200.734 856.625 217.25 892.304 296.289C934.278 374.148 964.71 295.109 1006.68 383.586C1048.66 472.062 982.549 496.836 1006.68 557" stroke="#7BB7EF"/>
<path opacity="0.2" d="M626.958 -365C608.419 -337.867 573.409 -291.859 607.02 -224.617C652.425 -133.781 716.154 -206.922 756.03 -133.781C795.906 -60.6406 727.697 -51.793 774.394 21.9375C822.211 97.4375 867.724 35.3859 904.662 108.055C942.439 184.734 882.625 201.25 918.304 280.289C960.278 358.148 990.71 279.109 1032.68 367.586C1074.66 456.062 1008.55 480.836 1032.68 541" stroke="#7BB7EF"/>
<path opacity="0.2" d="M652.958 -381C634.419 -353.867 599.409 -307.859 633.02 -240.617C678.425 -149.781 742.154 -222.922 782.03 -149.781C821.906 -76.6406 753.697 -67.793 800.394 5.9375C848.211 81.4375 893.724 19.3859 930.662 92.0547C968.439 168.734 908.625 185.25 944.304 264.289C986.278 342.148 1016.71 263.109 1058.68 351.586C1100.66 440.062 1034.55 464.836 1058.68 525" stroke="#7BB7EF"/>
<path opacity="0.2" d="M678.958 -397C660.419 -369.867 625.409 -323.859 659.02 -256.617C704.425 -165.781 768.154 -238.922 808.03 -165.781C847.906 -92.6406 779.697 -83.793 826.394 -10.0625C874.211 65.4375 919.724 3.38594 956.662 76.0547C994.439 152.734 934.625 169.25 970.304 248.289C1012.28 326.148 1042.71 247.109 1084.68 335.586C1126.66 424.062 1060.55 448.836 1084.68 509" stroke="#7BB7EF"/>
<path opacity="0.2" d="M704.958 -413C686.419 -385.867 651.409 -339.859 685.02 -272.617C730.425 -181.781 794.154 -254.922 834.03 -181.781C873.906 -108.641 805.697 -99.793 852.394 -26.0625C900.211 49.4375 945.724 -12.6141 982.662 60.0547C1020.44 136.734 960.625 153.25 996.304 232.289C1038.28 310.148 1068.71 231.109 1110.68 319.586C1152.66 408.062 1086.55 432.836 1110.68 493" stroke="#7BB7EF"/>
<path opacity="0.2" d="M730.958 -429C712.419 -401.867 677.409 -355.859 711.02 -288.617C756.425 -197.781 820.154 -270.922 860.03 -197.781C899.906 -124.641 831.697 -115.793 878.394 -42.0625C926.211 33.4375 971.724 -28.6141 1008.66 44.0547C1046.44 120.734 986.625 137.25 1022.3 216.289C1064.28 294.148 1094.71 215.109 1136.68 303.586C1178.66 392.062 1112.55 416.836 1136.68 477" stroke="#7BB7EF"/>
<path opacity="0.2" d="M756.958 -445C738.419 -417.867 703.409 -371.859 737.02 -304.617C782.425 -213.781 846.154 -286.922 886.03 -213.781C925.906 -140.641 857.697 -131.793 904.394 -58.0625C952.211 17.4375 997.724 -44.6141 1034.66 28.0547C1072.44 104.734 1012.63 121.25 1048.3 200.289C1090.28 278.148 1120.71 199.109 1162.68 287.586C1204.66 376.062 1138.55 400.836 1162.68 461" stroke="#7BB7EF"/>
<path opacity="0.2" d="M957.983 -212.559C937.543 -186.829 899.316 -143.457 928.008 -73.9726C966.767 19.8914 1035.59 -48.4797 1070.1 27.3376C1104.62 103.155 1035.95 107.078 1077.23 183.974C1119.5 262.715 1169.35 204.095 1200.97 279.23C1233.14 358.427 1172.29 370.601 1202.2 452C1238.47 532.674 1274.5 456.027 1310.01 547.291C1345.52 638.556 1277.8 658.514 1297.55 720.257" stroke="#7BB7EF"/>
<path opacity="0.2" d="M990.983 -223.559C970.543 -197.829 932.316 -154.457 961.008 -84.9726C999.767 8.89144 1068.59 -59.4797 1103.1 16.3376C1137.62 92.155 1068.95 96.0777 1110.23 172.974C1152.5 251.715 1202.35 193.095 1233.97 268.23C1266.14 347.427 1205.29 359.601 1235.2 441C1271.47 521.674 1307.5 445.027 1343.01 536.291C1378.52 627.556 1310.8 647.514 1330.55 709.257" stroke="#7BB7EF"/>
<path opacity="0.2" d="M1023.98 -234.559C1003.54 -208.829 965.316 -165.457 994.008 -95.9726C1032.77 -2.10856 1101.59 -70.4797 1136.1 5.33764C1170.62 81.155 1101.95 85.0777 1143.23 161.974C1185.5 240.715 1235.35 182.095 1266.97 257.23C1299.14 336.427 1238.29 348.601 1268.2 430C1304.47 510.674 1340.5 434.027 1376.01 525.291C1411.52 616.556 1343.8 636.514 1363.55 698.257" stroke="#7BB7EF"/>
<path opacity="0.2" d="M1056.98 -245.559C1036.54 -219.829 998.316 -176.457 1027.01 -106.973C1065.77 -13.1086 1134.59 -81.4797 1169.1 -5.66236C1203.62 70.155 1134.95 74.0777 1176.23 150.974C1218.5 229.715 1268.35 171.095 1299.97 246.23C1332.14 325.427 1271.29 337.601 1301.2 419C1337.47 499.674 1373.5 423.027 1409.01 514.291C1444.52 605.556 1376.8 625.514 1396.55 687.257" stroke="#7BB7EF"/>
<path opacity="0.2" d="M1089.98 -256.559C1069.54 -230.829 1031.32 -187.457 1060.01 -117.973C1098.77 -24.1086 1167.59 -92.4797 1202.1 -16.6624C1236.62 59.155 1167.95 63.0777 1209.23 139.974C1251.5 218.715 1301.35 160.095 1332.97 235.23C1365.14 314.427 1304.29 326.601 1334.2 408C1370.47 488.674 1406.5 412.027 1442.01 503.291C1477.52 594.556 1409.8 614.514 1429.55 676.257" stroke="#7BB7EF"/>
<path opacity="0.2" d="M1122.98 -267.559C1102.54 -241.829 1064.32 -198.457 1093.01 -128.973C1131.77 -35.1086 1200.59 -103.48 1235.1 -27.6624C1269.62 48.155 1200.95 52.0777 1242.23 128.974C1284.5 207.715 1334.35 149.095 1365.97 224.23C1398.14 303.427 1337.29 315.601 1367.2 397C1403.47 477.674 1439.5 401.027 1475.01 492.291C1510.52 583.556 1442.8 603.514 1462.55 665.257" stroke="#7BB7EF"/>
<path opacity="0.2" d="M1155.98 -278.559C1135.54 -252.829 1097.32 -209.457 1126.01 -139.973C1164.77 -46.1086 1233.59 -114.48 1268.1 -38.6624C1302.62 37.155 1233.95 41.0777 1275.23 117.974C1317.5 196.715 1367.35 138.095 1398.97 213.23C1431.14 292.427 1370.29 304.601 1400.2 386C1436.47 466.674 1472.5 390.027 1508.01 481.291C1543.52 572.556 1475.8 592.514 1495.55 654.257" stroke="#7BB7EF"/>
<path opacity="0.2" d="M1188.98 -289.559C1168.54 -263.829 1130.32 -220.457 1159.01 -150.973C1197.77 -57.1086 1266.59 -125.48 1301.1 -49.6624C1335.62 26.155 1266.95 30.0777 1308.23 106.974C1350.5 185.715 1400.35 127.095 1431.97 202.23C1464.14 281.427 1403.29 293.601 1433.2 375C1469.47 455.674 1505.5 379.027 1541.01 470.291C1576.52 561.556 1508.8 581.514 1528.55 643.257" stroke="#7BB7EF"/>
<path opacity="0.2" d="M1221.98 -300.559C1201.54 -274.829 1163.32 -231.457 1192.01 -161.973C1230.77 -68.1086 1299.59 -136.48 1334.1 -60.6624C1368.62 15.155 1299.95 19.0777 1341.23 95.9735C1383.5 174.715 1433.35 116.095 1464.97 191.23C1497.14 270.427 1436.29 282.601 1466.2 364C1502.47 444.674 1538.5 368.027 1574.01 459.291C1609.52 550.556 1541.8 570.514 1561.55 632.257" stroke="#7BB7EF"/>
<path opacity="0.2" d="M1254.98 -311.559C1234.54 -285.829 1196.32 -242.457 1225.01 -172.973C1263.77 -79.1086 1332.59 -147.48 1367.1 -71.6624C1401.62 4.15498 1332.95 8.07766 1374.23 84.9735C1416.5 163.715 1466.35 105.095 1497.97 180.23C1530.14 259.427 1469.29 271.601 1499.2 353C1535.47 433.674 1571.5 357.027 1607.01 448.291C1642.52 539.556 1574.8 559.514 1594.55 621.257" stroke="#7BB7EF"/>
<path opacity="0.2" d="M1287.98 -322.559C1267.54 -296.829 1229.32 -253.457 1258.01 -183.973C1296.77 -90.1086 1365.59 -158.48 1400.1 -82.6624C1434.62 -6.84502 1365.95 -2.92234 1407.23 73.9735C1449.5 152.715 1499.35 94.0947 1530.97 169.23C1563.14 248.427 1502.29 260.601 1532.2 342C1568.47 422.674 1604.5 346.027 1640.01 437.291C1675.52 528.556 1607.8 548.514 1627.55 610.257" stroke="#7BB7EF"/>
<path opacity="0.2" d="M1320.98 -333.559C1300.54 -307.829 1262.32 -264.457 1291.01 -194.973C1329.77 -101.109 1398.59 -169.48 1433.1 -93.6624C1467.62 -17.845 1398.95 -13.9223 1440.23 62.9735C1482.5 141.715 1532.35 83.0947 1563.97 158.23C1596.14 237.427 1535.29 249.601 1565.2 331C1601.47 411.674 1637.5 335.027 1673.01 426.291C1708.52 517.556 1640.8 537.514 1660.55 599.257" stroke="#7BB7EF"/>
<path opacity="0.2" d="M1353.98 -344.559C1333.54 -318.829 1295.32 -275.457 1324.01 -205.973C1362.77 -112.109 1431.59 -180.48 1466.1 -104.662C1500.62 -28.845 1431.95 -24.9223 1473.23 51.9735C1515.5 130.715 1565.35 72.0947 1596.97 147.23C1629.14 226.427 1568.29 238.601 1598.2 320C1634.47 400.674 1670.5 324.027 1706.01 415.291C1741.52 506.556 1673.8 526.514 1693.55 588.257" stroke="#7BB7EF"/>
<path opacity="0.2" d="M1386.98 -355.559C1366.54 -329.829 1328.32 -286.457 1357.01 -216.973C1395.77 -123.109 1464.59 -191.48 1499.1 -115.662C1533.62 -39.845 1464.95 -35.9223 1506.23 40.9735C1548.5 119.715 1598.35 61.0947 1629.97 136.23C1662.14 215.427 1601.29 227.601 1631.2 309C1667.47 389.674 1703.5 313.027 1739.01 404.291C1774.52 495.556 1706.8 515.514 1726.55 577.257" stroke="#7BB7EF"/>
<path opacity="0.2" d="M1419.98 -366.559C1399.54 -340.829 1361.32 -297.457 1390.01 -227.973C1428.77 -134.109 1497.59 -202.48 1532.1 -126.662C1566.62 -50.845 1497.95 -46.9223 1539.23 29.9735C1581.5 108.715 1631.35 50.0947 1662.97 125.23C1695.14 204.427 1634.29 216.601 1664.2 298C1700.47 378.674 1736.5 302.027 1772.01 393.291C1807.52 484.556 1739.8 504.514 1759.55 566.257" stroke="#7BB7EF"/>
<path opacity="0.2" d="M1452.98 -377.559C1432.54 -351.829 1394.32 -308.457 1423.01 -238.973C1461.77 -145.109 1530.59 -213.48 1565.1 -137.662C1599.62 -61.845 1530.95 -57.9223 1572.23 18.9735C1614.5 97.7149 1664.35 39.0947 1695.97 114.23C1728.14 193.427 1667.29 205.601 1697.2 287C1733.47 367.674 1769.5 291.027 1805.01 382.291C1840.52 473.556 1772.8 493.514 1792.55 555.257" stroke="#7BB7EF"/>
<path opacity="0.2" d="M1485.98 -388.559C1465.54 -362.829 1427.32 -319.457 1456.01 -249.973C1494.77 -156.109 1563.59 -224.48 1598.1 -148.662C1632.62 -72.845 1563.95 -68.9223 1605.23 7.97352C1647.5 86.7149 1697.35 28.0947 1728.97 103.23C1761.14 182.427 1700.29 194.601 1730.2 276C1766.47 356.674 1802.5 280.027 1838.01 371.291C1873.52 462.556 1805.8 482.514 1825.55 544.257" stroke="#7BB7EF"/>
<path opacity="0.2" d="M1518.98 -399.559C1498.54 -373.829 1460.32 -330.457 1489.01 -260.973C1527.77 -167.109 1596.59 -235.48 1631.1 -159.662C1665.62 -83.845 1596.95 -79.9223 1638.23 -3.02648C1680.5 75.7149 1730.35 17.0947 1761.97 92.2302C1794.14 171.427 1733.29 183.601 1763.2 265C1799.47 345.674 1835.5 269.027 1871.01 360.291C1906.52 451.556 1838.8 471.514 1858.55 533.257" stroke="#7BB7EF"/>
<path opacity="0.2" d="M1551.98 -410.559C1531.54 -384.829 1493.32 -341.457 1522.01 -271.973C1560.77 -178.109 1629.59 -246.48 1664.1 -170.662C1698.62 -94.845 1629.95 -90.9223 1671.23 -14.0265C1713.5 64.7149 1763.35 6.09473 1794.97 81.2302C1827.14 160.427 1766.29 172.601 1796.2 254C1832.47 334.674 1868.5 258.027 1904.01 349.291C1939.52 440.556 1871.8 460.514 1891.55 522.257" stroke="#7BB7EF"/>
<path opacity="0.2" d="M1584.98 -421.559C1564.54 -395.829 1526.32 -352.457 1555.01 -282.973C1593.77 -189.109 1662.59 -257.48 1697.1 -181.662C1731.62 -105.845 1662.95 -101.922 1704.23 -25.0265C1746.5 53.7149 1796.35 -4.90527 1827.97 70.2302C1860.14 149.427 1799.29 161.601 1829.2 243C1865.47 323.674 1901.5 247.027 1937.01 338.291C1972.52 429.556 1904.8 449.514 1924.55 511.257" stroke="#7BB7EF"/>
<path opacity="0.2" d="M1617.98 -432.559C1597.54 -406.829 1559.32 -363.457 1588.01 -293.973C1626.77 -200.109 1695.59 -268.48 1730.1 -192.662C1764.62 -116.845 1695.95 -112.922 1737.23 -36.0265C1779.5 42.7149 1829.35 -15.9053 1860.97 59.2302C1893.14 138.427 1832.29 150.601 1862.2 232C1898.47 312.674 1934.5 236.027 1970.01 327.291C2005.52 418.556 1937.8 438.514 1957.55 500.257" stroke="#7BB7EF"/>
<path opacity="0.2" d="M1650.98 -443.559C1630.54 -417.829 1592.32 -374.457 1621.01 -304.973C1659.77 -211.109 1728.59 -279.48 1763.1 -203.662C1797.62 -127.845 1728.95 -123.922 1770.23 -47.0265C1812.5 31.7149 1862.35 -26.9053 1893.97 48.2302C1926.14 127.427 1865.29 139.601 1895.2 221C1931.47 301.674 1967.5 225.027 2003.01 316.291C2038.52 407.556 1970.8 427.514 1990.55 489.257" stroke="#7BB7EF"/>
<path opacity="0.2" d="M1683.98 -454.559C1663.54 -428.829 1625.32 -385.457 1654.01 -315.973C1692.77 -222.109 1761.59 -290.48 1796.1 -214.662C1830.62 -138.845 1761.95 -134.922 1803.23 -58.0265C1845.5 20.7149 1895.35 -37.9053 1926.97 37.2302C1959.14 116.427 1898.29 128.601 1928.2 210C1964.47 290.674 2000.5 214.027 2036.01 305.291C2071.52 396.556 2003.8 416.514 2023.55 478.257" stroke="#7BB7EF"/>
<path opacity="0.2" d="M1716.98 -465.559C1696.54 -439.829 1658.32 -396.457 1687.01 -326.973C1725.77 -233.109 1794.59 -301.48 1829.1 -225.662C1863.62 -149.845 1794.95 -145.922 1836.23 -69.0265C1878.5 9.71488 1928.35 -48.9053 1959.97 26.2302C1992.14 105.427 1931.29 117.601 1961.2 199C1997.47 279.674 2033.5 203.027 2069.01 294.291C2104.52 385.556 2036.8 405.514 2056.55 467.257" stroke="#7BB7EF"/>
<path opacity="0.2" d="M472.958 -271C454.419 -243.867 419.409 -197.859 453.02 -130.617C498.425 -39.7814 562.154 -112.922 602.03 -39.7812C641.906 33.3594 573.697 42.207 620.394 115.938C668.211 191.438 713.724 129.386 750.662 202.055C788.439 278.734 728.625 295.25 764.304 374.289C806.278 452.148 836.71 373.109 878.685 461.586C920.659 550.062 854.549 574.836 878.685 635" stroke="#7BB7EF"/>
<path opacity="0.2" d="M448.958 -257C430.419 -229.867 395.409 -183.859 429.02 -116.617C474.425 -25.7814 538.154 -98.9219 578.03 -25.7812C617.906 47.3594 549.697 56.207 596.394 129.938C644.211 205.438 689.724 143.386 726.662 216.055C764.439 292.734 704.625 309.25 740.304 388.289C782.278 466.148 812.71 387.109 854.685 475.586C896.659 564.062 830.549 588.836 854.685 649" stroke="#7BB7EF"/>
<path opacity="0.2" d="M424.958 -243C406.419 -215.837 371.409 -169.779 405.02 -102.462C450.425 -11.5262 514.154 -84.7474 554.03 -11.526C593.906 61.6953 525.697 70.5527 572.394 144.365C620.211 219.948 665.724 157.828 702.662 230.577C740.439 307.341 680.625 323.875 716.304 403.001C758.278 480.947 788.71 401.82 830.685 490.395C872.659 578.969 806.549 603.77 830.685 664" stroke="#7BB7EF"/>
<path opacity="0.2" d="M399.958 -228C381.419 -200.867 346.409 -154.859 380.02 -87.6172C425.425 3.21855 489.154 -69.9219 529.03 3.21875C568.906 76.3594 500.697 85.207 547.394 158.938C595.211 234.438 640.724 172.386 677.662 245.055C715.439 321.734 655.625 338.25 691.304 417.289C733.278 495.148 763.71 416.109 805.685 504.586C847.659 593.062 781.549 617.836 805.685 678" stroke="#7BB7EF"/>
<path opacity="0.2" d="M376.958 -215C358.419 -187.807 323.409 -141.698 357.02 -74.3073C402.425 16.729 466.154 -56.5729 506.03 16.7292C545.906 90.0312 477.697 98.8984 524.394 172.792C572.211 248.458 617.724 186.27 654.662 259.099C692.439 335.948 632.625 352.5 668.304 431.714C710.278 509.745 740.71 430.531 782.685 519.203C824.659 607.875 758.549 632.703 782.685 693" stroke="#7BB7EF"/>
<path opacity="0.2" d="M351.958 -200C333.419 -172.837 298.409 -126.779 332.02 -59.4622C377.425 31.4738 441.154 -41.7474 481.03 31.474C520.906 104.695 452.697 113.553 499.394 187.365C547.211 262.948 592.724 200.828 629.662 273.577C667.439 350.341 607.625 366.875 643.304 446.001C685.278 523.947 715.71 444.82 757.685 533.395C799.659 621.969 733.549 646.77 757.685 707" stroke="#7BB7EF"/>
<path opacity="0.2" d="M327.958 -185C309.419 -157.867 274.409 -111.859 308.02 -44.6172C353.425 46.2186 417.154 -26.9219 457.03 46.2188C496.906 119.359 428.697 128.207 475.394 201.938C523.211 277.438 568.724 215.386 605.662 288.055C643.439 364.734 583.625 381.25 619.304 460.289C661.278 538.148 691.71 459.109 733.685 547.586C775.659 636.062 709.549 660.836 733.685 721" stroke="#7BB7EF"/>
<path opacity="0.2" d="M303.958 -171C285.419 -143.867 250.409 -97.8594 284.02 -30.6172C329.425 60.2186 393.154 -12.9219 433.03 60.2188C472.906 133.359 404.697 142.207 451.394 215.938C499.211 291.438 544.724 229.386 581.662 302.055C619.439 378.734 559.625 395.25 595.304 474.289C637.278 552.148 667.71 473.109 709.685 561.586C751.659 650.062 685.549 674.836 709.685 735" stroke="#7BB7EF"/>
<path opacity="0.2" d="M279.958 -156C261.419 -128.867 226.409 -82.8594 260.02 -15.6172C305.425 75.2186 369.154 2.07812 409.03 75.2188C448.906 148.359 380.697 157.207 427.394 230.938C475.211 306.438 520.724 244.386 557.662 317.055C595.439 393.734 535.625 410.25 571.304 489.289C613.278 567.148 643.71 488.109 685.685 576.586C727.659 665.062 661.549 689.836 685.685 750" stroke="#7BB7EF"/>
<path opacity="0.2" d="M255.958 -142C237.419 -114.897 202.409 -68.9401 236.02 -1.77214C281.425 88.9633 345.154 15.9036 385.03 88.9635C424.906 162.023 356.697 170.861 403.394 244.51C451.211 319.927 496.724 257.944 533.662 330.533C571.439 407.128 511.625 423.625 547.304 502.577C589.278 580.35 619.71 501.398 661.685 589.777C703.659 678.156 637.549 702.902 661.685 763" stroke="#7BB7EF"/>
<path opacity="0.2" d="M231.958 -128C213.419 -100.867 178.409 -54.8594 212.02 12.3828C257.425 103.219 321.154 30.0781 361.03 103.219C400.906 176.359 332.697 185.207 379.394 258.938C427.211 334.438 472.724 272.386 509.662 345.055C547.439 421.734 487.625 438.25 523.304 517.289C565.278 595.148 595.71 516.109 637.685 604.586C679.659 693.062 613.549 717.836 637.685 778" stroke="#7BB7EF"/>
<path opacity="0.2" d="M206.958 -114C188.419 -86.8672 153.409 -40.8594 187.02 26.3828C232.425 117.219 296.154 44.0781 336.03 117.219C375.906 190.359 307.697 199.207 354.394 272.938C402.211 348.438 447.724 286.386 484.662 359.055C522.439 435.734 462.625 452.25 498.304 531.289C540.278 609.148 570.71 530.109 612.685 618.586C654.659 707.062 588.549 731.836 612.685 792" stroke="#7BB7EF"/>
<path opacity="0.2" d="M183.958 -99C165.419 -71.8971 130.409 -25.9401 164.02 41.2279C209.425 131.963 273.154 58.9036 313.03 131.964C352.906 205.023 284.697 213.861 331.394 287.51C379.211 362.927 424.724 300.944 461.662 373.533C499.439 450.128 439.625 466.625 475.304 545.577C517.278 623.35 547.71 544.398 589.685 632.777C631.659 721.156 565.549 745.902 589.685 806" stroke="#7BB7EF"/>
<path opacity="0.2" d="M158.958 -86C140.419 -58.8672 105.409 -12.8594 139.02 54.3828C184.425 145.219 248.154 72.0781 288.03 145.219C327.906 218.359 259.697 227.207 306.394 300.938C354.211 376.438 399.724 314.386 436.662 387.055C474.439 463.734 414.625 480.25 450.304 559.289C492.278 637.148 522.71 558.109 564.685 646.586C606.659 735.062 540.549 759.836 564.685 820" stroke="#7BB7EF"/>
<path opacity="0.2" d="M134.958 -71C116.419 -43.8672 81.4087 2.14062 115.02 69.3828C160.425 160.219 224.154 87.0781 264.03 160.219C303.906 233.359 235.697 242.207 282.394 315.938C330.211 391.438 375.724 329.386 412.662 402.055C450.439 478.734 390.625 495.25 426.304 574.289C468.278 652.148 498.71 573.109 540.685 661.586C582.659 750.062 516.549 774.836 540.685 835" stroke="#7BB7EF"/>
<path opacity="0.2" d="M110.958 -57C92.4192 -29.8672 57.4087 16.1406 91.02 83.3828C136.425 174.219 200.154 101.078 240.03 174.219C279.906 247.359 211.697 256.207 258.394 329.938C306.211 405.438 351.724 343.386 388.662 416.055C426.439 492.734 366.625 509.25 402.304 588.289C444.278 666.148 474.71 587.109 516.685 675.586C558.659 764.062 492.549 788.836 516.685 849" stroke="#7BB7EF"/>
<path opacity="0.2" d="M86.958 -43C68.4192 -15.8372 33.4087 30.2214 67.02 97.5378C112.425 188.474 176.154 115.253 216.03 188.474C255.906 261.695 187.697 270.553 234.394 344.365C282.211 419.948 327.724 357.828 364.662 430.577C402.439 507.341 342.625 523.875 378.304 603.001C420.278 680.947 450.71 601.82 492.685 690.395C534.659 778.969 468.549 803.77 492.685 864" stroke="#7BB7EF"/>
<path opacity="0.2" d="M62.958 -29C44.4192 -1.83724 9.40865 44.2214 43.02 111.538C88.4247 202.474 152.154 129.253 192.03 202.474C231.906 275.695 163.697 284.553 210.394 358.365C258.211 433.948 303.724 371.828 340.662 444.577C378.439 521.341 318.625 537.875 354.304 617.001C396.278 694.947 426.71 615.82 468.685 704.395C510.659 792.969 444.549 817.77 468.685 878" stroke="#7BB7EF"/>
<path opacity="0.2" d="M38.958 -14C20.4192 13.1328 -14.5913 59.1406 19.02 126.383C64.4247 217.219 128.154 144.078 168.03 217.219C207.906 290.359 139.697 299.207 186.394 372.938C234.211 448.438 279.724 386.386 316.662 459.055C354.439 535.734 294.625 552.25 330.304 631.289C372.278 709.148 402.71 630.109 444.685 718.586C486.659 807.062 420.549 831.836 444.685 892" stroke="#7BB7EF"/>
<path opacity="0.2" d="M13.958 0C-4.58084 27.1328 -39.5913 73.1406 -5.98 140.383C39.4247 231.219 103.154 158.078 143.03 231.219C182.906 304.359 114.697 313.207 161.394 386.938C209.211 462.438 254.724 400.386 291.662 473.055C329.439 549.734 269.625 566.25 305.304 645.289C347.278 723.148 377.71 644.109 419.685 732.586C461.659 821.062 395.549 845.836 419.685 906" stroke="#7BB7EF"/>
<path opacity="0.2" d="M-9.04203 15C-27.5808 42.1328 -62.5913 88.1406 -28.98 155.383C16.4247 246.219 80.1541 173.078 120.03 246.219C159.906 319.359 91.6971 328.207 138.394 401.938C186.211 477.438 231.724 415.386 268.662 488.055C306.439 564.734 246.625 581.25 282.304 660.289C324.278 738.148 354.71 659.109 396.685 747.586C438.659 836.062 372.549 860.836 396.685 921" stroke="#7BB7EF"/>
<path opacity="0.2" d="M-34.042 29C-52.5808 56.1029 -87.5913 102.06 -53.98 169.228C-8.5753 259.963 55.1541 186.904 95.03 259.964C134.906 333.023 66.6971 341.861 113.394 415.51C161.211 490.927 206.724 428.944 243.662 501.533C281.439 578.128 221.625 594.625 257.304 673.577C299.278 751.35 329.71 672.398 371.685 760.777C413.659 849.156 347.549 873.902 371.685 934" stroke="#7BB7EF"/>
<path opacity="0.2" d="M-58.042 43C-76.5808 70.1328 -111.591 116.141 -77.98 183.383C-32.5753 274.219 31.1541 201.078 71.03 274.219C110.906 347.359 42.6971 356.207 89.394 429.938C137.211 505.438 182.724 443.386 219.662 516.055C257.439 592.734 197.625 609.25 233.304 688.289C275.278 766.148 305.71 687.109 347.685 775.586C389.659 864.062 323.549 888.836 347.685 949" stroke="#7BB7EF"/>
<path opacity="0.2" d="M-82.042 57C-100.581 84.1328 -135.591 130.141 -101.98 197.383C-56.5753 288.219 7.15411 215.078 47.03 288.219C86.906 361.359 18.6971 370.207 65.394 443.938C113.211 519.438 158.724 457.386 195.662 530.055C233.439 606.734 173.625 623.25 209.304 702.289C251.278 780.148 281.71 701.109 323.685 789.586C365.659 878.062 299.549 902.836 323.685 963" stroke="#7BB7EF"/>
<path opacity="0.2" d="M-106.042 72C-124.581 99.1029 -159.591 145.06 -125.98 212.228C-80.5753 302.963 -16.8459 229.904 23.03 302.964C62.906 376.023 -5.30286 384.861 41.394 458.51C89.2115 533.927 134.724 471.944 171.662 544.533C209.439 621.128 149.625 637.625 185.304 716.577C227.278 794.35 257.71 715.398 299.685 803.777C341.659 892.156 275.549 916.902 299.685 977" stroke="#7BB7EF"/>
<path opacity="0.2" d="M-130.117 85C-148.615 112.133 -183.548 158.141 -150.011 225.383C-104.706 316.219 -41.1171 243.078 -1.32905 316.219C38.4591 389.359 -29.5995 398.207 16.9944 471.938C64.7066 547.438 110.119 485.386 146.975 558.055C184.669 634.734 124.987 651.25 160.587 730.289C202.469 808.148 232.834 729.109 274.716 817.586C316.598 906.062 250.634 930.836 274.716 991" stroke="#7BB7EF"/>
<path opacity="0.2" d="M-154.042 100C-172.581 127.133 -207.591 173.141 -173.98 240.383C-128.575 331.219 -64.8459 258.078 -24.97 331.219C14.906 404.359 -53.3029 413.207 -6.60604 486.938C41.2115 562.438 86.7242 500.386 123.662 573.055C161.439 649.734 101.625 666.25 137.304 745.289C179.278 823.148 209.71 744.109 251.685 832.586C293.659 921.062 227.549 945.836 251.685 1006" stroke="#7BB7EF"/>
<path opacity="0.2" d="M-178.117 114C-196.615 141.133 -231.548 187.141 -198.011 254.383C-152.706 345.219 -89.1171 272.078 -49.329 345.219C-9.54095 418.359 -77.5995 427.207 -31.0056 500.938C16.7066 576.438 62.1191 514.386 98.9754 587.055C136.669 663.734 76.9872 680.25 112.587 759.289C154.469 837.148 184.834 758.109 226.716 846.586C268.598 935.062 202.634 959.836 226.716 1020" stroke="#7BB7EF"/>
<path opacity="0.2" d="M-202.967 128C-221.547 155.163 -256.634 201.221 -222.949 268.538C-177.444 359.474 -113.575 286.253 -73.6109 359.474C-33.6471 432.695 -102.006 441.553 -55.2065 515.365C-7.28364 590.948 38.3293 528.828 75.3483 601.577C113.209 678.341 53.2631 694.875 89.0202 774.001C131.087 851.947 161.586 772.82 203.653 861.395C245.72 949.969 179.464 974.77 203.653 1035" stroke="#7BB7EF"/>
<path opacity="0.2" d="M-227.042 142C-245.581 169.193 -280.591 215.302 -246.98 282.693C-201.575 373.729 -137.846 300.427 -97.97 373.729C-58.094 447.031 -126.303 455.898 -79.606 529.792C-31.7885 605.458 13.7242 543.27 50.6619 616.099C88.4391 692.948 28.6252 709.5 64.3036 788.714C106.278 866.745 136.71 787.531 178.685 876.203C220.659 964.875 154.549 989.703 178.685 1050" stroke="#7BB7EF"/>
<path opacity="0.2" d="M-251.042 157C-269.581 184.133 -304.591 230.141 -270.98 297.383C-225.575 388.219 -161.846 315.078 -121.97 388.219C-82.094 461.359 -150.303 470.207 -103.606 543.938C-55.7885 619.438 -10.2758 557.386 26.6619 630.055C64.4391 706.734 4.62518 723.25 40.3036 802.289C82.2783 880.148 112.71 801.109 154.685 889.586C196.659 978.062 130.549 1002.84 154.685 1063" stroke="#7BB7EF"/>
<path opacity="0.2" d="M-275.042 171C-293.581 198.163 -328.591 244.221 -294.98 311.538C-249.575 402.474 -185.846 329.253 -145.97 402.474C-106.094 475.695 -174.303 484.553 -127.606 558.365C-79.7885 633.948 -34.2758 571.828 2.66188 644.577C40.4391 721.341 -19.3748 737.875 16.3036 817.001C58.2783 894.947 88.7099 815.82 130.685 904.395C172.659 992.969 106.549 1017.77 130.685 1078" stroke="#7BB7EF"/>
<path opacity="0.2" d="M-299.042 186C-317.581 213.133 -352.591 259.141 -318.98 326.383C-273.575 417.219 -209.846 344.078 -169.97 417.219C-130.094 490.359 -198.303 499.207 -151.606 572.938C-103.789 648.438 -58.2758 586.386 -21.3381 659.055C16.4391 735.734 -43.3748 752.25 -7.69636 831.289C34.2783 909.148 64.7099 830.109 106.685 918.586C148.659 1007.06 82.5492 1031.84 106.685 1092" stroke="#7BB7EF"/>
<path opacity="0.2" d="M-323.117 200C-341.615 227.133 -376.548 273.141 -343.011 340.383C-297.706 431.219 -234.117 358.078 -194.329 431.219C-154.541 504.359 -222.6 513.207 -176.006 586.938C-128.293 662.438 -82.8809 600.386 -46.0246 673.055C-8.3306 749.734 -68.0128 766.25 -32.4129 845.289C9.46934 923.148 39.8339 844.109 81.7161 932.586C123.598 1021.06 57.6339 1045.84 81.7161 1106" stroke="#7BB7EF"/>
<path opacity="0.2" d="M-347.042 214C-365.581 241.133 -400.591 287.141 -366.98 354.383C-321.575 445.219 -257.846 372.078 -217.97 445.219C-178.094 518.359 -246.303 527.207 -199.606 600.938C-151.789 676.438 -106.276 614.386 -69.3381 687.055C-31.5609 763.734 -91.3748 780.25 -55.6964 859.289C-13.7217 937.148 16.7099 858.109 58.6846 946.586C100.659 1035.06 34.5492 1059.84 58.6846 1120" stroke="#7BB7EF"/>
</g>
<defs>
<clipPath id="clip0">
<rect width="1921" height="474" fill="white"/>
</clipPath>
</defs>
</svg>
